# MagicaVoxel @ Ephtracy

# group
o 

# material
mtllib The Twitcher-2.mtl
usemtl palette

# normals
vn -1 0 0
vn 1 0 0
vn 0 0 1
vn 0 0 -1
vn 0 -1 0
vn 0 1 0

# texcoords
vt 0.962891 0.5
vt 0.966797 0.5
vt 0.978516 0.5

# verts
v -1.2 0.6 -6.2
v -1.2 0.6 -6.3
v -1.2 0.8 -6.2
v -1.2 0.8 -6.3
v -1.1 0.7 -6.1
v -1.1 0.7 -6.2
v -1.1 0.7 -6.3
v -1.1 0.7 -6.4
v -1.1 0.8 -6.1
v -1.1 0.8 -6.2
v -1.1 0.8 -6.3
v -1.1 0.8 -6.4
v -1.1 0.9 -6.2
v -1.1 0.9 -6.3
v -1 1.4 -6.2
v -1 1.4 -6.3
v -1 1.6 -6.2
v -1 1.6 -6.3
v -0.9 0.6 -6.2
v -0.9 0.6 -6.3
v -0.9 0.7 -6.2
v -0.9 0.7 -6.3
v -0.9 1.5 -6.1
v -0.9 1.5 -6.2
v -0.9 1.5 -6.3
v -0.9 1.5 -6.4
v -0.9 1.6 -6.2
v -0.9 1.6 -6.3
v -0.9 1.7 -6.1
v -0.9 1.7 -6.4
v -0.8 0.5 -6.2
v -0.8 0.5 -6.3
v -0.8 0.6 -6.2
v -0.8 0.6 -6.3
v -0.7 0.4 -5.8
v -0.7 0.4 -5.9
v -0.7 0.5 -5.8
v -0.7 0.5 -5.9
v -0.7 1.5 -6.2
v -0.7 1.5 -6.3
v -0.7 1.6 -6.2
v -0.7 1.6 -6.3
v -0.6 0 -6.1
v -0.6 0 -6.3
v -0.6 0.3 -5.7
v -0.6 0.3 -5.8
v -0.6 0.3 -5.9
v -0.6 0.3 -6.1
v -0.6 0.4 -5.8
v -0.6 0.4 -5.9
v -0.6 0.4 -6
v -0.6 0.4 -6.1
v -0.6 0.5 -5.7
v -0.6 0.5 -5.8
v -0.6 0.5 -5.9
v -0.6 0.5 -6
v -0.6 0.5 -6.2
v -0.6 0.5 -6.3
v -0.6 0.6 -5.8
v -0.6 0.6 -5.9
v -0.6 0.6 -6.2
v -0.6 0.6 -6.3
v -0.6 0.7 -6.2
v -0.6 0.7 -6.3
v -0.6 0.8 -6.1
v -0.6 0.8 -6.2
v -0.6 0.8 -6.5
v -0.6 0.8 -6.8
v -0.6 0.9 -6.5
v -0.6 0.9 -6.8
v -0.5 0.7 -6.2
v -0.5 0.7 -6.3
v -0.5 0.7 -6.5
v -0.5 0.7 -6.7
v -0.5 0.7 -6.8
v -0.5 0.8 -6.1
v -0.5 0.8 -6.2
v -0.5 0.8 -6.3
v -0.5 0.8 -6.4
v -0.5 0.8 -6.5
v -0.5 0.8 -6.7
v -0.5 0.8 -6.8
v -0.5 0.9 -6.1
v -0.5 0.9 -6.2
v -0.5 0.9 -6.4
v -0.5 0.9 -6.5
v -0.5 0.9 -6.6
v -0.5 0.9 -6.8
v -0.5 1 -6.2
v -0.5 1 -6.3
v -0.5 1 -6.6
v -0.5 1 -6.8
v -0.5 1.2 -5.7
v -0.5 1.2 -5.9
v -0.5 1.3 -5.7
v -0.5 1.3 -5.9
v -0.5 1.3 -6.1
v -0.5 1.3 -6.3
v -0.5 1.5 -6.2
v -0.5 1.5 -6.3
v -0.5 1.6 -6.2
v -0.5 1.6 -6.3
v -0.5 1.7 -6.1
v -0.5 1.7 -6.2
v -0.5 1.8 -6.2
v -0.5 1.8 -6.3
v -0.4 0.9 -6.1
v -0.4 0.9 -6.2
v -0.4 1 -6.2
v -0.4 1 -6.3
v -0.4 1.1 -5.6
v -0.4 1.1 -5.8
v -0.4 1.1 -5.9
v -0.4 1.1 -6.1
v -0.4 1.2 -5.7
v -0.4 1.2 -5.8
v -0.4 1.2 -5.9
v -0.4 1.2 -6
v -0.4 1.2 -6.1
v -0.4 1.3 -5.6
v -0.4 1.3 -5.7
v -0.4 1.3 -5.9
v -0.4 1.3 -6
v -0.4 1.3 -6.1
v -0.4 1.3 -6.3
v -0.3 0.6 -6.1
v -0.3 0.6 -6.2
v -0.3 0.7 -6.1
v -0.3 0.7 -6.2
v -0.3 1.2 -6.3
v -0.3 1.2 -6.5
v -0.3 1.3 -6.3
v -0.3 1.3 -6.4
v -0.3 1.3 -6.5
v -0.3 1.3 -6.6
v -0.3 1.3 -6.7
v -0.3 1.4 -6.4
v -0.3 1.4 -6.5
v -0.3 1.4 -6.6
v -0.3 1.4 -6.7
v -0.3 1.5 -6.5
v -0.3 1.5 -6.6
v -0.2 0.6 -6
v -0.2 0.6 -6.1
v -0.2 0.6 -6.2
v -0.2 0.6 -6.3
v -0.2 0.7 -6
v -0.2 0.7 -6.1
v -0.2 0.7 -6.2
v -0.2 0.7 -6.3
v -0.2 0.8 -6.1
v -0.2 0.8 -6.2
v -0.2 1.3 -6.7
v -0.2 1.3 -6.8
v -0.2 1.4 -6.6
v -0.2 1.4 -6.7
v -0.2 1.4 -6.8
v -0.2 1.5 -6.6
v -0.2 1.5 -6.7
v -0.1 0.5 -6
v -0.1 0.5 -6.1
v -0.1 0.6 -6
v -0.1 0.6 -6.1
v -0.1 1.2 -6.7
v -0.1 1.2 -6.8
v -0.1 1.3 -6.7
v -0.1 1.3 -6.8
v -1.1 0.6 -6.2
v -1.1 0.6 -6.3
v -1.1 0.7 -6.2
v -1.1 0.7 -6.3
v -0.9 0.7 -6.1
v -0.9 0.7 -6.2
v -0.9 0.7 -6.3
v -0.9 0.7 -6.4
v -0.9 0.8 -6.1
v -0.9 0.8 -6.2
v -0.9 0.8 -6.3
v -0.9 0.8 -6.4
v -0.9 0.9 -6.2
v -0.9 0.9 -6.3
v -0.9 1.4 -6.2
v -0.9 1.4 -6.3
v -0.9 1.5 -6.2
v -0.9 1.5 -6.3
v -0.8 0.7 -6.2
v -0.8 0.7 -6.3
v -0.8 0.8 -6.2
v -0.8 0.8 -6.3
v -0.8 1.5 -6.1
v -0.8 1.5 -6.4
v -0.8 1.6 -6.1
v -0.8 1.6 -6.2
v -0.8 1.6 -6.3
v -0.8 1.6 -6.4
v -0.7 0.6 -6.2
v -0.7 0.6 -6.3
v -0.7 0.7 -6.2
v -0.7 0.7 -6.3
v -0.7 1.6 -6.1
v -0.7 1.6 -6.2
v -0.7 1.6 -6.3
v -0.7 1.6 -6.4
v -0.7 1.7 -6.1
v -0.7 1.7 -6.2
v -0.7 1.7 -6.3
v -0.7 1.7 -6.4
v -0.6 1.6 -6.2
v -0.6 1.6 -6.3
v -0.6 1.7 -6.2
v -0.6 1.7 -6.3
v -0.5 0.3 -5.7
v -0.5 0.3 -5.8
v -0.5 0.3 -5.9
v -0.5 0.3 -6.1
v -0.5 0.4 -5.8
v -0.5 0.4 -5.9
v -0.5 0.4 -6
v -0.5 0.4 -6.1
v -0.5 0.5 -5.7
v -0.5 0.5 -5.8
v -0.5 0.5 -5.9
v -0.5 0.5 -6
v -0.5 0.6 -5.8
v -0.5 0.6 -5.9
v -0.4 0 -6.1
v -0.4 0 -6.3
v -0.4 0.4 -5.8
v -0.4 0.4 -5.9
v -0.4 0.5 -5.8
v -0.4 0.5 -5.9
v -0.4 0.5 -6.1
v -0.4 0.5 -6.2
v -0.4 0.6 -6.1
v -0.4 0.6 -6.2
v -0.4 0.7 -6.3
v -0.4 0.7 -6.5
v -0.4 0.7 -6.7
v -0.4 0.7 -6.8
v -0.4 0.8 -6.3
v -0.4 0.8 -6.4
v -0.4 0.8 -6.5
v -0.4 0.8 -6.6
v -0.4 0.8 -6.7
v -0.4 0.8 -6.8
v -0.4 0.9 -6.1
v -0.4 0.9 -6.3
v -0.4 0.9 -6.4
v -0.4 0.9 -6.6
v -0.4 0.9 -6.8
v -0.4 1 -6.6
v -0.4 1 -6.8
v -0.4 1.4 -6.1
v -0.4 1.4 -6.3
v -0.4 1.7 -6.1
v -0.4 1.7 -6.2
v -0.4 1.8 -6.2
v -0.4 1.8 -6.3
v -0.3 0.8 -6.6
v -0.3 0.8 -6.8
v -0.3 0.9 -6.1
v -0.3 0.9 -6.3
v -0.3 0.9 -6.6
v -0.3 0.9 -6.8
v -0.3 1 -6.1
v -0.3 1 -6.2
v -0.3 1.1 -5.6
v -0.3 1.1 -5.8
v -0.3 1.1 -5.9
v -0.3 1.1 -6.1
v -0.3 1.1 -6.2
v -0.3 1.1 -6.3
v -0.3 1.2 -5.7
v -0.3 1.2 -5.8
v -0.3 1.2 -5.9
v -0.3 1.2 -6
v -0.3 1.2 -6.1
v -0.3 1.3 -5.6
v -0.3 1.3 -5.7
v -0.3 1.3 -5.9
v -0.3 1.3 -6
v -0.3 1.3 -6.1
v -0.3 1.3 -6.2
v -0.3 1.4 -6.1
v -0.3 1.4 -6.2
v -0.2 0.5 -6.1
v -0.2 0.5 -6.2
v -0.2 0.6 -6.1
v -0.2 0.6 -6.2
v -0.2 1 -6.1
v -0.2 1 -6.2
v -0.2 1.1 -6.2
v -0.2 1.1 -6.3
v -0.2 1.2 -5.7
v -0.2 1.2 -5.9
v -0.2 1.2 -6.3
v -0.2 1.2 -6.5
v -0.2 1.3 -5.7
v -0.2 1.3 -5.9
v -0.2 1.3 -6.1
v -0.2 1.3 -6.2
v -0.2 1.3 -6.3
v -0.2 1.3 -6.4
v -0.2 1.3 -6.5
v -0.2 1.4 -6.2
v -0.2 1.4 -6.3
v -0.2 1.4 -6.4
v -0.2 1.4 -6.5
v -0.2 1.4 -6.6
v -0.2 1.5 -6.5
v -0.2 1.5 -6.6
v -0.1 0.6 -6.2
v -0.1 0.6 -6.3
v -0.1 0.7 -6.1
v -0.1 0.7 -6.2
v -0.1 0.7 -6.3
v -0.1 0.8 -6.1
v -0.1 0.8 -6.2
v -0.1 1.3 -6.5
v -0.1 1.3 -6.6
v -0.1 1.4 -6.5
v -0.1 1.4 -6.6
v -0.1 1.4 -6.7
v -0.1 1.5 -6.6
v -0.1 1.5 -6.7
v 0 0.5 -6
v 0 0.5 -6.1
v 0 0.6 -6.1
v 0 0.6 -6.2
v 0 0.7 -6
v 0 0.7 -6.2
v 0 1.2 -6.7
v 0 1.2 -6.8
v 0 1.3 -6.6
v 0 1.3 -6.7
v 0 1.4 -6.6
v 0 1.4 -6.8
v -0.4 1.1 -5.6
v -0.4 1.3 -5.6
v -0.3 1.1 -5.6
v -0.3 1.3 -5.6
v -0.6 0.3 -5.7
v -0.6 0.5 -5.7
v -0.5 0.3 -5.7
v -0.5 0.5 -5.7
v -0.5 1.2 -5.7
v -0.5 1.3 -5.7
v -0.4 1.2 -5.7
v -0.4 1.3 -5.7
v -0.3 1.2 -5.7
v -0.3 1.3 -5.7
v -0.2 1.2 -5.7
v -0.2 1.3 -5.7
v -0.7 0.4 -5.8
v -0.7 0.5 -5.8
v -0.6 0.4 -5.8
v -0.6 0.5 -5.8
v -0.6 0.6 -5.8
v -0.5 0.4 -5.8
v -0.5 0.5 -5.8
v -0.5 0.6 -5.8
v -0.4 0.4 -5.8
v -0.4 0.5 -5.8
v -0.6 0.3 -5.9
v -0.6 0.4 -5.9
v -0.5 0.3 -5.9
v -0.5 0.4 -5.9
v -0.4 1.1 -5.9
v -0.4 1.2 -5.9
v -0.3 1.1 -5.9
v -0.3 1.2 -5.9
v -0.2 0.6 -6
v -0.2 0.7 -6
v -0.1 0.5 -6
v -0.1 0.6 -6
v 0 0.5 -6
v 0 0.7 -6
v -1.1 0.7 -6.1
v -1.1 0.8 -6.1
v -0.9 0.7 -6.1
v -0.9 0.8 -6.1
v -0.9 1.5 -6.1
v -0.9 1.7 -6.1
v -0.8 1.5 -6.1
v -0.8 1.6 -6.1
v -0.7 1.6 -6.1
v -0.7 1.7 -6.1
v -0.6 0 -6.1
v -0.6 0.3 -6.1
v -0.6 0.4 -6.1
v -0.6 0.8 -6.1
v -0.5 0.3 -6.1
v -0.5 0.4 -6.1
v -0.5 0.8 -6.1
v -0.5 0.9 -6.1
v -0.5 1.3 -6.1
v -0.5 1.7 -6.1
v -0.4 0 -6.1
v -0.4 0.5 -6.1
v -0.4 0.6 -6.1
v -0.4 0.9 -6.1
v -0.4 1.1 -6.1
v -0.4 1.2 -6.1
v -0.4 1.3 -6.1
v -0.4 1.4 -6.1
v -0.4 1.7 -6.1
v -0.3 0.6 -6.1
v -0.3 0.7 -6.1
v -0.3 0.9 -6.1
v -0.3 1 -6.1
v -0.3 1.1 -6.1
v -0.3 1.2 -6.1
v -0.3 1.3 -6.1
v -0.3 1.4 -6.1
v -0.2 0.5 -6.1
v -0.2 0.6 -6.1
v -0.2 0.7 -6.1
v -0.2 0.8 -6.1
v -0.2 1 -6.1
v -0.2 1.3 -6.1
v -0.1 0.7 -6.1
v -0.1 0.8 -6.1
v -1.2 0.6 -6.2
v -1.2 0.8 -6.2
v -1.1 0.6 -6.2
v -1.1 0.7 -6.2
v -1.1 0.8 -6.2
v -1.1 0.9 -6.2
v -1 1.4 -6.2
v -1 1.6 -6.2
v -0.9 0.6 -6.2
v -0.9 0.7 -6.2
v -0.9 0.8 -6.2
v -0.9 0.9 -6.2
v -0.9 1.4 -6.2
v -0.9 1.5 -6.2
v -0.9 1.6 -6.2
v -0.8 0.5 -6.2
v -0.8 0.6 -6.2
v -0.8 0.7 -6.2
v -0.8 0.8 -6.2
v -0.7 0.6 -6.2
v -0.7 0.7 -6.2
v -0.7 1.5 -6.2
v -0.7 1.6 -6.2
v -0.7 1.7 -6.2
v -0.6 0.5 -6.2
v -0.6 0.6 -6.2
v -0.6 1.6 -6.2
v -0.6 1.7 -6.2
v -0.5 0.9 -6.2
v -0.5 1 -6.2
v -0.5 1.5 -6.2
v -0.5 1.6 -6.2
v -0.5 1.7 -6.2
v -0.5 1.8 -6.2
v -0.4 0.9 -6.2
v -0.4 1 -6.2
v -0.4 1.7 -6.2
v -0.4 1.8 -6.2
v -0.3 1.3 -6.2
v -0.3 1.4 -6.2
v -0.2 1.3 -6.2
v -0.2 1.4 -6.2
v -0.5 0.8 -6.4
v -0.5 0.9 -6.4
v -0.4 0.8 -6.4
v -0.4 0.9 -6.4
v -0.3 1.3 -6.4
v -0.3 1.4 -6.4
v -0.2 1.3 -6.4
v -0.2 1.4 -6.4
v -0.6 0.8 -6.5
v -0.6 0.9 -6.5
v -0.5 0.8 -6.5
v -0.5 0.9 -6.5
v -0.3 1.4 -6.5
v -0.3 1.5 -6.5
v -0.2 1.3 -6.5
v -0.2 1.4 -6.5
v -0.2 1.5 -6.5
v -0.1 1.3 -6.5
v -0.1 1.4 -6.5
v -0.5 0.9 -6.6
v -0.5 1 -6.6
v -0.4 0.8 -6.6
v -0.4 0.9 -6.6
v -0.4 1 -6.6
v -0.3 0.8 -6.6
v -0.3 0.9 -6.6
v -0.2 1.4 -6.6
v -0.2 1.5 -6.6
v -0.1 1.3 -6.6
v -0.1 1.4 -6.6
v -0.1 1.5 -6.6
v 0 1.3 -6.6
v 0 1.4 -6.6
v -0.5 0.7 -6.7
v -0.5 0.8 -6.7
v -0.4 0.7 -6.7
v -0.4 0.8 -6.7
v -0.1 1.2 -6.7
v -0.1 1.3 -6.7
v 0 1.2 -6.7
v 0 1.3 -6.7
v -0.6 0.3 -5.8
v -0.6 0.4 -5.8
v -0.5 0.3 -5.8
v -0.5 0.4 -5.8
v -0.4 1.1 -5.8
v -0.4 1.2 -5.8
v -0.3 1.1 -5.8
v -0.3 1.2 -5.8
v -0.7 0.4 -5.9
v -0.7 0.5 -5.9
v -0.6 0.4 -5.9
v -0.6 0.5 -5.9
v -0.6 0.6 -5.9
v -0.5 0.4 -5.9
v -0.5 0.5 -5.9
v -0.5 0.6 -5.9
v -0.5 1.2 -5.9
v -0.5 1.3 -5.9
v -0.4 0.4 -5.9
v -0.4 0.5 -5.9
v -0.4 1.2 -5.9
v -0.4 1.3 -5.9
v -0.3 1.2 -5.9
v -0.3 1.3 -5.9
v -0.2 1.2 -5.9
v -0.2 1.3 -5.9
v -0.6 0.4 -6
v -0.6 0.5 -6
v -0.5 0.4 -6
v -0.5 0.5 -6
v -0.4 1.2 -6
v -0.4 1.3 -6
v -0.3 1.2 -6
v -0.3 1.3 -6
v -0.1 0.5 -6.1
v -0.1 0.6 -6.1
v 0 0.5 -6.1
v 0 0.6 -6.1
v -0.6 0.7 -6.2
v -0.6 0.8 -6.2
v -0.5 0.7 -6.2
v -0.5 0.8 -6.2
v -0.4 0.5 -6.2
v -0.4 0.6 -6.2
v -0.3 0.6 -6.2
v -0.3 0.7 -6.2
v -0.3 1 -6.2
v -0.3 1.1 -6.2
v -0.2 0.5 -6.2
v -0.2 0.6 -6.2
v -0.2 0.7 -6.2
v -0.2 0.8 -6.2
v -0.2 1 -6.2
v -0.2 1.1 -6.2
v -0.1 0.6 -6.2
v -0.1 0.7 -6.2
v -0.1 0.8 -6.2
v 0 0.6 -6.2
v 0 0.7 -6.2
v -1.2 0.6 -6.3
v -1.2 0.8 -6.3
v -1.1 0.6 -6.3
v -1.1 0.7 -6.3
v -1.1 0.8 -6.3
v -1.1 0.9 -6.3
v -1 1.4 -6.3
v -1 1.6 -6.3
v -0.9 0.6 -6.3
v -0.9 0.7 -6.3
v -0.9 0.8 -6.3
v -0.9 0.9 -6.3
v -0.9 1.4 -6.3
v -0.9 1.5 -6.3
v -0.9 1.6 -6.3
v -0.8 0.5 -6.3
v -0.8 0.6 -6.3
v -0.8 0.7 -6.3
v -0.8 0.8 -6.3
v -0.7 0.6 -6.3
v -0.7 0.7 -6.3
v -0.7 1.5 -6.3
v -0.7 1.6 -6.3
v -0.7 1.7 -6.3
v -0.6 0 -6.3
v -0.6 0.5 -6.3
v -0.6 0.6 -6.3
v -0.6 0.7 -6.3
v -0.6 1.6 -6.3
v -0.6 1.7 -6.3
v -0.5 0.7 -6.3
v -0.5 0.8 -6.3
v -0.5 1 -6.3
v -0.5 1.3 -6.3
v -0.5 1.5 -6.3
v -0.5 1.6 -6.3
v -0.5 1.8 -6.3
v -0.4 0 -6.3
v -0.4 0.7 -6.3
v -0.4 0.8 -6.3
v -0.4 0.9 -6.3
v -0.4 1 -6.3
v -0.4 1.3 -6.3
v -0.4 1.4 -6.3
v -0.4 1.8 -6.3
v -0.3 0.9 -6.3
v -0.3 1.1 -6.3
v -0.3 1.2 -6.3
v -0.3 1.3 -6.3
v -0.2 0.6 -6.3
v -0.2 0.7 -6.3
v -0.2 1.1 -6.3
v -0.2 1.2 -6.3
v -0.2 1.3 -6.3
v -0.2 1.4 -6.3
v -0.1 0.6 -6.3
v -0.1 0.7 -6.3
v -1.1 0.7 -6.4
v -1.1 0.8 -6.4
v -0.9 0.7 -6.4
v -0.9 0.8 -6.4
v -0.9 1.5 -6.4
v -0.9 1.7 -6.4
v -0.8 1.5 -6.4
v -0.8 1.6 -6.4
v -0.7 1.6 -6.4
v -0.7 1.7 -6.4
v -0.5 0.7 -6.5
v -0.5 0.8 -6.5
v -0.4 0.7 -6.5
v -0.4 0.8 -6.5
v -0.3 1.2 -6.5
v -0.3 1.3 -6.5
v -0.2 1.2 -6.5
v -0.2 1.3 -6.5
v -0.3 1.4 -6.6
v -0.3 1.5 -6.6
v -0.2 1.4 -6.6
v -0.2 1.5 -6.6
v -0.3 1.3 -6.7
v -0.3 1.4 -6.7
v -0.2 1.3 -6.7
v -0.2 1.4 -6.7
v -0.2 1.5 -6.7
v -0.1 1.4 -6.7
v -0.1 1.5 -6.7
v -0.6 0.8 -6.8
v -0.6 0.9 -6.8
v -0.5 0.7 -6.8
v -0.5 0.8 -6.8
v -0.5 0.9 -6.8
v -0.5 1 -6.8
v -0.4 0.7 -6.8
v -0.4 0.8 -6.8
v -0.4 0.9 -6.8
v -0.4 1 -6.8
v -0.3 0.8 -6.8
v -0.3 0.9 -6.8
v -0.2 1.3 -6.8
v -0.2 1.4 -6.8
v -0.1 1.2 -6.8
v -0.1 1.3 -6.8
v 0 1.2 -6.8
v 0 1.4 -6.8
v -0.6 0 -6.1
v -0.4 0 -6.1
v -0.6 0 -6.3
v -0.4 0 -6.3
v -0.6 0.3 -5.7
v -0.5 0.3 -5.7
v -0.6 0.3 -5.8
v -0.5 0.3 -5.8
v -0.6 0.3 -5.9
v -0.5 0.3 -5.9
v -0.6 0.3 -6.1
v -0.5 0.3 -6.1
v -0.7 0.4 -5.8
v -0.6 0.4 -5.8
v -0.5 0.4 -5.8
v -0.4 0.4 -5.8
v -0.7 0.4 -5.9
v -0.6 0.4 -5.9
v -0.5 0.4 -5.9
v -0.4 0.4 -5.9
v -0.1 0.5 -6
v 0 0.5 -6
v -0.4 0.5 -6.1
v -0.2 0.5 -6.1
v -0.1 0.5 -6.1
v 0 0.5 -6.1
v -0.8 0.5 -6.2
v -0.6 0.5 -6.2
v -0.4 0.5 -6.2
v -0.2 0.5 -6.2
v -0.8 0.5 -6.3
v -0.6 0.5 -6.3
v -0.2 0.6 -6
v -0.1 0.6 -6
v -0.2 0.6 -6.1
v -0.1 0.6 -6.1
v 0 0.6 -6.1
v -1.2 0.6 -6.2
v -1.1 0.6 -6.2
v -0.9 0.6 -6.2
v -0.8 0.6 -6.2
v -0.2 0.6 -6.2
v -0.1 0.6 -6.2
v 0 0.6 -6.2
v -1.2 0.6 -6.3
v -1.1 0.6 -6.3
v -0.9 0.6 -6.3
v -0.8 0.6 -6.3
v -0.2 0.6 -6.3
v -0.1 0.6 -6.3
v -1.1 0.7 -6.1
v -0.9 0.7 -6.1
v -1.1 0.7 -6.2
v -0.9 0.7 -6.2
v -1.1 0.7 -6.3
v -0.9 0.7 -6.3
v -0.5 0.7 -6.3
v -0.4 0.7 -6.3
v -1.1 0.7 -6.4
v -0.9 0.7 -6.4
v -0.5 0.7 -6.5
v -0.4 0.7 -6.5
v -0.5 0.7 -6.7
v -0.4 0.7 -6.7
v -0.5 0.7 -6.8
v -0.4 0.7 -6.8
v -0.6 0.8 -6.5
v -0.5 0.8 -6.5
v -0.4 0.8 -6.5
v -0.4 0.8 -6.6
v -0.3 0.8 -6.6
v -0.5 0.8 -6.7
v -0.4 0.8 -6.7
v -0.6 0.8 -6.8
v -0.5 0.8 -6.8
v -0.4 0.8 -6.8
v -0.3 0.8 -6.8
v -0.4 0.9 -6.1
v -0.3 0.9 -6.1
v -0.4 0.9 -6.3
v -0.3 0.9 -6.3
v -0.3 1 -6.1
v -0.2 1 -6.1
v -0.3 1 -6.2
v -0.2 1 -6.2
v -0.4 1.1 -5.6
v -0.3 1.1 -5.6
v -0.4 1.1 -5.8
v -0.3 1.1 -5.8
v -0.4 1.1 -5.9
v -0.3 1.1 -5.9
v -0.4 1.1 -6.1
v -0.3 1.1 -6.1
v -0.3 1.1 -6.2
v -0.2 1.1 -6.2
v -0.3 1.1 -6.3
v -0.2 1.1 -6.3
v -0.5 1.2 -5.7
v -0.4 1.2 -5.7
v -0.3 1.2 -5.7
v -0.2 1.2 -5.7
v -0.4 1.2 -5.8
v -0.3 1.2 -5.8
v -0.5 1.2 -5.9
v -0.4 1.2 -5.9
v -0.3 1.2 -5.9
v -0.2 1.2 -5.9
v -0.3 1.2 -6.3
v -0.2 1.2 -6.3
v -0.3 1.2 -6.5
v -0.2 1.2 -6.5
v -0.1 1.2 -6.7
v 0 1.2 -6.7
v -0.1 1.2 -6.8
v 0 1.2 -6.8
v -0.5 1.3 -6.1
v -0.4 1.3 -6.1
v -0.5 1.3 -6.3
v -0.4 1.3 -6.3
v -0.3 1.3 -6.5
v -0.2 1.3 -6.5
v -0.1 1.3 -6.5
v -0.3 1.3 -6.6
v -0.2 1.3 -6.6
v -0.1 1.3 -6.6
v 0 1.3 -6.6
v -0.3 1.3 -6.7
v -0.2 1.3 -6.7
v -0.1 1.3 -6.7
v 0 1.3 -6.7
v -0.2 1.3 -6.8
v -0.1 1.3 -6.8
v -1 1.4 -6.2
v -0.9 1.4 -6.2
v -1 1.4 -6.3
v -0.9 1.4 -6.3
v -0.9 1.5 -6.1
v -0.8 1.5 -6.1
v -0.9 1.5 -6.2
v -0.7 1.5 -6.2
v -0.5 1.5 -6.2
v -0.9 1.5 -6.3
v -0.7 1.5 -6.3
v -0.5 1.5 -6.3
v -0.9 1.5 -6.4
v -0.8 1.5 -6.4
v -0.8 1.6 -6.1
v -0.7 1.6 -6.1
v -0.8 1.6 -6.2
v -0.7 1.6 -6.2
v -0.8 1.6 -6.3
v -0.7 1.6 -6.3
v -0.8 1.6 -6.4
v -0.7 1.6 -6.4
v -0.6 0.4 -6
v -0.5 0.4 -6
v -0.6 0.4 -6.1
v -0.5 0.4 -6.1
v -0.6 0.5 -5.7
v -0.5 0.5 -5.7
v -0.7 0.5 -5.8
v -0.6 0.5 -5.8
v -0.5 0.5 -5.8
v -0.4 0.5 -5.8
v -0.7 0.5 -5.9
v -0.6 0.5 -5.9
v -0.5 0.5 -5.9
v -0.4 0.5 -5.9
v -0.6 0.5 -6
v -0.5 0.5 -6
v -0.6 0.6 -5.8
v -0.5 0.6 -5.8
v -0.6 0.6 -5.9
v -0.5 0.6 -5.9
v -0.4 0.6 -6.1
v -0.3 0.6 -6.1
v -0.7 0.6 -6.2
v -0.6 0.6 -6.2
v -0.4 0.6 -6.2
v -0.3 0.6 -6.2
v -0.7 0.6 -6.3
v -0.6 0.6 -6.3
v -0.2 0.7 -6
v 0 0.7 -6
v -0.3 0.7 -6.1
v -0.2 0.7 -6.1
v -0.1 0.7 -6.1
v -0.8 0.7 -6.2
v -0.7 0.7 -6.2
v -0.6 0.7 -6.2
v -0.5 0.7 -6.2
v -0.3 0.7 -6.2
v -0.2 0.7 -6.2
v -0.1 0.7 -6.2
v 0 0.7 -6.2
v -0.8 0.7 -6.3
v -0.7 0.7 -6.3
v -0.6 0.7 -6.3
v -0.5 0.7 -6.3
v -0.2 0.7 -6.3
v -0.1 0.7 -6.3
v -1.1 0.8 -6.1
v -0.9 0.8 -6.1
v -0.6 0.8 -6.1
v -0.5 0.8 -6.1
v -0.2 0.8 -6.1
v -0.1 0.8 -6.1
v -1.2 0.8 -6.2
v -1.1 0.8 -6.2
v -0.9 0.8 -6.2
v -0.8 0.8 -6.2
v -0.6 0.8 -6.2
v -0.5 0.8 -6.2
v -0.2 0.8 -6.2
v -0.1 0.8 -6.2
v -1.2 0.8 -6.3
v -1.1 0.8 -6.3
v -0.9 0.8 -6.3
v -0.8 0.8 -6.3
v -0.5 0.8 -6.3
v -0.4 0.8 -6.3
v -1.1 0.8 -6.4
v -0.9 0.8 -6.4
v -0.5 0.8 -6.4
v -0.4 0.8 -6.4
v -0.5 0.9 -6.1
v -0.4 0.9 -6.1
v -1.1 0.9 -6.2
v -0.9 0.9 -6.2
v -0.5 0.9 -6.2
v -0.4 0.9 -6.2
v -1.1 0.9 -6.3
v -0.9 0.9 -6.3
v -0.5 0.9 -6.4
v -0.4 0.9 -6.4
v -0.6 0.9 -6.5
v -0.5 0.9 -6.5
v -0.5 0.9 -6.6
v -0.4 0.9 -6.6
v -0.3 0.9 -6.6
v -0.6 0.9 -6.8
v -0.5 0.9 -6.8
v -0.4 0.9 -6.8
v -0.3 0.9 -6.8
v -0.5 1 -6.2
v -0.4 1 -6.2
v -0.5 1 -6.3
v -0.4 1 -6.3
v -0.5 1 -6.6
v -0.4 1 -6.6
v -0.5 1 -6.8
v -0.4 1 -6.8
v -0.4 1.2 -6
v -0.3 1.2 -6
v -0.4 1.2 -6.1
v -0.3 1.2 -6.1
v -0.4 1.3 -5.6
v -0.3 1.3 -5.6
v -0.5 1.3 -5.7
v -0.4 1.3 -5.7
v -0.3 1.3 -5.7
v -0.2 1.3 -5.7
v -0.4 1.3 -5.8
v -0.3 1.3 -5.8
v -0.5 1.3 -5.9
v -0.4 1.3 -5.9
v -0.3 1.3 -5.9
v -0.2 1.3 -5.9
v -0.4 1.3 -6
v -0.3 1.3 -6
v -0.3 1.3 -6.1
v -0.2 1.3 -6.1
v -0.3 1.3 -6.2
v -0.2 1.3 -6.2
v -0.3 1.3 -6.3
v -0.2 1.3 -6.3
v -0.3 1.3 -6.4
v -0.2 1.3 -6.4
v -0.4 1.4 -6.1
v -0.3 1.4 -6.1
v -0.3 1.4 -6.2
v -0.2 1.4 -6.2
v -0.4 1.4 -6.3
v -0.2 1.4 -6.3
v -0.3 1.4 -6.4
v -0.2 1.4 -6.4
v -0.3 1.4 -6.5
v -0.2 1.4 -6.5
v -0.1 1.4 -6.5
v -0.3 1.4 -6.6
v -0.2 1.4 -6.6
v -0.1 1.4 -6.6
v 0 1.4 -6.6
v -0.3 1.4 -6.7
v -0.2 1.4 -6.7
v -0.1 1.4 -6.7
v -0.2 1.4 -6.8
v 0 1.4 -6.8
v -0.3 1.5 -6.5
v -0.2 1.5 -6.5
v -0.3 1.5 -6.6
v -0.2 1.5 -6.6
v -0.1 1.5 -6.6
v -0.2 1.5 -6.7
v -0.1 1.5 -6.7
v -1 1.6 -6.2
v -0.9 1.6 -6.2
v -0.6 1.6 -6.2
v -0.5 1.6 -6.2
v -1 1.6 -6.3
v -0.9 1.6 -6.3
v -0.6 1.6 -6.3
v -0.5 1.6 -6.3
v -0.9 1.7 -6.1
v -0.7 1.7 -6.1
v -0.5 1.7 -6.1
v -0.4 1.7 -6.1
v -0.8 1.7 -6.2
v -0.7 1.7 -6.2
v -0.6 1.7 -6.2
v -0.5 1.7 -6.2
v -0.4 1.7 -6.2
v -0.8 1.7 -6.3
v -0.7 1.7 -6.3
v -0.6 1.7 -6.3
v -0.9 1.7 -6.4
v -0.7 1.7 -6.4
v -0.5 1.8 -6.2
v -0.4 1.8 -6.2
v -0.5 1.8 -6.3
v -0.4 1.8 -6.3

# faces
f 3/3/1 2/3/1 1/3/1
f 4/3/1 2/3/1 3/3/1
f 9/3/1 6/3/1 5/3/1
f 10/3/1 6/3/1 9/3/1
f 11/3/1 8/3/1 7/3/1
f 12/3/1 8/3/1 11/3/1
f 13/3/1 11/3/1 10/3/1
f 14/3/1 11/3/1 13/3/1
f 17/3/1 16/3/1 15/3/1
f 18/3/1 16/3/1 17/3/1
f 21/1/1 20/1/1 19/1/1
f 22/1/1 20/1/1 21/1/1
f 27/3/1 24/3/1 23/3/1
f 28/3/1 26/3/1 25/3/1
f 29/3/1 27/3/1 23/3/1
f 29/3/1 28/3/1 27/3/1
f 30/3/1 26/3/1 28/3/1
f 30/3/1 28/3/1 29/3/1
f 33/1/1 32/1/1 31/1/1
f 34/1/1 32/1/1 33/1/1
f 37/3/1 36/3/1 35/3/1
f 38/3/1 36/3/1 37/3/1
f 41/1/1 40/1/1 39/1/1
f 42/1/1 40/1/1 41/1/1
f 48/2/1 44/2/1 43/2/1
f 49/3/1 46/3/1 45/3/1
f 50/1/1 48/1/1 47/1/1
f 51/1/1 48/1/1 50/1/1
f 52/2/1 44/2/1 48/2/1
f 52/1/1 48/1/1 51/1/1
f 53/3/1 49/3/1 45/3/1
f 54/3/1 49/3/1 53/3/1
f 55/1/1 51/1/1 50/1/1
f 56/1/1 51/1/1 55/1/1
f 57/2/1 44/2/1 52/2/1
f 58/2/1 44/2/1 57/2/1
f 59/3/1 55/3/1 54/3/1
f 60/3/1 55/3/1 59/3/1
f 61/2/1 57/2/1 52/2/1
f 63/2/1 62/2/1 61/2/1
f 63/2/1 61/2/1 52/2/1
f 64/2/1 62/2/1 63/2/1
f 65/2/1 63/2/1 52/2/1
f 66/2/1 63/2/1 65/2/1
f 69/3/1 68/3/1 67/3/1
f 70/3/1 68/3/1 69/3/1
f 77/2/1 72/2/1 71/2/1
f 78/1/1 73/1/1 72/1/1
f 78/2/1 72/2/1 77/2/1
f 79/1/1 73/1/1 78/1/1
f 80/1/1 73/1/1 79/1/1
f 81/3/1 75/3/1 74/3/1
f 82/3/1 75/3/1 81/3/1
f 83/2/1 77/2/1 76/2/1
f 83/2/1 78/2/1 77/2/1
f 84/2/1 78/2/1 83/2/1
f 85/1/1 80/1/1 79/1/1
f 86/1/1 80/1/1 85/1/1
f 89/2/1 78/2/1 84/2/1
f 90/2/1 78/2/1 89/2/1
f 91/3/1 88/3/1 87/3/1
f 92/3/1 88/3/1 91/3/1
f 95/3/1 94/3/1 93/3/1
f 96/3/1 94/3/1 95/3/1
f 99/2/1 98/2/1 97/2/1
f 100/2/1 98/2/1 99/2/1
f 101/2/1 99/2/1 97/2/1
f 103/2/1 101/2/1 97/2/1
f 103/2/1 102/2/1 101/2/1
f 104/2/1 102/2/1 103/2/1
f 105/2/1 102/2/1 104/2/1
f 106/2/1 102/2/1 105/2/1
f 109/2/1 108/2/1 107/2/1
f 114/2/1 109/2/1 107/2/1
f 114/2/1 110/2/1 109/2/1
f 115/3/1 112/3/1 111/3/1
f 116/3/1 112/3/1 115/3/1
f 117/1/1 114/1/1 113/1/1
f 118/1/1 114/1/1 117/1/1
f 119/2/1 110/2/1 114/2/1
f 119/1/1 114/1/1 118/1/1
f 120/3/1 115/3/1 111/3/1
f 121/3/1 115/3/1 120/3/1
f 122/1/1 118/1/1 117/1/1
f 123/1/1 118/1/1 122/1/1
f 124/2/1 110/2/1 119/2/1
f 125/2/1 110/2/1 124/2/1
f 128/1/1 127/1/1 126/1/1
f 129/1/1 127/1/1 128/1/1
f 132/1/1 131/1/1 130/1/1
f 133/1/1 131/1/1 132/1/1
f 134/1/1 131/1/1 133/1/1
f 137/1/1 134/1/1 133/1/1
f 137/1/1 135/1/1 134/1/1
f 138/1/1 135/1/1 137/1/1
f 139/3/1 136/3/1 135/3/1
f 139/1/1 135/1/1 138/1/1
f 140/3/1 136/3/1 139/3/1
f 141/3/1 139/3/1 138/3/1
f 142/3/1 139/3/1 141/3/1
f 147/3/1 144/3/1 143/3/1
f 148/3/1 144/3/1 147/3/1
f 149/3/1 146/3/1 145/3/1
f 150/3/1 146/3/1 149/3/1
f 151/3/1 149/3/1 148/3/1
f 152/3/1 149/3/1 151/3/1
f 156/3/1 154/3/1 153/3/1
f 157/3/1 154/3/1 156/3/1
f 158/3/1 156/3/1 155/3/1
f 159/3/1 156/3/1 158/3/1
f 162/3/1 161/3/1 160/3/1
f 163/3/1 161/3/1 162/3/1
f 166/3/1 165/3/1 164/3/1
f 167/3/1 165/3/1 166/3/1
f 168/3/2 169/3/2 170/3/2
f 170/3/2 169/3/2 171/3/2
f 172/3/2 173/3/2 176/3/2
f 176/3/2 173/3/2 177/3/2
f 174/3/2 175/3/2 178/3/2
f 178/3/2 175/3/2 179/3/2
f 177/3/2 178/3/2 180/3/2
f 180/3/2 178/3/2 181/3/2
f 182/3/2 183/3/2 184/3/2
f 184/3/2 183/3/2 185/3/2
f 186/1/2 187/1/2 188/1/2
f 188/1/2 187/1/2 189/1/2
f 190/3/2 191/3/2 192/3/2
f 192/3/2 191/3/2 193/3/2
f 193/3/2 191/3/2 194/3/2
f 194/3/2 191/3/2 195/3/2
f 196/1/2 197/1/2 198/1/2
f 198/1/2 197/1/2 199/1/2
f 200/3/2 201/3/2 204/3/2
f 204/3/2 201/3/2 205/3/2
f 202/3/2 203/3/2 206/3/2
f 206/3/2 203/3/2 207/3/2
f 208/1/2 209/1/2 210/1/2
f 210/1/2 209/1/2 211/1/2
f 212/3/2 213/3/2 216/3/2
f 214/1/2 215/1/2 217/1/2
f 217/1/2 215/1/2 218/1/2
f 218/1/2 215/1/2 219/1/2
f 212/3/2 216/3/2 220/3/2
f 220/3/2 216/3/2 221/3/2
f 217/1/2 218/1/2 222/1/2
f 222/1/2 218/1/2 223/1/2
f 221/3/2 222/3/2 224/3/2
f 224/3/2 222/3/2 225/3/2
f 228/3/2 229/3/2 230/3/2
f 230/3/2 229/3/2 231/3/2
f 226/2/2 227/2/2 232/2/2
f 232/2/2 227/2/2 233/2/2
f 233/2/2 227/2/2 235/2/2
f 235/2/2 227/2/2 236/2/2
f 234/2/2 235/2/2 236/2/2
f 234/2/2 236/2/2 240/2/2
f 236/1/2 237/1/2 240/1/2
f 240/1/2 237/1/2 241/1/2
f 241/1/2 237/1/2 242/1/2
f 238/3/2 239/3/2 244/3/2
f 244/3/2 239/3/2 245/3/2
f 234/2/2 240/2/2 246/2/2
f 246/2/2 240/2/2 247/2/2
f 242/1/2 243/1/2 248/1/2
f 241/1/2 242/1/2 248/1/2
f 248/1/2 243/1/2 249/1/2
f 249/3/2 250/3/2 251/3/2
f 251/3/2 250/3/2 252/3/2
f 253/2/2 254/2/2 255/2/2
f 255/2/2 254/2/2 256/2/2
f 256/2/2 254/2/2 257/2/2
f 257/2/2 254/2/2 258/2/2
f 259/3/2 260/3/2 263/3/2
f 263/3/2 260/3/2 264/3/2
f 261/2/2 262/2/2 265/2/2
f 265/2/2 262/2/2 266/2/2
f 266/2/2 262/2/2 271/2/2
f 271/2/2 262/2/2 272/2/2
f 267/3/2 268/3/2 273/3/2
f 273/3/2 268/3/2 274/3/2
f 269/1/2 270/1/2 275/1/2
f 275/1/2 270/1/2 276/1/2
f 276/1/2 270/1/2 277/1/2
f 267/3/2 273/3/2 278/3/2
f 278/3/2 273/3/2 279/3/2
f 275/1/2 276/1/2 280/1/2
f 280/1/2 276/1/2 281/1/2
f 282/2/2 283/2/2 284/2/2
f 284/2/2 283/2/2 285/2/2
f 286/1/2 287/1/2 288/1/2
f 288/1/2 287/1/2 289/1/2
f 290/2/2 291/2/2 292/2/2
f 292/2/2 293/2/2 296/2/2
f 294/3/2 295/3/2 298/3/2
f 298/3/2 295/3/2 299/3/2
f 290/2/2 292/2/2 300/2/2
f 292/2/2 296/2/2 300/2/2
f 300/2/2 296/2/2 301/2/2
f 296/1/2 297/1/2 302/1/2
f 301/2/2 296/2/2 302/2/2
f 302/1/2 297/1/2 303/1/2
f 303/1/2 297/1/2 304/1/2
f 301/2/2 302/2/2 305/2/2
f 305/2/2 302/2/2 306/2/2
f 303/1/2 304/1/2 307/1/2
f 307/1/2 304/1/2 308/1/2
f 308/3/2 309/3/2 310/3/2
f 310/3/2 309/3/2 311/3/2
f 312/3/2 313/3/2 315/3/2
f 315/3/2 313/3/2 316/3/2
f 314/3/2 315/3/2 317/3/2
f 317/3/2 315/3/2 318/3/2
f 319/3/2 320/3/2 321/3/2
f 321/3/2 320/3/2 322/3/2
f 322/3/2 323/3/2 324/3/2
f 324/3/2 323/3/2 325/3/2
f 326/3/2 327/3/2 328/3/2
f 326/3/2 328/3/2 330/3/2
f 328/3/2 329/3/2 330/3/2
f 330/3/2 329/3/2 331/3/2
f 332/3/2 333/3/2 335/3/2
f 334/3/2 335/3/2 336/3/2
f 335/3/2 333/3/2 337/3/2
f 336/3/2 335/3/2 337/3/2
f 340/3/3 339/3/3 338/3/3
f 341/3/3 339/3/3 340/3/3
f 344/3/3 343/3/3 342/3/3
f 345/3/3 343/3/3 344/3/3
f 348/3/3 347/3/3 346/3/3
f 349/3/3 347/3/3 348/3/3
f 352/3/3 351/3/3 350/3/3
f 353/3/3 351/3/3 352/3/3
f 356/3/3 355/3/3 354/3/3
f 357/3/3 355/3/3 356/3/3
f 360/3/3 358/3/3 357/3/3
f 361/3/3 358/3/3 360/3/3
f 362/3/3 360/3/3 359/3/3
f 363/3/3 360/3/3 362/3/3
f 366/1/3 365/1/3 364/1/3
f 367/1/3 365/1/3 366/1/3
f 370/1/3 369/1/3 368/1/3
f 371/1/3 369/1/3 370/1/3
f 375/3/3 373/3/3 372/3/3
f 376/3/3 375/3/3 374/3/3
f 377/3/3 373/3/3 375/3/3
f 377/3/3 375/3/3 376/3/3
f 380/3/3 379/3/3 378/3/3
f 381/3/3 379/3/3 380/3/3
f 384/3/3 383/3/3 382/3/3
f 385/3/3 383/3/3 384/3/3
f 386/3/3 383/3/3 385/3/3
f 387/3/3 383/3/3 386/3/3
f 392/2/3 389/2/3 388/2/3
f 393/2/3 391/2/3 390/2/3
f 394/2/3 391/2/3 393/2/3
f 398/2/3 392/2/3 388/2/3
f 398/2/3 393/2/3 392/2/3
f 398/2/3 395/2/3 394/2/3
f 398/2/3 394/2/3 393/2/3
f 399/2/3 395/2/3 398/2/3
f 400/2/3 395/2/3 399/2/3
f 401/2/3 395/2/3 400/2/3
f 404/2/3 397/2/3 396/2/3
f 405/2/3 397/2/3 404/2/3
f 406/2/3 397/2/3 405/2/3
f 407/1/3 400/1/3 399/1/3
f 409/2/3 402/2/3 401/2/3
f 410/2/3 402/2/3 409/2/3
f 411/2/3 402/2/3 410/2/3
f 412/2/3 405/2/3 404/2/3
f 412/2/3 404/2/3 403/2/3
f 413/2/3 405/2/3 412/2/3
f 414/2/3 405/2/3 413/2/3
f 415/1/3 408/1/3 407/1/3
f 415/1/3 407/1/3 399/1/3
f 416/1/3 408/1/3 415/1/3
f 417/1/3 408/1/3 416/1/3
f 419/2/3 411/2/3 410/2/3
f 419/2/3 413/2/3 412/2/3
f 419/2/3 412/2/3 411/2/3
f 420/2/3 413/2/3 419/2/3
f 421/3/3 418/3/3 417/3/3
f 422/3/3 418/3/3 421/3/3
f 425/3/3 424/3/3 423/3/3
f 426/3/3 424/3/3 425/3/3
f 427/3/3 424/3/3 426/3/3
f 433/3/3 428/3/3 427/3/3
f 434/3/3 428/3/3 433/3/3
f 435/3/3 430/3/3 429/3/3
f 436/3/3 430/3/3 435/3/3
f 437/3/3 430/3/3 436/3/3
f 439/1/3 432/1/3 431/1/3
f 439/1/3 433/1/3 432/1/3
f 440/1/3 433/1/3 439/1/3
f 441/1/3 433/1/3 440/1/3
f 442/1/3 439/1/3 438/1/3
f 442/1/3 440/1/3 439/1/3
f 443/1/3 440/1/3 442/1/3
f 447/1/3 442/1/3 438/1/3
f 448/1/3 442/1/3 447/1/3
f 449/1/3 445/1/3 444/1/3
f 449/1/3 446/1/3 445/1/3
f 450/1/3 446/1/3 449/1/3
f 453/1/3 449/1/3 444/1/3
f 454/1/3 449/1/3 453/1/3
f 457/2/3 452/2/3 451/2/3
f 458/2/3 452/2/3 457/2/3
f 459/2/3 456/2/3 455/2/3
f 460/2/3 456/2/3 459/2/3
f 463/2/3 462/2/3 461/2/3
f 464/2/3 462/2/3 463/2/3
f 467/1/3 466/1/3 465/1/3
f 468/1/3 466/1/3 467/1/3
f 471/1/3 470/1/3 469/1/3
f 472/1/3 470/1/3 471/1/3
f 475/3/3 474/3/3 473/3/3
f 476/3/3 474/3/3 475/3/3
f 480/3/3 478/3/3 477/3/3
f 481/3/3 478/3/3 480/3/3
f 482/3/3 480/3/3 479/3/3
f 483/3/3 480/3/3 482/3/3
f 487/3/3 485/3/3 484/3/3
f 488/3/3 485/3/3 487/3/3
f 489/3/3 487/3/3 486/3/3
f 490/3/3 487/3/3 489/3/3
f 494/3/3 492/3/3 491/3/3
f 495/3/3 492/3/3 494/3/3
f 496/3/3 494/3/3 493/3/3
f 497/3/3 494/3/3 496/3/3
f 500/3/3 499/3/3 498/3/3
f 501/3/3 499/3/3 500/3/3
f 504/3/3 503/3/3 502/3/3
f 505/3/3 503/3/3 504/3/3
f 506/3/4 507/3/4 508/3/4
f 508/3/4 507/3/4 509/3/4
f 510/3/4 511/3/4 512/3/4
f 512/3/4 511/3/4 513/3/4
f 514/3/4 515/3/4 516/3/4
f 516/3/4 515/3/4 517/3/4
f 517/3/4 518/3/4 520/3/4
f 520/3/4 518/3/4 521/3/4
f 519/3/4 520/3/4 524/3/4
f 524/3/4 520/3/4 525/3/4
f 522/3/4 523/3/4 526/3/4
f 526/3/4 523/3/4 527/3/4
f 528/3/4 529/3/4 530/3/4
f 530/3/4 529/3/4 531/3/4
f 532/1/4 533/1/4 534/1/4
f 534/1/4 533/1/4 535/1/4
f 536/1/4 537/1/4 538/1/4
f 538/1/4 537/1/4 539/1/4
f 540/3/4 541/3/4 542/3/4
f 542/3/4 541/3/4 543/3/4
f 544/2/4 545/2/4 546/2/4
f 546/2/4 545/2/4 547/2/4
f 548/1/4 549/1/4 550/1/4
f 550/1/4 551/1/4 554/1/4
f 548/1/4 550/1/4 554/1/4
f 554/1/4 551/1/4 555/1/4
f 555/1/4 551/1/4 556/1/4
f 552/2/4 553/2/4 558/2/4
f 558/2/4 553/2/4 559/2/4
f 556/3/4 557/3/4 561/3/4
f 561/3/4 557/3/4 562/3/4
f 560/3/4 561/3/4 563/3/4
f 563/3/4 561/3/4 564/3/4
f 565/3/4 566/3/4 567/3/4
f 567/3/4 566/3/4 568/3/4
f 568/3/4 566/3/4 569/3/4
f 569/3/4 570/3/4 575/3/4
f 575/3/4 570/3/4 576/3/4
f 571/3/4 572/3/4 577/3/4
f 577/3/4 572/3/4 578/3/4
f 578/3/4 572/3/4 579/3/4
f 573/1/4 574/1/4 581/1/4
f 574/1/4 575/1/4 581/1/4
f 581/1/4 575/1/4 582/1/4
f 582/1/4 575/1/4 583/1/4
f 580/1/4 581/1/4 584/1/4
f 581/1/4 582/1/4 584/1/4
f 584/1/4 582/1/4 585/1/4
f 580/1/4 584/1/4 590/1/4
f 590/1/4 584/1/4 591/1/4
f 586/1/4 587/1/4 593/1/4
f 587/1/4 588/1/4 593/1/4
f 593/1/4 588/1/4 594/1/4
f 591/2/4 592/2/4 595/2/4
f 590/2/4 591/2/4 595/2/4
f 589/2/4 590/2/4 595/2/4
f 586/1/4 593/1/4 599/1/4
f 599/1/4 593/1/4 600/1/4
f 589/2/4 595/2/4 602/2/4
f 602/2/4 595/2/4 603/2/4
f 596/2/4 597/2/4 604/2/4
f 604/2/4 597/2/4 605/2/4
f 605/2/4 597/2/4 606/2/4
f 599/2/4 600/2/4 607/2/4
f 600/2/4 601/2/4 607/2/4
f 598/2/4 599/2/4 607/2/4
f 607/2/4 601/2/4 608/2/4
f 608/2/4 601/2/4 609/2/4
f 605/2/4 606/2/4 610/2/4
f 607/2/4 608/2/4 610/2/4
f 606/2/4 607/2/4 610/2/4
f 610/2/4 608/2/4 611/2/4
f 611/2/4 608/2/4 612/2/4
f 612/2/4 608/2/4 613/2/4
f 611/2/4 612/2/4 616/2/4
f 616/2/4 612/2/4 617/2/4
f 613/2/4 608/2/4 618/2/4
f 618/2/4 608/2/4 619/2/4
f 614/3/4 615/3/4 620/3/4
f 620/3/4 615/3/4 621/3/4
f 622/3/4 623/3/4 624/3/4
f 624/3/4 623/3/4 625/3/4
f 626/3/4 627/3/4 628/3/4
f 628/3/4 627/3/4 629/3/4
f 629/3/4 627/3/4 630/3/4
f 630/3/4 627/3/4 631/3/4
f 632/1/4 633/1/4 634/1/4
f 634/1/4 633/1/4 635/1/4
f 636/1/4 637/1/4 638/1/4
f 638/1/4 637/1/4 639/1/4
f 640/3/4 641/3/4 642/3/4
f 642/3/4 641/3/4 643/3/4
f 644/3/4 645/3/4 646/3/4
f 646/3/4 645/3/4 647/3/4
f 647/3/4 648/3/4 649/3/4
f 649/3/4 648/3/4 650/3/4
f 651/3/4 652/3/4 654/3/4
f 654/3/4 652/3/4 655/3/4
f 653/3/4 654/3/4 657/3/4
f 655/3/4 656/3/4 657/3/4
f 654/3/4 655/3/4 657/3/4
f 657/3/4 656/3/4 658/3/4
f 658/3/4 656/3/4 659/3/4
f 659/3/4 656/3/4 660/3/4
f 658/3/4 659/3/4 661/3/4
f 661/3/4 659/3/4 662/3/4
f 663/3/4 664/3/4 666/3/4
f 665/3/4 666/3/4 667/3/4
f 666/3/4 664/3/4 668/3/4
f 667/3/4 666/3/4 668/3/4
f 671/2/5 670/2/5 669/2/5
f 672/2/5 670/2/5 671/2/5
f 675/3/5 674/3/5 673/3/5
f 676/3/5 674/3/5 675/3/5
f 679/1/5 678/1/5 677/1/5
f 680/1/5 678/1/5 679/1/5
f 685/3/5 682/3/5 681/3/5
f 686/1/5 683/1/5 682/1/5
f 686/3/5 682/3/5 685/3/5
f 687/3/5 684/3/5 683/3/5
f 687/1/5 683/1/5 686/1/5
f 688/3/5 684/3/5 687/3/5
f 693/3/5 690/3/5 689/3/5
f 694/3/5 690/3/5 693/3/5
f 697/1/5 692/1/5 691/1/5
f 698/1/5 692/1/5 697/1/5
f 699/1/5 696/1/5 695/1/5
f 700/1/5 696/1/5 699/1/5
f 703/3/5 702/3/5 701/3/5
f 704/3/5 702/3/5 703/3/5
f 710/1/5 704/1/5 703/1/5
f 711/3/5 705/3/5 704/3/5
f 711/1/5 704/1/5 710/1/5
f 712/3/5 705/3/5 711/3/5
f 713/3/5 707/3/5 706/3/5
f 714/3/5 707/3/5 713/3/5
f 715/1/5 709/1/5 708/1/5
f 716/1/5 709/1/5 715/1/5
f 717/3/5 711/3/5 710/3/5
f 718/3/5 711/3/5 717/3/5
f 721/3/5 720/3/5 719/3/5
f 722/3/5 720/3/5 721/3/5
f 723/1/5 722/1/5 721/1/5
f 724/1/5 722/1/5 723/1/5
f 727/3/5 724/3/5 723/3/5
f 728/3/5 724/3/5 727/3/5
f 729/1/5 726/1/5 725/1/5
f 730/1/5 726/1/5 729/1/5
f 733/3/5 732/3/5 731/3/5
f 734/3/5 732/3/5 733/3/5
f 738/1/5 737/1/5 736/1/5
f 740/3/5 736/3/5 735/3/5
f 740/1/5 738/1/5 736/1/5
f 741/3/5 739/3/5 738/3/5
f 741/1/5 738/1/5 740/1/5
f 742/3/5 740/3/5 735/3/5
f 743/3/5 740/3/5 742/3/5
f 744/3/5 739/3/5 741/3/5
f 745/3/5 739/3/5 744/3/5
f 748/2/5 747/2/5 746/2/5
f 749/2/5 747/2/5 748/2/5
f 752/2/5 751/2/5 750/2/5
f 753/2/5 751/2/5 752/2/5
f 756/3/5 755/3/5 754/3/5
f 757/3/5 755/3/5 756/3/5
f 760/1/5 759/1/5 758/1/5
f 761/1/5 759/1/5 760/1/5
f 764/2/5 763/2/5 762/2/5
f 765/2/5 763/2/5 764/2/5
f 770/3/5 767/3/5 766/3/5
f 771/3/5 769/3/5 768/3/5
f 772/3/5 770/3/5 766/3/5
f 773/1/5 771/1/5 770/1/5
f 773/3/5 770/3/5 772/3/5
f 774/3/5 769/3/5 771/3/5
f 774/1/5 771/1/5 773/1/5
f 775/3/5 769/3/5 774/3/5
f 778/1/5 777/1/5 776/1/5
f 779/1/5 777/1/5 778/1/5
f 782/3/5 781/3/5 780/3/5
f 783/3/5 781/3/5 782/3/5
f 786/2/5 785/2/5 784/2/5
f 787/2/5 785/2/5 786/2/5
f 791/1/5 789/1/5 788/1/5
f 792/3/5 790/3/5 789/3/5
f 792/1/5 789/1/5 791/1/5
f 793/3/5 790/3/5 792/3/5
f 795/3/5 792/3/5 791/3/5
f 795/3/5 794/3/5 793/3/5
f 795/3/5 793/3/5 792/3/5
f 796/3/5 794/3/5 795/3/5
f 797/3/5 794/3/5 796/3/5
f 798/3/5 794/3/5 797/3/5
f 799/3/5 797/3/5 796/3/5
f 800/3/5 797/3/5 799/3/5
f 803/3/5 802/3/5 801/3/5
f 804/3/5 802/3/5 803/3/5
f 807/3/5 806/3/5 805/3/5
f 810/3/5 806/3/5 807/3/5
f 811/1/5 809/1/5 808/1/5
f 812/1/5 809/1/5 811/1/5
f 813/3/5 806/3/5 810/3/5
f 814/3/5 806/3/5 813/3/5
f 817/3/5 816/3/5 815/3/5
f 818/3/5 816/3/5 817/3/5
f 819/1/5 818/1/5 817/1/5
f 820/1/5 818/1/5 819/1/5
f 821/3/5 820/3/5 819/3/5
f 822/3/5 820/3/5 821/3/5
f 823/1/6 824/1/6 825/1/6
f 825/1/6 824/1/6 826/1/6
f 827/3/6 828/3/6 830/3/6
f 830/3/6 828/3/6 831/3/6
f 829/3/6 830/3/6 833/3/6
f 833/3/6 830/3/6 834/3/6
f 831/3/6 832/3/6 835/3/6
f 835/3/6 832/3/6 836/3/6
f 834/1/6 835/1/6 837/1/6
f 837/1/6 835/1/6 838/1/6
f 839/3/6 840/3/6 841/3/6
f 841/3/6 840/3/6 842/3/6
f 843/1/6 844/1/6 847/1/6
f 847/1/6 844/1/6 848/1/6
f 845/1/6 846/1/6 849/1/6
f 849/1/6 846/1/6 850/1/6
f 851/3/6 852/3/6 854/3/6
f 854/3/6 852/3/6 855/3/6
f 853/1/6 854/1/6 860/1/6
f 860/1/6 854/1/6 861/1/6
f 855/3/6 852/3/6 862/3/6
f 862/3/6 852/3/6 863/3/6
f 856/1/6 857/1/6 864/1/6
f 864/1/6 857/1/6 865/1/6
f 858/2/6 859/2/6 866/2/6
f 866/2/6 859/2/6 867/2/6
f 861/3/6 862/3/6 868/3/6
f 868/3/6 862/3/6 869/3/6
f 870/3/6 871/3/6 877/3/6
f 877/3/6 871/3/6 878/3/6
f 872/2/6 873/2/6 880/2/6
f 880/2/6 873/2/6 881/2/6
f 874/3/6 875/3/6 882/3/6
f 882/3/6 875/3/6 883/3/6
f 876/3/6 877/3/6 884/3/6
f 884/3/6 877/3/6 885/3/6
f 878/1/6 879/1/6 886/1/6
f 886/1/6 879/1/6 887/1/6
f 885/3/6 886/3/6 890/3/6
f 890/3/6 886/3/6 891/3/6
f 888/1/6 889/1/6 892/1/6
f 892/1/6 889/1/6 893/1/6
f 894/2/6 895/2/6 898/2/6
f 898/2/6 895/2/6 899/2/6
f 896/3/6 897/3/6 900/3/6
f 900/3/6 897/3/6 901/3/6
f 902/1/6 903/1/6 905/1/6
f 905/1/6 903/1/6 906/1/6
f 904/3/6 905/3/6 906/3/6
f 906/1/6 903/1/6 907/1/6
f 904/3/6 906/3/6 909/3/6
f 909/3/6 906/3/6 910/3/6
f 907/3/6 908/3/6 911/3/6
f 911/3/6 908/3/6 912/3/6
f 913/2/6 914/2/6 915/2/6
f 915/2/6 914/2/6 916/2/6
f 917/3/6 918/3/6 919/3/6
f 919/3/6 918/3/6 920/3/6
f 921/1/6 922/1/6 923/1/6
f 923/1/6 922/1/6 924/1/6
f 925/3/6 926/3/6 928/3/6
f 928/3/6 926/3/6 929/3/6
f 927/3/6 928/3/6 931/3/6
f 929/3/6 930/3/6 931/3/6
f 928/3/6 929/3/6 931/3/6
f 931/3/6 930/3/6 932/3/6
f 927/3/6 931/3/6 933/3/6
f 931/1/6 932/1/6 934/1/6
f 933/3/6 931/3/6 934/3/6
f 932/3/6 930/3/6 935/3/6
f 934/1/6 932/1/6 935/1/6
f 935/3/6 930/3/6 936/3/6
f 934/1/6 935/1/6 937/1/6
f 937/1/6 935/1/6 938/1/6
f 939/2/6 940/2/6 941/2/6
f 941/2/6 940/2/6 942/2/6
f 943/1/6 944/1/6 945/1/6
f 945/1/6 944/1/6 946/1/6
f 947/2/6 948/2/6 949/2/6
f 947/2/6 949/2/6 951/2/6
f 949/2/6 950/2/6 951/2/6
f 951/2/6 950/2/6 952/2/6
f 953/1/6 954/1/6 955/1/6
f 955/1/6 954/1/6 956/1/6
f 956/3/6 957/3/6 959/3/6
f 959/3/6 957/3/6 960/3/6
f 958/3/6 959/3/6 962/3/6
f 962/3/6 959/3/6 963/3/6
f 960/3/6 961/3/6 964/3/6
f 963/3/6 964/3/6 965/3/6
f 964/3/6 961/3/6 966/3/6
f 965/3/6 964/3/6 966/3/6
f 967/3/6 968/3/6 969/3/6
f 969/3/6 968/3/6 970/3/6
f 970/3/6 971/3/6 972/3/6
f 972/3/6 971/3/6 973/3/6
f 974/3/6 975/3/6 978/3/6
f 978/3/6 975/3/6 979/3/6
f 976/1/6 977/1/6 980/1/6
f 980/1/6 977/1/6 981/1/6
f 982/3/6 983/3/6 986/3/6
f 986/3/6 983/3/6 987/3/6
f 984/2/6 985/2/6 989/2/6
f 989/2/6 985/2/6 990/2/6
f 987/1/6 988/1/6 991/1/6
f 982/3/6 986/3/6 991/3/6
f 986/1/6 987/1/6 991/1/6
f 991/1/6 988/1/6 992/1/6
f 992/1/6 988/1/6 993/1/6
f 982/3/6 991/3/6 994/3/6
f 991/3/6 992/3/6 994/3/6
f 994/3/6 992/3/6 995/3/6
f 996/2/6 997/2/6 998/2/6
f 998/2/6 997/2/6 999/2/6
