# MagicaVoxel @ Ephtracy

# group
o 

# material
mtllib The Twitcher-4.mtl
usemtl palette

# normals
vn 0 1 0
vn 0 -1 0
vn 0 0 1
vn 0 0 -1
vn -1 0 0
vn 1 0 0

# texcoords
vt 0.228516 0.5
vt 0.396484 0.5

# verts
v 5.5 0.6 0.4
v 5.5 0.6 0
v 6.7 0.6 0.4
v 6.7 0.6 0
v 5.5 0.5 0
v 5.5 0.5 -0.1
v 6.7 0.5 0
v 6.7 0.5 -0.1
v 5.6 0.2 0.4
v 5.6 0.2 0.3
v 6.6 0.2 0.4
v 6.6 0.2 0.3
v 5.5 0.1 0.4
v 5.5 0.1 0.3
v 5.6 0.1 0.4
v 5.6 0.1 0.3
v 6.6 0.1 0.4
v 6.6 0.1 0.3
v 6.7 0.1 0.4
v 6.7 0.1 0.3
v 5.5 0.4 0.4
v 5.5 0.4 0.3
v 5.6 0.4 0.4
v 5.6 0.4 0.3
v 6.6 0.4 0.4
v 6.6 0.4 0.3
v 6.7 0.4 0.4
v 6.7 0.4 0.3
v 5.6 0.3 0.4
v 5.6 0.3 0.3
v 6.6 0.3 0.4
v 6.6 0.3 0.3
v 5.5 0.2 0
v 5.5 0.2 -0.1
v 6.7 0.2 0
v 6.7 0.2 -0.1
v 5.5 0.1 0.1
v 5.5 0.1 0
v 6.7 0.1 0.1
v 6.7 0.1 0
v 5.5 5.96046e-08 0.4
v 5.5 5.96046e-08 0.2
v 5.5 5.96046e-08 0.1
v 6.7 5.96046e-08 0.4
v 6.7 5.96046e-08 0.2
v 6.7 5.96046e-08 0.1
v 5.5 0.6 0.4
v 6.7 0.6 0.4
v 5.5 0.5 0.4
v 6.7 0.5 0.4
v 5.5 0.4 0.4
v 5.6 0.4 0.4
v 6.6 0.4 0.4
v 6.7 0.4 0.4
v 5.6 0.3 0.4
v 6.6 0.3 0.4
v 5.6 0.2 0.4
v 6.6 0.2 0.4
v 5.5 0.1 0.4
v 5.6 0.1 0.4
v 6.6 0.1 0.4
v 6.7 0.1 0.4
v 5.5 5.96046e-08 0.4
v 6.7 5.96046e-08 0.4
v 5.5 0.4 0.3
v 5.6 0.4 0.3
v 6.6 0.4 0.3
v 6.7 0.4 0.3
v 5.6 0.3 0.3
v 6.6 0.3 0.3
v 5.6 0.2 0.3
v 6.6 0.2 0.3
v 5.5 0.1 0.3
v 5.6 0.1 0.3
v 6.6 0.1 0.3
v 6.7 0.1 0.3
v 5.5 0.1 0.1
v 6.7 0.1 0.1
v 5.5 5.96046e-08 0.1
v 6.7 5.96046e-08 0.1
v 5.5 0.6 0
v 6.7 0.6 0
v 5.5 0.5 0
v 6.7 0.5 0
v 5.5 0.2 0
v 6.7 0.2 0
v 5.5 0.1 0
v 6.7 0.1 0
v 5.5 0.5 -0.1
v 6.7 0.5 -0.1
v 5.5 0.2 -0.1
v 6.7 0.2 -0.1
v 5.5 0.6 0.4
v 5.5 0.5 0.4
v 5.5 0.4 0.4
v 5.5 0.1 0.4
v 5.5 5.96046e-08 0.4
v 5.5 0.4 0.3
v 5.5 0.1 0.3
v 5.5 0.1 0.2
v 5.5 5.96046e-08 0.2
v 5.5 0.2 0.1
v 5.5 0.1 0.1
v 5.5 5.96046e-08 0.1
v 5.5 0.6 0
v 5.5 0.5 0
v 5.5 0.2 0
v 5.5 0.1 0
v 5.5 0.5 -0.1
v 5.5 0.2 -0.1
v 5.6 0.4 0.4
v 5.6 0.3 0.4
v 5.6 0.2 0.4
v 5.6 0.1 0.4
v 5.6 0.4 0.3
v 5.6 0.3 0.3
v 5.6 0.2 0.3
v 5.6 0.1 0.3
v 6.6 0.4 0.4
v 6.6 0.3 0.4
v 6.6 0.2 0.4
v 6.6 0.1 0.4
v 6.6 0.4 0.3
v 6.6 0.3 0.3
v 6.6 0.2 0.3
v 6.6 0.1 0.3
v 6.7 0.6 0.4
v 6.7 0.5 0.4
v 6.7 0.4 0.4
v 6.7 0.1 0.4
v 6.7 5.96046e-08 0.4
v 6.7 0.4 0.3
v 6.7 0.1 0.3
v 6.7 0.2 0.2
v 6.7 5.96046e-08 0.2
v 6.7 0.1 0.1
v 6.7 5.96046e-08 0.1
v 6.7 0.6 0
v 6.7 0.5 0
v 6.7 0.2 0
v 6.7 0.1 0
v 6.7 0.5 -0.1
v 6.7 0.2 -0.1

# faces
f 3/2/1 2/2/1 1/2/1
f 4/2/1 2/2/1 3/2/1
f 7/2/1 6/2/1 5/2/1
f 8/2/1 6/2/1 7/2/1
f 11/1/1 10/1/1 9/1/1
f 12/1/1 10/1/1 11/1/1
f 15/1/1 14/1/1 13/1/1
f 16/1/1 14/1/1 15/1/1
f 19/1/1 18/1/1 17/1/1
f 20/1/1 18/1/1 19/1/1
f 21/1/2 22/1/2 23/1/2
f 23/1/2 22/1/2 24/1/2
f 25/1/2 26/1/2 27/1/2
f 27/1/2 26/1/2 28/1/2
f 29/1/2 30/1/2 31/1/2
f 31/1/2 30/1/2 32/1/2
f 33/2/2 34/2/2 35/2/2
f 35/2/2 34/2/2 36/2/2
f 37/2/2 38/2/2 39/2/2
f 39/2/2 38/2/2 40/2/2
f 41/1/2 42/1/2 44/1/2
f 42/2/2 43/2/2 45/2/2
f 44/1/2 42/1/2 45/1/2
f 45/2/2 43/2/2 46/2/2
f 49/2/3 48/2/3 47/2/3
f 50/2/3 48/2/3 49/2/3
f 51/1/3 50/1/3 49/1/3
f 52/1/3 50/1/3 51/1/3
f 53/1/3 50/1/3 52/1/3
f 54/1/3 50/1/3 53/1/3
f 55/1/3 53/1/3 52/1/3
f 56/1/3 53/1/3 55/1/3
f 60/1/3 58/1/3 57/1/3
f 61/1/3 58/1/3 60/1/3
f 63/1/3 61/1/3 60/1/3
f 63/1/3 62/1/3 61/1/3
f 63/1/3 60/1/3 59/1/3
f 64/1/3 62/1/3 63/1/3
f 69/1/3 66/1/3 65/1/3
f 70/1/3 68/1/3 67/1/3
f 71/1/3 69/1/3 65/1/3
f 71/1/3 70/1/3 69/1/3
f 72/1/3 68/1/3 70/1/3
f 72/1/3 70/1/3 71/1/3
f 73/1/3 71/1/3 65/1/3
f 74/1/3 71/1/3 73/1/3
f 75/1/3 68/1/3 72/1/3
f 76/1/3 68/1/3 75/1/3
f 77/2/4 78/2/4 79/2/4
f 79/2/4 78/2/4 80/2/4
f 81/2/4 82/2/4 83/2/4
f 83/2/4 82/2/4 84/2/4
f 85/2/4 86/2/4 87/2/4
f 87/2/4 86/2/4 88/2/4
f 89/2/4 90/2/4 91/2/4
f 91/2/4 90/2/4 92/2/4
f 98/1/5 95/1/5 94/1/5
f 99/1/5 97/1/5 96/1/5
f 100/1/5 97/1/5 99/1/5
f 100/1/5 99/1/5 98/1/5
f 101/1/5 97/1/5 100/1/5
f 102/1/5 100/1/5 98/1/5
f 103/2/5 101/2/5 100/2/5
f 103/1/5 100/1/5 102/1/5
f 104/2/5 101/2/5 103/2/5
f 105/2/5 94/2/5 93/2/5
f 106/1/5 98/1/5 94/1/5
f 106/2/5 94/2/5 105/2/5
f 106/1/5 102/1/5 98/1/5
f 107/2/5 103/2/5 102/2/5
f 107/1/5 102/1/5 106/1/5
f 108/2/5 103/2/5 107/2/5
f 109/2/5 107/2/5 106/2/5
f 110/2/5 107/2/5 109/2/5
f 115/1/5 112/1/5 111/1/5
f 116/1/5 112/1/5 115/1/5
f 117/1/5 114/1/5 113/1/5
f 118/1/5 114/1/5 117/1/5
f 119/1/6 120/1/6 123/1/6
f 123/1/6 120/1/6 124/1/6
f 121/1/6 122/1/6 125/1/6
f 125/1/6 122/1/6 126/1/6
f 128/1/6 129/1/6 132/1/6
f 130/1/6 131/1/6 133/1/6
f 132/1/6 133/1/6 134/1/6
f 133/1/6 131/1/6 135/1/6
f 134/1/6 133/1/6 135/1/6
f 134/2/6 135/2/6 136/2/6
f 136/2/6 135/2/6 137/2/6
f 127/2/6 128/2/6 138/2/6
f 128/1/6 132/1/6 139/1/6
f 138/2/6 128/2/6 139/2/6
f 132/1/6 134/1/6 139/1/6
f 134/2/6 136/2/6 140/2/6
f 139/1/6 134/1/6 140/1/6
f 140/2/6 136/2/6 141/2/6
f 139/2/6 140/2/6 142/2/6
f 142/2/6 140/2/6 143/2/6
