# MagicaVoxel @ Ephtracy

# group
g The-Twitcher-22

# material
mtllib The-Twitcher-22.mtl
usemtl palette

# normals
vn -1 0 0
vn 1 0 0
vn 0 0 1
vn 0 0 -1
vn 0 -1 0
vn 0 1 0

# texcoords
vt 0.974609 0.5
vt 0.978516 0.5
vt 0.982422 0.5
vt 0.986328 0.5

# verts
v -34 0 -20
v -34 0 -22
v -34 2 -18
v -34 2 -20
v -34 2 -22
v -34 4 -16
v -34 4 -18
v -34 4 -20
v -34 6 -14
v -34 6 -16
v -34 6 -18
v -34 8 -12
v -34 8 -14
v -34 8 -16
v -34 10 -10
v -34 10 -12
v -34 10 -14
v -34 12 -8
v -34 12 -10
v -34 12 -12
v -34 14 -6
v -34 14 -8
v -34 14 -10
v -34 16 -4
v -34 16 -6
v -34 16 -8
v -34 18 -2
v -34 18 -4
v -34 18 -6
v -34 20 -0
v -34 20 -2
v -34 20 -4
v -34 22 4
v -34 22 -0
v -34 22 -2
v -34 24 6
v -34 24 4
v -34 24 2
v -34 24 -0
v -34 26 10
v -34 26 6
v -34 26 2
v -34 28 12
v -34 28 10
v -34 28 8
v -34 28 6
v -34 30 24
v -34 30 12
v -34 30 8
v -34 32 14
v -34 32 12
v -34 34 24
v -34 34 14
v -32 0 2
v -32 0 -20
v -32 0 -22
v -32 0 -24
v -32 2 4
v -32 2 2
v -32 2 -18
v -32 2 -20
v -32 2 -22
v -32 2 -24
v -32 4 6
v -32 4 4
v -32 4 -16
v -32 4 -18
v -32 4 -20
v -32 4 -22
v -32 6 8
v -32 6 6
v -32 6 -14
v -32 6 -16
v -32 6 -18
v -32 6 -20
v -32 8 10
v -32 8 8
v -32 8 -12
v -32 8 -14
v -32 8 -16
v -32 8 -18
v -32 10 12
v -32 10 10
v -32 10 -10
v -32 10 -12
v -32 10 -14
v -32 10 -16
v -32 12 14
v -32 12 12
v -32 12 -8
v -32 12 -10
v -32 12 -12
v -32 12 -14
v -32 14 24
v -32 14 14
v -32 14 -6
v -32 14 -8
v -32 14 -10
v -32 14 -12
v -32 16 -4
v -32 16 -6
v -32 16 -8
v -32 16 -10
v -32 18 -2
v -32 18 -4
v -32 18 -6
v -32 18 -8
v -32 20 -0
v -32 20 -2
v -32 20 -4
v -32 20 -6
v -32 22 4
v -32 22 -0
v -32 22 -2
v -32 22 -4
v -32 24 6
v -32 24 4
v -32 24 2
v -32 24 -0
v -32 24 -2
v -32 26 10
v -32 26 6
v -32 26 4
v -32 26 2
v -32 26 -0
v -32 28 12
v -32 28 10
v -32 28 8
v -32 28 6
v -32 28 4
v -32 30 24
v -32 30 12
v -32 30 10
v -32 30 8
v -32 30 6
v -32 32 14
v -32 32 12
v -32 32 10
v -32 34 24
v -32 34 16
v -32 34 14
v -32 34 12
v -32 36 24
v -32 36 16
v -30 12 24
v -30 12 14
v -30 14 24
v -30 14 14
v -10 10 22
v -10 10 2
v -10 12 24
v -10 12 22
v -10 12 8
v -10 12 2
v -10 14 24
v -10 14 8
v -8 10 24
v -8 10 22
v -8 12 24
v -8 12 22
v 24 0 -18
v 24 0 -22
v 24 2 -20
v 24 2 -22
v 24 4 -14
v 24 4 -18
v 24 4 -20
v 24 6 -16
v 24 6 -18
v 24 8 -10
v 24 8 -14
v 24 8 -16
v 24 10 -12
v 24 10 -14
v 24 12 -6
v 24 12 -10
v 24 12 -12
v 24 14 -8
v 24 14 -10
v 24 16 -2
v 24 16 -6
v 24 16 -8
v 24 18 -4
v 24 18 -6
v 24 20 6
v 24 20 -2
v 24 20 -4
v 24 22 8
v 24 22 6
v 24 22 -0
v 24 22 -2
v 24 24 10
v 24 24 8
v 24 24 2
v 24 24 -0
v 24 26 12
v 24 26 10
v 24 26 6
v 24 26 2
v 24 28 14
v 24 28 12
v 24 28 8
v 24 28 6
v 24 30 24
v 24 30 14
v 24 30 12
v 24 30 8
v 24 32 16
v 24 32 12
v 24 34 24
v 24 34 16
v 26 0 2
v 26 0 -12
v 26 0 -22
v 26 0 -23
v 26 0 -24
v 26 1 -22
v 26 1 -23
v 26 2 4
v 26 2 2
v 26 2 -10
v 26 2 -12
v 26 2 -20
v 26 2 -21
v 26 2 -22
v 26 2 -24
v 26 3 -20
v 26 3 -21
v 26 4 6
v 26 4 4
v 26 4 -8
v 26 4 -10
v 26 4 -18
v 26 4 -19
v 26 4 -20
v 26 4 -22
v 26 5 -18
v 26 5 -19
v 26 6 8
v 26 6 6
v 26 6 -6
v 26 6 -8
v 26 6 -16
v 26 6 -17
v 26 6 -18
v 26 6 -20
v 26 7 -16
v 26 7 -17
v 26 8 10
v 26 8 8
v 26 8 -0
v 26 8 -6
v 26 8 -14
v 26 8 -15
v 26 8 -16
v 26 8 -18
v 26 9 -14
v 26 9 -15
v 26 10 12
v 26 10 10
v 26 10 2
v 26 10 -0
v 26 10 -12
v 26 10 -14
v 26 10 -16
v 26 12 24
v 26 12 12
v 26 12 8
v 26 12 2
v 26 12 -10
v 26 12 -11
v 26 12 -12
v 26 12 -14
v 26 13 -10
v 26 13 -11
v 26 14 24
v 26 14 8
v 26 14 -8
v 26 14 -9
v 26 14 -10
v 26 14 -12
v 26 15 -8
v 26 15 -9
v 26 16 -6
v 26 16 -8
v 26 16 -10
v 26 18 -4
v 26 18 -6
v 26 18 -8
v 26 20 24
v 26 20 23
v 26 20 6
v 26 20 -2
v 26 20 -4
v 26 20 -6
v 26 22 8
v 26 22 6
v 26 22 -0
v 26 22 -2
v 26 22 -4
v 26 24 10
v 26 24 8
v 26 24 2
v 26 24 -0
v 26 24 -2
v 26 26 12
v 26 26 10
v 26 26 6
v 26 26 4
v 26 26 2
v 26 26 -0
v 26 28 14
v 26 28 12
v 26 28 8
v 26 28 6
v 26 28 4
v 26 30 24
v 26 30 23
v 26 30 14
v 26 30 12
v 26 30 10
v 26 30 8
v 26 30 6
v 26 32 16
v 26 32 12
v 26 32 10
v 26 34 24
v 26 34 16
v 26 34 12
v 26 36 24
v 26 36 16
v -26 0 2
v -26 0 -12
v -26 0 -22
v -26 0 -23
v -26 0 -24
v -26 1 -22
v -26 1 -23
v -26 2 4
v -26 2 2
v -26 2 -10
v -26 2 -12
v -26 2 -20
v -26 2 -21
v -26 2 -22
v -26 2 -24
v -26 3 -20
v -26 3 -21
v -26 4 6
v -26 4 4
v -26 4 -8
v -26 4 -10
v -26 4 -18
v -26 4 -19
v -26 4 -20
v -26 4 -22
v -26 5 -18
v -26 5 -19
v -26 6 8
v -26 6 6
v -26 6 -6
v -26 6 -8
v -26 6 -16
v -26 6 -17
v -26 6 -18
v -26 6 -20
v -26 7 -16
v -26 7 -17
v -26 8 10
v -26 8 8
v -26 8 -0
v -26 8 -6
v -26 8 -14
v -26 8 -15
v -26 8 -16
v -26 8 -18
v -26 9 -14
v -26 9 -15
v -26 10 12
v -26 10 10
v -26 10 2
v -26 10 -0
v -26 10 -12
v -26 10 -14
v -26 10 -16
v -26 12 24
v -26 12 12
v -26 12 8
v -26 12 2
v -26 12 -10
v -26 12 -11
v -26 12 -12
v -26 12 -14
v -26 13 -10
v -26 13 -11
v -26 14 24
v -26 14 8
v -26 14 -8
v -26 14 -9
v -26 14 -10
v -26 14 -12
v -26 15 -8
v -26 15 -9
v -26 16 -6
v -26 16 -8
v -26 16 -10
v -26 18 -4
v -26 18 -6
v -26 18 -8
v -26 20 24
v -26 20 23
v -26 20 6
v -26 20 -2
v -26 20 -4
v -26 20 -6
v -26 22 8
v -26 22 6
v -26 22 -0
v -26 22 -2
v -26 22 -4
v -26 24 10
v -26 24 8
v -26 24 2
v -26 24 -0
v -26 24 -2
v -26 26 12
v -26 26 10
v -26 26 6
v -26 26 4
v -26 26 2
v -26 26 -0
v -26 28 14
v -26 28 12
v -26 28 8
v -26 28 6
v -26 28 4
v -26 30 24
v -26 30 23
v -26 30 14
v -26 30 12
v -26 30 10
v -26 30 8
v -26 30 6
v -26 32 16
v -26 32 12
v -26 32 10
v -26 34 24
v -26 34 16
v -26 34 12
v -26 36 24
v -26 36 16
v -24 0 -18
v -24 0 -22
v -24 2 -20
v -24 2 -22
v -24 4 -14
v -24 4 -18
v -24 4 -20
v -24 6 -16
v -24 6 -18
v -24 8 -10
v -24 8 -14
v -24 8 -16
v -24 10 -12
v -24 10 -14
v -24 12 -6
v -24 12 -10
v -24 12 -12
v -24 14 -8
v -24 14 -10
v -24 16 -2
v -24 16 -6
v -24 16 -8
v -24 18 -4
v -24 18 -6
v -24 20 6
v -24 20 -2
v -24 20 -4
v -24 22 8
v -24 22 6
v -24 22 -0
v -24 22 -2
v -24 24 10
v -24 24 8
v -24 24 2
v -24 24 -0
v -24 26 12
v -24 26 10
v -24 26 6
v -24 26 2
v -24 28 14
v -24 28 12
v -24 28 8
v -24 28 6
v -24 30 24
v -24 30 14
v -24 30 12
v -24 30 8
v -24 32 16
v -24 32 12
v -24 34 24
v -24 34 16
v 8 10 24
v 8 10 22
v 8 12 24
v 8 12 22
v 10 10 22
v 10 10 2
v 10 12 24
v 10 12 22
v 10 12 8
v 10 12 2
v 10 14 24
v 10 14 8
v 30 12 24
v 30 12 14
v 30 14 24
v 30 14 14
v 32 0 2
v 32 0 -20
v 32 0 -22
v 32 0 -24
v 32 2 4
v 32 2 2
v 32 2 -18
v 32 2 -20
v 32 2 -22
v 32 2 -24
v 32 4 6
v 32 4 4
v 32 4 -16
v 32 4 -18
v 32 4 -20
v 32 4 -22
v 32 6 8
v 32 6 6
v 32 6 -14
v 32 6 -16
v 32 6 -18
v 32 6 -20
v 32 8 10
v 32 8 8
v 32 8 -12
v 32 8 -14
v 32 8 -16
v 32 8 -18
v 32 10 12
v 32 10 10
v 32 10 -10
v 32 10 -12
v 32 10 -14
v 32 10 -16
v 32 12 14
v 32 12 12
v 32 12 -8
v 32 12 -10
v 32 12 -12
v 32 12 -14
v 32 14 24
v 32 14 14
v 32 14 -6
v 32 14 -8
v 32 14 -10
v 32 14 -12
v 32 16 -4
v 32 16 -6
v 32 16 -8
v 32 16 -10
v 32 18 -2
v 32 18 -4
v 32 18 -6
v 32 18 -8
v 32 20 -0
v 32 20 -2
v 32 20 -4
v 32 20 -6
v 32 22 4
v 32 22 -0
v 32 22 -2
v 32 22 -4
v 32 24 6
v 32 24 4
v 32 24 2
v 32 24 -0
v 32 24 -2
v 32 26 10
v 32 26 6
v 32 26 4
v 32 26 2
v 32 26 -0
v 32 28 12
v 32 28 10
v 32 28 8
v 32 28 6
v 32 28 4
v 32 30 24
v 32 30 12
v 32 30 10
v 32 30 8
v 32 30 6
v 32 32 14
v 32 32 12
v 32 32 10
v 32 34 24
v 32 34 16
v 32 34 14
v 32 34 12
v 32 36 24
v 32 36 16
v 34 0 -20
v 34 0 -22
v 34 2 -18
v 34 2 -20
v 34 2 -22
v 34 4 -16
v 34 4 -18
v 34 4 -20
v 34 6 -14
v 34 6 -16
v 34 6 -18
v 34 8 -12
v 34 8 -14
v 34 8 -16
v 34 10 -10
v 34 10 -12
v 34 10 -14
v 34 12 -8
v 34 12 -10
v 34 12 -12
v 34 14 -6
v 34 14 -8
v 34 14 -10
v 34 16 -4
v 34 16 -6
v 34 16 -8
v 34 18 -2
v 34 18 -4
v 34 18 -6
v 34 20 -0
v 34 20 -2
v 34 20 -4
v 34 22 4
v 34 22 -0
v 34 22 -2
v 34 24 6
v 34 24 4
v 34 24 2
v 34 24 -0
v 34 26 10
v 34 26 6
v 34 26 2
v 34 28 12
v 34 28 10
v 34 28 8
v 34 28 6
v 34 30 24
v 34 30 12
v 34 30 8
v 34 32 14
v 34 32 12
v 34 34 24
v 34 34 14
v -34 30 24
v -34 34 24
v -32 14 24
v -32 30 24
v -32 34 24
v -32 36 24
v -30 12 24
v -30 14 24
v -26 12 24
v -26 14 24
v -26 20 24
v -26 30 24
v -26 34 24
v -26 36 24
v -24 30 24
v -24 34 24
v -23 19 24
v -23 20 24
v -10 12 24
v -10 14 24
v -8 10 24
v -8 12 24
v 8 10 24
v 8 12 24
v 10 12 24
v 10 14 24
v 23 19 24
v 23 20 24
v 24 30 24
v 24 34 24
v 26 12 24
v 26 14 24
v 26 20 24
v 26 30 24
v 26 34 24
v 26 36 24
v 30 12 24
v 30 14 24
v 32 14 24
v 32 30 24
v 32 34 24
v 32 36 24
v 34 30 24
v 34 34 24
v -10 10 22
v -10 12 22
v -8 10 22
v -8 12 22
v 8 10 22
v 8 12 22
v 10 10 22
v 10 12 22
v -32 12 14
v -32 14 14
v -30 12 14
v -30 14 14
v -26 28 14
v -26 30 14
v -24 28 14
v -24 30 14
v 24 28 14
v 24 30 14
v 26 28 14
v 26 30 14
v 30 12 14
v 30 14 14
v 32 12 14
v 32 14 14
v -34 28 12
v -34 30 12
v -32 10 12
v -32 12 12
v -32 28 12
v -32 30 12
v -26 10 12
v -26 12 12
v -26 26 12
v -26 28 12
v -24 26 12
v -24 28 12
v 24 26 12
v 24 28 12
v 26 10 12
v 26 12 12
v 26 26 12
v 26 28 12
v 32 10 12
v 32 12 12
v 32 28 12
v 32 30 12
v 34 28 12
v 34 30 12
v -34 26 10
v -34 28 10
v -32 8 10
v -32 10 10
v -32 26 10
v -32 28 10
v -26 8 10
v -26 10 10
v -26 24 10
v -26 26 10
v -24 24 10
v -24 26 10
v 24 24 10
v 24 26 10
v 26 8 10
v 26 10 10
v 26 24 10
v 26 26 10
v 32 8 10
v 32 10 10
v 32 26 10
v 32 28 10
v 34 26 10
v 34 28 10
v -32 6 8
v -32 8 8
v -26 6 8
v -26 8 8
v -26 12 8
v -26 14 8
v -26 22 8
v -26 24 8
v -24 22 8
v -24 24 8
v -10 12 8
v -10 14 8
v 10 12 8
v 10 14 8
v 24 22 8
v 24 24 8
v 26 6 8
v 26 8 8
v 26 12 8
v 26 14 8
v 26 22 8
v 26 24 8
v 32 6 8
v 32 8 8
v -34 24 6
v -34 26 6
v -32 4 6
v -32 6 6
v -32 24 6
v -32 26 6
v -26 4 6
v -26 6 6
v -26 20 6
v -26 22 6
v -24 20 6
v -24 22 6
v 24 20 6
v 24 22 6
v 26 4 6
v 26 6 6
v 26 20 6
v 26 22 6
v 32 4 6
v 32 6 6
v 32 24 6
v 32 26 6
v 34 24 6
v 34 26 6
v -34 22 4
v -34 24 4
v -32 2 4
v -32 4 4
v -32 22 4
v -32 24 4
v -26 2 4
v -26 4 4
v 26 2 4
v 26 4 4
v 32 2 4
v 32 4 4
v 32 22 4
v 32 24 4
v 34 22 4
v 34 24 4
v -32 0 2
v -32 2 2
v -26 0 2
v -26 2 2
v -26 10 2
v -26 12 2
v -10 10 2
v -10 12 2
v 10 10 2
v 10 12 2
v 26 0 2
v 26 2 2
v 26 10 2
v 26 12 2
v 32 0 2
v 32 2 2
v -34 20 -0
v -34 22 -0
v -32 20 -0
v -32 22 -0
v -26 8 -0
v -26 10 -0
v 26 8 -0
v 26 10 -0
v 32 20 -0
v 32 22 -0
v 34 20 -0
v 34 22 -0
v -34 18 -2
v -34 20 -2
v -32 18 -2
v -32 20 -2
v 32 18 -2
v 32 20 -2
v 34 18 -2
v 34 20 -2
v -34 16 -4
v -34 18 -4
v -32 16 -4
v -32 18 -4
v 32 16 -4
v 32 18 -4
v 34 16 -4
v 34 18 -4
v -34 14 -6
v -34 16 -6
v -32 14 -6
v -32 16 -6
v -26 6 -6
v -26 8 -6
v -22 6 -6
v -22 8 -6
v 22 6 -6
v 22 8 -6
v 26 6 -6
v 26 8 -6
v 32 14 -6
v 32 16 -6
v 34 14 -6
v 34 16 -6
v -34 12 -8
v -34 14 -8
v -32 12 -8
v -32 14 -8
v -26 4 -8
v -26 6 -8
v -22 4 -8
v -22 6 -8
v 22 4 -8
v 22 6 -8
v 26 4 -8
v 26 6 -8
v 32 12 -8
v 32 14 -8
v 34 12 -8
v 34 14 -8
v -34 10 -10
v -34 12 -10
v -32 10 -10
v -32 12 -10
v -26 2 -10
v -26 4 -10
v -22 2 -10
v -22 4 -10
v 22 2 -10
v 22 4 -10
v 26 2 -10
v 26 4 -10
v 32 10 -10
v 32 12 -10
v 34 10 -10
v 34 12 -10
v -34 8 -12
v -34 10 -12
v -32 8 -12
v -32 10 -12
v -26 0 -12
v -26 2 -12
v -22 0 -12
v -22 2 -12
v 22 0 -12
v 22 2 -12
v 26 0 -12
v 26 2 -12
v 32 8 -12
v 32 10 -12
v 34 8 -12
v 34 10 -12
v -34 6 -14
v -34 8 -14
v -32 6 -14
v -32 8 -14
v 32 6 -14
v 32 8 -14
v 34 6 -14
v 34 8 -14
v -34 4 -16
v -34 6 -16
v -32 4 -16
v -32 6 -16
v 32 4 -16
v 32 6 -16
v 34 4 -16
v 34 6 -16
v -34 2 -18
v -34 4 -18
v -32 2 -18
v -32 4 -18
v 32 2 -18
v 32 4 -18
v 34 2 -18
v 34 4 -18
v -34 0 -20
v -34 2 -20
v -32 0 -20
v -32 2 -20
v 32 0 -20
v 32 2 -20
v 34 0 -20
v 34 2 -20
v -32 34 16
v -32 36 16
v -26 32 16
v -26 34 16
v -26 36 16
v -24 32 16
v -24 34 16
v 24 32 16
v 24 34 16
v 26 32 16
v 26 34 16
v 26 36 16
v 32 34 16
v 32 36 16
v -34 32 14
v -34 34 14
v -32 32 14
v -32 34 14
v 32 32 14
v 32 34 14
v 34 32 14
v 34 34 14
v -34 30 12
v -34 32 12
v -32 30 12
v -32 32 12
v -32 34 12
v -26 30 12
v -26 32 12
v -26 34 12
v -24 30 12
v -24 32 12
v 24 30 12
v 24 32 12
v 26 30 12
v 26 32 12
v 26 34 12
v 32 30 12
v 32 32 12
v 32 34 12
v 34 30 12
v 34 32 12
v -32 30 10
v -32 32 10
v -26 30 10
v -26 32 10
v 26 30 10
v 26 32 10
v 32 30 10
v 32 32 10
v -34 28 8
v -34 30 8
v -32 28 8
v -32 30 8
v -26 28 8
v -26 30 8
v -24 28 8
v -24 30 8
v 24 28 8
v 24 30 8
v 26 28 8
v 26 30 8
v 32 28 8
v 32 30 8
v 34 28 8
v 34 30 8
v -34 26 6
v -34 28 6
v -32 26 6
v -32 28 6
v -32 30 6
v -26 26 6
v -26 28 6
v -26 30 6
v -24 26 6
v -24 28 6
v 24 26 6
v 24 28 6
v 26 26 6
v 26 28 6
v 26 30 6
v 32 26 6
v 32 28 6
v 32 30 6
v 34 26 6
v 34 28 6
v -32 26 4
v -32 28 4
v -26 26 4
v -26 28 4
v 26 26 4
v 26 28 4
v 32 26 4
v 32 28 4
v -34 24 2
v -34 26 2
v -32 24 2
v -32 26 2
v -26 24 2
v -26 26 2
v -24 24 2
v -24 26 2
v 24 24 2
v 24 26 2
v 26 24 2
v 26 26 2
v 32 24 2
v 32 26 2
v 34 24 2
v 34 26 2
v -34 22 -0
v -34 24 -0
v -32 22 -0
v -32 24 -0
v -32 26 -0
v -26 22 -0
v -26 24 -0
v -26 26 -0
v -24 22 -0
v -24 24 -0
v 24 22 -0
v 24 24 -0
v 26 22 -0
v 26 24 -0
v 26 26 -0
v 32 22 -0
v 32 24 -0
v 32 26 -0
v 34 22 -0
v 34 24 -0
v -34 20 -2
v -34 22 -2
v -32 20 -2
v -32 22 -2
v -32 24 -2
v -26 20 -2
v -26 22 -2
v -26 24 -2
v -24 16 -2
v -24 20 -2
v -24 22 -2
v -22 16 -2
v -22 20 -2
v 22 16 -2
v 22 20 -2
v 24 16 -2
v 24 20 -2
v 24 22 -2
v 26 20 -2
v 26 22 -2
v 26 24 -2
v 32 20 -2
v 32 22 -2
v 32 24 -2
v 34 20 -2
v 34 22 -2
v -34 18 -4
v -34 20 -4
v -32 18 -4
v -32 20 -4
v -32 22 -4
v -26 18 -4
v -26 20 -4
v -26 22 -4
v -24 18 -4
v -24 20 -4
v 24 18 -4
v 24 20 -4
v 26 18 -4
v 26 20 -4
v 26 22 -4
v 32 18 -4
v 32 20 -4
v 32 22 -4
v 34 18 -4
v 34 20 -4
v -34 16 -6
v -34 18 -6
v -32 16 -6
v -32 18 -6
v -32 20 -6
v -26 16 -6
v -26 18 -6
v -26 20 -6
v -24 12 -6
v -24 16 -6
v -24 18 -6
v -22 12 -6
v -22 16 -6
v 22 12 -6
v 22 16 -6
v 24 12 -6
v 24 16 -6
v 24 18 -6
v 26 16 -6
v 26 18 -6
v 26 20 -6
v 32 16 -6
v 32 18 -6
v 32 20 -6
v 34 16 -6
v 34 18 -6
v -34 14 -8
v -34 16 -8
v -32 14 -8
v -32 16 -8
v -32 18 -8
v -26 14 -8
v -26 15 -8
v -26 16 -8
v -26 18 -8
v -24 14 -8
v -24 16 -8
v 24 14 -8
v 24 16 -8
v 26 14 -8
v 26 15 -8
v 26 16 -8
v 26 18 -8
v 32 14 -8
v 32 16 -8
v 32 18 -8
v 34 14 -8
v 34 16 -8
v -34 12 -10
v -34 14 -10
v -32 12 -10
v -32 14 -10
v -32 16 -10
v -26 12 -10
v -26 13 -10
v -26 14 -10
v -26 16 -10
v -24 8 -10
v -24 12 -10
v -24 14 -10
v -22 8 -10
v -22 12 -10
v 22 8 -10
v 22 12 -10
v 24 8 -10
v 24 12 -10
v 24 14 -10
v 26 12 -10
v 26 13 -10
v 26 14 -10
v 26 16 -10
v 32 12 -10
v 32 14 -10
v 32 16 -10
v 34 12 -10
v 34 14 -10
v -34 10 -12
v -34 12 -12
v -32 10 -12
v -32 12 -12
v -32 14 -12
v -26 10 -12
v -26 12 -12
v -26 14 -12
v -24 10 -12
v -24 12 -12
v 24 10 -12
v 24 12 -12
v 26 10 -12
v 26 12 -12
v 26 14 -12
v 32 10 -12
v 32 12 -12
v 32 14 -12
v 34 10 -12
v 34 12 -12
v -34 8 -14
v -34 10 -14
v -32 8 -14
v -32 10 -14
v -32 12 -14
v -26 8 -14
v -26 9 -14
v -26 10 -14
v -26 12 -14
v -24 4 -14
v -24 8 -14
v -24 10 -14
v -22 4 -14
v -22 8 -14
v 22 4 -14
v 22 8 -14
v 24 4 -14
v 24 8 -14
v 24 10 -14
v 26 8 -14
v 26 9 -14
v 26 10 -14
v 26 12 -14
v 32 8 -14
v 32 10 -14
v 32 12 -14
v 34 8 -14
v 34 10 -14
v -34 6 -16
v -34 8 -16
v -32 6 -16
v -32 8 -16
v -32 10 -16
v -26 6 -16
v -26 7 -16
v -26 8 -16
v -26 10 -16
v -24 6 -16
v -24 8 -16
v 24 6 -16
v 24 8 -16
v 26 6 -16
v 26 7 -16
v 26 8 -16
v 26 10 -16
v 32 6 -16
v 32 8 -16
v 32 10 -16
v 34 6 -16
v 34 8 -16
v -34 4 -18
v -34 6 -18
v -32 4 -18
v -32 6 -18
v -32 8 -18
v -26 4 -18
v -26 5 -18
v -26 6 -18
v -26 8 -18
v -24 0 -18
v -24 4 -18
v -24 6 -18
v -22 0 -18
v -22 4 -18
v 22 0 -18
v 22 4 -18
v 24 0 -18
v 24 4 -18
v 24 6 -18
v 26 4 -18
v 26 5 -18
v 26 6 -18
v 26 8 -18
v 32 4 -18
v 32 6 -18
v 32 8 -18
v 34 4 -18
v 34 6 -18
v -34 2 -20
v -34 4 -20
v -32 2 -20
v -32 4 -20
v -32 6 -20
v -26 2 -20
v -26 3 -20
v -26 4 -20
v -26 6 -20
v -24 2 -20
v -24 4 -20
v 24 2 -20
v 24 4 -20
v 26 2 -20
v 26 3 -20
v 26 4 -20
v 26 6 -20
v 32 2 -20
v 32 4 -20
v 32 6 -20
v 34 2 -20
v 34 4 -20
v -34 0 -22
v -34 2 -22
v -32 0 -22
v -32 2 -22
v -32 4 -22
v -26 0 -22
v -26 1 -22
v -26 2 -22
v -26 4 -22
v -24 0 -22
v -24 2 -22
v 24 0 -22
v 24 2 -22
v 26 0 -22
v 26 1 -22
v 26 2 -22
v 26 4 -22
v 32 0 -22
v 32 2 -22
v 32 4 -22
v 34 0 -22
v 34 2 -22
v -32 0 -24
v -32 2 -24
v -26 0 -24
v -26 2 -24
v 26 0 -24
v 26 2 -24
v 32 0 -24
v 32 2 -24
v -32 0 2
v -26 0 2
v 26 0 2
v 32 0 2
v -26 0 -12
v -22 0 -12
v 22 0 -12
v 26 0 -12
v -24 0 -18
v -22 0 -18
v 22 0 -18
v 24 0 -18
v -34 0 -20
v -32 0 -20
v -31 0 -20
v 31 0 -20
v 32 0 -20
v 34 0 -20
v -34 0 -22
v -32 0 -22
v -26 0 -22
v -24 0 -22
v 24 0 -22
v 26 0 -22
v 32 0 -22
v 34 0 -22
v -31 0 -23
v -26 0 -23
v 26 0 -23
v 31 0 -23
v -32 0 -24
v -26 0 -24
v 26 0 -24
v 32 0 -24
v -32 2 4
v -26 2 4
v 26 2 4
v 32 2 4
v -32 2 2
v -26 2 2
v 26 2 2
v 32 2 2
v -26 2 -10
v -22 2 -10
v 22 2 -10
v 26 2 -10
v -26 2 -12
v -22 2 -12
v 22 2 -12
v 26 2 -12
v -34 2 -18
v -32 2 -18
v 32 2 -18
v 34 2 -18
v -34 2 -20
v -32 2 -20
v 32 2 -20
v 34 2 -20
v -32 4 6
v -26 4 6
v 26 4 6
v 32 4 6
v -32 4 4
v -26 4 4
v 26 4 4
v 32 4 4
v -26 4 -8
v -22 4 -8
v 22 4 -8
v 26 4 -8
v -26 4 -10
v -22 4 -10
v 22 4 -10
v 26 4 -10
v -34 4 -16
v -32 4 -16
v 32 4 -16
v 34 4 -16
v -34 4 -18
v -32 4 -18
v 32 4 -18
v 34 4 -18
v -32 6 8
v -26 6 8
v 26 6 8
v 32 6 8
v -32 6 6
v -26 6 6
v 26 6 6
v 32 6 6
v -26 6 -6
v -22 6 -6
v 22 6 -6
v 26 6 -6
v -26 6 -8
v -22 6 -8
v 22 6 -8
v 26 6 -8
v -34 6 -14
v -32 6 -14
v 32 6 -14
v 34 6 -14
v -34 6 -16
v -32 6 -16
v 32 6 -16
v 34 6 -16
v -32 8 10
v -26 8 10
v 26 8 10
v 32 8 10
v -32 8 8
v -26 8 8
v 26 8 8
v 32 8 8
v -26 8 -0
v 26 8 -0
v -22 8 -1
v 22 8 -1
v -26 8 -6
v -22 8 -6
v 22 8 -6
v 26 8 -6
v -34 8 -12
v -32 8 -12
v 32 8 -12
v 34 8 -12
v -34 8 -14
v -32 8 -14
v 32 8 -14
v 34 8 -14
v -8 10 24
v 8 10 24
v -10 10 22
v -8 10 22
v 8 10 22
v 10 10 22
v -32 10 12
v -26 10 12
v 26 10 12
v 32 10 12
v -32 10 10
v -26 10 10
v 26 10 10
v 32 10 10
v -26 10 2
v -10 10 2
v 10 10 2
v 26 10 2
v -26 10 -0
v 26 10 -0
v -34 10 -10
v -32 10 -10
v 32 10 -10
v 34 10 -10
v -34 10 -12
v -32 10 -12
v 32 10 -12
v 34 10 -12
v -30 12 24
v -26 12 24
v -10 12 24
v -8 12 24
v 8 12 24
v 10 12 24
v 26 12 24
v 30 12 24
v -10 12 22
v -8 12 22
v 8 12 22
v 10 12 22
v -32 12 14
v -30 12 14
v 30 12 14
v 32 12 14
v -32 12 12
v -26 12 12
v 26 12 12
v 32 12 12
v -26 12 8
v -10 12 8
v 10 12 8
v 26 12 8
v -26 12 2
v -10 12 2
v 10 12 2
v 26 12 2
v -34 12 -8
v -32 12 -8
v 32 12 -8
v 34 12 -8
v -34 12 -10
v -32 12 -10
v 32 12 -10
v 34 12 -10
v -32 14 24
v -30 14 24
v -26 14 24
v -10 14 24
v 10 14 24
v 26 14 24
v 30 14 24
v 32 14 24
v -32 14 14
v -30 14 14
v 30 14 14
v 32 14 14
v -26 14 8
v -10 14 8
v 10 14 8
v 26 14 8
v -34 14 -6
v -32 14 -6
v 32 14 -6
v 34 14 -6
v -34 14 -8
v -32 14 -8
v 32 14 -8
v 34 14 -8
v -34 16 -4
v -32 16 -4
v 32 16 -4
v 34 16 -4
v -34 16 -6
v -32 16 -6
v 32 16 -6
v 34 16 -6
v -34 18 -2
v -32 18 -2
v 32 18 -2
v 34 18 -2
v -34 18 -4
v -32 18 -4
v 32 18 -4
v 34 18 -4
v -34 20 -0
v -32 20 -0
v 32 20 -0
v 34 20 -0
v -34 20 -2
v -32 20 -2
v 32 20 -2
v 34 20 -2
v -26 22 8
v -24 22 8
v 24 22 8
v 26 22 8
v -26 22 6
v -24 22 6
v 24 22 6
v 26 22 6
v -34 22 4
v -32 22 4
v 32 22 4
v 34 22 4
v -34 22 -0
v -32 22 -0
v 32 22 -0
v 34 22 -0
v -26 24 10
v -24 24 10
v 24 24 10
v 26 24 10
v -26 24 8
v -24 24 8
v 24 24 8
v 26 24 8
v -34 24 6
v -32 24 6
v 32 24 6
v 34 24 6
v -34 24 4
v -32 24 4
v 32 24 4
v 34 24 4
v -26 26 12
v -24 26 12
v 24 26 12
v 26 26 12
v -34 26 10
v -32 26 10
v -26 26 10
v -24 26 10
v 24 26 10
v 26 26 10
v 32 26 10
v 34 26 10
v -34 26 6
v -32 26 6
v 32 26 6
v 34 26 6
v -26 28 14
v -24 28 14
v 24 28 14
v 26 28 14
v -34 28 12
v -32 28 12
v -26 28 12
v -24 28 12
v 24 28 12
v 26 28 12
v 32 28 12
v 34 28 12
v -34 28 10
v -32 28 10
v 32 28 10
v 34 28 10
v -34 30 24
v -32 30 24
v -26 30 24
v -24 30 24
v 24 30 24
v 26 30 24
v 32 30 24
v 34 30 24
v -26 30 23
v 26 30 23
v -26 30 14
v -24 30 14
v 24 30 14
v 26 30 14
v -34 30 12
v -32 30 12
v 32 30 12
v 34 30 12
v -34 2 -20
v -32 2 -20
v -26 2 -20
v -24 2 -20
v 24 2 -20
v 26 2 -20
v 32 2 -20
v 34 2 -20
v -26 2 -21
v 26 2 -21
v -34 2 -22
v -32 2 -22
v -26 2 -22
v -24 2 -22
v 24 2 -22
v 26 2 -22
v 32 2 -22
v 34 2 -22
v -32 2 -24
v -26 2 -24
v 26 2 -24
v 32 2 -24
v -24 4 -14
v -22 4 -14
v 22 4 -14
v 24 4 -14
v -34 4 -18
v -32 4 -18
v -26 4 -18
v -24 4 -18
v -22 4 -18
v 22 4 -18
v 24 4 -18
v 26 4 -18
v 32 4 -18
v 34 4 -18
v -26 4 -19
v 26 4 -19
v -34 4 -20
v -32 4 -20
v -26 4 -20
v -24 4 -20
v 24 4 -20
v 26 4 -20
v 32 4 -20
v 34 4 -20
v -32 4 -22
v -26 4 -22
v 26 4 -22
v 32 4 -22
v -34 6 -16
v -32 6 -16
v -26 6 -16
v -24 6 -16
v 24 6 -16
v 26 6 -16
v 32 6 -16
v 34 6 -16
v -26 6 -17
v 26 6 -17
v -34 6 -18
v -32 6 -18
v -26 6 -18
v -24 6 -18
v 24 6 -18
v 26 6 -18
v 32 6 -18
v 34 6 -18
v -32 6 -20
v -26 6 -20
v 26 6 -20
v 32 6 -20
v -24 8 -10
v -22 8 -10
v 22 8 -10
v 24 8 -10
v -34 8 -14
v -32 8 -14
v -26 8 -14
v -24 8 -14
v -22 8 -14
v 22 8 -14
v 24 8 -14
v 26 8 -14
v 32 8 -14
v 34 8 -14
v -26 8 -15
v 26 8 -15
v -34 8 -16
v -32 8 -16
v -26 8 -16
v -24 8 -16
v 24 8 -16
v 26 8 -16
v 32 8 -16
v 34 8 -16
v -32 8 -18
v -26 8 -18
v 26 8 -18
v 32 8 -18
v -34 10 -12
v -32 10 -12
v -26 10 -12
v -24 10 -12
v 24 10 -12
v 26 10 -12
v 32 10 -12
v 34 10 -12
v -34 10 -14
v -32 10 -14
v -26 10 -14
v -24 10 -14
v 24 10 -14
v 26 10 -14
v 32 10 -14
v 34 10 -14
v -32 10 -16
v -26 10 -16
v 26 10 -16
v 32 10 -16
v -24 12 -6
v -22 12 -6
v 22 12 -6
v 24 12 -6
v -34 12 -10
v -32 12 -10
v -26 12 -10
v -24 12 -10
v -22 12 -10
v 22 12 -10
v 24 12 -10
v 26 12 -10
v 32 12 -10
v 34 12 -10
v -26 12 -11
v 26 12 -11
v -34 12 -12
v -32 12 -12
v -26 12 -12
v -24 12 -12
v 24 12 -12
v 26 12 -12
v 32 12 -12
v 34 12 -12
v -32 12 -14
v -26 12 -14
v 26 12 -14
v 32 12 -14
v -34 14 -8
v -32 14 -8
v -26 14 -8
v -24 14 -8
v 24 14 -8
v 26 14 -8
v 32 14 -8
v 34 14 -8
v -26 14 -9
v 26 14 -9
v -34 14 -10
v -32 14 -10
v -26 14 -10
v -24 14 -10
v 24 14 -10
v 26 14 -10
v 32 14 -10
v 34 14 -10
v -32 14 -12
v -26 14 -12
v 26 14 -12
v 32 14 -12
v -24 16 -2
v -22 16 -2
v 22 16 -2
v 24 16 -2
v -34 16 -6
v -32 16 -6
v -26 16 -6
v -24 16 -6
v -22 16 -6
v 22 16 -6
v 24 16 -6
v 26 16 -6
v 32 16 -6
v 34 16 -6
v -34 16 -8
v -32 16 -8
v -26 16 -8
v -24 16 -8
v 24 16 -8
v 26 16 -8
v 32 16 -8
v 34 16 -8
v -32 16 -10
v -26 16 -10
v 26 16 -10
v 32 16 -10
v -34 18 -4
v -32 18 -4
v -26 18 -4
v -24 18 -4
v 24 18 -4
v 26 18 -4
v 32 18 -4
v 34 18 -4
v -34 18 -6
v -32 18 -6
v -26 18 -6
v -24 18 -6
v 24 18 -6
v 26 18 -6
v 32 18 -6
v 34 18 -6
v -32 18 -8
v -26 18 -8
v 26 18 -8
v 32 18 -8
v -26 20 24
v -23 20 24
v 23 20 24
v 26 20 24
v -26 20 23
v 26 20 23
v -23 20 7
v -22 20 7
v 22 20 7
v 23 20 7
v -26 20 6
v -24 20 6
v 24 20 6
v 26 20 6
v -34 20 -2
v -32 20 -2
v -26 20 -2
v -24 20 -2
v -22 20 -2
v 22 20 -2
v 24 20 -2
v 26 20 -2
v 32 20 -2
v 34 20 -2
v -34 20 -4
v -32 20 -4
v -26 20 -4
v -24 20 -4
v 24 20 -4
v 26 20 -4
v 32 20 -4
v 34 20 -4
v -32 20 -6
v -26 20 -6
v 26 20 -6
v 32 20 -6
v -34 22 -0
v -32 22 -0
v -26 22 -0
v -24 22 -0
v 24 22 -0
v 26 22 -0
v 32 22 -0
v 34 22 -0
v -34 22 -2
v -32 22 -2
v -26 22 -2
v -24 22 -2
v 24 22 -2
v 26 22 -2
v 32 22 -2
v 34 22 -2
v -32 22 -4
v -26 22 -4
v 26 22 -4
v 32 22 -4
v -34 24 2
v -32 24 2
v -26 24 2
v -24 24 2
v 24 24 2
v 26 24 2
v 32 24 2
v 34 24 2
v -34 24 -0
v -32 24 -0
v -26 24 -0
v -24 24 -0
v 24 24 -0
v 26 24 -0
v 32 24 -0
v 34 24 -0
v -32 24 -2
v -26 24 -2
v 26 24 -2
v 32 24 -2
v -34 26 6
v -32 26 6
v -26 26 6
v -24 26 6
v 24 26 6
v 26 26 6
v 32 26 6
v 34 26 6
v -32 26 4
v -26 26 4
v 26 26 4
v 32 26 4
v -34 26 2
v -32 26 2
v -26 26 2
v -24 26 2
v 24 26 2
v 26 26 2
v 32 26 2
v 34 26 2
v -32 26 -0
v -26 26 -0
v 26 26 -0
v 32 26 -0
v -34 28 8
v -32 28 8
v -26 28 8
v -24 28 8
v 24 28 8
v 26 28 8
v 32 28 8
v 34 28 8
v -34 28 6
v -32 28 6
v -26 28 6
v -24 28 6
v 24 28 6
v 26 28 6
v 32 28 6
v 34 28 6
v -32 28 4
v -26 28 4
v 26 28 4
v 32 28 4
v -34 30 12
v -32 30 12
v -26 30 12
v -24 30 12
v 24 30 12
v 26 30 12
v 32 30 12
v 34 30 12
v -32 30 10
v -26 30 10
v 26 30 10
v 32 30 10
v -34 30 8
v -32 30 8
v -26 30 8
v -24 30 8
v 24 30 8
v 26 30 8
v 32 30 8
v 34 30 8
v -32 30 6
v -26 30 6
v 26 30 6
v 32 30 6
v -26 32 16
v -24 32 16
v 24 32 16
v 26 32 16
v -34 32 14
v -32 32 14
v 32 32 14
v 34 32 14
v -34 32 12
v -32 32 12
v -26 32 12
v -24 32 12
v 24 32 12
v 26 32 12
v 32 32 12
v 34 32 12
v -32 32 10
v -26 32 10
v 26 32 10
v 32 32 10
v -34 34 24
v -32 34 24
v -26 34 24
v -24 34 24
v 24 34 24
v 26 34 24
v 32 34 24
v 34 34 24
v -32 34 16
v -26 34 16
v -24 34 16
v 24 34 16
v 26 34 16
v 32 34 16
v -34 34 14
v -32 34 14
v 32 34 14
v 34 34 14
v -32 34 12
v -26 34 12
v 26 34 12
v 32 34 12
v -32 36 24
v -26 36 24
v 26 36 24
v 32 36 24
v -32 36 16
v -26 36 16
v 26 36 16
v 32 36 16

# faces
f 4/4/1 2/4/1 1/4/1
f 5/4/1 2/4/1 4/4/1
f 7/4/1 4/4/1 3/4/1
f 8/4/1 4/4/1 7/4/1
f 10/4/1 7/4/1 6/4/1
f 11/4/1 7/4/1 10/4/1
f 13/4/1 10/4/1 9/4/1
f 14/4/1 10/4/1 13/4/1
f 16/4/1 13/4/1 12/4/1
f 17/4/1 13/4/1 16/4/1
f 19/4/1 16/4/1 15/4/1
f 20/4/1 16/4/1 19/4/1
f 22/4/1 19/4/1 18/4/1
f 23/4/1 19/4/1 22/4/1
f 25/4/1 22/4/1 21/4/1
f 26/4/1 22/4/1 25/4/1
f 28/4/1 25/4/1 24/4/1
f 29/4/1 25/4/1 28/4/1
f 31/4/1 28/4/1 27/4/1
f 32/4/1 28/4/1 31/4/1
f 34/4/1 31/4/1 30/4/1
f 35/4/1 31/4/1 34/4/1
f 37/4/1 34/4/1 33/4/1
f 38/4/1 34/4/1 37/4/1
f 39/4/1 34/4/1 38/4/1
f 41/4/1 37/4/1 36/4/1
f 41/4/1 38/4/1 37/4/1
f 42/4/1 38/4/1 41/4/1
f 44/4/1 41/4/1 40/4/1
f 45/4/1 41/4/1 44/4/1
f 46/4/1 41/4/1 45/4/1
f 48/4/1 44/4/1 43/4/1
f 48/4/1 45/4/1 44/4/1
f 49/4/1 45/4/1 48/4/1
f 50/4/1 48/4/1 47/4/1
f 51/4/1 48/4/1 50/4/1
f 52/4/1 50/4/1 47/4/1
f 53/4/1 50/4/1 52/4/1
f 59/3/1 55/3/1 54/3/1
f 60/3/1 55/3/1 59/3/1
f 61/3/1 55/3/1 60/3/1
f 62/4/1 57/4/1 56/4/1
f 63/4/1 57/4/1 62/4/1
f 65/3/1 59/3/1 58/3/1
f 65/3/1 60/3/1 59/3/1
f 66/3/1 60/3/1 65/3/1
f 67/3/1 60/3/1 66/3/1
f 68/4/1 62/4/1 61/4/1
f 69/4/1 62/4/1 68/4/1
f 71/3/1 65/3/1 64/3/1
f 71/3/1 66/3/1 65/3/1
f 72/3/1 66/3/1 71/3/1
f 73/3/1 66/3/1 72/3/1
f 74/4/1 68/4/1 67/4/1
f 75/4/1 68/4/1 74/4/1
f 77/3/1 71/3/1 70/3/1
f 77/3/1 72/3/1 71/3/1
f 78/3/1 72/3/1 77/3/1
f 79/3/1 72/3/1 78/3/1
f 80/4/1 74/4/1 73/4/1
f 81/4/1 74/4/1 80/4/1
f 83/3/1 77/3/1 76/3/1
f 83/3/1 78/3/1 77/3/1
f 84/3/1 78/3/1 83/3/1
f 85/3/1 78/3/1 84/3/1
f 86/4/1 80/4/1 79/4/1
f 87/4/1 80/4/1 86/4/1
f 89/3/1 83/3/1 82/3/1
f 89/3/1 84/3/1 83/3/1
f 90/3/1 84/3/1 89/3/1
f 91/3/1 84/3/1 90/3/1
f 92/4/1 86/4/1 85/4/1
f 93/4/1 86/4/1 92/4/1
f 95/3/1 89/3/1 88/3/1
f 95/3/1 90/3/1 89/3/1
f 96/3/1 90/3/1 95/3/1
f 97/3/1 90/3/1 96/3/1
f 98/4/1 92/4/1 91/4/1
f 99/4/1 92/4/1 98/4/1
f 100/3/1 95/3/1 94/3/1
f 100/3/1 96/3/1 95/3/1
f 101/3/1 96/3/1 100/3/1
f 102/4/1 98/4/1 97/4/1
f 103/4/1 98/4/1 102/4/1
f 104/3/1 100/3/1 94/3/1
f 105/3/1 100/3/1 104/3/1
f 106/4/1 102/4/1 101/4/1
f 107/4/1 102/4/1 106/4/1
f 108/3/1 104/3/1 94/3/1
f 109/3/1 104/3/1 108/3/1
f 110/4/1 106/4/1 105/4/1
f 111/4/1 106/4/1 110/4/1
f 112/3/1 108/3/1 94/3/1
f 113/3/1 108/3/1 112/3/1
f 114/4/1 110/4/1 109/4/1
f 115/4/1 110/4/1 114/4/1
f 116/3/1 112/3/1 94/3/1
f 117/3/1 112/3/1 116/3/1
f 119/4/1 114/4/1 113/4/1
f 120/4/1 114/4/1 119/4/1
f 121/3/1 116/3/1 94/3/1
f 122/3/1 116/3/1 121/3/1
f 124/4/1 119/4/1 118/4/1
f 125/4/1 119/4/1 124/4/1
f 126/3/1 121/3/1 94/3/1
f 127/3/1 121/3/1 126/3/1
f 129/4/1 123/4/1 122/4/1
f 130/4/1 123/4/1 129/4/1
f 131/3/1 126/3/1 94/3/1
f 132/3/1 126/3/1 131/3/1
f 134/4/1 129/4/1 128/4/1
f 135/4/1 129/4/1 134/4/1
f 137/4/1 133/4/1 132/4/1
f 138/4/1 133/4/1 137/4/1
f 141/4/1 137/4/1 136/4/1
f 142/4/1 137/4/1 141/4/1
f 143/4/1 140/4/1 139/4/1
f 144/4/1 140/4/1 143/4/1
f 147/3/1 146/3/1 145/3/1
f 148/3/1 146/3/1 147/3/1
f 152/4/1 150/4/1 149/4/1
f 153/4/1 150/4/1 152/4/1
f 154/4/1 150/4/1 153/4/1
f 155/4/1 152/4/1 151/4/1
f 155/4/1 153/4/1 152/4/1
f 156/4/1 153/4/1 155/4/1
f 159/4/1 158/4/1 157/4/1
f 160/4/1 158/4/1 159/4/1
f 163/4/1 162/4/1 161/4/1
f 164/4/1 162/4/1 163/4/1
f 166/4/1 163/4/1 161/4/1
f 167/4/1 163/4/1 166/4/1
f 168/4/1 166/4/1 165/4/1
f 169/4/1 166/4/1 168/4/1
f 171/4/1 168/4/1 165/4/1
f 172/4/1 168/4/1 171/4/1
f 173/4/1 171/4/1 170/4/1
f 174/4/1 171/4/1 173/4/1
f 176/4/1 173/4/1 170/4/1
f 177/4/1 173/4/1 176/4/1
f 178/4/1 176/4/1 175/4/1
f 179/4/1 176/4/1 178/4/1
f 181/4/1 178/4/1 175/4/1
f 182/4/1 178/4/1 181/4/1
f 183/4/1 181/4/1 180/4/1
f 184/4/1 181/4/1 183/4/1
f 186/4/1 183/4/1 180/4/1
f 187/4/1 183/4/1 186/4/1
f 189/4/1 186/4/1 185/4/1
f 190/4/1 186/4/1 189/4/1
f 191/4/1 186/4/1 190/4/1
f 193/4/1 189/4/1 188/4/1
f 193/4/1 190/4/1 189/4/1
f 194/4/1 190/4/1 193/4/1
f 195/4/1 190/4/1 194/4/1
f 197/4/1 193/4/1 192/4/1
f 197/4/1 194/4/1 193/4/1
f 198/4/1 194/4/1 197/4/1
f 199/4/1 194/4/1 198/4/1
f 201/4/1 197/4/1 196/4/1
f 201/4/1 198/4/1 197/4/1
f 202/4/1 198/4/1 201/4/1
f 203/4/1 198/4/1 202/4/1
f 205/4/1 201/4/1 200/4/1
f 205/4/1 202/4/1 201/4/1
f 206/4/1 202/4/1 205/4/1
f 207/4/1 202/4/1 206/4/1
f 208/4/1 205/4/1 204/4/1
f 208/4/1 206/4/1 205/4/1
f 209/4/1 206/4/1 208/4/1
f 210/4/1 208/4/1 204/4/1
f 211/4/1 208/4/1 210/4/1
f 217/3/1 215/3/1 214/3/1
f 218/4/1 216/4/1 215/4/1
f 218/3/1 215/3/1 217/3/1
f 220/3/1 213/3/1 212/3/1
f 221/3/1 213/3/1 220/3/1
f 222/3/1 213/3/1 221/3/1
f 225/4/1 218/4/1 217/4/1
f 226/4/1 216/4/1 218/4/1
f 226/4/1 218/4/1 225/4/1
f 227/3/1 224/3/1 223/3/1
f 228/4/1 225/4/1 224/4/1
f 228/3/1 224/3/1 227/3/1
f 230/3/1 220/3/1 219/3/1
f 230/3/1 221/3/1 220/3/1
f 231/3/1 221/3/1 230/3/1
f 232/3/1 221/3/1 231/3/1
f 235/4/1 228/4/1 227/4/1
f 236/4/1 225/4/1 228/4/1
f 236/4/1 228/4/1 235/4/1
f 237/3/1 234/3/1 233/3/1
f 238/4/1 235/4/1 234/4/1
f 238/3/1 234/3/1 237/3/1
f 240/3/1 230/3/1 229/3/1
f 240/3/1 231/3/1 230/3/1
f 241/3/1 231/3/1 240/3/1
f 242/3/1 231/3/1 241/3/1
f 245/4/1 238/4/1 237/4/1
f 246/4/1 235/4/1 238/4/1
f 246/4/1 238/4/1 245/4/1
f 247/3/1 244/3/1 243/3/1
f 248/4/1 245/4/1 244/4/1
f 248/3/1 244/3/1 247/3/1
f 250/3/1 240/3/1 239/3/1
f 250/3/1 241/3/1 240/3/1
f 251/3/1 241/3/1 250/3/1
f 252/3/1 241/3/1 251/3/1
f 255/4/1 248/4/1 247/4/1
f 256/4/1 245/4/1 248/4/1
f 256/4/1 248/4/1 255/4/1
f 257/3/1 254/3/1 253/3/1
f 258/4/1 255/4/1 254/4/1
f 258/3/1 254/3/1 257/3/1
f 260/3/1 250/3/1 249/3/1
f 260/3/1 251/3/1 250/3/1
f 261/3/1 251/3/1 260/3/1
f 262/3/1 251/3/1 261/3/1
f 264/4/1 258/4/1 257/4/1
f 265/4/1 255/4/1 258/4/1
f 265/4/1 258/4/1 264/4/1
f 267/3/1 260/3/1 259/3/1
f 267/3/1 261/3/1 260/3/1
f 268/3/1 261/3/1 267/3/1
f 269/3/1 261/3/1 268/3/1
f 272/4/1 264/4/1 263/4/1
f 273/4/1 264/4/1 272/4/1
f 274/3/1 271/3/1 270/3/1
f 275/4/1 272/4/1 271/4/1
f 275/3/1 271/3/1 274/3/1
f 276/3/1 267/3/1 266/3/1
f 276/3/1 268/3/1 267/3/1
f 277/3/1 268/3/1 276/3/1
f 280/4/1 275/4/1 274/4/1
f 281/4/1 272/4/1 275/4/1
f 281/4/1 275/4/1 280/4/1
f 282/3/1 279/3/1 278/3/1
f 283/4/1 280/4/1 279/4/1
f 283/3/1 279/3/1 282/3/1
f 285/4/1 283/4/1 282/4/1
f 286/4/1 280/4/1 283/4/1
f 286/4/1 283/4/1 285/4/1
f 288/4/1 285/4/1 284/4/1
f 289/4/1 285/4/1 288/4/1
f 294/4/1 288/4/1 287/4/1
f 295/4/1 288/4/1 294/4/1
f 296/4/1 292/4/1 291/4/1
f 297/4/1 292/4/1 296/4/1
f 299/4/1 294/4/1 293/4/1
f 300/4/1 294/4/1 299/4/1
f 301/4/1 296/4/1 291/4/1
f 302/4/1 296/4/1 301/4/1
f 304/4/1 299/4/1 298/4/1
f 305/4/1 299/4/1 304/4/1
f 306/4/1 301/4/1 291/4/1
f 307/4/1 301/4/1 306/4/1
f 310/4/1 304/4/1 303/4/1
f 311/4/1 304/4/1 310/4/1
f 312/4/1 306/4/1 291/4/1
f 313/4/1 306/4/1 312/4/1
f 315/4/1 309/4/1 308/4/1
f 316/4/1 309/4/1 315/4/1
f 317/3/1 291/3/1 290/3/1
f 318/4/1 312/4/1 291/4/1
f 318/3/1 291/3/1 317/3/1
f 319/4/1 312/4/1 318/4/1
f 322/4/1 315/4/1 314/4/1
f 323/4/1 315/4/1 322/4/1
f 325/4/1 321/4/1 320/4/1
f 326/4/1 321/4/1 325/4/1
f 328/4/1 325/4/1 324/4/1
f 329/4/1 325/4/1 328/4/1
f 330/4/1 328/4/1 327/4/1
f 331/4/1 328/4/1 330/4/1
f 334/3/2 335/3/2 337/3/2
f 335/4/2 336/4/2 338/4/2
f 337/3/2 335/3/2 338/3/2
f 332/3/2 333/3/2 340/3/2
f 340/3/2 333/3/2 341/3/2
f 341/3/2 333/3/2 342/3/2
f 337/4/2 338/4/2 345/4/2
f 338/4/2 336/4/2 346/4/2
f 345/4/2 338/4/2 346/4/2
f 343/3/2 344/3/2 347/3/2
f 344/4/2 345/4/2 348/4/2
f 347/3/2 344/3/2 348/3/2
f 339/3/2 340/3/2 350/3/2
f 340/3/2 341/3/2 350/3/2
f 350/3/2 341/3/2 351/3/2
f 351/3/2 341/3/2 352/3/2
f 347/4/2 348/4/2 355/4/2
f 348/4/2 345/4/2 356/4/2
f 355/4/2 348/4/2 356/4/2
f 353/3/2 354/3/2 357/3/2
f 354/4/2 355/4/2 358/4/2
f 357/3/2 354/3/2 358/3/2
f 349/3/2 350/3/2 360/3/2
f 350/3/2 351/3/2 360/3/2
f 360/3/2 351/3/2 361/3/2
f 361/3/2 351/3/2 362/3/2
f 357/4/2 358/4/2 365/4/2
f 358/4/2 355/4/2 366/4/2
f 365/4/2 358/4/2 366/4/2
f 363/3/2 364/3/2 367/3/2
f 364/4/2 365/4/2 368/4/2
f 367/3/2 364/3/2 368/3/2
f 359/3/2 360/3/2 370/3/2
f 360/3/2 361/3/2 370/3/2
f 370/3/2 361/3/2 371/3/2
f 371/3/2 361/3/2 372/3/2
f 367/4/2 368/4/2 375/4/2
f 368/4/2 365/4/2 376/4/2
f 375/4/2 368/4/2 376/4/2
f 373/3/2 374/3/2 377/3/2
f 374/4/2 375/4/2 378/4/2
f 377/3/2 374/3/2 378/3/2
f 369/3/2 370/3/2 380/3/2
f 370/3/2 371/3/2 380/3/2
f 380/3/2 371/3/2 381/3/2
f 381/3/2 371/3/2 382/3/2
f 377/4/2 378/4/2 384/4/2
f 378/4/2 375/4/2 385/4/2
f 384/4/2 378/4/2 385/4/2
f 379/3/2 380/3/2 387/3/2
f 380/3/2 381/3/2 387/3/2
f 387/3/2 381/3/2 388/3/2
f 388/3/2 381/3/2 389/3/2
f 383/4/2 384/4/2 392/4/2
f 392/4/2 384/4/2 393/4/2
f 390/3/2 391/3/2 394/3/2
f 391/4/2 392/4/2 395/4/2
f 394/3/2 391/3/2 395/3/2
f 386/3/2 387/3/2 396/3/2
f 387/3/2 388/3/2 396/3/2
f 396/3/2 388/3/2 397/3/2
f 394/4/2 395/4/2 400/4/2
f 395/4/2 392/4/2 401/4/2
f 400/4/2 395/4/2 401/4/2
f 398/3/2 399/3/2 402/3/2
f 399/4/2 400/4/2 403/4/2
f 402/3/2 399/3/2 403/3/2
f 402/4/2 403/4/2 405/4/2
f 403/4/2 400/4/2 406/4/2
f 405/4/2 403/4/2 406/4/2
f 404/4/2 405/4/2 408/4/2
f 408/4/2 405/4/2 409/4/2
f 407/4/2 408/4/2 414/4/2
f 414/4/2 408/4/2 415/4/2
f 411/4/2 412/4/2 416/4/2
f 416/4/2 412/4/2 417/4/2
f 413/4/2 414/4/2 419/4/2
f 419/4/2 414/4/2 420/4/2
f 411/4/2 416/4/2 421/4/2
f 421/4/2 416/4/2 422/4/2
f 418/4/2 419/4/2 424/4/2
f 424/4/2 419/4/2 425/4/2
f 411/4/2 421/4/2 426/4/2
f 426/4/2 421/4/2 427/4/2
f 423/4/2 424/4/2 430/4/2
f 430/4/2 424/4/2 431/4/2
f 411/4/2 426/4/2 432/4/2
f 432/4/2 426/4/2 433/4/2
f 428/4/2 429/4/2 435/4/2
f 435/4/2 429/4/2 436/4/2
f 410/3/2 411/3/2 437/3/2
f 411/4/2 432/4/2 438/4/2
f 437/3/2 411/3/2 438/3/2
f 438/4/2 432/4/2 439/4/2
f 434/4/2 435/4/2 442/4/2
f 442/4/2 435/4/2 443/4/2
f 440/4/2 441/4/2 445/4/2
f 445/4/2 441/4/2 446/4/2
f 444/4/2 445/4/2 448/4/2
f 448/4/2 445/4/2 449/4/2
f 447/4/2 448/4/2 450/4/2
f 450/4/2 448/4/2 451/4/2
f 452/4/2 453/4/2 454/4/2
f 454/4/2 453/4/2 455/4/2
f 452/4/2 454/4/2 457/4/2
f 457/4/2 454/4/2 458/4/2
f 456/4/2 457/4/2 459/4/2
f 459/4/2 457/4/2 460/4/2
f 456/4/2 459/4/2 462/4/2
f 462/4/2 459/4/2 463/4/2
f 461/4/2 462/4/2 464/4/2
f 464/4/2 462/4/2 465/4/2
f 461/4/2 464/4/2 467/4/2
f 467/4/2 464/4/2 468/4/2
f 466/4/2 467/4/2 469/4/2
f 469/4/2 467/4/2 470/4/2
f 466/4/2 469/4/2 472/4/2
f 472/4/2 469/4/2 473/4/2
f 471/4/2 472/4/2 474/4/2
f 474/4/2 472/4/2 475/4/2
f 471/4/2 474/4/2 477/4/2
f 477/4/2 474/4/2 478/4/2
f 476/4/2 477/4/2 480/4/2
f 480/4/2 477/4/2 481/4/2
f 481/4/2 477/4/2 482/4/2
f 479/4/2 480/4/2 484/4/2
f 480/4/2 481/4/2 484/4/2
f 484/4/2 481/4/2 485/4/2
f 485/4/2 481/4/2 486/4/2
f 483/4/2 484/4/2 488/4/2
f 484/4/2 485/4/2 488/4/2
f 488/4/2 485/4/2 489/4/2
f 489/4/2 485/4/2 490/4/2
f 487/4/2 488/4/2 492/4/2
f 488/4/2 489/4/2 492/4/2
f 492/4/2 489/4/2 493/4/2
f 493/4/2 489/4/2 494/4/2
f 491/4/2 492/4/2 496/4/2
f 492/4/2 493/4/2 496/4/2
f 496/4/2 493/4/2 497/4/2
f 497/4/2 493/4/2 498/4/2
f 495/4/2 496/4/2 499/4/2
f 496/4/2 497/4/2 499/4/2
f 499/4/2 497/4/2 500/4/2
f 495/4/2 499/4/2 501/4/2
f 501/4/2 499/4/2 502/4/2
f 503/4/2 504/4/2 505/4/2
f 505/4/2 504/4/2 506/4/2
f 507/4/2 508/4/2 510/4/2
f 510/4/2 508/4/2 511/4/2
f 511/4/2 508/4/2 512/4/2
f 509/4/2 510/4/2 513/4/2
f 510/4/2 511/4/2 513/4/2
f 513/4/2 511/4/2 514/4/2
f 515/3/2 516/3/2 517/3/2
f 517/3/2 516/3/2 518/3/2
f 519/3/2 520/3/2 524/3/2
f 524/3/2 520/3/2 525/3/2
f 525/3/2 520/3/2 526/3/2
f 521/4/2 522/4/2 527/4/2
f 527/4/2 522/4/2 528/4/2
f 523/3/2 524/3/2 530/3/2
f 524/3/2 525/3/2 530/3/2
f 530/3/2 525/3/2 531/3/2
f 531/3/2 525/3/2 532/3/2
f 526/4/2 527/4/2 533/4/2
f 533/4/2 527/4/2 534/4/2
f 529/3/2 530/3/2 536/3/2
f 530/3/2 531/3/2 536/3/2
f 536/3/2 531/3/2 537/3/2
f 537/3/2 531/3/2 538/3/2
f 532/4/2 533/4/2 539/4/2
f 539/4/2 533/4/2 540/4/2
f 535/3/2 536/3/2 542/3/2
f 536/3/2 537/3/2 542/3/2
f 542/3/2 537/3/2 543/3/2
f 543/3/2 537/3/2 544/3/2
f 538/4/2 539/4/2 545/4/2
f 545/4/2 539/4/2 546/4/2
f 541/3/2 542/3/2 548/3/2
f 542/3/2 543/3/2 548/3/2
f 548/3/2 543/3/2 549/3/2
f 549/3/2 543/3/2 550/3/2
f 544/4/2 545/4/2 551/4/2
f 551/4/2 545/4/2 552/4/2
f 547/3/2 548/3/2 554/3/2
f 548/3/2 549/3/2 554/3/2
f 554/3/2 549/3/2 555/3/2
f 555/3/2 549/3/2 556/3/2
f 550/4/2 551/4/2 557/4/2
f 557/4/2 551/4/2 558/4/2
f 553/3/2 554/3/2 560/3/2
f 554/3/2 555/3/2 560/3/2
f 560/3/2 555/3/2 561/3/2
f 561/3/2 555/3/2 562/3/2
f 556/4/2 557/4/2 563/4/2
f 563/4/2 557/4/2 564/4/2
f 559/3/2 560/3/2 565/3/2
f 560/3/2 561/3/2 565/3/2
f 565/3/2 561/3/2 566/3/2
f 562/4/2 563/4/2 567/4/2
f 567/4/2 563/4/2 568/4/2
f 559/3/2 565/3/2 569/3/2
f 569/3/2 565/3/2 570/3/2
f 566/4/2 567/4/2 571/4/2
f 571/4/2 567/4/2 572/4/2
f 559/3/2 569/3/2 573/3/2
f 573/3/2 569/3/2 574/3/2
f 570/4/2 571/4/2 575/4/2
f 575/4/2 571/4/2 576/4/2
f 559/3/2 573/3/2 577/3/2
f 577/3/2 573/3/2 578/3/2
f 574/4/2 575/4/2 579/4/2
f 579/4/2 575/4/2 580/4/2
f 559/3/2 577/3/2 581/3/2
f 581/3/2 577/3/2 582/3/2
f 578/4/2 579/4/2 584/4/2
f 584/4/2 579/4/2 585/4/2
f 559/3/2 581/3/2 586/3/2
f 586/3/2 581/3/2 587/3/2
f 583/4/2 584/4/2 589/4/2
f 589/4/2 584/4/2 590/4/2
f 559/3/2 586/3/2 591/3/2
f 591/3/2 586/3/2 592/3/2
f 587/4/2 588/4/2 594/4/2
f 594/4/2 588/4/2 595/4/2
f 559/3/2 591/3/2 596/3/2
f 596/3/2 591/3/2 597/3/2
f 593/4/2 594/4/2 599/4/2
f 599/4/2 594/4/2 600/4/2
f 597/4/2 598/4/2 602/4/2
f 602/4/2 598/4/2 603/4/2
f 601/4/2 602/4/2 606/4/2
f 606/4/2 602/4/2 607/4/2
f 604/4/2 605/4/2 608/4/2
f 608/4/2 605/4/2 609/4/2
f 610/4/2 611/4/2 613/4/2
f 613/4/2 611/4/2 614/4/2
f 612/4/2 613/4/2 616/4/2
f 616/4/2 613/4/2 617/4/2
f 615/4/2 616/4/2 619/4/2
f 619/4/2 616/4/2 620/4/2
f 618/4/2 619/4/2 622/4/2
f 622/4/2 619/4/2 623/4/2
f 621/4/2 622/4/2 625/4/2
f 625/4/2 622/4/2 626/4/2
f 624/4/2 625/4/2 628/4/2
f 628/4/2 625/4/2 629/4/2
f 627/4/2 628/4/2 631/4/2
f 631/4/2 628/4/2 632/4/2
f 630/4/2 631/4/2 634/4/2
f 634/4/2 631/4/2 635/4/2
f 633/4/2 634/4/2 637/4/2
f 637/4/2 634/4/2 638/4/2
f 636/4/2 637/4/2 640/4/2
f 640/4/2 637/4/2 641/4/2
f 639/4/2 640/4/2 643/4/2
f 643/4/2 640/4/2 644/4/2
f 642/4/2 643/4/2 646/4/2
f 646/4/2 643/4/2 647/4/2
f 647/4/2 643/4/2 648/4/2
f 645/4/2 646/4/2 650/4/2
f 646/4/2 647/4/2 650/4/2
f 650/4/2 647/4/2 651/4/2
f 649/4/2 650/4/2 653/4/2
f 653/4/2 650/4/2 654/4/2
f 654/4/2 650/4/2 655/4/2
f 652/4/2 653/4/2 657/4/2
f 653/4/2 654/4/2 657/4/2
f 657/4/2 654/4/2 658/4/2
f 656/4/2 657/4/2 659/4/2
f 659/4/2 657/4/2 660/4/2
f 656/4/2 659/4/2 661/4/2
f 661/4/2 659/4/2 662/4/2
f 666/4/3 664/4/3 663/4/3
f 667/4/3 664/4/3 666/4/3
f 670/3/3 666/3/3 665/3/3
f 671/3/3 670/3/3 669/3/3
f 672/3/3 666/3/3 670/3/3
f 672/3/3 670/3/3 671/3/3
f 673/3/3 666/3/3 672/3/3
f 674/4/3 668/4/3 667/4/3
f 674/3/3 666/3/3 673/3/3
f 674/4/3 667/4/3 666/4/3
f 675/4/3 668/4/3 674/4/3
f 676/4/3 668/4/3 675/4/3
f 677/4/3 675/4/3 674/4/3
f 678/4/3 675/4/3 677/4/3
f 679/4/3 673/4/3 672/4/3
f 680/4/3 673/4/3 679/4/3
f 682/4/3 679/4/3 672/4/3
f 684/4/3 682/4/3 681/4/3
f 685/4/3 684/4/3 683/4/3
f 686/4/3 682/4/3 684/4/3
f 686/4/3 684/4/3 685/4/3
f 687/4/3 682/4/3 686/4/3
f 688/4/3 679/4/3 682/4/3
f 688/4/3 682/4/3 687/4/3
f 689/2/3 680/2/3 679/2/3
f 689/4/3 679/4/3 688/4/3
f 690/2/3 680/2/3 689/2/3
f 694/4/3 690/4/3 689/4/3
f 694/4/3 689/4/3 688/4/3
f 695/4/3 690/4/3 694/4/3
f 696/4/3 692/4/3 691/4/3
f 697/4/3 692/4/3 696/4/3
f 699/3/3 695/3/3 694/3/3
f 699/3/3 694/3/3 693/3/3
f 699/3/3 696/3/3 695/3/3
f 700/3/3 696/3/3 699/3/3
f 701/3/3 696/3/3 700/3/3
f 702/4/3 697/4/3 696/4/3
f 702/3/3 696/3/3 701/3/3
f 702/4/3 698/4/3 697/4/3
f 703/4/3 698/4/3 702/4/3
f 704/4/3 698/4/3 703/4/3
f 705/4/3 703/4/3 702/4/3
f 706/4/3 703/4/3 705/4/3
f 709/4/3 708/4/3 707/4/3
f 710/4/3 708/4/3 709/4/3
f 713/4/3 712/4/3 711/4/3
f 714/4/3 712/4/3 713/4/3
f 717/3/3 716/3/3 715/3/3
f 718/3/3 716/3/3 717/3/3
f 721/4/3 720/4/3 719/4/3
f 722/4/3 720/4/3 721/4/3
f 725/4/3 724/4/3 723/4/3
f 726/4/3 724/4/3 725/4/3
f 729/3/3 728/3/3 727/3/3
f 730/3/3 728/3/3 729/3/3
f 735/4/3 732/4/3 731/4/3
f 736/4/3 732/4/3 735/4/3
f 737/3/3 734/3/3 733/3/3
f 738/3/3 734/3/3 737/3/3
f 741/4/3 740/4/3 739/4/3
f 742/4/3 740/4/3 741/4/3
f 747/4/3 744/4/3 743/4/3
f 748/4/3 744/4/3 747/4/3
f 749/3/3 746/3/3 745/3/3
f 750/3/3 746/3/3 749/3/3
f 753/4/3 752/4/3 751/4/3
f 754/4/3 752/4/3 753/4/3
f 759/4/3 756/4/3 755/4/3
f 760/4/3 756/4/3 759/4/3
f 761/3/3 758/3/3 757/3/3
f 762/3/3 758/3/3 761/3/3
f 765/4/3 764/4/3 763/4/3
f 766/4/3 764/4/3 765/4/3
f 771/4/3 768/4/3 767/4/3
f 772/4/3 768/4/3 771/4/3
f 773/3/3 770/3/3 769/3/3
f 774/3/3 770/3/3 773/3/3
f 777/4/3 776/4/3 775/4/3
f 778/4/3 776/4/3 777/4/3
f 781/3/3 780/3/3 779/3/3
f 782/3/3 780/3/3 781/3/3
f 787/4/3 786/4/3 785/4/3
f 788/4/3 786/4/3 787/4/3
f 789/4/3 784/4/3 783/4/3
f 790/4/3 784/4/3 789/4/3
f 797/4/3 792/4/3 791/4/3
f 798/4/3 792/4/3 797/4/3
f 799/4/3 794/4/3 793/4/3
f 800/4/3 794/4/3 799/4/3
f 801/3/3 796/3/3 795/3/3
f 802/3/3 796/3/3 801/3/3
f 807/4/3 804/4/3 803/4/3
f 808/4/3 804/4/3 807/4/3
f 809/3/3 806/3/3 805/3/3
f 810/3/3 806/3/3 809/3/3
f 813/4/3 812/4/3 811/4/3
f 814/4/3 812/4/3 813/4/3
f 819/4/3 816/4/3 815/4/3
f 820/4/3 816/4/3 819/4/3
f 821/3/3 818/3/3 817/3/3
f 822/3/3 818/3/3 821/3/3
f 825/4/3 824/4/3 823/4/3
f 826/4/3 824/4/3 825/4/3
f 831/4/3 828/4/3 827/4/3
f 832/4/3 828/4/3 831/4/3
f 833/3/3 830/3/3 829/3/3
f 834/3/3 830/3/3 833/3/3
f 837/3/3 836/3/3 835/3/3
f 838/3/3 836/3/3 837/3/3
f 841/4/3 840/4/3 839/4/3
f 842/4/3 840/4/3 841/4/3
f 845/3/3 844/3/3 843/3/3
f 846/3/3 844/3/3 845/3/3
f 849/4/3 848/4/3 847/4/3
f 850/4/3 848/4/3 849/4/3
f 855/4/3 852/4/3 851/4/3
f 856/4/3 852/4/3 855/4/3
f 857/3/3 854/3/3 853/3/3
f 858/3/3 854/3/3 857/3/3
f 861/4/3 860/4/3 859/4/3
f 862/4/3 860/4/3 861/4/3
f 865/4/3 864/4/3 863/4/3
f 866/4/3 864/4/3 865/4/3
f 869/4/3 868/4/3 867/4/3
f 870/4/3 868/4/3 869/4/3
f 873/4/3 872/4/3 871/4/3
f 874/4/3 872/4/3 873/4/3
f 877/4/3 876/4/3 875/4/3
f 878/4/3 876/4/3 877/4/3
f 881/4/3 880/4/3 879/4/3
f 882/4/3 880/4/3 881/4/3
f 885/4/3 884/4/3 883/4/3
f 886/4/3 884/4/3 885/4/3
f 889/4/3 888/4/3 887/4/3
f 890/4/3 888/4/3 889/4/3
f 893/4/3 892/4/3 891/4/3
f 894/4/3 892/4/3 893/4/3
f 895/2/3 894/2/3 893/2/3
f 896/2/3 894/2/3 895/2/3
f 897/4/3 896/4/3 895/4/3
f 898/4/3 896/4/3 897/4/3
f 901/4/3 900/4/3 899/4/3
f 902/4/3 900/4/3 901/4/3
f 905/4/3 904/4/3 903/4/3
f 906/4/3 904/4/3 905/4/3
f 909/4/3 908/4/3 907/4/3
f 910/4/3 908/4/3 909/4/3
f 911/2/3 910/2/3 909/2/3
f 912/2/3 910/2/3 911/2/3
f 913/4/3 912/4/3 911/4/3
f 914/4/3 912/4/3 913/4/3
f 917/4/3 916/4/3 915/4/3
f 918/4/3 916/4/3 917/4/3
f 921/4/3 920/4/3 919/4/3
f 922/4/3 920/4/3 921/4/3
f 925/4/3 924/4/3 923/4/3
f 926/4/3 924/4/3 925/4/3
f 927/2/3 926/2/3 925/2/3
f 928/2/3 926/2/3 927/2/3
f 929/4/3 928/4/3 927/4/3
f 930/4/3 928/4/3 929/4/3
f 933/4/3 932/4/3 931/4/3
f 934/4/3 932/4/3 933/4/3
f 937/4/3 936/4/3 935/4/3
f 938/4/3 936/4/3 937/4/3
f 941/4/3 940/4/3 939/4/3
f 942/4/3 940/4/3 941/4/3
f 943/2/3 942/2/3 941/2/3
f 944/2/3 942/2/3 943/2/3
f 945/4/3 944/4/3 943/4/3
f 946/4/3 944/4/3 945/4/3
f 949/4/3 948/4/3 947/4/3
f 950/4/3 948/4/3 949/4/3
f 953/4/3 952/4/3 951/4/3
f 954/4/3 952/4/3 953/4/3
f 957/4/3 956/4/3 955/4/3
f 958/4/3 956/4/3 957/4/3
f 961/4/3 960/4/3 959/4/3
f 962/4/3 960/4/3 961/4/3
f 965/4/3 964/4/3 963/4/3
f 966/4/3 964/4/3 965/4/3
f 969/4/3 968/4/3 967/4/3
f 970/4/3 968/4/3 969/4/3
f 973/4/3 972/4/3 971/4/3
f 974/4/3 972/4/3 973/4/3
f 977/4/3 976/4/3 975/4/3
f 978/4/3 976/4/3 977/4/3
f 981/4/3 980/4/3 979/4/3
f 982/4/3 980/4/3 981/4/3
f 983/4/4 984/4/4 986/4/4
f 986/4/4 984/4/4 987/4/4
f 985/4/4 986/4/4 988/4/4
f 988/4/4 986/4/4 989/4/4
f 990/4/4 991/4/4 992/4/4
f 992/4/4 991/4/4 993/4/4
f 993/4/4 994/4/4 995/4/4
f 995/4/4 994/4/4 996/4/4
f 997/4/4 998/4/4 999/4/4
f 999/4/4 998/4/4 1000/4/4
f 1001/4/4 1002/4/4 1003/4/4
f 1003/4/4 1002/4/4 1004/4/4
f 1005/4/4 1006/4/4 1007/4/4
f 1007/4/4 1006/4/4 1008/4/4
f 1008/4/4 1009/4/4 1011/4/4
f 1011/4/4 1009/4/4 1012/4/4
f 1010/4/4 1011/4/4 1013/4/4
f 1013/4/4 1011/4/4 1014/4/4
f 1015/4/4 1016/4/4 1017/4/4
f 1017/4/4 1016/4/4 1018/4/4
f 1018/4/4 1019/4/4 1021/4/4
f 1021/4/4 1019/4/4 1022/4/4
f 1020/4/4 1021/4/4 1023/4/4
f 1023/4/4 1021/4/4 1024/4/4
f 1025/4/4 1026/4/4 1027/4/4
f 1027/4/4 1026/4/4 1028/4/4
f 1029/4/4 1030/4/4 1031/4/4
f 1031/4/4 1030/4/4 1032/4/4
f 1033/4/4 1034/4/4 1035/4/4
f 1035/4/4 1034/4/4 1036/4/4
f 1037/4/4 1038/4/4 1039/4/4
f 1039/4/4 1038/4/4 1040/4/4
f 1041/4/4 1042/4/4 1043/4/4
f 1043/4/4 1042/4/4 1044/4/4
f 1045/4/4 1046/4/4 1047/4/4
f 1047/4/4 1046/4/4 1048/4/4
f 1049/4/4 1050/4/4 1051/4/4
f 1051/4/4 1050/4/4 1052/4/4
f 1052/4/4 1053/4/4 1055/4/4
f 1055/4/4 1053/4/4 1056/4/4
f 1054/4/4 1055/4/4 1057/4/4
f 1057/4/4 1055/4/4 1058/4/4
f 1059/4/4 1060/4/4 1061/4/4
f 1061/4/4 1060/4/4 1062/4/4
f 1062/4/4 1063/4/4 1065/4/4
f 1065/4/4 1063/4/4 1066/4/4
f 1064/4/4 1065/4/4 1067/4/4
f 1067/4/4 1065/4/4 1068/4/4
f 1069/4/4 1070/4/4 1071/4/4
f 1071/4/4 1070/4/4 1072/4/4
f 1073/4/4 1074/4/4 1075/4/4
f 1075/4/4 1074/4/4 1076/4/4
f 1077/4/4 1078/4/4 1079/4/4
f 1079/4/4 1078/4/4 1080/4/4
f 1081/4/4 1082/4/4 1083/4/4
f 1083/4/4 1082/4/4 1084/4/4
f 1085/4/4 1086/4/4 1087/4/4
f 1087/4/4 1086/4/4 1088/4/4
f 1089/4/4 1090/4/4 1091/4/4
f 1091/4/4 1090/4/4 1092/4/4
f 1093/4/4 1094/4/4 1095/4/4
f 1095/4/4 1094/4/4 1096/4/4
f 1096/4/4 1097/4/4 1099/4/4
f 1099/4/4 1097/4/4 1100/4/4
f 1098/4/4 1099/4/4 1101/4/4
f 1101/4/4 1099/4/4 1102/4/4
f 1103/4/4 1104/4/4 1105/4/4
f 1105/4/4 1104/4/4 1106/4/4
f 1106/4/4 1107/4/4 1109/4/4
f 1109/4/4 1107/4/4 1110/4/4
f 1108/4/4 1109/4/4 1111/4/4
f 1111/4/4 1109/4/4 1112/4/4
f 1113/4/4 1114/4/4 1115/4/4
f 1115/4/4 1114/4/4 1116/4/4
f 1116/4/4 1117/4/4 1119/4/4
f 1119/4/4 1117/4/4 1120/4/4
f 1118/4/4 1119/4/4 1122/4/4
f 1122/4/4 1119/4/4 1123/4/4
f 1121/4/4 1122/4/4 1124/4/4
f 1124/4/4 1122/4/4 1125/4/4
f 1124/2/4 1125/2/4 1126/2/4
f 1126/2/4 1125/2/4 1127/2/4
f 1126/4/4 1127/4/4 1128/4/4
f 1128/4/4 1127/4/4 1129/4/4
f 1129/4/4 1130/4/4 1131/4/4
f 1131/4/4 1130/4/4 1132/4/4
f 1132/4/4 1133/4/4 1135/4/4
f 1135/4/4 1133/4/4 1136/4/4
f 1134/4/4 1135/4/4 1137/4/4
f 1137/4/4 1135/4/4 1138/4/4
f 1139/4/4 1140/4/4 1141/4/4
f 1141/4/4 1140/4/4 1142/4/4
f 1142/4/4 1143/4/4 1145/4/4
f 1145/4/4 1143/4/4 1146/4/4
f 1144/4/4 1145/4/4 1147/4/4
f 1147/4/4 1145/4/4 1148/4/4
f 1149/4/4 1150/4/4 1151/4/4
f 1151/4/4 1150/4/4 1152/4/4
f 1152/4/4 1153/4/4 1155/4/4
f 1155/4/4 1153/4/4 1156/4/4
f 1154/4/4 1155/4/4 1157/4/4
f 1157/4/4 1155/4/4 1158/4/4
f 1159/4/4 1160/4/4 1161/4/4
f 1161/4/4 1160/4/4 1162/4/4
f 1162/4/4 1163/4/4 1165/4/4
f 1165/4/4 1163/4/4 1166/4/4
f 1164/4/4 1165/4/4 1168/4/4
f 1168/4/4 1165/4/4 1169/4/4
f 1167/4/4 1168/4/4 1170/4/4
f 1170/4/4 1168/4/4 1171/4/4
f 1170/2/4 1171/2/4 1172/2/4
f 1172/2/4 1171/2/4 1173/2/4
f 1172/4/4 1173/4/4 1174/4/4
f 1174/4/4 1173/4/4 1175/4/4
f 1175/4/4 1176/4/4 1177/4/4
f 1177/4/4 1176/4/4 1178/4/4
f 1178/4/4 1179/4/4 1181/4/4
f 1181/4/4 1179/4/4 1182/4/4
f 1180/4/4 1181/4/4 1183/4/4
f 1183/4/4 1181/4/4 1184/4/4
f 1185/4/4 1186/4/4 1187/4/4
f 1187/4/4 1186/4/4 1188/4/4
f 1188/4/4 1189/4/4 1192/4/4
f 1192/4/4 1189/4/4 1193/4/4
f 1190/4/4 1191/4/4 1194/4/4
f 1191/4/4 1192/4/4 1194/4/4
f 1194/4/4 1192/4/4 1195/4/4
f 1196/4/4 1197/4/4 1198/4/4
f 1198/4/4 1197/4/4 1199/4/4
f 1199/4/4 1197/4/4 1200/4/4
f 1200/4/4 1201/4/4 1203/4/4
f 1203/4/4 1201/4/4 1204/4/4
f 1202/4/4 1203/4/4 1205/4/4
f 1205/4/4 1203/4/4 1206/4/4
f 1207/4/4 1208/4/4 1209/4/4
f 1209/4/4 1208/4/4 1210/4/4
f 1210/4/4 1211/4/4 1214/4/4
f 1214/4/4 1211/4/4 1215/4/4
f 1212/4/4 1213/4/4 1217/4/4
f 1213/4/4 1214/4/4 1217/4/4
f 1217/4/4 1214/4/4 1218/4/4
f 1216/4/4 1217/4/4 1219/4/4
f 1219/4/4 1217/4/4 1220/4/4
f 1219/2/4 1220/2/4 1221/2/4
f 1221/2/4 1220/2/4 1222/2/4
f 1221/4/4 1222/4/4 1223/4/4
f 1223/4/4 1222/4/4 1224/4/4
f 1224/4/4 1225/4/4 1226/4/4
f 1226/4/4 1225/4/4 1227/4/4
f 1227/4/4 1225/4/4 1228/4/4
f 1228/4/4 1229/4/4 1231/4/4
f 1231/4/4 1229/4/4 1232/4/4
f 1230/4/4 1231/4/4 1233/4/4
f 1233/4/4 1231/4/4 1234/4/4
f 1235/4/4 1236/4/4 1237/4/4
f 1237/4/4 1236/4/4 1238/4/4
f 1238/4/4 1239/4/4 1241/4/4
f 1241/4/4 1239/4/4 1242/4/4
f 1240/4/4 1241/4/4 1243/4/4
f 1243/4/4 1241/4/4 1244/4/4
f 1245/4/4 1246/4/4 1247/4/4
f 1247/4/4 1246/4/4 1248/4/4
f 1248/4/4 1249/4/4 1251/4/4
f 1251/4/4 1249/4/4 1252/4/4
f 1250/4/4 1251/4/4 1253/4/4
f 1253/4/4 1251/4/4 1254/4/4
f 1255/4/4 1256/4/4 1257/4/4
f 1257/4/4 1256/4/4 1258/4/4
f 1258/4/4 1259/4/4 1262/4/4
f 1262/4/4 1259/4/4 1263/4/4
f 1260/4/4 1261/4/4 1265/4/4
f 1261/4/4 1262/4/4 1265/4/4
f 1265/4/4 1262/4/4 1266/4/4
f 1264/4/4 1265/4/4 1267/4/4
f 1267/4/4 1265/4/4 1268/4/4
f 1267/2/4 1268/2/4 1269/2/4
f 1269/2/4 1268/2/4 1270/2/4
f 1269/4/4 1270/4/4 1271/4/4
f 1271/4/4 1270/4/4 1272/4/4
f 1272/4/4 1273/4/4 1274/4/4
f 1274/4/4 1273/4/4 1275/4/4
f 1275/4/4 1273/4/4 1276/4/4
f 1276/4/4 1277/4/4 1279/4/4
f 1279/4/4 1277/4/4 1280/4/4
f 1278/4/4 1279/4/4 1281/4/4
f 1281/4/4 1279/4/4 1282/4/4
f 1283/4/4 1284/4/4 1285/4/4
f 1285/4/4 1284/4/4 1286/4/4
f 1286/4/4 1287/4/4 1290/4/4
f 1290/4/4 1287/4/4 1291/4/4
f 1288/4/4 1289/4/4 1292/4/4
f 1289/4/4 1290/4/4 1292/4/4
f 1292/4/4 1290/4/4 1293/4/4
f 1294/4/4 1295/4/4 1296/4/4
f 1296/4/4 1295/4/4 1297/4/4
f 1297/4/4 1295/4/4 1298/4/4
f 1298/4/4 1299/4/4 1301/4/4
f 1301/4/4 1299/4/4 1302/4/4
f 1300/4/4 1301/4/4 1303/4/4
f 1303/4/4 1301/4/4 1304/4/4
f 1305/4/4 1306/4/4 1307/4/4
f 1307/4/4 1306/4/4 1308/4/4
f 1308/4/4 1309/4/4 1312/4/4
f 1312/4/4 1309/4/4 1313/4/4
f 1310/4/4 1311/4/4 1315/4/4
f 1311/4/4 1312/4/4 1315/4/4
f 1315/4/4 1312/4/4 1316/4/4
f 1314/4/4 1315/4/4 1317/4/4
f 1317/4/4 1315/4/4 1318/4/4
f 1317/2/4 1318/2/4 1319/2/4
f 1319/2/4 1318/2/4 1320/2/4
f 1319/4/4 1320/4/4 1321/4/4
f 1321/4/4 1320/4/4 1322/4/4
f 1322/4/4 1323/4/4 1324/4/4
f 1324/4/4 1323/4/4 1325/4/4
f 1325/4/4 1323/4/4 1326/4/4
f 1326/4/4 1327/4/4 1329/4/4
f 1329/4/4 1327/4/4 1330/4/4
f 1328/4/4 1329/4/4 1331/4/4
f 1331/4/4 1329/4/4 1332/4/4
f 1333/4/4 1334/4/4 1335/4/4
f 1335/4/4 1334/4/4 1336/4/4
f 1336/4/4 1337/4/4 1340/4/4
f 1340/4/4 1337/4/4 1341/4/4
f 1338/4/4 1339/4/4 1342/4/4
f 1339/4/4 1340/4/4 1342/4/4
f 1342/4/4 1340/4/4 1343/4/4
f 1344/4/4 1345/4/4 1346/4/4
f 1346/4/4 1345/4/4 1347/4/4
f 1347/4/4 1345/4/4 1348/4/4
f 1348/4/4 1349/4/4 1351/4/4
f 1351/4/4 1349/4/4 1352/4/4
f 1350/4/4 1351/4/4 1353/4/4
f 1353/4/4 1351/4/4 1354/4/4
f 1355/4/4 1356/4/4 1357/4/4
f 1357/4/4 1356/4/4 1358/4/4
f 1358/4/4 1359/4/4 1362/4/4
f 1362/4/4 1359/4/4 1363/4/4
f 1360/4/4 1361/4/4 1364/4/4
f 1361/4/4 1362/4/4 1364/4/4
f 1364/4/4 1362/4/4 1365/4/4
f 1366/4/4 1367/4/4 1368/4/4
f 1368/4/4 1367/4/4 1369/4/4
f 1369/4/4 1367/4/4 1370/4/4
f 1370/4/4 1371/4/4 1373/4/4
f 1373/4/4 1371/4/4 1374/4/4
f 1372/4/4 1373/4/4 1375/4/4
f 1375/4/4 1373/4/4 1376/4/4
f 1377/4/4 1378/4/4 1379/4/4
f 1379/4/4 1378/4/4 1380/4/4
f 1381/4/4 1382/4/4 1383/4/4
f 1383/4/4 1382/4/4 1384/4/4
f 1389/3/5 1386/3/5 1385/3/5
f 1392/3/5 1388/3/5 1387/3/5
f 1393/4/5 1390/4/5 1389/4/5
f 1394/2/5 1391/2/5 1390/2/5
f 1394/4/5 1390/4/5 1393/4/5
f 1395/4/5 1392/4/5 1391/4/5
f 1395/2/5 1391/2/5 1394/2/5
f 1396/4/5 1392/4/5 1395/4/5
f 1398/3/5 1389/3/5 1385/3/5
f 1399/3/5 1389/3/5 1398/3/5
f 1400/3/5 1388/3/5 1392/3/5
f 1401/3/5 1388/3/5 1400/3/5
f 1403/4/5 1398/4/5 1397/4/5
f 1403/4/5 1399/4/5 1398/4/5
f 1404/4/5 1399/4/5 1403/4/5
f 1405/4/5 1393/4/5 1389/4/5
f 1405/3/5 1389/3/5 1399/3/5
f 1406/4/5 1393/4/5 1405/4/5
f 1407/4/5 1392/4/5 1396/4/5
f 1408/3/5 1400/3/5 1392/3/5
f 1408/4/5 1392/4/5 1407/4/5
f 1409/4/5 1402/4/5 1401/4/5
f 1409/4/5 1401/4/5 1400/4/5
f 1410/4/5 1402/4/5 1409/4/5
f 1411/4/5 1399/4/5 1404/4/5
f 1411/3/5 1405/3/5 1399/3/5
f 1412/3/5 1405/3/5 1411/3/5
f 1413/3/5 1400/3/5 1408/3/5
f 1414/4/5 1409/4/5 1400/4/5
f 1414/3/5 1400/3/5 1413/3/5
f 1415/4/5 1412/4/5 1411/4/5
f 1415/4/5 1411/4/5 1404/4/5
f 1416/4/5 1412/4/5 1415/4/5
f 1417/4/5 1414/4/5 1413/4/5
f 1418/4/5 1409/4/5 1414/4/5
f 1418/4/5 1414/4/5 1417/4/5
f 1423/3/5 1420/3/5 1419/3/5
f 1424/3/5 1420/3/5 1423/3/5
f 1425/3/5 1422/3/5 1421/3/5
f 1426/3/5 1422/3/5 1425/3/5
f 1431/4/5 1428/4/5 1427/4/5
f 1432/2/5 1429/2/5 1428/2/5
f 1432/4/5 1428/4/5 1431/4/5
f 1433/4/5 1430/4/5 1429/4/5
f 1433/2/5 1429/2/5 1432/2/5
f 1434/4/5 1430/4/5 1433/4/5
f 1439/4/5 1436/4/5 1435/4/5
f 1440/4/5 1436/4/5 1439/4/5
f 1441/4/5 1438/4/5 1437/4/5
f 1442/4/5 1438/4/5 1441/4/5
f 1447/3/5 1444/3/5 1443/3/5
f 1448/3/5 1444/3/5 1447/3/5
f 1449/3/5 1446/3/5 1445/3/5
f 1450/3/5 1446/3/5 1449/3/5
f 1455/4/5 1452/4/5 1451/4/5
f 1456/2/5 1453/2/5 1452/2/5
f 1456/4/5 1452/4/5 1455/4/5
f 1457/4/5 1454/4/5 1453/4/5
f 1457/2/5 1453/2/5 1456/2/5
f 1458/4/5 1454/4/5 1457/4/5
f 1463/4/5 1460/4/5 1459/4/5
f 1464/4/5 1460/4/5 1463/4/5
f 1465/4/5 1462/4/5 1461/4/5
f 1466/4/5 1462/4/5 1465/4/5
f 1471/3/5 1468/3/5 1467/3/5
f 1472/3/5 1468/3/5 1471/3/5
f 1473/3/5 1470/3/5 1469/3/5
f 1474/3/5 1470/3/5 1473/3/5
f 1479/4/5 1476/4/5 1475/4/5
f 1480/2/5 1477/2/5 1476/2/5
f 1480/4/5 1476/4/5 1479/4/5
f 1481/4/5 1478/4/5 1477/4/5
f 1481/2/5 1477/2/5 1480/2/5
f 1482/4/5 1478/4/5 1481/4/5
f 1487/4/5 1484/4/5 1483/4/5
f 1488/4/5 1484/4/5 1487/4/5
f 1489/4/5 1486/4/5 1485/4/5
f 1490/4/5 1486/4/5 1489/4/5
f 1495/3/5 1492/3/5 1491/3/5
f 1496/3/5 1492/3/5 1495/3/5
f 1497/3/5 1494/3/5 1493/3/5
f 1498/3/5 1494/3/5 1497/3/5
f 1501/4/5 1500/4/5 1499/4/5
f 1502/4/5 1500/4/5 1501/4/5
f 1503/4/5 1501/4/5 1499/4/5
f 1504/2/5 1502/2/5 1501/2/5
f 1504/4/5 1501/4/5 1503/4/5
f 1505/4/5 1500/4/5 1502/4/5
f 1505/2/5 1502/2/5 1504/2/5
f 1506/4/5 1500/4/5 1505/4/5
f 1511/4/5 1508/4/5 1507/4/5
f 1512/4/5 1508/4/5 1511/4/5
f 1513/4/5 1510/4/5 1509/4/5
f 1514/4/5 1510/4/5 1513/4/5
f 1518/4/5 1516/4/5 1515/4/5
f 1519/4/5 1516/4/5 1518/4/5
f 1525/3/5 1522/3/5 1521/3/5
f 1526/3/5 1522/3/5 1525/3/5
f 1527/3/5 1524/3/5 1523/3/5
f 1528/3/5 1524/3/5 1527/3/5
f 1530/4/5 1518/4/5 1517/4/5
f 1530/4/5 1519/4/5 1518/4/5
f 1530/4/5 1520/4/5 1519/4/5
f 1531/4/5 1520/4/5 1530/4/5
f 1533/4/5 1530/4/5 1529/4/5
f 1533/4/5 1532/4/5 1531/4/5
f 1533/4/5 1531/4/5 1530/4/5
f 1534/4/5 1532/4/5 1533/4/5
f 1539/4/5 1536/4/5 1535/4/5
f 1540/4/5 1536/4/5 1539/4/5
f 1541/4/5 1538/4/5 1537/4/5
f 1542/4/5 1538/4/5 1541/4/5
f 1551/4/5 1546/4/5 1545/4/5
f 1552/4/5 1546/4/5 1551/4/5
f 1553/4/5 1548/4/5 1547/4/5
f 1554/4/5 1548/4/5 1553/4/5
f 1556/3/5 1544/3/5 1543/3/5
f 1557/3/5 1550/3/5 1549/3/5
f 1559/3/5 1556/3/5 1555/3/5
f 1560/3/5 1544/3/5 1556/3/5
f 1560/3/5 1556/3/5 1559/3/5
f 1561/3/5 1558/3/5 1557/3/5
f 1561/3/5 1557/3/5 1549/3/5
f 1562/3/5 1558/3/5 1561/3/5
f 1567/4/5 1564/4/5 1563/4/5
f 1568/4/5 1564/4/5 1567/4/5
f 1569/4/5 1566/4/5 1565/4/5
f 1570/4/5 1566/4/5 1569/4/5
f 1575/4/5 1572/4/5 1571/4/5
f 1576/4/5 1572/4/5 1575/4/5
f 1577/4/5 1574/4/5 1573/4/5
f 1578/4/5 1574/4/5 1577/4/5
f 1587/3/5 1580/3/5 1579/3/5
f 1588/3/5 1580/3/5 1587/3/5
f 1589/3/5 1586/3/5 1585/3/5
f 1590/3/5 1586/3/5 1589/3/5
f 1591/4/5 1582/4/5 1581/4/5
f 1592/4/5 1582/4/5 1591/4/5
f 1593/4/5 1584/4/5 1583/4/5
f 1594/4/5 1584/4/5 1593/4/5
f 1599/4/5 1596/4/5 1595/4/5
f 1600/4/5 1596/4/5 1599/4/5
f 1601/4/5 1598/4/5 1597/4/5
f 1602/4/5 1598/4/5 1601/4/5
f 1607/4/5 1604/4/5 1603/4/5
f 1608/4/5 1604/4/5 1607/4/5
f 1609/4/5 1606/4/5 1605/4/5
f 1610/4/5 1606/4/5 1609/4/5
f 1615/4/5 1612/4/5 1611/4/5
f 1616/4/5 1612/4/5 1615/4/5
f 1617/4/5 1614/4/5 1613/4/5
f 1618/4/5 1614/4/5 1617/4/5
f 1623/4/5 1620/4/5 1619/4/5
f 1624/4/5 1620/4/5 1623/4/5
f 1625/4/5 1622/4/5 1621/4/5
f 1626/4/5 1622/4/5 1625/4/5
f 1631/4/5 1628/4/5 1627/4/5
f 1632/4/5 1628/4/5 1631/4/5
f 1633/4/5 1630/4/5 1629/4/5
f 1634/4/5 1630/4/5 1633/4/5
f 1639/4/5 1636/4/5 1635/4/5
f 1640/4/5 1636/4/5 1639/4/5
f 1641/4/5 1638/4/5 1637/4/5
f 1642/4/5 1638/4/5 1641/4/5
f 1647/4/5 1644/4/5 1643/4/5
f 1648/4/5 1644/4/5 1647/4/5
f 1649/4/5 1646/4/5 1645/4/5
f 1650/4/5 1646/4/5 1649/4/5
f 1655/4/5 1652/4/5 1651/4/5
f 1656/4/5 1652/4/5 1655/4/5
f 1657/4/5 1654/4/5 1653/4/5
f 1658/4/5 1654/4/5 1657/4/5
f 1665/4/5 1660/4/5 1659/4/5
f 1666/4/5 1660/4/5 1665/4/5
f 1667/4/5 1662/4/5 1661/4/5
f 1668/4/5 1662/4/5 1667/4/5
f 1671/4/5 1664/4/5 1663/4/5
f 1672/4/5 1664/4/5 1671/4/5
f 1673/4/5 1670/4/5 1669/4/5
f 1674/4/5 1670/4/5 1673/4/5
f 1681/4/5 1676/4/5 1675/4/5
f 1682/4/5 1676/4/5 1681/4/5
f 1683/4/5 1678/4/5 1677/4/5
f 1684/4/5 1678/4/5 1683/4/5
f 1687/4/5 1680/4/5 1679/4/5
f 1688/4/5 1680/4/5 1687/4/5
f 1689/4/5 1686/4/5 1685/4/5
f 1690/4/5 1686/4/5 1689/4/5
f 1699/4/5 1694/4/5 1693/4/5
f 1700/4/5 1696/4/5 1695/4/5
f 1701/4/5 1694/4/5 1699/4/5
f 1702/4/5 1694/4/5 1701/4/5
f 1703/4/5 1700/4/5 1695/4/5
f 1704/4/5 1700/4/5 1703/4/5
f 1705/4/5 1692/4/5 1691/4/5
f 1706/4/5 1692/4/5 1705/4/5
f 1707/4/5 1698/4/5 1697/4/5
f 1708/4/5 1698/4/5 1707/4/5
f 1711/4/6 1712/4/6 1717/4/6
f 1713/4/6 1714/4/6 1718/4/6
f 1709/4/6 1710/4/6 1719/4/6
f 1719/4/6 1710/4/6 1720/4/6
f 1717/4/6 1712/4/6 1721/4/6
f 1721/4/6 1712/4/6 1722/4/6
f 1713/4/6 1718/4/6 1723/4/6
f 1723/4/6 1718/4/6 1724/4/6
f 1715/4/6 1716/4/6 1725/4/6
f 1725/4/6 1716/4/6 1726/4/6
f 1720/4/6 1721/4/6 1727/4/6
f 1727/4/6 1721/4/6 1728/4/6
f 1724/4/6 1725/4/6 1729/4/6
f 1729/4/6 1725/4/6 1730/4/6
f 1731/4/6 1732/4/6 1738/4/6
f 1732/2/6 1733/2/6 1739/2/6
f 1738/4/6 1732/4/6 1739/4/6
f 1733/4/6 1734/4/6 1740/4/6
f 1739/2/6 1733/2/6 1740/2/6
f 1740/4/6 1734/4/6 1741/4/6
f 1737/4/6 1738/4/6 1745/4/6
f 1741/4/6 1742/4/6 1746/4/6
f 1735/4/6 1736/4/6 1747/4/6
f 1747/4/6 1736/4/6 1748/4/6
f 1745/4/6 1738/4/6 1749/4/6
f 1749/4/6 1738/4/6 1750/4/6
f 1741/4/6 1746/4/6 1751/4/6
f 1751/4/6 1746/4/6 1752/4/6
f 1743/4/6 1744/4/6 1753/4/6
f 1753/4/6 1744/4/6 1754/4/6
f 1748/4/6 1749/4/6 1755/4/6
f 1755/4/6 1749/4/6 1756/4/6
f 1752/4/6 1753/4/6 1757/4/6
f 1757/4/6 1753/4/6 1758/4/6
f 1761/4/6 1762/4/6 1767/4/6
f 1763/4/6 1764/4/6 1768/4/6
f 1759/4/6 1760/4/6 1769/4/6
f 1769/4/6 1760/4/6 1770/4/6
f 1767/4/6 1762/4/6 1771/4/6
f 1771/4/6 1762/4/6 1772/4/6
f 1763/4/6 1768/4/6 1773/4/6
f 1773/4/6 1768/4/6 1774/4/6
f 1765/4/6 1766/4/6 1775/4/6
f 1775/4/6 1766/4/6 1776/4/6
f 1770/4/6 1771/4/6 1777/4/6
f 1777/4/6 1771/4/6 1778/4/6
f 1774/4/6 1775/4/6 1779/4/6
f 1779/4/6 1775/4/6 1780/4/6
f 1781/4/6 1782/4/6 1788/4/6
f 1782/2/6 1783/2/6 1789/2/6
f 1788/4/6 1782/4/6 1789/4/6
f 1783/4/6 1784/4/6 1790/4/6
f 1789/2/6 1783/2/6 1790/2/6
f 1790/4/6 1784/4/6 1791/4/6
f 1787/4/6 1788/4/6 1795/4/6
f 1791/4/6 1792/4/6 1796/4/6
f 1785/4/6 1786/4/6 1797/4/6
f 1797/4/6 1786/4/6 1798/4/6
f 1795/4/6 1788/4/6 1799/4/6
f 1799/4/6 1788/4/6 1800/4/6
f 1791/4/6 1796/4/6 1801/4/6
f 1801/4/6 1796/4/6 1802/4/6
f 1793/4/6 1794/4/6 1803/4/6
f 1803/4/6 1794/4/6 1804/4/6
f 1798/4/6 1799/4/6 1805/4/6
f 1805/4/6 1799/4/6 1806/4/6
f 1802/4/6 1803/4/6 1807/4/6
f 1807/4/6 1803/4/6 1808/4/6
f 1809/4/6 1810/4/6 1817/4/6
f 1817/4/6 1810/4/6 1818/4/6
f 1811/4/6 1812/4/6 1819/4/6
f 1819/4/6 1812/4/6 1820/4/6
f 1813/4/6 1814/4/6 1821/4/6
f 1821/4/6 1814/4/6 1822/4/6
f 1815/4/6 1816/4/6 1823/4/6
f 1823/4/6 1816/4/6 1824/4/6
f 1818/4/6 1819/4/6 1825/4/6
f 1825/4/6 1819/4/6 1826/4/6
f 1822/4/6 1823/4/6 1827/4/6
f 1827/4/6 1823/4/6 1828/4/6
f 1829/4/6 1830/4/6 1836/4/6
f 1830/2/6 1831/2/6 1837/2/6
f 1836/4/6 1830/4/6 1837/4/6
f 1831/4/6 1832/4/6 1838/4/6
f 1837/2/6 1831/2/6 1838/2/6
f 1838/4/6 1832/4/6 1839/4/6
f 1835/4/6 1836/4/6 1843/4/6
f 1839/4/6 1840/4/6 1844/4/6
f 1833/4/6 1834/4/6 1845/4/6
f 1845/4/6 1834/4/6 1846/4/6
f 1843/4/6 1836/4/6 1847/4/6
f 1847/4/6 1836/4/6 1848/4/6
f 1839/4/6 1844/4/6 1849/4/6
f 1849/4/6 1844/4/6 1850/4/6
f 1841/4/6 1842/4/6 1851/4/6
f 1851/4/6 1842/4/6 1852/4/6
f 1846/4/6 1847/4/6 1853/4/6
f 1853/4/6 1847/4/6 1854/4/6
f 1850/4/6 1851/4/6 1855/4/6
f 1855/4/6 1851/4/6 1856/4/6
f 1859/4/6 1860/4/6 1865/4/6
f 1861/4/6 1862/4/6 1866/4/6
f 1857/4/6 1858/4/6 1867/4/6
f 1867/4/6 1858/4/6 1868/4/6
f 1865/4/6 1860/4/6 1869/4/6
f 1869/4/6 1860/4/6 1870/4/6
f 1861/4/6 1866/4/6 1871/4/6
f 1871/4/6 1866/4/6 1872/4/6
f 1863/4/6 1864/4/6 1873/4/6
f 1873/4/6 1864/4/6 1874/4/6
f 1868/4/6 1869/4/6 1875/4/6
f 1875/4/6 1869/4/6 1876/4/6
f 1872/4/6 1873/4/6 1877/4/6
f 1877/4/6 1873/4/6 1878/4/6
f 1879/4/6 1880/4/6 1886/4/6
f 1880/2/6 1881/2/6 1887/2/6
f 1886/4/6 1880/4/6 1887/4/6
f 1881/4/6 1882/4/6 1888/4/6
f 1887/2/6 1881/2/6 1888/2/6
f 1888/4/6 1882/4/6 1889/4/6
f 1883/4/6 1884/4/6 1893/4/6
f 1893/4/6 1884/4/6 1894/4/6
f 1885/4/6 1886/4/6 1895/4/6
f 1895/4/6 1886/4/6 1896/4/6
f 1889/4/6 1890/4/6 1897/4/6
f 1897/4/6 1890/4/6 1898/4/6
f 1891/4/6 1892/4/6 1899/4/6
f 1899/4/6 1892/4/6 1900/4/6
f 1894/4/6 1895/4/6 1901/4/6
f 1901/4/6 1895/4/6 1902/4/6
f 1898/4/6 1899/4/6 1903/4/6
f 1903/4/6 1899/4/6 1904/4/6
f 1905/4/6 1906/4/6 1913/4/6
f 1913/4/6 1906/4/6 1914/4/6
f 1907/4/6 1908/4/6 1915/4/6
f 1915/4/6 1908/4/6 1916/4/6
f 1909/4/6 1910/4/6 1917/4/6
f 1917/4/6 1910/4/6 1918/4/6
f 1911/4/6 1912/4/6 1919/4/6
f 1919/4/6 1912/4/6 1920/4/6
f 1914/4/6 1915/4/6 1921/4/6
f 1921/4/6 1915/4/6 1922/4/6
f 1918/4/6 1919/4/6 1923/4/6
f 1923/4/6 1919/4/6 1924/4/6
f 1925/4/6 1926/4/6 1929/4/6
f 1927/4/6 1928/4/6 1930/4/6
f 1929/4/6 1926/4/6 1931/4/6
f 1926/2/6 1927/2/6 1931/2/6
f 1931/2/6 1927/2/6 1932/2/6
f 1932/2/6 1927/2/6 1933/2/6
f 1927/4/6 1930/4/6 1934/4/6
f 1933/2/6 1927/2/6 1934/2/6
f 1929/4/6 1931/4/6 1935/4/6
f 1931/4/6 1932/4/6 1935/4/6
f 1935/4/6 1932/4/6 1936/4/6
f 1934/4/6 1930/4/6 1937/4/6
f 1933/4/6 1934/4/6 1937/4/6
f 1937/4/6 1930/4/6 1938/4/6
f 1936/4/6 1932/4/6 1942/4/6
f 1932/2/6 1933/2/6 1943/2/6
f 1942/4/6 1932/4/6 1943/4/6
f 1933/4/6 1937/4/6 1944/4/6
f 1943/2/6 1933/2/6 1944/2/6
f 1944/4/6 1937/4/6 1945/4/6
f 1939/4/6 1940/4/6 1949/4/6
f 1949/4/6 1940/4/6 1950/4/6
f 1941/4/6 1942/4/6 1951/4/6
f 1951/4/6 1942/4/6 1952/4/6
f 1945/4/6 1946/4/6 1953/4/6
f 1953/4/6 1946/4/6 1954/4/6
f 1947/4/6 1948/4/6 1955/4/6
f 1955/4/6 1948/4/6 1956/4/6
f 1950/4/6 1951/4/6 1957/4/6
f 1957/4/6 1951/4/6 1958/4/6
f 1954/4/6 1955/4/6 1959/4/6
f 1959/4/6 1955/4/6 1960/4/6
f 1961/4/6 1962/4/6 1969/4/6
f 1969/4/6 1962/4/6 1970/4/6
f 1963/4/6 1964/4/6 1971/4/6
f 1971/4/6 1964/4/6 1972/4/6
f 1965/4/6 1966/4/6 1973/4/6
f 1973/4/6 1966/4/6 1974/4/6
f 1967/4/6 1968/4/6 1975/4/6
f 1975/4/6 1968/4/6 1976/4/6
f 1970/4/6 1971/4/6 1977/4/6
f 1977/4/6 1971/4/6 1978/4/6
f 1974/4/6 1975/4/6 1979/4/6
f 1979/4/6 1975/4/6 1980/4/6
f 1981/4/6 1982/4/6 1989/4/6
f 1989/4/6 1982/4/6 1990/4/6
f 1983/4/6 1984/4/6 1991/4/6
f 1991/4/6 1984/4/6 1992/4/6
f 1985/4/6 1986/4/6 1993/4/6
f 1993/4/6 1986/4/6 1994/4/6
f 1987/4/6 1988/4/6 1995/4/6
f 1995/4/6 1988/4/6 1996/4/6
f 1990/4/6 1991/4/6 1997/4/6
f 1997/4/6 1991/4/6 1998/4/6
f 1994/4/6 1995/4/6 1999/4/6
f 1999/4/6 1995/4/6 2000/4/6
f 2001/4/6 2002/4/6 2009/4/6
f 2003/4/6 2004/4/6 2010/4/6
f 2005/4/6 2006/4/6 2011/4/6
f 2007/4/6 2008/4/6 2012/4/6
f 2001/4/6 2009/4/6 2013/4/6
f 2009/4/6 2010/4/6 2013/4/6
f 2013/4/6 2010/4/6 2014/4/6
f 2010/4/6 2004/4/6 2015/4/6
f 2014/4/6 2010/4/6 2015/4/6
f 2015/4/6 2004/4/6 2016/4/6
f 2005/4/6 2011/4/6 2017/4/6
f 2011/4/6 2012/4/6 2017/4/6
f 2017/4/6 2012/4/6 2018/4/6
f 2012/4/6 2008/4/6 2019/4/6
f 2018/4/6 2012/4/6 2019/4/6
f 2019/4/6 2008/4/6 2020/4/6
f 2014/4/6 2015/4/6 2021/4/6
f 2021/4/6 2015/4/6 2022/4/6
f 2018/4/6 2019/4/6 2023/4/6
f 2023/4/6 2019/4/6 2024/4/6
f 2025/4/6 2026/4/6 2033/4/6
f 2033/4/6 2026/4/6 2034/4/6
f 2027/4/6 2028/4/6 2035/4/6
f 2035/4/6 2028/4/6 2036/4/6
f 2029/4/6 2030/4/6 2037/4/6
f 2037/4/6 2030/4/6 2038/4/6
f 2031/4/6 2032/4/6 2039/4/6
f 2039/4/6 2032/4/6 2040/4/6
f 2034/4/6 2035/4/6 2041/4/6
f 2041/4/6 2035/4/6 2042/4/6
f 2038/4/6 2039/4/6 2043/4/6
f 2043/4/6 2039/4/6 2044/4/6
f 2045/4/6 2046/4/6 2053/4/6
f 2047/4/6 2048/4/6 2054/4/6
f 2049/4/6 2050/4/6 2055/4/6
f 2051/4/6 2052/4/6 2056/4/6
f 2045/4/6 2053/4/6 2057/4/6
f 2053/4/6 2054/4/6 2057/4/6
f 2057/4/6 2054/4/6 2058/4/6
f 2054/4/6 2048/4/6 2059/4/6
f 2058/4/6 2054/4/6 2059/4/6
f 2059/4/6 2048/4/6 2060/4/6
f 2049/4/6 2055/4/6 2061/4/6
f 2055/4/6 2056/4/6 2061/4/6
f 2061/4/6 2056/4/6 2062/4/6
f 2056/4/6 2052/4/6 2063/4/6
f 2062/4/6 2056/4/6 2063/4/6
f 2063/4/6 2052/4/6 2064/4/6
f 2058/4/6 2059/4/6 2065/4/6
f 2065/4/6 2059/4/6 2066/4/6
f 2062/4/6 2063/4/6 2067/4/6
f 2067/4/6 2063/4/6 2068/4/6
f 2073/4/6 2074/4/6 2077/4/6
f 2077/4/6 2074/4/6 2078/4/6
f 2069/4/6 2070/4/6 2079/4/6
f 2079/4/6 2070/4/6 2080/4/6
f 2071/4/6 2072/4/6 2081/4/6
f 2081/4/6 2072/4/6 2082/4/6
f 2075/4/6 2076/4/6 2083/4/6
f 2083/4/6 2076/4/6 2084/4/6
f 2078/4/6 2079/4/6 2085/4/6
f 2085/4/6 2079/4/6 2086/4/6
f 2082/4/6 2083/4/6 2087/4/6
f 2087/4/6 2083/4/6 2088/4/6
f 2089/4/6 2090/4/6 2097/4/6
f 2091/4/6 2092/4/6 2098/4/6
f 2098/4/6 2092/4/6 2099/4/6
f 2093/4/6 2094/4/6 2100/4/6
f 2100/4/6 2094/4/6 2101/4/6
f 2095/4/6 2096/4/6 2102/4/6
f 2089/4/6 2097/4/6 2103/4/6
f 2097/4/6 2098/4/6 2103/4/6
f 2103/4/6 2098/4/6 2104/4/6
f 2101/4/6 2102/4/6 2105/4/6
f 2102/4/6 2096/4/6 2105/4/6
f 2105/4/6 2096/4/6 2106/4/6
f 2104/4/6 2098/4/6 2107/4/6
f 2107/4/6 2098/4/6 2108/4/6
f 2101/4/6 2105/4/6 2109/4/6
f 2109/4/6 2105/4/6 2110/4/6
f 2111/4/6 2112/4/6 2115/4/6
f 2115/4/6 2112/4/6 2116/4/6
f 2113/4/6 2114/4/6 2117/4/6
f 2117/4/6 2114/4/6 2118/4/6
