# MagicaVoxel @ Ephtracy

# group
g The-Twitcher-23

# material
mtllib The-Twitcher-23.mtl
usemtl palette

# normals
vn -1 0 0
vn 1 0 0
vn 0 0 1
vn 0 0 -1
vn 0 -1 0
vn 0 1 0

# texcoords
vt 0.978516 0.5
vt 0.982422 0.5
vt 0.986328 0.5

# verts
v -34 20 2.5
v -34 20 -2.5
v -34 24 2.5
v -34 24 -2.5
v -32 4 2.5
v -32 4 -2.5
v -32 20 2.5
v -32 20 -2.5
v -32 24 2.5
v -32 24 -2.5
v -32 26 2.5
v -32 26 -2.5
v -30 2 2.5
v -30 2 -2.5
v -30 4 2.5
v -30 4 -2.5
v -10 2 2.5
v -10 2 -2.5
v -10 4 2.5
v -10 4 -2.5
v -8 0 2.5
v -8 0 -2.5
v -8 2 2.5
v -8 2 -2.5
v 24 20 2.5
v 24 20 -2.5
v 24 24 2.5
v 24 24 -2.5
v 26 2 2.5
v 26 2 -2.5
v 26 4 2.5
v 26 4 -2.5
v 26 10 2.5
v 26 10 -2.5
v 26 20 2.5
v 26 20 -2.5
v 26 24 2.5
v 26 24 -2.5
v 26 26 2.5
v 26 26 -2.5
v -26 2 2.5
v -26 2 -2.5
v -26 4 2.5
v -26 4 -2.5
v -26 10 2.5
v -26 10 -2.5
v -26 20 2.5
v -26 20 -2.5
v -26 24 2.5
v -26 24 -2.5
v -26 26 2.5
v -26 26 -2.5
v -24 20 2.5
v -24 20 -2.5
v -24 24 2.5
v -24 24 -2.5
v 8 0 2.5
v 8 0 -2.5
v 8 2 2.5
v 8 2 -2.5
v 10 2 2.5
v 10 2 -2.5
v 10 4 2.5
v 10 4 -2.5
v 30 2 2.5
v 30 2 -2.5
v 30 4 2.5
v 30 4 -2.5
v 32 4 2.5
v 32 4 -2.5
v 32 20 2.5
v 32 20 -2.5
v 32 24 2.5
v 32 24 -2.5
v 32 26 2.5
v 32 26 -2.5
v 34 20 2.5
v 34 20 -2.5
v 34 24 2.5
v 34 24 -2.5
v -34 20 2.5
v -34 24 2.5
v -32 4 2.5
v -32 20 2.5
v -32 24 2.5
v -32 26 2.5
v -30 2 2.5
v -30 4 2.5
v -26 2 2.5
v -26 4 2.5
v -26 10 2.5
v -26 20 2.5
v -26 24 2.5
v -26 26 2.5
v -24 20 2.5
v -24 24 2.5
v -23 9 2.5
v -23 10 2.5
v -10 2 2.5
v -10 4 2.5
v -8 0 2.5
v -8 2 2.5
v 8 0 2.5
v 8 2 2.5
v 10 2 2.5
v 10 4 2.5
v 23 9 2.5
v 23 10 2.5
v 24 20 2.5
v 24 24 2.5
v 26 2 2.5
v 26 4 2.5
v 26 10 2.5
v 26 20 2.5
v 26 24 2.5
v 26 26 2.5
v 30 2 2.5
v 30 4 2.5
v 32 4 2.5
v 32 20 2.5
v 32 24 2.5
v 32 26 2.5
v 34 20 2.5
v 34 24 2.5
v -34 20 -2.5
v -34 24 -2.5
v -32 4 -2.5
v -32 20 -2.5
v -32 24 -2.5
v -32 26 -2.5
v -30 2 -2.5
v -30 4 -2.5
v -26 2 -2.5
v -26 4 -2.5
v -26 10 -2.5
v -26 20 -2.5
v -26 24 -2.5
v -26 26 -2.5
v -24 20 -2.5
v -24 24 -2.5
v -23 9 -2.5
v -23 10 -2.5
v -10 2 -2.5
v -10 4 -2.5
v -8 0 -2.5
v -8 2 -2.5
v 8 0 -2.5
v 8 2 -2.5
v 10 2 -2.5
v 10 4 -2.5
v 23 9 -2.5
v 23 10 -2.5
v 24 20 -2.5
v 24 24 -2.5
v 26 2 -2.5
v 26 4 -2.5
v 26 10 -2.5
v 26 20 -2.5
v 26 24 -2.5
v 26 26 -2.5
v 30 2 -2.5
v 30 4 -2.5
v 32 4 -2.5
v 32 20 -2.5
v 32 24 -2.5
v 32 26 -2.5
v 34 20 -2.5
v 34 24 -2.5
v -8 0 2.5
v 8 0 2.5
v -8 0 -2.5
v 8 0 -2.5
v -30 2 2.5
v -26 2 2.5
v -10 2 2.5
v -8 2 2.5
v 8 2 2.5
v 10 2 2.5
v 26 2 2.5
v 30 2 2.5
v -30 2 -2.5
v -26 2 -2.5
v -10 2 -2.5
v -8 2 -2.5
v 8 2 -2.5
v 10 2 -2.5
v 26 2 -2.5
v 30 2 -2.5
v -32 4 2.5
v -30 4 2.5
v -26 4 2.5
v -10 4 2.5
v 10 4 2.5
v 26 4 2.5
v 30 4 2.5
v 32 4 2.5
v -32 4 -2.5
v -30 4 -2.5
v -26 4 -2.5
v -10 4 -2.5
v 10 4 -2.5
v 26 4 -2.5
v 30 4 -2.5
v 32 4 -2.5
v -34 20 2.5
v -32 20 2.5
v -26 20 2.5
v -24 20 2.5
v 24 20 2.5
v 26 20 2.5
v 32 20 2.5
v 34 20 2.5
v -34 20 -2.5
v -32 20 -2.5
v -26 20 -2.5
v -24 20 -2.5
v 24 20 -2.5
v 26 20 -2.5
v 32 20 -2.5
v 34 20 -2.5
v -26 10 2.5
v -23 10 2.5
v 23 10 2.5
v 26 10 2.5
v -26 10 -2.5
v -23 10 -2.5
v 23 10 -2.5
v 26 10 -2.5
v -34 24 2.5
v -32 24 2.5
v -26 24 2.5
v -24 24 2.5
v 24 24 2.5
v 26 24 2.5
v 32 24 2.5
v 34 24 2.5
v -34 24 -2.5
v -32 24 -2.5
v -26 24 -2.5
v -24 24 -2.5
v 24 24 -2.5
v 26 24 -2.5
v 32 24 -2.5
v 34 24 -2.5
v -32 26 2.5
v -26 26 2.5
v 26 26 2.5
v 32 26 2.5
v -32 26 -2.5
v -26 26 -2.5
v 26 26 -2.5
v 32 26 -2.5

# faces
f 3/3/1 2/3/1 1/3/1
f 4/3/1 2/3/1 3/3/1
f 7/2/1 6/2/1 5/2/1
f 8/2/1 6/2/1 7/2/1
f 11/3/1 10/3/1 9/3/1
f 12/3/1 10/3/1 11/3/1
f 15/2/1 14/2/1 13/2/1
f 16/2/1 14/2/1 15/2/1
f 19/3/1 18/3/1 17/3/1
f 20/3/1 18/3/1 19/3/1
f 23/3/1 22/3/1 21/3/1
f 24/3/1 22/3/1 23/3/1
f 27/3/1 26/3/1 25/3/1
f 28/3/1 26/3/1 27/3/1
f 31/2/1 30/2/1 29/2/1
f 32/2/1 30/2/1 31/2/1
f 35/2/1 34/2/1 33/2/1
f 36/2/1 34/2/1 35/2/1
f 39/3/1 38/3/1 37/3/1
f 40/3/1 38/3/1 39/3/1
f 41/2/2 42/2/2 43/2/2
f 43/2/2 42/2/2 44/2/2
f 45/2/2 46/2/2 47/2/2
f 47/2/2 46/2/2 48/2/2
f 49/3/2 50/3/2 51/3/2
f 51/3/2 50/3/2 52/3/2
f 53/3/2 54/3/2 55/3/2
f 55/3/2 54/3/2 56/3/2
f 57/3/2 58/3/2 59/3/2
f 59/3/2 58/3/2 60/3/2
f 61/3/2 62/3/2 63/3/2
f 63/3/2 62/3/2 64/3/2
f 65/2/2 66/2/2 67/2/2
f 67/2/2 66/2/2 68/2/2
f 69/2/2 70/2/2 71/2/2
f 71/2/2 70/2/2 72/2/2
f 73/3/2 74/3/2 75/3/2
f 75/3/2 74/3/2 76/3/2
f 77/3/2 78/3/2 79/3/2
f 79/3/2 78/3/2 80/3/2
f 84/3/3 82/3/3 81/3/3
f 85/3/3 82/3/3 84/3/3
f 88/2/3 84/2/3 83/2/3
f 89/2/3 88/2/3 87/2/3
f 90/2/3 84/2/3 88/2/3
f 90/2/3 88/2/3 89/2/3
f 91/2/3 84/2/3 90/2/3
f 92/3/3 86/3/3 85/3/3
f 92/2/3 84/2/3 91/2/3
f 92/3/3 85/3/3 84/3/3
f 93/3/3 86/3/3 92/3/3
f 94/3/3 86/3/3 93/3/3
f 95/3/3 93/3/3 92/3/3
f 96/3/3 93/3/3 95/3/3
f 97/2/3 91/2/3 90/2/3
f 98/2/3 91/2/3 97/2/3
f 100/2/3 97/2/3 90/2/3
f 102/3/3 100/3/3 99/3/3
f 103/3/3 102/3/3 101/3/3
f 104/3/3 100/3/3 102/3/3
f 104/3/3 102/3/3 103/3/3
f 105/3/3 100/3/3 104/3/3
f 106/2/3 97/2/3 100/2/3
f 106/3/3 100/3/3 105/3/3
f 107/1/3 98/1/3 97/1/3
f 107/2/3 97/2/3 106/2/3
f 108/1/3 98/1/3 107/1/3
f 112/2/3 108/2/3 107/2/3
f 112/2/3 107/2/3 106/2/3
f 113/2/3 108/2/3 112/2/3
f 114/3/3 110/3/3 109/3/3
f 115/3/3 110/3/3 114/3/3
f 117/2/3 113/2/3 112/2/3
f 117/2/3 112/2/3 111/2/3
f 117/2/3 114/2/3 113/2/3
f 118/2/3 114/2/3 117/2/3
f 119/2/3 114/2/3 118/2/3
f 120/3/3 115/3/3 114/3/3
f 120/2/3 114/2/3 119/2/3
f 120/3/3 116/3/3 115/3/3
f 121/3/3 116/3/3 120/3/3
f 122/3/3 116/3/3 121/3/3
f 123/3/3 121/3/3 120/3/3
f 124/3/3 121/3/3 123/3/3
f 125/3/4 126/3/4 128/3/4
f 128/3/4 126/3/4 129/3/4
f 127/2/4 128/2/4 132/2/4
f 131/2/4 132/2/4 133/2/4
f 132/2/4 128/2/4 134/2/4
f 133/2/4 132/2/4 134/2/4
f 134/2/4 128/2/4 135/2/4
f 129/3/4 130/3/4 136/3/4
f 135/2/4 128/2/4 136/2/4
f 128/3/4 129/3/4 136/3/4
f 136/3/4 130/3/4 137/3/4
f 137/3/4 130/3/4 138/3/4
f 136/3/4 137/3/4 139/3/4
f 139/3/4 137/3/4 140/3/4
f 134/2/4 135/2/4 141/2/4
f 141/2/4 135/2/4 142/2/4
f 134/2/4 141/2/4 144/2/4
f 143/3/4 144/3/4 146/3/4
f 145/3/4 146/3/4 147/3/4
f 146/3/4 144/3/4 148/3/4
f 147/3/4 146/3/4 148/3/4
f 148/3/4 144/3/4 149/3/4
f 144/2/4 141/2/4 150/2/4
f 149/3/4 144/3/4 150/3/4
f 141/1/4 142/1/4 151/1/4
f 150/2/4 141/2/4 151/2/4
f 151/1/4 142/1/4 152/1/4
f 151/2/4 152/2/4 156/2/4
f 150/2/4 151/2/4 156/2/4
f 156/2/4 152/2/4 157/2/4
f 153/3/4 154/3/4 158/3/4
f 158/3/4 154/3/4 159/3/4
f 156/2/4 157/2/4 161/2/4
f 155/2/4 156/2/4 161/2/4
f 157/2/4 158/2/4 161/2/4
f 161/2/4 158/2/4 162/2/4
f 162/2/4 158/2/4 163/2/4
f 158/3/4 159/3/4 164/3/4
f 163/2/4 158/2/4 164/2/4
f 159/3/4 160/3/4 164/3/4
f 164/3/4 160/3/4 165/3/4
f 165/3/4 160/3/4 166/3/4
f 164/3/4 165/3/4 167/3/4
f 167/3/4 165/3/4 168/3/4
f 171/3/5 170/3/5 169/3/5
f 172/3/5 170/3/5 171/3/5
f 181/2/5 174/2/5 173/2/5
f 182/2/5 174/2/5 181/2/5
f 183/3/5 176/3/5 175/3/5
f 184/3/5 176/3/5 183/3/5
f 185/3/5 178/3/5 177/3/5
f 186/3/5 178/3/5 185/3/5
f 187/2/5 180/2/5 179/2/5
f 188/2/5 180/2/5 187/2/5
f 197/2/5 190/2/5 189/2/5
f 198/2/5 190/2/5 197/2/5
f 199/2/5 192/2/5 191/2/5
f 200/2/5 192/2/5 199/2/5
f 201/2/5 194/2/5 193/2/5
f 202/2/5 194/2/5 201/2/5
f 203/2/5 196/2/5 195/2/5
f 204/2/5 196/2/5 203/2/5
f 213/3/5 206/3/5 205/3/5
f 214/3/5 206/3/5 213/3/5
f 215/3/5 208/3/5 207/3/5
f 216/3/5 208/3/5 215/3/5
f 217/3/5 210/3/5 209/3/5
f 218/3/5 210/3/5 217/3/5
f 219/3/5 212/3/5 211/3/5
f 220/3/5 212/3/5 219/3/5
f 221/2/6 222/2/6 225/2/6
f 222/1/6 223/1/6 226/1/6
f 225/2/6 222/2/6 226/2/6
f 223/2/6 224/2/6 227/2/6
f 226/1/6 223/1/6 227/1/6
f 227/2/6 224/2/6 228/2/6
f 229/3/6 230/3/6 237/3/6
f 237/3/6 230/3/6 238/3/6
f 231/3/6 232/3/6 239/3/6
f 239/3/6 232/3/6 240/3/6
f 233/3/6 234/3/6 241/3/6
f 241/3/6 234/3/6 242/3/6
f 235/3/6 236/3/6 243/3/6
f 243/3/6 236/3/6 244/3/6
f 245/3/6 246/3/6 249/3/6
f 249/3/6 246/3/6 250/3/6
f 247/3/6 248/3/6 251/3/6
f 251/3/6 248/3/6 252/3/6
