# MagicaVoxel @ Ephtracy

# group
o 

# material
mtllib The Twitcher-0.mtl
usemtl palette

# normals
vn -1 0 0
vn 1 0 0
vn 0 0 1
vn 0 0 -1
vn 0 -1 0
vn 0 1 0

# texcoords
vt 0.0683594 0.5
vt 0.845703 0.5
vt 0.857422 0.5
vt 0.958984 0.5
vt 0.994141 0.5

# verts
v 8.2 0.2 0.4
v 8.2 0.2 -0.1
v 8.2 0.7 0.4
v 8.2 0.7 -0.1
v 8.3 0.1 0.4
v 8.3 0.1 -0.1
v 8.3 0.2 0.5
v 8.3 0.2 0.4
v 8.3 0.2 -0.1
v 8.3 0.2 -0.2
v 8.3 0.7 0.5
v 8.3 0.7 0.4
v 8.3 0.7 -0.1
v 8.3 0.7 -0.2
v 8.3 0.8 0.4
v 8.3 0.8 -0.1
v 8.4 0 0.3
v 8.4 0 0
v 8.4 0.1 0.5
v 8.4 0.1 0.4
v 8.4 0.1 0.3
v 8.4 0.1 0
v 8.4 0.1 -0.1
v 8.4 0.1 -0.2
v 8.4 0.2 0.6
v 8.4 0.2 0.5
v 8.4 0.2 0.4
v 8.4 0.2 -0.1
v 8.4 0.2 -0.2
v 8.4 0.2 -0.3
v 8.4 0.6 0.7
v 8.4 0.6 0.6
v 8.4 0.7 0.7
v 8.4 0.7 0.6
v 8.4 0.7 0.5
v 8.4 0.7 0.4
v 8.4 0.7 -0.1
v 8.4 0.7 -0.2
v 8.4 0.7 -0.3
v 8.4 0.8 0.6
v 8.4 0.8 0.5
v 8.4 0.8 0.4
v 8.4 0.8 -0.1
v 8.4 0.8 -0.2
v 8.4 0.9 0.5
v 8.4 0.9 0.4
v 8.5 0 0.4
v 8.5 0 0.3
v 8.5 0 0
v 8.5 0 -0.1
v 8.5 0.1 0.6
v 8.5 0.1 0.5
v 8.5 0.1 0.4
v 8.5 0.1 0.3
v 8.5 0.1 0
v 8.5 0.1 -0.1
v 8.5 0.1 -0.2
v 8.5 0.1 -0.3
v 8.5 0.2 0.7
v 8.5 0.2 0.6
v 8.5 0.2 0.5
v 8.5 0.2 -0.2
v 8.5 0.2 -0.3
v 8.5 0.2 -0.4
v 8.5 0.3 0.7
v 8.5 0.3 0.6
v 8.5 0.4 0.7
v 8.5 0.4 0.6
v 8.5 0.5 0.7
v 8.5 0.5 0.6
v 8.5 0.6 0.7
v 8.5 0.6 0.6
v 8.5 0.7 -0.2
v 8.5 0.7 -0.3
v 8.5 0.7 -0.4
v 8.5 0.8 0.4
v 8.5 0.8 0.3
v 8.5 0.8 0
v 8.5 0.8 -0.2
v 8.5 0.8 -0.3
v 8.5 0.9 0.4
v 8.5 0.9 0.3
v 8.5 0.9 0
v 8.5 1 0.4
v 8.5 1 0.3
v 8.5 1.1 0.3
v 8.5 1.1 0
v 8.5 1.2 0.3
v 8.5 1.2 0
v 8.6 0 0.5
v 8.6 0 0.4
v 8.6 0 -0.1
v 8.6 0 -0.2
v 8.6 0.1 0.5
v 8.6 0.1 0.4
v 8.6 0.1 -0.1
v 8.6 0.1 -0.2
v 8.6 0.8 0
v 8.6 0.8 -0.1
v 8.6 0.9 0.3
v 8.6 0.9 0.1
v 8.6 0.9 0
v 8.6 0.9 -0.1
v 8.6 1 0.3
v 8.6 1 0.1
v 8.6 1 0
v 8.6 1.1 0.4
v 8.6 1.1 0.3
v 8.6 1.1 0
v 8.6 1.1 -0.1
v 8.6 1.2 0.4
v 8.6 1.2 0.3
v 8.6 1.2 0
v 8.6 1.2 -0.1
v 8.7 0.9 0.1
v 8.7 0.9 0
v 8.7 1 0.1
v 8.7 1 0
v 8.8 1.1 0.2
v 8.8 1.1 0.1
v 8.8 1.2 0.2
v 8.8 1.2 0.1
v 9 0.8 0.4
v 9 0.8 0.3
v 9 0.9 0.4
v 9 0.9 0.3
v 8.6 0.8 0.5
v 8.6 0.8 0.4
v 8.6 0.9 0.5
v 8.6 0.9 0.4
v 8.6 0.9 0.3
v 8.6 1 0.4
v 8.6 1 0.3
v 8.7 1.1 0.2
v 8.7 1.1 0.1
v 8.7 1.2 0.2
v 8.7 1.2 0.1
v 8.8 0.9 0.3
v 8.8 0.9 0.2
v 8.8 0.9 0.1
v 8.8 0.9 0
v 8.8 1 0.3
v 8.8 1 0.2
v 8.8 1 0.1
v 8.8 1 0
v 8.9 0 0.5
v 8.9 0 0.4
v 8.9 0 -0.1
v 8.9 0 -0.2
v 8.9 0.1 0.5
v 8.9 0.1 0.4
v 8.9 0.1 -0.1
v 8.9 0.1 -0.2
v 8.9 0.8 0.4
v 8.9 0.8 0.3
v 8.9 0.8 0
v 8.9 0.8 -0.1
v 8.9 0.9 0.4
v 8.9 0.9 0.3
v 8.9 0.9 0
v 8.9 0.9 -0.1
v 8.9 1 0.3
v 8.9 1 0.2
v 8.9 1 0.1
v 8.9 1 0
v 8.9 1.1 0.4
v 8.9 1.1 0.3
v 8.9 1.1 0
v 8.9 1.1 -0.1
v 8.9 1.2 0.4
v 8.9 1.2 0.3
v 8.9 1.2 0
v 8.9 1.2 -0.1
v 9 0 0.4
v 9 0 0.3
v 9 0 0
v 9 0 -0.1
v 9 0.1 0.6
v 9 0.1 0.5
v 9 0.1 0.4
v 9 0.1 0.3
v 9 0.1 0
v 9 0.1 -0.1
v 9 0.1 -0.2
v 9 0.1 -0.3
v 9 0.2 0.7
v 9 0.2 0.6
v 9 0.2 0.5
v 9 0.2 -0.2
v 9 0.2 -0.3
v 9 0.2 -0.4
v 9 0.3 0.7
v 9 0.3 0.6
v 9 0.4 0.7
v 9 0.4 0.6
v 9 0.5 0.7
v 9 0.5 0.6
v 9 0.6 0.7
v 9 0.6 0.6
v 9 0.7 0.7
v 9 0.7 0.6
v 9 0.7 0.5
v 9 0.7 -0.2
v 9 0.7 -0.3
v 9 0.7 -0.4
v 9 0.8 0.6
v 9 0.8 0.5
v 9 0.8 0.1
v 9 0.8 0
v 9 0.8 -0.2
v 9 0.8 -0.3
v 9 0.9 0.2
v 9 0.9 0.1
v 9 0.9 0
v 9 1 0.2
v 9 1 0.1
v 9 1.1 0.3
v 9 1.1 0
v 9 1.2 0.3
v 9 1.2 0
v 9.1 0 0.3
v 9.1 0 0
v 9.1 0.1 0.5
v 9.1 0.1 0.4
v 9.1 0.1 0.3
v 9.1 0.1 0
v 9.1 0.1 -0.1
v 9.1 0.1 -0.2
v 9.1 0.2 0.6
v 9.1 0.2 0.5
v 9.1 0.2 0.4
v 9.1 0.2 -0.1
v 9.1 0.2 -0.2
v 9.1 0.2 -0.3
v 9.1 0.7 0.6
v 9.1 0.7 0.5
v 9.1 0.7 -0.1
v 9.1 0.7 -0.2
v 9.1 0.7 -0.3
v 9.1 0.8 0.3
v 9.1 0.8 0.1
v 9.1 0.8 -0.1
v 9.1 0.8 -0.2
v 9.1 0.9 0.3
v 9.1 0.9 0.1
v 9.2 0.1 0.4
v 9.2 0.1 -0.1
v 9.2 0.2 0.5
v 9.2 0.2 0.4
v 9.2 0.2 -0.1
v 9.2 0.2 -0.2
v 9.2 0.7 0.5
v 9.2 0.7 0.4
v 9.2 0.7 -0.1
v 9.2 0.7 -0.2
v 9.2 0.8 0.5
v 9.2 0.8 0.4
v 9.2 0.8 0.3
v 9.2 0.8 -0.1
v 9.2 0.9 0.4
v 9.2 0.9 0.3
v 9.3 0.2 0.4
v 9.3 0.2 -0.1
v 9.3 0.7 0.4
v 9.3 0.7 -0.1
v 8.4 0.6 0.7
v 8.4 0.7 0.7
v 8.5 0.2 0.7
v 8.5 0.3 0.7
v 8.5 0.4 0.7
v 8.5 0.5 0.7
v 8.5 0.6 0.7
v 8.5 0.7 0.7
v 8.6 0.2 0.7
v 8.6 0.3 0.7
v 8.6 0.4 0.7
v 8.6 0.5 0.7
v 8.6 0.6 0.7
v 8.6 0.7 0.7
v 8.7 0.2 0.7
v 8.7 0.3 0.7
v 8.7 0.4 0.7
v 8.7 0.5 0.7
v 8.7 0.6 0.7
v 8.7 0.7 0.7
v 8.8 0.2 0.7
v 8.8 0.3 0.7
v 8.8 0.4 0.7
v 8.8 0.5 0.7
v 8.8 0.6 0.7
v 8.8 0.7 0.7
v 8.9 0.2 0.7
v 8.9 0.3 0.7
v 8.9 0.4 0.7
v 8.9 0.5 0.7
v 8.9 0.6 0.7
v 8.9 0.7 0.7
v 9 0.2 0.7
v 9 0.3 0.7
v 9 0.4 0.7
v 9 0.5 0.7
v 9 0.6 0.7
v 9 0.7 0.7
v 8.4 0.2 0.6
v 8.4 0.6 0.6
v 8.4 0.7 0.6
v 8.4 0.8 0.6
v 8.5 0.1 0.6
v 8.5 0.2 0.6
v 8.5 0.3 0.6
v 8.5 0.4 0.6
v 8.5 0.5 0.6
v 8.5 0.6 0.6
v 8.5 0.7 0.6
v 8.5 0.8 0.6
v 8.6 0.2 0.6
v 8.6 0.7 0.6
v 8.7 0.2 0.6
v 8.7 0.7 0.6
v 8.8 0.2 0.6
v 8.8 0.7 0.6
v 8.9 0.2 0.6
v 8.9 0.7 0.6
v 9 0.1 0.6
v 9 0.2 0.6
v 9 0.3 0.6
v 9 0.4 0.6
v 9 0.5 0.6
v 9 0.6 0.6
v 9 0.7 0.6
v 9 0.8 0.6
v 9.1 0.2 0.6
v 9.1 0.7 0.6
v 8.3 0.2 0.5
v 8.3 0.7 0.5
v 8.4 0.1 0.5
v 8.4 0.2 0.5
v 8.4 0.7 0.5
v 8.4 0.8 0.5
v 8.4 0.9 0.5
v 8.5 0.1 0.5
v 8.5 0.2 0.5
v 8.5 0.8 0.5
v 8.6 0 0.5
v 8.6 0.1 0.5
v 8.6 0.8 0.5
v 8.6 0.9 0.5
v 8.9 0 0.5
v 8.9 0.1 0.5
v 9 0.1 0.5
v 9 0.2 0.5
v 9 0.7 0.5
v 9 0.8 0.5
v 9.1 0.1 0.5
v 9.1 0.2 0.5
v 9.1 0.7 0.5
v 9.1 0.8 0.5
v 9.2 0.2 0.5
v 9.2 0.7 0.5
v 9.2 0.8 0.5
v 8.2 0.2 0.4
v 8.2 0.7 0.4
v 8.3 0.1 0.4
v 8.3 0.2 0.4
v 8.3 0.7 0.4
v 8.3 0.8 0.4
v 8.4 0.1 0.4
v 8.4 0.2 0.4
v 8.4 0.7 0.4
v 8.4 0.8 0.4
v 8.5 0 0.4
v 8.5 0.1 0.4
v 8.5 0.9 0.4
v 8.5 1 0.4
v 8.6 0 0.4
v 8.6 0.1 0.4
v 8.6 0.8 0.4
v 8.6 0.9 0.4
v 8.6 1 0.4
v 8.6 1.1 0.4
v 8.6 1.2 0.4
v 8.9 0 0.4
v 8.9 0.1 0.4
v 8.9 0.8 0.4
v 8.9 0.9 0.4
v 8.9 1.1 0.4
v 8.9 1.2 0.4
v 9 0 0.4
v 9 0.1 0.4
v 9 0.8 0.4
v 9 0.9 0.4
v 9.1 0.1 0.4
v 9.1 0.2 0.4
v 9.1 0.8 0.4
v 9.2 0.1 0.4
v 9.2 0.2 0.4
v 9.2 0.7 0.4
v 9.2 0.8 0.4
v 9.2 0.9 0.4
v 9.3 0.2 0.4
v 9.3 0.7 0.4
v 8.4 0 0.3
v 8.4 0.1 0.3
v 8.5 0 0.3
v 8.5 0.1 0.3
v 8.5 1.1 0.3
v 8.5 1.2 0.3
v 8.6 0.9 0.3
v 8.6 1 0.3
v 8.6 1.1 0.3
v 8.6 1.2 0.3
v 8.8 0.9 0.3
v 8.8 1 0.3
v 8.9 0.8 0.3
v 8.9 0.9 0.3
v 8.9 1 0.3
v 8.9 1.1 0.3
v 8.9 1.2 0.3
v 9 0 0.3
v 9 0.1 0.3
v 9 0.8 0.3
v 9 0.9 0.3
v 9 1.1 0.3
v 9 1.2 0.3
v 9.1 0 0.3
v 9.1 0.1 0.3
v 8.8 0.9 0.2
v 8.8 1 0.2
v 8.9 1 0.2
v 9 0.9 0.2
v 9 1 0.2
v 8.7 1.1 0.1
v 8.7 1.2 0.1
v 8.8 1.1 0.1
v 8.8 1.2 0.1
v 8.4 0.8 0.4
v 8.4 0.9 0.4
v 8.5 0.8 0.4
v 8.5 0.9 0.4
v 8.5 0.9 0.3
v 8.5 1 0.3
v 8.6 0.9 0.3
v 8.6 1 0.3
v 9.1 0.8 0.3
v 9.1 0.9 0.3
v 9.2 0.8 0.3
v 9.2 0.9 0.3
v 8.7 1.1 0.2
v 8.7 1.2 0.2
v 8.8 1.1 0.2
v 8.8 1.2 0.2
v 8.6 0.9 0.1
v 8.6 1 0.1
v 8.7 0.9 0.1
v 8.7 1 0.1
v 8.8 0.9 0.1
v 8.8 1 0.1
v 8.9 1 0.1
v 9 0.8 0.1
v 9 0.9 0.1
v 9 1 0.1
v 9.1 0.8 0.1
v 9.1 0.9 0.1
v 8.4 0 0
v 8.4 0.1 0
v 8.5 0 0
v 8.5 0.1 0
v 8.5 0.8 0
v 8.5 0.9 0
v 8.5 1.1 0
v 8.5 1.2 0
v 8.6 0.8 0
v 8.6 0.9 0
v 8.6 1 0
v 8.6 1.1 0
v 8.6 1.2 0
v 8.7 0.9 0
v 8.7 1 0
v 8.8 0.9 0
v 8.8 1 0
v 8.9 0.8 0
v 8.9 0.9 0
v 8.9 1 0
v 8.9 1.1 0
v 8.9 1.2 0
v 9 0 0
v 9 0.1 0
v 9 0.8 0
v 9 0.9 0
v 9 1.1 0
v 9 1.2 0
v 9.1 0 0
v 9.1 0.1 0
v 8.2 0.2 -0.1
v 8.2 0.7 -0.1
v 8.3 0.1 -0.1
v 8.3 0.2 -0.1
v 8.3 0.7 -0.1
v 8.3 0.8 -0.1
v 8.4 0.1 -0.1
v 8.4 0.2 -0.1
v 8.4 0.7 -0.1
v 8.4 0.8 -0.1
v 8.5 0 -0.1
v 8.5 0.1 -0.1
v 8.6 0 -0.1
v 8.6 0.1 -0.1
v 8.6 0.8 -0.1
v 8.6 0.9 -0.1
v 8.6 1.1 -0.1
v 8.6 1.2 -0.1
v 8.9 0 -0.1
v 8.9 0.1 -0.1
v 8.9 0.8 -0.1
v 8.9 0.9 -0.1
v 8.9 1.1 -0.1
v 8.9 1.2 -0.1
v 9 0 -0.1
v 9 0.1 -0.1
v 9.1 0.1 -0.1
v 9.1 0.2 -0.1
v 9.1 0.7 -0.1
v 9.1 0.8 -0.1
v 9.2 0.1 -0.1
v 9.2 0.2 -0.1
v 9.2 0.7 -0.1
v 9.2 0.8 -0.1
v 9.3 0.2 -0.1
v 9.3 0.7 -0.1
v 8.3 0.2 -0.2
v 8.3 0.7 -0.2
v 8.4 0.1 -0.2
v 8.4 0.2 -0.2
v 8.4 0.7 -0.2
v 8.4 0.8 -0.2
v 8.5 0.1 -0.2
v 8.5 0.2 -0.2
v 8.5 0.7 -0.2
v 8.5 0.8 -0.2
v 8.6 0 -0.2
v 8.6 0.1 -0.2
v 8.9 0 -0.2
v 8.9 0.1 -0.2
v 9 0.1 -0.2
v 9 0.2 -0.2
v 9 0.7 -0.2
v 9 0.8 -0.2
v 9.1 0.1 -0.2
v 9.1 0.2 -0.2
v 9.1 0.7 -0.2
v 9.1 0.8 -0.2
v 9.2 0.2 -0.2
v 9.2 0.7 -0.2
v 8.4 0.2 -0.3
v 8.4 0.7 -0.3
v 8.5 0.1 -0.3
v 8.5 0.2 -0.3
v 8.5 0.7 -0.3
v 8.5 0.8 -0.3
v 9 0.1 -0.3
v 9 0.2 -0.3
v 9 0.7 -0.3
v 9 0.8 -0.3
v 9.1 0.2 -0.3
v 9.1 0.7 -0.3
v 8.5 0.2 -0.4
v 8.5 0.7 -0.4
v 9 0.2 -0.4
v 9 0.7 -0.4
v 8.6 0 0.5
v 8.9 0 0.5
v 8.5 0 0.4
v 8.6 0 0.4
v 8.9 0 0.4
v 9 0 0.4
v 8.4 0 0.3
v 8.5 0 0.3
v 9 0 0.3
v 9.1 0 0.3
v 8.4 0 0
v 8.5 0 0
v 9 0 0
v 9.1 0 0
v 8.5 0 -0.1
v 8.6 0 -0.1
v 8.9 0 -0.1
v 9 0 -0.1
v 8.6 0 -0.2
v 8.9 0 -0.2
v 8.5 0.1 0.6
v 9 0.1 0.6
v 8.4 0.1 0.5
v 8.5 0.1 0.5
v 8.6 0.1 0.5
v 8.9 0.1 0.5
v 9 0.1 0.5
v 9.1 0.1 0.5
v 8.3 0.1 0.4
v 8.4 0.1 0.4
v 8.5 0.1 0.4
v 8.6 0.1 0.4
v 8.9 0.1 0.4
v 9 0.1 0.4
v 9.1 0.1 0.4
v 9.2 0.1 0.4
v 8.4 0.1 0.3
v 8.5 0.1 0.3
v 9 0.1 0.3
v 9.1 0.1 0.3
v 8.4 0.1 0
v 8.5 0.1 0
v 9 0.1 0
v 9.1 0.1 0
v 8.3 0.1 -0.1
v 8.4 0.1 -0.1
v 8.5 0.1 -0.1
v 8.6 0.1 -0.1
v 8.9 0.1 -0.1
v 9 0.1 -0.1
v 9.1 0.1 -0.1
v 9.2 0.1 -0.1
v 8.4 0.1 -0.2
v 8.5 0.1 -0.2
v 8.6 0.1 -0.2
v 8.9 0.1 -0.2
v 9 0.1 -0.2
v 9.1 0.1 -0.2
v 8.5 0.1 -0.3
v 9 0.1 -0.3
v 8.5 0.2 0.7
v 8.6 0.2 0.7
v 8.7 0.2 0.7
v 8.8 0.2 0.7
v 8.9 0.2 0.7
v 9 0.2 0.7
v 8.4 0.2 0.6
v 8.5 0.2 0.6
v 8.6 0.2 0.6
v 8.7 0.2 0.6
v 8.8 0.2 0.6
v 8.9 0.2 0.6
v 9 0.2 0.6
v 9.1 0.2 0.6
v 8.3 0.2 0.5
v 8.4 0.2 0.5
v 8.5 0.2 0.5
v 9 0.2 0.5
v 9.1 0.2 0.5
v 9.2 0.2 0.5
v 8.2 0.2 0.4
v 8.3 0.2 0.4
v 8.4 0.2 0.4
v 9.1 0.2 0.4
v 9.2 0.2 0.4
v 9.3 0.2 0.4
v 8.2 0.2 -0.1
v 8.3 0.2 -0.1
v 8.4 0.2 -0.1
v 9.1 0.2 -0.1
v 9.2 0.2 -0.1
v 9.3 0.2 -0.1
v 8.3 0.2 -0.2
v 8.4 0.2 -0.2
v 8.5 0.2 -0.2
v 9 0.2 -0.2
v 9.1 0.2 -0.2
v 9.2 0.2 -0.2
v 8.4 0.2 -0.3
v 8.5 0.2 -0.3
v 9 0.2 -0.3
v 9.1 0.2 -0.3
v 8.5 0.2 -0.4
v 9 0.2 -0.4
v 8.4 0.6 0.7
v 8.5 0.6 0.7
v 8.4 0.6 0.6
v 8.5 0.6 0.6
v 8.8 1 0.3
v 8.9 1 0.3
v 8.8 1 0.2
v 8.9 1 0.2
v 8.6 1 0.1
v 8.7 1 0.1
v 8.8 1 0.1
v 8.9 1 0.1
v 8.6 1 0
v 8.7 1 0
v 8.8 1 0
v 8.9 1 0
v 8.6 1.1 0.4
v 8.9 1.1 0.4
v 8.5 1.1 0.3
v 8.6 1.1 0.3
v 8.9 1.1 0.3
v 9 1.1 0.3
v 8.5 1.1 0
v 8.6 1.1 0
v 8.9 1.1 0
v 9 1.1 0
v 8.6 1.1 -0.1
v 8.9 1.1 -0.1
v 8.4 0.7 0.7
v 8.5 0.7 0.7
v 8.6 0.7 0.7
v 8.7 0.7 0.7
v 8.8 0.7 0.7
v 8.9 0.7 0.7
v 9 0.7 0.7
v 8.4 0.7 0.6
v 8.5 0.7 0.6
v 8.6 0.7 0.6
v 8.7 0.7 0.6
v 8.8 0.7 0.6
v 8.9 0.7 0.6
v 9 0.7 0.6
v 9.1 0.7 0.6
v 8.3 0.7 0.5
v 8.4 0.7 0.5
v 9 0.7 0.5
v 9.1 0.7 0.5
v 8.2 0.7 0.4
v 8.3 0.7 0.4
v 8.4 0.7 0.4
v 9.2 0.7 0.4
v 9.3 0.7 0.4
v 8.2 0.7 -0.1
v 8.3 0.7 -0.1
v 8.4 0.7 -0.1
v 9.1 0.7 -0.1
v 9.2 0.7 -0.1
v 9.3 0.7 -0.1
v 8.3 0.7 -0.2
v 8.4 0.7 -0.2
v 8.5 0.7 -0.2
v 9 0.7 -0.2
v 9.1 0.7 -0.2
v 9.2 0.7 -0.2
v 8.4 0.7 -0.3
v 8.5 0.7 -0.3
v 9 0.7 -0.3
v 9.1 0.7 -0.3
v 8.5 0.7 -0.4
v 9 0.7 -0.4
v 8.4 0.8 0.6
v 8.5 0.8 0.6
v 9 0.8 0.6
v 8.4 0.8 0.5
v 8.5 0.8 0.5
v 8.6 0.8 0.5
v 9 0.8 0.5
v 9.1 0.8 0.5
v 9.2 0.8 0.5
v 8.3 0.8 0.4
v 8.4 0.8 0.4
v 8.5 0.8 0.4
v 8.6 0.8 0.4
v 8.9 0.8 0.4
v 9 0.8 0.4
v 9.1 0.8 0.4
v 9.2 0.8 0.4
v 8.5 0.8 0.3
v 8.9 0.8 0.3
v 9 0.8 0.3
v 9.1 0.8 0.3
v 9.2 0.8 0.3
v 9 0.8 0.1
v 9.1 0.8 0.1
v 8.5 0.8 0
v 8.6 0.8 0
v 8.9 0.8 0
v 9 0.8 0
v 8.3 0.8 -0.1
v 8.4 0.8 -0.1
v 8.6 0.8 -0.1
v 8.9 0.8 -0.1
v 9.1 0.8 -0.1
v 9.2 0.8 -0.1
v 8.4 0.8 -0.2
v 8.5 0.8 -0.2
v 9 0.8 -0.2
v 9.1 0.8 -0.2
v 8.5 0.8 -0.3
v 9 0.8 -0.3
v 8.4 0.9 0.5
v 8.6 0.9 0.5
v 8.4 0.9 0.4
v 8.5 0.9 0.4
v 8.6 0.9 0.4
v 8.9 0.9 0.4
v 9 0.9 0.4
v 9.2 0.9 0.4
v 8.5 0.9 0.3
v 8.6 0.9 0.3
v 8.8 0.9 0.3
v 8.9 0.9 0.3
v 9 0.9 0.3
v 9.1 0.9 0.3
v 9.2 0.9 0.3
v 8.8 0.9 0.2
v 9 0.9 0.2
v 8.6 0.9 0.1
v 8.7 0.9 0.1
v 8.8 0.9 0.1
v 9 0.9 0.1
v 9.1 0.9 0.1
v 8.5 0.9 0
v 8.6 0.9 0
v 8.7 0.9 0
v 8.8 0.9 0
v 8.9 0.9 0
v 9 0.9 0
v 8.6 0.9 -0.1
v 8.9 0.9 -0.1
v 8.5 1 0.4
v 8.6 1 0.4
v 8.5 1 0.3
v 8.6 1 0.3
v 8.9 1 0.2
v 9 1 0.2
v 8.9 1 0.1
v 9 1 0.1
v 8.7 1.1 0.2
v 8.8 1.1 0.2
v 8.7 1.1 0.1
v 8.8 1.1 0.1
v 8.6 1.2 0.4
v 8.9 1.2 0.4
v 8.5 1.2 0.3
v 8.6 1.2 0.3
v 8.9 1.2 0.3
v 9 1.2 0.3
v 8.7 1.2 0.2
v 8.8 1.2 0.2
v 8.7 1.2 0.1
v 8.8 1.2 0.1
v 8.5 1.2 0
v 8.6 1.2 0
v 8.9 1.2 0
v 9 1.2 0
v 8.6 1.2 -0.1
v 8.9 1.2 -0.1

# faces
f 3/1/1 2/1/1 1/1/1
f 4/1/1 2/1/1 3/1/1
f 8/1/1 6/1/1 5/1/1
f 9/1/1 6/1/1 8/1/1
f 11/1/1 8/1/1 7/1/1
f 12/1/1 8/1/1 11/1/1
f 13/1/1 10/1/1 9/1/1
f 14/1/1 10/1/1 13/1/1
f 15/1/1 13/1/1 12/1/1
f 16/1/1 13/1/1 15/1/1
f 21/1/1 18/1/1 17/1/1
f 22/1/1 18/1/1 21/1/1
f 26/1/1 20/1/1 19/1/1
f 27/1/1 20/1/1 26/1/1
f 28/1/1 24/1/1 23/1/1
f 29/1/1 24/1/1 28/1/1
f 32/1/1 26/1/1 25/1/1
f 33/2/1 32/2/1 31/2/1
f 34/1/1 26/1/1 32/1/1
f 34/2/1 32/2/1 33/2/1
f 35/1/1 26/1/1 34/1/1
f 38/1/1 30/1/1 29/1/1
f 39/1/1 30/1/1 38/1/1
f 40/2/1 35/2/1 34/2/1
f 41/1/1 36/1/1 35/1/1
f 41/2/1 35/2/1 40/2/1
f 42/1/1 36/1/1 41/1/1
f 43/1/1 38/1/1 37/1/1
f 44/1/1 38/1/1 43/1/1
f 45/2/1 42/2/1 41/2/1
f 46/2/1 42/2/1 45/2/1
f 53/1/1 48/1/1 47/1/1
f 54/1/1 48/1/1 53/1/1
f 55/1/1 50/1/1 49/1/1
f 56/1/1 50/1/1 55/1/1
f 60/1/1 52/1/1 51/1/1
f 61/1/1 52/1/1 60/1/1
f 62/1/1 58/1/1 57/1/1
f 63/1/1 58/1/1 62/1/1
f 65/4/1 60/4/1 59/4/1
f 66/4/1 60/4/1 65/4/1
f 67/5/1 66/5/1 65/5/1
f 68/5/1 66/5/1 67/5/1
f 69/3/1 68/3/1 67/3/1
f 70/3/1 68/3/1 69/3/1
f 71/5/1 70/5/1 69/5/1
f 72/5/1 70/5/1 71/5/1
f 74/1/1 64/1/1 63/1/1
f 75/1/1 64/1/1 74/1/1
f 79/1/1 74/1/1 73/1/1
f 80/1/1 74/1/1 79/1/1
f 81/2/1 77/2/1 76/2/1
f 82/1/1 78/1/1 77/1/1
f 82/2/1 77/2/1 81/2/1
f 83/1/1 78/1/1 82/1/1
f 84/2/1 82/2/1 81/2/1
f 85/2/1 82/2/1 84/2/1
f 88/1/1 87/1/1 86/1/1
f 89/1/1 87/1/1 88/1/1
f 94/1/1 91/1/1 90/1/1
f 95/1/1 91/1/1 94/1/1
f 96/1/1 93/1/1 92/1/1
f 97/1/1 93/1/1 96/1/1
f 102/1/1 99/1/1 98/1/1
f 103/1/1 99/1/1 102/1/1
f 104/2/1 101/2/1 100/2/1
f 105/2/1 101/2/1 104/2/1
f 108/1/1 105/1/1 104/1/1
f 108/1/1 106/1/1 105/1/1
f 109/1/1 106/1/1 108/1/1
f 111/1/1 108/1/1 107/1/1
f 112/1/1 108/1/1 111/1/1
f 113/1/1 110/1/1 109/1/1
f 114/1/1 110/1/1 113/1/1
f 117/2/1 116/2/1 115/2/1
f 118/2/1 116/2/1 117/2/1
f 121/1/1 120/1/1 119/1/1
f 122/1/1 120/1/1 121/1/1
f 125/2/1 124/2/1 123/2/1
f 126/2/1 124/2/1 125/2/1
f 127/2/2 128/2/2 129/2/2
f 129/2/2 128/2/2 130/2/2
f 130/2/2 131/2/2 132/2/2
f 132/2/2 131/2/2 133/2/2
f 134/1/2 135/1/2 136/1/2
f 136/1/2 135/1/2 137/1/2
f 138/2/2 139/2/2 142/2/2
f 142/2/2 139/2/2 143/2/2
f 140/2/2 141/2/2 144/2/2
f 144/2/2 141/2/2 145/2/2
f 146/1/2 147/1/2 150/1/2
f 150/1/2 147/1/2 151/1/2
f 148/1/2 149/1/2 152/1/2
f 152/1/2 149/1/2 153/1/2
f 154/1/2 155/1/2 158/1/2
f 158/1/2 155/1/2 159/1/2
f 156/1/2 157/1/2 160/1/2
f 160/1/2 157/1/2 161/1/2
f 162/1/2 163/1/2 167/1/2
f 164/1/2 165/1/2 167/1/2
f 163/1/2 164/1/2 167/1/2
f 167/1/2 165/1/2 168/1/2
f 166/1/2 167/1/2 170/1/2
f 170/1/2 167/1/2 171/1/2
f 168/1/2 169/1/2 172/1/2
f 172/1/2 169/1/2 173/1/2
f 174/1/2 175/1/2 180/1/2
f 180/1/2 175/1/2 181/1/2
f 176/1/2 177/1/2 182/1/2
f 182/1/2 177/1/2 183/1/2
f 178/1/2 179/1/2 187/1/2
f 187/1/2 179/1/2 188/1/2
f 184/1/2 185/1/2 189/1/2
f 189/1/2 185/1/2 190/1/2
f 186/4/2 187/4/2 192/4/2
f 192/4/2 187/4/2 193/4/2
f 192/5/2 193/5/2 194/5/2
f 194/5/2 193/5/2 195/5/2
f 194/3/2 195/3/2 196/3/2
f 196/3/2 195/3/2 197/3/2
f 196/5/2 197/5/2 198/5/2
f 198/5/2 197/5/2 199/5/2
f 198/4/2 199/4/2 200/4/2
f 200/4/2 199/4/2 201/4/2
f 190/1/2 191/1/2 204/1/2
f 204/1/2 191/1/2 205/1/2
f 201/1/2 202/1/2 206/1/2
f 206/1/2 202/1/2 207/1/2
f 203/1/2 204/1/2 210/1/2
f 210/1/2 204/1/2 211/1/2
f 208/1/2 209/1/2 213/1/2
f 213/1/2 209/1/2 214/1/2
f 212/2/2 213/2/2 215/2/2
f 215/2/2 213/2/2 216/2/2
f 217/1/2 218/1/2 219/1/2
f 219/1/2 218/1/2 220/1/2
f 221/1/2 222/1/2 225/1/2
f 225/1/2 222/1/2 226/1/2
f 223/1/2 224/1/2 230/1/2
f 230/1/2 224/1/2 231/1/2
f 227/1/2 228/1/2 232/1/2
f 232/1/2 228/1/2 233/1/2
f 229/1/2 230/1/2 235/1/2
f 235/1/2 230/1/2 236/1/2
f 233/1/2 234/1/2 238/1/2
f 238/1/2 234/1/2 239/1/2
f 237/1/2 238/1/2 242/1/2
f 242/1/2 238/1/2 243/1/2
f 240/2/2 241/2/2 244/2/2
f 244/2/2 241/2/2 245/2/2
f 246/1/2 247/1/2 249/1/2
f 249/1/2 247/1/2 250/1/2
f 248/1/2 249/1/2 252/1/2
f 252/1/2 249/1/2 253/1/2
f 250/1/2 251/1/2 254/1/2
f 254/1/2 251/1/2 255/1/2
f 252/2/2 253/2/2 256/2/2
f 253/1/2 254/1/2 257/1/2
f 256/2/2 253/2/2 257/2/2
f 257/1/2 254/1/2 258/1/2
f 258/1/2 254/1/2 259/1/2
f 257/2/2 258/2/2 260/2/2
f 260/2/2 258/2/2 261/2/2
f 262/1/2 263/1/2 264/1/2
f 264/1/2 263/1/2 265/1/2
f 272/2/3 267/2/3 266/2/3
f 273/2/3 267/2/3 272/2/3
f 274/4/3 269/4/3 268/4/3
f 275/5/3 270/5/3 269/5/3
f 275/4/3 269/4/3 274/4/3
f 276/3/3 271/3/3 270/3/3
f 276/5/3 270/5/3 275/5/3
f 277/5/3 272/5/3 271/5/3
f 277/3/3 271/3/3 276/3/3
f 278/4/3 273/4/3 272/4/3
f 278/5/3 272/5/3 277/5/3
f 279/4/3 273/4/3 278/4/3
f 280/5/3 275/5/3 274/5/3
f 281/4/3 276/4/3 275/4/3
f 281/5/3 275/5/3 280/5/3
f 282/3/3 277/3/3 276/3/3
f 282/4/3 276/4/3 281/4/3
f 283/4/3 278/4/3 277/4/3
f 283/3/3 277/3/3 282/3/3
f 284/5/3 279/5/3 278/5/3
f 284/4/3 278/4/3 283/4/3
f 285/5/3 279/5/3 284/5/3
f 286/3/3 281/3/3 280/3/3
f 286/3/3 282/3/3 281/3/3
f 286/3/3 285/3/3 284/3/3
f 286/3/3 284/3/3 283/3/3
f 286/3/3 283/3/3 282/3/3
f 287/3/3 285/3/3 286/3/3
f 288/3/3 285/3/3 287/3/3
f 289/3/3 285/3/3 288/3/3
f 290/3/3 285/3/3 289/3/3
f 291/3/3 285/3/3 290/3/3
f 292/5/3 287/5/3 286/5/3
f 293/4/3 288/4/3 287/4/3
f 293/5/3 287/5/3 292/5/3
f 294/3/3 289/3/3 288/3/3
f 294/4/3 288/4/3 293/4/3
f 295/4/3 290/4/3 289/4/3
f 295/3/3 289/3/3 294/3/3
f 296/5/3 291/5/3 290/5/3
f 296/4/3 290/4/3 295/4/3
f 297/5/3 291/5/3 296/5/3
f 298/4/3 293/4/3 292/4/3
f 299/5/3 294/5/3 293/5/3
f 299/4/3 293/4/3 298/4/3
f 300/3/3 295/3/3 294/3/3
f 300/5/3 294/5/3 299/5/3
f 301/5/3 296/5/3 295/5/3
f 301/3/3 295/3/3 300/3/3
f 302/4/3 297/4/3 296/4/3
f 302/5/3 296/5/3 301/5/3
f 303/4/3 297/4/3 302/4/3
f 309/1/3 305/1/3 304/1/3
f 310/1/3 305/1/3 309/1/3
f 311/1/3 305/1/3 310/1/3
f 312/1/3 305/1/3 311/1/3
f 313/1/3 305/1/3 312/1/3
f 314/2/3 307/2/3 306/2/3
f 315/2/3 307/2/3 314/2/3
f 316/1/3 309/1/3 308/1/3
f 317/1/3 315/1/3 314/1/3
f 318/1/3 316/1/3 308/1/3
f 319/1/3 315/1/3 317/1/3
f 320/1/3 318/1/3 308/1/3
f 321/1/3 315/1/3 319/1/3
f 322/1/3 320/1/3 308/1/3
f 323/1/3 315/1/3 321/1/3
f 324/1/3 322/1/3 308/1/3
f 325/1/3 322/1/3 324/1/3
f 330/1/3 315/1/3 323/1/3
f 331/1/3 315/1/3 330/1/3
f 332/1/3 329/1/3 328/1/3
f 332/1/3 330/1/3 329/1/3
f 332/1/3 326/1/3 325/1/3
f 332/1/3 328/1/3 327/1/3
f 332/1/3 327/1/3 326/1/3
f 333/1/3 330/1/3 332/1/3
f 337/1/3 335/1/3 334/1/3
f 338/1/3 335/1/3 337/1/3
f 341/1/3 337/1/3 336/1/3
f 342/1/3 337/1/3 341/1/3
f 343/2/3 340/2/3 339/2/3
f 346/2/3 340/2/3 343/2/3
f 347/2/3 340/2/3 346/2/3
f 348/1/3 345/1/3 344/1/3
f 349/1/3 345/1/3 348/1/3
f 354/1/3 351/1/3 350/1/3
f 355/1/3 351/1/3 354/1/3
f 356/1/3 353/1/3 352/1/3
f 357/1/3 353/1/3 356/1/3
f 358/1/3 356/1/3 355/1/3
f 359/2/3 357/2/3 356/2/3
f 359/1/3 356/1/3 358/1/3
f 360/2/3 357/2/3 359/2/3
f 364/1/3 362/1/3 361/1/3
f 365/1/3 362/1/3 364/1/3
f 367/1/3 364/1/3 363/1/3
f 368/1/3 364/1/3 367/1/3
f 369/1/3 366/1/3 365/1/3
f 370/1/3 366/1/3 369/1/3
f 375/1/3 372/1/3 371/1/3
f 376/1/3 372/1/3 375/1/3
f 378/2/3 374/2/3 373/2/3
f 379/2/3 374/2/3 378/2/3
f 384/1/3 378/1/3 377/1/3
f 385/1/3 378/1/3 384/1/3
f 386/1/3 381/1/3 380/1/3
f 387/1/3 381/1/3 386/1/3
f 388/1/3 383/1/3 382/1/3
f 389/1/3 383/1/3 388/1/3
f 394/2/3 391/2/3 390/2/3
f 395/1/3 393/1/3 392/1/3
f 396/1/3 393/1/3 395/1/3
f 398/2/3 391/2/3 394/2/3
f 399/2/3 391/2/3 398/2/3
f 400/1/3 397/1/3 396/1/3
f 401/1/3 397/1/3 400/1/3
f 404/1/3 403/1/3 402/1/3
f 405/1/3 403/1/3 404/1/3
f 410/1/3 407/1/3 406/1/3
f 411/1/3 407/1/3 410/1/3
f 412/2/3 409/2/3 408/2/3
f 413/1/3 410/1/3 409/1/3
f 413/2/3 409/2/3 412/2/3
f 416/1/3 410/1/3 413/1/3
f 417/1/3 410/1/3 416/1/3
f 421/1/3 415/1/3 414/1/3
f 422/1/3 415/1/3 421/1/3
f 423/1/3 418/1/3 417/1/3
f 424/1/3 418/1/3 423/1/3
f 425/1/3 420/1/3 419/1/3
f 426/1/3 420/1/3 425/1/3
f 429/2/3 428/2/3 427/2/3
f 430/2/3 429/2/3 427/2/3
f 431/2/3 429/2/3 430/2/3
f 434/1/3 433/1/3 432/1/3
f 435/1/3 433/1/3 434/1/3
f 436/2/4 437/2/4 438/2/4
f 438/2/4 437/2/4 439/2/4
f 440/2/4 441/2/4 442/2/4
f 442/2/4 441/2/4 443/2/4
f 444/2/4 445/2/4 446/2/4
f 446/2/4 445/2/4 447/2/4
f 448/1/4 449/1/4 450/1/4
f 450/1/4 449/1/4 451/1/4
f 452/2/4 453/2/4 454/2/4
f 454/2/4 453/2/4 455/2/4
f 456/2/4 457/2/4 458/2/4
f 456/2/4 458/2/4 460/2/4
f 460/2/4 458/2/4 461/2/4
f 459/2/4 460/2/4 462/2/4
f 462/2/4 460/2/4 463/2/4
f 464/1/4 465/1/4 466/1/4
f 466/1/4 465/1/4 467/1/4
f 468/1/4 469/1/4 472/1/4
f 472/1/4 469/1/4 473/1/4
f 470/1/4 471/1/4 475/1/4
f 475/1/4 471/1/4 476/1/4
f 474/1/4 475/1/4 478/1/4
f 477/2/4 478/2/4 479/2/4
f 478/1/4 475/1/4 480/1/4
f 479/2/4 478/2/4 480/2/4
f 480/1/4 475/1/4 483/1/4
f 483/1/4 475/1/4 484/1/4
f 481/1/4 482/1/4 488/1/4
f 488/1/4 482/1/4 489/1/4
f 484/1/4 485/1/4 490/1/4
f 490/1/4 485/1/4 491/1/4
f 486/1/4 487/1/4 492/1/4
f 492/1/4 487/1/4 493/1/4
f 494/1/4 495/1/4 497/1/4
f 497/1/4 495/1/4 498/1/4
f 496/1/4 497/1/4 500/1/4
f 500/1/4 497/1/4 501/1/4
f 498/1/4 499/1/4 502/1/4
f 502/1/4 499/1/4 503/1/4
f 504/1/4 505/1/4 506/1/4
f 506/1/4 505/1/4 507/1/4
f 508/1/4 509/1/4 514/1/4
f 514/1/4 509/1/4 515/1/4
f 510/1/4 511/1/4 516/1/4
f 516/1/4 511/1/4 517/1/4
f 512/1/4 513/1/4 518/1/4
f 518/1/4 513/1/4 519/1/4
f 520/1/4 521/1/4 524/1/4
f 524/1/4 521/1/4 525/1/4
f 522/1/4 523/1/4 526/1/4
f 526/1/4 523/1/4 527/1/4
f 525/1/4 526/1/4 528/1/4
f 528/1/4 526/1/4 529/1/4
f 530/1/4 531/1/4 533/1/4
f 533/1/4 531/1/4 534/1/4
f 532/1/4 533/1/4 536/1/4
f 536/1/4 533/1/4 537/1/4
f 534/1/4 535/1/4 538/1/4
f 538/1/4 535/1/4 539/1/4
f 540/1/4 541/1/4 542/1/4
f 542/1/4 541/1/4 543/1/4
f 544/1/4 545/1/4 548/1/4
f 548/1/4 545/1/4 549/1/4
f 546/1/4 547/1/4 550/1/4
f 550/1/4 547/1/4 551/1/4
f 549/1/4 550/1/4 552/1/4
f 552/1/4 550/1/4 553/1/4
f 554/1/4 555/1/4 557/1/4
f 557/1/4 555/1/4 558/1/4
f 556/1/4 557/1/4 560/1/4
f 560/1/4 557/1/4 561/1/4
f 558/1/4 559/1/4 562/1/4
f 562/1/4 559/1/4 563/1/4
f 561/1/4 562/1/4 564/1/4
f 564/1/4 562/1/4 565/1/4
f 566/1/4 567/1/4 568/1/4
f 568/1/4 567/1/4 569/1/4
f 573/1/5 571/1/5 570/1/5
f 574/1/5 571/1/5 573/1/5
f 577/1/5 573/1/5 572/1/5
f 577/1/5 575/1/5 574/1/5
f 577/1/5 574/1/5 573/1/5
f 578/1/5 575/1/5 577/1/5
f 580/1/5 577/1/5 576/1/5
f 580/1/5 579/1/5 578/1/5
f 580/1/5 578/1/5 577/1/5
f 581/1/5 579/1/5 580/1/5
f 582/1/5 579/1/5 581/1/5
f 583/1/5 579/1/5 582/1/5
f 584/1/5 582/1/5 581/1/5
f 585/1/5 582/1/5 584/1/5
f 586/1/5 582/1/5 585/1/5
f 587/1/5 582/1/5 586/1/5
f 588/1/5 586/1/5 585/1/5
f 589/1/5 586/1/5 588/1/5
f 593/1/5 591/1/5 590/1/5
f 594/1/5 591/1/5 593/1/5
f 595/1/5 591/1/5 594/1/5
f 596/1/5 591/1/5 595/1/5
f 599/1/5 593/1/5 592/1/5
f 599/1/5 594/1/5 593/1/5
f 600/1/5 594/1/5 599/1/5
f 601/1/5 594/1/5 600/1/5
f 602/1/5 596/1/5 595/1/5
f 602/1/5 597/1/5 596/1/5
f 603/1/5 597/1/5 602/1/5
f 604/1/5 597/1/5 603/1/5
f 606/1/5 600/1/5 599/1/5
f 606/1/5 599/1/5 598/1/5
f 607/1/5 600/1/5 606/1/5
f 608/1/5 605/1/5 604/1/5
f 608/1/5 604/1/5 603/1/5
f 609/1/5 605/1/5 608/1/5
f 610/1/5 606/1/5 598/1/5
f 613/1/5 605/1/5 609/1/5
f 614/1/5 611/1/5 610/1/5
f 614/1/5 610/1/5 598/1/5
f 615/1/5 611/1/5 614/1/5
f 616/1/5 611/1/5 615/1/5
f 619/1/5 613/1/5 612/1/5
f 620/1/5 605/1/5 613/1/5
f 620/1/5 613/1/5 619/1/5
f 621/1/5 605/1/5 620/1/5
f 622/1/5 617/1/5 616/1/5
f 622/1/5 616/1/5 615/1/5
f 623/1/5 617/1/5 622/1/5
f 624/1/5 617/1/5 623/1/5
f 625/1/5 619/1/5 618/1/5
f 625/1/5 620/1/5 619/1/5
f 626/1/5 620/1/5 625/1/5
f 627/1/5 620/1/5 626/1/5
f 628/1/5 624/1/5 623/1/5
f 628/1/5 626/1/5 625/1/5
f 628/1/5 625/1/5 624/1/5
f 629/1/5 626/1/5 628/1/5
f 637/4/5 631/4/5 630/4/5
f 638/5/5 632/5/5 631/5/5
f 638/4/5 631/4/5 637/4/5
f 639/3/5 633/3/5 632/3/5
f 639/5/5 632/5/5 638/5/5
f 640/5/5 634/5/5 633/5/5
f 640/3/5 633/3/5 639/3/5
f 641/4/5 635/4/5 634/4/5
f 641/5/5 634/5/5 640/5/5
f 642/4/5 635/4/5 641/4/5
f 645/1/5 637/1/5 636/1/5
f 646/1/5 637/1/5 645/1/5
f 647/1/5 643/1/5 642/1/5
f 648/1/5 643/1/5 647/1/5
f 651/1/5 645/1/5 644/1/5
f 652/1/5 645/1/5 651/1/5
f 653/1/5 649/1/5 648/1/5
f 654/1/5 649/1/5 653/1/5
f 656/1/5 651/1/5 650/1/5
f 657/1/5 651/1/5 656/1/5
f 660/1/5 655/1/5 654/1/5
f 661/1/5 655/1/5 660/1/5
f 662/1/5 658/1/5 657/1/5
f 663/1/5 658/1/5 662/1/5
f 666/1/5 660/1/5 659/1/5
f 667/1/5 660/1/5 666/1/5
f 668/1/5 664/1/5 663/1/5
f 669/1/5 664/1/5 668/1/5
f 670/1/5 666/1/5 665/1/5
f 671/1/5 666/1/5 670/1/5
f 672/1/5 670/1/5 669/1/5
f 673/1/5 670/1/5 672/1/5
f 676/2/5 675/2/5 674/2/5
f 677/2/5 675/2/5 676/2/5
f 680/1/5 679/1/5 678/1/5
f 681/1/5 679/1/5 680/1/5
f 686/1/5 683/1/5 682/1/5
f 687/1/5 683/1/5 686/1/5
f 688/1/5 685/1/5 684/1/5
f 689/1/5 685/1/5 688/1/5
f 693/1/5 691/1/5 690/1/5
f 694/1/5 691/1/5 693/1/5
f 696/1/5 693/1/5 692/1/5
f 697/1/5 693/1/5 696/1/5
f 698/1/5 695/1/5 694/1/5
f 699/1/5 695/1/5 698/1/5
f 700/1/5 698/1/5 697/1/5
f 701/1/5 698/1/5 700/1/5
f 702/2/6 703/2/6 709/2/6
f 703/4/6 704/4/6 710/4/6
f 709/2/6 703/2/6 710/2/6
f 704/5/6 705/5/6 711/5/6
f 710/4/6 704/4/6 711/4/6
f 705/3/6 706/3/6 712/3/6
f 711/5/6 705/5/6 712/5/6
f 706/5/6 707/5/6 713/5/6
f 712/3/6 706/3/6 713/3/6
f 707/4/6 708/4/6 714/4/6
f 713/5/6 707/5/6 714/5/6
f 714/4/6 708/4/6 715/4/6
f 715/1/6 716/1/6 719/1/6
f 719/1/6 716/1/6 720/1/6
f 717/1/6 718/1/6 722/1/6
f 722/1/6 718/1/6 723/1/6
f 721/1/6 722/1/6 726/1/6
f 726/1/6 722/1/6 727/1/6
f 724/1/6 725/1/6 730/1/6
f 730/1/6 725/1/6 731/1/6
f 727/1/6 728/1/6 732/1/6
f 732/1/6 728/1/6 733/1/6
f 729/1/6 730/1/6 736/1/6
f 736/1/6 730/1/6 737/1/6
f 733/1/6 734/1/6 738/1/6
f 738/1/6 734/1/6 739/1/6
f 735/1/6 736/1/6 740/1/6
f 740/1/6 736/1/6 741/1/6
f 739/1/6 740/1/6 742/1/6
f 742/1/6 740/1/6 743/1/6
f 744/2/6 745/2/6 747/2/6
f 745/1/6 746/1/6 748/1/6
f 747/2/6 745/2/6 748/2/6
f 748/1/6 746/1/6 749/1/6
f 749/1/6 746/1/6 750/1/6
f 750/1/6 751/1/6 756/1/6
f 749/1/6 750/1/6 756/1/6
f 756/1/6 751/1/6 757/1/6
f 757/1/6 751/1/6 758/1/6
f 751/2/6 752/2/6 759/2/6
f 758/1/6 751/1/6 759/1/6
f 759/2/6 752/2/6 760/2/6
f 754/1/6 755/1/6 761/1/6
f 753/1/6 754/1/6 761/1/6
f 757/1/6 758/1/6 762/1/6
f 762/1/6 758/1/6 763/1/6
f 764/1/6 765/1/6 767/1/6
f 753/1/6 761/1/6 768/1/6
f 766/1/6 767/1/6 771/1/6
f 768/1/6 769/1/6 772/1/6
f 753/1/6 768/1/6 772/1/6
f 772/1/6 769/1/6 773/1/6
f 773/1/6 769/1/6 774/1/6
f 770/1/6 771/1/6 775/1/6
f 767/1/6 765/1/6 776/1/6
f 771/1/6 767/1/6 776/1/6
f 775/1/6 771/1/6 776/1/6
f 776/1/6 765/1/6 777/1/6
f 773/1/6 774/1/6 778/1/6
f 774/1/6 775/1/6 778/1/6
f 775/1/6 776/1/6 778/1/6
f 778/1/6 776/1/6 779/1/6
f 779/1/6 776/1/6 780/1/6
f 780/1/6 776/1/6 781/1/6
f 779/1/6 780/1/6 782/1/6
f 782/1/6 780/1/6 783/1/6
f 784/2/6 785/2/6 786/2/6
f 786/2/6 785/2/6 787/2/6
f 787/2/6 785/2/6 788/2/6
f 788/1/6 789/1/6 793/1/6
f 793/1/6 789/1/6 794/1/6
f 794/1/6 789/1/6 795/1/6
f 790/2/6 791/2/6 796/2/6
f 796/2/6 791/2/6 797/2/6
f 797/2/6 791/2/6 798/2/6
f 794/1/6 795/1/6 799/1/6
f 795/1/6 796/1/6 799/1/6
f 796/2/6 797/2/6 800/2/6
f 799/1/6 796/1/6 800/1/6
f 792/1/6 793/1/6 801/1/6
f 800/2/6 797/2/6 804/2/6
f 804/2/6 797/2/6 805/2/6
f 801/1/6 802/1/6 806/1/6
f 792/1/6 801/1/6 806/1/6
f 806/1/6 802/1/6 807/1/6
f 807/1/6 802/1/6 808/1/6
f 803/1/6 804/1/6 809/1/6
f 809/1/6 804/1/6 810/1/6
f 810/1/6 804/1/6 811/1/6
f 807/1/6 808/1/6 812/1/6
f 809/1/6 810/1/6 812/1/6
f 808/1/6 809/1/6 812/1/6
f 812/1/6 810/1/6 813/1/6
f 814/2/6 815/2/6 816/2/6
f 816/2/6 815/2/6 817/2/6
f 818/2/6 819/2/6 820/2/6
f 820/2/6 819/2/6 821/2/6
f 822/1/6 823/1/6 824/1/6
f 824/1/6 823/1/6 825/1/6
f 826/1/6 827/1/6 829/1/6
f 829/1/6 827/1/6 830/1/6
f 828/1/6 829/1/6 832/1/6
f 830/1/6 831/1/6 832/1/6
f 829/1/6 830/1/6 832/1/6
f 832/1/6 831/1/6 833/1/6
f 828/1/6 832/1/6 834/1/6
f 833/1/6 831/1/6 835/1/6
f 828/1/6 834/1/6 836/1/6
f 834/1/6 835/1/6 836/1/6
f 836/1/6 835/1/6 837/1/6
f 835/1/6 831/1/6 838/1/6
f 837/1/6 835/1/6 838/1/6
f 838/1/6 831/1/6 839/1/6
f 837/1/6 838/1/6 840/1/6
f 840/1/6 838/1/6 841/1/6
