# MagicaVoxel @ Ephtracy

# group
o 

# material
mtllib The Twitcher-10.mtl
usemtl palette

# normals
vn -1 0 0
vn 1 0 0
vn 0 0 1
vn 0 0 -1
vn 0 -1 0
vn 0 1 0

# texcoords
vt 0.0683594 0.5
vt 0.537109 0.5
vt 0.560547 0.5
vt 0.857422 0.5
vt 0.974609 0.5
vt 0.978516 0.5
vt 0.982422 0.5
vt 0.986328 0.5
vt 0.990234 0.5
vt 0.994141 0.5

# verts
v 2.9 0.4 0.5
v 2.9 0.4 0.4
v 2.9 0.4 0.2
v 2.9 0.4 0.1
v 2.9 0.6 0.5
v 2.9 0.6 0.4
v 2.9 0.6 0.2
v 2.9 0.6 0.1
v 3 0.6 0.4
v 3 0.6 0.2
v 3 0.7 0.4
v 3 0.7 0.2
v 3.3 0.4 0.5
v 3.3 0.4 0.4
v 3.3 0.4 0.2
v 3.3 0.4 0.1
v 3.3 0.5 0.5
v 3.3 0.5 0.4
v 3.3 0.5 0.2
v 3.3 0.5 0.1
v 3.4 0.3 0.4
v 3.4 0.3 0.2
v 3.4 0.4 0.4
v 3.4 0.4 0.2
v 3.4 0.6 0.5
v 3.4 0.6 0.4
v 3.4 0.6 0.2
v 3.4 0.6 0.1
v 3.4 0.7 0.5
v 3.4 0.7 0.4
v 3.4 0.7 0.2
v 3.4 0.7 0.1
v 3.5 0.3 0.6
v 3.5 0.3 0.4
v 3.5 0.3 0.2
v 3.5 0.3 0
v 3.5 0.4 0.5
v 3.5 0.4 0.4
v 3.5 0.4 0.2
v 3.5 0.4 0.1
v 3.5 0.5 0.7
v 3.5 0.5 0.6
v 3.5 0.5 0
v 3.5 0.5 -0.1
v 3.5 0.6 0.5
v 3.5 0.6 0.1
v 3.5 0.7 0.7
v 3.5 0.7 0.6
v 3.5 0.7 0.5
v 3.5 0.7 0.4
v 3.5 0.7 0.2
v 3.5 0.7 0.1
v 3.5 0.7 0
v 3.5 0.7 -0.1
v 3.5 0.8 0.6
v 3.5 0.8 0.4
v 3.5 0.8 0.2
v 3.5 0.8 0
v 3.6 0.2 0.4
v 3.6 0.2 0.2
v 3.6 0.3 0.4
v 3.6 0.3 0.2
v 3.6 0.8 0.4
v 3.6 0.8 0.2
v 3.6 0.9 0.4
v 3.6 0.9 0.2
v 3.6 1 0.4
v 3.6 1 0.2
v 3.7 0 0.4
v 3.7 0 0.2
v 3.7 0.2 0.5
v 3.7 0.2 0.4
v 3.7 0.2 0.2
v 3.7 0.2 0.1
v 3.7 0.3 0.5
v 3.7 0.3 0.4
v 3.7 0.3 0.2
v 3.7 0.3 0.1
v 3.9 0.1 0.4
v 3.9 0.1 0.2
v 3.9 0.2 0.4
v 3.9 0.2 0.2
v 4.1 0.3 0.6
v 4.1 0.3 0.5
v 4.1 0.3 0.1
v 4.1 0.3 0
v 4.1 0.4 0.6
v 4.1 0.4 0.5
v 4.1 0.4 0.1
v 4.1 0.4 0
v 4.1 0.7 0.4
v 4.1 0.7 0.2
v 4.1 0.8 0.4
v 4.1 0.8 0.2
v 4.2 0.2 0.5
v 4.2 0.2 0.4
v 4.2 0.2 0.2
v 4.2 0.2 0.1
v 4.2 0.3 0.5
v 4.2 0.3 0.4
v 4.2 0.3 0.2
v 4.2 0.3 0.1
v 4.2 0.7 0.6
v 4.2 0.7 0.5
v 4.2 0.7 0.1
v 4.2 0.7 0
v 4.2 0.8 0.6
v 4.2 0.8 0.5
v 4.2 0.8 0.1
v 4.2 0.8 0
v 4.4 0.1 0.4
v 4.4 0.1 0.2
v 4.4 0.2 0.5
v 4.4 0.2 0.4
v 4.4 0.2 0.2
v 4.4 0.2 0.1
v 4.4 0.3 0.6
v 4.4 0.3 0.5
v 4.4 0.3 0.4
v 4.4 0.3 0.2
v 4.4 0.3 0.1
v 4.4 0.3 0
v 4.4 0.4 0.7
v 4.4 0.4 0.6
v 4.4 0.4 0.5
v 4.4 0.4 0.1
v 4.4 0.4 0
v 4.4 0.4 -0.1
v 4.4 0.6 0.5
v 4.4 0.6 0.1
v 4.4 0.7 0.7
v 4.4 0.7 0.6
v 4.4 0.7 0.5
v 4.4 0.7 0.4
v 4.4 0.7 0.2
v 4.4 0.7 0.1
v 4.4 0.7 0
v 4.4 0.7 -0.1
v 4.4 0.8 0.6
v 4.4 0.8 0.5
v 4.4 0.8 0.4
v 4.4 0.8 0.2
v 4.4 0.8 0.1
v 4.4 0.8 0
v 4.4 0.9 0.5
v 4.4 0.9 0.1
v 5 0.9 0.5
v 5 0.9 0.4
v 5 0.9 0.2
v 5 0.9 0.1
v 5 1 0.5
v 5 1 0.4
v 5 1 0.2
v 5 1 0.1
v 5.2 0.1 0.5
v 5.2 0.1 0.1
v 5.2 0.2 0.6
v 5.2 0.2 0.5
v 5.2 0.2 0.1
v 5.2 0.2 0
v 5.2 0.3 0.7
v 5.2 0.3 0.6
v 5.2 0.3 0.5
v 5.2 0.3 0.1
v 5.2 0.3 0
v 5.2 0.3 -0.1
v 5.2 0.4 0.7
v 5.2 0.4 0.6
v 5.2 0.4 0
v 5.2 0.4 -0.1
v 5.2 0.5 0.7
v 5.2 0.5 0.6
v 5.2 0.5 0
v 5.2 0.5 -0.1
v 5.2 0.6 0.7
v 5.2 0.6 0.6
v 5.2 0.6 0
v 5.2 0.6 -0.1
v 5.2 0.7 0.7
v 5.2 0.7 0.6
v 5.2 0.7 0
v 5.2 0.7 -0.1
v 5.2 0.8 0.7
v 5.2 0.8 0.6
v 5.2 0.8 0.5
v 5.2 0.8 0.1
v 5.2 0.8 0
v 5.2 0.8 -0.1
v 5.2 0.9 0.6
v 5.2 0.9 0.5
v 5.2 0.9 0.1
v 5.2 0.9 0
v 3 0.4 0.5
v 3 0.4 0.4
v 3 0.4 0.2
v 3 0.4 0.1
v 3 0.5 0.5
v 3 0.5 0.4
v 3 0.5 0.2
v 3 0.5 0.1
v 3.6 0.3 0.6
v 3.6 0.3 0.5
v 3.6 0.3 0.1
v 3.6 0.3 0
v 3.6 0.4 0.6
v 3.6 0.4 0.5
v 3.6 0.4 0.1
v 3.6 0.4 0
v 3.6 0.6 0.7
v 3.6 0.6 0.6
v 3.6 0.6 0
v 3.6 0.6 -0.1
v 3.6 0.7 0.7
v 3.6 0.7 0.6
v 3.6 0.7 0.5
v 3.6 0.7 0.1
v 3.6 0.7 0
v 3.6 0.7 -0.1
v 3.6 0.8 0.6
v 3.6 0.8 0.5
v 3.6 0.8 0.1
v 3.6 0.8 0
v 3.7 0.7 0.4
v 3.7 0.7 0.2
v 3.7 0.8 0.4
v 3.7 0.8 0.2
v 3.7 0.9 0.4
v 3.7 0.9 0.2
v 3.7 1 0.4
v 3.7 1 0.2
v 3.8 0 0.4
v 3.8 0 0.2
v 3.8 0.2 0.5
v 3.8 0.2 0.4
v 3.8 0.2 0.2
v 3.8 0.2 0.1
v 3.8 0.3 0.5
v 3.8 0.3 0.4
v 3.8 0.3 0.2
v 3.8 0.3 0.1
v 4 0.1 0.4
v 4 0.1 0.2
v 4 0.2 0.4
v 4 0.2 0.2
v 4.3 0.2 0.5
v 4.3 0.2 0.4
v 4.3 0.2 0.2
v 4.3 0.2 0.1
v 4.3 0.3 0.6
v 4.3 0.3 0.5
v 4.3 0.3 0.4
v 4.3 0.3 0.2
v 4.3 0.3 0.1
v 4.3 0.3 0
v 4.3 0.4 0.5
v 4.3 0.4 0.1
v 4.3 0.5 0.7
v 4.3 0.5 0.6
v 4.3 0.5 0
v 4.3 0.5 -0.1
v 4.3 0.6 0.7
v 4.3 0.6 0.6
v 4.3 0.6 0.5
v 4.3 0.6 0.1
v 4.3 0.6 0
v 4.3 0.6 -0.1
v 4.3 0.7 0.5
v 4.3 0.7 0.4
v 4.3 0.7 0.2
v 4.3 0.7 0.1
v 4.3 0.8 0.6
v 4.3 0.8 0.4
v 4.3 0.8 0.2
v 4.3 0.8 0
v 4.4 0.3 0.4
v 4.4 0.3 0.2
v 4.4 0.4 0.5
v 4.4 0.4 0.4
v 4.4 0.4 0.2
v 4.4 0.4 0.1
v 4.4 0.6 0.5
v 4.4 0.6 0.4
v 4.4 0.6 0.2
v 4.4 0.6 0.1
v 4.4 0.7 0.5
v 4.4 0.7 0.4
v 4.4 0.7 0.2
v 4.4 0.7 0.1
v 4.4 0.8 0.4
v 4.4 0.8 0.2
v 4.5 0.3 0.5
v 4.5 0.3 0.4
v 4.5 0.3 0.2
v 4.5 0.3 0.1
v 4.5 0.4 0.6
v 4.5 0.4 0.5
v 4.5 0.4 0.4
v 4.5 0.4 0.2
v 4.5 0.4 0.1
v 4.5 0.4 0
v 4.5 0.7 0.6
v 4.5 0.7 0.5
v 4.5 0.7 0.4
v 4.5 0.7 0.2
v 4.5 0.7 0.1
v 4.5 0.7 0
v 4.5 0.8 0.5
v 4.5 0.8 0.4
v 4.5 0.8 0.2
v 4.5 0.8 0.1
v 4.7 0.5 0.7
v 4.7 0.5 0.6
v 4.7 0.5 0
v 4.7 0.5 -0.1
v 4.7 0.6 0.7
v 4.7 0.6 0.6
v 4.7 0.6 0
v 4.7 0.6 -0.1
v 5.1 0.1 0.4
v 5.1 0.1 0.2
v 5.1 0.2 0.4
v 5.1 0.2 0.2
v 5.3 0.1 0.5
v 5.3 0.1 0.1
v 5.3 0.2 0.6
v 5.3 0.2 0.5
v 5.3 0.2 0.1
v 5.3 0.2 0
v 5.3 0.3 0.7
v 5.3 0.3 0.6
v 5.3 0.3 0.5
v 5.3 0.3 0.1
v 5.3 0.3 0
v 5.3 0.3 -0.1
v 5.3 0.4 0.6
v 5.3 0.4 0.5
v 5.3 0.4 0.1
v 5.3 0.4 0
v 5.3 0.7 0.6
v 5.3 0.7 0.5
v 5.3 0.7 0.1
v 5.3 0.7 0
v 5.3 0.8 0.7
v 5.3 0.8 0.6
v 5.3 0.8 0.5
v 5.3 0.8 0.1
v 5.3 0.8 0
v 5.3 0.8 -0.1
v 5.3 0.9 0.6
v 5.3 0.9 0.5
v 5.3 0.9 0.4
v 5.3 0.9 0.2
v 5.3 0.9 0.1
v 5.3 0.9 0
v 5.3 1 0.5
v 5.3 1 0.4
v 5.3 1 0.2
v 5.3 1 0.1
v 3.5 0.5 0.7
v 3.5 0.7 0.7
v 3.6 0.5 0.7
v 3.6 0.6 0.7
v 3.6 0.7 0.7
v 4.2 0.5 0.7
v 4.2 0.6 0.7
v 4.3 0.5 0.7
v 4.3 0.6 0.7
v 4.4 0.4 0.7
v 4.4 0.7 0.7
v 4.5 0.4 0.7
v 4.5 0.7 0.7
v 4.6 0.4 0.7
v 4.6 0.7 0.7
v 4.7 0.5 0.7
v 4.7 0.6 0.7
v 4.9 0.4 0.7
v 4.9 0.5 0.7
v 4.9 0.6 0.7
v 4.9 0.7 0.7
v 5 0.4 0.7
v 5 0.5 0.7
v 5 0.6 0.7
v 5 0.7 0.7
v 5.2 0.3 0.7
v 5.2 0.4 0.7
v 5.2 0.5 0.7
v 5.2 0.6 0.7
v 5.2 0.7 0.7
v 5.2 0.8 0.7
v 5.3 0.3 0.7
v 5.3 0.8 0.7
v 3.5 0.3 0.6
v 3.5 0.5 0.6
v 3.5 0.7 0.6
v 3.5 0.8 0.6
v 3.6 0.3 0.6
v 3.6 0.4 0.6
v 3.6 0.5 0.6
v 3.6 0.6 0.6
v 3.6 0.7 0.6
v 3.6 0.8 0.6
v 4.1 0.3 0.6
v 4.1 0.4 0.6
v 4.2 0.5 0.6
v 4.2 0.6 0.6
v 4.2 0.7 0.6
v 4.2 0.8 0.6
v 4.3 0.3 0.6
v 4.3 0.5 0.6
v 4.3 0.6 0.6
v 4.3 0.8 0.6
v 4.4 0.3 0.6
v 4.4 0.4 0.6
v 4.4 0.7 0.6
v 4.4 0.8 0.6
v 4.5 0.4 0.6
v 4.5 0.7 0.6
v 4.5 0.8 0.6
v 4.6 0.4 0.6
v 4.6 0.7 0.6
v 4.6 0.8 0.6
v 4.9 0.4 0.6
v 4.9 0.7 0.6
v 4.9 0.8 0.6
v 5 0.4 0.6
v 5 0.7 0.6
v 5 0.8 0.6
v 5.2 0.2 0.6
v 5.2 0.3 0.6
v 5.2 0.4 0.6
v 5.2 0.7 0.6
v 5.2 0.8 0.6
v 5.2 0.9 0.6
v 5.3 0.2 0.6
v 5.3 0.3 0.6
v 5.3 0.8 0.6
v 5.3 0.9 0.6
v 2.9 0.4 0.5
v 2.9 0.6 0.5
v 3 0.4 0.5
v 3 0.5 0.5
v 3.3 0.4 0.5
v 3.3 0.5 0.5
v 3.4 0.4 0.5
v 3.4 0.5 0.5
v 3.4 0.6 0.5
v 3.4 0.7 0.5
v 3.5 0.4 0.5
v 3.5 0.6 0.5
v 3.5 0.7 0.5
v 3.6 0.3 0.5
v 3.6 0.4 0.5
v 3.6 0.7 0.5
v 3.6 0.8 0.5
v 3.7 0.2 0.5
v 3.7 0.3 0.5
v 3.8 0.2 0.5
v 3.8 0.3 0.5
v 4.1 0.3 0.5
v 4.1 0.4 0.5
v 4.2 0.2 0.5
v 4.2 0.3 0.5
v 4.2 0.7 0.5
v 4.2 0.8 0.5
v 4.3 0.2 0.5
v 4.3 0.3 0.5
v 4.3 0.4 0.5
v 4.3 0.6 0.5
v 4.3 0.7 0.5
v 4.4 0.2 0.5
v 4.4 0.3 0.5
v 4.4 0.4 0.5
v 4.4 0.6 0.5
v 4.4 0.7 0.5
v 4.4 0.8 0.5
v 4.4 0.9 0.5
v 4.5 0.8 0.5
v 4.5 0.9 0.5
v 4.6 0.8 0.5
v 4.6 0.9 0.5
v 4.9 0.8 0.5
v 4.9 0.9 0.5
v 5 0.8 0.5
v 5 0.9 0.5
v 5 1 0.5
v 5.2 0.1 0.5
v 5.2 0.2 0.5
v 5.2 0.3 0.5
v 5.2 0.8 0.5
v 5.2 0.9 0.5
v 5.2 1 0.5
v 5.3 0.1 0.5
v 5.3 0.2 0.5
v 5.3 0.9 0.5
v 5.3 1 0.5
v 3 0.4 0.4
v 3 0.5 0.4
v 3 0.6 0.4
v 3 0.7 0.4
v 3.3 0.4 0.4
v 3.3 0.5 0.4
v 3.4 0.3 0.4
v 3.4 0.4 0.4
v 3.4 0.6 0.4
v 3.4 0.7 0.4
v 3.5 0.3 0.4
v 3.5 0.4 0.4
v 3.6 0.2 0.4
v 3.6 0.3 0.4
v 3.6 0.8 0.4
v 3.6 0.9 0.4
v 3.6 1 0.4
v 3.7 0 0.4
v 3.7 0.2 0.4
v 3.7 0.3 0.4
v 3.7 0.8 0.4
v 3.7 0.9 0.4
v 3.7 1 0.4
v 3.8 0 0.4
v 3.8 0.2 0.4
v 3.8 0.3 0.4
v 3.9 0.1 0.4
v 3.9 0.2 0.4
v 3.9 0.3 0.4
v 4 0.1 0.4
v 4 0.2 0.4
v 4.2 0.2 0.4
v 4.2 0.3 0.4
v 4.3 0.2 0.4
v 4.3 0.3 0.4
v 4.3 0.7 0.4
v 4.3 0.8 0.4
v 4.4 0.1 0.4
v 4.4 0.2 0.4
v 4.4 0.3 0.4
v 4.4 0.7 0.4
v 4.4 0.8 0.4
v 5.1 0.1 0.4
v 5.1 0.2 0.4
v 3.7 0.7 0.2
v 3.7 0.8 0.2
v 3.8 0.7 0.2
v 3.9 0.7 0.2
v 4.1 0.7 0.2
v 4.1 0.8 0.2
v 4.4 0.3 0.2
v 4.4 0.4 0.2
v 4.4 0.7 0.2
v 4.4 0.8 0.2
v 4.5 0.3 0.2
v 4.5 0.4 0.2
v 4.5 0.7 0.2
v 4.5 0.8 0.2
v 5 0.9 0.2
v 5 1 0.2
v 5.2 0.9 0.2
v 5.2 1 0.2
v 5.3 0.9 0.2
v 5.3 1 0.2
v 4.4 0.4 0.1
v 4.4 0.6 0.1
v 4.4 0.7 0.1
v 4.5 0.3 0.1
v 4.5 0.4 0.1
v 4.5 0.7 0.1
v 4.5 0.8 0.1
v 4.6 0.7 0.1
v 4.6 0.8 0.1
v 4.9 0.7 0.1
v 4.9 0.8 0.1
v 5 0.7 0.1
v 5 0.8 0.1
v 5.2 0.3 0.1
v 5.2 0.4 0.1
v 5.2 0.7 0.1
v 5.2 0.8 0.1
v 5.3 0.3 0.1
v 5.3 0.4 0.1
v 5.3 0.7 0.1
v 5.3 0.8 0.1
v 4.5 0.4 0
v 4.5 0.7 0
v 4.6 0.4 0
v 4.6 0.7 0
v 4.7 0.5 0
v 4.7 0.6 0
v 4.9 0.4 0
v 4.9 0.5 0
v 4.9 0.6 0
v 4.9 0.7 0
v 5 0.4 0
v 5 0.5 0
v 5 0.6 0
v 5 0.7 0
v 5.2 0.4 0
v 5.2 0.5 0
v 5.2 0.6 0
v 5.2 0.7 0
v 5.3 0.4 0
v 5.3 0.7 0
v 4.5 0.4 0.6
v 4.5 0.7 0.6
v 4.6 0.4 0.6
v 4.6 0.7 0.6
v 4.7 0.5 0.6
v 4.7 0.6 0.6
v 4.9 0.4 0.6
v 4.9 0.5 0.6
v 4.9 0.6 0.6
v 4.9 0.7 0.6
v 5 0.4 0.6
v 5 0.5 0.6
v 5 0.6 0.6
v 5 0.7 0.6
v 5.2 0.4 0.6
v 5.2 0.5 0.6
v 5.2 0.6 0.6
v 5.2 0.7 0.6
v 5.3 0.4 0.6
v 5.3 0.7 0.6
v 4.4 0.4 0.5
v 4.4 0.6 0.5
v 4.4 0.7 0.5
v 4.5 0.3 0.5
v 4.5 0.4 0.5
v 4.5 0.7 0.5
v 4.5 0.8 0.5
v 4.6 0.7 0.5
v 4.6 0.8 0.5
v 4.9 0.7 0.5
v 4.9 0.8 0.5
v 5 0.7 0.5
v 5 0.8 0.5
v 5.2 0.3 0.5
v 5.2 0.4 0.5
v 5.2 0.7 0.5
v 5.2 0.8 0.5
v 5.3 0.3 0.5
v 5.3 0.4 0.5
v 5.3 0.7 0.5
v 5.3 0.8 0.5
v 3.7 0.7 0.4
v 3.7 0.8 0.4
v 3.8 0.7 0.4
v 3.9 0.7 0.4
v 4.1 0.7 0.4
v 4.1 0.8 0.4
v 4.4 0.3 0.4
v 4.4 0.4 0.4
v 4.4 0.7 0.4
v 4.4 0.8 0.4
v 4.5 0.3 0.4
v 4.5 0.4 0.4
v 4.5 0.7 0.4
v 4.5 0.8 0.4
v 5 0.9 0.4
v 5 1 0.4
v 5.2 0.9 0.4
v 5.2 1 0.4
v 5.3 0.9 0.4
v 5.3 1 0.4
v 3 0.4 0.2
v 3 0.5 0.2
v 3 0.6 0.2
v 3 0.7 0.2
v 3.3 0.4 0.2
v 3.3 0.5 0.2
v 3.4 0.3 0.2
v 3.4 0.4 0.2
v 3.4 0.6 0.2
v 3.4 0.7 0.2
v 3.5 0.3 0.2
v 3.5 0.4 0.2
v 3.6 0.2 0.2
v 3.6 0.3 0.2
v 3.6 0.8 0.2
v 3.6 0.9 0.2
v 3.6 1 0.2
v 3.7 0 0.2
v 3.7 0.2 0.2
v 3.7 0.3 0.2
v 3.7 0.8 0.2
v 3.7 0.9 0.2
v 3.7 1 0.2
v 3.8 0 0.2
v 3.8 0.2 0.2
v 3.8 0.3 0.2
v 3.9 0.1 0.2
v 3.9 0.2 0.2
v 3.9 0.3 0.2
v 4 0.1 0.2
v 4 0.2 0.2
v 4.2 0.2 0.2
v 4.2 0.3 0.2
v 4.3 0.2 0.2
v 4.3 0.3 0.2
v 4.3 0.7 0.2
v 4.3 0.8 0.2
v 4.4 0.1 0.2
v 4.4 0.2 0.2
v 4.4 0.3 0.2
v 4.4 0.7 0.2
v 4.4 0.8 0.2
v 5.1 0.1 0.2
v 5.1 0.2 0.2
v 2.9 0.4 0.1
v 2.9 0.6 0.1
v 3 0.4 0.1
v 3 0.5 0.1
v 3.3 0.4 0.1
v 3.3 0.5 0.1
v 3.4 0.4 0.1
v 3.4 0.5 0.1
v 3.4 0.6 0.1
v 3.4 0.7 0.1
v 3.5 0.4 0.1
v 3.5 0.6 0.1
v 3.5 0.7 0.1
v 3.6 0.3 0.1
v 3.6 0.4 0.1
v 3.6 0.7 0.1
v 3.6 0.8 0.1
v 3.7 0.2 0.1
v 3.7 0.3 0.1
v 3.8 0.2 0.1
v 3.8 0.3 0.1
v 4.1 0.3 0.1
v 4.1 0.4 0.1
v 4.2 0.2 0.1
v 4.2 0.3 0.1
v 4.2 0.7 0.1
v 4.2 0.8 0.1
v 4.3 0.2 0.1
v 4.3 0.3 0.1
v 4.3 0.4 0.1
v 4.3 0.6 0.1
v 4.3 0.7 0.1
v 4.4 0.2 0.1
v 4.4 0.3 0.1
v 4.4 0.4 0.1
v 4.4 0.6 0.1
v 4.4 0.7 0.1
v 4.4 0.8 0.1
v 4.4 0.9 0.1
v 4.5 0.8 0.1
v 4.5 0.9 0.1
v 4.6 0.8 0.1
v 4.6 0.9 0.1
v 4.9 0.8 0.1
v 4.9 0.9 0.1
v 5 0.8 0.1
v 5 0.9 0.1
v 5 1 0.1
v 5.2 0.1 0.1
v 5.2 0.2 0.1
v 5.2 0.3 0.1
v 5.2 0.8 0.1
v 5.2 0.9 0.1
v 5.2 1 0.1
v 5.3 0.1 0.1
v 5.3 0.2 0.1
v 5.3 0.9 0.1
v 5.3 1 0.1
v 3.5 0.3 0
v 3.5 0.5 0
v 3.5 0.7 0
v 3.5 0.8 0
v 3.6 0.3 0
v 3.6 0.4 0
v 3.6 0.5 0
v 3.6 0.6 0
v 3.6 0.7 0
v 3.6 0.8 0
v 4.1 0.3 0
v 4.1 0.4 0
v 4.2 0.5 0
v 4.2 0.6 0
v 4.2 0.7 0
v 4.2 0.8 0
v 4.3 0.3 0
v 4.3 0.5 0
v 4.3 0.6 0
v 4.3 0.8 0
v 4.4 0.3 0
v 4.4 0.4 0
v 4.4 0.7 0
v 4.4 0.8 0
v 4.5 0.4 0
v 4.5 0.7 0
v 4.5 0.8 0
v 4.6 0.4 0
v 4.6 0.7 0
v 4.6 0.8 0
v 4.9 0.4 0
v 4.9 0.7 0
v 4.9 0.8 0
v 5 0.4 0
v 5 0.7 0
v 5 0.8 0
v 5.2 0.2 0
v 5.2 0.3 0
v 5.2 0.4 0
v 5.2 0.7 0
v 5.2 0.8 0
v 5.2 0.9 0
v 5.3 0.2 0
v 5.3 0.3 0
v 5.3 0.8 0
v 5.3 0.9 0
v 3.5 0.5 -0.1
v 3.5 0.7 -0.1
v 3.6 0.5 -0.1
v 3.6 0.6 -0.1
v 3.6 0.7 -0.1
v 4.2 0.5 -0.1
v 4.2 0.6 -0.1
v 4.3 0.5 -0.1
v 4.3 0.6 -0.1
v 4.4 0.4 -0.1
v 4.4 0.7 -0.1
v 4.5 0.4 -0.1
v 4.5 0.7 -0.1
v 4.6 0.4 -0.1
v 4.6 0.7 -0.1
v 4.7 0.5 -0.1
v 4.7 0.6 -0.1
v 4.9 0.4 -0.1
v 4.9 0.5 -0.1
v 4.9 0.6 -0.1
v 4.9 0.7 -0.1
v 5 0.4 -0.1
v 5 0.5 -0.1
v 5 0.6 -0.1
v 5 0.7 -0.1
v 5.2 0.3 -0.1
v 5.2 0.4 -0.1
v 5.2 0.5 -0.1
v 5.2 0.6 -0.1
v 5.2 0.7 -0.1
v 5.2 0.8 -0.1
v 5.3 0.3 -0.1
v 5.3 0.8 -0.1
v 3.7 0 0.4
v 3.8 0 0.4
v 3.7 0 0.2
v 3.8 0 0.2
v 5.2 0.1 0.5
v 5.3 0.1 0.5
v 3.9 0.1 0.4
v 4 0.1 0.4
v 4.4 0.1 0.4
v 5.1 0.1 0.4
v 3.9 0.1 0.2
v 4 0.1 0.2
v 4.4 0.1 0.2
v 5.1 0.1 0.2
v 5.2 0.1 0.1
v 5.3 0.1 0.1
v 5.2 0.2 0.6
v 5.3 0.2 0.6
v 3.7 0.2 0.5
v 3.8 0.2 0.5
v 4.2 0.2 0.5
v 4.3 0.2 0.5
v 4.4 0.2 0.5
v 5.2 0.2 0.5
v 5.3 0.2 0.5
v 3.6 0.2 0.4
v 3.7 0.2 0.4
v 3.8 0.2 0.4
v 3.9 0.2 0.4
v 4 0.2 0.4
v 4.2 0.2 0.4
v 4.3 0.2 0.4
v 4.4 0.2 0.4
v 5.1 0.2 0.4
v 3.6 0.2 0.2
v 3.7 0.2 0.2
v 3.8 0.2 0.2
v 3.9 0.2 0.2
v 4 0.2 0.2
v 4.2 0.2 0.2
v 4.3 0.2 0.2
v 4.4 0.2 0.2
v 5.1 0.2 0.2
v 3.7 0.2 0.1
v 3.8 0.2 0.1
v 4.2 0.2 0.1
v 4.3 0.2 0.1
v 4.4 0.2 0.1
v 5.2 0.2 0.1
v 5.3 0.2 0.1
v 5.2 0.2 0
v 5.3 0.2 0
v 5.2 0.3 0.7
v 5.3 0.3 0.7
v 3.5 0.3 0.6
v 3.6 0.3 0.6
v 4.1 0.3 0.6
v 4.3 0.3 0.6
v 4.4 0.3 0.6
v 5.2 0.3 0.6
v 5.3 0.3 0.6
v 3.6 0.3 0.5
v 3.7 0.3 0.5
v 3.8 0.3 0.5
v 4.1 0.3 0.5
v 4.2 0.3 0.5
v 4.3 0.3 0.5
v 4.4 0.3 0.5
v 5.2 0.3 0.5
v 3.4 0.3 0.4
v 3.5 0.3 0.4
v 3.6 0.3 0.4
v 3.7 0.3 0.4
v 3.8 0.3 0.4
v 3.9 0.3 0.4
v 4.2 0.3 0.4
v 4.3 0.3 0.4
v 4.4 0.3 0.4
v 3.4 0.3 0.2
v 3.5 0.3 0.2
v 3.6 0.3 0.2
v 3.7 0.3 0.2
v 3.8 0.3 0.2
v 3.9 0.3 0.2
v 4.2 0.3 0.2
v 4.3 0.3 0.2
v 4.4 0.3 0.2
v 3.6 0.3 0.1
v 3.7 0.3 0.1
v 3.8 0.3 0.1
v 4.1 0.3 0.1
v 4.2 0.3 0.1
v 4.3 0.3 0.1
v 4.4 0.3 0.1
v 5.2 0.3 0.1
v 3.5 0.3 0
v 3.6 0.3 0
v 4.1 0.3 0
v 4.3 0.3 0
v 4.4 0.3 0
v 5.2 0.3 0
v 5.3 0.3 0
v 5.2 0.3 -0.1
v 5.3 0.3 -0.1
v 4.4 0.4 0.7
v 4.5 0.4 0.7
v 4.6 0.4 0.7
v 4.9 0.4 0.7
v 5 0.4 0.7
v 5.2 0.4 0.7
v 3.6 0.4 0.6
v 4.1 0.4 0.6
v 4.4 0.4 0.6
v 4.5 0.4 0.6
v 4.6 0.4 0.6
v 4.9 0.4 0.6
v 5 0.4 0.6
v 5.2 0.4 0.6
v 2.9 0.4 0.5
v 3 0.4 0.5
v 3.3 0.4 0.5
v 3.4 0.4 0.5
v 3.5 0.4 0.5
v 3.6 0.4 0.5
v 4.1 0.4 0.5
v 2.9 0.4 0.4
v 3 0.4 0.4
v 3.3 0.4 0.4
v 3.4 0.4 0.4
v 3.5 0.4 0.4
v 2.9 0.4 0.2
v 3 0.4 0.2
v 3.3 0.4 0.2
v 3.4 0.4 0.2
v 3.5 0.4 0.2
v 2.9 0.4 0.1
v 3 0.4 0.1
v 3.3 0.4 0.1
v 3.4 0.4 0.1
v 3.5 0.4 0.1
v 3.6 0.4 0.1
v 4.1 0.4 0.1
v 3.6 0.4 0
v 4.1 0.4 0
v 4.4 0.4 0
v 4.5 0.4 0
v 4.6 0.4 0
v 4.9 0.4 0
v 5 0.4 0
v 5.2 0.4 0
v 4.4 0.4 -0.1
v 4.5 0.4 -0.1
v 4.6 0.4 -0.1
v 4.9 0.4 -0.1
v 5 0.4 -0.1
v 5.2 0.4 -0.1
v 3.5 0.5 0.7
v 3.6 0.5 0.7
v 4.2 0.5 0.7
v 4.3 0.5 0.7
v 3.5 0.5 0.6
v 3.6 0.5 0.6
v 4.2 0.5 0.6
v 4.3 0.5 0.6
v 3 0.5 0.5
v 3.3 0.5 0.5
v 3 0.5 0.4
v 3.3 0.5 0.4
v 3 0.5 0.2
v 3.3 0.5 0.2
v 3 0.5 0.1
v 3.3 0.5 0.1
v 3.5 0.5 0
v 3.6 0.5 0
v 4.2 0.5 0
v 4.3 0.5 0
v 3.5 0.5 -0.1
v 3.6 0.5 -0.1
v 4.2 0.5 -0.1
v 4.3 0.5 -0.1
v 4.7 0.6 0.7
v 4.9 0.6 0.7
v 5 0.6 0.7
v 5.2 0.6 0.7
v 4.7 0.6 0.6
v 4.9 0.6 0.6
v 5 0.6 0.6
v 5.2 0.6 0.6
v 4.7 0.6 0
v 4.9 0.6 0
v 5 0.6 0
v 5.2 0.6 0
v 4.7 0.6 -0.1
v 4.9 0.6 -0.1
v 5 0.6 -0.1
v 5.2 0.6 -0.1
v 4.5 0.7 0.6
v 4.6 0.7 0.6
v 4.9 0.7 0.6
v 5 0.7 0.6
v 5.2 0.7 0.6
v 5.3 0.7 0.6
v 4.4 0.7 0.5
v 4.5 0.7 0.5
v 4.6 0.7 0.5
v 4.9 0.7 0.5
v 5 0.7 0.5
v 5.2 0.7 0.5
v 5.3 0.7 0.5
v 4.4 0.7 0.4
v 4.5 0.7 0.4
v 4.4 0.7 0.2
v 4.5 0.7 0.2
v 4.4 0.7 0.1
v 4.5 0.7 0.1
v 4.6 0.7 0.1
v 4.9 0.7 0.1
v 5 0.7 0.1
v 5.2 0.7 0.1
v 5.3 0.7 0.1
v 4.5 0.7 0
v 4.6 0.7 0
v 4.9 0.7 0
v 5 0.7 0
v 5.2 0.7 0
v 5.3 0.7 0
v 4.5 0.8 0.5
v 4.6 0.8 0.5
v 4.9 0.8 0.5
v 5 0.8 0.5
v 5.2 0.8 0.5
v 5.3 0.8 0.5
v 4.4 0.8 0.4
v 4.5 0.8 0.4
v 4.4 0.8 0.2
v 4.5 0.8 0.2
v 4.5 0.8 0.1
v 4.6 0.8 0.1
v 4.9 0.8 0.1
v 5 0.8 0.1
v 5.2 0.8 0.1
v 5.3 0.8 0.1
v 4.5 0.3 0.5
v 5.2 0.3 0.5
v 5.3 0.3 0.5
v 4.4 0.3 0.4
v 4.5 0.3 0.4
v 4.4 0.3 0.2
v 4.5 0.3 0.2
v 4.5 0.3 0.1
v 5.2 0.3 0.1
v 5.3 0.3 0.1
v 4.5 0.4 0.6
v 4.6 0.4 0.6
v 4.9 0.4 0.6
v 5 0.4 0.6
v 5.2 0.4 0.6
v 5.3 0.4 0.6
v 4.4 0.4 0.5
v 4.5 0.4 0.5
v 5.2 0.4 0.5
v 5.3 0.4 0.5
v 4.4 0.4 0.4
v 4.5 0.4 0.4
v 4.4 0.4 0.2
v 4.5 0.4 0.2
v 4.4 0.4 0.1
v 4.5 0.4 0.1
v 5.2 0.4 0.1
v 5.3 0.4 0.1
v 4.5 0.4 0
v 4.6 0.4 0
v 4.9 0.4 0
v 5 0.4 0
v 5.2 0.4 0
v 5.3 0.4 0
v 4.7 0.5 0.7
v 4.9 0.5 0.7
v 5 0.5 0.7
v 5.2 0.5 0.7
v 4.7 0.5 0.6
v 4.9 0.5 0.6
v 5 0.5 0.6
v 5.2 0.5 0.6
v 4.7 0.5 0
v 4.9 0.5 0
v 5 0.5 0
v 5.2 0.5 0
v 4.7 0.5 -0.1
v 4.9 0.5 -0.1
v 5 0.5 -0.1
v 5.2 0.5 -0.1
v 3.6 0.6 0.7
v 4.2 0.6 0.7
v 4.3 0.6 0.7
v 3.6 0.6 0.6
v 4.2 0.6 0.6
v 4.3 0.6 0.6
v 2.9 0.6 0.5
v 3.4 0.6 0.5
v 2.9 0.6 0.4
v 3 0.6 0.4
v 3.4 0.6 0.4
v 2.9 0.6 0.2
v 3 0.6 0.2
v 3.4 0.6 0.2
v 2.9 0.6 0.1
v 3.4 0.6 0.1
v 3.6 0.6 0
v 4.2 0.6 0
v 4.3 0.6 0
v 3.6 0.6 -0.1
v 4.2 0.6 -0.1
v 4.3 0.6 -0.1
v 3.5 0.7 0.7
v 3.6 0.7 0.7
v 4.4 0.7 0.7
v 4.5 0.7 0.7
v 4.6 0.7 0.7
v 4.9 0.7 0.7
v 5 0.7 0.7
v 5.2 0.7 0.7
v 3.5 0.7 0.6
v 3.6 0.7 0.6
v 4.2 0.7 0.6
v 4.4 0.7 0.6
v 4.5 0.7 0.6
v 4.6 0.7 0.6
v 4.9 0.7 0.6
v 5 0.7 0.6
v 5.2 0.7 0.6
v 3.4 0.7 0.5
v 3.5 0.7 0.5
v 3.6 0.7 0.5
v 4.2 0.7 0.5
v 4.3 0.7 0.5
v 4.4 0.7 0.5
v 3 0.7 0.4
v 3.4 0.7 0.4
v 3.5 0.7 0.4
v 3.7 0.7 0.4
v 3.8 0.7 0.4
v 3.9 0.7 0.4
v 4.1 0.7 0.4
v 4.3 0.7 0.4
v 4.4 0.7 0.4
v 3 0.7 0.2
v 3.4 0.7 0.2
v 3.5 0.7 0.2
v 3.7 0.7 0.2
v 3.8 0.7 0.2
v 3.9 0.7 0.2
v 4.1 0.7 0.2
v 4.3 0.7 0.2
v 4.4 0.7 0.2
v 3.4 0.7 0.1
v 3.5 0.7 0.1
v 3.6 0.7 0.1
v 4.2 0.7 0.1
v 4.3 0.7 0.1
v 4.4 0.7 0.1
v 3.5 0.7 0
v 3.6 0.7 0
v 4.2 0.7 0
v 4.4 0.7 0
v 4.5 0.7 0
v 4.6 0.7 0
v 4.9 0.7 0
v 5 0.7 0
v 5.2 0.7 0
v 3.5 0.7 -0.1
v 3.6 0.7 -0.1
v 4.4 0.7 -0.1
v 4.5 0.7 -0.1
v 4.6 0.7 -0.1
v 4.9 0.7 -0.1
v 5 0.7 -0.1
v 5.2 0.7 -0.1
v 5.2 0.8 0.7
v 5.3 0.8 0.7
v 3.5 0.8 0.6
v 3.6 0.8 0.6
v 4.2 0.8 0.6
v 4.3 0.8 0.6
v 4.4 0.8 0.6
v 4.5 0.8 0.6
v 4.6 0.8 0.6
v 4.9 0.8 0.6
v 5 0.8 0.6
v 5.2 0.8 0.6
v 5.3 0.8 0.6
v 3.6 0.8 0.5
v 4.2 0.8 0.5
v 4.4 0.8 0.5
v 4.5 0.8 0.5
v 4.6 0.8 0.5
v 4.9 0.8 0.5
v 5 0.8 0.5
v 5.2 0.8 0.5
v 3.5 0.8 0.4
v 3.6 0.8 0.4
v 3.7 0.8 0.4
v 4.1 0.8 0.4
v 4.2 0.8 0.4
v 4.3 0.8 0.4
v 4.4 0.8 0.4
v 3.5 0.8 0.2
v 3.6 0.8 0.2
v 3.7 0.8 0.2
v 4.1 0.8 0.2
v 4.2 0.8 0.2
v 4.3 0.8 0.2
v 4.4 0.8 0.2
v 3.6 0.8 0.1
v 4.2 0.8 0.1
v 4.4 0.8 0.1
v 4.5 0.8 0.1
v 4.6 0.8 0.1
v 4.9 0.8 0.1
v 5 0.8 0.1
v 5.2 0.8 0.1
v 3.5 0.8 0
v 3.6 0.8 0
v 4.2 0.8 0
v 4.3 0.8 0
v 4.4 0.8 0
v 4.5 0.8 0
v 4.6 0.8 0
v 4.9 0.8 0
v 5 0.8 0
v 5.2 0.8 0
v 5.3 0.8 0
v 5.2 0.8 -0.1
v 5.3 0.8 -0.1
v 5.2 0.9 0.6
v 5.3 0.9 0.6
v 4.4 0.9 0.5
v 4.5 0.9 0.5
v 4.6 0.9 0.5
v 4.9 0.9 0.5
v 5 0.9 0.5
v 5.2 0.9 0.5
v 5.3 0.9 0.5
v 5 0.9 0.4
v 5.2 0.9 0.4
v 5.3 0.9 0.4
v 5 0.9 0.2
v 5.2 0.9 0.2
v 5.3 0.9 0.2
v 4.4 0.9 0.1
v 4.5 0.9 0.1
v 4.6 0.9 0.1
v 4.9 0.9 0.1
v 5 0.9 0.1
v 5.2 0.9 0.1
v 5.3 0.9 0.1
v 5.2 0.9 0
v 5.3 0.9 0
v 5 1 0.5
v 5.2 1 0.5
v 5.3 1 0.5
v 3.6 1 0.4
v 3.7 1 0.4
v 5 1 0.4
v 5.2 1 0.4
v 5.3 1 0.4
v 3.6 1 0.2
v 3.7 1 0.2
v 5 1 0.2
v 5.2 1 0.2
v 5.3 1 0.2
v 5 1 0.1
v 5.2 1 0.1
v 5.3 1 0.1

# faces
f 5/2/1 2/2/1 1/2/1
f 6/3/1 3/3/1 2/3/1
f 6/2/1 2/2/1 5/2/1
f 7/2/1 4/2/1 3/2/1
f 7/3/1 3/3/1 6/3/1
f 8/2/1 4/2/1 7/2/1
f 11/3/1 10/3/1 9/3/1
f 12/3/1 10/3/1 11/3/1
f 17/3/1 14/3/1 13/3/1
f 18/3/1 14/3/1 17/3/1
f 19/3/1 16/3/1 15/3/1
f 20/3/1 16/3/1 19/3/1
f 23/3/1 22/3/1 21/3/1
f 24/3/1 22/3/1 23/3/1
f 29/3/1 26/3/1 25/3/1
f 30/3/1 26/3/1 29/3/1
f 31/3/1 28/3/1 27/3/1
f 32/3/1 28/3/1 31/3/1
f 37/2/1 34/2/1 33/2/1
f 38/2/1 34/2/1 37/2/1
f 39/2/1 36/2/1 35/2/1
f 40/2/1 36/2/1 39/2/1
f 42/2/1 37/2/1 33/2/1
f 43/2/1 36/2/1 40/2/1
f 45/2/1 37/2/1 42/2/1
f 46/2/1 43/2/1 40/2/1
f 47/6/1 42/6/1 41/6/1
f 48/2/1 45/2/1 42/2/1
f 48/6/1 42/6/1 47/6/1
f 49/2/1 45/2/1 48/2/1
f 52/2/1 43/2/1 46/2/1
f 53/6/1 44/6/1 43/6/1
f 53/2/1 43/2/1 52/2/1
f 54/6/1 44/6/1 53/6/1
f 55/2/1 49/2/1 48/2/1
f 55/2/1 50/2/1 49/2/1
f 56/3/1 51/3/1 50/3/1
f 56/2/1 50/2/1 55/2/1
f 57/2/1 52/2/1 51/2/1
f 57/3/1 51/3/1 56/3/1
f 57/2/1 53/2/1 52/2/1
f 58/2/1 53/2/1 57/2/1
f 61/8/1 60/8/1 59/8/1
f 62/8/1 60/8/1 61/8/1
f 65/6/1 64/6/1 63/6/1
f 66/6/1 64/6/1 65/6/1
f 67/7/1 66/7/1 65/7/1
f 68/7/1 66/7/1 67/7/1
f 72/2/1 70/2/1 69/2/1
f 73/2/1 70/2/1 72/2/1
f 75/8/1 72/8/1 71/8/1
f 76/8/1 72/8/1 75/8/1
f 77/8/1 74/8/1 73/8/1
f 78/8/1 74/8/1 77/8/1
f 81/6/1 80/6/1 79/6/1
f 82/6/1 80/6/1 81/6/1
f 87/8/1 84/8/1 83/8/1
f 88/8/1 84/8/1 87/8/1
f 89/8/1 86/8/1 85/8/1
f 90/8/1 86/8/1 89/8/1
f 93/8/1 92/8/1 91/8/1
f 94/8/1 92/8/1 93/8/1
f 99/8/1 96/8/1 95/8/1
f 100/8/1 96/8/1 99/8/1
f 101/8/1 98/8/1 97/8/1
f 102/8/1 98/8/1 101/8/1
f 107/2/1 104/2/1 103/2/1
f 108/2/1 104/2/1 107/2/1
f 109/2/1 106/2/1 105/2/1
f 110/2/1 106/2/1 109/2/1
f 114/2/1 112/2/1 111/2/1
f 115/2/1 112/2/1 114/2/1
f 118/2/1 114/2/1 113/2/1
f 119/2/1 114/2/1 118/2/1
f 120/2/1 116/2/1 115/2/1
f 121/2/1 116/2/1 120/2/1
f 124/2/1 118/2/1 117/2/1
f 125/2/1 118/2/1 124/2/1
f 126/2/1 122/2/1 121/2/1
f 127/2/1 122/2/1 126/2/1
f 129/7/1 125/7/1 124/7/1
f 129/7/1 124/7/1 123/7/1
f 130/7/1 128/7/1 127/7/1
f 130/7/1 127/7/1 126/7/1
f 131/7/1 129/7/1 123/7/1
f 132/7/1 129/7/1 131/7/1
f 133/7/1 129/7/1 132/7/1
f 136/7/1 128/7/1 130/7/1
f 137/7/1 128/7/1 136/7/1
f 138/7/1 128/7/1 137/7/1
f 139/7/1 134/7/1 133/7/1
f 139/7/1 133/7/1 132/7/1
f 140/7/1 134/7/1 139/7/1
f 141/7/1 134/7/1 140/7/1
f 142/7/1 137/7/1 136/7/1
f 142/7/1 136/7/1 135/7/1
f 143/7/1 137/7/1 142/7/1
f 144/7/1 137/7/1 143/7/1
f 145/7/1 141/7/1 140/7/1
f 145/7/1 143/7/1 142/7/1
f 145/7/1 142/7/1 141/7/1
f 146/7/1 143/7/1 145/7/1
f 151/7/1 148/7/1 147/7/1
f 152/7/1 148/7/1 151/7/1
f 153/7/1 150/7/1 149/7/1
f 154/7/1 150/7/1 153/7/1
f 158/4/1 156/4/1 155/4/1
f 159/4/1 156/4/1 158/4/1
f 162/4/1 158/4/1 157/4/1
f 163/4/1 158/4/1 162/4/1
f 164/4/1 160/4/1 159/4/1
f 165/4/1 160/4/1 164/4/1
f 167/4/1 162/4/1 161/4/1
f 168/4/1 162/4/1 167/4/1
f 169/4/1 166/4/1 165/4/1
f 170/4/1 166/4/1 169/4/1
f 175/4/1 172/4/1 171/4/1
f 176/4/1 172/4/1 175/4/1
f 177/4/1 174/4/1 173/4/1
f 178/4/1 174/4/1 177/4/1
f 183/4/1 180/4/1 179/4/1
f 184/4/1 180/4/1 183/4/1
f 187/4/1 182/4/1 181/4/1
f 188/4/1 182/4/1 187/4/1
f 189/4/1 185/4/1 184/4/1
f 190/4/1 185/4/1 189/4/1
f 191/4/1 187/4/1 186/4/1
f 192/4/1 187/4/1 191/4/1
f 193/2/2 194/2/2 197/2/2
f 197/2/2 194/2/2 198/2/2
f 195/2/2 196/2/2 199/2/2
f 199/2/2 196/2/2 200/2/2
f 201/2/2 202/2/2 205/2/2
f 205/2/2 202/2/2 206/2/2
f 203/2/2 204/2/2 207/2/2
f 207/2/2 204/2/2 208/2/2
f 209/6/2 210/6/2 213/6/2
f 213/6/2 210/6/2 214/6/2
f 211/6/2 212/6/2 217/6/2
f 217/6/2 212/6/2 218/6/2
f 214/2/2 215/2/2 219/2/2
f 219/2/2 215/2/2 220/2/2
f 216/2/2 217/2/2 221/2/2
f 221/2/2 217/2/2 222/2/2
f 223/6/2 224/6/2 225/6/2
f 225/6/2 224/6/2 226/6/2
f 225/6/2 226/6/2 227/6/2
f 227/6/2 226/6/2 228/6/2
f 227/7/2 228/7/2 229/7/2
f 229/7/2 228/7/2 230/7/2
f 231/2/2 232/2/2 234/2/2
f 234/2/2 232/2/2 235/2/2
f 233/8/2 234/8/2 237/8/2
f 237/8/2 234/8/2 238/8/2
f 235/8/2 236/8/2 239/8/2
f 239/8/2 236/8/2 240/8/2
f 241/6/2 242/6/2 243/6/2
f 243/6/2 242/6/2 244/6/2
f 245/8/2 246/8/2 250/8/2
f 250/8/2 246/8/2 251/8/2
f 247/8/2 248/8/2 252/8/2
f 252/8/2 248/8/2 253/8/2
f 249/8/2 250/8/2 255/8/2
f 253/8/2 254/8/2 256/8/2
f 249/8/2 255/8/2 258/8/2
f 256/8/2 254/8/2 259/8/2
f 257/2/2 258/2/2 261/2/2
f 258/8/2 255/8/2 262/8/2
f 261/2/2 258/2/2 262/2/2
f 262/8/2 255/8/2 263/8/2
f 256/8/2 259/8/2 264/8/2
f 259/2/2 260/2/2 265/2/2
f 264/8/2 259/8/2 265/8/2
f 265/2/2 260/2/2 266/2/2
f 262/2/2 263/2/2 267/2/2
f 264/2/2 265/2/2 270/2/2
f 267/2/2 268/2/2 271/2/2
f 262/2/2 267/2/2 271/2/2
f 271/2/2 268/2/2 272/2/2
f 269/2/2 270/2/2 273/2/2
f 270/2/2 265/2/2 274/2/2
f 273/2/2 270/2/2 274/2/2
f 275/10/2 276/10/2 278/10/2
f 278/10/2 276/10/2 279/10/2
f 277/7/2 278/7/2 281/7/2
f 278/10/2 279/10/2 282/10/2
f 281/7/2 278/7/2 282/7/2
f 279/7/2 280/7/2 283/7/2
f 282/10/2 279/10/2 283/10/2
f 283/7/2 280/7/2 284/7/2
f 281/8/2 282/8/2 285/8/2
f 282/10/2 283/10/2 286/10/2
f 285/8/2 282/8/2 286/8/2
f 283/8/2 284/8/2 287/8/2
f 286/10/2 283/10/2 287/10/2
f 287/8/2 284/8/2 288/8/2
f 286/7/2 287/7/2 289/7/2
f 289/7/2 287/7/2 290/7/2
f 291/10/2 292/10/2 296/10/2
f 296/10/2 292/10/2 297/10/2
f 293/10/2 294/10/2 298/10/2
f 298/10/2 294/10/2 299/10/2
f 295/7/2 296/7/2 301/7/2
f 301/7/2 296/7/2 302/7/2
f 299/7/2 300/7/2 305/7/2
f 305/7/2 300/7/2 306/7/2
f 302/7/2 303/7/2 307/7/2
f 307/7/2 303/7/2 308/7/2
f 304/7/2 305/7/2 309/7/2
f 309/7/2 305/7/2 310/7/2
f 311/7/2 312/7/2 315/7/2
f 315/7/2 312/7/2 316/7/2
f 313/7/2 314/7/2 317/7/2
f 317/7/2 314/7/2 318/7/2
f 319/2/2 320/2/2 321/2/2
f 321/2/2 320/2/2 322/2/2
f 323/4/2 324/4/2 326/4/2
f 326/4/2 324/4/2 327/4/2
f 325/4/2 326/4/2 330/4/2
f 327/4/2 328/4/2 330/4/2
f 326/4/2 327/4/2 330/4/2
f 330/4/2 328/4/2 331/4/2
f 331/4/2 328/4/2 332/4/2
f 332/4/2 328/4/2 333/4/2
f 329/4/2 330/4/2 335/4/2
f 330/4/2 331/4/2 335/4/2
f 335/4/2 331/4/2 336/4/2
f 333/4/2 334/4/2 337/4/2
f 332/4/2 333/4/2 337/4/2
f 337/4/2 334/4/2 338/4/2
f 329/4/2 335/4/2 339/4/2
f 338/4/2 334/4/2 342/4/2
f 339/4/2 340/4/2 343/4/2
f 329/4/2 339/4/2 343/4/2
f 343/4/2 340/4/2 344/4/2
f 344/4/2 340/4/2 345/4/2
f 341/4/2 342/4/2 346/4/2
f 342/4/2 334/4/2 347/4/2
f 346/4/2 342/4/2 347/4/2
f 347/4/2 334/4/2 348/4/2
f 344/4/2 345/4/2 349/4/2
f 345/4/2 346/4/2 349/4/2
f 346/4/2 347/4/2 349/4/2
f 349/4/2 347/4/2 350/4/2
f 350/4/2 347/4/2 351/4/2
f 351/4/2 347/4/2 352/4/2
f 352/4/2 347/4/2 353/4/2
f 353/4/2 347/4/2 354/4/2
f 350/4/2 351/4/2 355/4/2
f 355/4/2 351/4/2 356/4/2
f 352/4/2 353/4/2 357/4/2
f 357/4/2 353/4/2 358/4/2
f 361/6/3 360/6/3 359/6/3
f 362/6/3 360/6/3 361/6/3
f 363/6/3 360/6/3 362/6/3
f 364/8/3 362/8/3 361/8/3
f 365/8/3 362/8/3 364/8/3
f 366/2/3 365/2/3 364/2/3
f 367/2/3 365/2/3 366/2/3
f 370/7/3 369/7/3 368/7/3
f 371/7/3 369/7/3 370/7/3
f 372/1/3 371/1/3 370/1/3
f 373/1/3 371/1/3 372/1/3
f 374/7/3 373/7/3 372/7/3
f 375/7/3 373/7/3 374/7/3
f 376/7/3 374/7/3 372/7/3
f 377/7/3 374/7/3 376/7/3
f 378/7/3 373/7/3 375/7/3
f 379/7/3 373/7/3 378/7/3
f 380/1/3 377/1/3 376/1/3
f 381/1/3 377/1/3 380/1/3
f 382/1/3 379/1/3 378/1/3
f 383/1/3 379/1/3 382/1/3
f 385/7/3 381/7/3 380/7/3
f 386/7/3 381/7/3 385/7/3
f 387/7/3 383/7/3 382/7/3
f 388/7/3 383/7/3 387/7/3
f 390/4/3 388/4/3 387/4/3
f 390/4/3 389/4/3 388/4/3
f 390/4/3 386/4/3 385/4/3
f 390/4/3 387/4/3 386/4/3
f 390/4/3 385/4/3 384/4/3
f 391/4/3 389/4/3 390/4/3
f 396/2/3 393/2/3 392/2/3
f 397/2/3 393/2/3 396/2/3
f 398/2/3 393/2/3 397/2/3
f 400/2/3 395/2/3 394/2/3
f 401/2/3 395/2/3 400/2/3
f 403/8/3 398/8/3 397/8/3
f 404/8/3 398/8/3 403/8/3
f 404/8/3 403/8/3 402/8/3
f 405/8/3 400/8/3 399/8/3
f 406/8/3 400/8/3 405/8/3
f 408/8/3 404/8/3 402/8/3
f 409/8/3 404/8/3 408/8/3
f 410/2/3 407/2/3 406/2/3
f 410/2/3 406/2/3 405/2/3
f 411/2/3 407/2/3 410/2/3
f 416/2/3 413/2/3 412/2/3
f 417/7/3 415/7/3 414/7/3
f 418/7/3 415/7/3 417/7/3
f 419/2/3 416/2/3 412/2/3
f 420/1/3 418/1/3 417/1/3
f 421/1/3 418/1/3 420/1/3
f 422/2/3 419/2/3 412/2/3
f 423/7/3 421/7/3 420/7/3
f 424/7/3 421/7/3 423/7/3
f 425/2/3 422/2/3 412/2/3
f 426/1/3 424/1/3 423/1/3
f 427/1/3 424/1/3 426/1/3
f 429/2/3 425/2/3 412/2/3
f 430/2/3 425/2/3 429/2/3
f 431/7/3 427/7/3 426/7/3
f 432/7/3 427/7/3 431/7/3
f 434/4/3 429/4/3 428/4/3
f 435/4/3 429/4/3 434/4/3
f 436/4/3 433/4/3 432/4/3
f 437/4/3 433/4/3 436/4/3
f 440/2/3 439/2/3 438/2/3
f 441/2/3 439/2/3 440/2/3
f 443/2/3 439/2/3 441/2/3
f 444/3/3 443/3/3 442/3/3
f 445/2/3 439/2/3 443/2/3
f 445/3/3 443/3/3 444/3/3
f 446/2/3 439/2/3 445/2/3
f 448/2/3 445/2/3 444/2/3
f 448/2/3 446/2/3 445/2/3
f 449/3/3 447/3/3 446/3/3
f 449/2/3 446/2/3 448/2/3
f 450/3/3 447/3/3 449/3/3
f 456/8/3 452/8/3 451/8/3
f 457/8/3 456/8/3 455/8/3
f 458/8/3 452/8/3 456/8/3
f 458/8/3 456/8/3 457/8/3
f 459/8/3 452/8/3 458/8/3
f 460/8/3 452/8/3 459/8/3
f 463/7/3 454/7/3 453/7/3
f 464/7/3 454/7/3 463/7/3
f 465/8/3 462/8/3 461/8/3
f 466/8/3 462/8/3 465/8/3
f 471/2/3 467/2/3 466/2/3
f 472/7/3 468/7/3 467/7/3
f 472/2/3 467/2/3 471/2/3
f 473/8/3 469/8/3 468/8/3
f 473/7/3 468/7/3 472/7/3
f 474/8/3 469/8/3 473/8/3
f 477/7/3 476/7/3 475/7/3
f 478/7/3 476/7/3 477/7/3
f 479/1/3 478/1/3 477/1/3
f 480/1/3 478/1/3 479/1/3
f 481/7/3 480/7/3 479/7/3
f 482/7/3 480/7/3 481/7/3
f 483/1/3 482/1/3 481/1/3
f 484/1/3 482/1/3 483/1/3
f 487/2/3 471/2/3 470/2/3
f 488/2/3 471/2/3 487/2/3
f 489/7/3 485/7/3 484/7/3
f 489/7/3 484/7/3 483/7/3
f 490/7/3 485/7/3 489/7/3
f 491/7/3 485/7/3 490/7/3
f 492/4/3 487/4/3 486/4/3
f 493/4/3 487/4/3 492/4/3
f 494/4/3 491/4/3 490/4/3
f 495/4/3 491/4/3 494/4/3
f 500/3/3 497/3/3 496/3/3
f 501/3/3 497/3/3 500/3/3
f 504/3/3 499/3/3 498/3/3
f 505/3/3 499/3/3 504/3/3
f 506/3/3 503/3/3 502/3/3
f 507/3/3 503/3/3 506/3/3
f 514/8/3 509/8/3 508/8/3
f 515/8/3 509/8/3 514/8/3
f 516/6/3 511/6/3 510/6/3
f 517/7/3 512/7/3 511/7/3
f 517/6/3 511/6/3 516/6/3
f 518/7/3 512/7/3 517/7/3
f 519/2/3 514/2/3 513/2/3
f 520/2/3 514/2/3 519/2/3
f 523/2/3 521/2/3 520/2/3
f 524/2/3 521/2/3 523/2/3
f 525/6/3 523/6/3 522/6/3
f 526/8/3 524/8/3 523/8/3
f 526/6/3 523/6/3 525/6/3
f 527/8/3 524/8/3 526/8/3
f 528/8/3 524/8/3 527/8/3
f 534/7/3 530/7/3 529/7/3
f 535/7/3 530/7/3 534/7/3
f 536/7/3 532/7/3 531/7/3
f 537/7/3 532/7/3 536/7/3
f 538/2/3 534/2/3 533/2/3
f 539/2/3 534/2/3 538/2/3
f 542/7/3 541/7/3 540/7/3
f 543/7/3 541/7/3 542/7/3
f 544/7/3 541/7/3 543/7/3
f 545/7/3 541/7/3 544/7/3
f 550/10/3 547/10/3 546/10/3
f 551/10/3 547/10/3 550/10/3
f 552/7/3 549/7/3 548/7/3
f 553/7/3 549/7/3 552/7/3
f 556/7/3 555/7/3 554/7/3
f 557/7/3 555/7/3 556/7/3
f 558/4/3 557/4/3 556/4/3
f 559/4/3 557/4/3 558/4/3
f 564/7/3 561/7/3 560/7/3
f 564/7/3 562/7/3 561/7/3
f 565/7/3 562/7/3 564/7/3
f 567/1/3 566/1/3 565/1/3
f 568/1/3 566/1/3 567/1/3
f 569/7/3 568/7/3 567/7/3
f 570/7/3 568/7/3 569/7/3
f 571/1/3 570/1/3 569/1/3
f 572/1/3 570/1/3 571/1/3
f 573/2/3 564/2/3 563/2/3
f 574/2/3 564/2/3 573/2/3
f 575/7/3 572/7/3 571/7/3
f 576/7/3 572/7/3 575/7/3
f 577/4/3 574/4/3 573/4/3
f 578/4/3 574/4/3 577/4/3
f 579/4/3 576/4/3 575/4/3
f 580/4/3 576/4/3 579/4/3
f 583/1/3 582/1/3 581/1/3
f 584/1/3 582/1/3 583/1/3
f 585/7/3 584/7/3 583/7/3
f 586/7/3 584/7/3 585/7/3
f 587/7/3 585/7/3 583/7/3
f 588/7/3 585/7/3 587/7/3
f 589/7/3 584/7/3 586/7/3
f 590/7/3 584/7/3 589/7/3
f 591/1/3 588/1/3 587/1/3
f 592/1/3 588/1/3 591/1/3
f 593/1/3 590/1/3 589/1/3
f 594/1/3 590/1/3 593/1/3
f 595/7/3 592/7/3 591/7/3
f 596/7/3 592/7/3 595/7/3
f 597/7/3 594/7/3 593/7/3
f 598/7/3 594/7/3 597/7/3
f 599/4/3 596/4/3 595/4/3
f 599/4/3 597/4/3 596/4/3
f 599/4/3 598/4/3 597/4/3
f 600/4/3 598/4/3 599/4/3
f 601/1/4 602/1/4 603/1/4
f 603/1/4 602/1/4 604/1/4
f 603/7/4 604/7/4 605/7/4
f 605/7/4 604/7/4 606/7/4
f 603/7/4 605/7/4 607/7/4
f 607/7/4 605/7/4 608/7/4
f 606/7/4 604/7/4 609/7/4
f 609/7/4 604/7/4 610/7/4
f 607/1/4 608/1/4 611/1/4
f 611/1/4 608/1/4 612/1/4
f 609/1/4 610/1/4 613/1/4
f 613/1/4 610/1/4 614/1/4
f 611/7/4 612/7/4 615/7/4
f 615/7/4 612/7/4 616/7/4
f 613/7/4 614/7/4 617/7/4
f 617/7/4 614/7/4 618/7/4
f 615/4/4 616/4/4 619/4/4
f 616/4/4 617/4/4 619/4/4
f 617/4/4 618/4/4 619/4/4
f 619/4/4 618/4/4 620/4/4
f 621/7/4 622/7/4 625/7/4
f 622/7/4 623/7/4 625/7/4
f 625/7/4 623/7/4 626/7/4
f 626/1/4 627/1/4 628/1/4
f 628/1/4 627/1/4 629/1/4
f 628/7/4 629/7/4 630/7/4
f 630/7/4 629/7/4 631/7/4
f 630/1/4 631/1/4 632/1/4
f 632/1/4 631/1/4 633/1/4
f 624/2/4 625/2/4 634/2/4
f 634/2/4 625/2/4 635/2/4
f 632/7/4 633/7/4 636/7/4
f 636/7/4 633/7/4 637/7/4
f 634/4/4 635/4/4 638/4/4
f 638/4/4 635/4/4 639/4/4
f 636/4/4 637/4/4 640/4/4
f 640/4/4 637/4/4 641/4/4
f 642/7/4 643/7/4 644/7/4
f 644/7/4 643/7/4 645/7/4
f 645/7/4 643/7/4 646/7/4
f 646/7/4 643/7/4 647/7/4
f 648/10/4 649/10/4 652/10/4
f 652/10/4 649/10/4 653/10/4
f 650/7/4 651/7/4 654/7/4
f 654/7/4 651/7/4 655/7/4
f 656/7/4 657/7/4 658/7/4
f 658/7/4 657/7/4 659/7/4
f 658/4/4 659/4/4 660/4/4
f 660/4/4 659/4/4 661/4/4
f 662/3/4 663/3/4 666/3/4
f 666/3/4 663/3/4 667/3/4
f 664/3/4 665/3/4 670/3/4
f 670/3/4 665/3/4 671/3/4
f 668/3/4 669/3/4 672/3/4
f 672/3/4 669/3/4 673/3/4
f 674/8/4 675/8/4 680/8/4
f 680/8/4 675/8/4 681/8/4
f 676/6/4 677/6/4 682/6/4
f 677/7/4 678/7/4 683/7/4
f 682/6/4 677/6/4 683/6/4
f 683/7/4 678/7/4 684/7/4
f 679/2/4 680/2/4 685/2/4
f 685/2/4 680/2/4 686/2/4
f 686/2/4 687/2/4 689/2/4
f 689/2/4 687/2/4 690/2/4
f 688/6/4 689/6/4 691/6/4
f 689/8/4 690/8/4 692/8/4
f 691/6/4 689/6/4 692/6/4
f 692/8/4 690/8/4 693/8/4
f 693/8/4 690/8/4 694/8/4
f 695/7/4 696/7/4 700/7/4
f 700/7/4 696/7/4 701/7/4
f 697/7/4 698/7/4 702/7/4
f 702/7/4 698/7/4 703/7/4
f 699/2/4 700/2/4 704/2/4
f 704/2/4 700/2/4 705/2/4
f 706/2/4 707/2/4 708/2/4
f 708/2/4 707/2/4 709/2/4
f 709/2/4 707/2/4 711/2/4
f 710/3/4 711/3/4 712/3/4
f 711/2/4 707/2/4 713/2/4
f 712/3/4 711/3/4 713/3/4
f 713/2/4 707/2/4 714/2/4
f 712/2/4 713/2/4 716/2/4
f 713/2/4 714/2/4 716/2/4
f 714/3/4 715/3/4 717/3/4
f 716/2/4 714/2/4 717/2/4
f 717/3/4 715/3/4 718/3/4
f 719/8/4 720/8/4 724/8/4
f 723/8/4 724/8/4 725/8/4
f 724/8/4 720/8/4 726/8/4
f 725/8/4 724/8/4 726/8/4
f 726/8/4 720/8/4 727/8/4
f 727/8/4 720/8/4 728/8/4
f 721/7/4 722/7/4 731/7/4
f 731/7/4 722/7/4 732/7/4
f 729/8/4 730/8/4 733/8/4
f 733/8/4 730/8/4 734/8/4
f 734/2/4 735/2/4 739/2/4
f 735/7/4 736/7/4 740/7/4
f 739/2/4 735/2/4 740/2/4
f 736/8/4 737/8/4 741/8/4
f 740/7/4 736/7/4 741/7/4
f 741/8/4 737/8/4 742/8/4
f 743/7/4 744/7/4 745/7/4
f 745/7/4 744/7/4 746/7/4
f 745/1/4 746/1/4 747/1/4
f 747/1/4 746/1/4 748/1/4
f 747/7/4 748/7/4 749/7/4
f 749/7/4 748/7/4 750/7/4
f 749/1/4 750/1/4 751/1/4
f 751/1/4 750/1/4 752/1/4
f 738/2/4 739/2/4 755/2/4
f 755/2/4 739/2/4 756/2/4
f 752/7/4 753/7/4 757/7/4
f 751/7/4 752/7/4 757/7/4
f 757/7/4 753/7/4 758/7/4
f 758/7/4 753/7/4 759/7/4
f 754/4/4 755/4/4 760/4/4
f 760/4/4 755/4/4 761/4/4
f 758/4/4 759/4/4 762/4/4
f 762/4/4 759/4/4 763/4/4
f 764/2/4 765/2/4 768/2/4
f 768/2/4 765/2/4 769/2/4
f 769/2/4 765/2/4 770/2/4
f 766/2/4 767/2/4 772/2/4
f 772/2/4 767/2/4 773/2/4
f 769/8/4 770/8/4 775/8/4
f 775/8/4 770/8/4 776/8/4
f 774/8/4 775/8/4 776/8/4
f 771/8/4 772/8/4 777/8/4
f 777/8/4 772/8/4 778/8/4
f 774/8/4 776/8/4 780/8/4
f 780/8/4 776/8/4 781/8/4
f 778/2/4 779/2/4 782/2/4
f 777/2/4 778/2/4 782/2/4
f 782/2/4 779/2/4 783/2/4
f 784/2/4 785/2/4 788/2/4
f 786/7/4 787/7/4 789/7/4
f 789/7/4 787/7/4 790/7/4
f 784/2/4 788/2/4 791/2/4
f 789/1/4 790/1/4 792/1/4
f 792/1/4 790/1/4 793/1/4
f 784/2/4 791/2/4 794/2/4
f 792/7/4 793/7/4 795/7/4
f 795/7/4 793/7/4 796/7/4
f 784/2/4 794/2/4 797/2/4
f 795/1/4 796/1/4 798/1/4
f 798/1/4 796/1/4 799/1/4
f 784/2/4 797/2/4 801/2/4
f 801/2/4 797/2/4 802/2/4
f 798/7/4 799/7/4 803/7/4
f 803/7/4 799/7/4 804/7/4
f 800/4/4 801/4/4 806/4/4
f 806/4/4 801/4/4 807/4/4
f 804/4/4 805/4/4 808/4/4
f 808/4/4 805/4/4 809/4/4
f 810/6/4 811/6/4 812/6/4
f 812/6/4 811/6/4 813/6/4
f 813/6/4 811/6/4 814/6/4
f 812/8/4 813/8/4 815/8/4
f 815/8/4 813/8/4 816/8/4
f 815/2/4 816/2/4 817/2/4
f 817/2/4 816/2/4 818/2/4
f 819/7/4 820/7/4 821/7/4
f 821/7/4 820/7/4 822/7/4
f 821/1/4 822/1/4 823/1/4
f 823/1/4 822/1/4 824/1/4
f 823/7/4 824/7/4 825/7/4
f 825/7/4 824/7/4 826/7/4
f 823/7/4 825/7/4 827/7/4
f 827/7/4 825/7/4 828/7/4
f 826/7/4 824/7/4 829/7/4
f 829/7/4 824/7/4 830/7/4
f 827/1/4 828/1/4 831/1/4
f 831/1/4 828/1/4 832/1/4
f 829/1/4 830/1/4 833/1/4
f 833/1/4 830/1/4 834/1/4
f 831/7/4 832/7/4 836/7/4
f 836/7/4 832/7/4 837/7/4
f 833/7/4 834/7/4 838/7/4
f 838/7/4 834/7/4 839/7/4
f 838/4/4 839/4/4 841/4/4
f 839/4/4 840/4/4 841/4/4
f 836/4/4 837/4/4 841/4/4
f 837/4/4 838/4/4 841/4/4
f 835/4/4 836/4/4 841/4/4
f 841/4/4 840/4/4 842/4/4
f 845/2/5 844/2/5 843/2/5
f 846/2/5 844/2/5 845/2/5
f 853/6/5 850/6/5 849/6/5
f 854/6/5 850/6/5 853/6/5
f 855/2/5 852/2/5 851/2/5
f 856/2/5 852/2/5 855/2/5
f 857/4/5 848/4/5 847/4/5
f 858/4/5 848/4/5 857/4/5
f 866/4/5 860/4/5 859/4/5
f 867/4/5 860/4/5 866/4/5
f 869/8/5 862/8/5 861/8/5
f 870/8/5 862/8/5 869/8/5
f 873/8/5 864/8/5 863/8/5
f 874/8/5 864/8/5 873/8/5
f 875/2/5 866/2/5 865/2/5
f 876/2/5 866/2/5 875/2/5
f 877/8/5 869/8/5 868/8/5
f 878/8/5 869/8/5 877/8/5
f 879/2/5 871/2/5 870/2/5
f 880/2/5 871/2/5 879/2/5
f 881/8/5 874/8/5 873/8/5
f 881/8/5 873/8/5 872/8/5
f 882/8/5 874/8/5 881/8/5
f 883/7/5 875/7/5 874/7/5
f 883/8/5 874/8/5 882/8/5
f 884/7/5 875/7/5 883/7/5
f 885/2/5 866/2/5 876/2/5
f 886/8/5 879/8/5 878/8/5
f 887/8/5 879/8/5 886/8/5
f 888/8/5 883/8/5 882/8/5
f 889/8/5 883/8/5 888/8/5
f 890/2/5 885/2/5 884/2/5
f 891/2/5 866/2/5 885/2/5
f 891/2/5 885/2/5 890/2/5
f 893/4/5 892/4/5 891/4/5
f 894/4/5 892/4/5 893/4/5
f 902/4/5 896/4/5 895/4/5
f 903/4/5 896/4/5 902/4/5
f 904/2/5 898/2/5 897/2/5
f 907/8/5 900/8/5 899/8/5
f 908/8/5 900/8/5 907/8/5
f 909/8/5 900/8/5 908/8/5
f 910/2/5 902/2/5 901/2/5
f 911/2/5 902/2/5 910/2/5
f 913/2/5 904/2/5 897/2/5
f 914/8/5 905/8/5 904/8/5
f 914/2/5 904/2/5 913/2/5
f 915/8/5 905/8/5 914/8/5
f 916/8/5 907/8/5 906/8/5
f 916/8/5 908/8/5 907/8/5
f 917/8/5 908/8/5 916/8/5
f 918/8/5 908/8/5 917/8/5
f 919/2/5 910/2/5 909/2/5
f 920/2/5 910/2/5 919/2/5
f 921/3/5 913/3/5 912/3/5
f 921/3/5 914/3/5 913/3/5
f 922/3/5 914/3/5 921/3/5
f 923/3/5 914/3/5 922/3/5
f 930/2/5 923/2/5 922/2/5
f 930/8/5 924/8/5 923/8/5
f 931/8/5 924/8/5 930/8/5
f 932/8/5 927/8/5 926/8/5
f 932/8/5 926/8/5 925/8/5
f 933/8/5 927/8/5 932/8/5
f 934/8/5 927/8/5 933/8/5
f 935/2/5 929/2/5 928/2/5
f 936/2/5 929/2/5 935/2/5
f 938/2/5 930/2/5 922/2/5
f 939/2/5 930/2/5 938/2/5
f 940/8/5 934/8/5 933/8/5
f 940/8/5 935/8/5 934/8/5
f 941/8/5 935/8/5 940/8/5
f 942/2/5 937/2/5 936/2/5
f 943/2/5 937/2/5 942/2/5
f 945/4/5 944/4/5 943/4/5
f 946/4/5 944/4/5 945/4/5
f 955/7/5 948/7/5 947/7/5
f 956/1/5 949/1/5 948/1/5
f 956/7/5 948/7/5 955/7/5
f 957/7/5 950/7/5 949/7/5
f 957/1/5 949/1/5 956/1/5
f 958/1/5 951/1/5 950/1/5
f 958/7/5 950/7/5 957/7/5
f 959/7/5 952/7/5 951/7/5
f 959/1/5 951/1/5 958/1/5
f 960/7/5 952/7/5 959/7/5
f 966/8/5 954/8/5 953/8/5
f 967/8/5 954/8/5 966/8/5
f 968/2/5 962/2/5 961/2/5
f 969/2/5 962/2/5 968/2/5
f 970/3/5 964/3/5 963/3/5
f 971/2/5 965/2/5 964/2/5
f 971/3/5 964/3/5 970/3/5
f 972/2/5 965/2/5 971/2/5
f 973/3/5 970/3/5 969/3/5
f 973/3/5 969/3/5 968/3/5
f 973/3/5 971/3/5 970/3/5
f 974/3/5 971/3/5 973/3/5
f 975/3/5 971/3/5 974/3/5
f 976/3/5 971/3/5 975/3/5
f 978/2/5 974/2/5 973/2/5
f 979/2/5 974/2/5 978/2/5
f 980/3/5 976/3/5 975/3/5
f 981/2/5 977/2/5 976/2/5
f 981/3/5 976/3/5 980/3/5
f 982/2/5 977/2/5 981/2/5
f 985/8/5 984/8/5 983/8/5
f 986/8/5 984/8/5 985/8/5
f 993/7/5 988/7/5 987/7/5
f 994/1/5 989/1/5 988/1/5
f 994/7/5 988/7/5 993/7/5
f 995/7/5 990/7/5 989/7/5
f 995/1/5 989/1/5 994/1/5
f 996/1/5 991/1/5 990/1/5
f 996/7/5 990/7/5 995/7/5
f 997/7/5 992/7/5 991/7/5
f 997/1/5 991/1/5 996/1/5
f 998/7/5 992/7/5 997/7/5
f 1003/6/5 1000/6/5 999/6/5
f 1004/8/5 1001/8/5 1000/8/5
f 1004/6/5 1000/6/5 1003/6/5
f 1005/2/5 1002/2/5 1001/2/5
f 1005/8/5 1001/8/5 1004/8/5
f 1006/2/5 1002/2/5 1005/2/5
f 1009/2/5 1008/2/5 1007/2/5
f 1010/2/5 1008/2/5 1009/2/5
f 1013/2/5 1012/2/5 1011/2/5
f 1014/2/5 1012/2/5 1013/2/5
f 1019/6/5 1016/6/5 1015/6/5
f 1020/8/5 1017/8/5 1016/8/5
f 1020/6/5 1016/6/5 1019/6/5
f 1021/2/5 1018/2/5 1017/2/5
f 1021/8/5 1017/8/5 1020/8/5
f 1022/2/5 1018/2/5 1021/2/5
f 1027/7/5 1024/7/5 1023/7/5
f 1028/1/5 1025/1/5 1024/1/5
f 1028/7/5 1024/7/5 1027/7/5
f 1029/7/5 1026/7/5 1025/7/5
f 1029/1/5 1025/1/5 1028/1/5
f 1030/7/5 1026/7/5 1029/7/5
f 1035/7/5 1032/7/5 1031/7/5
f 1036/1/5 1033/1/5 1032/1/5
f 1036/7/5 1032/7/5 1035/7/5
f 1037/7/5 1034/7/5 1033/7/5
f 1037/1/5 1033/1/5 1036/1/5
f 1038/7/5 1034/7/5 1037/7/5
f 1046/1/5 1040/1/5 1039/1/5
f 1047/7/5 1041/7/5 1040/7/5
f 1047/1/5 1040/1/5 1046/1/5
f 1048/1/5 1042/1/5 1041/1/5
f 1048/7/5 1041/7/5 1047/7/5
f 1049/7/5 1043/7/5 1042/7/5
f 1049/1/5 1042/1/5 1048/1/5
f 1050/4/5 1044/4/5 1043/4/5
f 1050/7/5 1043/7/5 1049/7/5
f 1051/4/5 1044/4/5 1050/4/5
f 1052/7/5 1046/7/5 1045/7/5
f 1053/7/5 1046/7/5 1052/7/5
f 1056/7/5 1055/7/5 1054/7/5
f 1057/7/5 1055/7/5 1056/7/5
f 1063/1/5 1058/1/5 1057/1/5
f 1064/7/5 1059/7/5 1058/7/5
f 1064/1/5 1058/1/5 1063/1/5
f 1065/1/5 1060/1/5 1059/1/5
f 1065/7/5 1059/7/5 1064/7/5
f 1066/7/5 1061/7/5 1060/7/5
f 1066/1/5 1060/1/5 1065/1/5
f 1067/4/5 1062/4/5 1061/4/5
f 1067/7/5 1061/7/5 1066/7/5
f 1068/4/5 1062/4/5 1067/4/5
f 1076/1/5 1070/1/5 1069/1/5
f 1077/7/5 1076/7/5 1075/7/5
f 1078/1/5 1070/1/5 1076/1/5
f 1078/7/5 1076/7/5 1077/7/5
f 1079/1/5 1070/1/5 1078/1/5
f 1080/7/5 1071/7/5 1070/7/5
f 1080/1/5 1070/1/5 1079/1/5
f 1081/1/5 1072/1/5 1071/1/5
f 1081/7/5 1071/7/5 1080/7/5
f 1082/7/5 1073/7/5 1072/7/5
f 1082/1/5 1072/1/5 1081/1/5
f 1083/4/5 1074/4/5 1073/4/5
f 1083/7/5 1073/7/5 1082/7/5
f 1084/4/5 1074/4/5 1083/4/5
f 1085/2/6 1086/2/6 1089/2/6
f 1088/2/6 1089/2/6 1090/2/6
f 1089/2/6 1086/2/6 1091/2/6
f 1090/2/6 1089/2/6 1091/2/6
f 1091/2/6 1086/2/6 1092/2/6
f 1086/4/6 1087/4/6 1093/4/6
f 1092/2/6 1086/2/6 1093/2/6
f 1093/4/6 1087/4/6 1094/4/6
f 1095/2/6 1096/2/6 1102/2/6
f 1096/2/6 1097/2/6 1102/2/6
f 1098/2/6 1099/2/6 1102/2/6
f 1097/2/6 1098/2/6 1102/2/6
f 1099/4/6 1100/4/6 1103/4/6
f 1102/2/6 1099/2/6 1103/2/6
f 1103/4/6 1100/4/6 1104/4/6
f 1101/10/6 1102/10/6 1105/10/6
f 1105/10/6 1102/10/6 1106/10/6
f 1107/10/6 1108/10/6 1109/10/6
f 1109/10/6 1108/10/6 1110/10/6
f 1110/2/6 1111/2/6 1113/2/6
f 1113/2/6 1111/2/6 1114/2/6
f 1114/2/6 1111/2/6 1115/2/6
f 1115/2/6 1111/2/6 1116/2/6
f 1111/4/6 1112/4/6 1117/4/6
f 1116/2/6 1111/2/6 1117/2/6
f 1117/4/6 1112/4/6 1118/4/6
f 1119/7/6 1120/7/6 1123/7/6
f 1120/1/6 1121/1/6 1124/1/6
f 1123/7/6 1120/7/6 1124/7/6
f 1121/7/6 1122/7/6 1125/7/6
f 1124/1/6 1121/1/6 1125/1/6
f 1125/7/6 1122/7/6 1126/7/6
f 1127/7/6 1128/7/6 1131/7/6
f 1128/1/6 1129/1/6 1132/1/6
f 1131/7/6 1128/7/6 1132/7/6
f 1129/7/6 1130/7/6 1133/7/6
f 1132/1/6 1129/1/6 1133/1/6
f 1133/7/6 1130/7/6 1134/7/6
f 1135/8/6 1136/8/6 1138/8/6
f 1136/2/6 1137/2/6 1139/2/6
f 1138/8/6 1136/8/6 1139/8/6
f 1139/2/6 1137/2/6 1140/2/6
f 1141/2/6 1142/2/6 1143/2/6
f 1143/2/6 1142/2/6 1144/2/6
f 1144/2/6 1142/2/6 1145/2/6
f 1143/3/6 1144/3/6 1146/3/6
f 1146/3/6 1144/3/6 1147/3/6
f 1146/2/6 1147/2/6 1149/2/6
f 1147/2/6 1148/2/6 1149/2/6
f 1149/2/6 1148/2/6 1150/2/6
f 1151/8/6 1152/8/6 1154/8/6
f 1152/2/6 1153/2/6 1155/2/6
f 1154/8/6 1152/8/6 1155/8/6
f 1155/2/6 1153/2/6 1156/2/6
f 1157/6/6 1158/6/6 1165/6/6
f 1165/6/6 1158/6/6 1166/6/6
f 1159/7/6 1160/7/6 1168/7/6
f 1160/1/6 1161/1/6 1169/1/6
f 1168/7/6 1160/7/6 1169/7/6
f 1161/7/6 1162/7/6 1170/7/6
f 1169/1/6 1161/1/6 1170/1/6
f 1162/1/6 1163/1/6 1171/1/6
f 1170/7/6 1162/7/6 1171/7/6
f 1163/7/6 1164/7/6 1172/7/6
f 1171/1/6 1163/1/6 1172/1/6
f 1172/7/6 1164/7/6 1173/7/6
f 1166/8/6 1167/8/6 1176/8/6
f 1176/8/6 1167/8/6 1177/8/6
f 1174/3/6 1175/3/6 1181/3/6
f 1181/3/6 1175/3/6 1182/3/6
f 1178/8/6 1179/8/6 1187/8/6
f 1187/8/6 1179/8/6 1188/8/6
f 1180/3/6 1181/3/6 1189/3/6
f 1181/3/6 1182/3/6 1189/3/6
f 1189/3/6 1182/3/6 1190/3/6
f 1190/3/6 1182/3/6 1191/3/6
f 1183/9/6 1184/9/6 1192/9/6
f 1184/5/6 1185/5/6 1193/5/6
f 1192/9/6 1184/9/6 1193/9/6
f 1185/9/6 1186/9/6 1194/9/6
f 1193/5/6 1185/5/6 1194/5/6
f 1194/9/6 1186/9/6 1195/9/6
f 1190/3/6 1191/3/6 1198/3/6
f 1198/3/6 1191/3/6 1199/3/6
f 1196/8/6 1197/8/6 1202/8/6
f 1202/8/6 1197/8/6 1203/8/6
f 1200/8/6 1201/8/6 1205/8/6
f 1205/8/6 1201/8/6 1206/8/6
f 1204/6/6 1205/6/6 1213/6/6
f 1213/6/6 1205/6/6 1214/6/6
f 1207/7/6 1208/7/6 1215/7/6
f 1208/1/6 1209/1/6 1216/1/6
f 1215/7/6 1208/7/6 1216/7/6
f 1209/7/6 1210/7/6 1217/7/6
f 1216/1/6 1209/1/6 1217/1/6
f 1210/1/6 1211/1/6 1218/1/6
f 1217/7/6 1210/7/6 1218/7/6
f 1211/7/6 1212/7/6 1219/7/6
f 1218/1/6 1211/1/6 1219/1/6
f 1219/7/6 1212/7/6 1220/7/6
f 1221/4/6 1222/4/6 1232/4/6
f 1232/4/6 1222/4/6 1233/4/6
f 1223/2/6 1224/2/6 1234/2/6
f 1225/2/6 1226/2/6 1235/2/6
f 1227/7/6 1228/7/6 1236/7/6
f 1228/1/6 1229/1/6 1237/1/6
f 1236/7/6 1228/7/6 1237/7/6
f 1229/7/6 1230/7/6 1238/7/6
f 1237/1/6 1229/1/6 1238/1/6
f 1230/1/6 1231/1/6 1239/1/6
f 1238/7/6 1230/7/6 1239/7/6
f 1231/7/6 1232/7/6 1240/7/6
f 1239/1/6 1231/1/6 1240/1/6
f 1240/7/6 1232/7/6 1241/7/6
f 1223/2/6 1234/2/6 1242/2/6
f 1234/7/6 1235/7/6 1243/7/6
f 1242/2/6 1234/2/6 1243/2/6
f 1243/7/6 1235/7/6 1244/7/6
f 1244/7/6 1235/7/6 1245/7/6
f 1235/2/6 1226/2/6 1246/2/6
f 1245/7/6 1235/7/6 1246/7/6
f 1246/2/6 1226/2/6 1247/2/6
f 1242/3/6 1243/3/6 1249/3/6
f 1249/3/6 1243/3/6 1250/3/6
f 1245/8/6 1246/8/6 1252/8/6
f 1246/2/6 1247/2/6 1253/2/6
f 1252/8/6 1246/8/6 1253/8/6
f 1247/7/6 1248/7/6 1254/7/6
f 1253/2/6 1247/2/6 1254/2/6
f 1254/7/6 1248/7/6 1255/7/6
f 1252/7/6 1253/7/6 1256/7/6
f 1251/7/6 1252/7/6 1256/7/6
f 1250/7/6 1251/7/6 1256/7/6
f 1249/2/6 1250/2/6 1256/2/6
f 1253/2/6 1254/2/6 1257/2/6
f 1256/7/6 1253/7/6 1257/7/6
f 1249/2/6 1256/2/6 1264/2/6
f 1264/2/6 1256/2/6 1265/2/6
f 1257/2/6 1254/2/6 1266/2/6
f 1266/2/6 1254/2/6 1267/2/6
f 1258/7/6 1259/7/6 1268/7/6
f 1259/1/6 1260/1/6 1269/1/6
f 1268/7/6 1259/7/6 1269/7/6
f 1260/7/6 1261/7/6 1270/7/6
f 1269/1/6 1260/1/6 1270/1/6
f 1261/1/6 1262/1/6 1271/1/6
f 1270/7/6 1261/7/6 1271/7/6
f 1262/7/6 1263/7/6 1272/7/6
f 1271/1/6 1262/1/6 1272/1/6
f 1272/7/6 1263/7/6 1273/7/6
f 1273/4/6 1274/4/6 1275/4/6
f 1275/4/6 1274/4/6 1276/4/6
f 1277/4/6 1278/4/6 1284/4/6
f 1284/4/6 1278/4/6 1285/4/6
f 1282/1/6 1283/1/6 1286/1/6
f 1282/1/6 1286/1/6 1289/1/6
f 1286/7/6 1287/7/6 1289/7/6
f 1287/4/6 1288/4/6 1290/4/6
f 1289/7/6 1287/7/6 1290/7/6
f 1290/4/6 1288/4/6 1291/4/6
f 1279/7/6 1280/7/6 1292/7/6
f 1280/1/6 1281/1/6 1293/1/6
f 1292/7/6 1280/7/6 1293/7/6
f 1281/7/6 1282/7/6 1294/7/6
f 1293/1/6 1281/1/6 1294/1/6
f 1282/1/6 1289/1/6 1295/1/6
f 1294/7/6 1282/7/6 1295/7/6
f 1295/1/6 1289/1/6 1296/1/6
f 1297/4/6 1298/4/6 1299/4/6
f 1299/4/6 1298/4/6 1300/4/6
f 1301/7/6 1302/7/6 1306/7/6
f 1302/4/6 1303/4/6 1307/4/6
f 1306/7/6 1302/7/6 1307/7/6
f 1307/4/6 1303/4/6 1308/4/6
f 1304/7/6 1305/7/6 1309/7/6
f 1309/7/6 1305/7/6 1310/7/6
f 1311/7/6 1312/7/6 1314/7/6
f 1312/4/6 1313/4/6 1315/4/6
f 1314/7/6 1312/7/6 1315/7/6
f 1315/4/6 1313/4/6 1316/4/6
