# MagicaVoxel @ Ephtracy

# group
o 

# material
mtllib The Twitcher-6.mtl
usemtl palette

# normals
vn -1 0 0
vn 1 0 0
vn 0 0 1
vn 0 0 -1
vn 0 -1 0
vn 0 1 0

# texcoords
vt 0.228516 0.5
vt 0.396484 0.5

# verts
v -8 0 -5.6
v -8 0 -5.7
v -8 0 -5.9
v -8 0 -6
v -8 0 -6.8
v -8 0 -6.9
v -8 0.1 -5.6
v -8 0.1 -5.7
v -8 0.1 -5.9
v -8 0.1 -6
v -8 0.1 -6.8
v -8 0.1 -6.9
v -7.9 0 -5.7
v -7.9 0 -5.9
v -7.9 0 -6
v -7.9 0 -6.4
v -7.9 0 -6.7
v -7.9 0 -6.8
v -7.9 0 -6.9
v -7.9 0 -7
v -7.9 0.1 -5.7
v -7.9 0.1 -5.8
v -7.9 0.1 -5.9
v -7.9 0.1 -6
v -7.9 0.1 -6.1
v -7.9 0.1 -6.2
v -7.9 0.1 -6.8
v -7.9 0.1 -6.9
v -7.9 0.1 -7
v -7.9 0.2 -5.8
v -7.9 0.2 -6.1
v -7.9 0.2 -6.2
v -7.9 0.2 -6.4
v -7.9 0.2 -6.7
v -7.9 0.2 -6.8
v -7.8 0 -5.3
v -7.8 0 -5.6
v -7.8 0 -6.6
v -7.8 0 -6.7
v -7.8 0.1 -5.3
v -7.8 0.1 -5.6
v -7.8 0.1 -5.7
v -7.8 0.1 -6.1
v -7.8 0.1 -6.2
v -7.8 0.1 -6.8
v -7.8 0.1 -6.9
v -7.8 0.2 -5.6
v -7.8 0.2 -5.7
v -7.8 0.2 -5.8
v -7.8 0.2 -6.1
v -7.8 0.2 -6.2
v -7.8 0.2 -6.4
v -7.8 0.2 -6.6
v -7.8 0.2 -6.7
v -7.8 0.2 -6.8
v -7.8 0.2 -6.9
v -7.8 0.3 -5.7
v -7.8 0.3 -6.7
v -7.7 0 -5.2
v -7.7 0 -5.3
v -7.7 0 -6.4
v -7.7 0 -6.6
v -7.7 0.1 -5.3
v -7.7 0.1 -5.6
v -7.7 0.1 -5.7
v -7.7 0.1 -5.8
v -7.7 0.2 -5.6
v -7.7 0.2 -5.7
v -7.7 0.2 -5.8
v -7.7 0.2 -6.4
v -7.7 0.2 -6.6
v -7.7 0.2 -6.7
v -7.7 0.2 -6.8
v -7.7 0.3 -5.2
v -7.7 0.3 -5.7
v -7.7 0.3 -6
v -7.7 0.3 -6.6
v -7.7 0.3 -6.7
v -7.7 0.3 -6.8
v -7.7 0.4 -6
v -7.7 0.4 -6.6
v -7.6 0.3 -5.2
v -7.6 0.3 -6
v -7.6 0.3 -6.6
v -7.6 0.3 -6.7
v -7.6 0.4 -6
v -7.6 0.4 -6.5
v -7.6 0.4 -6.6
v -7.6 0.4 -6.7
v -7.6 0.5 -5.5
v -7.6 0.5 -6.5
v -7.6 1.9 -5.2
v -7.6 1.9 -5.5
v -7.5 0 -5.5
v -7.5 0 -5.6
v -7.5 0.3 -5.5
v -7.5 0.3 -5.6
v -7.5 0.4 -6.5
v -7.5 0.4 -6.6
v -7.5 0.5 -5.5
v -7.5 0.5 -6.4
v -7.5 0.5 -6.5
v -7.5 0.5 -6.6
v -7.5 0.6 -5.8
v -7.5 0.6 -6.4
v -7.5 1.9 -5.5
v -7.5 1.9 -5.8
v -7.4 0 -5.8
v -7.4 0 -5.9
v -7.4 0 -6.4
v -7.4 0 -6.5
v -7.4 0.1 -5.8
v -7.4 0.1 -5.9
v -7.4 0.1 -6.4
v -7.4 0.1 -6.5
v -7.4 0.3 -5.8
v -7.4 0.3 -5.9
v -7.4 0.5 -5.8
v -7.4 0.5 -5.9
v -7.4 0.5 -6.4
v -7.4 0.5 -6.5
v -7.4 0.6 -5.8
v -7.4 0.6 -6.3
v -7.4 0.6 -6.4
v -7.4 0.6 -6.5
v -7.4 0.7 -5.9
v -7.4 0.7 -6.1
v -7.4 0.8 -6.1
v -7.4 0.8 -6.3
v -7.4 1.9 -5.8
v -7.4 1.9 -5.9
v -7.3 0.1 -6.3
v -7.3 0.1 -6.4
v -7.3 0.2 -6.3
v -7.3 0.2 -6.4
v -7.3 0.3 -5.9
v -7.3 0.3 -6
v -7.3 0.4 -5.9
v -7.3 0.4 -6
v -7.3 0.6 -6.3
v -7.3 0.6 -6.4
v -7.3 0.7 -5.9
v -7.3 0.7 -6.1
v -7.3 0.8 -6.1
v -7.3 0.8 -6.3
v -7.3 0.8 -6.4
v -7.3 0.9 -6.1
v -7.3 0.9 -6.3
v -7.3 1.9 -5.9
v -7.3 1.9 -6.1
v -7.2 0 -6.7
v -7.2 0 -6.8
v -7.2 0.2 -6.2
v -7.2 0.2 -6.3
v -7.2 0.2 -6.7
v -7.2 0.2 -6.8
v -7.2 0.3 -6.2
v -7.2 0.3 -6.3
v -7.2 0.5 -6.1
v -7.2 0.5 -6.2
v -7.2 0.6 -6.1
v -7.2 0.6 -6.2
v -7.2 0.9 -6.1
v -7.2 0.9 -6.2
v -7.2 1.9 -6.1
v -7.2 1.9 -6.2
v -7.1 0 -6.8
v -7.1 0 -7
v -7.1 0.1 -6.9
v -7.1 0.1 -7
v -7.1 0.2 -6.8
v -7.1 0.2 -6.9
v -7.1 0.5 -6.2
v -7.1 0.5 -6.3
v -7.1 0.6 -6.2
v -7.1 0.6 -6.3
v -7 0.5 -6.5
v -7 0.5 -6.6
v -7 0.6 -6.5
v -7 0.6 -6.6
v -7 0.8 -6.2
v -7 0.8 -6.3
v -7 1.9 -6.2
v -7 1.9 -6.3
v -6.9 0.3 -6.3
v -6.9 0.3 -6.4
v -6.9 0.4 -6.3
v -6.9 0.4 -6.4
v -6.9 0.5 -6.3
v -6.9 0.5 -6.4
v -6.9 0.6 -6.3
v -6.9 0.6 -6.4
v -6.9 0.7 -6.3
v -6.9 0.7 -6.4
v -6.9 1.9 -6.3
v -6.9 1.9 -6.4
v -6.6 0 -6.4
v -6.6 0 -6.5
v -6.6 0 -6.8
v -6.6 0 -7
v -6.6 0.1 -6.7
v -6.6 0.1 -6.8
v -6.6 0.1 -7
v -6.6 0.2 -6.6
v -6.6 0.2 -6.7
v -6.6 0.2 -6.8
v -6.6 0.3 -6.5
v -6.6 0.3 -6.6
v -6.6 0.3 -6.7
v -6.6 1.9 -6.4
v -6.6 1.9 -6.5
v -6.5 0 -7
v -6.5 0 -7.2
v -6.5 0.1 -6.9
v -6.5 0.1 -7
v -6.5 0.1 -7.2
v -6.5 0.2 -6.5
v -6.5 0.2 -6.6
v -6.5 0.2 -6.9
v -6.5 0.2 -7
v -6.5 0.3 -6.5
v -6.5 0.3 -6.6
v -6.4 0.1 -6.8
v -6.4 0.1 -6.9
v -6.4 0.1 -7
v -6.4 0.1 -7.1
v -6.4 0.2 -6.7
v -6.4 0.2 -6.8
v -6.4 0.2 -6.9
v -6.4 0.2 -7
v -6.4 0.2 -7.1
v -6.4 0.3 -6.5
v -6.4 0.3 -6.7
v -6.4 0.3 -7
v -6.4 0.4 -6.5
v -6.4 0.4 -6.7
v -6.3 0 -7.1
v -6.3 0 -7.3
v -6.3 0.1 -7.1
v -6.3 0.1 -7.3
v -6.3 0.2 -6.5
v -6.3 0.2 -6.6
v -6.3 0.3 -6.5
v -6.3 0.3 -6.6
v -6.3 0.3 -6.7
v -6.3 0.3 -6.8
v -6.3 0.3 -6.9
v -6.3 0.3 -7
v -6.3 0.4 -6.7
v -6.3 0.4 -6.8
v -6.3 0.4 -6.9
v -6.3 0.4 -7
v -7.8 0 -6.9
v -7.8 0 -7
v -7.8 0.1 -6.9
v -7.8 0.1 -7
v -7.7 0 -6.7
v -7.7 0 -6.9
v -7.7 0.2 -6.7
v -7.7 0.2 -6.8
v -7.7 0.2 -6.9
v -7.6 0 -5.5
v -7.6 0 -5.6
v -7.6 0.3 -5.5
v -7.6 0.3 -5.6
v -7.5 0 -5.8
v -7.5 0 -5.9
v -7.5 0 -6.4
v -7.5 0 -6.5
v -7.5 0.1 -5.8
v -7.5 0.1 -5.9
v -7.5 0.1 -6.4
v -7.5 0.1 -6.5
v -7.5 0.3 -5.8
v -7.5 0.3 -5.9
v -7.5 0.5 -5.8
v -7.5 0.5 -5.9
v -7.4 0.1 -6.3
v -7.4 0.1 -6.4
v -7.4 0.2 -6.3
v -7.4 0.2 -6.4
v -7.4 0.3 -5.9
v -7.4 0.3 -6
v -7.4 0.4 -5.9
v -7.4 0.4 -6
v -7.3 0.2 -6.2
v -7.3 0.2 -6.3
v -7.3 0.3 -6.2
v -7.3 0.3 -6.3
v -7.3 0.5 -6.1
v -7.3 0.5 -6.2
v -7.3 0.6 -6.1
v -7.3 0.6 -6.2
v -7.2 0.5 -6.2
v -7.2 0.5 -6.3
v -7.2 0.6 -6.2
v -7.2 0.6 -6.3
v -7.1 0.7 -6.3
v -7.1 0.7 -6.4
v -7.1 0.8 -6.2
v -7.1 0.8 -6.3
v -7.1 0.8 -6.4
v -7.1 0.9 -6.2
v -7.1 0.9 -6.3
v -7 0.3 -6.3
v -7 0.3 -6.4
v -7 0.3 -6.6
v -7 0.3 -6.7
v -7 0.4 -6.3
v -7 0.4 -6.4
v -7 0.4 -6.6
v -7 0.4 -6.7
v -7 0.5 -6.3
v -7 0.5 -6.4
v -7 0.6 -6.3
v -7 0.6 -6.4
v -6.9 0 -6.4
v -6.9 0 -6.5
v -6.9 0 -6.8
v -6.9 0 -7
v -6.9 0.1 -6.4
v -6.9 0.1 -6.5
v -6.9 0.1 -6.7
v -6.9 0.1 -6.8
v -6.9 0.1 -6.9
v -6.9 0.1 -7
v -6.9 0.2 -6.7
v -6.9 0.2 -6.8
v -6.9 0.2 -6.9
v -6.8 0.1 -6.4
v -6.8 0.1 -6.5
v -6.8 0.2 -6.4
v -6.8 0.2 -6.5
v -6.8 0.2 -6.7
v -6.8 0.2 -6.8
v -6.8 0.3 -6.4
v -6.8 0.3 -6.6
v -6.8 0.3 -6.7
v -6.8 0.3 -6.8
v -6.8 0.6 -6.4
v -6.8 0.6 -6.6
v -6.7 0.2 -6.4
v -6.7 0.2 -6.5
v -6.7 0.2 -6.6
v -6.7 0.2 -6.7
v -6.7 0.3 -6.4
v -6.7 0.3 -6.5
v -6.7 0.3 -6.6
v -6.7 0.3 -6.7
v -6.6 0 -6.5
v -6.6 0 -6.6
v -6.6 0.3 -6.5
v -6.6 0.3 -6.6
v -6.4 0 -7.1
v -6.4 0 -7.2
v -6.4 0.1 -7.1
v -6.4 0.1 -7.2
v -6.4 0.2 -6.5
v -6.4 0.2 -6.6
v -6.4 0.3 -6.5
v -6.4 0.3 -6.6
v -6.2 0 -5.2
v -6.2 0 -6.3
v -6.2 0 -6.5
v -6.2 0 -6.6
v -6.2 0 -7.3
v -6.2 0.1 -7.1
v -6.2 0.1 -7.3
v -6.2 0.2 -6.5
v -6.2 0.2 -6.6
v -6.2 0.2 -7
v -6.2 0.2 -7.1
v -6.2 0.3 -6.8
v -6.2 0.3 -6.9
v -6.2 0.4 -6.5
v -6.2 0.4 -6.8
v -6.2 0.4 -6.9
v -6.2 0.4 -7
v -6.2 1.8 -6.1
v -6.2 1.8 -6.3
v -6.2 1.9 -5.2
v -6.2 1.9 -6.1
v -6.2 1.9 -6.5
v -7.7 0 -5.2
v -7.7 0.3 -5.2
v -7.6 0.3 -5.2
v -7.6 1.9 -5.2
v -7.2 0 -5.2
v -7.2 1.9 -5.2
v -6.2 0 -5.2
v -6.2 1.9 -5.2
v -7.8 0 -5.3
v -7.8 0.1 -5.3
v -7.7 0 -5.3
v -7.7 0.1 -5.3
v -8 0 -5.6
v -8 0.1 -5.6
v -7.8 0 -5.6
v -7.8 0.1 -5.6
v -7.8 0.2 -5.6
v -7.7 0.1 -5.6
v -7.7 0.2 -5.6
v -7.6 0 -5.6
v -7.6 0.3 -5.6
v -7.5 0 -5.6
v -7.5 0.3 -5.6
v -7.8 0.2 -5.7
v -7.8 0.3 -5.7
v -7.7 0.2 -5.7
v -7.7 0.3 -5.7
v -7.9 0.1 -5.8
v -7.9 0.2 -5.8
v -7.8 0.2 -5.8
v -7.7 0.1 -5.8
v -7.7 0.2 -5.8
v -8 0 -5.9
v -8 0.1 -5.9
v -7.9 0 -5.9
v -7.9 0.1 -5.9
v -7.5 0 -5.9
v -7.5 0.1 -5.9
v -7.5 0.3 -5.9
v -7.5 0.5 -5.9
v -7.4 0 -5.9
v -7.4 0.1 -5.9
v -7.4 0.3 -5.9
v -7.4 0.5 -5.9
v -7.7 0.3 -6
v -7.7 0.4 -6
v -7.6 0.3 -6
v -7.6 0.4 -6
v -7.4 0.3 -6
v -7.4 0.4 -6
v -7.3 0.3 -6
v -7.3 0.4 -6
v -7.4 0.7 -6.1
v -7.4 0.8 -6.1
v -7.3 0.7 -6.1
v -7.3 0.8 -6.1
v -7.9 0.1 -6.2
v -7.9 0.2 -6.2
v -7.8 0.1 -6.2
v -7.8 0.2 -6.2
v -7.3 0.5 -6.2
v -7.3 0.6 -6.2
v -7.2 0.5 -6.2
v -7.2 0.6 -6.2
v -7.3 0.2 -6.3
v -7.3 0.3 -6.3
v -7.2 0.2 -6.3
v -7.2 0.3 -6.3
v -7.2 0.5 -6.3
v -7.2 0.6 -6.3
v -7.1 0.5 -6.3
v -7.1 0.6 -6.3
v -7.4 0.1 -6.4
v -7.4 0.2 -6.4
v -7.3 0.1 -6.4
v -7.3 0.2 -6.4
v -7 0.3 -6.4
v -7 0.4 -6.4
v -7 0.5 -6.4
v -7 0.6 -6.4
v -6.9 0.3 -6.4
v -6.9 0.4 -6.4
v -6.9 0.5 -6.4
v -6.9 0.6 -6.4
v -7.5 0 -6.5
v -7.5 0.1 -6.5
v -7.4 0 -6.5
v -7.4 0.1 -6.5
v -6.9 0 -6.5
v -6.9 0.1 -6.5
v -6.8 0.1 -6.5
v -6.8 0.2 -6.5
v -6.7 0.2 -6.5
v -6.7 0.3 -6.5
v -6.6 0 -6.5
v -6.6 0.3 -6.5
v -7.8 0 -6.6
v -7.8 0.2 -6.6
v -7.7 0 -6.6
v -7.7 0.2 -6.6
v -6.6 0 -6.6
v -6.6 0.3 -6.6
v -6.5 0.2 -6.6
v -6.5 0.3 -6.6
v -6.4 0.2 -6.6
v -6.4 0.3 -6.6
v -6.3 0.2 -6.6
v -6.3 0.3 -6.6
v -6.2 0 -6.6
v -6.2 0.2 -6.6
v -7.9 0 -6.7
v -7.9 0.2 -6.7
v -7.8 0 -6.7
v -7.8 0.2 -6.7
v -8 0 -6.8
v -8 0.1 -6.8
v -7.9 0 -6.8
v -7.9 0.1 -6.8
v -6.5 0.1 -6.9
v -6.5 0.2 -6.9
v -6.4 0.1 -6.9
v -6.4 0.2 -6.9
v -6.3 0.3 -6.9
v -6.3 0.4 -6.9
v -6.2 0.3 -6.9
v -6.2 0.4 -6.9
v -7.6 0 -5.5
v -7.6 0.3 -5.5
v -7.6 0.5 -5.5
v -7.6 1.9 -5.5
v -7.5 0 -5.5
v -7.5 0.3 -5.5
v -7.5 0.5 -5.5
v -7.5 1.9 -5.5
v -8 0 -5.7
v -8 0.1 -5.7
v -7.9 0 -5.7
v -7.9 0.1 -5.7
v -7.8 0.1 -5.7
v -7.8 0.2 -5.7
v -7.7 0.1 -5.7
v -7.7 0.2 -5.7
v -7.5 0 -5.8
v -7.5 0.1 -5.8
v -7.5 0.3 -5.8
v -7.5 0.5 -5.8
v -7.5 0.6 -5.8
v -7.5 1.9 -5.8
v -7.4 0 -5.8
v -7.4 0.1 -5.8
v -7.4 0.3 -5.8
v -7.4 0.5 -5.8
v -7.4 0.6 -5.8
v -7.4 1.9 -5.8
v -7.4 0.3 -5.9
v -7.4 0.4 -5.9
v -7.4 0.7 -5.9
v -7.4 1.9 -5.9
v -7.3 0.3 -5.9
v -7.3 0.4 -5.9
v -7.3 0.7 -5.9
v -7.3 1.9 -5.9
v -8 0 -6
v -8 0.1 -6
v -7.9 0 -6
v -7.9 0.1 -6
v -7.9 0.1 -6.1
v -7.9 0.2 -6.1
v -7.8 0.1 -6.1
v -7.8 0.2 -6.1
v -7.3 0.5 -6.1
v -7.3 0.6 -6.1
v -7.3 0.9 -6.1
v -7.3 1.9 -6.1
v -7.2 0.5 -6.1
v -7.2 0.6 -6.1
v -7.2 0.9 -6.1
v -7.2 1.9 -6.1
v -7.3 0.2 -6.2
v -7.3 0.3 -6.2
v -7.2 0.2 -6.2
v -7.2 0.3 -6.2
v -7.2 0.5 -6.2
v -7.2 0.6 -6.2
v -7.2 0.9 -6.2
v -7.2 1.9 -6.2
v -7.1 0.5 -6.2
v -7.1 0.6 -6.2
v -7.1 0.8 -6.2
v -7.1 0.9 -6.2
v -7 0.8 -6.2
v -7 1.9 -6.2
v -7.4 0.1 -6.3
v -7.4 0.2 -6.3
v -7.4 0.6 -6.3
v -7.4 0.8 -6.3
v -7.3 0.1 -6.3
v -7.3 0.2 -6.3
v -7.3 0.6 -6.3
v -7.3 0.8 -6.3
v -7.3 0.9 -6.3
v -7.1 0.7 -6.3
v -7.1 0.8 -6.3
v -7.1 0.9 -6.3
v -7 0.3 -6.3
v -7 0.4 -6.3
v -7 0.5 -6.3
v -7 0.6 -6.3
v -7 0.8 -6.3
v -7 1.9 -6.3
v -6.9 0.3 -6.3
v -6.9 0.4 -6.3
v -6.9 0.5 -6.3
v -6.9 0.6 -6.3
v -6.9 0.7 -6.3
v -6.9 1.9 -6.3
v -7.9 0 -6.4
v -7.9 0.2 -6.4
v -7.8 0.2 -6.4
v -7.7 0 -6.4
v -7.7 0.2 -6.4
v -7.5 0 -6.4
v -7.5 0.1 -6.4
v -7.5 0.5 -6.4
v -7.5 0.6 -6.4
v -7.4 0 -6.4
v -7.4 0.1 -6.4
v -7.4 0.5 -6.4
v -7.4 0.6 -6.4
v -7.3 0.6 -6.4
v -7.3 0.8 -6.4
v -7.1 0.7 -6.4
v -7.1 0.8 -6.4
v -6.9 0 -6.4
v -6.9 0.1 -6.4
v -6.9 0.7 -6.4
v -6.9 1.9 -6.4
v -6.8 0.1 -6.4
v -6.8 0.2 -6.4
v -6.8 0.3 -6.4
v -6.8 0.6 -6.4
v -6.7 0.2 -6.4
v -6.7 0.3 -6.4
v -6.6 0 -6.4
v -6.6 1.9 -6.4
v -7.6 0.4 -6.5
v -7.6 0.5 -6.5
v -7.5 0.4 -6.5
v -7.5 0.5 -6.5
v -7.4 0.5 -6.5
v -7.4 0.6 -6.5
v -7 0.5 -6.5
v -7 0.6 -6.5
v -6.6 0 -6.5
v -6.6 0.3 -6.5
v -6.6 1.9 -6.5
v -6.5 0.2 -6.5
v -6.5 0.3 -6.5
v -6.4 0.2 -6.5
v -6.4 0.3 -6.5
v -6.4 0.4 -6.5
v -6.3 0.2 -6.5
v -6.3 0.3 -6.5
v -6.2 0 -6.5
v -6.2 0.2 -6.5
v -6.2 0.4 -6.5
v -6.2 1.9 -6.5
v -7.7 0.3 -6.6
v -7.7 0.4 -6.6
v -7.6 0.3 -6.6
v -7.6 0.4 -6.6
v -7.5 0.4 -6.6
v -7.5 0.5 -6.6
v -7 0.3 -6.6
v -7 0.4 -6.6
v -7 0.5 -6.6
v -7 0.6 -6.6
v -6.8 0.3 -6.6
v -6.8 0.6 -6.6
v -6.7 0.2 -6.6
v -6.7 0.3 -6.6
v -6.6 0.2 -6.6
v -6.6 0.3 -6.6
v -7.8 0.2 -6.7
v -7.8 0.3 -6.7
v -7.7 0 -6.7
v -7.7 0.2 -6.7
v -7.7 0.3 -6.7
v -7.6 0.3 -6.7
v -7.6 0.4 -6.7
v -7.2 0 -6.7
v -7.2 0.2 -6.7
v -7 0.3 -6.7
v -7 0.4 -6.7
v -6.9 0.1 -6.7
v -6.9 0.2 -6.7
v -6.8 0.2 -6.7
v -6.8 0.3 -6.7
v -6.7 0.2 -6.7
v -6.7 0.3 -6.7
v -6.6 0.1 -6.7
v -6.6 0.2 -6.7
v -6.6 0.3 -6.7
v -6.4 0.2 -6.7
v -6.4 0.3 -6.7
v -6.4 0.4 -6.7
v -6.3 0.3 -6.7
v -6.3 0.4 -6.7
v -7.9 0.1 -6.8
v -7.9 0.2 -6.8
v -7.8 0.1 -6.8
v -7.8 0.2 -6.8
v -7.7 0.2 -6.8
v -7.7 0.3 -6.8
v -7.2 0 -6.8
v -7.2 0.2 -6.8
v -7.1 0 -6.8
v -7.1 0.2 -6.8
v -6.9 0 -6.8
v -6.9 0.1 -6.8
v -6.9 0.2 -6.8
v -6.8 0.2 -6.8
v -6.8 0.3 -6.8
v -6.6 0 -6.8
v -6.6 0.1 -6.8
v -6.6 0.2 -6.8
v -6.4 0.1 -6.8
v -6.4 0.2 -6.8
v -6.3 0.3 -6.8
v -6.3 0.4 -6.8
v -6.2 0.3 -6.8
v -6.2 0.4 -6.8
v -8 0 -6.9
v -8 0.1 -6.9
v -7.9 0 -6.9
v -7.9 0.1 -6.9
v -7.8 0 -6.9
v -7.8 0.1 -6.9
v -7.8 0.2 -6.9
v -7.7 0 -6.9
v -7.7 0.2 -6.9
v -7.1 0.1 -6.9
v -7.1 0.2 -6.9
v -6.9 0.1 -6.9
v -6.9 0.2 -6.9
v -7.9 0 -7
v -7.9 0.1 -7
v -7.8 0 -7
v -7.8 0.1 -7
v -7.1 0 -7
v -7.1 0.1 -7
v -6.9 0 -7
v -6.9 0.1 -7
v -6.6 0 -7
v -6.6 0.1 -7
v -6.5 0 -7
v -6.5 0.1 -7
v -6.5 0.2 -7
v -6.4 0.1 -7
v -6.4 0.2 -7
v -6.4 0.3 -7
v -6.3 0.3 -7
v -6.3 0.4 -7
v -6.2 0.2 -7
v -6.2 0.4 -7
v -6.4 0 -7.1
v -6.4 0.1 -7.1
v -6.4 0.2 -7.1
v -6.3 0 -7.1
v -6.3 0.1 -7.1
v -6.2 0.1 -7.1
v -6.2 0.2 -7.1
v -6.5 0 -7.2
v -6.5 0.1 -7.2
v -6.4 0 -7.2
v -6.4 0.1 -7.2
v -6.3 0 -7.3
v -6.3 0.1 -7.3
v -6.2 0 -7.3
v -6.2 0.1 -7.3
v -7.7 0 -5.2
v -7.2 0 -5.2
v -6.2 0 -5.2
v -7.8 0 -5.3
v -7.7 0 -5.3
v -7.2 0 -5.3
v -7.1 0 -5.3
v -7.6 0 -5.5
v -7.5 0 -5.5
v -8 0 -5.6
v -7.8 0 -5.6
v -7.6 0 -5.6
v -7.5 0 -5.6
v -8 0 -5.7
v -7.9 0 -5.7
v -7.5 0 -5.8
v -7.4 0 -5.8
v -8 0 -5.9
v -7.9 0 -5.9
v -7.5 0 -5.9
v -7.4 0 -5.9
v -7.1 0 -5.9
v -7 0 -5.9
v -8 0 -6
v -7.9 0 -6
v -7 0 -6.1
v -6.6 0 -6.1
v -6.6 0 -6.3
v -6.2 0 -6.3
v -7.9 0 -6.4
v -7.7 0 -6.4
v -7.5 0 -6.4
v -7.4 0 -6.4
v -6.9 0 -6.4
v -6.6 0 -6.4
v -7.5 0 -6.5
v -7.4 0 -6.5
v -6.9 0 -6.5
v -6.6 0 -6.5
v -6.2 0 -6.5
v -7.8 0 -6.6
v -7.7 0 -6.6
v -6.6 0 -6.6
v -6.2 0 -6.6
v -7.9 0 -6.7
v -7.8 0 -6.7
v -7.7 0 -6.7
v -7.2 0 -6.7
v -8 0 -6.8
v -7.9 0 -6.8
v -7.2 0 -6.8
v -7.1 0 -6.8
v -6.9 0 -6.8
v -6.6 0 -6.8
v -8 0 -6.9
v -7.9 0 -6.9
v -7.8 0 -6.9
v -7.7 0 -6.9
v -7.9 0 -7
v -7.8 0 -7
v -7.1 0 -7
v -6.9 0 -7
v -6.6 0 -7
v -6.5 0 -7
v -6.4 0 -7.1
v -6.3 0 -7.1
v -6.5 0 -7.2
v -6.4 0 -7.2
v -6.3 0 -7.3
v -6.2 0 -7.3
v -7.5 0.1 -5.8
v -7.4 0.1 -5.8
v -7.5 0.1 -5.9
v -7.4 0.1 -5.9
v -7.5 0.1 -6.4
v -7.4 0.1 -6.4
v -6.9 0.1 -6.4
v -6.8 0.1 -6.4
v -7.5 0.1 -6.5
v -7.4 0.1 -6.5
v -6.9 0.1 -6.5
v -6.8 0.1 -6.5
v -7.8 0.2 -5.7
v -7.7 0.2 -5.7
v -7.8 0.2 -5.8
v -7.7 0.2 -5.8
v -7.4 0.2 -6.3
v -7.3 0.2 -6.3
v -7.8 0.2 -6.4
v -7.7 0.2 -6.4
v -7.4 0.2 -6.4
v -7.3 0.2 -6.4
v -6.8 0.2 -6.4
v -6.7 0.2 -6.4
v -6.8 0.2 -6.5
v -6.7 0.2 -6.5
v -6.5 0.2 -6.5
v -6.4 0.2 -6.5
v -6.3 0.2 -6.5
v -6.2 0.2 -6.5
v -7.8 0.2 -6.6
v -7.7 0.2 -6.6
v -6.5 0.2 -6.6
v -6.4 0.2 -6.6
v -6.3 0.2 -6.6
v -6.2 0.2 -6.6
v -7.7 0.2 -6.7
v -7.2 0.2 -6.7
v -6.9 0.2 -6.7
v -6.8 0.2 -6.7
v -7.7 0.2 -6.8
v -7.2 0.2 -6.8
v -6.9 0.2 -6.8
v -6.8 0.2 -6.8
v -7.6 0.3 -5.5
v -7.5 0.3 -5.5
v -7.6 0.3 -5.6
v -7.5 0.3 -5.6
v -7.3 0.3 -6.2
v -7.2 0.3 -6.2
v -7.3 0.3 -6.3
v -7.2 0.3 -6.3
v -6.4 0.3 -6.5
v -6.3 0.3 -6.5
v -6.4 0.3 -6.6
v -6.3 0.3 -6.6
v -7.4 0.4 -5.9
v -7.3 0.4 -5.9
v -7.4 0.4 -6
v -7.3 0.4 -6
v -7 0.4 -6.3
v -6.9 0.4 -6.3
v -7 0.4 -6.4
v -6.9 0.4 -6.4
v -7.5 0.5 -5.8
v -7.4 0.5 -5.8
v -7.5 0.5 -5.9
v -7.4 0.5 -5.9
v -7.3 0.6 -6.1
v -7.2 0.6 -6.1
v -7.3 0.6 -6.2
v -7.2 0.6 -6.2
v -7.1 0.6 -6.2
v -7.2 0.6 -6.3
v -7.1 0.6 -6.3
v -7 0.6 -6.3
v -6.9 0.6 -6.3
v -7 0.6 -6.4
v -6.9 0.6 -6.4
v -7.8 0.1 -5.3
v -7.7 0.1 -5.3
v -8 0.1 -5.6
v -7.8 0.1 -5.6
v -7.7 0.1 -5.6
v -8 0.1 -5.7
v -7.9 0.1 -5.7
v -7.8 0.1 -5.7
v -7.7 0.1 -5.7
v -7.9 0.1 -5.8
v -7.7 0.1 -5.8
v -8 0.1 -5.9
v -7.9 0.1 -5.9
v -8 0.1 -6
v -7.9 0.1 -6
v -7.9 0.1 -6.1
v -7.8 0.1 -6.1
v -7.9 0.1 -6.2
v -7.8 0.1 -6.2
v -7.4 0.1 -6.3
v -7.3 0.1 -6.3
v -7.4 0.1 -6.4
v -7.3 0.1 -6.4
v -6.9 0.1 -6.7
v -6.6 0.1 -6.7
v -8 0.1 -6.8
v -7.9 0.1 -6.8
v -7.8 0.1 -6.8
v -6.9 0.1 -6.8
v -6.6 0.1 -6.8
v -6.4 0.1 -6.8
v -8 0.1 -6.9
v -7.9 0.1 -6.9
v -7.8 0.1 -6.9
v -7.1 0.1 -6.9
v -6.9 0.1 -6.9
v -6.5 0.1 -6.9
v -6.4 0.1 -6.9
v -7.9 0.1 -7
v -7.8 0.1 -7
v -7.1 0.1 -7
v -6.9 0.1 -7
v -6.6 0.1 -7
v -6.5 0.1 -7
v -6.4 0.1 -7
v -6.4 0.1 -7.1
v -6.3 0.1 -7.1
v -6.2 0.1 -7.1
v -6.5 0.1 -7.2
v -6.4 0.1 -7.2
v -6.3 0.1 -7.3
v -6.2 0.1 -7.3
v -7.8 0.2 -5.6
v -7.7 0.2 -5.6
v -7.8 0.2 -5.7
v -7.7 0.2 -5.7
v -7.9 0.2 -5.8
v -7.8 0.2 -5.8
v -7.9 0.2 -6.1
v -7.8 0.2 -6.1
v -7.9 0.2 -6.2
v -7.8 0.2 -6.2
v -7.3 0.2 -6.2
v -7.2 0.2 -6.2
v -7.3 0.2 -6.3
v -7.2 0.2 -6.3
v -7.9 0.2 -6.4
v -7.8 0.2 -6.4
v -6.7 0.2 -6.6
v -6.6 0.2 -6.6
v -7.9 0.2 -6.7
v -7.8 0.2 -6.7
v -7.7 0.2 -6.7
v -6.7 0.2 -6.7
v -6.6 0.2 -6.7
v -6.4 0.2 -6.7
v -7.9 0.2 -6.8
v -7.8 0.2 -6.8
v -7.7 0.2 -6.8
v -7.1 0.2 -6.8
v -6.9 0.2 -6.8
v -6.6 0.2 -6.8
v -6.4 0.2 -6.8
v -7.8 0.2 -6.9
v -7.7 0.2 -6.9
v -7.1 0.2 -6.9
v -6.9 0.2 -6.9
v -6.5 0.2 -6.9
v -6.4 0.2 -6.9
v -6.5 0.2 -7
v -6.4 0.2 -7
v -6.2 0.2 -7
v -6.4 0.2 -7.1
v -6.2 0.2 -7.1
v -7.7 0.3 -5.2
v -7.6 0.3 -5.2
v -7.8 0.3 -5.7
v -7.7 0.3 -5.7
v -7.5 0.3 -5.8
v -7.4 0.3 -5.8
v -7.5 0.3 -5.9
v -7.4 0.3 -5.9
v -7.3 0.3 -5.9
v -7.7 0.3 -6
v -7.6 0.3 -6
v -7.4 0.3 -6
v -7.3 0.3 -6
v -7 0.3 -6.3
v -6.9 0.3 -6.3
v -7 0.3 -6.4
v -6.9 0.3 -6.4
v -6.8 0.3 -6.4
v -6.7 0.3 -6.4
v -6.7 0.3 -6.5
v -6.6 0.3 -6.5
v -6.5 0.3 -6.5
v -6.4 0.3 -6.5
v -7.7 0.3 -6.6
v -7.6 0.3 -6.6
v -7 0.3 -6.6
v -6.8 0.3 -6.6
v -6.7 0.3 -6.6
v -6.6 0.3 -6.6
v -6.5 0.3 -6.6
v -7.8 0.3 -6.7
v -7.7 0.3 -6.7
v -7.6 0.3 -6.7
v -7 0.3 -6.7
v -6.8 0.3 -6.7
v -6.7 0.3 -6.7
v -6.6 0.3 -6.7
v -6.4 0.3 -6.7
v -6.3 0.3 -6.7
v -7.7 0.3 -6.8
v -6.8 0.3 -6.8
v -6.3 0.3 -6.8
v -6.2 0.3 -6.8
v -6.3 0.3 -6.9
v -6.2 0.3 -6.9
v -6.4 0.3 -7
v -6.3 0.3 -7
v -7.7 0.4 -6
v -7.6 0.4 -6
v -7.6 0.4 -6.5
v -7.5 0.4 -6.5
v -6.4 0.4 -6.5
v -6.2 0.4 -6.5
v -7.7 0.4 -6.6
v -7.6 0.4 -6.6
v -7.5 0.4 -6.6
v -7 0.4 -6.6
v -7.6 0.4 -6.7
v -7 0.4 -6.7
v -6.4 0.4 -6.7
v -6.3 0.4 -6.7
v -6.3 0.4 -6.8
v -6.2 0.4 -6.8
v -6.3 0.4 -6.9
v -6.2 0.4 -6.9
v -6.3 0.4 -7
v -6.2 0.4 -7
v -7.6 0.5 -5.5
v -7.5 0.5 -5.5
v -7.3 0.5 -6.1
v -7.2 0.5 -6.1
v -7.3 0.5 -6.2
v -7.2 0.5 -6.2
v -7.1 0.5 -6.2
v -7.2 0.5 -6.3
v -7.1 0.5 -6.3
v -7 0.5 -6.3
v -6.9 0.5 -6.3
v -7.5 0.5 -6.4
v -7.4 0.5 -6.4
v -7 0.5 -6.4
v -6.9 0.5 -6.4
v -7.6 0.5 -6.5
v -7.5 0.5 -6.5
v -7.4 0.5 -6.5
v -7 0.5 -6.5
v -7.5 0.5 -6.6
v -7 0.5 -6.6
v -7.5 0.6 -5.8
v -7.4 0.6 -5.8
v -7.4 0.6 -6.3
v -7.3 0.6 -6.3
v -7.5 0.6 -6.4
v -7.4 0.6 -6.4
v -7.3 0.6 -6.4
v -6.8 0.6 -6.4
v -7.4 0.6 -6.5
v -7 0.6 -6.5
v -7 0.6 -6.6
v -6.8 0.6 -6.6
v -7.4 0.7 -5.9
v -7.3 0.7 -5.9
v -7.4 0.7 -6.1
v -7.3 0.7 -6.1
v -7.1 0.7 -6.3
v -6.9 0.7 -6.3
v -7.1 0.7 -6.4
v -6.9 0.7 -6.4
v -7.4 0.8 -6.1
v -7.3 0.8 -6.1
v -7.1 0.8 -6.2
v -7 0.8 -6.2
v -7.4 0.8 -6.3
v -7.3 0.8 -6.3
v -7.1 0.8 -6.3
v -7 0.8 -6.3
v -7.3 0.8 -6.4
v -7.1 0.8 -6.4
v -7.3 0.9 -6.1
v -7.2 0.9 -6.1
v -7.2 0.9 -6.2
v -7.1 0.9 -6.2
v -7.3 0.9 -6.3
v -7.1 0.9 -6.3
v -7.6 1.9 -5.2
v -7.2 1.9 -5.2
v -6.2 1.9 -5.2
v -7.6 1.9 -5.5
v -7.5 1.9 -5.5
v -7.2 1.9 -5.6
v -7.1 1.9 -5.6
v -7.1 1.9 -5.7
v -6.9 1.9 -5.7
v -7.5 1.9 -5.8
v -7.4 1.9 -5.8
v -7.4 1.9 -5.9
v -7.3 1.9 -5.9
v -6.9 1.9 -5.9
v -6.8 1.9 -5.9
v -6.8 1.9 -6
v -6.6 1.9 -6
v -7.3 1.9 -6.1
v -7.2 1.9 -6.1
v -6.6 1.9 -6.1
v -6.2 1.9 -6.1
v -7.2 1.9 -6.2
v -7 1.9 -6.2
v -7 1.9 -6.3
v -6.9 1.9 -6.3
v -6.9 1.9 -6.4
v -6.6 1.9 -6.4
v -6.6 1.9 -6.5
v -6.2 1.9 -6.5

# faces
f 7/2/1 2/2/1 1/2/1
f 8/2/1 2/2/1 7/2/1
f 9/2/1 4/2/1 3/2/1
f 10/2/1 4/2/1 9/2/1
f 11/2/1 6/2/1 5/2/1
f 12/2/1 6/2/1 11/2/1
f 21/2/1 14/2/1 13/2/1
f 22/2/1 14/2/1 21/2/1
f 23/2/1 14/2/1 22/2/1
f 24/2/1 16/2/1 15/2/1
f 25/2/1 16/2/1 24/2/1
f 26/2/1 16/2/1 25/2/1
f 27/2/1 18/2/1 17/2/1
f 28/2/1 20/2/1 19/2/1
f 29/2/1 20/2/1 28/2/1
f 30/2/1 23/2/1 22/2/1
f 30/2/1 24/2/1 23/2/1
f 30/2/1 25/2/1 24/2/1
f 31/2/1 25/2/1 30/2/1
f 32/2/1 16/2/1 26/2/1
f 33/2/1 16/2/1 32/2/1
f 34/2/1 27/2/1 17/2/1
f 35/2/1 27/2/1 34/2/1
f 40/2/1 37/2/1 36/2/1
f 41/2/1 37/2/1 40/2/1
f 47/2/1 42/2/1 41/2/1
f 48/2/1 42/2/1 47/2/1
f 50/2/1 44/2/1 43/2/1
f 51/2/1 44/2/1 50/2/1
f 53/2/1 39/2/1 38/2/1
f 54/2/1 39/2/1 53/2/1
f 55/2/1 46/2/1 45/2/1
f 56/2/1 46/2/1 55/2/1
f 57/2/1 52/2/1 51/2/1
f 57/2/1 54/2/1 53/2/1
f 57/2/1 49/2/1 48/2/1
f 57/2/1 53/2/1 52/2/1
f 57/2/1 51/2/1 50/2/1
f 57/2/1 50/2/1 49/2/1
f 58/2/1 54/2/1 57/2/1
f 63/2/1 60/2/1 59/2/1
f 67/2/1 64/2/1 63/2/1
f 68/2/1 66/2/1 65/2/1
f 69/2/1 66/2/1 68/2/1
f 70/2/1 62/2/1 61/2/1
f 71/2/1 62/2/1 70/2/1
f 74/2/1 63/2/1 59/2/1
f 74/2/1 67/2/1 63/2/1
f 74/2/1 68/2/1 67/2/1
f 75/2/1 68/2/1 74/2/1
f 78/2/1 73/2/1 72/2/1
f 79/2/1 73/2/1 78/2/1
f 80/2/1 77/2/1 76/2/1
f 81/2/1 77/2/1 80/2/1
f 86/2/1 83/2/1 82/2/1
f 88/2/1 85/2/1 84/2/1
f 89/2/1 85/2/1 88/2/1
f 90/2/1 87/2/1 86/2/1
f 90/2/1 86/2/1 82/2/1
f 91/2/1 87/2/1 90/2/1
f 92/2/1 90/2/1 82/2/1
f 93/2/1 90/2/1 92/2/1
f 96/2/1 95/2/1 94/2/1
f 97/2/1 95/2/1 96/2/1
f 102/2/1 99/2/1 98/2/1
f 103/2/1 99/2/1 102/2/1
f 104/2/1 101/2/1 100/2/1
f 105/2/1 101/2/1 104/2/1
f 106/2/1 104/2/1 100/2/1
f 107/2/1 104/2/1 106/2/1
f 112/2/1 109/2/1 108/2/1
f 113/2/1 109/2/1 112/2/1
f 114/2/1 111/2/1 110/2/1
f 115/2/1 111/2/1 114/2/1
f 118/2/1 117/2/1 116/2/1
f 119/2/1 117/2/1 118/2/1
f 124/2/1 121/2/1 120/2/1
f 125/2/1 121/2/1 124/2/1
f 126/2/1 123/2/1 122/2/1
f 127/2/1 123/2/1 126/2/1
f 128/2/1 123/2/1 127/2/1
f 129/2/1 123/2/1 128/2/1
f 130/2/1 126/2/1 122/2/1
f 131/2/1 126/2/1 130/2/1
f 134/2/1 133/2/1 132/2/1
f 135/2/1 133/2/1 134/2/1
f 138/2/1 137/2/1 136/2/1
f 139/2/1 137/2/1 138/2/1
f 144/2/1 143/2/1 142/2/1
f 145/2/1 141/2/1 140/2/1
f 146/2/1 141/2/1 145/2/1
f 147/2/1 144/2/1 142/2/1
f 147/2/1 145/2/1 144/2/1
f 148/2/1 145/2/1 147/2/1
f 149/2/1 147/2/1 142/2/1
f 150/2/1 147/2/1 149/2/1
f 155/2/1 152/2/1 151/2/1
f 156/2/1 152/2/1 155/2/1
f 157/2/1 154/2/1 153/2/1
f 158/2/1 154/2/1 157/2/1
f 161/2/1 160/2/1 159/2/1
f 162/2/1 160/2/1 161/2/1
f 165/2/1 164/2/1 163/2/1
f 166/2/1 164/2/1 165/2/1
f 169/2/1 168/2/1 167/2/1
f 170/2/1 168/2/1 169/2/1
f 171/2/1 169/2/1 167/2/1
f 172/2/1 169/2/1 171/2/1
f 175/2/1 174/2/1 173/2/1
f 176/2/1 174/2/1 175/2/1
f 179/2/1 178/2/1 177/2/1
f 180/2/1 178/2/1 179/2/1
f 183/2/1 182/2/1 181/2/1
f 184/2/1 182/2/1 183/2/1
f 187/2/1 186/2/1 185/2/1
f 188/2/1 186/2/1 187/2/1
f 191/2/1 190/2/1 189/2/1
f 192/2/1 190/2/1 191/2/1
f 195/2/1 194/2/1 193/2/1
f 196/2/1 194/2/1 195/2/1
f 202/2/1 200/2/1 199/2/1
f 203/2/1 200/2/1 202/2/1
f 205/2/1 202/2/1 201/2/1
f 206/2/1 202/2/1 205/2/1
f 207/2/1 198/2/1 197/2/1
f 208/2/1 205/2/1 204/2/1
f 209/2/1 205/2/1 208/2/1
f 210/2/1 207/2/1 197/2/1
f 211/2/1 207/2/1 210/2/1
f 215/2/1 213/2/1 212/2/1
f 216/2/1 213/2/1 215/2/1
f 219/2/1 215/2/1 214/2/1
f 220/2/1 215/2/1 219/2/1
f 221/2/1 218/2/1 217/2/1
f 222/2/1 218/2/1 221/2/1
f 228/2/1 224/2/1 223/2/1
f 229/2/1 224/2/1 228/2/1
f 230/2/1 226/2/1 225/2/1
f 231/2/1 226/2/1 230/2/1
f 233/2/1 229/2/1 228/2/1
f 233/2/1 228/2/1 227/2/1
f 233/2/1 230/2/1 229/2/1
f 234/2/1 230/2/1 233/2/1
f 235/2/1 233/2/1 232/2/1
f 236/2/1 233/2/1 235/2/1
f 239/2/1 238/2/1 237/2/1
f 240/2/1 238/2/1 239/2/1
f 243/2/1 242/2/1 241/2/1
f 244/2/1 242/2/1 243/2/1
f 249/2/1 246/2/1 245/2/1
f 250/2/1 246/2/1 249/2/1
f 251/2/1 248/2/1 247/2/1
f 252/2/1 248/2/1 251/2/1
f 253/2/2 254/2/2 255/2/2
f 255/2/2 254/2/2 256/2/2
f 257/2/2 258/2/2 259/2/2
f 259/2/2 258/2/2 260/2/2
f 260/2/2 258/2/2 261/2/2
f 262/2/2 263/2/2 264/2/2
f 264/2/2 263/2/2 265/2/2
f 266/2/2 267/2/2 270/2/2
f 270/2/2 267/2/2 271/2/2
f 268/2/2 269/2/2 272/2/2
f 272/2/2 269/2/2 273/2/2
f 274/2/2 275/2/2 276/2/2
f 276/2/2 275/2/2 277/2/2
f 278/2/2 279/2/2 280/2/2
f 280/2/2 279/2/2 281/2/2
f 282/2/2 283/2/2 284/2/2
f 284/2/2 283/2/2 285/2/2
f 286/2/2 287/2/2 288/2/2
f 288/2/2 287/2/2 289/2/2
f 290/2/2 291/2/2 292/2/2
f 292/2/2 291/2/2 293/2/2
f 294/2/2 295/2/2 296/2/2
f 296/2/2 295/2/2 297/2/2
f 298/2/2 299/2/2 301/2/2
f 301/2/2 299/2/2 302/2/2
f 300/2/2 301/2/2 303/2/2
f 303/2/2 301/2/2 304/2/2
f 305/2/2 306/2/2 309/2/2
f 309/2/2 306/2/2 310/2/2
f 307/2/2 308/2/2 311/2/2
f 311/2/2 308/2/2 312/2/2
f 313/2/2 314/2/2 315/2/2
f 315/2/2 314/2/2 316/2/2
f 317/2/2 318/2/2 321/2/2
f 321/2/2 318/2/2 322/2/2
f 319/2/2 320/2/2 324/2/2
f 324/2/2 320/2/2 325/2/2
f 325/2/2 320/2/2 326/2/2
f 323/2/2 324/2/2 327/2/2
f 324/2/2 325/2/2 327/2/2
f 327/2/2 325/2/2 328/2/2
f 328/2/2 325/2/2 329/2/2
f 330/2/2 331/2/2 332/2/2
f 332/2/2 331/2/2 333/2/2
f 334/2/2 335/2/2 338/2/2
f 338/2/2 335/2/2 339/2/2
f 336/2/2 337/2/2 340/2/2
f 340/2/2 337/2/2 341/2/2
f 342/2/2 343/2/2 346/2/2
f 346/2/2 343/2/2 347/2/2
f 344/2/2 345/2/2 348/2/2
f 348/2/2 345/2/2 349/2/2
f 350/2/2 351/2/2 352/2/2
f 352/2/2 351/2/2 353/2/2
f 354/2/2 355/2/2 356/2/2
f 356/2/2 355/2/2 357/2/2
f 358/2/2 359/2/2 360/2/2
f 360/2/2 359/2/2 361/2/2
f 365/2/2 366/2/2 367/2/2
f 367/2/2 366/2/2 368/2/2
f 363/2/2 364/2/2 369/2/2
f 365/2/2 367/2/2 370/2/2
f 370/2/2 367/2/2 371/2/2
f 371/2/2 367/2/2 372/2/2
f 369/2/2 370/2/2 373/2/2
f 370/2/2 371/2/2 373/2/2
f 373/2/2 371/2/2 374/2/2
f 363/2/2 369/2/2 375/2/2
f 369/2/2 373/2/2 375/2/2
f 375/2/2 373/2/2 376/2/2
f 374/2/2 371/2/2 377/2/2
f 377/2/2 371/2/2 378/2/2
f 362/1/2 363/1/2 379/1/2
f 363/2/2 375/2/2 380/2/2
f 379/1/2 363/1/2 380/1/2
f 362/1/2 379/1/2 381/1/2
f 379/2/2 380/2/2 382/2/2
f 381/1/2 379/1/2 382/1/2
f 380/2/2 375/2/2 383/2/2
f 382/2/2 380/2/2 383/2/2
f 386/2/3 385/2/3 384/2/3
f 388/2/3 386/2/3 384/2/3
f 388/2/3 387/2/3 386/2/3
f 389/2/3 387/2/3 388/2/3
f 390/1/3 389/1/3 388/1/3
f 391/1/3 389/1/3 390/1/3
f 394/2/3 393/2/3 392/2/3
f 395/2/3 393/2/3 394/2/3
f 398/2/3 397/2/3 396/2/3
f 399/2/3 397/2/3 398/2/3
f 401/2/3 400/2/3 399/2/3
f 402/2/3 400/2/3 401/2/3
f 405/2/3 404/2/3 403/2/3
f 406/2/3 404/2/3 405/2/3
f 409/2/3 408/2/3 407/2/3
f 410/2/3 408/2/3 409/2/3
f 413/2/3 412/2/3 411/2/3
f 414/2/3 413/2/3 411/2/3
f 415/2/3 413/2/3 414/2/3
f 418/2/3 417/2/3 416/2/3
f 419/2/3 417/2/3 418/2/3
f 424/2/3 421/2/3 420/2/3
f 425/2/3 421/2/3 424/2/3
f 426/2/3 423/2/3 422/2/3
f 427/2/3 423/2/3 426/2/3
f 430/2/3 429/2/3 428/2/3
f 431/2/3 429/2/3 430/2/3
f 434/2/3 433/2/3 432/2/3
f 435/2/3 433/2/3 434/2/3
f 438/2/3 437/2/3 436/2/3
f 439/2/3 437/2/3 438/2/3
f 442/2/3 441/2/3 440/2/3
f 443/2/3 441/2/3 442/2/3
f 446/2/3 445/2/3 444/2/3
f 447/2/3 445/2/3 446/2/3
f 450/2/3 449/2/3 448/2/3
f 451/2/3 449/2/3 450/2/3
f 454/2/3 453/2/3 452/2/3
f 455/2/3 453/2/3 454/2/3
f 458/2/3 457/2/3 456/2/3
f 459/2/3 457/2/3 458/2/3
f 464/2/3 461/2/3 460/2/3
f 465/2/3 461/2/3 464/2/3
f 466/2/3 463/2/3 462/2/3
f 467/2/3 463/2/3 466/2/3
f 470/2/3 469/2/3 468/2/3
f 471/2/3 469/2/3 470/2/3
f 474/2/3 473/2/3 472/2/3
f 476/2/3 475/2/3 474/2/3
f 478/2/3 474/2/3 472/2/3
f 478/2/3 477/2/3 476/2/3
f 478/2/3 476/2/3 474/2/3
f 479/2/3 477/2/3 478/2/3
f 482/2/3 481/2/3 480/2/3
f 483/2/3 481/2/3 482/2/3
f 486/2/3 485/2/3 484/2/3
f 487/2/3 485/2/3 486/2/3
f 488/2/3 486/2/3 484/2/3
f 490/2/3 488/2/3 484/2/3
f 490/2/3 489/2/3 488/2/3
f 491/2/3 489/2/3 490/2/3
f 492/2/3 490/2/3 484/2/3
f 493/2/3 490/2/3 492/2/3
f 496/2/3 495/2/3 494/2/3
f 497/2/3 495/2/3 496/2/3
f 500/2/3 499/2/3 498/2/3
f 501/2/3 499/2/3 500/2/3
f 504/2/3 503/2/3 502/2/3
f 505/2/3 503/2/3 504/2/3
f 508/2/3 507/2/3 506/2/3
f 509/2/3 507/2/3 508/2/3
f 510/2/4 511/2/4 514/2/4
f 514/2/4 511/2/4 515/2/4
f 512/2/4 513/2/4 516/2/4
f 516/2/4 513/2/4 517/2/4
f 518/2/4 519/2/4 520/2/4
f 520/2/4 519/2/4 521/2/4
f 522/2/4 523/2/4 524/2/4
f 524/2/4 523/2/4 525/2/4
f 526/2/4 527/2/4 532/2/4
f 532/2/4 527/2/4 533/2/4
f 528/2/4 529/2/4 534/2/4
f 534/2/4 529/2/4 535/2/4
f 530/2/4 531/2/4 536/2/4
f 536/2/4 531/2/4 537/2/4
f 538/2/4 539/2/4 542/2/4
f 542/2/4 539/2/4 543/2/4
f 540/2/4 541/2/4 544/2/4
f 544/2/4 541/2/4 545/2/4
f 546/2/4 547/2/4 548/2/4
f 548/2/4 547/2/4 549/2/4
f 550/2/4 551/2/4 552/2/4
f 552/2/4 551/2/4 553/2/4
f 554/2/4 555/2/4 558/2/4
f 558/2/4 555/2/4 559/2/4
f 556/2/4 557/2/4 560/2/4
f 560/2/4 557/2/4 561/2/4
f 562/2/4 563/2/4 564/2/4
f 564/2/4 563/2/4 565/2/4
f 566/2/4 567/2/4 570/2/4
f 570/2/4 567/2/4 571/2/4
f 568/2/4 569/2/4 573/2/4
f 572/2/4 573/2/4 574/2/4
f 573/2/4 569/2/4 575/2/4
f 574/2/4 573/2/4 575/2/4
f 576/2/4 577/2/4 580/2/4
f 580/2/4 577/2/4 581/2/4
f 578/2/4 579/2/4 582/2/4
f 582/2/4 579/2/4 583/2/4
f 583/2/4 584/2/4 586/2/4
f 586/2/4 584/2/4 587/2/4
f 585/2/4 586/2/4 592/2/4
f 588/2/4 589/2/4 594/2/4
f 594/2/4 589/2/4 595/2/4
f 590/2/4 591/2/4 596/2/4
f 596/2/4 591/2/4 597/2/4
f 585/2/4 592/2/4 598/2/4
f 592/2/4 593/2/4 598/2/4
f 598/2/4 593/2/4 599/2/4
f 600/2/4 601/2/4 602/2/4
f 600/2/4 602/2/4 603/2/4
f 603/2/4 602/2/4 604/2/4
f 605/2/4 606/2/4 609/2/4
f 609/2/4 606/2/4 610/2/4
f 607/2/4 608/2/4 611/2/4
f 611/2/4 608/2/4 612/2/4
f 613/2/4 614/2/4 615/2/4
f 615/2/4 614/2/4 616/2/4
f 613/2/4 615/2/4 619/2/4
f 617/2/4 618/2/4 621/2/4
f 619/2/4 620/2/4 624/2/4
f 613/2/4 619/2/4 624/2/4
f 621/2/4 622/2/4 625/2/4
f 623/2/4 624/2/4 626/2/4
f 621/2/4 625/2/4 627/2/4
f 625/2/4 626/2/4 627/2/4
f 617/2/4 621/2/4 627/2/4
f 626/2/4 624/2/4 628/2/4
f 627/2/4 626/2/4 628/2/4
f 624/2/4 620/2/4 628/2/4
f 629/2/4 630/2/4 631/2/4
f 631/2/4 630/2/4 632/2/4
f 633/2/4 634/2/4 635/2/4
f 635/2/4 634/2/4 636/2/4
f 637/2/4 638/2/4 640/2/4
f 638/2/4 639/2/4 640/2/4
f 640/2/4 639/2/4 641/2/4
f 637/2/4 640/2/4 642/2/4
f 641/2/4 639/2/4 643/2/4
f 643/2/4 639/2/4 644/2/4
f 637/2/4 642/2/4 645/2/4
f 642/2/4 643/2/4 645/2/4
f 645/2/4 643/2/4 646/2/4
f 637/2/4 645/2/4 647/2/4
f 647/2/4 645/2/4 648/2/4
f 644/2/4 639/2/4 649/2/4
f 649/2/4 639/2/4 650/2/4
f 651/2/4 652/2/4 653/2/4
f 653/2/4 652/2/4 654/2/4
f 655/2/4 656/2/4 658/2/4
f 658/2/4 656/2/4 659/2/4
f 657/2/4 658/2/4 661/2/4
f 659/2/4 660/2/4 661/2/4
f 658/2/4 659/2/4 661/2/4
f 661/2/4 660/2/4 662/2/4
f 663/2/4 664/2/4 665/2/4
f 665/2/4 664/2/4 666/2/4
f 667/2/4 668/2/4 670/2/4
f 670/2/4 668/2/4 671/2/4
f 669/2/4 670/2/4 674/2/4
f 674/2/4 670/2/4 675/2/4
f 672/2/4 673/2/4 676/2/4
f 676/2/4 673/2/4 677/2/4
f 678/2/4 679/2/4 680/2/4
f 678/2/4 680/2/4 682/2/4
f 680/2/4 681/2/4 682/2/4
f 682/2/4 681/2/4 683/2/4
f 678/2/4 682/2/4 684/2/4
f 684/2/4 682/2/4 685/2/4
f 685/2/4 686/2/4 687/2/4
f 687/2/4 686/2/4 688/2/4
f 688/2/4 689/2/4 690/2/4
f 690/2/4 689/2/4 691/2/4
f 692/2/4 693/2/4 694/2/4
f 694/2/4 693/2/4 695/2/4
f 696/2/4 697/2/4 699/2/4
f 698/2/4 699/2/4 700/2/4
f 699/2/4 697/2/4 701/2/4
f 700/2/4 699/2/4 701/2/4
f 701/2/4 697/2/4 704/2/4
f 704/2/4 697/2/4 705/2/4
f 705/2/4 697/2/4 706/2/4
f 702/2/4 703/2/4 707/2/4
f 707/2/4 703/2/4 708/2/4
f 708/2/4 709/2/4 710/2/4
f 710/2/4 709/2/4 711/2/4
f 712/2/4 713/2/4 714/2/4
f 714/2/4 713/2/4 715/2/4
f 716/2/4 717/2/4 718/2/4
f 718/2/4 717/2/4 719/2/4
f 720/2/4 721/2/4 723/2/4
f 721/2/4 722/2/4 723/2/4
f 723/2/4 722/2/4 724/2/4
f 725/2/4 726/2/4 727/2/4
f 727/2/4 726/2/4 728/2/4
f 729/2/4 730/2/4 731/2/4
f 731/2/4 730/2/4 732/2/4
f 733/2/4 734/2/4 735/2/4
f 735/2/4 734/2/4 736/2/4
f 737/2/4 738/2/4 739/2/4
f 739/2/4 738/2/4 740/2/4
f 740/2/4 741/2/4 742/2/4
f 742/2/4 741/2/4 743/2/4
f 743/2/4 744/2/4 745/2/4
f 743/2/4 745/2/4 747/2/4
f 745/2/4 746/2/4 747/2/4
f 747/2/4 746/2/4 748/2/4
f 749/2/4 750/2/4 752/2/4
f 750/2/4 751/2/4 752/2/4
f 752/2/4 751/2/4 753/2/4
f 753/2/4 751/2/4 754/2/4
f 754/2/4 751/2/4 755/2/4
f 756/2/4 757/2/4 758/2/4
f 758/2/4 757/2/4 759/2/4
f 760/2/4 761/2/4 762/2/4
f 762/2/4 761/2/4 763/2/4
f 768/2/5 765/2/5 764/2/5
f 769/1/5 766/1/5 765/1/5
f 769/2/5 765/2/5 768/2/5
f 770/1/5 766/1/5 769/1/5
f 771/2/5 768/2/5 767/2/5
f 771/2/5 769/2/5 768/2/5
f 771/2/5 770/2/5 769/2/5
f 772/2/5 770/2/5 771/2/5
f 774/2/5 771/2/5 767/2/5
f 775/2/5 771/2/5 774/2/5
f 776/2/5 770/2/5 772/2/5
f 777/2/5 775/2/5 774/2/5
f 777/2/5 776/2/5 775/2/5
f 777/2/5 774/2/5 773/2/5
f 778/2/5 776/2/5 777/2/5
f 779/2/5 770/2/5 776/2/5
f 779/2/5 776/2/5 778/2/5
f 780/2/5 770/2/5 779/2/5
f 782/2/5 779/2/5 778/2/5
f 783/2/5 779/2/5 782/2/5
f 784/2/5 770/2/5 780/2/5
f 785/1/5 766/1/5 770/1/5
f 785/2/5 770/2/5 784/2/5
f 786/1/5 766/1/5 785/1/5
f 787/2/5 784/2/5 783/2/5
f 787/2/5 783/2/5 782/2/5
f 787/2/5 786/2/5 785/2/5
f 787/2/5 785/2/5 784/2/5
f 787/2/5 782/2/5 781/2/5
f 788/2/5 786/2/5 787/2/5
f 789/1/5 766/1/5 786/1/5
f 789/2/5 786/2/5 788/2/5
f 790/1/5 766/1/5 789/1/5
f 791/2/5 790/2/5 789/2/5
f 791/1/5 766/1/5 790/1/5
f 792/1/5 766/1/5 791/1/5
f 793/2/5 789/2/5 788/2/5
f 793/2/5 791/2/5 789/2/5
f 793/2/5 792/2/5 791/2/5
f 794/2/5 792/2/5 793/2/5
f 795/2/5 792/2/5 794/2/5
f 796/2/5 792/2/5 795/2/5
f 797/2/5 792/2/5 796/2/5
f 798/2/5 792/2/5 797/2/5
f 799/2/5 795/2/5 794/2/5
f 800/2/5 797/2/5 796/2/5
f 801/2/5 797/2/5 800/2/5
f 802/2/5 792/2/5 798/2/5
f 803/2/5 792/2/5 802/2/5
f 805/2/5 801/2/5 800/2/5
f 805/2/5 799/2/5 794/2/5
f 805/2/5 802/2/5 801/2/5
f 805/2/5 800/2/5 799/2/5
f 806/2/5 802/2/5 805/2/5
f 809/2/5 805/2/5 804/2/5
f 809/2/5 807/2/5 806/2/5
f 809/2/5 806/2/5 805/2/5
f 810/2/5 807/2/5 809/2/5
f 811/2/5 807/2/5 810/2/5
f 813/2/5 809/2/5 808/2/5
f 813/2/5 810/2/5 809/2/5
f 814/2/5 807/2/5 811/2/5
f 815/2/5 807/2/5 814/2/5
f 816/2/5 807/2/5 815/2/5
f 817/2/5 807/2/5 816/2/5
f 818/2/5 813/2/5 812/2/5
f 819/2/5 810/2/5 813/2/5
f 819/2/5 813/2/5 818/2/5
f 820/2/5 810/2/5 819/2/5
f 821/2/5 810/2/5 820/2/5
f 822/2/5 820/2/5 819/2/5
f 823/2/5 820/2/5 822/2/5
f 824/2/5 816/2/5 815/2/5
f 825/2/5 816/2/5 824/2/5
f 826/2/5 807/2/5 817/2/5
f 827/2/5 807/2/5 826/2/5
f 828/2/5 807/2/5 827/2/5
f 829/2/5 807/2/5 828/2/5
f 830/2/5 828/2/5 827/2/5
f 831/2/5 828/2/5 830/2/5
f 832/2/5 807/2/5 829/2/5
f 833/2/5 807/2/5 832/2/5
f 836/2/5 835/2/5 834/2/5
f 837/2/5 835/2/5 836/2/5
f 842/2/5 839/2/5 838/2/5
f 843/2/5 839/2/5 842/2/5
f 844/2/5 841/2/5 840/2/5
f 845/2/5 841/2/5 844/2/5
f 848/2/5 847/2/5 846/2/5
f 849/2/5 847/2/5 848/2/5
f 854/2/5 851/2/5 850/2/5
f 855/2/5 851/2/5 854/2/5
f 858/2/5 857/2/5 856/2/5
f 859/2/5 857/2/5 858/2/5
f 864/2/5 853/2/5 852/2/5
f 865/2/5 853/2/5 864/2/5
f 866/2/5 861/2/5 860/2/5
f 867/2/5 861/2/5 866/2/5
f 868/2/5 863/2/5 862/2/5
f 869/2/5 863/2/5 868/2/5
f 874/2/5 871/2/5 870/2/5
f 875/2/5 871/2/5 874/2/5
f 876/2/5 873/2/5 872/2/5
f 877/2/5 873/2/5 876/2/5
f 880/2/5 879/2/5 878/2/5
f 881/2/5 879/2/5 880/2/5
f 884/2/5 883/2/5 882/2/5
f 885/2/5 883/2/5 884/2/5
f 888/2/5 887/2/5 886/2/5
f 889/2/5 887/2/5 888/2/5
f 892/2/5 891/2/5 890/2/5
f 893/2/5 891/2/5 892/2/5
f 896/2/5 895/2/5 894/2/5
f 897/2/5 895/2/5 896/2/5
f 900/2/5 899/2/5 898/2/5
f 901/2/5 899/2/5 900/2/5
f 904/2/5 903/2/5 902/2/5
f 905/2/5 903/2/5 904/2/5
f 907/2/5 906/2/5 905/2/5
f 908/2/5 906/2/5 907/2/5
f 911/2/5 910/2/5 909/2/5
f 912/2/5 910/2/5 911/2/5
f 913/2/6 914/2/6 916/2/6
f 916/2/6 914/2/6 917/2/6
f 915/2/6 916/2/6 918/2/6
f 918/2/6 916/2/6 919/2/6
f 919/2/6 916/2/6 920/2/6
f 920/2/6 921/2/6 922/2/6
f 919/2/6 920/2/6 922/2/6
f 922/2/6 921/2/6 923/2/6
f 924/2/6 925/2/6 926/2/6
f 926/2/6 925/2/6 927/2/6
f 928/2/6 929/2/6 930/2/6
f 930/2/6 929/2/6 931/2/6
f 932/2/6 933/2/6 934/2/6
f 934/2/6 933/2/6 935/2/6
f 936/2/6 937/2/6 941/2/6
f 941/2/6 937/2/6 942/2/6
f 939/2/6 940/2/6 944/2/6
f 938/2/6 939/2/6 944/2/6
f 944/2/6 940/2/6 945/2/6
f 945/2/6 940/2/6 946/2/6
f 942/2/6 943/2/6 949/2/6
f 949/2/6 943/2/6 950/2/6
f 945/2/6 946/2/6 951/2/6
f 951/2/6 946/2/6 952/2/6
f 947/2/6 948/2/6 953/2/6
f 953/2/6 948/2/6 954/2/6
f 942/2/6 949/2/6 955/2/6
f 955/2/6 949/2/6 956/2/6
f 956/2/6 957/2/6 958/2/6
f 956/2/6 958/2/6 961/2/6
f 961/2/6 958/2/6 962/2/6
f 959/2/6 960/2/6 963/2/6
f 963/2/6 960/2/6 964/2/6
f 965/2/6 966/2/6 967/2/6
f 967/2/6 966/2/6 968/2/6
f 969/2/6 970/2/6 971/2/6
f 971/2/6 970/2/6 972/2/6
f 975/2/6 976/2/6 977/2/6
f 977/2/6 976/2/6 978/2/6
f 973/2/6 974/2/6 979/2/6
f 979/2/6 974/2/6 980/2/6
f 981/2/6 982/2/6 986/2/6
f 986/2/6 982/2/6 987/2/6
f 984/2/6 985/2/6 989/2/6
f 983/2/6 984/2/6 989/2/6
f 989/2/6 985/2/6 990/2/6
f 990/2/6 985/2/6 991/2/6
f 987/2/6 988/2/6 994/2/6
f 994/2/6 988/2/6 995/2/6
f 990/2/6 991/2/6 996/2/6
f 996/2/6 991/2/6 997/2/6
f 992/2/6 993/2/6 998/2/6
f 998/2/6 993/2/6 999/2/6
f 1000/2/6 1001/2/6 1002/2/6
f 1002/2/6 1001/2/6 1003/2/6
f 1003/2/6 1004/2/6 1005/2/6
f 1005/2/6 1004/2/6 1006/2/6
f 1007/2/6 1008/2/6 1010/2/6
f 1011/2/6 1012/2/6 1013/2/6
f 1013/2/6 1012/2/6 1014/2/6
f 1010/2/6 1008/2/6 1016/2/6
f 1009/2/6 1010/2/6 1016/2/6
f 1016/2/6 1008/2/6 1017/2/6
f 1014/2/6 1015/2/6 1018/2/6
f 1018/2/6 1015/2/6 1019/2/6
f 1020/2/6 1021/2/6 1022/2/6
f 1022/2/6 1021/2/6 1023/2/6
f 1024/2/6 1025/2/6 1026/2/6
f 1009/2/6 1016/2/6 1030/2/6
f 1024/2/6 1026/2/6 1033/2/6
f 1026/2/6 1027/2/6 1033/2/6
f 1033/2/6 1027/2/6 1034/2/6
f 1034/2/6 1027/2/6 1035/2/6
f 1028/2/6 1029/2/6 1036/2/6
f 1030/2/6 1031/2/6 1037/2/6
f 1009/2/6 1030/2/6 1037/2/6
f 1037/2/6 1031/2/6 1038/2/6
f 1038/2/6 1031/2/6 1039/2/6
f 1032/2/6 1033/2/6 1040/2/6
f 1033/2/6 1034/2/6 1040/2/6
f 1040/2/6 1034/2/6 1041/2/6
f 1041/2/6 1034/2/6 1042/2/6
f 1035/2/6 1036/2/6 1043/2/6
f 1036/2/6 1029/2/6 1044/2/6
f 1043/2/6 1036/2/6 1044/2/6
f 1038/2/6 1039/2/6 1046/2/6
f 1040/2/6 1041/2/6 1046/2/6
f 1039/2/6 1040/2/6 1046/2/6
f 1046/2/6 1041/2/6 1047/2/6
f 1044/2/6 1045/2/6 1048/2/6
f 1048/2/6 1049/2/6 1050/2/6
f 1044/2/6 1048/2/6 1050/2/6
f 1050/2/6 1049/2/6 1051/2/6
f 1044/2/6 1050/2/6 1052/2/6
f 1052/2/6 1050/2/6 1053/2/6
f 1054/2/6 1055/2/6 1056/2/6
f 1054/2/6 1056/2/6 1060/2/6
f 1056/2/6 1057/2/6 1060/2/6
f 1060/2/6 1057/2/6 1061/2/6
f 1061/2/6 1057/2/6 1062/2/6
f 1062/2/6 1063/2/6 1064/2/6
f 1061/2/6 1062/2/6 1064/2/6
f 1064/2/6 1063/2/6 1065/2/6
f 1058/2/6 1059/2/6 1066/2/6
f 1066/2/6 1059/2/6 1067/2/6
f 1067/2/6 1059/2/6 1068/2/6
f 1068/2/6 1059/2/6 1069/2/6
f 1070/2/6 1071/2/6 1072/2/6
f 1072/2/6 1071/2/6 1073/2/6
f 1076/2/6 1077/2/6 1078/2/6
f 1078/2/6 1077/2/6 1079/2/6
f 1079/2/6 1080/2/6 1081/2/6
f 1081/2/6 1080/2/6 1082/2/6
f 1074/2/6 1075/2/6 1085/2/6
f 1083/2/6 1084/2/6 1087/2/6
f 1087/2/6 1084/2/6 1088/2/6
f 1085/2/6 1086/2/6 1089/2/6
f 1074/2/6 1085/2/6 1089/2/6
f 1089/2/6 1086/2/6 1090/2/6
f 1090/2/6 1086/2/6 1091/2/6
f 1091/2/6 1092/2/6 1093/2/6
f 1090/2/6 1091/2/6 1093/2/6
f 1093/2/6 1092/2/6 1094/2/6
f 1095/2/6 1096/2/6 1097/2/6
f 1095/2/6 1097/2/6 1099/2/6
f 1097/2/6 1098/2/6 1099/2/6
f 1099/2/6 1098/2/6 1100/2/6
f 1100/2/6 1098/2/6 1101/2/6
f 1101/2/6 1102/2/6 1103/2/6
f 1100/2/6 1101/2/6 1103/2/6
f 1103/2/6 1102/2/6 1104/2/6
f 1104/2/6 1102/2/6 1105/2/6
f 1105/2/6 1102/2/6 1106/2/6
f 1107/2/6 1108/2/6 1109/2/6
f 1109/2/6 1108/2/6 1110/2/6
f 1111/2/6 1112/2/6 1113/2/6
f 1113/2/6 1112/2/6 1114/2/6
f 1115/2/6 1116/2/6 1119/2/6
f 1119/2/6 1116/2/6 1120/2/6
f 1117/2/6 1118/2/6 1121/2/6
f 1121/2/6 1118/2/6 1122/2/6
f 1120/2/6 1121/2/6 1123/2/6
f 1123/2/6 1121/2/6 1124/2/6
f 1125/2/6 1126/2/6 1127/2/6
f 1125/2/6 1127/2/6 1129/2/6
f 1127/2/6 1128/2/6 1129/2/6
f 1129/2/6 1128/2/6 1130/2/6
f 1131/2/6 1132/2/6 1134/2/6
f 1134/2/6 1132/2/6 1135/2/6
f 1132/1/6 1133/1/6 1136/1/6
f 1135/2/6 1132/2/6 1136/2/6
f 1136/1/6 1133/1/6 1137/1/6
f 1136/2/6 1137/2/6 1138/2/6
f 1137/1/6 1133/1/6 1138/1/6
f 1138/1/6 1133/1/6 1139/1/6
f 1135/2/6 1136/2/6 1140/2/6
f 1136/2/6 1138/2/6 1140/2/6
f 1138/2/6 1139/2/6 1140/2/6
f 1140/2/6 1139/2/6 1141/2/6
f 1141/2/6 1139/2/6 1142/2/6
f 1142/2/6 1139/2/6 1143/2/6
f 1139/1/6 1133/1/6 1144/1/6
f 1143/2/6 1139/2/6 1144/2/6
f 1144/1/6 1133/1/6 1145/1/6
f 1145/1/6 1133/1/6 1146/1/6
f 1144/2/6 1145/2/6 1146/2/6
f 1143/2/6 1144/2/6 1146/2/6
f 1146/1/6 1133/1/6 1147/1/6
f 1143/2/6 1146/2/6 1148/2/6
f 1146/2/6 1147/2/6 1148/2/6
f 1148/2/6 1147/2/6 1149/2/6
f 1147/1/6 1133/1/6 1150/1/6
f 1149/2/6 1147/2/6 1150/2/6
f 1150/1/6 1133/1/6 1151/1/6
f 1149/2/6 1150/2/6 1152/2/6
f 1150/2/6 1151/2/6 1152/2/6
f 1152/2/6 1151/2/6 1153/2/6
f 1153/2/6 1151/2/6 1154/2/6
f 1154/2/6 1151/2/6 1155/2/6
f 1155/2/6 1151/2/6 1156/2/6
f 1156/2/6 1151/2/6 1157/2/6
f 1157/2/6 1151/2/6 1158/2/6
f 1158/2/6 1151/2/6 1159/2/6
