# MagicaVoxel @ Ephtracy

# group
o 

# material
mtllib The Twitcher-5.mtl
usemtl palette

# normals
vn -1 0 0
vn 1 0 0
vn 0 0 1
vn 0 0 -1
vn 0 -1 0
vn 0 1 0

# texcoords
vt 0.228516 0.5
vt 0.396484 0.5

# verts
v -5.8 0 -5.7
v -5.8 0 -6
v -5.8 0.5 -5.9
v -5.8 0.5 -6
v -5.8 0.7 -5.7
v -5.8 0.7 -5.9
v -5.7 0 -6
v -5.7 0 -6.2
v -5.7 0.5 -6
v -5.7 0.5 -6.2
v -5.7 0.7 -5.7
v -5.7 0.7 -5.9
v -5.7 2 -5.7
v -5.7 2 -5.9
v -5.6 0 -6.2
v -5.6 0 -6.4
v -5.6 0.5 -5.9
v -5.6 0.5 -6.2
v -5.6 1.8 -6.4
v -5.6 1.8 -6.5
v -5.6 1.9 -6.4
v -5.6 1.9 -6.5
v -5.6 2 -5.9
v -5.6 2 -6.4
v -5.5 0 -6.4
v -5.5 0 -6.5
v -5.5 1.8 -6.4
v -5.5 1.8 -6.5
v -5.5 1.9 -6.4
v -5.5 1.9 -6.5
v -5.5 2 -6.4
v -5.5 2 -6.5
v -5.4 0 -6.5
v -5.4 0 -6.6
v -5.4 2 -6.5
v -5.4 2 -6.6
v -5.2 0 -6.6
v -5.2 0 -6.7
v -5.2 2 -6.6
v -5.2 2 -6.7
v -5 0 -6.7
v -5 0 -6.8
v -5 2 -6.7
v -5 2 -6.8
v -4.6 0 -5.7
v -4.6 0 -6.7
v -4.6 0 -6.8
v -4.6 1.9 -6.6
v -4.6 1.9 -6.7
v -4.6 2 -5.7
v -4.6 2 -6.6
v -4.6 2 -6.8
v -5.8 0 -5.7
v -5.8 0.7 -5.7
v -5.7 0.7 -5.7
v -5.7 2 -5.7
v -5.5 0 -5.7
v -5.5 2 -5.7
v -4.6 0 -5.7
v -4.6 2 -5.7
v -5.8 0.5 -5.9
v -5.8 0.7 -5.9
v -5.7 0.7 -5.9
v -5.7 2 -5.9
v -5.6 0.5 -5.9
v -5.6 2 -5.9
v -5.8 0 -6
v -5.8 0.5 -6
v -5.7 0 -6
v -5.7 0.5 -6
v -5.7 0 -6.2
v -5.7 0.5 -6.2
v -5.6 0 -6.2
v -5.6 0.5 -6.2
v -5.6 0 -6.4
v -5.6 1.8 -6.4
v -5.6 1.9 -6.4
v -5.6 2 -6.4
v -5.5 0 -6.4
v -5.5 1.8 -6.4
v -5.5 1.9 -6.4
v -5.5 2 -6.4
v -5.6 1.8 -6.5
v -5.6 1.9 -6.5
v -5.5 0 -6.5
v -5.5 1.8 -6.5
v -5.5 1.9 -6.5
v -5.5 2 -6.5
v -5.4 0 -6.5
v -5.4 2 -6.5
v -5.4 0 -6.6
v -5.4 2 -6.6
v -5.2 0 -6.6
v -5.2 2 -6.6
v -5.2 0 -6.7
v -5.2 2 -6.7
v -5 0 -6.7
v -5 2 -6.7
v -5 0 -6.8
v -5 2 -6.8
v -4.6 0 -6.8
v -4.6 2 -6.8
v -5.8 0 -5.7
v -5.5 0 -5.7
v -4.6 0 -5.7
v -5.8 0 -6
v -5.7 0 -6
v -5.7 0 -6.2
v -5.6 0 -6.2
v -5.6 0 -6.4
v -5.5 0 -6.4
v -5.4 0 -6.4
v -5.5 0 -6.5
v -5.4 0 -6.5
v -5.2 0 -6.5
v -5.4 0 -6.6
v -5.2 0 -6.6
v -5 0 -6.6
v -5.2 0 -6.7
v -5 0 -6.7
v -4.6 0 -6.7
v -5 0 -6.8
v -4.6 0 -6.8
v -5.6 1.8 -6.4
v -5.5 1.8 -6.4
v -5.6 1.8 -6.5
v -5.5 1.8 -6.5
v -5.8 0.5 -5.9
v -5.6 0.5 -5.9
v -5.8 0.5 -6
v -5.7 0.5 -6
v -5.7 0.5 -6.2
v -5.6 0.5 -6.2
v -5.8 0.7 -5.7
v -5.7 0.7 -5.7
v -5.8 0.7 -5.9
v -5.7 0.7 -5.9
v -5.6 1.9 -6.4
v -5.5 1.9 -6.4
v -5.6 1.9 -6.5
v -5.5 1.9 -6.5
v -5.7 2 -5.7
v -5.5 2 -5.7
v -4.6 2 -5.7
v -5.7 2 -5.9
v -5.6 2 -5.9
v -5.5 2 -6.1
v -5.4 2 -6.1
v -5.4 2 -6.2
v -5.3 2 -6.2
v -5.6 2 -6.4
v -5.5 2 -6.4
v -5.3 2 -6.4
v -5.2 2 -6.4
v -5.5 2 -6.5
v -5.4 2 -6.5
v -5.2 2 -6.5
v -5 2 -6.5
v -5.4 2 -6.6
v -5.2 2 -6.6
v -5 2 -6.6
v -4.6 2 -6.6
v -5.2 2 -6.7
v -5 2 -6.7
v -5 2 -6.8
v -4.6 2 -6.8

# faces
f 3/2/1 2/2/1 1/2/1
f 4/2/1 2/2/1 3/2/1
f 5/2/1 3/2/1 1/2/1
f 6/2/1 3/2/1 5/2/1
f 9/2/1 8/2/1 7/2/1
f 10/2/1 8/2/1 9/2/1
f 13/2/1 12/2/1 11/2/1
f 14/2/1 12/2/1 13/2/1
f 18/2/1 16/2/1 15/2/1
f 19/2/1 16/2/1 18/2/1
f 19/2/1 18/2/1 17/2/1
f 21/2/1 19/2/1 17/2/1
f 21/2/1 20/2/1 19/2/1
f 22/2/1 20/2/1 21/2/1
f 23/2/1 21/2/1 17/2/1
f 24/2/1 21/2/1 23/2/1
f 27/2/1 26/2/1 25/2/1
f 28/2/1 26/2/1 27/2/1
f 31/2/1 30/2/1 29/2/1
f 32/2/1 30/2/1 31/2/1
f 35/2/1 34/2/1 33/2/1
f 36/2/1 34/2/1 35/2/1
f 39/2/1 38/2/1 37/2/1
f 40/2/1 38/2/1 39/2/1
f 43/2/1 42/2/1 41/2/1
f 44/2/1 42/2/1 43/2/1
f 45/1/2 46/1/2 48/1/2
f 46/2/2 47/2/2 49/2/2
f 48/1/2 46/1/2 49/1/2
f 45/1/2 48/1/2 50/1/2
f 48/2/2 49/2/2 51/2/2
f 50/1/2 48/1/2 51/1/2
f 49/2/2 47/2/2 52/2/2
f 51/2/2 49/2/2 52/2/2
f 55/2/3 54/2/3 53/2/3
f 57/2/3 55/2/3 53/2/3
f 57/2/3 56/2/3 55/2/3
f 58/2/3 56/2/3 57/2/3
f 59/1/3 58/1/3 57/1/3
f 60/1/3 58/1/3 59/1/3
f 61/2/4 62/2/4 63/2/4
f 61/2/4 63/2/4 65/2/4
f 63/2/4 64/2/4 65/2/4
f 65/2/4 64/2/4 66/2/4
f 67/2/4 68/2/4 69/2/4
f 69/2/4 68/2/4 70/2/4
f 71/2/4 72/2/4 73/2/4
f 73/2/4 72/2/4 74/2/4
f 75/2/4 76/2/4 79/2/4
f 79/2/4 76/2/4 80/2/4
f 77/2/4 78/2/4 81/2/4
f 81/2/4 78/2/4 82/2/4
f 83/2/4 84/2/4 86/2/4
f 86/2/4 84/2/4 87/2/4
f 85/2/4 86/2/4 89/2/4
f 87/2/4 88/2/4 89/2/4
f 86/2/4 87/2/4 89/2/4
f 89/2/4 88/2/4 90/2/4
f 91/2/4 92/2/4 93/2/4
f 93/2/4 92/2/4 94/2/4
f 95/2/4 96/2/4 97/2/4
f 97/2/4 96/2/4 98/2/4
f 99/2/4 100/2/4 101/2/4
f 101/2/4 100/2/4 102/2/4
f 106/2/5 104/2/5 103/2/5
f 107/2/5 104/2/5 106/2/5
f 108/2/5 104/2/5 107/2/5
f 109/2/5 104/2/5 108/2/5
f 110/2/5 104/2/5 109/2/5
f 111/1/5 105/1/5 104/1/5
f 111/2/5 104/2/5 110/2/5
f 112/1/5 105/1/5 111/1/5
f 113/2/5 112/2/5 111/2/5
f 114/1/5 105/1/5 112/1/5
f 114/2/5 112/2/5 113/2/5
f 115/1/5 105/1/5 114/1/5
f 116/2/5 115/2/5 114/2/5
f 117/1/5 105/1/5 115/1/5
f 117/2/5 115/2/5 116/2/5
f 118/1/5 105/1/5 117/1/5
f 119/2/5 118/2/5 117/2/5
f 120/1/5 105/1/5 118/1/5
f 120/2/5 118/2/5 119/2/5
f 121/1/5 105/1/5 120/1/5
f 122/2/5 121/2/5 120/2/5
f 123/2/5 121/2/5 122/2/5
f 126/2/5 125/2/5 124/2/5
f 127/2/5 125/2/5 126/2/5
f 128/2/6 129/2/6 130/2/6
f 130/2/6 129/2/6 131/2/6
f 131/2/6 129/2/6 132/2/6
f 132/2/6 129/2/6 133/2/6
f 134/2/6 135/2/6 136/2/6
f 136/2/6 135/2/6 137/2/6
f 138/2/6 139/2/6 140/2/6
f 140/2/6 139/2/6 141/2/6
f 142/2/6 143/2/6 145/2/6
f 145/2/6 143/2/6 146/2/6
f 143/1/6 144/1/6 147/1/6
f 146/2/6 143/2/6 147/2/6
f 147/1/6 144/1/6 148/1/6
f 147/2/6 148/2/6 149/2/6
f 148/1/6 144/1/6 149/1/6
f 149/1/6 144/1/6 150/1/6
f 146/2/6 147/2/6 151/2/6
f 147/2/6 149/2/6 151/2/6
f 149/2/6 150/2/6 151/2/6
f 151/2/6 150/2/6 152/2/6
f 150/1/6 144/1/6 153/1/6
f 152/2/6 150/2/6 153/2/6
f 153/1/6 144/1/6 154/1/6
f 152/2/6 153/2/6 155/2/6
f 153/2/6 154/2/6 155/2/6
f 155/2/6 154/2/6 156/2/6
f 154/1/6 144/1/6 157/1/6
f 156/2/6 154/2/6 157/2/6
f 157/1/6 144/1/6 158/1/6
f 156/2/6 157/2/6 159/2/6
f 157/2/6 158/2/6 159/2/6
f 159/2/6 158/2/6 160/2/6
f 158/1/6 144/1/6 161/1/6
f 160/2/6 158/2/6 161/2/6
f 161/1/6 144/1/6 162/1/6
f 160/2/6 161/2/6 163/2/6
f 161/2/6 162/2/6 163/2/6
f 163/2/6 162/2/6 164/2/6
f 164/2/6 162/2/6 165/2/6
f 165/2/6 162/2/6 166/2/6
