# MagicaVoxel @ Ephtracy

# group
o 

# material
mtllib The Twitcher-7.mtl
usemtl palette

# normals
vn -1 0 0
vn 1 0 0
vn 0 0 1
vn 0 0 -1
vn 0 -1 0
vn 0 1 0

# texcoords
vt 0.228516 0.5
vt 0.396484 0.5

# verts
v -4 0 -5.6
v -4 0 -5.9
v -4 2.3 -5.6
v -4 2.3 -5.9
v -3.9 0 -5.9
v -3.9 0 -6.1
v -3.9 2.3 -5.9
v -3.9 2.3 -6.1
v -3.8 0 -6.1
v -3.8 0 -6.3
v -3.8 2.3 -6.1
v -3.8 2.3 -6.3
v -3.7 0 -6.3
v -3.7 0 -6.4
v -3.7 2.3 -6.3
v -3.7 2.3 -6.4
v -3.6 0 -6.4
v -3.6 0 -6.5
v -3.6 2.3 -6.4
v -3.6 2.3 -6.5
v -3.5 0 -6.5
v -3.5 0 -6.6
v -3.5 2.3 -6.5
v -3.5 2.3 -6.6
v -3.3 0 -6.6
v -3.3 0 -6.7
v -3.3 2.3 -6.6
v -3.3 2.3 -6.7
v -3.1 0 -6.7
v -3.1 0 -6.8
v -3.1 2.3 -6.7
v -3.1 2.3 -6.8
v -2.6 0 -5.6
v -2.6 0 -6.7
v -2.6 0 -6.8
v -2.6 0.1 -6.6
v -2.6 0.1 -6.7
v -2.6 1.9 -6.6
v -2.6 1.9 -6.7
v -2.6 2.2 -6.6
v -2.6 2.2 -6.7
v -2.6 2.3 -5.6
v -2.6 2.3 -6.6
v -2.6 2.3 -6.8
v -4 0 -5.6
v -4 2.3 -5.6
v -3.8 0.1 -5.6
v -3.8 0.2 -5.6
v -3.8 2.2 -5.6
v -3.8 2.3 -5.6
v -3.7 0 -5.6
v -3.7 0.1 -5.6
v -3.7 0.2 -5.6
v -3.6 0.1 -5.6
v -3.6 2.2 -5.6
v -2.6 0 -5.6
v -2.6 2.3 -5.6
v -4 0 -5.9
v -4 2.3 -5.9
v -3.9 0 -5.9
v -3.9 2.3 -5.9
v -3.9 0 -6.1
v -3.9 2.3 -6.1
v -3.8 0 -6.1
v -3.8 2.3 -6.1
v -3.8 0 -6.3
v -3.8 2.3 -6.3
v -3.7 0 -6.3
v -3.7 2.3 -6.3
v -3.7 0 -6.4
v -3.7 2.3 -6.4
v -3.6 0 -6.4
v -3.6 2.3 -6.4
v -3.6 0 -6.5
v -3.6 2.3 -6.5
v -3.5 0 -6.5
v -3.5 2.3 -6.5
v -3.5 0 -6.6
v -3.5 2.3 -6.6
v -3.3 0 -6.6
v -3.3 2.3 -6.6
v -3.3 0 -6.7
v -3.3 2.3 -6.7
v -3.1 0 -6.7
v -3.1 2.3 -6.7
v -3.1 0 -6.8
v -3.1 2.3 -6.8
v -2.6 0 -6.8
v -2.6 2.3 -6.8
v -4 0 -5.6
v -3.7 0 -5.6
v -2.6 0 -5.6
v -4 0 -5.9
v -3.9 0 -5.9
v -3.7 0 -5.9
v -3.6 0 -5.9
v -3.9 0 -6.1
v -3.8 0 -6.1
v -3.8 0 -6.3
v -3.7 0 -6.3
v -3.6 0 -6.3
v -3.5 0 -6.3
v -3.7 0 -6.4
v -3.6 0 -6.4
v -3.5 0 -6.4
v -3.3 0 -6.4
v -3.6 0 -6.5
v -3.5 0 -6.5
v -3.3 0 -6.5
v -3.1 0 -6.5
v -3.5 0 -6.6
v -3.3 0 -6.6
v -3.1 0 -6.6
v -3 0 -6.6
v -3.3 0 -6.7
v -3.1 0 -6.7
v -3 0 -6.7
v -2.6 0 -6.7
v -3.1 0 -6.8
v -2.6 0 -6.8
v -4 2.3 -5.6
v -3.8 2.3 -5.6
v -2.6 2.3 -5.6
v -4 2.3 -5.9
v -3.9 2.3 -5.9
v -3.8 2.3 -6
v -3.7 2.3 -6
v -3.9 2.3 -6.1
v -3.8 2.3 -6.1
v -3.7 2.3 -6.1
v -3.6 2.3 -6.1
v -3.8 2.3 -6.3
v -3.7 2.3 -6.3
v -3.6 2.3 -6.3
v -3.5 2.3 -6.3
v -3.7 2.3 -6.4
v -3.6 2.3 -6.4
v -3.5 2.3 -6.4
v -3.3 2.3 -6.4
v -3.6 2.3 -6.5
v -3.5 2.3 -6.5
v -3.3 2.3 -6.5
v -3.1 2.3 -6.5
v -3.5 2.3 -6.6
v -3.3 2.3 -6.6
v -3.1 2.3 -6.6
v -2.6 2.3 -6.6
v -3.3 2.3 -6.7
v -3.1 2.3 -6.7
v -3.1 2.3 -6.8
v -2.6 2.3 -6.8

# faces
f 3/2/1 2/2/1 1/2/1
f 4/2/1 2/2/1 3/2/1
f 7/2/1 6/2/1 5/2/1
f 8/2/1 6/2/1 7/2/1
f 11/2/1 10/2/1 9/2/1
f 12/2/1 10/2/1 11/2/1
f 15/2/1 14/2/1 13/2/1
f 16/2/1 14/2/1 15/2/1
f 19/2/1 18/2/1 17/2/1
f 20/2/1 18/2/1 19/2/1
f 23/2/1 22/2/1 21/2/1
f 24/2/1 22/2/1 23/2/1
f 27/2/1 26/2/1 25/2/1
f 28/2/1 26/2/1 27/2/1
f 31/2/1 30/2/1 29/2/1
f 32/2/1 30/2/1 31/2/1
f 33/1/2 34/1/2 36/1/2
f 34/2/2 35/2/2 37/2/2
f 36/1/2 34/1/2 37/1/2
f 33/1/2 36/1/2 38/1/2
f 36/2/2 37/2/2 38/2/2
f 37/2/2 35/2/2 39/2/2
f 38/2/2 37/2/2 39/2/2
f 33/1/2 38/1/2 40/1/2
f 38/1/2 39/1/2 40/1/2
f 39/2/2 35/2/2 41/2/2
f 40/1/2 39/1/2 41/1/2
f 33/1/2 40/1/2 42/1/2
f 40/2/2 41/2/2 43/2/2
f 42/1/2 40/1/2 43/1/2
f 41/2/2 35/2/2 44/2/2
f 43/2/2 41/2/2 44/2/2
f 47/2/3 46/2/3 45/2/3
f 48/2/3 46/2/3 47/2/3
f 49/2/3 46/2/3 48/2/3
f 50/2/3 46/2/3 49/2/3
f 51/2/3 47/2/3 45/2/3
f 52/1/3 48/1/3 47/1/3
f 52/2/3 47/2/3 51/2/3
f 53/2/3 49/2/3 48/2/3
f 53/1/3 48/1/3 52/1/3
f 54/1/3 52/1/3 51/1/3
f 54/2/3 53/2/3 52/2/3
f 55/2/3 49/2/3 53/2/3
f 55/2/3 53/2/3 54/2/3
f 55/1/3 50/1/3 49/1/3
f 56/1/3 54/1/3 51/1/3
f 56/1/3 55/1/3 54/1/3
f 57/1/3 50/1/3 55/1/3
f 57/1/3 55/1/3 56/1/3
f 58/2/4 59/2/4 60/2/4
f 60/2/4 59/2/4 61/2/4
f 62/2/4 63/2/4 64/2/4
f 64/2/4 63/2/4 65/2/4
f 66/2/4 67/2/4 68/2/4
f 68/2/4 67/2/4 69/2/4
f 70/2/4 71/2/4 72/2/4
f 72/2/4 71/2/4 73/2/4
f 74/2/4 75/2/4 76/2/4
f 76/2/4 75/2/4 77/2/4
f 78/2/4 79/2/4 80/2/4
f 80/2/4 79/2/4 81/2/4
f 82/2/4 83/2/4 84/2/4
f 84/2/4 83/2/4 85/2/4
f 86/2/4 87/2/4 88/2/4
f 88/2/4 87/2/4 89/2/4
f 93/2/5 91/2/5 90/2/5
f 94/2/5 91/2/5 93/2/5
f 95/1/5 92/1/5 91/1/5
f 95/2/5 91/2/5 94/2/5
f 96/1/5 92/1/5 95/1/5
f 97/2/5 95/2/5 94/2/5
f 97/2/5 96/2/5 95/2/5
f 98/2/5 96/2/5 97/2/5
f 99/2/5 96/2/5 98/2/5
f 100/2/5 96/2/5 99/2/5
f 101/1/5 92/1/5 96/1/5
f 101/2/5 96/2/5 100/2/5
f 102/1/5 92/1/5 101/1/5
f 103/2/5 101/2/5 100/2/5
f 103/2/5 102/2/5 101/2/5
f 104/2/5 102/2/5 103/2/5
f 105/1/5 92/1/5 102/1/5
f 105/2/5 102/2/5 104/2/5
f 106/1/5 92/1/5 105/1/5
f 107/2/5 105/2/5 104/2/5
f 107/2/5 106/2/5 105/2/5
f 108/2/5 106/2/5 107/2/5
f 109/1/5 92/1/5 106/1/5
f 109/2/5 106/2/5 108/2/5
f 110/1/5 92/1/5 109/1/5
f 111/2/5 109/2/5 108/2/5
f 111/2/5 110/2/5 109/2/5
f 112/2/5 110/2/5 111/2/5
f 113/1/5 92/1/5 110/1/5
f 113/2/5 110/2/5 112/2/5
f 114/1/5 92/1/5 113/1/5
f 115/2/5 113/2/5 112/2/5
f 115/2/5 114/2/5 113/2/5
f 116/2/5 114/2/5 115/2/5
f 117/1/5 92/1/5 114/1/5
f 117/2/5 114/2/5 116/2/5
f 118/1/5 92/1/5 117/1/5
f 119/2/5 117/2/5 116/2/5
f 119/2/5 118/2/5 117/2/5
f 120/2/5 118/2/5 119/2/5
f 121/2/6 122/2/6 124/2/6
f 124/2/6 122/2/6 125/2/6
f 122/1/6 123/1/6 126/1/6
f 125/2/6 122/2/6 126/2/6
f 126/1/6 123/1/6 127/1/6
f 125/2/6 126/2/6 128/2/6
f 126/2/6 127/2/6 128/2/6
f 128/2/6 127/2/6 129/2/6
f 127/1/6 123/1/6 130/1/6
f 129/2/6 127/2/6 130/2/6
f 130/1/6 123/1/6 131/1/6
f 129/2/6 130/2/6 132/2/6
f 130/2/6 131/2/6 132/2/6
f 132/2/6 131/2/6 133/2/6
f 131/1/6 123/1/6 134/1/6
f 133/2/6 131/2/6 134/2/6
f 134/1/6 123/1/6 135/1/6
f 133/2/6 134/2/6 136/2/6
f 134/2/6 135/2/6 136/2/6
f 136/2/6 135/2/6 137/2/6
f 135/1/6 123/1/6 138/1/6
f 137/2/6 135/2/6 138/2/6
f 138/1/6 123/1/6 139/1/6
f 137/2/6 138/2/6 140/2/6
f 138/2/6 139/2/6 140/2/6
f 140/2/6 139/2/6 141/2/6
f 139/1/6 123/1/6 142/1/6
f 141/2/6 139/2/6 142/2/6
f 142/1/6 123/1/6 143/1/6
f 141/2/6 142/2/6 144/2/6
f 142/2/6 143/2/6 144/2/6
f 144/2/6 143/2/6 145/2/6
f 143/1/6 123/1/6 146/1/6
f 145/2/6 143/2/6 146/2/6
f 146/1/6 123/1/6 147/1/6
f 145/2/6 146/2/6 148/2/6
f 146/2/6 147/2/6 148/2/6
f 148/2/6 147/2/6 149/2/6
f 149/2/6 147/2/6 150/2/6
f 150/2/6 147/2/6 151/2/6
