# MagicaVoxel @ Ephtracy

# group
o 

# material
mtllib Irah-2.mtl
usemtl palette

# normals
vn -1 0 0
vn 1 0 0
vn 0 0 1
vn 0 0 -1
vn 0 -1 0
vn 0 1 0

# texcoords
vt 0.00585938 0.5
vt 0.888672 0.5

# verts
v 1.6 2.9 0.1
v 1.6 2.9 -0.2
v 1.6 3.2 0.1
v 1.6 3.2 -0.2
v 2.6 2.9 0.1
v 2.6 2.9 -0.2
v 2.6 3 0.1
v 2.6 3 -0.2
v 2.7 3 0.1
v 2.7 3 -0.2
v 2.7 3.2 0.1
v 2.7 3.2 -0.2
v 1.6 2.9 0.1
v 1.6 3.2 0.1
v 2.4 2.9 0.1
v 2.4 3.2 0.1
v 2.6 2.9 0.1
v 2.6 3 0.1
v 2.7 3 0.1
v 2.7 3.2 0.1
v 1.6 2.9 -0.2
v 1.6 3.2 -0.2
v 2.4 2.9 -0.2
v 2.4 3.2 -0.2
v 2.6 2.9 -0.2
v 2.6 3 -0.2
v 2.7 3 -0.2
v 2.7 3.2 -0.2
v 1.6 2.9 0.1
v 2.4 2.9 0.1
v 2.6 2.9 0.1
v 1.6 2.9 -0.2
v 2.4 2.9 -0.2
v 2.6 2.9 -0.2
v 2.6 3 0.1
v 2.7 3 0.1
v 2.6 3 -0.2
v 2.7 3 -0.2
v 1.6 3.2 0.1
v 2.4 3.2 0.1
v 2.7 3.2 0.1
v 1.6 3.2 -0.2
v 2.4 3.2 -0.2
v 2.7 3.2 -0.2

# faces
f 3/2/1 2/2/1 1/2/1
f 4/2/1 2/2/1 3/2/1
f 5/1/2 6/1/2 7/1/2
f 7/1/2 6/1/2 8/1/2
f 9/1/2 10/1/2 11/1/2
f 11/1/2 10/1/2 12/1/2
f 15/2/3 14/2/3 13/2/3
f 16/2/3 14/2/3 15/2/3
f 17/1/3 16/1/3 15/1/3
f 18/1/3 16/1/3 17/1/3
f 19/1/3 16/1/3 18/1/3
f 20/1/3 16/1/3 19/1/3
f 21/2/4 22/2/4 23/2/4
f 23/2/4 22/2/4 24/2/4
f 23/1/4 24/1/4 25/1/4
f 25/1/4 24/1/4 26/1/4
f 26/1/4 24/1/4 27/1/4
f 27/1/4 24/1/4 28/1/4
f 32/2/5 30/2/5 29/2/5
f 33/1/5 31/1/5 30/1/5
f 33/2/5 30/2/5 32/2/5
f 34/1/5 31/1/5 33/1/5
f 37/1/5 36/1/5 35/1/5
f 38/1/5 36/1/5 37/1/5
f 39/2/6 40/2/6 42/2/6
f 40/1/6 41/1/6 43/1/6
f 42/2/6 40/2/6 43/2/6
f 43/1/6 41/1/6 44/1/6
