# MagicaVoxel @ Ephtracy

# group
o 

# material
mtllib Irah-4.mtl
usemtl palette

# normals
vn -1 0 0
vn 1 0 0
vn 0 0 1
vn 0 0 -1
vn 0 -1 0
vn 0 1 0

# texcoords
vt 0.150391 0.5
vt 0.849609 0.5
vt 0.888672 0.5

# verts
v -0.7 1.9 0.5
v -0.7 1.9 -0.2
v -0.7 2 -0.2
v -0.7 2 -0.3
v -0.7 2.4 -0.3
v -0.7 2.4 -0.4
v -0.7 2.5 -0.4
v -0.7 2.5 -0.5
v -0.7 2.6 0.5
v -0.7 2.6 0.4
v -0.7 2.8 0.1
v -0.7 2.8 -0.2
v -0.7 2.9 0.2
v -0.7 2.9 0.1
v -0.7 2.9 -0.2
v -0.7 2.9 -0.3
v -0.7 3 0.3
v -0.7 3 0.2
v -0.7 3 -0.3
v -0.7 3 -0.4
v -0.7 3.2 0.4
v -0.7 3.2 0.3
v -0.7 3.2 -0.4
v -0.7 3.2 -0.5
v -0.6 1.9 0.6
v -0.6 1.9 0.5
v -0.6 1.9 -0.2
v -0.6 1.9 -0.5
v -0.6 2 -0.2
v -0.6 2 -0.3
v -0.6 2.2 -0.5
v -0.6 2.2 -0.6
v -0.6 2.4 -0.3
v -0.6 2.4 -0.4
v -0.6 2.5 -0.4
v -0.6 2.5 -0.5
v -0.6 2.6 0.6
v -0.6 2.6 0.5
v -0.6 2.6 0.4
v -0.6 2.9 -0.6
v -0.6 2.9 -0.7
v -0.6 3.1 0.5
v -0.6 3.1 0.4
v -0.6 3.1 -0.6
v -0.6 3.1 -0.7
v -0.6 3.2 0.3
v -0.6 3.2 -0.4
v -0.6 3.2 -0.5
v -0.6 3.2 -0.6
v -0.6 3.3 0.3
v -0.6 3.3 -0.4
v -0.6 3.3 -0.5
v -0.5 1.8 0.5
v -0.5 1.8 -0.8
v -0.5 1.9 0.7
v -0.5 1.9 0.6
v -0.5 1.9 0.5
v -0.5 1.9 -0.5
v -0.5 2.1 -0.7
v -0.5 2.1 -0.8
v -0.5 2.2 -0.5
v -0.5 2.2 -0.6
v -0.5 2.2 -0.7
v -0.5 2.4 0.7
v -0.5 2.4 0.6
v -0.5 2.6 0.6
v -0.5 2.6 0.5
v -0.5 2.7 0.6
v -0.5 2.7 0.5
v -0.5 2.8 -0.6
v -0.5 2.8 -0.7
v -0.5 2.9 -0.6
v -0.5 2.9 -0.7
v -0.5 3.1 0.5
v -0.5 3.1 0.4
v -0.5 3.1 -0.6
v -0.5 3.1 -0.7
v -0.5 3.2 0.5
v -0.5 3.2 0.4
v -0.5 3.2 0.3
v -0.5 3.2 -0.5
v -0.5 3.2 -0.6
v -0.5 3.2 -0.7
v -0.5 3.3 0.4
v -0.5 3.3 0.3
v -0.5 3.3 -0.5
v -0.5 3.3 -0.6
v -0.4 1.8 0.6
v -0.4 1.8 0.5
v -0.4 1.9 0.8
v -0.4 1.9 0.7
v -0.4 1.9 0.6
v -0.4 1.9 0.5
v -0.4 2.1 -0.7
v -0.4 2.1 -0.8
v -0.4 2.2 -0.6
v -0.4 2.2 -0.7
v -0.4 2.2 -0.8
v -0.4 2.3 -0.6
v -0.4 2.3 -0.7
v -0.4 2.4 0.8
v -0.4 2.4 0.7
v -0.4 2.4 0.6
v -0.4 2.6 0.7
v -0.4 2.6 0.6
v -0.3 2.4 0.8
v -0.3 2.4 0.7
v -0.3 2.5 0.8
v -0.3 2.5 0.7
v 0.1 2.1 -0.7
v 0.1 2.1 -0.8
v 0.1 2.2 -0.6
v 0.1 2.2 -0.7
v 0.1 2.2 -0.8
v 0.1 2.3 -0.6
v 0.1 2.3 -0.7
v 0.1 2.8 -0.6
v 0.1 2.8 -0.7
v 0.1 3.1 -0.6
v 0.1 3.1 -0.7
v 0.2 3.1 -0.6
v 0.2 3.1 -0.7
v 0.2 3.2 -0.6
v 0.2 3.2 -0.7
v -0.2 3.1 -0.6
v -0.2 3.1 -0.7
v -0.2 3.2 -0.6
v -0.2 3.2 -0.7
v -0.1 2.1 -0.7
v -0.1 2.1 -0.8
v -0.1 2.2 -0.6
v -0.1 2.2 -0.7
v -0.1 2.2 -0.8
v -0.1 2.3 -0.6
v -0.1 2.3 -0.7
v -0.1 2.8 -0.6
v -0.1 2.8 -0.7
v -0.1 3.1 -0.6
v -0.1 3.1 -0.7
v 0.3 2.4 0.8
v 0.3 2.4 0.7
v 0.3 2.5 0.8
v 0.3 2.5 0.7
v 0.4 1.8 0.6
v 0.4 1.8 0.5
v 0.4 1.9 0.8
v 0.4 1.9 0.7
v 0.4 1.9 0.6
v 0.4 1.9 0.5
v 0.4 2.1 -0.7
v 0.4 2.1 -0.8
v 0.4 2.2 -0.6
v 0.4 2.2 -0.7
v 0.4 2.2 -0.8
v 0.4 2.3 -0.6
v 0.4 2.3 -0.7
v 0.4 2.4 0.8
v 0.4 2.4 0.7
v 0.4 2.4 0.6
v 0.4 2.6 0.7
v 0.4 2.6 0.6
v 0.5 1.8 0.5
v 0.5 1.8 -0.8
v 0.5 1.9 0.7
v 0.5 1.9 0.6
v 0.5 1.9 0.5
v 0.5 1.9 -0.5
v 0.5 2.1 -0.7
v 0.5 2.1 -0.8
v 0.5 2.2 -0.5
v 0.5 2.2 -0.6
v 0.5 2.2 -0.7
v 0.5 2.4 0.7
v 0.5 2.4 0.6
v 0.5 2.6 0.6
v 0.5 2.6 0.5
v 0.5 2.7 0.6
v 0.5 2.7 0.5
v 0.5 2.8 -0.6
v 0.5 2.8 -0.7
v 0.5 2.9 -0.6
v 0.5 2.9 -0.7
v 0.5 3.1 0.5
v 0.5 3.1 0.4
v 0.5 3.1 -0.6
v 0.5 3.1 -0.7
v 0.5 3.2 0.5
v 0.5 3.2 0.4
v 0.5 3.2 0.3
v 0.5 3.2 -0.5
v 0.5 3.2 -0.6
v 0.5 3.2 -0.7
v 0.5 3.3 0.4
v 0.5 3.3 0.3
v 0.5 3.3 -0.5
v 0.5 3.3 -0.6
v 0.6 1.9 0.6
v 0.6 1.9 0.5
v 0.6 1.9 -0.2
v 0.6 1.9 -0.5
v 0.6 2 -0.2
v 0.6 2 -0.3
v 0.6 2.2 -0.5
v 0.6 2.2 -0.6
v 0.6 2.4 -0.3
v 0.6 2.4 -0.4
v 0.6 2.5 -0.4
v 0.6 2.5 -0.5
v 0.6 2.6 0.6
v 0.6 2.6 0.5
v 0.6 2.6 0.4
v 0.6 2.9 -0.6
v 0.6 2.9 -0.7
v 0.6 3.1 0.5
v 0.6 3.1 0.4
v 0.6 3.1 -0.6
v 0.6 3.1 -0.7
v 0.6 3.2 0.3
v 0.6 3.2 -0.4
v 0.6 3.2 -0.5
v 0.6 3.2 -0.6
v 0.6 3.3 0.3
v 0.6 3.3 -0.4
v 0.6 3.3 -0.5
v 0.7 1.9 0.5
v 0.7 1.9 -0.2
v 0.7 2 -0.2
v 0.7 2 -0.3
v 0.7 2.4 -0.3
v 0.7 2.4 -0.4
v 0.7 2.5 -0.4
v 0.7 2.5 -0.5
v 0.7 2.6 0.5
v 0.7 2.6 0.4
v 0.7 2.8 0.1
v 0.7 2.8 -0.2
v 0.7 2.9 0.2
v 0.7 2.9 0.1
v 0.7 2.9 -0.2
v 0.7 2.9 -0.3
v 0.7 3 0.3
v 0.7 3 0.2
v 0.7 3 -0.3
v 0.7 3 -0.4
v 0.7 3.2 0.4
v 0.7 3.2 0.3
v 0.7 3.2 -0.4
v 0.7 3.2 -0.5
v -0.4 1.9 0.8
v -0.4 2.4 0.8
v -0.3 2.4 0.8
v -0.3 2.5 0.8
v 0.3 2.4 0.8
v 0.3 2.5 0.8
v 0.4 1.9 0.8
v 0.4 2.4 0.8
v -0.5 1.9 0.7
v -0.5 2.4 0.7
v -0.4 1.9 0.7
v -0.4 2.4 0.7
v -0.4 2.6 0.7
v -0.3 2.4 0.7
v -0.3 2.5 0.7
v 0.3 2.4 0.7
v 0.3 2.5 0.7
v 0.4 1.9 0.7
v 0.4 2.4 0.7
v 0.4 2.6 0.7
v 0.5 1.9 0.7
v 0.5 2.4 0.7
v -0.6 1.9 0.6
v -0.6 2.6 0.6
v -0.5 1.9 0.6
v -0.5 2.4 0.6
v -0.5 2.6 0.6
v -0.5 2.7 0.6
v -0.4 1.8 0.6
v -0.4 1.9 0.6
v -0.4 2.4 0.6
v -0.4 2.6 0.6
v 0.4 1.8 0.6
v 0.4 1.9 0.6
v 0.4 2.4 0.6
v 0.4 2.6 0.6
v 0.5 1.9 0.6
v 0.5 2.4 0.6
v 0.5 2.6 0.6
v 0.5 2.7 0.6
v 0.6 1.9 0.6
v 0.6 2.6 0.6
v -0.7 1.9 0.5
v -0.7 2.6 0.5
v -0.6 1.9 0.5
v -0.6 2.6 0.5
v -0.6 3.1 0.5
v -0.5 1.8 0.5
v -0.5 1.9 0.5
v -0.5 2.6 0.5
v -0.5 2.7 0.5
v -0.5 3.1 0.5
v -0.5 3.2 0.5
v -0.4 1.8 0.5
v -0.4 1.9 0.5
v -0.4 3.1 0.5
v -0.4 3.2 0.5
v -0.3 2.9 0.5
v -0.3 3.1 0.5
v -0.2 2.8 0.5
v -0.2 2.9 0.5
v -0.2 3 0.5
v -0.1 3 0.5
v -0.1 3.1 0.5
v 0.1 3 0.5
v 0.1 3.1 0.5
v 0.2 2.8 0.5
v 0.2 2.9 0.5
v 0.2 3 0.5
v 0.3 2.9 0.5
v 0.3 3.1 0.5
v 0.4 1.8 0.5
v 0.4 1.9 0.5
v 0.4 3.1 0.5
v 0.4 3.2 0.5
v 0.5 1.8 0.5
v 0.5 1.9 0.5
v 0.5 2.6 0.5
v 0.5 2.7 0.5
v 0.5 3.1 0.5
v 0.5 3.2 0.5
v 0.6 1.9 0.5
v 0.6 2.6 0.5
v 0.6 3.1 0.5
v 0.7 1.9 0.5
v 0.7 2.6 0.5
v -0.7 2.6 0.4
v -0.7 3.2 0.4
v -0.6 2.6 0.4
v -0.6 3.1 0.4
v -0.5 3.1 0.4
v -0.5 3.2 0.4
v -0.5 3.3 0.4
v -0.4 3.2 0.4
v -0.4 3.3 0.4
v 0.4 3.2 0.4
v 0.4 3.3 0.4
v 0.5 3.1 0.4
v 0.5 3.2 0.4
v 0.5 3.3 0.4
v 0.6 2.6 0.4
v 0.6 3.1 0.4
v 0.7 2.6 0.4
v 0.7 3.2 0.4
v -0.6 3.2 0.3
v -0.6 3.3 0.3
v -0.5 3.2 0.3
v -0.5 3.3 0.3
v 0.5 3.2 0.3
v 0.5 3.3 0.3
v 0.6 3.2 0.3
v 0.6 3.3 0.3
v -0.7 1.9 -0.2
v -0.7 2 -0.2
v -0.6 1.9 -0.2
v -0.6 2 -0.2
v 0.6 1.9 -0.2
v 0.6 2 -0.2
v 0.7 1.9 -0.2
v 0.7 2 -0.2
v -0.7 2 -0.3
v -0.7 2.4 -0.3
v -0.6 2 -0.3
v -0.6 2.4 -0.3
v 0.6 2 -0.3
v 0.6 2.4 -0.3
v 0.7 2 -0.3
v 0.7 2.4 -0.3
v -0.7 2.4 -0.4
v -0.7 2.5 -0.4
v -0.6 2.4 -0.4
v -0.6 2.5 -0.4
v 0.6 2.4 -0.4
v 0.6 2.5 -0.4
v 0.7 2.4 -0.4
v 0.7 2.5 -0.4
v -0.7 2.5 -0.5
v -0.7 3.2 -0.5
v -0.6 1.9 -0.5
v -0.6 2.2 -0.5
v -0.6 2.5 -0.5
v -0.6 3.2 -0.5
v -0.6 3.3 -0.5
v -0.5 1.9 -0.5
v -0.5 2.2 -0.5
v -0.5 3.2 -0.5
v -0.5 3.3 -0.5
v 0.5 1.9 -0.5
v 0.5 2.2 -0.5
v 0.5 3.2 -0.5
v 0.5 3.3 -0.5
v 0.6 1.9 -0.5
v 0.6 2.2 -0.5
v 0.6 2.5 -0.5
v 0.6 3.2 -0.5
v 0.6 3.3 -0.5
v 0.7 2.5 -0.5
v 0.7 3.2 -0.5
v -0.6 2.2 -0.6
v -0.6 2.9 -0.6
v -0.6 3.1 -0.6
v -0.6 3.2 -0.6
v -0.5 2.2 -0.6
v -0.5 2.8 -0.6
v -0.5 2.9 -0.6
v -0.5 3.1 -0.6
v -0.5 3.2 -0.6
v -0.5 3.3 -0.6
v -0.4 2.2 -0.6
v -0.4 2.3 -0.6
v -0.3 3.2 -0.6
v -0.3 3.3 -0.6
v -0.2 3.1 -0.6
v -0.2 3.2 -0.6
v -0.1 2.2 -0.6
v -0.1 2.3 -0.6
v -0.1 2.8 -0.6
v -0.1 3.1 -0.6
v 0.1 2.2 -0.6
v 0.1 2.3 -0.6
v 0.1 2.8 -0.6
v 0.1 3.1 -0.6
v 0.2 3.1 -0.6
v 0.2 3.2 -0.6
v 0.3 3.2 -0.6
v 0.3 3.3 -0.6
v 0.4 2.2 -0.6
v 0.4 2.3 -0.6
v 0.5 2.2 -0.6
v 0.5 2.8 -0.6
v 0.5 2.9 -0.6
v 0.5 3.1 -0.6
v 0.5 3.2 -0.6
v 0.5 3.3 -0.6
v 0.6 2.2 -0.6
v 0.6 2.9 -0.6
v 0.6 3.1 -0.6
v 0.6 3.2 -0.6
v -0.6 2.9 -0.7
v -0.6 3.1 -0.7
v -0.5 2.1 -0.7
v -0.5 2.2 -0.7
v -0.5 2.8 -0.7
v -0.5 2.9 -0.7
v -0.5 3.1 -0.7
v -0.5 3.2 -0.7
v -0.4 2.1 -0.7
v -0.4 2.2 -0.7
v -0.4 2.3 -0.7
v -0.2 3.1 -0.7
v -0.2 3.2 -0.7
v -0.1 2.1 -0.7
v -0.1 2.2 -0.7
v -0.1 2.3 -0.7
v -0.1 2.8 -0.7
v -0.1 3.1 -0.7
v 0.1 2.1 -0.7
v 0.1 2.2 -0.7
v 0.1 2.3 -0.7
v 0.1 2.8 -0.7
v 0.1 3.1 -0.7
v 0.2 3.1 -0.7
v 0.2 3.2 -0.7
v 0.4 2.1 -0.7
v 0.4 2.2 -0.7
v 0.4 2.3 -0.7
v 0.5 2.1 -0.7
v 0.5 2.2 -0.7
v 0.5 2.8 -0.7
v 0.5 2.9 -0.7
v 0.5 3.1 -0.7
v 0.5 3.2 -0.7
v 0.6 2.9 -0.7
v 0.6 3.1 -0.7
v -0.5 1.8 -0.8
v -0.5 2.1 -0.8
v -0.4 2.1 -0.8
v -0.4 2.2 -0.8
v -0.1 2.1 -0.8
v -0.1 2.2 -0.8
v 0.1 2.1 -0.8
v 0.1 2.2 -0.8
v 0.4 2.1 -0.8
v 0.4 2.2 -0.8
v 0.5 1.8 -0.8
v 0.5 2.1 -0.8
v -0.4 1.8 0.6
v 0.4 1.8 0.6
v -0.5 1.8 0.5
v -0.4 1.8 0.5
v 0.4 1.8 0.5
v 0.5 1.8 0.5
v -0.5 1.8 -0.8
v 0.5 1.8 -0.8
v -0.4 1.9 0.8
v 0.4 1.9 0.8
v -0.5 1.9 0.7
v -0.4 1.9 0.7
v 0.4 1.9 0.7
v 0.5 1.9 0.7
v -0.6 1.9 0.6
v -0.5 1.9 0.6
v -0.4 1.9 0.6
v 0.4 1.9 0.6
v 0.5 1.9 0.6
v 0.6 1.9 0.6
v -0.7 1.9 0.5
v -0.6 1.9 0.5
v -0.5 1.9 0.5
v -0.4 1.9 0.5
v 0.4 1.9 0.5
v 0.5 1.9 0.5
v 0.6 1.9 0.5
v 0.7 1.9 0.5
v -0.7 1.9 -0.2
v -0.6 1.9 -0.2
v 0.6 1.9 -0.2
v 0.7 1.9 -0.2
v -0.6 1.9 -0.5
v -0.5 1.9 -0.5
v 0.5 1.9 -0.5
v 0.6 1.9 -0.5
v -0.7 2 -0.2
v -0.6 2 -0.2
v 0.6 2 -0.2
v 0.7 2 -0.2
v -0.7 2 -0.3
v -0.6 2 -0.3
v 0.6 2 -0.3
v 0.7 2 -0.3
v -0.6 2.2 -0.5
v -0.5 2.2 -0.5
v 0.5 2.2 -0.5
v 0.6 2.2 -0.5
v -0.6 2.2 -0.6
v -0.5 2.2 -0.6
v 0.5 2.2 -0.6
v 0.6 2.2 -0.6
v -0.7 2.4 -0.3
v -0.6 2.4 -0.3
v 0.6 2.4 -0.3
v 0.7 2.4 -0.3
v -0.7 2.4 -0.4
v -0.6 2.4 -0.4
v 0.6 2.4 -0.4
v 0.7 2.4 -0.4
v -0.7 2.5 -0.4
v -0.6 2.5 -0.4
v 0.6 2.5 -0.4
v 0.7 2.5 -0.4
v -0.7 2.5 -0.5
v -0.6 2.5 -0.5
v 0.6 2.5 -0.5
v 0.7 2.5 -0.5
v -0.5 2.8 -0.6
v -0.1 2.8 -0.6
v 0.1 2.8 -0.6
v 0.5 2.8 -0.6
v -0.5 2.8 -0.7
v -0.1 2.8 -0.7
v 0.1 2.8 -0.7
v 0.5 2.8 -0.7
v -0.6 2.9 -0.6
v -0.5 2.9 -0.6
v 0.5 2.9 -0.6
v 0.6 2.9 -0.6
v -0.6 2.9 -0.7
v -0.5 2.9 -0.7
v 0.5 2.9 -0.7
v 0.6 2.9 -0.7
v -0.5 2.1 -0.7
v -0.4 2.1 -0.7
v -0.1 2.1 -0.7
v 0.1 2.1 -0.7
v 0.4 2.1 -0.7
v 0.5 2.1 -0.7
v -0.5 2.1 -0.8
v -0.4 2.1 -0.8
v -0.1 2.1 -0.8
v 0.1 2.1 -0.8
v 0.4 2.1 -0.8
v 0.5 2.1 -0.8
v -0.5 2.2 -0.6
v -0.4 2.2 -0.6
v -0.1 2.2 -0.6
v 0.1 2.2 -0.6
v 0.4 2.2 -0.6
v 0.5 2.2 -0.6
v -0.5 2.2 -0.7
v -0.4 2.2 -0.7
v -0.1 2.2 -0.7
v 0.1 2.2 -0.7
v 0.4 2.2 -0.7
v 0.5 2.2 -0.7
v -0.4 2.2 -0.8
v -0.1 2.2 -0.8
v 0.1 2.2 -0.8
v 0.4 2.2 -0.8
v -0.4 2.3 -0.6
v -0.1 2.3 -0.6
v 0.1 2.3 -0.6
v 0.4 2.3 -0.6
v -0.4 2.3 -0.7
v -0.1 2.3 -0.7
v 0.1 2.3 -0.7
v 0.4 2.3 -0.7
v -0.4 2.4 0.8
v -0.3 2.4 0.8
v 0.3 2.4 0.8
v 0.4 2.4 0.8
v -0.5 2.4 0.7
v -0.4 2.4 0.7
v -0.3 2.4 0.7
v 0.3 2.4 0.7
v 0.4 2.4 0.7
v 0.5 2.4 0.7
v -0.5 2.4 0.6
v -0.4 2.4 0.6
v 0.4 2.4 0.6
v 0.5 2.4 0.6
v -0.3 2.5 0.8
v 0.3 2.5 0.8
v -0.3 2.5 0.7
v 0.3 2.5 0.7
v -0.4 2.6 0.7
v 0.4 2.6 0.7
v -0.6 2.6 0.6
v -0.5 2.6 0.6
v -0.4 2.6 0.6
v 0.4 2.6 0.6
v 0.5 2.6 0.6
v 0.6 2.6 0.6
v -0.7 2.6 0.5
v -0.6 2.6 0.5
v -0.5 2.6 0.5
v 0.5 2.6 0.5
v 0.6 2.6 0.5
v 0.7 2.6 0.5
v -0.7 2.6 0.4
v -0.6 2.6 0.4
v 0.6 2.6 0.4
v 0.7 2.6 0.4
v -0.5 2.7 0.6
v 0.5 2.7 0.6
v -0.5 2.7 0.5
v 0.5 2.7 0.5
v -0.6 3.1 0.5
v -0.5 3.1 0.5
v 0.5 3.1 0.5
v 0.6 3.1 0.5
v -0.6 3.1 0.4
v -0.5 3.1 0.4
v 0.5 3.1 0.4
v 0.6 3.1 0.4
v -0.6 3.1 -0.6
v -0.5 3.1 -0.6
v -0.2 3.1 -0.6
v -0.1 3.1 -0.6
v 0.1 3.1 -0.6
v 0.2 3.1 -0.6
v 0.5 3.1 -0.6
v 0.6 3.1 -0.6
v -0.6 3.1 -0.7
v -0.5 3.1 -0.7
v -0.2 3.1 -0.7
v -0.1 3.1 -0.7
v 0.1 3.1 -0.7
v 0.2 3.1 -0.7
v 0.5 3.1 -0.7
v 0.6 3.1 -0.7
v -0.5 3.2 0.5
v -0.4 3.2 0.5
v 0.4 3.2 0.5
v 0.5 3.2 0.5
v -0.7 3.2 0.4
v -0.5 3.2 0.4
v -0.4 3.2 0.4
v 0.4 3.2 0.4
v 0.5 3.2 0.4
v 0.7 3.2 0.4
v -0.7 3.2 0.3
v -0.6 3.2 0.3
v -0.5 3.2 0.3
v 0.5 3.2 0.3
v 0.6 3.2 0.3
v 0.7 3.2 0.3
v -0.7 3.2 -0.4
v -0.6 3.2 -0.4
v 0.6 3.2 -0.4
v 0.7 3.2 -0.4
v -0.7 3.2 -0.5
v -0.6 3.2 -0.5
v -0.5 3.2 -0.5
v 0.5 3.2 -0.5
v 0.6 3.2 -0.5
v 0.7 3.2 -0.5
v -0.6 3.2 -0.6
v -0.5 3.2 -0.6
v -0.3 3.2 -0.6
v -0.2 3.2 -0.6
v 0.2 3.2 -0.6
v 0.3 3.2 -0.6
v 0.5 3.2 -0.6
v 0.6 3.2 -0.6
v -0.5 3.2 -0.7
v -0.2 3.2 -0.7
v 0.2 3.2 -0.7
v 0.5 3.2 -0.7
v -0.5 3.3 0.4
v -0.4 3.3 0.4
v 0.4 3.3 0.4
v 0.5 3.3 0.4
v -0.6 3.3 0.3
v -0.5 3.3 0.3
v 0.5 3.3 0.3
v 0.6 3.3 0.3
v -0.6 3.3 -0.4
v -0.5 3.3 -0.4
v 0.5 3.3 -0.4
v 0.6 3.3 -0.4
v -0.6 3.3 -0.5
v -0.5 3.3 -0.5
v -0.4 3.3 -0.5
v -0.3 3.3 -0.5
v 0.3 3.3 -0.5
v 0.4 3.3 -0.5
v 0.5 3.3 -0.5
v 0.6 3.3 -0.5
v -0.5 3.3 -0.6
v -0.3 3.3 -0.6
v 0.3 3.3 -0.6
v 0.5 3.3 -0.6

# faces
f 3/2/1 2/2/1 1/2/1
f 5/2/1 4/2/1 3/2/1
f 7/2/1 6/2/1 5/2/1
f 9/2/1 3/2/1 1/2/1
f 9/2/1 8/2/1 7/2/1
f 9/2/1 7/2/1 5/2/1
f 9/2/1 5/2/1 3/2/1
f 10/2/1 8/2/1 9/2/1
f 11/2/1 8/2/1 10/2/1
f 12/2/1 8/2/1 11/2/1
f 13/2/1 11/2/1 10/2/1
f 14/3/1 12/3/1 11/3/1
f 14/2/1 11/2/1 13/2/1
f 15/2/1 8/2/1 12/2/1
f 15/3/1 12/3/1 14/3/1
f 16/2/1 8/2/1 15/2/1
f 17/2/1 13/2/1 10/2/1
f 18/3/1 14/3/1 13/3/1
f 18/2/1 13/2/1 17/2/1
f 18/3/1 15/3/1 14/3/1
f 18/3/1 16/3/1 15/3/1
f 19/2/1 8/2/1 16/2/1
f 19/3/1 16/3/1 18/3/1
f 20/2/1 8/2/1 19/2/1
f 21/2/1 17/2/1 10/2/1
f 22/3/1 18/3/1 17/3/1
f 22/2/1 17/2/1 21/2/1
f 22/3/1 19/3/1 18/3/1
f 22/3/1 20/3/1 19/3/1
f 23/2/1 8/2/1 20/2/1
f 23/3/1 20/3/1 22/3/1
f 24/2/1 8/2/1 23/2/1
f 29/2/1 28/2/1 27/2/1
f 30/2/1 28/2/1 29/2/1
f 31/2/1 28/2/1 30/2/1
f 33/2/1 31/2/1 30/2/1
f 33/2/1 32/2/1 31/2/1
f 34/2/1 32/2/1 33/2/1
f 35/2/1 32/2/1 34/2/1
f 36/2/1 32/2/1 35/2/1
f 37/2/1 26/2/1 25/2/1
f 38/2/1 26/2/1 37/2/1
f 40/2/1 32/2/1 36/2/1
f 42/2/1 39/2/1 38/2/1
f 43/2/1 39/2/1 42/2/1
f 44/2/1 41/2/1 40/2/1
f 44/2/1 40/2/1 36/2/1
f 45/2/1 41/2/1 44/2/1
f 48/2/1 44/2/1 36/2/1
f 49/2/1 44/2/1 48/2/1
f 50/3/1 47/3/1 46/3/1
f 51/2/1 48/2/1 47/2/1
f 51/3/1 47/3/1 50/3/1
f 52/2/1 48/2/1 51/2/1
f 57/2/1 54/2/1 53/2/1
f 58/2/1 54/2/1 57/2/1
f 59/2/1 54/2/1 58/2/1
f 60/2/1 54/2/1 59/2/1
f 61/2/1 59/2/1 58/2/1
f 62/2/1 59/2/1 61/2/1
f 63/2/1 59/2/1 62/2/1
f 64/2/1 56/2/1 55/2/1
f 65/2/1 56/2/1 64/2/1
f 68/2/1 67/2/1 66/2/1
f 69/2/1 67/2/1 68/2/1
f 72/2/1 71/2/1 70/2/1
f 73/2/1 71/2/1 72/2/1
f 78/2/1 75/2/1 74/2/1
f 79/2/1 75/2/1 78/2/1
f 82/2/1 77/2/1 76/2/1
f 83/2/1 77/2/1 82/2/1
f 84/2/1 80/2/1 79/2/1
f 85/2/1 80/2/1 84/2/1
f 86/2/1 82/2/1 81/2/1
f 87/2/1 82/2/1 86/2/1
f 92/2/1 89/2/1 88/2/1
f 93/2/1 89/2/1 92/2/1
f 97/2/1 95/2/1 94/2/1
f 98/2/1 95/2/1 97/2/1
f 99/2/1 97/2/1 96/2/1
f 100/2/1 97/2/1 99/2/1
f 101/2/1 91/2/1 90/2/1
f 102/2/1 91/2/1 101/2/1
f 104/2/1 103/2/1 102/2/1
f 105/2/1 103/2/1 104/2/1
f 108/2/1 107/2/1 106/2/1
f 109/2/1 107/2/1 108/2/1
f 113/2/1 111/2/1 110/2/1
f 114/2/1 111/2/1 113/2/1
f 115/2/1 113/2/1 112/2/1
f 116/2/1 113/2/1 115/2/1
f 119/2/1 118/2/1 117/2/1
f 120/2/1 118/2/1 119/2/1
f 123/2/1 122/2/1 121/2/1
f 124/2/1 122/2/1 123/2/1
f 125/2/2 126/2/2 127/2/2
f 127/2/2 126/2/2 128/2/2
f 129/2/2 130/2/2 132/2/2
f 132/2/2 130/2/2 133/2/2
f 131/2/2 132/2/2 134/2/2
f 134/2/2 132/2/2 135/2/2
f 136/2/2 137/2/2 138/2/2
f 138/2/2 137/2/2 139/2/2
f 140/2/2 141/2/2 142/2/2
f 142/2/2 141/2/2 143/2/2
f 144/2/2 145/2/2 148/2/2
f 148/2/2 145/2/2 149/2/2
f 150/2/2 151/2/2 153/2/2
f 153/2/2 151/2/2 154/2/2
f 152/2/2 153/2/2 155/2/2
f 155/2/2 153/2/2 156/2/2
f 146/2/2 147/2/2 157/2/2
f 157/2/2 147/2/2 158/2/2
f 158/2/2 159/2/2 160/2/2
f 160/2/2 159/2/2 161/2/2
f 162/2/2 163/2/2 166/2/2
f 166/2/2 163/2/2 167/2/2
f 167/2/2 163/2/2 168/2/2
f 168/2/2 163/2/2 169/2/2
f 167/2/2 168/2/2 170/2/2
f 170/2/2 168/2/2 171/2/2
f 171/2/2 168/2/2 172/2/2
f 164/2/2 165/2/2 173/2/2
f 173/2/2 165/2/2 174/2/2
f 175/2/2 176/2/2 177/2/2
f 177/2/2 176/2/2 178/2/2
f 179/2/2 180/2/2 181/2/2
f 181/2/2 180/2/2 182/2/2
f 183/2/2 184/2/2 187/2/2
f 187/2/2 184/2/2 188/2/2
f 185/2/2 186/2/2 191/2/2
f 191/2/2 186/2/2 192/2/2
f 188/2/2 189/2/2 193/2/2
f 193/2/2 189/2/2 194/2/2
f 190/2/2 191/2/2 195/2/2
f 195/2/2 191/2/2 196/2/2
f 199/2/2 200/2/2 201/2/2
f 201/2/2 200/2/2 202/2/2
f 202/2/2 200/2/2 203/2/2
f 202/2/2 203/2/2 205/2/2
f 203/2/2 204/2/2 205/2/2
f 205/2/2 204/2/2 206/2/2
f 206/2/2 204/2/2 207/2/2
f 207/2/2 204/2/2 208/2/2
f 197/2/2 198/2/2 209/2/2
f 209/2/2 198/2/2 210/2/2
f 208/2/2 204/2/2 212/2/2
f 210/2/2 211/2/2 214/2/2
f 214/2/2 211/2/2 215/2/2
f 212/2/2 213/2/2 216/2/2
f 208/2/2 212/2/2 216/2/2
f 216/2/2 213/2/2 217/2/2
f 208/2/2 216/2/2 220/2/2
f 220/2/2 216/2/2 221/2/2
f 218/3/2 219/3/2 222/3/2
f 219/2/2 220/2/2 223/2/2
f 222/3/2 219/3/2 223/3/2
f 223/2/2 220/2/2 224/2/2
f 225/2/2 226/2/2 227/2/2
f 227/2/2 228/2/2 229/2/2
f 229/2/2 230/2/2 231/2/2
f 225/2/2 227/2/2 233/2/2
f 231/2/2 232/2/2 233/2/2
f 229/2/2 231/2/2 233/2/2
f 227/2/2 229/2/2 233/2/2
f 233/2/2 232/2/2 234/2/2
f 234/2/2 232/2/2 235/2/2
f 235/2/2 232/2/2 236/2/2
f 234/2/2 235/2/2 237/2/2
f 235/3/2 236/3/2 238/3/2
f 237/2/2 235/2/2 238/2/2
f 236/2/2 232/2/2 239/2/2
f 238/3/2 236/3/2 239/3/2
f 239/2/2 232/2/2 240/2/2
f 234/2/2 237/2/2 241/2/2
f 237/3/2 238/3/2 242/3/2
f 241/2/2 237/2/2 242/2/2
f 238/3/2 239/3/2 242/3/2
f 239/3/2 240/3/2 242/3/2
f 240/2/2 232/2/2 243/2/2
f 242/3/2 240/3/2 243/3/2
f 243/2/2 232/2/2 244/2/2
f 234/2/2 241/2/2 245/2/2
f 241/3/2 242/3/2 246/3/2
f 245/2/2 241/2/2 246/2/2
f 242/3/2 243/3/2 246/3/2
f 243/3/2 244/3/2 246/3/2
f 244/2/2 232/2/2 247/2/2
f 246/3/2 244/3/2 247/3/2
f 247/2/2 232/2/2 248/2/2
f 251/2/3 250/2/3 249/2/3
f 253/2/3 251/2/3 249/2/3
f 253/2/3 252/2/3 251/2/3
f 254/2/3 252/2/3 253/2/3
f 255/2/3 253/2/3 249/2/3
f 256/2/3 253/2/3 255/2/3
f 259/2/3 258/2/3 257/2/3
f 260/2/3 258/2/3 259/2/3
f 262/2/3 261/2/3 260/2/3
f 263/2/3 261/2/3 262/2/3
f 265/2/3 261/2/3 263/2/3
f 267/2/3 265/2/3 264/2/3
f 268/2/3 261/2/3 265/2/3
f 268/2/3 265/2/3 267/2/3
f 269/2/3 267/2/3 266/2/3
f 270/2/3 267/2/3 269/2/3
f 273/2/3 272/2/3 271/2/3
f 274/2/3 272/2/3 273/2/3
f 275/2/3 272/2/3 274/2/3
f 279/2/3 276/2/3 275/2/3
f 279/2/3 275/2/3 274/2/3
f 280/2/3 276/2/3 279/2/3
f 281/2/3 278/2/3 277/2/3
f 282/2/3 278/2/3 281/2/3
f 284/2/3 276/2/3 280/2/3
f 286/2/3 284/2/3 283/2/3
f 287/2/3 276/2/3 284/2/3
f 287/2/3 284/2/3 286/2/3
f 288/2/3 276/2/3 287/2/3
f 289/2/3 286/2/3 285/2/3
f 289/2/3 287/2/3 286/2/3
f 290/2/3 287/2/3 289/2/3
f 293/2/3 292/2/3 291/2/3
f 294/2/3 292/2/3 293/2/3
f 298/2/3 295/2/3 294/2/3
f 299/2/3 295/2/3 298/2/3
f 300/2/3 295/2/3 299/2/3
f 302/2/3 297/2/3 296/2/3
f 303/2/3 297/2/3 302/2/3
f 304/2/3 301/2/3 300/2/3
f 304/2/3 300/2/3 299/2/3
f 305/2/3 301/2/3 304/2/3
f 306/2/3 304/2/3 299/2/3
f 307/3/3 305/3/3 304/3/3
f 307/2/3 304/2/3 306/2/3
f 308/2/3 306/2/3 299/2/3
f 309/3/3 307/3/3 306/3/3
f 309/2/3 306/2/3 308/2/3
f 310/3/3 307/3/3 309/3/3
f 311/1/3 309/1/3 308/1/3
f 311/3/3 307/3/3 310/3/3
f 311/1/3 310/1/3 309/1/3
f 312/3/3 305/3/3 307/3/3
f 312/3/3 307/3/3 311/3/3
f 313/1/3 311/1/3 308/1/3
f 313/1/3 312/1/3 311/1/3
f 314/3/3 305/3/3 312/3/3
f 314/1/3 312/1/3 313/1/3
f 315/1/3 313/1/3 308/1/3
f 315/2/3 308/2/3 299/2/3
f 316/1/3 313/1/3 315/1/3
f 317/3/3 314/3/3 313/3/3
f 317/1/3 313/1/3 316/1/3
f 318/2/3 316/2/3 315/2/3
f 318/3/3 317/3/3 316/3/3
f 319/3/3 305/3/3 314/3/3
f 319/3/3 317/3/3 318/3/3
f 319/3/3 314/3/3 317/3/3
f 322/2/3 319/2/3 318/2/3
f 322/3/3 305/3/3 319/3/3
f 323/3/3 305/3/3 322/3/3
f 324/2/3 321/2/3 320/2/3
f 325/2/3 321/2/3 324/2/3
f 327/2/3 318/2/3 315/2/3
f 327/2/3 315/2/3 299/2/3
f 327/2/3 322/2/3 318/2/3
f 327/2/3 323/2/3 322/2/3
f 328/2/3 323/2/3 327/2/3
f 329/2/3 323/2/3 328/2/3
f 331/2/3 327/2/3 326/2/3
f 331/2/3 328/2/3 327/2/3
f 332/2/3 328/2/3 331/2/3
f 333/2/3 331/2/3 330/2/3
f 334/2/3 331/2/3 333/2/3
f 337/2/3 336/2/3 335/2/3
f 338/2/3 336/2/3 337/2/3
f 339/2/3 336/2/3 338/2/3
f 340/2/3 336/2/3 339/2/3
f 342/2/3 341/2/3 340/2/3
f 343/2/3 341/2/3 342/2/3
f 344/3/3 343/3/3 342/3/3
f 345/3/3 343/3/3 344/3/3
f 347/2/3 345/2/3 344/2/3
f 348/2/3 345/2/3 347/2/3
f 350/2/3 347/2/3 346/2/3
f 351/2/3 350/2/3 349/2/3
f 352/2/3 347/2/3 350/2/3
f 352/2/3 350/2/3 351/2/3
f 355/3/3 354/3/3 353/3/3
f 356/3/3 354/3/3 355/3/3
f 359/3/3 358/3/3 357/3/3
f 360/3/3 358/3/3 359/3/3
f 361/2/4 362/2/4 363/2/4
f 363/2/4 362/2/4 364/2/4
f 365/2/4 366/2/4 367/2/4
f 367/2/4 366/2/4 368/2/4
f 369/2/4 370/2/4 371/2/4
f 371/2/4 370/2/4 372/2/4
f 373/2/4 374/2/4 375/2/4
f 375/2/4 374/2/4 376/2/4
f 377/2/4 378/2/4 379/2/4
f 379/2/4 378/2/4 380/2/4
f 381/2/4 382/2/4 383/2/4
f 383/2/4 382/2/4 384/2/4
f 385/2/4 386/2/4 389/2/4
f 389/2/4 386/2/4 390/2/4
f 387/2/4 388/2/4 392/2/4
f 392/2/4 388/2/4 393/2/4
f 390/2/4 391/2/4 394/2/4
f 394/2/4 391/2/4 395/2/4
f 396/2/4 397/2/4 400/2/4
f 400/2/4 397/2/4 401/2/4
f 398/2/4 399/2/4 403/2/4
f 403/2/4 399/2/4 404/2/4
f 402/2/4 403/2/4 405/2/4
f 405/2/4 403/2/4 406/2/4
f 407/2/4 408/2/4 411/2/4
f 411/2/4 408/2/4 412/2/4
f 412/2/4 408/2/4 413/2/4
f 409/2/4 410/2/4 414/2/4
f 414/2/4 410/2/4 415/2/4
f 411/2/4 412/2/4 417/2/4
f 417/2/4 412/2/4 418/2/4
f 415/2/4 416/2/4 419/2/4
f 419/2/4 416/2/4 420/2/4
f 419/3/4 420/3/4 422/3/4
f 418/2/4 412/2/4 424/2/4
f 424/2/4 412/2/4 425/2/4
f 421/3/4 422/3/4 426/3/4
f 424/2/4 425/2/4 427/2/4
f 425/2/4 426/2/4 427/2/4
f 423/2/4 424/2/4 427/2/4
f 427/2/4 426/2/4 428/2/4
f 428/2/4 426/2/4 429/2/4
f 426/3/4 422/3/4 430/3/4
f 429/2/4 426/2/4 430/2/4
f 430/3/4 422/3/4 431/3/4
f 422/3/4 420/3/4 432/3/4
f 431/3/4 422/3/4 432/3/4
f 432/3/4 420/3/4 433/3/4
f 433/3/4 420/3/4 434/3/4
f 428/2/4 429/2/4 436/2/4
f 435/2/4 436/2/4 437/2/4
f 436/2/4 429/2/4 438/2/4
f 437/2/4 436/2/4 438/2/4
f 433/2/4 434/2/4 441/2/4
f 441/2/4 434/2/4 442/2/4
f 438/2/4 439/2/4 443/2/4
f 437/2/4 438/2/4 443/2/4
f 443/2/4 439/2/4 444/2/4
f 440/2/4 441/2/4 445/2/4
f 445/2/4 441/2/4 446/2/4
f 447/2/4 448/2/4 452/2/4
f 452/2/4 448/2/4 453/2/4
f 449/2/4 450/2/4 455/2/4
f 455/2/4 450/2/4 456/2/4
f 453/2/4 454/2/4 458/2/4
f 451/2/4 452/2/4 458/2/4
f 452/2/4 453/2/4 458/2/4
f 458/2/4 454/2/4 459/2/4
f 456/2/4 457/2/4 461/2/4
f 461/2/4 457/2/4 462/2/4
f 451/2/4 458/2/4 463/2/4
f 463/2/4 458/2/4 464/2/4
f 460/2/4 461/2/4 465/2/4
f 465/2/4 461/2/4 466/2/4
f 468/2/4 469/2/4 470/2/4
f 466/2/4 467/2/4 473/2/4
f 473/2/4 467/2/4 474/2/4
f 472/2/4 473/2/4 475/2/4
f 475/2/4 473/2/4 476/2/4
f 468/2/4 470/2/4 477/2/4
f 470/2/4 471/2/4 477/2/4
f 477/2/4 471/2/4 478/2/4
f 478/2/4 471/2/4 479/2/4
f 479/2/4 471/2/4 480/2/4
f 478/2/4 479/2/4 481/2/4
f 481/2/4 479/2/4 482/2/4
f 483/2/4 484/2/4 485/2/4
f 483/2/4 485/2/4 487/2/4
f 485/2/4 486/2/4 487/2/4
f 487/2/4 486/2/4 488/2/4
f 483/2/4 487/2/4 489/2/4
f 483/2/4 489/2/4 491/2/4
f 489/2/4 490/2/4 491/2/4
f 491/2/4 490/2/4 492/2/4
f 483/2/4 491/2/4 493/2/4
f 493/2/4 491/2/4 494/2/4
f 498/2/5 496/2/5 495/2/5
f 499/2/5 496/2/5 498/2/5
f 501/2/5 498/2/5 497/2/5
f 501/2/5 500/2/5 499/2/5
f 501/2/5 499/2/5 498/2/5
f 502/2/5 500/2/5 501/2/5
f 506/2/5 504/2/5 503/2/5
f 507/2/5 504/2/5 506/2/5
f 510/2/5 506/2/5 505/2/5
f 510/2/5 508/2/5 507/2/5
f 510/2/5 507/2/5 506/2/5
f 511/2/5 508/2/5 510/2/5
f 512/2/5 508/2/5 511/2/5
f 513/2/5 508/2/5 512/2/5
f 516/2/5 510/2/5 509/2/5
f 516/2/5 511/2/5 510/2/5
f 517/2/5 511/2/5 516/2/5
f 518/2/5 511/2/5 517/2/5
f 519/2/5 513/2/5 512/2/5
f 519/2/5 514/2/5 513/2/5
f 520/2/5 514/2/5 519/2/5
f 521/2/5 514/2/5 520/2/5
f 523/2/5 517/2/5 516/2/5
f 523/2/5 516/2/5 515/2/5
f 524/2/5 517/2/5 523/2/5
f 525/2/5 522/2/5 521/2/5
f 525/2/5 521/2/5 520/2/5
f 526/2/5 522/2/5 525/2/5
f 527/2/5 517/2/5 524/2/5
f 528/2/5 517/2/5 527/2/5
f 529/2/5 525/2/5 520/2/5
f 530/2/5 525/2/5 529/2/5
f 535/2/5 532/2/5 531/2/5
f 536/2/5 532/2/5 535/2/5
f 537/2/5 534/2/5 533/2/5
f 538/2/5 534/2/5 537/2/5
f 543/2/5 540/2/5 539/2/5
f 544/2/5 540/2/5 543/2/5
f 545/2/5 542/2/5 541/2/5
f 546/2/5 542/2/5 545/2/5
f 551/2/5 548/2/5 547/2/5
f 552/2/5 548/2/5 551/2/5
f 553/2/5 550/2/5 549/2/5
f 554/2/5 550/2/5 553/2/5
f 559/2/5 556/2/5 555/2/5
f 560/2/5 556/2/5 559/2/5
f 561/2/5 558/2/5 557/2/5
f 562/2/5 558/2/5 561/2/5
f 567/2/5 564/2/5 563/2/5
f 568/2/5 564/2/5 567/2/5
f 569/2/5 566/2/5 565/2/5
f 570/2/5 566/2/5 569/2/5
f 575/2/5 572/2/5 571/2/5
f 576/2/5 572/2/5 575/2/5
f 577/2/5 574/2/5 573/2/5
f 578/2/5 574/2/5 577/2/5
f 579/2/6 580/2/6 585/2/6
f 585/2/6 580/2/6 586/2/6
f 581/2/6 582/2/6 587/2/6
f 587/2/6 582/2/6 588/2/6
f 583/2/6 584/2/6 589/2/6
f 589/2/6 584/2/6 590/2/6
f 591/2/6 592/2/6 597/2/6
f 597/2/6 592/2/6 598/2/6
f 593/2/6 594/2/6 599/2/6
f 599/2/6 594/2/6 600/2/6
f 595/2/6 596/2/6 601/2/6
f 601/2/6 596/2/6 602/2/6
f 598/2/6 599/2/6 603/2/6
f 603/2/6 599/2/6 604/2/6
f 600/2/6 601/2/6 605/2/6
f 605/2/6 601/2/6 606/2/6
f 607/2/6 608/2/6 611/2/6
f 611/2/6 608/2/6 612/2/6
f 609/2/6 610/2/6 613/2/6
f 613/2/6 610/2/6 614/2/6
f 615/2/6 616/2/6 620/2/6
f 620/2/6 616/2/6 621/2/6
f 617/2/6 618/2/6 622/2/6
f 622/2/6 618/2/6 623/2/6
f 619/2/6 620/2/6 625/2/6
f 625/2/6 620/2/6 626/2/6
f 623/2/6 624/2/6 627/2/6
f 627/2/6 624/2/6 628/2/6
f 629/2/6 630/2/6 631/2/6
f 631/2/6 630/2/6 632/2/6
f 633/2/6 634/2/6 637/2/6
f 637/2/6 634/2/6 638/2/6
f 635/2/6 636/2/6 642/2/6
f 642/2/6 636/2/6 643/2/6
f 639/2/6 640/2/6 644/2/6
f 644/2/6 640/2/6 645/2/6
f 641/2/6 642/2/6 647/2/6
f 647/2/6 642/2/6 648/2/6
f 645/2/6 646/2/6 649/2/6
f 649/2/6 646/2/6 650/2/6
f 651/2/6 652/2/6 653/2/6
f 653/2/6 652/2/6 654/2/6
f 655/2/6 656/2/6 659/2/6
f 659/2/6 656/2/6 660/2/6
f 657/2/6 658/2/6 661/2/6
f 661/2/6 658/2/6 662/2/6
f 663/2/6 664/2/6 671/2/6
f 671/2/6 664/2/6 672/2/6
f 665/2/6 666/2/6 673/2/6
f 673/2/6 666/2/6 674/2/6
f 667/2/6 668/2/6 675/2/6
f 675/2/6 668/2/6 676/2/6
f 669/2/6 670/2/6 677/2/6
f 677/2/6 670/2/6 678/2/6
f 679/2/6 680/2/6 684/2/6
f 680/3/6 681/3/6 685/3/6
f 684/2/6 680/2/6 685/2/6
f 681/2/6 682/2/6 686/2/6
f 685/3/6 681/3/6 686/3/6
f 686/2/6 682/2/6 687/2/6
f 683/2/6 684/2/6 689/2/6
f 689/2/6 684/2/6 690/2/6
f 690/2/6 684/2/6 691/2/6
f 687/2/6 688/2/6 692/2/6
f 692/2/6 688/2/6 693/2/6
f 693/2/6 688/2/6 694/2/6
f 689/3/6 690/3/6 695/3/6
f 695/3/6 690/3/6 696/3/6
f 693/3/6 694/3/6 697/3/6
f 697/3/6 694/3/6 698/3/6
f 695/2/6 696/2/6 699/2/6
f 699/2/6 696/2/6 700/2/6
f 697/2/6 698/2/6 703/2/6
f 703/2/6 698/2/6 704/2/6
f 700/2/6 701/2/6 705/2/6
f 705/2/6 701/2/6 706/2/6
f 702/2/6 703/2/6 711/2/6
f 711/2/6 703/2/6 712/2/6
f 706/2/6 707/2/6 713/2/6
f 707/2/6 708/2/6 713/2/6
f 713/2/6 708/2/6 714/2/6
f 709/2/6 710/2/6 715/2/6
f 710/2/6 711/2/6 715/2/6
f 715/2/6 711/2/6 716/2/6
f 717/2/6 718/2/6 722/2/6
f 719/2/6 720/2/6 723/2/6
f 721/3/6 722/3/6 725/3/6
f 722/2/6 718/2/6 726/2/6
f 725/3/6 722/3/6 726/3/6
f 723/3/6 724/3/6 727/3/6
f 719/2/6 723/2/6 727/2/6
f 727/3/6 724/3/6 728/3/6
f 725/2/6 726/2/6 729/2/6
f 726/2/6 718/2/6 730/2/6
f 729/2/6 726/2/6 730/2/6
f 718/3/6 719/3/6 731/3/6
f 730/2/6 718/2/6 731/2/6
f 731/3/6 719/3/6 732/3/6
f 732/3/6 719/3/6 733/3/6
f 719/2/6 727/2/6 734/2/6
f 733/3/6 719/3/6 734/3/6
f 727/2/6 728/2/6 734/2/6
f 734/2/6 728/2/6 735/2/6
f 735/2/6 728/2/6 736/2/6
f 731/2/6 732/2/6 737/2/6
f 730/2/6 731/2/6 737/2/6
f 732/3/6 733/3/6 738/3/6
f 737/2/6 732/2/6 738/2/6
f 734/2/6 735/2/6 739/2/6
f 738/3/6 733/3/6 739/3/6
f 733/2/6 734/2/6 739/2/6
f 739/2/6 735/2/6 740/2/6
