# MagicaVoxel @ Ephtracy

# group
o 

# material
mtllib Irah-5.mtl
usemtl palette

# normals
vn -1 0 0
vn 1 0 0
vn 0 0 1
vn 0 0 -1
vn 0 -1 0
vn 0 1 0

# texcoords
vt 0.00585938 0.5
vt 0.533203 0.5
vt 0.869141 0.5
vt 0.888672 0.5
vt 0.908203 0.5
vt 0.912109 0.5
vt 0.958984 0.5
vt 0.994141 0.5

# verts
v -0.8 4.7 0.1
v -0.8 4.7 -0.2
v -0.8 4.9 0.2
v -0.8 4.9 0.1
v -0.8 4.9 -0.1
v -0.8 4.9 -0.2
v -0.8 5.2 0.2
v -0.8 5.2 -0.1
v -0.7 3.8 0.2
v -0.7 3.8 -0.4
v -0.7 3.9 0.3
v -0.7 3.9 0.2
v -0.7 3.9 -0.4
v -0.7 3.9 -0.5
v -0.7 4.5 0.3
v -0.7 4.5 0.2
v -0.7 4.5 -0.4
v -0.7 4.5 -0.5
v -0.7 4.6 0.2
v -0.7 4.6 -0.4
v -0.7 4.7 0.2
v -0.7 4.7 0.1
v -0.7 4.7 -0.2
v -0.7 4.7 -0.3
v -0.7 4.9 0.3
v -0.7 4.9 0.2
v -0.7 4.9 0.1
v -0.7 4.9 -0.1
v -0.7 4.9 -0.2
v -0.7 4.9 -0.3
v -0.7 5.2 0.3
v -0.7 5.2 0.2
v -0.7 5.2 -0.1
v -0.7 5.2 -0.2
v -0.7 5.3 0.2
v -0.7 5.3 -0.1
v -0.6 3.5 0.1
v -0.6 3.5 -0.4
v -0.6 3.6 0.4
v -0.6 3.6 0.1
v -0.6 3.6 -0.4
v -0.6 3.6 -0.5
v -0.6 3.7 0.5
v -0.6 3.7 0.4
v -0.6 3.7 -0.5
v -0.6 3.7 -0.6
v -0.6 3.8 0.2
v -0.6 3.8 -0.4
v -0.6 3.8 -0.5
v -0.6 3.8 -0.6
v -0.6 3.9 0.3
v -0.6 3.9 0.2
v -0.6 3.9 -0.4
v -0.6 3.9 -0.5
v -0.6 4.5 0.5
v -0.6 4.5 0.4
v -0.6 4.5 0.3
v -0.6 4.5 0.2
v -0.6 4.5 -0.4
v -0.6 4.5 -0.5
v -0.6 4.6 0.4
v -0.6 4.6 0.2
v -0.6 4.6 0.1
v -0.6 4.6 -0.2
v -0.6 4.6 -0.4
v -0.6 4.6 -0.5
v -0.6 4.7 0.1
v -0.6 4.7 -0.2
v -0.5 3.4 0.1
v -0.5 3.4 -0.5
v -0.5 3.5 0.4
v -0.5 3.5 0.1
v -0.5 3.5 -0.4
v -0.5 3.6 0.5
v -0.5 3.6 0.4
v -0.5 3.6 0.1
v -0.5 3.6 -0.4
v -0.5 3.6 -0.5
v -0.5 3.6 -0.6
v -0.5 3.7 0.6
v -0.5 3.7 0.5
v -0.5 3.7 0.4
v -0.5 3.7 -0.5
v -0.5 3.7 -0.6
v -0.5 3.8 -0.5
v -0.5 3.8 -0.6
v -0.5 3.8 -0.7
v -0.5 4.5 0.7
v -0.5 4.5 0.6
v -0.5 4.5 0.5
v -0.5 4.5 0.4
v -0.5 4.5 -0.6
v -0.5 4.5 -0.7
v -0.5 4.6 0.7
v -0.5 4.6 0.4
v -0.5 4.6 0.1
v -0.5 4.6 -0.2
v -0.5 4.6 -0.4
v -0.5 4.6 -0.5
v -0.5 4.6 -0.6
v -0.5 4.7 0.4
v -0.5 4.7 0.2
v -0.5 4.7 0.1
v -0.5 4.7 -0.2
v -0.5 4.7 -0.3
v -0.5 4.7 -0.4
v -0.4 3.3 0.3
v -0.4 3.3 -0.4
v -0.4 3.4 0.1
v -0.4 3.4 -0.4
v -0.4 3.5 0.5
v -0.4 3.5 0.4
v -0.4 3.5 0.3
v -0.4 3.5 0.1
v -0.4 3.5 -0.5
v -0.4 3.5 -0.6
v -0.4 3.6 0.6
v -0.4 3.6 0.5
v -0.4 3.6 0.4
v -0.4 3.6 -0.5
v -0.4 3.6 -0.6
v -0.4 3.7 0.6
v -0.4 3.7 0.5
v -0.4 3.7 -0.6
v -0.4 3.7 -0.7
v -0.4 3.8 -0.6
v -0.4 3.8 -0.7
v -0.4 3.9 -0.7
v -0.4 3.9 -0.8
v -0.4 4.4 -0.7
v -0.4 4.4 -0.8
v -0.4 4.5 -0.6
v -0.4 4.5 -0.7
v -0.4 4.6 -0.4
v -0.4 4.6 -0.5
v -0.4 4.6 -0.6
v -0.4 4.6 -0.7
v -0.4 4.7 0.3
v -0.4 4.7 0.2
v -0.4 4.7 -0.4
v -0.4 4.7 -0.5
v -0.4 4.8 0.3
v -0.4 4.8 0.2
v -0.3 3.3 -0.4
v -0.3 3.3 -0.5
v -0.3 3.4 0.4
v -0.3 3.4 0.3
v -0.3 3.4 -0.4
v -0.3 3.4 -0.5
v -0.3 3.5 0.4
v -0.3 3.5 0.3
v -0.3 3.8 -0.7
v -0.3 3.8 -0.8
v -0.3 3.9 -0.7
v -0.3 3.9 -0.8
v -0.3 4.4 -0.7
v -0.3 4.4 -0.8
v -0.3 4.5 -0.7
v -0.3 4.5 -0.8
v -0.3 4.6 0.6
v -0.3 4.6 0.4
v -0.3 4.7 0.6
v -0.3 4.7 0.4
v -0.3 4.7 0.3
v -0.3 4.7 -0.3
v -0.3 4.7 -0.4
v -0.3 4.8 0.4
v -0.3 4.8 0.3
v -0.3 4.8 0.2
v -0.3 4.8 0.1
v -0.3 4.8 -0.3
v -0.3 4.8 -0.4
v -0.3 4.9 0.2
v -0.3 4.9 0.1
v -0.2 4.7 0.5
v -0.2 4.7 0.4
v -0.2 4.8 0.5
v -0.2 4.8 0.4
v -0.2 4.8 0.3
v -0.2 4.8 0.2
v -0.2 4.8 -0.2
v -0.2 4.8 -0.3
v -0.2 4.9 0.3
v -0.2 4.9 0.2
v -0.2 4.9 -0.2
v -0.2 4.9 -0.3
v -0.1 4 0.7
v -0.1 4 0.5
v -0.1 4.1 0.7
v -0.1 4.1 0.6
v -0.1 4.1 0.5
v -0.1 4.2 0.6
v -0.1 4.2 0.5
v -0.1 4.8 0.4
v -0.1 4.8 0.3
v -0.1 4.9 0.4
v -0.1 4.9 0.3
v 0.3 3.6 0.6
v 0.3 3.6 0.5
v 0.3 3.7 0.6
v 0.3 3.7 0.5
v 0.3 4.9 0.2
v 0.3 4.9 -0.1
v 0.3 5.2 0.2
v 0.3 5.2 -0.1
v 0.4 3.7 0.6
v 0.4 3.7 0.5
v 0.4 3.8 0.5
v 0.4 4.4 0.5
v 0.4 4.5 0.6
v 0.4 4.5 0.5
v 0.4 4.8 0.2
v 0.4 4.8 0.1
v 0.4 4.8 -0.2
v 0.4 4.8 -0.3
v 0.4 4.9 0.3
v 0.4 4.9 0.2
v 0.4 4.9 0.1
v 0.4 4.9 -0.1
v 0.4 4.9 -0.2
v 0.4 4.9 -0.3
v 0.4 5.2 0.3
v 0.4 5.2 0.2
v 0.4 5.2 -0.1
v 0.4 5.2 -0.2
v 0.4 5.3 0.2
v 0.4 5.3 -0.1
v -0.4 3.7 0.6
v -0.4 3.7 0.5
v -0.4 3.8 0.5
v -0.4 4.4 0.5
v -0.4 4.5 0.6
v -0.4 4.5 0.5
v -0.4 4.8 0.2
v -0.4 4.8 0.1
v -0.4 4.8 -0.2
v -0.4 4.8 -0.3
v -0.4 4.9 0.3
v -0.4 4.9 0.2
v -0.4 4.9 0.1
v -0.4 4.9 -0.1
v -0.4 4.9 -0.2
v -0.4 4.9 -0.3
v -0.4 5.2 0.3
v -0.4 5.2 0.2
v -0.4 5.2 -0.1
v -0.4 5.2 -0.2
v -0.4 5.3 0.2
v -0.4 5.3 -0.1
v -0.3 3.6 0.6
v -0.3 3.6 0.5
v -0.3 3.7 0.6
v -0.3 3.7 0.5
v -0.3 4.9 0.2
v -0.3 4.9 -0.1
v -0.3 5.2 0.2
v -0.3 5.2 -0.1
v 0.1 4 0.7
v 0.1 4 0.5
v 0.1 4.1 0.7
v 0.1 4.1 0.6
v 0.1 4.1 0.5
v 0.1 4.2 0.6
v 0.1 4.2 0.5
v 0.1 4.8 0.4
v 0.1 4.8 0.3
v 0.1 4.9 0.4
v 0.1 4.9 0.3
v 0.2 4.7 0.5
v 0.2 4.7 0.4
v 0.2 4.8 0.5
v 0.2 4.8 0.4
v 0.2 4.8 0.3
v 0.2 4.8 0.2
v 0.2 4.8 -0.2
v 0.2 4.8 -0.3
v 0.2 4.9 0.3
v 0.2 4.9 0.2
v 0.2 4.9 -0.2
v 0.2 4.9 -0.3
v 0.3 3.3 -0.4
v 0.3 3.3 -0.5
v 0.3 3.4 0.4
v 0.3 3.4 0.3
v 0.3 3.4 -0.4
v 0.3 3.4 -0.5
v 0.3 3.5 0.4
v 0.3 3.5 0.3
v 0.3 3.8 -0.7
v 0.3 3.8 -0.8
v 0.3 3.9 -0.7
v 0.3 3.9 -0.8
v 0.3 4.4 -0.7
v 0.3 4.4 -0.8
v 0.3 4.5 -0.7
v 0.3 4.5 -0.8
v 0.3 4.6 0.6
v 0.3 4.6 0.4
v 0.3 4.7 0.6
v 0.3 4.7 0.4
v 0.3 4.7 0.3
v 0.3 4.7 -0.3
v 0.3 4.7 -0.4
v 0.3 4.8 0.4
v 0.3 4.8 0.3
v 0.3 4.8 0.2
v 0.3 4.8 0.1
v 0.3 4.8 -0.3
v 0.3 4.8 -0.4
v 0.3 4.9 0.2
v 0.3 4.9 0.1
v 0.4 3.3 0.3
v 0.4 3.3 -0.4
v 0.4 3.4 0.1
v 0.4 3.4 -0.4
v 0.4 3.5 0.5
v 0.4 3.5 0.4
v 0.4 3.5 0.3
v 0.4 3.5 0.1
v 0.4 3.5 -0.5
v 0.4 3.5 -0.6
v 0.4 3.6 0.6
v 0.4 3.6 0.5
v 0.4 3.6 0.4
v 0.4 3.6 -0.5
v 0.4 3.6 -0.6
v 0.4 3.7 0.6
v 0.4 3.7 0.5
v 0.4 3.7 -0.6
v 0.4 3.7 -0.7
v 0.4 3.8 -0.6
v 0.4 3.8 -0.7
v 0.4 3.9 -0.7
v 0.4 3.9 -0.8
v 0.4 4.4 -0.7
v 0.4 4.4 -0.8
v 0.4 4.5 -0.6
v 0.4 4.5 -0.7
v 0.4 4.6 -0.4
v 0.4 4.6 -0.5
v 0.4 4.6 -0.6
v 0.4 4.6 -0.7
v 0.4 4.7 0.3
v 0.4 4.7 0.2
v 0.4 4.7 -0.4
v 0.4 4.7 -0.5
v 0.4 4.8 0.3
v 0.4 4.8 0.2
v 0.5 3.4 0.1
v 0.5 3.4 -0.5
v 0.5 3.5 0.4
v 0.5 3.5 0.1
v 0.5 3.5 -0.4
v 0.5 3.6 0.5
v 0.5 3.6 0.4
v 0.5 3.6 0.1
v 0.5 3.6 -0.4
v 0.5 3.6 -0.5
v 0.5 3.6 -0.6
v 0.5 3.7 0.6
v 0.5 3.7 0.5
v 0.5 3.7 0.4
v 0.5 3.7 -0.5
v 0.5 3.7 -0.6
v 0.5 3.8 -0.5
v 0.5 3.8 -0.6
v 0.5 3.8 -0.7
v 0.5 4.5 0.7
v 0.5 4.5 0.6
v 0.5 4.5 0.5
v 0.5 4.5 0.4
v 0.5 4.5 -0.6
v 0.5 4.5 -0.7
v 0.5 4.6 0.7
v 0.5 4.6 0.4
v 0.5 4.6 0.1
v 0.5 4.6 -0.2
v 0.5 4.6 -0.4
v 0.5 4.6 -0.5
v 0.5 4.6 -0.6
v 0.5 4.7 0.4
v 0.5 4.7 0.2
v 0.5 4.7 0.1
v 0.5 4.7 -0.2
v 0.5 4.7 -0.3
v 0.5 4.7 -0.4
v 0.6 3.5 0.1
v 0.6 3.5 -0.4
v 0.6 3.6 0.4
v 0.6 3.6 0.1
v 0.6 3.6 -0.4
v 0.6 3.6 -0.5
v 0.6 3.7 0.5
v 0.6 3.7 0.4
v 0.6 3.7 -0.5
v 0.6 3.7 -0.6
v 0.6 3.8 0.2
v 0.6 3.8 -0.4
v 0.6 3.8 -0.5
v 0.6 3.8 -0.6
v 0.6 3.9 0.3
v 0.6 3.9 0.2
v 0.6 3.9 -0.4
v 0.6 3.9 -0.5
v 0.6 4.5 0.5
v 0.6 4.5 0.4
v 0.6 4.5 0.3
v 0.6 4.5 0.2
v 0.6 4.5 -0.4
v 0.6 4.5 -0.5
v 0.6 4.6 0.4
v 0.6 4.6 0.2
v 0.6 4.6 0.1
v 0.6 4.6 -0.2
v 0.6 4.6 -0.4
v 0.6 4.6 -0.5
v 0.6 4.7 0.1
v 0.6 4.7 -0.2
v 0.7 3.8 0.2
v 0.7 3.8 -0.4
v 0.7 3.9 0.3
v 0.7 3.9 0.2
v 0.7 3.9 -0.4
v 0.7 3.9 -0.5
v 0.7 4.5 0.3
v 0.7 4.5 0.2
v 0.7 4.5 -0.4
v 0.7 4.5 -0.5
v 0.7 4.6 0.2
v 0.7 4.6 -0.4
v 0.7 4.7 0.2
v 0.7 4.7 0.1
v 0.7 4.7 -0.2
v 0.7 4.7 -0.3
v 0.7 4.9 0.3
v 0.7 4.9 0.2
v 0.7 4.9 0.1
v 0.7 4.9 -0.1
v 0.7 4.9 -0.2
v 0.7 4.9 -0.3
v 0.7 5.2 0.3
v 0.7 5.2 0.2
v 0.7 5.2 -0.1
v 0.7 5.2 -0.2
v 0.7 5.3 0.2
v 0.7 5.3 -0.1
v 0.8 4.7 0.1
v 0.8 4.7 -0.2
v 0.8 4.9 0.2
v 0.8 4.9 0.1
v 0.8 4.9 -0.1
v 0.8 4.9 -0.2
v 0.8 5.2 0.2
v 0.8 5.2 -0.1
v -0.5 4.5 0.7
v -0.5 4.6 0.7
v -0.1 4 0.7
v -0.1 4.1 0.7
v 0.1 4 0.7
v 0.1 4.1 0.7
v 0.5 4.5 0.7
v 0.5 4.6 0.7
v -0.5 3.7 0.6
v -0.5 4.5 0.6
v -0.4 3.6 0.6
v -0.4 3.7 0.6
v -0.4 4.5 0.6
v -0.3 3.6 0.6
v -0.3 3.7 0.6
v -0.3 4.6 0.6
v -0.3 4.7 0.6
v -0.2 4.6 0.6
v -0.2 4.7 0.6
v -0.1 4.1 0.6
v -0.1 4.2 0.6
v -0.1 4.6 0.6
v -0.1 4.7 0.6
v 0.1 4.1 0.6
v 0.1 4.2 0.6
v 0.1 4.6 0.6
v 0.1 4.7 0.6
v 0.2 4.6 0.6
v 0.2 4.7 0.6
v 0.3 3.6 0.6
v 0.3 3.7 0.6
v 0.3 4.6 0.6
v 0.3 4.7 0.6
v 0.4 3.6 0.6
v 0.4 3.7 0.6
v 0.4 4.5 0.6
v 0.5 3.7 0.6
v 0.5 4.5 0.6
v -0.6 3.7 0.5
v -0.6 4.5 0.5
v -0.5 3.6 0.5
v -0.5 3.7 0.5
v -0.5 4.5 0.5
v -0.4 3.5 0.5
v -0.4 3.6 0.5
v -0.4 3.7 0.5
v -0.4 3.8 0.5
v -0.4 4.4 0.5
v -0.4 4.5 0.5
v -0.3 3.6 0.5
v -0.3 3.7 0.5
v -0.3 3.8 0.5
v -0.3 3.9 0.5
v -0.3 4.1 0.5
v -0.3 4.4 0.5
v -0.2 3.8 0.5
v -0.2 3.9 0.5
v -0.2 4 0.5
v -0.2 4.2 0.5
v -0.2 4.3 0.5
v -0.2 4.4 0.5
v -0.2 4.5 0.5
v -0.2 4.7 0.5
v -0.2 4.8 0.5
v -0.1 3.8 0.5
v -0.1 3.9 0.5
v -0.1 4 0.5
v -0.1 4.1 0.5
v -0.1 4.2 0.5
v -0.1 4.3 0.5
v -0.1 4.4 0.5
v -0.1 4.7 0.5
v 0.1 4 0.5
v 0.1 4.1 0.5
v 0.1 4.2 0.5
v 0.1 4.3 0.5
v 0.1 4.4 0.5
v 0.1 4.7 0.5
v 0.2 3.8 0.5
v 0.2 3.9 0.5
v 0.2 4 0.5
v 0.2 4.2 0.5
v 0.2 4.3 0.5
v 0.2 4.4 0.5
v 0.2 4.5 0.5
v 0.2 4.7 0.5
v 0.2 4.8 0.5
v 0.3 3.6 0.5
v 0.3 3.7 0.5
v 0.3 3.8 0.5
v 0.3 3.9 0.5
v 0.3 4.1 0.5
v 0.3 4.4 0.5
v 0.4 3.5 0.5
v 0.4 3.6 0.5
v 0.4 3.7 0.5
v 0.4 3.8 0.5
v 0.4 4.4 0.5
v 0.4 4.5 0.5
v 0.5 3.6 0.5
v 0.5 3.7 0.5
v 0.5 4.5 0.5
v 0.6 3.7 0.5
v 0.6 4.5 0.5
v -0.6 3.6 0.4
v -0.6 3.7 0.4
v -0.6 4.5 0.4
v -0.6 4.6 0.4
v -0.5 3.5 0.4
v -0.5 3.6 0.4
v -0.5 3.7 0.4
v -0.5 4.5 0.4
v -0.5 4.6 0.4
v -0.5 4.7 0.4
v -0.4 3.5 0.4
v -0.4 3.6 0.4
v -0.3 3.4 0.4
v -0.3 3.5 0.4
v -0.3 4.6 0.4
v -0.3 4.7 0.4
v -0.3 4.8 0.4
v -0.2 4.7 0.4
v -0.2 4.8 0.4
v -0.1 4.8 0.4
v -0.1 4.9 0.4
v 0.1 4.8 0.4
v 0.1 4.9 0.4
v 0.2 4.7 0.4
v 0.2 4.8 0.4
v 0.3 3.4 0.4
v 0.3 3.5 0.4
v 0.3 4.6 0.4
v 0.3 4.7 0.4
v 0.3 4.8 0.4
v 0.4 3.5 0.4
v 0.4 3.6 0.4
v 0.5 3.5 0.4
v 0.5 3.6 0.4
v 0.5 3.7 0.4
v 0.5 4.5 0.4
v 0.5 4.6 0.4
v 0.5 4.7 0.4
v 0.6 3.6 0.4
v 0.6 3.7 0.4
v 0.6 4.5 0.4
v 0.6 4.6 0.4
v -0.7 3.9 0.3
v -0.7 4.5 0.3
v -0.7 4.9 0.3
v -0.7 5.2 0.3
v -0.6 3.9 0.3
v -0.6 4.5 0.3
v -0.6 5 0.3
v -0.6 5.1 0.3
v -0.5 5 0.3
v -0.5 5.1 0.3
v -0.4 3.3 0.3
v -0.4 3.5 0.3
v -0.4 4.7 0.3
v -0.4 4.8 0.3
v -0.4 4.9 0.3
v -0.4 5.2 0.3
v -0.3 3.4 0.3
v -0.3 3.5 0.3
v -0.3 4.7 0.3
v -0.3 4.8 0.3
v -0.2 4.8 0.3
v -0.2 4.9 0.3
v -0.1 4.8 0.3
v -0.1 4.9 0.3
v 0.1 4.8 0.3
v 0.1 4.9 0.3
v 0.2 4.8 0.3
v 0.2 4.9 0.3
v 0.3 3.4 0.3
v 0.3 3.5 0.3
v 0.3 4.7 0.3
v 0.3 4.8 0.3
v 0.4 3.3 0.3
v 0.4 3.5 0.3
v 0.4 4.7 0.3
v 0.4 4.8 0.3
v 0.4 4.9 0.3
v 0.4 5.2 0.3
v 0.5 5 0.3
v 0.5 5.1 0.3
v 0.6 3.9 0.3
v 0.6 4.5 0.3
v 0.6 5 0.3
v 0.6 5.1 0.3
v 0.7 3.9 0.3
v 0.7 4.5 0.3
v 0.7 4.9 0.3
v 0.7 5.2 0.3
v -0.8 4.9 0.2
v -0.8 5.2 0.2
v -0.7 3.8 0.2
v -0.7 3.9 0.2
v -0.7 4.5 0.2
v -0.7 4.6 0.2
v -0.7 4.7 0.2
v -0.7 4.9 0.2
v -0.7 5.2 0.2
v -0.7 5.3 0.2
v -0.6 3.8 0.2
v -0.6 3.9 0.2
v -0.6 4.5 0.2
v -0.6 4.6 0.2
v -0.5 4.7 0.2
v -0.4 4.7 0.2
v -0.4 4.8 0.2
v -0.4 4.9 0.2
v -0.4 5.2 0.2
v -0.4 5.3 0.2
v -0.3 4.8 0.2
v -0.3 4.9 0.2
v -0.3 5.2 0.2
v -0.2 4.8 0.2
v -0.2 4.9 0.2
v 0.2 4.8 0.2
v 0.2 4.9 0.2
v 0.3 4.8 0.2
v 0.3 4.9 0.2
v 0.3 5.2 0.2
v 0.4 4.7 0.2
v 0.4 4.8 0.2
v 0.4 4.9 0.2
v 0.4 5.2 0.2
v 0.4 5.3 0.2
v 0.5 4.7 0.2
v 0.6 3.8 0.2
v 0.6 3.9 0.2
v 0.6 4.5 0.2
v 0.6 4.6 0.2
v 0.7 3.8 0.2
v 0.7 3.9 0.2
v 0.7 4.5 0.2
v 0.7 4.6 0.2
v 0.7 4.7 0.2
v 0.7 4.9 0.2
v 0.7 5.2 0.2
v 0.7 5.3 0.2
v 0.8 4.9 0.2
v 0.8 5.2 0.2
v -0.8 4.7 0.1
v -0.8 4.9 0.1
v -0.7 4.7 0.1
v -0.7 4.9 0.1
v -0.6 3.5 0.1
v -0.6 3.6 0.1
v -0.6 4.6 0.1
v -0.6 4.7 0.1
v -0.5 3.4 0.1
v -0.5 3.5 0.1
v -0.5 3.6 0.1
v -0.5 4.6 0.1
v -0.5 4.7 0.1
v -0.4 3.4 0.1
v -0.4 3.5 0.1
v -0.4 4.8 0.1
v -0.4 4.9 0.1
v -0.3 4.8 0.1
v -0.3 4.9 0.1
v 0.3 4.8 0.1
v 0.3 4.9 0.1
v 0.4 3.4 0.1
v 0.4 3.5 0.1
v 0.4 4.8 0.1
v 0.4 4.9 0.1
v 0.5 3.4 0.1
v 0.5 3.5 0.1
v 0.5 3.6 0.1
v 0.5 4.6 0.1
v 0.5 4.7 0.1
v 0.6 3.5 0.1
v 0.6 3.6 0.1
v 0.6 4.6 0.1
v 0.6 4.7 0.1
v 0.7 4.7 0.1
v 0.7 4.9 0.1
v 0.8 4.7 0.1
v 0.8 4.9 0.1
v -0.8 4.9 -0.1
v -0.8 5.2 -0.1
v -0.7 4.9 -0.1
v -0.7 5.2 -0.1
v -0.7 5.3 -0.1
v -0.4 4.9 -0.1
v -0.4 5.2 -0.1
v -0.4 5.3 -0.1
v -0.3 4.9 -0.1
v -0.3 5.2 -0.1
v 0.3 4.9 -0.1
v 0.3 5.2 -0.1
v 0.4 4.9 -0.1
v 0.4 5.2 -0.1
v 0.4 5.3 -0.1
v 0.7 4.9 -0.1
v 0.7 5.2 -0.1
v 0.7 5.3 -0.1
v 0.8 4.9 -0.1
v 0.8 5.2 -0.1
v -0.8 4.7 -0.2
v -0.8 4.9 -0.2
v -0.7 4.7 -0.2
v -0.7 4.9 -0.2
v -0.7 5.2 -0.2
v -0.6 4.6 -0.2
v -0.6 4.7 -0.2
v -0.5 4.6 -0.2
v -0.5 4.7 -0.2
v -0.4 4.8 -0.2
v -0.4 4.9 -0.2
v -0.4 5.2 -0.2
v -0.2 4.8 -0.2
v -0.2 4.9 -0.2
v 0.2 4.8 -0.2
v 0.2 4.9 -0.2
v 0.4 4.8 -0.2
v 0.4 4.9 -0.2
v 0.4 5.2 -0.2
v 0.5 4.6 -0.2
v 0.5 4.7 -0.2
v 0.6 4.6 -0.2
v 0.6 4.7 -0.2
v 0.7 4.7 -0.2
v 0.7 4.9 -0.2
v 0.7 5.2 -0.2
v 0.8 4.7 -0.2
v 0.8 4.9 -0.2
v -0.7 4.7 -0.3
v -0.7 4.9 -0.3
v -0.5 4.7 -0.3
v -0.4 4.8 -0.3
v -0.4 4.9 -0.3
v -0.3 4.7 -0.3
v -0.3 4.8 -0.3
v -0.2 4.8 -0.3
v -0.2 4.9 -0.3
v 0.2 4.8 -0.3
v 0.2 4.9 -0.3
v 0.3 4.7 -0.3
v 0.3 4.8 -0.3
v 0.4 4.8 -0.3
v 0.4 4.9 -0.3
v 0.5 4.7 -0.3
v 0.7 4.7 -0.3
v 0.7 4.9 -0.3
v -0.7 3.8 -0.4
v -0.7 3.9 -0.4
v -0.7 4.5 -0.4
v -0.7 4.6 -0.4
v -0.6 3.5 -0.4
v -0.6 3.6 -0.4
v -0.6 3.8 -0.4
v -0.6 3.9 -0.4
v -0.6 4.5 -0.4
v -0.6 4.6 -0.4
v -0.5 3.5 -0.4
v -0.5 3.6 -0.4
v -0.5 4.6 -0.4
v -0.5 4.7 -0.4
v -0.4 3.3 -0.4
v -0.4 3.4 -0.4
v -0.4 4.6 -0.4
v -0.4 4.7 -0.4
v -0.3 3.3 -0.4
v -0.3 3.4 -0.4
v -0.3 4.7 -0.4
v -0.3 4.8 -0.4
v 0.3 3.3 -0.4
v 0.3 3.4 -0.4
v 0.3 4.7 -0.4
v 0.3 4.8 -0.4
v 0.4 3.3 -0.4
v 0.4 3.4 -0.4
v 0.4 4.6 -0.4
v 0.4 4.7 -0.4
v 0.5 3.5 -0.4
v 0.5 3.6 -0.4
v 0.5 4.6 -0.4
v 0.5 4.7 -0.4
v 0.6 3.5 -0.4
v 0.6 3.6 -0.4
v 0.6 3.8 -0.4
v 0.6 3.9 -0.4
v 0.6 4.5 -0.4
v 0.6 4.6 -0.4
v 0.7 3.8 -0.4
v 0.7 3.9 -0.4
v 0.7 4.5 -0.4
v 0.7 4.6 -0.4
v -0.7 3.9 -0.5
v -0.7 4.5 -0.5
v -0.6 3.6 -0.5
v -0.6 3.7 -0.5
v -0.6 3.8 -0.5
v -0.6 3.9 -0.5
v -0.6 4.5 -0.5
v -0.6 4.6 -0.5
v -0.5 3.4 -0.5
v -0.5 3.6 -0.5
v -0.5 3.7 -0.5
v -0.5 3.8 -0.5
v -0.5 4.6 -0.5
v -0.4 3.5 -0.5
v -0.4 3.6 -0.5
v -0.4 4.6 -0.5
v -0.4 4.7 -0.5
v -0.3 3.3 -0.5
v -0.3 3.4 -0.5
v 0.3 3.3 -0.5
v 0.3 3.4 -0.5
v 0.4 3.5 -0.5
v 0.4 3.6 -0.5
v 0.4 4.6 -0.5
v 0.4 4.7 -0.5
v 0.5 3.4 -0.5
v 0.5 3.6 -0.5
v 0.5 3.7 -0.5
v 0.5 3.8 -0.5
v 0.5 4.6 -0.5
v 0.6 3.6 -0.5
v 0.6 3.7 -0.5
v 0.6 3.8 -0.5
v 0.6 3.9 -0.5
v 0.6 4.5 -0.5
v 0.6 4.6 -0.5
v 0.7 3.9 -0.5
v 0.7 4.5 -0.5
v -0.6 3.7 -0.6
v -0.6 3.8 -0.6
v -0.5 3.6 -0.6
v -0.5 3.7 -0.6
v -0.5 3.8 -0.6
v -0.5 4.5 -0.6
v -0.5 4.6 -0.6
v -0.4 3.5 -0.6
v -0.4 3.6 -0.6
v -0.4 3.7 -0.6
v -0.4 3.8 -0.6
v -0.4 4.5 -0.6
v -0.4 4.6 -0.6
v 0.4 3.5 -0.6
v 0.4 3.6 -0.6
v 0.4 3.7 -0.6
v 0.4 3.8 -0.6
v 0.4 4.5 -0.6
v 0.4 4.6 -0.6
v 0.5 3.6 -0.6
v 0.5 3.7 -0.6
v 0.5 3.8 -0.6
v 0.5 4.5 -0.6
v 0.5 4.6 -0.6
v 0.6 3.7 -0.6
v 0.6 3.8 -0.6
v -0.5 3.8 -0.7
v -0.5 4.5 -0.7
v -0.4 3.7 -0.7
v -0.4 3.8 -0.7
v -0.4 3.9 -0.7
v -0.4 4.4 -0.7
v -0.4 4.5 -0.7
v -0.4 4.6 -0.7
v -0.3 3.8 -0.7
v -0.3 3.9 -0.7
v -0.3 4.4 -0.7
v -0.3 4.5 -0.7
v 0.3 3.8 -0.7
v 0.3 3.9 -0.7
v 0.3 4.4 -0.7
v 0.3 4.5 -0.7
v 0.4 3.7 -0.7
v 0.4 3.8 -0.7
v 0.4 3.9 -0.7
v 0.4 4.4 -0.7
v 0.4 4.5 -0.7
v 0.4 4.6 -0.7
v 0.5 3.8 -0.7
v 0.5 4.5 -0.7
v -0.4 3.9 -0.8
v -0.4 4.4 -0.8
v -0.3 3.8 -0.8
v -0.3 3.9 -0.8
v -0.3 4.4 -0.8
v -0.3 4.5 -0.8
v 0.3 3.8 -0.8
v 0.3 3.9 -0.8
v 0.3 4.4 -0.8
v 0.3 4.5 -0.8
v 0.4 3.9 -0.8
v 0.4 4.4 -0.8
v -0.4 3.3 0.3
v 0.4 3.3 0.3
v -0.4 3.3 -0.4
v -0.3 3.3 -0.4
v 0.3 3.3 -0.4
v 0.4 3.3 -0.4
v -0.3 3.3 -0.5
v 0.3 3.3 -0.5
v -0.3 3.4 0.4
v 0.3 3.4 0.4
v -0.3 3.4 0.3
v 0.3 3.4 0.3
v -0.5 3.4 0.1
v -0.4 3.4 0.1
v 0.4 3.4 0.1
v 0.5 3.4 0.1
v -0.4 3.4 -0.4
v -0.3 3.4 -0.4
v 0.3 3.4 -0.4
v 0.4 3.4 -0.4
v -0.5 3.4 -0.5
v -0.3 3.4 -0.5
v 0.3 3.4 -0.5
v 0.5 3.4 -0.5
v -0.4 3.5 0.5
v 0.4 3.5 0.5
v -0.5 3.5 0.4
v -0.4 3.5 0.4
v -0.3 3.5 0.4
v 0.3 3.5 0.4
v 0.4 3.5 0.4
v 0.5 3.5 0.4
v -0.4 3.5 0.3
v -0.3 3.5 0.3
v 0.3 3.5 0.3
v 0.4 3.5 0.3
v -0.6 3.5 0.1
v -0.5 3.5 0.1
v -0.4 3.5 0.1
v 0.4 3.5 0.1
v 0.5 3.5 0.1
v 0.6 3.5 0.1
v -0.6 3.5 -0.4
v -0.5 3.5 -0.4
v 0.5 3.5 -0.4
v 0.6 3.5 -0.4
v -0.4 3.5 -0.5
v 0.4 3.5 -0.5
v -0.4 3.5 -0.6
v 0.4 3.5 -0.6
v -0.4 3.6 0.6
v -0.3 3.6 0.6
v 0.3 3.6 0.6
v 0.4 3.6 0.6
v -0.5 3.6 0.5
v -0.4 3.6 0.5
v -0.3 3.6 0.5
v 0.3 3.6 0.5
v 0.4 3.6 0.5
v 0.5 3.6 0.5
v -0.6 3.6 0.4
v -0.5 3.6 0.4
v -0.4 3.6 0.4
v 0.4 3.6 0.4
v 0.5 3.6 0.4
v 0.6 3.6 0.4
v -0.6 3.6 0.1
v -0.5 3.6 0.1
v 0.5 3.6 0.1
v 0.6 3.6 0.1
v -0.6 3.6 -0.4
v -0.5 3.6 -0.4
v 0.5 3.6 -0.4
v 0.6 3.6 -0.4
v -0.6 3.6 -0.5
v -0.5 3.6 -0.5
v -0.4 3.6 -0.5
v 0.4 3.6 -0.5
v 0.5 3.6 -0.5
v 0.6 3.6 -0.5
v -0.5 3.6 -0.6
v -0.4 3.6 -0.6
v 0.4 3.6 -0.6
v 0.5 3.6 -0.6
v -0.5 3.7 0.6
v -0.4 3.7 0.6
v 0.4 3.7 0.6
v 0.5 3.7 0.6
v -0.6 3.7 0.5
v -0.5 3.7 0.5
v -0.4 3.7 0.5
v 0.4 3.7 0.5
v 0.5 3.7 0.5
v 0.6 3.7 0.5
v -0.6 3.7 0.4
v -0.5 3.7 0.4
v 0.5 3.7 0.4
v 0.6 3.7 0.4
v -0.6 3.7 -0.5
v -0.5 3.7 -0.5
v 0.5 3.7 -0.5
v 0.6 3.7 -0.5
v -0.6 3.7 -0.6
v -0.5 3.7 -0.6
v -0.4 3.7 -0.6
v 0.4 3.7 -0.6
v 0.5 3.7 -0.6
v 0.6 3.7 -0.6
v -0.4 3.7 -0.7
v 0.4 3.7 -0.7
v -0.7 3.8 0.2
v -0.6 3.8 0.2
v 0.6 3.8 0.2
v 0.7 3.8 0.2
v -0.7 3.8 -0.4
v -0.6 3.8 -0.4
v 0.6 3.8 -0.4
v 0.7 3.8 -0.4
v -0.5 3.8 -0.6
v -0.4 3.8 -0.6
v 0.4 3.8 -0.6
v 0.5 3.8 -0.6
v -0.5 3.8 -0.7
v -0.4 3.8 -0.7
v -0.3 3.8 -0.7
v 0.3 3.8 -0.7
v 0.4 3.8 -0.7
v 0.5 3.8 -0.7
v -0.3 3.8 -0.8
v 0.3 3.8 -0.8
v -0.7 3.9 0.3
v -0.6 3.9 0.3
v 0.6 3.9 0.3
v 0.7 3.9 0.3
v -0.7 3.9 0.2
v -0.6 3.9 0.2
v 0.6 3.9 0.2
v 0.7 3.9 0.2
v -0.7 3.9 -0.4
v -0.6 3.9 -0.4
v 0.6 3.9 -0.4
v 0.7 3.9 -0.4
v -0.7 3.9 -0.5
v -0.6 3.9 -0.5
v 0.6 3.9 -0.5
v 0.7 3.9 -0.5
v -0.4 3.9 -0.7
v -0.3 3.9 -0.7
v 0.3 3.9 -0.7
v 0.4 3.9 -0.7
v -0.4 3.9 -0.8
v -0.3 3.9 -0.8
v 0.3 3.9 -0.8
v 0.4 3.9 -0.8
v -0.1 4 0.7
v 0.1 4 0.7
v -0.1 4 0.5
v 0.1 4 0.5
v -0.5 4.5 0.7
v 0.5 4.5 0.7
v -0.5 4.5 0.6
v -0.4 4.5 0.6
v 0.4 4.5 0.6
v 0.5 4.5 0.6
v -0.4 4.5 0.5
v -0.2 4.5 0.5
v 0.2 4.5 0.5
v 0.4 4.5 0.5
v -0.7 4.7 0.2
v -0.5 4.7 0.2
v 0.5 4.7 0.2
v 0.7 4.7 0.2
v -0.8 4.7 0.1
v -0.7 4.7 0.1
v -0.6 4.7 0.1
v -0.5 4.7 0.1
v 0.5 4.7 0.1
v 0.6 4.7 0.1
v 0.7 4.7 0.1
v 0.8 4.7 0.1
v -0.8 4.7 -0.2
v -0.7 4.7 -0.2
v -0.6 4.7 -0.2
v -0.5 4.7 -0.2
v 0.5 4.7 -0.2
v 0.6 4.7 -0.2
v 0.7 4.7 -0.2
v 0.8 4.7 -0.2
v -0.7 4.7 -0.3
v -0.5 4.7 -0.3
v 0.5 4.7 -0.3
v 0.7 4.7 -0.3
v -0.7 4.9 0.3
v -0.4 4.9 0.3
v 0.4 4.9 0.3
v 0.7 4.9 0.3
v -0.8 4.9 0.2
v -0.7 4.9 0.2
v -0.4 4.9 0.2
v -0.3 4.9 0.2
v 0.3 4.9 0.2
v 0.4 4.9 0.2
v 0.7 4.9 0.2
v 0.8 4.9 0.2
v -0.8 4.9 0.1
v -0.7 4.9 0.1
v -0.4 4.9 0.1
v -0.3 4.9 0.1
v 0.3 4.9 0.1
v 0.4 4.9 0.1
v 0.7 4.9 0.1
v 0.8 4.9 0.1
v -0.4 3.7 0.6
v -0.3 3.7 0.6
v 0.3 3.7 0.6
v 0.4 3.7 0.6
v -0.4 3.7 0.5
v -0.3 3.7 0.5
v 0.3 3.7 0.5
v 0.4 3.7 0.5
v -0.6 3.8 -0.5
v -0.5 3.8 -0.5
v 0.5 3.8 -0.5
v 0.6 3.8 -0.5
v -0.6 3.8 -0.6
v -0.5 3.8 -0.6
v 0.5 3.8 -0.6
v 0.6 3.8 -0.6
v -0.1 4.1 0.7
v 0.1 4.1 0.7
v -0.1 4.1 0.6
v 0.1 4.1 0.6
v -0.1 4.2 0.6
v 0.1 4.2 0.6
v -0.1 4.2 0.5
v 0.1 4.2 0.5
v -0.4 4.4 -0.7
v -0.3 4.4 -0.7
v 0.3 4.4 -0.7
v 0.4 4.4 -0.7
v -0.4 4.4 -0.8
v -0.3 4.4 -0.8
v 0.3 4.4 -0.8
v 0.4 4.4 -0.8
v -0.6 4.5 0.5
v -0.5 4.5 0.5
v 0.5 4.5 0.5
v 0.6 4.5 0.5
v -0.6 4.5 0.4
v -0.5 4.5 0.4
v 0.5 4.5 0.4
v 0.6 4.5 0.4
v -0.7 4.5 0.3
v -0.6 4.5 0.3
v 0.6 4.5 0.3
v 0.7 4.5 0.3
v -0.7 4.5 0.2
v -0.6 4.5 0.2
v 0.6 4.5 0.2
v 0.7 4.5 0.2
v -0.7 4.5 -0.4
v -0.6 4.5 -0.4
v 0.6 4.5 -0.4
v 0.7 4.5 -0.4
v -0.7 4.5 -0.5
v -0.6 4.5 -0.5
v 0.6 4.5 -0.5
v 0.7 4.5 -0.5
v -0.5 4.5 -0.6
v -0.4 4.5 -0.6
v 0.4 4.5 -0.6
v 0.5 4.5 -0.6
v -0.5 4.5 -0.7
v -0.4 4.5 -0.7
v -0.3 4.5 -0.7
v 0.3 4.5 -0.7
v 0.4 4.5 -0.7
v 0.5 4.5 -0.7
v -0.3 4.5 -0.8
v 0.3 4.5 -0.8
v -0.5 4.6 0.7
v 0.5 4.6 0.7
v -0.3 4.6 0.6
v -0.2 4.6 0.6
v -0.1 4.6 0.6
v 0.1 4.6 0.6
v 0.2 4.6 0.6
v 0.3 4.6 0.6
v -0.6 4.6 0.4
v -0.5 4.6 0.4
v -0.3 4.6 0.4
v 0.3 4.6 0.4
v 0.5 4.6 0.4
v 0.6 4.6 0.4
v -0.7 4.6 0.2
v -0.6 4.6 0.2
v 0.6 4.6 0.2
v 0.7 4.6 0.2
v -0.6 4.6 0.1
v -0.5 4.6 0.1
v 0.5 4.6 0.1
v 0.6 4.6 0.1
v -0.6 4.6 -0.2
v -0.5 4.6 -0.2
v 0.5 4.6 -0.2
v 0.6 4.6 -0.2
v -0.7 4.6 -0.4
v -0.6 4.6 -0.4
v -0.5 4.6 -0.4
v -0.4 4.6 -0.4
v 0.4 4.6 -0.4
v 0.5 4.6 -0.4
v 0.6 4.6 -0.4
v 0.7 4.6 -0.4
v -0.6 4.6 -0.5
v -0.5 4.6 -0.5
v -0.4 4.6 -0.5
v 0.4 4.6 -0.5
v 0.5 4.6 -0.5
v 0.6 4.6 -0.5
v -0.5 4.6 -0.6
v -0.4 4.6 -0.6
v 0.4 4.6 -0.6
v 0.5 4.6 -0.6
v -0.4 4.6 -0.7
v 0.4 4.6 -0.7
v -0.3 4.7 0.6
v -0.2 4.7 0.6
v -0.1 4.7 0.6
v 0.1 4.7 0.6
v 0.2 4.7 0.6
v 0.3 4.7 0.6
v -0.2 4.7 0.5
v -0.1 4.7 0.5
v 0.1 4.7 0.5
v 0.2 4.7 0.5
v -0.5 4.7 0.4
v -0.3 4.7 0.4
v -0.2 4.7 0.4
v 0.2 4.7 0.4
v 0.3 4.7 0.4
v 0.5 4.7 0.4
v -0.4 4.7 0.3
v -0.3 4.7 0.3
v 0.3 4.7 0.3
v 0.4 4.7 0.3
v -0.5 4.7 0.2
v -0.4 4.7 0.2
v 0.4 4.7 0.2
v 0.5 4.7 0.2
v -0.5 4.7 -0.3
v -0.3 4.7 -0.3
v 0.3 4.7 -0.3
v 0.5 4.7 -0.3
v -0.5 4.7 -0.4
v -0.4 4.7 -0.4
v -0.3 4.7 -0.4
v 0.3 4.7 -0.4
v 0.4 4.7 -0.4
v 0.5 4.7 -0.4
v -0.4 4.7 -0.5
v 0.4 4.7 -0.5
v -0.2 4.8 0.5
v 0.2 4.8 0.5
v -0.3 4.8 0.4
v -0.2 4.8 0.4
v -0.1 4.8 0.4
v 0.1 4.8 0.4
v 0.2 4.8 0.4
v 0.3 4.8 0.4
v -0.4 4.8 0.3
v -0.3 4.8 0.3
v -0.2 4.8 0.3
v -0.1 4.8 0.3
v 0.1 4.8 0.3
v 0.2 4.8 0.3
v 0.3 4.8 0.3
v 0.4 4.8 0.3
v -0.4 4.8 0.2
v -0.3 4.8 0.2
v -0.2 4.8 0.2
v 0.2 4.8 0.2
v 0.3 4.8 0.2
v 0.4 4.8 0.2
v -0.4 4.8 0.1
v -0.3 4.8 0.1
v 0.3 4.8 0.1
v 0.4 4.8 0.1
v -0.4 4.8 -0.2
v -0.2 4.8 -0.2
v 0.2 4.8 -0.2
v 0.4 4.8 -0.2
v -0.4 4.8 -0.3
v -0.3 4.8 -0.3
v -0.2 4.8 -0.3
v 0.2 4.8 -0.3
v 0.3 4.8 -0.3
v 0.4 4.8 -0.3
v -0.3 4.8 -0.4
v 0.3 4.8 -0.4
v -0.1 4.9 0.4
v 0.1 4.9 0.4
v -0.2 4.9 0.3
v -0.1 4.9 0.3
v 0.1 4.9 0.3
v 0.2 4.9 0.3
v -0.3 4.9 0.2
v -0.2 4.9 0.2
v 0.2 4.9 0.2
v 0.3 4.9 0.2
v -0.8 4.9 -0.1
v -0.7 4.9 -0.1
v -0.4 4.9 -0.1
v -0.3 4.9 -0.1
v 0.3 4.9 -0.1
v 0.4 4.9 -0.1
v 0.7 4.9 -0.1
v 0.8 4.9 -0.1
v -0.8 4.9 -0.2
v -0.7 4.9 -0.2
v -0.4 4.9 -0.2
v -0.2 4.9 -0.2
v 0.2 4.9 -0.2
v 0.4 4.9 -0.2
v 0.7 4.9 -0.2
v 0.8 4.9 -0.2
v -0.7 4.9 -0.3
v -0.4 4.9 -0.3
v -0.2 4.9 -0.3
v 0.2 4.9 -0.3
v 0.4 4.9 -0.3
v 0.7 4.9 -0.3
v -0.7 5.2 0.3
v -0.4 5.2 0.3
v 0.4 5.2 0.3
v 0.7 5.2 0.3
v -0.8 5.2 0.2
v -0.7 5.2 0.2
v -0.4 5.2 0.2
v -0.3 5.2 0.2
v 0.3 5.2 0.2
v 0.4 5.2 0.2
v 0.7 5.2 0.2
v 0.8 5.2 0.2
v -0.8 5.2 -0.1
v -0.7 5.2 -0.1
v -0.4 5.2 -0.1
v -0.3 5.2 -0.1
v 0.3 5.2 -0.1
v 0.4 5.2 -0.1
v 0.7 5.2 -0.1
v 0.8 5.2 -0.1
v -0.7 5.2 -0.2
v -0.4 5.2 -0.2
v 0.4 5.2 -0.2
v 0.7 5.2 -0.2
v -0.7 5.3 0.2
v -0.4 5.3 0.2
v 0.4 5.3 0.2
v 0.7 5.3 0.2
v -0.7 5.3 -0.1
v -0.4 5.3 -0.1
v 0.4 5.3 -0.1
v 0.7 5.3 -0.1

# faces
f 4/4/1 2/4/1 1/4/1
f 5/4/1 2/4/1 4/4/1
f 6/4/1 2/4/1 5/4/1
f 7/4/1 4/4/1 3/4/1
f 7/4/1 5/4/1 4/4/1
f 8/4/1 5/4/1 7/4/1
f 12/4/1 10/4/1 9/4/1
f 13/4/1 10/4/1 12/4/1
f 15/4/1 12/4/1 11/4/1
f 15/4/1 14/4/1 13/4/1
f 15/4/1 13/4/1 12/4/1
f 16/4/1 14/4/1 15/4/1
f 17/4/1 14/4/1 16/4/1
f 18/4/1 14/4/1 17/4/1
f 19/4/1 17/4/1 16/4/1
f 20/4/1 17/4/1 19/4/1
f 26/4/1 22/4/1 21/4/1
f 27/4/1 22/4/1 26/4/1
f 29/4/1 24/4/1 23/4/1
f 30/4/1 24/4/1 29/4/1
f 31/7/1 26/7/1 25/7/1
f 32/7/1 26/7/1 31/7/1
f 33/4/1 29/4/1 28/4/1
f 34/4/1 29/4/1 33/4/1
f 35/4/1 33/4/1 32/4/1
f 36/4/1 33/4/1 35/4/1
f 40/4/1 38/4/1 37/4/1
f 41/4/1 38/4/1 40/4/1
f 44/4/1 40/4/1 39/4/1
f 44/4/1 42/4/1 41/4/1
f 44/4/1 41/4/1 40/4/1
f 45/4/1 42/4/1 44/4/1
f 47/4/1 44/4/1 43/4/1
f 47/4/1 46/4/1 45/4/1
f 47/4/1 45/4/1 44/4/1
f 48/4/1 46/4/1 47/4/1
f 49/4/1 46/4/1 48/4/1
f 50/4/1 46/4/1 49/4/1
f 51/4/1 47/4/1 43/4/1
f 52/4/1 47/4/1 51/4/1
f 53/4/1 49/4/1 48/4/1
f 54/4/1 49/4/1 53/4/1
f 55/4/1 51/4/1 43/4/1
f 56/4/1 51/4/1 55/4/1
f 57/4/1 51/4/1 56/4/1
f 61/4/1 57/4/1 56/4/1
f 61/4/1 58/4/1 57/4/1
f 62/4/1 58/4/1 61/4/1
f 65/4/1 60/4/1 59/4/1
f 66/4/1 60/4/1 65/4/1
f 67/4/1 64/4/1 63/4/1
f 68/4/1 64/4/1 67/4/1
f 72/4/1 70/4/1 69/4/1
f 73/4/1 70/4/1 72/4/1
f 75/4/1 72/4/1 71/4/1
f 76/4/1 72/4/1 75/4/1
f 77/4/1 70/4/1 73/4/1
f 78/4/1 70/4/1 77/4/1
f 81/4/1 75/4/1 74/4/1
f 82/4/1 75/4/1 81/4/1
f 83/4/1 79/4/1 78/4/1
f 84/4/1 79/4/1 83/4/1
f 89/4/1 81/4/1 80/4/1
f 90/4/1 81/4/1 89/4/1
f 92/4/1 86/4/1 85/4/1
f 92/4/1 87/4/1 86/4/1
f 93/4/1 87/4/1 92/4/1
f 94/4/1 91/4/1 90/4/1
f 94/4/1 90/4/1 89/4/1
f 94/4/1 89/4/1 88/4/1
f 95/4/1 91/4/1 94/4/1
f 99/4/1 92/4/1 85/4/1
f 100/4/1 92/4/1 99/4/1
f 101/4/1 96/4/1 95/4/1
f 102/4/1 96/4/1 101/4/1
f 103/4/1 96/4/1 102/4/1
f 104/4/1 98/4/1 97/4/1
f 105/4/1 98/4/1 104/4/1
f 106/4/1 98/4/1 105/4/1
f 109/4/1 108/4/1 107/4/1
f 110/4/1 108/4/1 109/4/1
f 113/4/1 109/4/1 107/4/1
f 114/4/1 109/4/1 113/4/1
f 118/4/1 112/4/1 111/4/1
f 119/4/1 112/4/1 118/4/1
f 120/4/1 116/4/1 115/4/1
f 121/4/1 116/4/1 120/4/1
f 122/4/1 118/4/1 117/4/1
f 123/4/1 118/4/1 122/4/1
f 126/4/1 125/4/1 124/4/1
f 127/4/1 125/4/1 126/4/1
f 130/4/1 129/4/1 128/4/1
f 131/4/1 129/4/1 130/4/1
f 136/4/1 133/4/1 132/4/1
f 137/4/1 133/4/1 136/4/1
f 140/4/1 135/4/1 134/4/1
f 141/4/1 135/4/1 140/4/1
f 142/4/1 139/4/1 138/4/1
f 143/4/1 139/4/1 142/4/1
f 148/4/1 145/4/1 144/4/1
f 149/4/1 145/4/1 148/4/1
f 150/4/1 147/4/1 146/4/1
f 151/4/1 147/4/1 150/4/1
f 154/4/1 153/4/1 152/4/1
f 155/4/1 153/4/1 154/4/1
f 158/4/1 157/4/1 156/4/1
f 159/4/1 157/4/1 158/4/1
f 162/4/1 161/4/1 160/4/1
f 163/4/1 161/4/1 162/4/1
f 167/4/1 164/4/1 163/4/1
f 168/4/1 164/4/1 167/4/1
f 171/4/1 166/4/1 165/4/1
f 172/4/1 166/4/1 171/4/1
f 173/4/1 170/4/1 169/4/1
f 174/4/1 170/4/1 173/4/1
f 177/4/1 176/4/1 175/4/1
f 178/4/1 176/4/1 177/4/1
f 183/4/1 180/4/1 179/4/1
f 184/4/1 180/4/1 183/4/1
f 185/4/1 182/4/1 181/4/1
f 186/4/1 182/4/1 185/4/1
f 189/1/1 188/1/1 187/1/1
f 190/1/1 188/1/1 189/1/1
f 191/1/1 188/1/1 190/1/1
f 192/1/1 191/1/1 190/1/1
f 193/1/1 191/1/1 192/1/1
f 196/4/1 195/4/1 194/4/1
f 197/4/1 195/4/1 196/4/1
f 200/4/1 199/4/1 198/4/1
f 201/4/1 199/4/1 200/4/1
f 204/4/1 203/4/1 202/4/1
f 205/4/1 203/4/1 204/4/1
f 208/4/1 207/4/1 206/4/1
f 209/4/1 208/4/1 206/4/1
f 210/4/1 209/4/1 206/4/1
f 211/4/1 209/4/1 210/4/1
f 217/4/1 213/4/1 212/4/1
f 218/4/1 213/4/1 217/4/1
f 220/4/1 215/4/1 214/4/1
f 221/4/1 215/4/1 220/4/1
f 222/7/1 217/7/1 216/7/1
f 223/7/1 217/7/1 222/7/1
f 224/4/1 220/4/1 219/4/1
f 225/4/1 220/4/1 224/4/1
f 226/4/1 224/4/1 223/4/1
f 227/4/1 224/4/1 226/4/1
f 228/4/2 229/4/2 230/4/2
f 228/4/2 230/4/2 231/4/2
f 228/4/2 231/4/2 232/4/2
f 232/4/2 231/4/2 233/4/2
f 234/4/2 235/4/2 239/4/2
f 239/4/2 235/4/2 240/4/2
f 236/4/2 237/4/2 242/4/2
f 242/4/2 237/4/2 243/4/2
f 238/7/2 239/7/2 244/7/2
f 244/7/2 239/7/2 245/7/2
f 241/4/2 242/4/2 246/4/2
f 246/4/2 242/4/2 247/4/2
f 245/4/2 246/4/2 248/4/2
f 248/4/2 246/4/2 249/4/2
f 250/4/2 251/4/2 252/4/2
f 252/4/2 251/4/2 253/4/2
f 254/4/2 255/4/2 256/4/2
f 256/4/2 255/4/2 257/4/2
f 258/1/2 259/1/2 260/1/2
f 260/1/2 259/1/2 261/1/2
f 261/1/2 259/1/2 262/1/2
f 261/1/2 262/1/2 263/1/2
f 263/1/2 262/1/2 264/1/2
f 265/4/2 266/4/2 267/4/2
f 267/4/2 266/4/2 268/4/2
f 269/4/2 270/4/2 271/4/2
f 271/4/2 270/4/2 272/4/2
f 273/4/2 274/4/2 277/4/2
f 277/4/2 274/4/2 278/4/2
f 275/4/2 276/4/2 279/4/2
f 279/4/2 276/4/2 280/4/2
f 281/4/2 282/4/2 285/4/2
f 285/4/2 282/4/2 286/4/2
f 283/4/2 284/4/2 287/4/2
f 287/4/2 284/4/2 288/4/2
f 289/4/2 290/4/2 291/4/2
f 291/4/2 290/4/2 292/4/2
f 293/4/2 294/4/2 295/4/2
f 295/4/2 294/4/2 296/4/2
f 297/4/2 298/4/2 299/4/2
f 299/4/2 298/4/2 300/4/2
f 300/4/2 301/4/2 304/4/2
f 304/4/2 301/4/2 305/4/2
f 302/4/2 303/4/2 308/4/2
f 308/4/2 303/4/2 309/4/2
f 306/4/2 307/4/2 310/4/2
f 310/4/2 307/4/2 311/4/2
f 312/4/2 313/4/2 314/4/2
f 314/4/2 313/4/2 315/4/2
f 312/4/2 314/4/2 318/4/2
f 318/4/2 314/4/2 319/4/2
f 316/4/2 317/4/2 323/4/2
f 323/4/2 317/4/2 324/4/2
f 320/4/2 321/4/2 325/4/2
f 325/4/2 321/4/2 326/4/2
f 322/4/2 323/4/2 327/4/2
f 327/4/2 323/4/2 328/4/2
f 329/4/2 330/4/2 331/4/2
f 331/4/2 330/4/2 332/4/2
f 333/4/2 334/4/2 335/4/2
f 335/4/2 334/4/2 336/4/2
f 337/4/2 338/4/2 341/4/2
f 341/4/2 338/4/2 342/4/2
f 339/4/2 340/4/2 345/4/2
f 345/4/2 340/4/2 346/4/2
f 343/4/2 344/4/2 347/4/2
f 347/4/2 344/4/2 348/4/2
f 349/4/2 350/4/2 352/4/2
f 352/4/2 350/4/2 353/4/2
f 351/4/2 352/4/2 355/4/2
f 355/4/2 352/4/2 356/4/2
f 353/4/2 350/4/2 357/4/2
f 357/4/2 350/4/2 358/4/2
f 354/4/2 355/4/2 361/4/2
f 361/4/2 355/4/2 362/4/2
f 358/4/2 359/4/2 363/4/2
f 363/4/2 359/4/2 364/4/2
f 360/4/2 361/4/2 369/4/2
f 369/4/2 361/4/2 370/4/2
f 365/4/2 366/4/2 372/4/2
f 366/4/2 367/4/2 372/4/2
f 372/4/2 367/4/2 373/4/2
f 370/4/2 371/4/2 374/4/2
f 369/4/2 370/4/2 374/4/2
f 368/4/2 369/4/2 374/4/2
f 374/4/2 371/4/2 375/4/2
f 365/4/2 372/4/2 379/4/2
f 379/4/2 372/4/2 380/4/2
f 375/4/2 376/4/2 381/4/2
f 381/4/2 376/4/2 382/4/2
f 382/4/2 376/4/2 383/4/2
f 377/4/2 378/4/2 384/4/2
f 384/4/2 378/4/2 385/4/2
f 385/4/2 378/4/2 386/4/2
f 387/4/2 388/4/2 390/4/2
f 390/4/2 388/4/2 391/4/2
f 389/4/2 390/4/2 394/4/2
f 391/4/2 392/4/2 394/4/2
f 390/4/2 391/4/2 394/4/2
f 394/4/2 392/4/2 395/4/2
f 393/4/2 394/4/2 397/4/2
f 395/4/2 396/4/2 397/4/2
f 394/4/2 395/4/2 397/4/2
f 397/4/2 396/4/2 398/4/2
f 398/4/2 396/4/2 399/4/2
f 399/4/2 396/4/2 400/4/2
f 393/4/2 397/4/2 401/4/2
f 401/4/2 397/4/2 402/4/2
f 398/4/2 399/4/2 403/4/2
f 403/4/2 399/4/2 404/4/2
f 393/4/2 401/4/2 405/4/2
f 405/4/2 401/4/2 406/4/2
f 406/4/2 401/4/2 407/4/2
f 406/4/2 407/4/2 411/4/2
f 407/4/2 408/4/2 411/4/2
f 411/4/2 408/4/2 412/4/2
f 409/4/2 410/4/2 415/4/2
f 415/4/2 410/4/2 416/4/2
f 413/4/2 414/4/2 417/4/2
f 417/4/2 414/4/2 418/4/2
f 419/4/2 420/4/2 422/4/2
f 422/4/2 420/4/2 423/4/2
f 421/4/2 422/4/2 425/4/2
f 423/4/2 424/4/2 425/4/2
f 422/4/2 423/4/2 425/4/2
f 425/4/2 424/4/2 426/4/2
f 426/4/2 424/4/2 427/4/2
f 427/4/2 424/4/2 428/4/2
f 426/4/2 427/4/2 429/4/2
f 429/4/2 427/4/2 430/4/2
f 431/4/2 432/4/2 436/4/2
f 436/4/2 432/4/2 437/4/2
f 433/4/2 434/4/2 439/4/2
f 439/4/2 434/4/2 440/4/2
f 435/7/2 436/7/2 441/7/2
f 441/7/2 436/7/2 442/7/2
f 438/4/2 439/4/2 443/4/2
f 443/4/2 439/4/2 444/4/2
f 442/4/2 443/4/2 445/4/2
f 445/4/2 443/4/2 446/4/2
f 447/4/2 448/4/2 450/4/2
f 450/4/2 448/4/2 451/4/2
f 451/4/2 448/4/2 452/4/2
f 449/4/2 450/4/2 453/4/2
f 450/4/2 451/4/2 453/4/2
f 453/4/2 451/4/2 454/4/2
f 459/1/3 458/1/3 457/1/3
f 460/1/3 458/1/3 459/1/3
f 461/4/3 456/4/3 455/4/3
f 462/4/3 456/4/3 461/4/3
f 466/4/3 464/4/3 463/4/3
f 467/4/3 464/4/3 466/4/3
f 468/4/3 466/4/3 465/4/3
f 469/4/3 466/4/3 468/4/3
f 472/4/3 471/4/3 470/4/3
f 473/4/3 471/4/3 472/4/3
f 476/5/3 473/5/3 472/5/3
f 477/5/3 473/5/3 476/5/3
f 478/1/3 475/1/3 474/1/3
f 479/1/3 475/1/3 478/1/3
f 480/4/3 477/4/3 476/4/3
f 481/4/3 477/4/3 480/4/3
f 482/5/3 481/5/3 480/5/3
f 483/5/3 481/5/3 482/5/3
f 486/4/3 483/4/3 482/4/3
f 487/4/3 483/4/3 486/4/3
f 488/4/3 485/4/3 484/4/3
f 489/4/3 485/4/3 488/4/3
f 491/4/3 490/4/3 489/4/3
f 492/4/3 490/4/3 491/4/3
f 496/4/3 494/4/3 493/4/3
f 497/4/3 494/4/3 496/4/3
f 499/4/3 496/4/3 495/4/3
f 500/4/3 496/4/3 499/4/3
f 504/4/3 499/4/3 498/4/3
f 505/2/3 501/2/3 500/2/3
f 506/1/3 502/1/3 501/1/3
f 506/2/3 501/2/3 505/2/3
f 507/1/3 502/1/3 506/1/3
f 508/1/3 502/1/3 507/1/3
f 509/2/3 503/2/3 502/2/3
f 509/1/3 502/1/3 508/1/3
f 510/1/3 506/1/3 505/1/3
f 510/2/3 507/2/3 506/2/3
f 511/1/3 508/1/3 507/1/3
f 511/2/3 507/2/3 510/2/3
f 512/1/3 508/1/3 511/1/3
f 513/7/3 509/7/3 508/7/3
f 514/7/3 509/7/3 513/7/3
f 515/2/3 503/2/3 509/2/3
f 515/7/3 509/7/3 514/7/3
f 516/2/3 503/2/3 515/2/3
f 519/1/3 510/1/3 505/1/3
f 519/3/3 511/3/3 510/3/3
f 520/2/3 512/2/3 511/2/3
f 520/3/3 511/3/3 519/3/3
f 521/1/3 508/1/3 512/1/3
f 521/2/3 512/2/3 520/2/3
f 522/7/3 513/7/3 508/7/3
f 522/1/3 508/1/3 521/1/3
f 523/6/3 514/6/3 513/6/3
f 523/7/3 513/7/3 522/7/3
f 524/2/3 515/2/3 514/2/3
f 524/6/3 514/6/3 523/6/3
f 525/1/3 516/1/3 515/1/3
f 525/2/3 515/2/3 524/2/3
f 526/4/3 518/4/3 517/4/3
f 527/2/3 521/2/3 520/2/3
f 529/1/3 524/1/3 523/1/3
f 529/1/3 525/1/3 524/1/3
f 530/1/3 525/1/3 529/1/3
f 531/1/3 516/1/3 525/1/3
f 531/1/3 525/1/3 530/1/3
f 532/4/3 518/4/3 526/4/3
f 533/7/3 520/7/3 519/7/3
f 533/1/3 519/1/3 505/1/3
f 534/2/3 527/2/3 520/2/3
f 534/7/3 520/7/3 533/7/3
f 535/1/3 528/1/3 527/1/3
f 535/2/3 527/2/3 534/2/3
f 536/6/3 530/6/3 529/6/3
f 536/7/3 529/7/3 528/7/3
f 537/2/3 531/2/3 530/2/3
f 537/6/3 530/6/3 536/6/3
f 538/1/3 516/1/3 531/1/3
f 538/2/3 531/2/3 537/2/3
f 539/1/3 516/1/3 538/1/3
f 540/4/3 518/4/3 532/4/3
f 541/4/3 518/4/3 540/4/3
f 542/2/3 505/2/3 504/2/3
f 542/4/3 504/4/3 498/4/3
f 543/1/3 533/1/3 505/1/3
f 543/2/3 505/2/3 542/2/3
f 544/2/3 534/2/3 533/2/3
f 544/1/3 533/1/3 543/1/3
f 545/1/3 535/1/3 534/1/3
f 545/2/3 534/2/3 544/2/3
f 546/1/3 528/1/3 535/1/3
f 546/1/3 535/1/3 545/1/3
f 546/7/3 537/7/3 536/7/3
f 546/7/3 538/7/3 537/7/3
f 546/7/3 536/7/3 528/7/3
f 547/2/3 539/2/3 538/2/3
f 547/7/3 538/7/3 546/7/3
f 548/4/3 542/4/3 498/4/3
f 549/4/3 542/4/3 548/4/3
f 550/2/3 544/2/3 543/2/3
f 551/1/3 545/1/3 544/1/3
f 551/1/3 546/1/3 545/1/3
f 551/2/3 544/2/3 550/2/3
f 551/1/3 547/1/3 546/1/3
f 552/2/3 539/2/3 547/2/3
f 552/1/3 547/1/3 551/1/3
f 553/2/3 539/2/3 552/2/3
f 554/4/3 550/4/3 549/4/3
f 555/4/3 550/4/3 554/4/3
f 557/4/3 556/4/3 555/4/3
f 558/4/3 556/4/3 557/4/3
f 564/4/3 560/4/3 559/4/3
f 565/4/3 560/4/3 564/4/3
f 566/4/3 562/4/3 561/4/3
f 567/4/3 562/4/3 566/4/3
f 569/4/3 564/4/3 563/4/3
f 570/4/3 564/4/3 569/4/3
f 573/4/3 568/4/3 567/4/3
f 574/4/3 568/4/3 573/4/3
f 576/4/3 575/4/3 574/4/3
f 577/4/3 575/4/3 576/4/3
f 580/4/3 579/4/3 578/4/3
f 581/4/3 579/4/3 580/4/3
f 584/4/3 572/4/3 571/4/3
f 585/4/3 572/4/3 584/4/3
f 587/4/3 583/4/3 582/4/3
f 588/4/3 583/4/3 587/4/3
f 591/4/3 590/4/3 589/4/3
f 592/4/3 590/4/3 591/4/3
f 595/4/3 587/4/3 586/4/3
f 596/4/3 587/4/3 595/4/3
f 597/4/3 593/4/3 592/4/3
f 598/4/3 593/4/3 597/4/3
f 599/4/3 595/4/3 594/4/3
f 600/4/3 595/4/3 599/4/3
f 605/4/3 602/4/3 601/4/3
f 606/4/3 602/4/3 605/4/3
f 607/7/3 604/7/3 603/7/3
f 608/7/3 604/7/3 607/7/3
f 609/7/3 607/7/3 603/7/3
f 609/8/3 608/8/3 607/8/3
f 610/7/3 604/7/3 608/7/3
f 610/8/3 608/8/3 609/8/3
f 615/7/3 609/7/3 603/7/3
f 615/7/3 610/7/3 609/7/3
f 616/7/3 604/7/3 610/7/3
f 616/7/3 610/7/3 615/7/3
f 617/4/3 612/4/3 611/4/3
f 618/4/3 612/4/3 617/4/3
f 619/4/3 614/4/3 613/4/3
f 620/4/3 614/4/3 619/4/3
f 623/4/3 622/4/3 621/4/3
f 624/4/3 622/4/3 623/4/3
f 627/4/3 626/4/3 625/4/3
f 628/4/3 626/4/3 627/4/3
f 629/4/3 617/4/3 611/4/3
f 633/4/3 629/4/3 611/4/3
f 633/4/3 630/4/3 629/4/3
f 634/4/3 630/4/3 633/4/3
f 635/4/3 632/4/3 631/4/3
f 636/4/3 632/4/3 635/4/3
f 639/7/3 638/7/3 637/7/3
f 640/7/3 638/7/3 639/7/3
f 643/7/3 639/7/3 637/7/3
f 643/8/3 640/8/3 639/8/3
f 644/7/3 638/7/3 640/7/3
f 644/8/3 640/8/3 643/8/3
f 645/4/3 642/4/3 641/4/3
f 646/4/3 642/4/3 645/4/3
f 647/7/3 643/7/3 637/7/3
f 647/7/3 644/7/3 643/7/3
f 648/7/3 638/7/3 644/7/3
f 648/7/3 644/7/3 647/7/3
f 656/4/3 650/4/3 649/4/3
f 657/4/3 650/4/3 656/4/3
f 659/4/3 652/4/3 651/4/3
f 660/4/3 652/4/3 659/4/3
f 661/4/3 654/4/3 653/4/3
f 662/4/3 654/4/3 661/4/3
f 663/4/3 656/4/3 655/4/3
f 664/4/3 656/4/3 663/4/3
f 665/4/3 656/4/3 664/4/3
f 666/4/3 656/4/3 665/4/3
f 667/4/3 658/4/3 657/4/3
f 668/4/3 658/4/3 667/4/3
f 670/4/3 667/4/3 666/4/3
f 671/4/3 667/4/3 670/4/3
f 672/4/3 670/4/3 669/4/3
f 673/4/3 670/4/3 672/4/3
f 676/4/3 675/4/3 674/4/3
f 677/4/3 675/4/3 676/4/3
f 681/4/3 678/4/3 677/4/3
f 682/4/3 678/4/3 681/4/3
f 684/4/3 680/4/3 679/4/3
f 684/4/3 681/4/3 680/4/3
f 689/4/3 686/4/3 685/4/3
f 690/4/3 686/4/3 689/4/3
f 691/4/3 688/4/3 687/4/3
f 692/4/3 688/4/3 691/4/3
f 693/4/3 681/4/3 684/4/3
f 694/4/3 681/4/3 693/4/3
f 695/4/3 683/4/3 682/4/3
f 696/4/3 683/4/3 695/4/3
f 697/4/3 695/4/3 694/4/3
f 698/4/3 695/4/3 697/4/3
f 701/4/3 700/4/3 699/4/3
f 702/4/3 700/4/3 701/4/3
f 708/4/3 704/4/3 703/4/3
f 709/4/3 704/4/3 708/4/3
f 710/4/3 706/4/3 705/4/3
f 711/4/3 706/4/3 710/4/3
f 712/4/3 708/4/3 707/4/3
f 713/4/3 708/4/3 712/4/3
f 716/4/3 715/4/3 714/4/3
f 717/4/3 715/4/3 716/4/3
f 722/4/3 719/4/3 718/4/3
f 723/4/3 719/4/3 722/4/3
f 724/4/3 721/4/3 720/4/3
f 725/4/3 721/4/3 724/4/3
f 729/4/3 726/4/3 725/4/3
f 730/4/3 726/4/3 729/4/3
f 731/4/3 728/4/3 727/4/3
f 732/4/3 728/4/3 731/4/3
f 735/4/3 734/4/3 733/4/3
f 736/4/3 734/4/3 735/4/3
f 737/4/4 738/4/4 739/4/4
f 739/4/4 738/4/4 740/4/4
f 740/4/4 741/4/4 743/4/4
f 743/4/4 741/4/4 744/4/4
f 742/4/4 743/4/4 745/4/4
f 745/4/4 743/4/4 746/4/4
f 747/4/4 748/4/4 749/4/4
f 749/4/4 748/4/4 750/4/4
f 750/4/4 751/4/4 753/4/4
f 753/4/4 751/4/4 754/4/4
f 752/4/4 753/4/4 755/4/4
f 755/4/4 753/4/4 756/4/4
f 757/4/4 758/4/4 759/4/4
f 759/4/4 758/4/4 760/4/4
f 762/4/4 763/4/4 764/4/4
f 764/4/4 763/4/4 765/4/4
f 760/4/4 761/4/4 767/4/4
f 767/4/4 761/4/4 768/4/4
f 766/4/4 767/4/4 769/4/4
f 769/4/4 767/4/4 770/4/4
f 771/4/4 772/4/4 773/4/4
f 773/4/4 772/4/4 774/4/4
f 776/4/4 777/4/4 778/4/4
f 778/4/4 777/4/4 779/4/4
f 774/4/4 775/4/4 781/4/4
f 781/4/4 775/4/4 782/4/4
f 780/4/4 781/4/4 783/4/4
f 783/4/4 781/4/4 784/4/4
f 785/4/4 786/4/4 787/4/4
f 787/4/4 786/4/4 788/4/4
f 788/4/4 786/4/4 789/4/4
f 787/4/4 788/4/4 790/4/4
f 790/4/4 788/4/4 791/4/4
f 792/4/4 793/4/4 794/4/4
f 794/4/4 793/4/4 795/4/4
f 796/4/4 797/4/4 798/4/4
f 796/4/4 798/4/4 800/4/4
f 798/4/4 799/4/4 800/4/4
f 800/4/4 799/4/4 801/4/4
f 801/4/4 799/4/4 802/4/4
f 803/4/4 804/4/4 809/4/4
f 809/4/4 804/4/4 810/4/4
f 805/4/4 806/4/4 811/4/4
f 811/4/4 806/4/4 812/4/4
f 807/4/4 808/4/4 813/4/4
f 813/4/4 808/4/4 814/4/4
f 815/4/4 816/4/4 819/4/4
f 819/4/4 816/4/4 820/4/4
f 817/4/4 818/4/4 821/4/4
f 821/4/4 818/4/4 822/4/4
f 823/4/4 824/4/4 827/4/4
f 827/4/4 824/4/4 828/4/4
f 825/4/4 826/4/4 829/4/4
f 829/4/4 826/4/4 830/4/4
f 831/4/4 832/4/4 835/4/4
f 835/4/4 832/4/4 836/4/4
f 833/4/4 834/4/4 837/4/4
f 837/4/4 834/4/4 838/4/4
f 839/4/4 840/4/4 843/4/4
f 843/4/4 840/4/4 844/4/4
f 841/4/4 842/4/4 845/4/4
f 845/4/4 842/4/4 846/4/4
f 847/4/4 848/4/4 852/4/4
f 852/4/4 848/4/4 853/4/4
f 849/4/4 850/4/4 856/4/4
f 856/4/4 850/4/4 857/4/4
f 853/4/4 854/4/4 858/4/4
f 851/4/4 852/4/4 858/4/4
f 852/4/4 853/4/4 858/4/4
f 858/4/4 854/4/4 859/4/4
f 855/4/4 856/4/4 860/4/4
f 860/4/4 856/4/4 861/4/4
f 855/4/4 860/4/4 865/4/4
f 864/4/4 865/4/4 866/4/4
f 865/4/4 860/4/4 867/4/4
f 866/4/4 865/4/4 867/4/4
f 867/4/4 860/4/4 868/4/4
f 862/4/4 863/4/4 870/4/4
f 870/4/4 863/4/4 871/4/4
f 868/4/4 869/4/4 872/4/4
f 867/4/4 868/4/4 872/4/4
f 872/4/4 869/4/4 873/4/4
f 873/4/4 874/4/4 877/4/4
f 877/4/4 874/4/4 878/4/4
f 875/4/4 876/4/4 879/4/4
f 879/4/4 876/4/4 880/4/4
f 880/4/4 876/4/4 881/4/4
f 881/4/4 876/4/4 882/4/4
f 880/4/4 881/4/4 883/4/4
f 883/4/4 881/4/4 884/4/4
f 885/4/4 886/4/4 888/4/4
f 888/4/4 886/4/4 889/4/4
f 887/4/4 888/4/4 893/4/4
f 888/4/4 889/4/4 893/4/4
f 893/4/4 889/4/4 894/4/4
f 894/4/4 889/4/4 895/4/4
f 890/4/4 891/4/4 896/4/4
f 896/4/4 891/4/4 897/4/4
f 892/4/4 893/4/4 898/4/4
f 893/4/4 894/4/4 898/4/4
f 898/4/4 894/4/4 899/4/4
f 899/4/4 894/4/4 900/4/4
f 899/4/4 900/4/4 904/4/4
f 900/4/4 901/4/4 904/4/4
f 904/4/4 901/4/4 905/4/4
f 905/4/4 901/4/4 906/4/4
f 902/4/4 903/4/4 907/4/4
f 907/4/4 903/4/4 908/4/4
f 905/4/4 906/4/4 909/4/4
f 909/4/4 906/4/4 910/4/4
f 911/4/4 912/4/4 914/4/4
f 914/4/4 912/4/4 915/4/4
f 915/4/4 912/4/4 916/4/4
f 916/4/4 912/4/4 917/4/4
f 913/4/4 914/4/4 919/4/4
f 914/4/4 915/4/4 919/4/4
f 919/4/4 915/4/4 920/4/4
f 917/4/4 918/4/4 921/4/4
f 916/4/4 917/4/4 921/4/4
f 921/4/4 918/4/4 922/4/4
f 913/4/4 919/4/4 923/4/4
f 922/4/4 918/4/4 926/4/4
f 923/4/4 924/4/4 927/4/4
f 913/4/4 923/4/4 927/4/4
f 927/4/4 924/4/4 928/4/4
f 928/4/4 924/4/4 929/4/4
f 925/4/4 926/4/4 930/4/4
f 926/4/4 918/4/4 931/4/4
f 930/4/4 926/4/4 931/4/4
f 931/4/4 918/4/4 932/4/4
f 928/4/4 929/4/4 933/4/4
f 929/4/4 930/4/4 933/4/4
f 930/4/4 931/4/4 933/4/4
f 933/4/4 931/4/4 934/4/4
f 935/4/4 936/4/4 938/4/4
f 938/4/4 936/4/4 939/4/4
f 937/4/4 938/4/4 941/4/4
f 939/4/4 940/4/4 941/4/4
f 938/4/4 939/4/4 941/4/4
f 941/4/4 940/4/4 942/4/4
f 942/4/4 940/4/4 943/4/4
f 943/4/4 940/4/4 944/4/4
f 942/4/4 943/4/4 945/4/4
f 945/4/4 943/4/4 946/4/4
f 949/4/5 948/4/5 947/4/5
f 950/4/5 948/4/5 949/4/5
f 951/4/5 948/4/5 950/4/5
f 952/4/5 948/4/5 951/4/5
f 953/4/5 951/4/5 950/4/5
f 954/4/5 951/4/5 953/4/5
f 957/4/5 956/4/5 955/4/5
f 958/4/5 956/4/5 957/4/5
f 963/4/5 960/4/5 959/4/5
f 966/4/5 962/4/5 961/4/5
f 967/4/5 964/4/5 963/4/5
f 967/4/5 963/4/5 959/4/5
f 968/4/5 964/4/5 967/4/5
f 969/4/5 966/4/5 965/4/5
f 970/4/5 962/4/5 966/4/5
f 970/4/5 966/4/5 969/4/5
f 974/4/5 972/4/5 971/4/5
f 975/4/5 972/4/5 974/4/5
f 976/4/5 972/4/5 975/4/5
f 977/4/5 972/4/5 976/4/5
f 979/4/5 974/4/5 973/4/5
f 979/4/5 975/4/5 974/4/5
f 980/4/5 975/4/5 979/4/5
f 981/4/5 978/4/5 977/4/5
f 981/4/5 977/4/5 976/4/5
f 982/4/5 978/4/5 981/4/5
f 984/4/5 979/4/5 973/4/5
f 985/4/5 979/4/5 984/4/5
f 986/4/5 978/4/5 982/4/5
f 987/4/5 978/4/5 986/4/5
f 989/4/5 984/4/5 983/4/5
f 990/4/5 984/4/5 989/4/5
f 991/4/5 988/4/5 987/4/5
f 992/4/5 988/4/5 991/4/5
f 995/4/5 994/4/5 993/4/5
f 996/4/5 994/4/5 995/4/5
f 1002/4/5 998/4/5 997/4/5
f 1003/4/5 998/4/5 1002/4/5
f 1004/4/5 1000/4/5 999/4/5
f 1005/4/5 1000/4/5 1004/4/5
f 1008/4/5 1002/4/5 1001/4/5
f 1009/4/5 1002/4/5 1008/4/5
f 1010/4/5 1006/4/5 1005/4/5
f 1011/4/5 1006/4/5 1010/4/5
f 1013/4/5 1008/4/5 1007/4/5
f 1014/4/5 1008/4/5 1013/4/5
f 1015/4/5 1012/4/5 1011/4/5
f 1016/4/5 1012/4/5 1015/4/5
f 1021/4/5 1018/4/5 1017/4/5
f 1022/4/5 1018/4/5 1021/4/5
f 1025/4/5 1020/4/5 1019/4/5
f 1026/4/5 1020/4/5 1025/4/5
f 1027/4/5 1023/4/5 1022/4/5
f 1028/4/5 1023/4/5 1027/4/5
f 1029/4/5 1025/4/5 1024/4/5
f 1030/4/5 1025/4/5 1029/4/5
f 1036/4/5 1032/4/5 1031/4/5
f 1037/4/5 1032/4/5 1036/4/5
f 1038/4/5 1034/4/5 1033/4/5
f 1039/4/5 1034/4/5 1038/4/5
f 1041/4/5 1036/4/5 1035/4/5
f 1042/4/5 1036/4/5 1041/4/5
f 1043/4/5 1040/4/5 1039/4/5
f 1044/4/5 1040/4/5 1043/4/5
f 1049/4/5 1046/4/5 1045/4/5
f 1050/4/5 1046/4/5 1049/4/5
f 1053/4/5 1048/4/5 1047/4/5
f 1054/4/5 1048/4/5 1053/4/5
f 1055/4/5 1052/4/5 1051/4/5
f 1056/4/5 1052/4/5 1055/4/5
f 1061/4/5 1058/4/5 1057/4/5
f 1062/4/5 1058/4/5 1061/4/5
f 1063/4/5 1060/4/5 1059/4/5
f 1064/4/5 1060/4/5 1063/4/5
f 1069/4/5 1066/4/5 1065/4/5
f 1070/4/5 1066/4/5 1069/4/5
f 1073/4/5 1068/4/5 1067/4/5
f 1074/4/5 1068/4/5 1073/4/5
f 1075/4/5 1072/4/5 1071/4/5
f 1076/4/5 1072/4/5 1075/4/5
f 1081/4/5 1078/4/5 1077/4/5
f 1082/4/5 1078/4/5 1081/4/5
f 1083/4/5 1080/4/5 1079/4/5
f 1084/4/5 1080/4/5 1083/4/5
f 1089/4/5 1086/4/5 1085/4/5
f 1090/4/5 1086/4/5 1089/4/5
f 1091/4/5 1088/4/5 1087/4/5
f 1092/4/5 1088/4/5 1091/4/5
f 1097/4/5 1094/4/5 1093/4/5
f 1098/4/5 1094/4/5 1097/4/5
f 1099/4/5 1096/4/5 1095/4/5
f 1100/4/5 1096/4/5 1099/4/5
f 1103/1/5 1102/1/5 1101/1/5
f 1104/1/5 1102/1/5 1103/1/5
f 1107/4/5 1106/4/5 1105/4/5
f 1108/4/5 1106/4/5 1107/4/5
f 1109/4/5 1106/4/5 1108/4/5
f 1110/4/5 1106/4/5 1109/4/5
f 1111/4/5 1109/4/5 1108/4/5
f 1112/4/5 1109/4/5 1111/4/5
f 1113/4/5 1109/4/5 1112/4/5
f 1114/4/5 1109/4/5 1113/4/5
f 1120/4/5 1116/4/5 1115/4/5
f 1121/4/5 1116/4/5 1120/4/5
f 1122/4/5 1116/4/5 1121/4/5
f 1123/4/5 1118/4/5 1117/4/5
f 1124/4/5 1118/4/5 1123/4/5
f 1125/4/5 1118/4/5 1124/4/5
f 1127/4/5 1120/4/5 1119/4/5
f 1127/4/5 1121/4/5 1120/4/5
f 1128/4/5 1121/4/5 1127/4/5
f 1129/4/5 1121/4/5 1128/4/5
f 1132/4/5 1126/4/5 1125/4/5
f 1132/4/5 1125/4/5 1124/4/5
f 1133/4/5 1126/4/5 1132/4/5
f 1134/4/5 1126/4/5 1133/4/5
f 1135/4/5 1130/4/5 1129/4/5
f 1135/4/5 1129/4/5 1128/4/5
f 1136/4/5 1130/4/5 1135/4/5
f 1137/4/5 1133/4/5 1132/4/5
f 1137/4/5 1132/4/5 1131/4/5
f 1138/4/5 1133/4/5 1137/4/5
f 1144/7/5 1140/7/5 1139/7/5
f 1145/7/5 1140/7/5 1144/7/5
f 1148/7/5 1142/7/5 1141/7/5
f 1149/7/5 1142/7/5 1148/7/5
f 1151/4/5 1144/4/5 1143/4/5
f 1152/4/5 1144/4/5 1151/4/5
f 1153/4/5 1146/4/5 1145/4/5
f 1154/4/5 1146/4/5 1153/4/5
f 1155/4/5 1148/4/5 1147/4/5
f 1156/4/5 1148/4/5 1155/4/5
f 1157/4/5 1150/4/5 1149/4/5
f 1158/4/5 1150/4/5 1157/4/5
f 1159/4/6 1160/4/6 1163/4/6
f 1163/4/6 1160/4/6 1164/4/6
f 1161/4/6 1162/4/6 1165/4/6
f 1165/4/6 1162/4/6 1166/4/6
f 1167/4/6 1168/4/6 1171/4/6
f 1171/4/6 1168/4/6 1172/4/6
f 1169/4/6 1170/4/6 1173/4/6
f 1173/4/6 1170/4/6 1174/4/6
f 1175/1/6 1176/1/6 1177/1/6
f 1177/1/6 1176/1/6 1178/1/6
f 1179/1/6 1180/1/6 1181/1/6
f 1181/1/6 1180/1/6 1182/1/6
f 1183/4/6 1184/4/6 1187/4/6
f 1187/4/6 1184/4/6 1188/4/6
f 1185/4/6 1186/4/6 1189/4/6
f 1189/4/6 1186/4/6 1190/4/6
f 1191/4/6 1192/4/6 1195/4/6
f 1195/4/6 1192/4/6 1196/4/6
f 1193/4/6 1194/4/6 1197/4/6
f 1197/4/6 1194/4/6 1198/4/6
f 1199/4/6 1200/4/6 1203/4/6
f 1203/4/6 1200/4/6 1204/4/6
f 1201/4/6 1202/4/6 1205/4/6
f 1205/4/6 1202/4/6 1206/4/6
f 1207/4/6 1208/4/6 1211/4/6
f 1211/4/6 1208/4/6 1212/4/6
f 1209/4/6 1210/4/6 1213/4/6
f 1213/4/6 1210/4/6 1214/4/6
f 1215/4/6 1216/4/6 1219/4/6
f 1219/4/6 1216/4/6 1220/4/6
f 1217/4/6 1218/4/6 1223/4/6
f 1223/4/6 1218/4/6 1224/4/6
f 1221/4/6 1222/4/6 1225/4/6
f 1225/4/6 1222/4/6 1226/4/6
f 1227/4/6 1228/4/6 1229/4/6
f 1229/4/6 1228/4/6 1230/4/6
f 1230/4/6 1228/4/6 1231/4/6
f 1231/4/6 1228/4/6 1232/4/6
f 1232/4/6 1228/4/6 1233/4/6
f 1233/4/6 1228/4/6 1234/4/6
f 1227/4/6 1229/4/6 1236/4/6
f 1236/4/6 1229/4/6 1237/4/6
f 1234/4/6 1228/4/6 1238/4/6
f 1238/4/6 1228/4/6 1239/4/6
f 1235/4/6 1236/4/6 1242/4/6
f 1239/4/6 1240/4/6 1243/4/6
f 1241/4/6 1242/4/6 1245/4/6
f 1242/4/6 1236/4/6 1245/4/6
f 1245/4/6 1236/4/6 1246/4/6
f 1243/4/6 1244/4/6 1247/4/6
f 1239/4/6 1243/4/6 1247/4/6
f 1247/4/6 1244/4/6 1248/4/6
f 1241/4/6 1245/4/6 1249/4/6
f 1248/4/6 1244/4/6 1252/4/6
f 1249/4/6 1250/4/6 1253/4/6
f 1241/4/6 1249/4/6 1253/4/6
f 1253/4/6 1250/4/6 1254/4/6
f 1254/4/6 1250/4/6 1255/4/6
f 1251/4/6 1252/4/6 1258/4/6
f 1252/4/6 1244/4/6 1259/4/6
f 1258/4/6 1252/4/6 1259/4/6
f 1259/4/6 1244/4/6 1260/4/6
f 1255/4/6 1256/4/6 1261/4/6
f 1254/4/6 1255/4/6 1261/4/6
f 1261/4/6 1256/4/6 1262/4/6
f 1262/4/6 1256/4/6 1263/4/6
f 1257/4/6 1258/4/6 1264/4/6
f 1258/4/6 1259/4/6 1264/4/6
f 1264/4/6 1259/4/6 1265/4/6
f 1265/4/6 1259/4/6 1266/4/6
f 1262/4/6 1263/4/6 1267/4/6
f 1264/4/6 1265/4/6 1267/4/6
f 1263/4/6 1264/4/6 1267/4/6
f 1267/4/6 1265/4/6 1268/4/6
f 1268/4/6 1265/4/6 1269/4/6
f 1269/4/6 1265/4/6 1270/4/6
f 1268/4/6 1269/4/6 1271/4/6
f 1271/4/6 1269/4/6 1272/4/6
f 1273/4/6 1274/4/6 1279/4/6
f 1274/5/6 1275/5/6 1279/5/6
f 1275/4/6 1276/4/6 1280/4/6
f 1279/5/6 1275/5/6 1280/5/6
f 1276/5/6 1277/5/6 1281/5/6
f 1280/4/6 1276/4/6 1281/4/6
f 1277/4/6 1278/4/6 1282/4/6
f 1281/5/6 1277/5/6 1282/5/6
f 1273/4/6 1279/4/6 1284/4/6
f 1284/4/6 1279/4/6 1285/4/6
f 1282/4/6 1278/4/6 1286/4/6
f 1286/4/6 1278/4/6 1287/4/6
f 1283/4/6 1284/4/6 1289/4/6
f 1289/4/6 1284/4/6 1290/4/6
f 1287/4/6 1288/4/6 1291/4/6
f 1291/4/6 1288/4/6 1292/4/6
f 1283/4/6 1289/4/6 1293/4/6
f 1293/4/6 1289/4/6 1294/4/6
f 1292/4/6 1288/4/6 1295/4/6
f 1295/4/6 1288/4/6 1296/4/6
f 1297/4/6 1298/4/6 1301/4/6
f 1301/4/6 1298/4/6 1302/4/6
f 1302/4/6 1298/4/6 1303/4/6
f 1299/4/6 1300/4/6 1304/4/6
f 1304/4/6 1300/4/6 1305/4/6
f 1305/4/6 1300/4/6 1306/4/6
f 1302/4/6 1303/4/6 1307/4/6
f 1304/4/6 1305/4/6 1307/4/6
f 1303/4/6 1304/4/6 1307/4/6
f 1307/4/6 1305/4/6 1308/4/6
f 1309/4/6 1310/4/6 1312/4/6
f 1312/4/6 1310/4/6 1313/4/6
f 1313/4/6 1310/4/6 1314/4/6
f 1314/4/6 1310/4/6 1315/4/6
f 1311/4/6 1312/4/6 1318/4/6
f 1312/4/6 1313/4/6 1318/4/6
f 1318/4/6 1313/4/6 1319/4/6
f 1319/4/6 1313/4/6 1320/4/6
f 1314/4/6 1315/4/6 1321/4/6
f 1315/4/6 1316/4/6 1321/4/6
f 1321/4/6 1316/4/6 1322/4/6
f 1322/4/6 1316/4/6 1323/4/6
f 1318/4/6 1319/4/6 1325/4/6
f 1317/4/6 1318/4/6 1325/4/6
f 1325/4/6 1319/4/6 1326/4/6
f 1326/4/6 1319/4/6 1327/4/6
f 1323/4/6 1324/4/6 1328/4/6
f 1322/4/6 1323/4/6 1328/4/6
f 1328/4/6 1324/4/6 1329/4/6
f 1329/4/6 1324/4/6 1330/4/6
f 1325/4/6 1326/4/6 1331/4/6
f 1331/4/6 1326/4/6 1332/4/6
f 1329/4/6 1330/4/6 1333/4/6
f 1333/4/6 1330/4/6 1334/4/6
f 1335/4/6 1336/4/6 1339/4/6
f 1339/4/6 1336/4/6 1340/4/6
f 1340/4/6 1336/4/6 1341/4/6
f 1337/4/6 1338/4/6 1342/4/6
f 1342/4/6 1338/4/6 1343/4/6
f 1343/4/6 1338/4/6 1344/4/6
f 1340/4/6 1341/4/6 1345/4/6
f 1342/4/6 1343/4/6 1345/4/6
f 1341/4/6 1342/4/6 1345/4/6
f 1345/4/6 1343/4/6 1346/4/6
f 1347/4/6 1348/4/6 1350/4/6
f 1350/4/6 1348/4/6 1351/4/6
f 1349/4/6 1350/4/6 1354/4/6
f 1351/4/6 1352/4/6 1354/4/6
f 1350/4/6 1351/4/6 1354/4/6
f 1354/4/6 1352/4/6 1355/4/6
f 1353/4/6 1354/4/6 1360/4/6
f 1354/4/6 1355/4/6 1360/4/6
f 1355/4/6 1356/4/6 1360/4/6
f 1360/4/6 1356/4/6 1361/4/6
f 1357/4/6 1358/4/6 1365/4/6
f 1365/4/6 1358/4/6 1366/4/6
f 1359/4/6 1360/4/6 1367/4/6
f 1360/4/6 1361/4/6 1367/4/6
f 1361/4/6 1362/4/6 1367/4/6
f 1367/4/6 1362/4/6 1368/4/6
f 1368/4/6 1362/4/6 1369/4/6
f 1369/4/6 1362/4/6 1370/4/6
f 1363/4/6 1364/4/6 1371/4/6
f 1371/4/6 1364/4/6 1372/4/6
f 1366/4/6 1367/4/6 1373/4/6
f 1373/4/6 1367/4/6 1374/4/6
f 1368/4/6 1369/4/6 1375/4/6
f 1375/4/6 1369/4/6 1376/4/6
f 1370/4/6 1371/4/6 1377/4/6
f 1377/4/6 1371/4/6 1378/4/6
f 1379/7/6 1380/7/6 1384/7/6
f 1384/7/6 1380/7/6 1385/7/6
f 1381/7/6 1382/7/6 1388/7/6
f 1388/7/6 1382/7/6 1389/7/6
f 1383/4/6 1384/4/6 1391/4/6
f 1391/4/6 1384/4/6 1392/4/6
f 1385/4/6 1386/4/6 1393/4/6
f 1393/4/6 1386/4/6 1394/4/6
f 1387/4/6 1388/4/6 1395/4/6
f 1395/4/6 1388/4/6 1396/4/6
f 1389/4/6 1390/4/6 1397/4/6
f 1397/4/6 1390/4/6 1398/4/6
f 1392/4/6 1393/4/6 1399/4/6
f 1399/4/6 1393/4/6 1400/4/6
f 1396/4/6 1397/4/6 1401/4/6
f 1401/4/6 1397/4/6 1402/4/6
f 1403/4/6 1404/4/6 1407/4/6
f 1407/4/6 1404/4/6 1408/4/6
f 1405/4/6 1406/4/6 1409/4/6
f 1409/4/6 1406/4/6 1410/4/6
