# MagicaVoxel @ Ephtracy

# group
o 

# material
mtllib Irah-0.mtl
usemtl palette

# normals
vn -1 0 0
vn 1 0 0
vn 0 0 1
vn 0 0 -1
vn 0 -1 0
vn 0 1 0

# texcoords
vt 0.849609 0.5
vt 0.888672 0.5
vt 0.958984 0.5
vt 0.978516 0.5
vt 0.994141 0.5

# verts
v 0.1 0.2 0.5
v 0.1 0.2 -0.1
v 0.1 0.3 0.5
v 0.1 0.3 -0.1
v 0.1 0.4 0.5
v 0.1 0.4 0.2
v 0.1 0.4 0.1
v 0.1 0.4 0
v 0.1 0.5 0.2
v 0.1 0.5 0.1
v 0.1 0.5 0
v 0.1 0.5 -0.1
v 0.1 0.6 0.2
v 0.1 0.6 -0.1
v 0.1 1 0.2
v 0.1 1 -0.1
v 0.4 0.2 0.5
v 0.4 0.2 -0.1
v 0.4 0.3 0.5
v 0.4 0.3 -0.1
v 0.4 0.4 0.5
v 0.4 0.4 0.2
v 0.4 0.4 0.1
v 0.4 0.4 0
v 0.4 0.5 0.2
v 0.4 0.5 0.1
v 0.4 0.5 0
v 0.4 0.5 -0.1
v 0.4 0.6 0.2
v 0.4 0.6 -0.1
v 0.4 1 0.2
v 0.4 1 -0.1
v 0.1 0.2 0.5
v 0.1 0.3 0.5
v 0.1 0.4 0.5
v 0.4 0.2 0.5
v 0.4 0.3 0.5
v 0.4 0.4 0.5
v 0.1 0.4 0.2
v 0.1 0.5 0.2
v 0.1 0.6 0.2
v 0.1 1 0.2
v 0.2 0.4 0.2
v 0.2 0.5 0.2
v 0.3 0.4 0.2
v 0.3 0.5 0.2
v 0.4 0.4 0.2
v 0.4 0.5 0.2
v 0.4 0.6 0.2
v 0.4 1 0.2
v 0.1 0.2 -0.1
v 0.1 0.3 -0.1
v 0.1 0.5 -0.1
v 0.1 0.6 -0.1
v 0.1 1 -0.1
v 0.4 0.2 -0.1
v 0.4 0.3 -0.1
v 0.4 0.5 -0.1
v 0.4 0.6 -0.1
v 0.4 1 -0.1
v 0.1 0.2 0.5
v 0.4 0.2 0.5
v 0.2 0.2 0.4
v 0.3 0.2 0.4
v 0.2 0.2 0.1
v 0.3 0.2 0.1
v 0.2 0.2 0
v 0.3 0.2 0
v 0.1 0.2 -0.1
v 0.4 0.2 -0.1
v 0.1 0.4 0.5
v 0.4 0.4 0.5
v 0.2 0.4 0.4
v 0.3 0.4 0.4
v 0.1 0.4 0.2
v 0.2 0.4 0.2
v 0.3 0.4 0.2
v 0.4 0.4 0.2
v 0.1 1 0.2
v 0.4 1 0.2
v 0.1 1 -0.1
v 0.4 1 -0.1

# faces
f 3/4/1 2/4/1 1/4/1
f 4/4/1 2/4/1 3/4/1
f 5/5/1 4/5/1 3/5/1
f 6/5/1 4/5/1 5/5/1
f 7/5/1 4/5/1 6/5/1
f 8/5/1 4/5/1 7/5/1
f 9/5/1 7/5/1 6/5/1
f 10/2/1 8/2/1 7/2/1
f 10/5/1 7/5/1 9/5/1
f 11/5/1 4/5/1 8/5/1
f 11/2/1 8/2/1 10/2/1
f 12/5/1 4/5/1 11/5/1
f 13/2/1 10/2/1 9/2/1
f 13/2/1 11/2/1 10/2/1
f 13/2/1 12/2/1 11/2/1
f 14/2/1 12/2/1 13/2/1
f 15/1/1 14/1/1 13/1/1
f 16/1/1 14/1/1 15/1/1
f 17/4/2 18/4/2 19/4/2
f 19/4/2 18/4/2 20/4/2
f 19/5/2 20/5/2 21/5/2
f 21/5/2 20/5/2 22/5/2
f 22/5/2 20/5/2 23/5/2
f 23/5/2 20/5/2 24/5/2
f 22/5/2 23/5/2 25/5/2
f 23/2/2 24/2/2 26/2/2
f 25/5/2 23/5/2 26/5/2
f 24/5/2 20/5/2 27/5/2
f 26/2/2 24/2/2 27/2/2
f 27/5/2 20/5/2 28/5/2
f 25/2/2 26/2/2 29/2/2
f 26/2/2 27/2/2 29/2/2
f 27/2/2 28/2/2 29/2/2
f 29/2/2 28/2/2 30/2/2
f 29/1/2 30/1/2 31/1/2
f 31/1/2 30/1/2 32/1/2
f 36/4/3 34/4/3 33/4/3
f 37/5/3 35/5/3 34/5/3
f 37/4/3 34/4/3 36/4/3
f 38/5/3 35/5/3 37/5/3
f 43/5/3 40/5/3 39/5/3
f 44/2/3 41/2/3 40/2/3
f 44/5/3 40/5/3 43/5/3
f 45/3/3 44/3/3 43/3/3
f 46/2/3 41/2/3 44/2/3
f 46/3/3 44/3/3 45/3/3
f 47/5/3 46/5/3 45/5/3
f 48/2/3 41/2/3 46/2/3
f 48/5/3 46/5/3 47/5/3
f 49/1/3 42/1/3 41/1/3
f 49/2/3 41/2/3 48/2/3
f 50/1/3 42/1/3 49/1/3
f 51/4/4 52/4/4 56/4/4
f 52/5/4 53/5/4 57/5/4
f 56/4/4 52/4/4 57/4/4
f 53/2/4 54/2/4 58/2/4
f 57/5/4 53/5/4 58/5/4
f 54/1/4 55/1/4 59/1/4
f 58/2/4 54/2/4 59/2/4
f 59/1/4 55/1/4 60/1/4
f 63/4/5 62/4/5 61/4/5
f 64/4/5 62/4/5 63/4/5
f 65/4/5 63/4/5 61/4/5
f 65/5/5 64/5/5 63/5/5
f 66/4/5 62/4/5 64/4/5
f 66/5/5 64/5/5 65/5/5
f 67/4/5 65/4/5 61/4/5
f 67/1/5 66/1/5 65/1/5
f 68/4/5 62/4/5 66/4/5
f 68/1/5 66/1/5 67/1/5
f 69/4/5 67/4/5 61/4/5
f 69/4/5 68/4/5 67/4/5
f 70/4/5 62/4/5 68/4/5
f 70/4/5 68/4/5 69/4/5
f 71/5/6 72/5/6 73/5/6
f 73/5/6 72/5/6 74/5/6
f 71/5/6 73/5/6 75/5/6
f 73/3/6 74/3/6 76/3/6
f 75/5/6 73/5/6 76/5/6
f 74/5/6 72/5/6 77/5/6
f 76/3/6 74/3/6 77/3/6
f 77/5/6 72/5/6 78/5/6
f 79/1/6 80/1/6 81/1/6
f 81/1/6 80/1/6 82/1/6
