# MagicaVoxel @ Ephtracy

# group
o 

# material
mtllib The Twitcher-11.mtl
usemtl palette

# normals
vn -1 0 0
vn 1 0 0
vn 0 0 1
vn 0 0 -1
vn 0 -1 0
vn 0 1 0

# texcoords
vt 0.533203 0.5
vt 0.810547 0.5
vt 0.849609 0.5
vt 0.873047 0.5
vt 0.974609 0.5
vt 0.986328 0.5
vt 0.994141 0.5

# verts
v -3.9 0.2 0.3
v -3.9 0.2 0.2
v -3.9 0.2 -0.1
v -3.9 0.2 -0.2
v -3.9 0.2 -0.3
v -3.9 0.3 0.3
v -3.9 0.3 0.2
v -3.9 0.3 0.1
v -3.9 0.3 -0.1
v -3.9 0.3 -0.2
v -3.9 0.4 0.2
v -3.9 0.4 0.1
v -3.9 0.4 0
v -3.9 0.4 -0.1
v -3.9 0.4 -0.3
v -3.9 0.5 0.1
v -3.9 0.5 0
v -3.9 0.5 -0.3
v -3.9 0.6 0
v -3.9 0.6 -0.3
v -3.9 1 0
v -3.9 1 -0.3
v -3.8 0.3 0.3
v -3.8 0.3 0.2
v -3.8 0.4 0.3
v -3.8 0.4 0.2
v -3.6 0.2 0.3
v -3.6 0.2 -0.3
v -3.6 0.3 0.3
v -3.6 0.3 0.2
v -3.6 0.3 -0.1
v -3.6 0.4 0.3
v -3.6 0.4 0.2
v -3.6 0.4 0.1
v -3.6 0.4 0
v -3.6 0.4 -0.1
v -3.6 0.4 -0.2
v -3.6 0.4 -0.3
v -3.6 0.5 0.1
v -3.6 0.5 0
v -3.6 0.5 -0.1
v -3.6 0.5 -0.2
v -3.6 0.5 -0.3
v -3.6 0.6 0
v -3.6 0.6 -0.3
v -3.6 1 0
v -3.6 1 -0.3
v -3.9 0.2 0.3
v -3.9 0.3 0.3
v -3.8 0.2 0.3
v -3.8 0.3 0.3
v -3.8 0.4 0.3
v -3.7 0.3 0.3
v -3.7 0.4 0.3
v -3.6 0.2 0.3
v -3.6 0.3 0.3
v -3.6 0.4 0.3
v -3.9 0.3 0.2
v -3.9 0.4 0.2
v -3.8 0.3 0.2
v -3.8 0.4 0.2
v -3.9 0.4 0.1
v -3.9 0.5 0.1
v -3.8 0.4 0.1
v -3.8 0.5 0.1
v -3.7 0.4 0.1
v -3.7 0.5 0.1
v -3.6 0.4 0.1
v -3.6 0.5 0.1
v -3.9 0.5 0
v -3.9 0.6 0
v -3.9 1 0
v -3.8 0.5 0
v -3.7 0.5 0
v -3.6 0.5 0
v -3.6 0.6 0
v -3.6 1 0
v -3.9 0.2 -0.3
v -3.9 0.4 -0.3
v -3.9 0.5 -0.3
v -3.9 0.6 -0.3
v -3.9 1 -0.3
v -3.8 0.3 -0.3
v -3.8 0.4 -0.3
v -3.8 0.5 -0.3
v -3.7 0.3 -0.3
v -3.7 0.4 -0.3
v -3.7 0.5 -0.3
v -3.6 0.2 -0.3
v -3.6 0.4 -0.3
v -3.6 0.5 -0.3
v -3.6 0.6 -0.3
v -3.6 1 -0.3
v -3.9 0.2 0.3
v -3.8 0.2 0.3
v -3.6 0.2 0.3
v -3.9 0.2 0.2
v -3.8 0.2 0.2
v -3.9 0.2 -0.1
v -3.8 0.2 -0.1
v -3.9 0.2 -0.2
v -3.8 0.2 -0.2
v -3.9 0.2 -0.3
v -3.6 0.2 -0.3
v -3.9 0.3 0.3
v -3.8 0.3 0.3
v -3.9 0.3 0.2
v -3.8 0.3 0.2
v -3.8 0.4 0.3
v -3.7 0.4 0.3
v -3.6 0.4 0.3
v -3.9 0.4 0.2
v -3.8 0.4 0.2
v -3.7 0.4 0.2
v -3.6 0.4 0.2
v -3.9 0.4 0.1
v -3.8 0.4 0.1
v -3.7 0.4 0.1
v -3.6 0.4 0.1
v -3.9 0.5 0.1
v -3.8 0.5 0.1
v -3.7 0.5 0.1
v -3.6 0.5 0.1
v -3.9 0.5 0
v -3.8 0.5 0
v -3.7 0.5 0
v -3.6 0.5 0
v -3.9 1 0
v -3.6 1 0
v -3.8 1 -0.1
v -3.7 1 -0.1
v -3.8 1 -0.2
v -3.7 1 -0.2
v -3.9 1 -0.3
v -3.6 1 -0.3

# faces
f 6/5/1 2/5/1 1/5/1
f 7/4/1 3/4/1 2/4/1
f 7/5/1 2/5/1 6/5/1
f 8/4/1 3/4/1 7/4/1
f 9/5/1 4/5/1 3/5/1
f 9/4/1 3/4/1 8/4/1
f 10/4/1 5/4/1 4/4/1
f 10/5/1 4/5/1 9/5/1
f 11/5/1 8/5/1 7/5/1
f 12/1/1 9/1/1 8/1/1
f 12/5/1 8/5/1 11/5/1
f 13/1/1 9/1/1 12/1/1
f 14/4/1 10/4/1 9/4/1
f 14/1/1 9/1/1 13/1/1
f 15/4/1 5/4/1 10/4/1
f 15/4/1 10/4/1 14/4/1
f 16/7/1 13/7/1 12/7/1
f 17/1/1 14/1/1 13/1/1
f 17/7/1 13/7/1 16/7/1
f 17/1/1 15/1/1 14/1/1
f 18/1/1 15/1/1 17/1/1
f 19/5/1 18/5/1 17/5/1
f 20/5/1 18/5/1 19/5/1
f 21/2/1 20/2/1 19/2/1
f 22/2/1 20/2/1 21/2/1
f 25/1/1 24/1/1 23/1/1
f 26/1/1 24/1/1 25/1/1
f 27/4/2 28/4/2 29/4/2
f 29/4/2 28/4/2 30/4/2
f 30/4/2 28/4/2 31/4/2
f 29/5/2 30/5/2 32/5/2
f 30/1/2 31/1/2 33/1/2
f 32/5/2 30/5/2 33/5/2
f 33/1/2 31/1/2 34/1/2
f 34/1/2 31/1/2 35/1/2
f 31/4/2 28/4/2 36/4/2
f 35/1/2 31/1/2 36/1/2
f 36/4/2 28/4/2 37/4/2
f 37/4/2 28/4/2 38/4/2
f 34/7/2 35/7/2 39/7/2
f 35/1/2 36/1/2 40/1/2
f 39/7/2 35/7/2 40/7/2
f 36/5/2 37/5/2 41/5/2
f 40/1/2 36/1/2 41/1/2
f 37/1/2 38/1/2 42/1/2
f 41/5/2 37/5/2 42/5/2
f 42/1/2 38/1/2 43/1/2
f 40/5/2 41/5/2 44/5/2
f 42/5/2 43/5/2 44/5/2
f 41/5/2 42/5/2 44/5/2
f 44/5/2 43/5/2 45/5/2
f 44/2/2 45/2/2 46/2/2
f 46/2/2 45/2/2 47/2/2
f 50/5/3 49/5/3 48/5/3
f 51/5/3 49/5/3 50/5/3
f 53/4/3 51/4/3 50/4/3
f 53/1/3 52/1/3 51/1/3
f 54/1/3 52/1/3 53/1/3
f 55/4/3 53/4/3 50/4/3
f 56/5/3 54/5/3 53/5/3
f 56/4/3 53/4/3 55/4/3
f 57/5/3 54/5/3 56/5/3
f 60/5/3 59/5/3 58/5/3
f 61/5/3 59/5/3 60/5/3
f 64/7/3 63/7/3 62/7/3
f 65/7/3 63/7/3 64/7/3
f 66/6/3 65/6/3 64/6/3
f 67/6/3 65/6/3 66/6/3
f 68/7/3 67/7/3 66/7/3
f 69/7/3 67/7/3 68/7/3
f 73/5/3 71/5/3 70/5/3
f 74/5/3 71/5/3 73/5/3
f 75/5/3 71/5/3 74/5/3
f 76/2/3 72/2/3 71/2/3
f 76/5/3 71/5/3 75/5/3
f 77/2/3 72/2/3 76/2/3
f 78/4/4 79/4/4 83/4/4
f 79/1/4 80/1/4 84/1/4
f 83/4/4 79/4/4 84/4/4
f 80/5/4 81/5/4 85/5/4
f 84/1/4 80/1/4 85/1/4
f 78/4/4 83/4/4 86/4/4
f 83/7/4 84/7/4 86/7/4
f 84/7/4 85/7/4 86/7/4
f 86/7/4 85/7/4 87/7/4
f 85/5/4 81/5/4 88/5/4
f 87/7/4 85/7/4 88/7/4
f 86/4/4 87/4/4 89/4/4
f 78/4/4 86/4/4 89/4/4
f 87/1/4 88/1/4 90/1/4
f 89/4/4 87/4/4 90/4/4
f 88/5/4 81/5/4 91/5/4
f 90/1/4 88/1/4 91/1/4
f 81/2/4 82/2/4 92/2/4
f 91/5/4 81/5/4 92/5/4
f 92/2/4 82/2/4 93/2/4
f 97/5/5 95/5/5 94/5/5
f 98/4/5 96/4/5 95/4/5
f 98/5/5 95/5/5 97/5/5
f 99/4/5 98/4/5 97/4/5
f 100/4/5 96/4/5 98/4/5
f 100/4/5 98/4/5 99/4/5
f 101/5/5 100/5/5 99/5/5
f 102/4/5 96/4/5 100/4/5
f 102/5/5 100/5/5 101/5/5
f 103/4/5 102/4/5 101/4/5
f 104/4/5 96/4/5 102/4/5
f 104/4/5 102/4/5 103/4/5
f 105/5/6 106/5/6 107/5/6
f 107/5/6 106/5/6 108/5/6
f 109/1/6 110/1/6 113/1/6
f 110/5/6 111/5/6 114/5/6
f 113/1/6 110/1/6 114/1/6
f 114/5/6 111/5/6 115/5/6
f 112/5/6 113/5/6 116/5/6
f 113/1/6 114/1/6 117/1/6
f 116/5/6 113/5/6 117/5/6
f 114/1/6 115/1/6 117/1/6
f 117/1/6 115/1/6 118/1/6
f 118/1/6 115/1/6 119/1/6
f 120/7/6 121/7/6 124/7/6
f 121/6/6 122/6/6 125/6/6
f 124/7/6 121/7/6 125/7/6
f 122/7/6 123/7/6 126/7/6
f 125/6/6 122/6/6 126/6/6
f 126/7/6 123/7/6 127/7/6
f 128/2/6 129/2/6 130/2/6
f 130/2/6 129/2/6 131/2/6
f 128/2/6 130/2/6 132/2/6
f 130/3/6 131/3/6 132/3/6
f 131/2/6 129/2/6 133/2/6
f 132/3/6 131/3/6 133/3/6
f 128/2/6 132/2/6 134/2/6
f 132/2/6 133/2/6 134/2/6
f 133/2/6 129/2/6 135/2/6
f 134/2/6 133/2/6 135/2/6
