# MagicaVoxel @ Ephtracy

# group
o 

# material
mtllib The Twitcher-13.mtl
usemtl palette

# normals
vn -1 0 0
vn 1 0 0
vn 0 0 1
vn 0 0 -1
vn 0 -1 0
vn 0 1 0

# texcoords
vt 0.00585938 0.5
vt 0.537109 0.5
vt 0.974609 0.5

# verts
v -2.5 2.9 0.1
v -2.5 2.9 -0.2
v -2.5 3.2 0.1
v -2.5 3.2 -0.2
v -2.2 2.9 0.1
v -2.2 2.9 0
v -2.2 3 0.1
v -2.2 3 0
v -2.3 2.9 0.1
v -2.3 2.9 0
v -2.3 3 0.1
v -2.3 3 0
v -1.5 2.9 0.1
v -1.5 2.9 -0.2
v -1.5 3 0.1
v -1.5 3 -0.2
v -1.4 3 0.1
v -1.4 3 -0.2
v -1.4 3.2 0.1
v -1.4 3.2 -0.2
v -2.5 2.9 0.1
v -2.5 3.2 0.1
v -2.3 2.9 0.1
v -2.3 3 0.1
v -2.2 2.9 0.1
v -2.2 3 0.1
v -1.9 3 0.1
v -1.9 3.1 0.1
v -1.8 3 0.1
v -1.8 3.1 0.1
v -1.8 3.2 0.1
v -1.7 2.9 0.1
v -1.7 3.1 0.1
v -1.5 2.9 0.1
v -1.5 3 0.1
v -1.4 3 0.1
v -1.4 3.2 0.1
v -2.3 2.9 0
v -2.3 3 0
v -2.2 2.9 0
v -2.2 3 0
v -2.5 2.9 -0.2
v -2.5 3.2 -0.2
v -2.4 3.1 -0.2
v -2.4 3.2 -0.2
v -2.3 3.1 -0.2
v -2.3 3.2 -0.2
v -1.8 3 -0.2
v -1.8 3.1 -0.2
v -1.7 2.9 -0.2
v -1.7 3 -0.2
v -1.7 3.1 -0.2
v -1.7 3.2 -0.2
v -1.5 2.9 -0.2
v -1.5 3 -0.2
v -1.4 3 -0.2
v -1.4 3.2 -0.2
v -2.5 2.9 0.1
v -2.3 2.9 0.1
v -2.2 2.9 0.1
v -1.7 2.9 0.1
v -1.5 2.9 0.1
v -2.3 2.9 0
v -2.2 2.9 0
v -2.3 2.9 -0.1
v -2.2 2.9 -0.1
v -2.5 2.9 -0.2
v -1.7 2.9 -0.2
v -1.5 2.9 -0.2
v -2.3 3 0.1
v -2.2 3 0.1
v -1.5 3 0.1
v -1.4 3 0.1
v -2.3 3 0
v -2.2 3 0
v -1.5 3 -0.2
v -1.4 3 -0.2
v -2.5 3.2 0.1
v -1.8 3.2 0.1
v -1.4 3.2 0.1
v -2.3 3.2 0
v -2.2 3.2 0
v -1.8 3.2 0
v -1.7 3.2 0
v -2.4 3.2 -0.1
v -2.3 3.2 -0.1
v -2.2 3.2 -0.1
v -2.5 3.2 -0.2
v -2.4 3.2 -0.2
v -2.3 3.2 -0.2
v -1.7 3.2 -0.2
v -1.4 3.2 -0.2

# faces
f 3/2/1 2/2/1 1/2/1
f 4/2/1 2/2/1 3/2/1
f 7/2/1 6/2/1 5/2/1
f 8/2/1 6/2/1 7/2/1
f 9/2/2 10/2/2 11/2/2
f 11/2/2 10/2/2 12/2/2
f 13/3/2 14/3/2 15/3/2
f 15/3/2 14/3/2 16/3/2
f 17/3/2 18/3/2 19/3/2
f 19/3/2 18/3/2 20/3/2
f 23/2/3 22/2/3 21/2/3
f 24/2/3 22/2/3 23/2/3
f 26/2/3 22/2/3 24/2/3
f 27/2/3 22/2/3 26/2/3
f 27/2/3 26/2/3 25/2/3
f 28/2/3 22/2/3 27/2/3
f 29/2/3 27/2/3 25/2/3
f 29/3/3 28/3/3 27/3/3
f 30/2/3 22/2/3 28/2/3
f 30/3/3 28/3/3 29/3/3
f 31/2/3 22/2/3 30/2/3
f 32/2/3 29/2/3 25/2/3
f 32/2/3 30/2/3 29/2/3
f 33/3/3 31/3/3 30/3/3
f 33/2/3 30/2/3 32/2/3
f 34/3/3 33/3/3 32/3/3
f 35/3/3 33/3/3 34/3/3
f 36/3/3 33/3/3 35/3/3
f 37/3/3 31/3/3 33/3/3
f 37/3/3 33/3/3 36/3/3
f 40/3/3 39/3/3 38/3/3
f 41/3/3 39/3/3 40/3/3
f 42/2/4 43/2/4 44/2/4
f 44/2/4 43/2/4 45/2/4
f 42/2/4 44/2/4 46/2/4
f 44/3/4 45/3/4 46/3/4
f 46/3/4 45/3/4 47/3/4
f 42/2/4 46/2/4 48/2/4
f 46/2/4 47/2/4 48/2/4
f 48/2/4 47/2/4 49/2/4
f 42/2/4 48/2/4 50/2/4
f 48/3/4 49/3/4 51/3/4
f 50/2/4 48/2/4 51/2/4
f 49/2/4 47/2/4 52/2/4
f 51/3/4 49/3/4 52/3/4
f 52/2/4 47/2/4 53/2/4
f 50/3/4 51/3/4 54/3/4
f 51/3/4 52/3/4 54/3/4
f 52/3/4 53/3/4 54/3/4
f 54/3/4 53/3/4 55/3/4
f 55/3/4 53/3/4 56/3/4
f 56/3/4 53/3/4 57/3/4
f 63/2/5 59/2/5 58/2/5
f 64/2/5 61/2/5 60/2/5
f 65/2/5 63/2/5 58/2/5
f 65/3/5 64/3/5 63/3/5
f 66/2/5 61/2/5 64/2/5
f 66/3/5 64/3/5 65/3/5
f 67/2/5 65/2/5 58/2/5
f 67/2/5 66/2/5 65/2/5
f 68/3/5 62/3/5 61/3/5
f 68/2/5 66/2/5 67/2/5
f 68/2/5 61/2/5 66/2/5
f 69/3/5 62/3/5 68/3/5
f 74/2/5 71/2/5 70/2/5
f 75/2/5 71/2/5 74/2/5
f 76/3/5 73/3/5 72/3/5
f 77/3/5 73/3/5 76/3/5
f 78/2/6 79/2/6 81/2/6
f 81/2/6 79/2/6 82/2/6
f 79/3/6 80/3/6 83/3/6
f 82/2/6 79/2/6 83/2/6
f 83/3/6 80/3/6 84/3/6
f 78/2/6 81/2/6 85/2/6
f 81/3/6 82/3/6 86/3/6
f 85/2/6 81/2/6 86/2/6
f 82/2/6 83/2/6 87/2/6
f 86/3/6 82/3/6 87/3/6
f 83/2/6 84/2/6 87/2/6
f 78/2/6 85/2/6 88/2/6
f 85/3/6 86/3/6 89/3/6
f 88/2/6 85/2/6 89/2/6
f 86/2/6 87/2/6 90/2/6
f 89/3/6 86/3/6 90/3/6
f 87/2/6 84/2/6 91/2/6
f 90/2/6 87/2/6 91/2/6
f 84/3/6 80/3/6 91/3/6
f 91/3/6 80/3/6 92/3/6
