# MagicaVoxel @ Ephtracy

# group
o 

# material
mtllib The Twitcher-16.mtl
usemtl palette

# normals
vn -1 0 0
vn 1 0 0
vn 0 0 1
vn 0 0 -1
vn 0 -1 0
vn 0 1 0

# texcoords
vt 0.00585938 0.5
vt 0.849609 0.5
vt 0.869141 0.5
vt 0.958984 0.5
vt 0.970703 0.5
vt 0.974609 0.5
vt 0.978516 0.5
vt 0.982422 0.5
vt 0.986328 0.5

# verts
v -4.6 4 0.2
v -4.6 4 0
v -4.6 4.1 0.2
v -4.6 4.1 0.1
v -4.6 4.2 0.1
v -4.6 4.2 0
v -4.5 3.4 0.3
v -4.5 3.4 -0.2
v -4.5 3.5 0.6
v -4.5 3.5 0.3
v -4.5 3.5 -0.2
v -4.5 3.5 -0.3
v -4.5 3.6 0.6
v -4.5 3.6 0.1
v -4.5 3.6 0
v -4.5 3.7 0.6
v -4.5 3.7 0.4
v -4.5 3.7 0.3
v -4.5 3.7 0.2
v -4.5 3.7 0.1
v -4.5 3.7 0
v -4.5 3.7 -0.1
v -4.5 3.7 -0.2
v -4.5 3.7 -0.3
v -4.5 3.8 0.4
v -4.5 3.8 0.3
v -4.5 3.8 0.2
v -4.5 3.8 0.1
v -4.5 3.8 0
v -4.5 3.8 -0.1
v -4.5 3.9 0.4
v -4.5 3.9 0.3
v -4.5 3.9 0.2
v -4.5 3.9 0.1
v -4.5 3.9 0
v -4.5 3.9 -0.1
v -4.5 4 0.5
v -4.5 4 0.4
v -4.5 4 0.3
v -4.5 4 0.2
v -4.5 4 0.1
v -4.5 4 0
v -4.5 4 -0.1
v -4.5 4.1 0.6
v -4.5 4.1 0.5
v -4.5 4.1 0.2
v -4.5 4.1 0.1
v -4.5 4.1 0
v -4.5 4.1 -0.1
v -4.5 4.1 -0.2
v -4.5 4.1 -0.3
v -4.5 4.2 0.6
v -4.5 4.2 0.1
v -4.5 4.2 0
v -4.5 4.3 0.6
v -4.5 4.3 0.5
v -4.5 4.3 0.1
v -4.5 4.3 -0.1
v -4.5 4.4 0.6
v -4.5 4.4 0.5
v -4.5 4.4 0.1
v -4.5 4.4 -0.1
v -4.5 4.4 -0.3
v -4.4 3.3 0.4
v -4.4 3.3 -0.2
v -4.4 3.4 0.5
v -4.4 3.4 0.4
v -4.4 3.4 0.3
v -4.4 3.4 -0.2
v -4.4 3.4 -0.3
v -4.4 3.5 0.5
v -4.4 3.5 0.3
v -4.4 3.5 -0.2
v -4.4 3.5 -0.3
v -4.4 3.6 0.7
v -4.4 3.6 0.6
v -4.4 3.7 0.7
v -4.4 3.7 0.6
v -4.4 3.7 0.5
v -4.4 3.8 0.6
v -4.4 3.8 0.5
v -4.4 3.8 0.1
v -4.4 3.8 0
v -4.4 3.9 0.6
v -4.4 3.9 0.5
v -4.4 3.9 0.1
v -4.4 3.9 0
v -4.4 3.9 -0.1
v -4.4 3.9 -0.3
v -4.4 3.9 -0.4
v -4.4 4 0.6
v -4.4 4 0.5
v -4.4 4 0
v -4.4 4 -0.1
v -4.4 4.1 0.7
v -4.4 4.1 0.6
v -4.4 4.1 0.5
v -4.4 4.1 -0.3
v -4.4 4.1 -0.4
v -4.4 4.2 0.6
v -4.4 4.3 0.6
v -4.4 4.4 0.6
v -4.4 4.4 0.5
v -4.4 4.4 0.1
v -4.4 4.4 -0.1
v -4.4 4.4 -0.3
v -4.4 4.5 0.7
v -4.4 4.5 -0.4
v -4.3 3.3 0.5
v -4.3 3.3 0.4
v -4.3 3.3 -0.2
v -4.3 3.3 -0.3
v -4.3 3.4 0.5
v -4.3 3.4 0.4
v -4.3 3.4 -0.2
v -4.3 3.4 -0.3
v -4.3 3.5 -0.3
v -4.3 3.5 -0.4
v -4.3 3.7 -0.3
v -4.3 3.7 -0.4
v -4.3 3.9 0.1
v -4.3 3.9 0
v -4.3 3.9 -0.3
v -4.3 3.9 -0.4
v -4.3 4 0.7
v -4.3 4 0.6
v -4.3 4 0.1
v -4.3 4 0
v -4.3 4.1 0.7
v -4.3 4.1 0.6
v -4.3 4.1 -0.4
v -4.3 4.1 -0.5
v -4.3 4.4 -0.4
v -4.3 4.4 -0.5
v -4.3 4.5 0.5
v -4.3 4.5 -0.1
v -4.3 4.6 0.5
v -4.3 4.6 -0.1
v -4.2 3.7 0.6
v -4.2 3.7 0.5
v -4.2 3.7 -0.4
v -4.2 3.7 -0.5
v -4.2 3.8 0.6
v -4.2 3.8 0.5
v -4.2 3.9 0.7
v -4.2 3.9 0.6
v -4.2 4 0.7
v -4.2 4 0.6
v -4.2 4.1 -0.4
v -4.2 4.1 -0.5
v -4.2 4.4 -0.4
v -4.2 4.4 -0.5
v -4.2 4.5 0.6
v -4.2 4.5 0.5
v -4.2 4.5 -0.1
v -4.2 4.5 -0.3
v -4.2 4.5 -0.4
v -4.2 4.5 -0.5
v -4.2 4.6 0.6
v -4.2 4.6 0.5
v -4.2 4.6 -0.1
v -4.2 4.6 -0.3
v -4.1 3.4 0.6
v -4.1 3.4 0.5
v -4.1 3.5 0.6
v -4.1 3.5 0.5
v -4.1 4 0.9
v -4.1 4 0.8
v -4.1 4 0.7
v -4.1 4.1 0.9
v -4.1 4.1 0.8
v -4.1 4.1 0.7
v -4.1 4.2 0.8
v -4.1 4.2 0.7
v -4.1 4.2 0.6
v -4.1 4.4 0.7
v -4.1 4.4 0.6
v -4 3.6 0.2
v -4 3.6 0
v -4 3.7 0.1
v -4 3.7 0
v -4 3.8 0.2
v -4 3.8 0.1
v -3.9 3.7 0.6
v -3.9 3.7 0.5
v -3.9 3.7 0.3
v -3.9 3.7 0.2
v -3.9 3.7 0.1
v -3.9 3.7 0
v -3.9 3.8 0.6
v -3.9 3.8 0.5
v -3.9 3.8 0.3
v -3.9 3.8 0.2
v -3.9 3.8 0.1
v -3.9 3.8 0
v -3.9 3.9 0.7
v -3.9 3.9 0.6
v -3.9 4 0.7
v -3.9 4 0.6
v -3.8 3.8 0.2
v -3.8 3.8 0.1
v -3.8 3.9 0.2
v -3.8 3.9 0.1
v -3.7 3.6 0.5
v -3.7 3.6 0.1
v -3.7 3.7 0.6
v -3.7 3.7 0.5
v -3.7 3.7 0.3
v -3.7 3.7 0.1
v -3.7 3.8 0.6
v -3.7 3.8 0.5
v -3.7 3.8 0.3
v -3.7 3.8 0.2
v -3.7 3.9 0.6
v -3.7 3.9 0.5
v -3.7 3.9 0.3
v -3.7 3.9 0.2
v -3.7 4 0.6
v -3.7 4 0.5
v -3.7 4.2 0.7
v -3.7 4.2 0.6
v -3.7 4.4 0.7
v -3.7 4.4 0.6
v -3.6 3.7 0.4
v -3.6 3.7 0.3
v -3.6 3.8 0.4
v -3.6 3.8 0.3
v -3.6 3.9 0.4
v -3.6 3.9 0.3
v -3.6 3.9 0.2
v -3.6 3.9 0.1
v -3.6 4 0.5
v -3.6 4 0.4
v -3.6 4 0.3
v -3.6 4 0.2
v -3.6 4 0.1
v -3.6 4.1 0.5
v -3.6 4.1 0.3
v -4.4 3.7 0.4
v -4.4 3.7 0.3
v -4.4 3.8 0.4
v -4.4 3.8 0.3
v -4.4 3.9 0.4
v -4.4 3.9 0.3
v -4.4 3.9 0.2
v -4.4 3.9 0.1
v -4.4 4 0.5
v -4.4 4 0.4
v -4.4 4 0.3
v -4.4 4 0.2
v -4.4 4 0.1
v -4.4 4.1 0.5
v -4.4 4.1 0.3
v -4.3 3.6 0.5
v -4.3 3.6 0.1
v -4.3 3.7 0.6
v -4.3 3.7 0.5
v -4.3 3.7 0.2
v -4.3 3.8 0.6
v -4.3 3.8 0.5
v -4.3 3.8 0.2
v -4.3 3.8 0.1
v -4.3 3.9 0.6
v -4.3 3.9 0.5
v -4.3 4 0.6
v -4.3 4 0.5
v -4.3 4.2 0.7
v -4.3 4.2 0.6
v -4.3 4.4 0.7
v -4.3 4.4 0.6
v -4.1 3.6 0.1
v -4.1 3.6 0
v -4.1 3.7 0.6
v -4.1 3.7 0.5
v -4.1 3.8 0.6
v -4.1 3.8 0.5
v -4.1 3.8 0.1
v -4.1 3.8 0
v -4.1 3.9 0.7
v -4.1 3.9 0.6
v -4.1 4 0.7
v -4.1 4 0.6
v -3.9 3.4 0.6
v -3.9 3.4 0.5
v -3.9 3.5 0.6
v -3.9 3.5 0.5
v -3.9 4 0.9
v -3.9 4 0.8
v -3.9 4 0.7
v -3.9 4.1 0.9
v -3.9 4.1 0.8
v -3.9 4.1 0.7
v -3.9 4.2 0.8
v -3.9 4.2 0.7
v -3.9 4.2 0.6
v -3.9 4.4 0.7
v -3.9 4.4 0.6
v -3.8 3.6 0.2
v -3.8 3.6 0.1
v -3.8 3.7 0.6
v -3.8 3.7 0.5
v -3.8 3.7 0.2
v -3.8 3.7 0.1
v -3.8 3.7 -0.4
v -3.8 3.7 -0.5
v -3.8 3.8 0.6
v -3.8 3.8 0.5
v -3.8 3.9 0.7
v -3.8 3.9 0.6
v -3.8 4 0.7
v -3.8 4 0.6
v -3.8 4.1 -0.4
v -3.8 4.1 -0.5
v -3.8 4.4 -0.4
v -3.8 4.4 -0.5
v -3.8 4.5 0.6
v -3.8 4.5 0.5
v -3.8 4.5 -0.1
v -3.8 4.5 -0.3
v -3.8 4.5 -0.4
v -3.8 4.5 -0.5
v -3.8 4.6 0.6
v -3.8 4.6 0.5
v -3.8 4.6 -0.1
v -3.8 4.6 -0.3
v -3.7 3.3 0.5
v -3.7 3.3 0.4
v -3.7 3.3 -0.2
v -3.7 3.3 -0.3
v -3.7 3.4 0.5
v -3.7 3.4 0.4
v -3.7 3.4 -0.2
v -3.7 3.4 -0.3
v -3.7 3.5 -0.3
v -3.7 3.5 -0.4
v -3.7 3.6 -0.3
v -3.7 3.6 -0.4
v -3.7 3.7 -0.3
v -3.7 3.7 -0.4
v -3.7 3.9 0.1
v -3.7 3.9 0
v -3.7 3.9 -0.3
v -3.7 3.9 -0.4
v -3.7 4 0.7
v -3.7 4 0.6
v -3.7 4 0.1
v -3.7 4 0
v -3.7 4.1 0.7
v -3.7 4.1 0.6
v -3.7 4.1 -0.4
v -3.7 4.1 -0.5
v -3.7 4.4 -0.4
v -3.7 4.4 -0.5
v -3.7 4.5 0.5
v -3.7 4.5 -0.1
v -3.7 4.6 0.5
v -3.7 4.6 -0.1
v -3.6 3.3 0.4
v -3.6 3.3 -0.2
v -3.6 3.4 0.5
v -3.6 3.4 0.4
v -3.6 3.4 0.3
v -3.6 3.4 -0.2
v -3.6 3.4 -0.3
v -3.6 3.5 0.5
v -3.6 3.5 0.3
v -3.6 3.5 -0.2
v -3.6 3.5 -0.3
v -3.6 3.6 0.7
v -3.6 3.6 0.6
v -3.6 3.7 0.7
v -3.6 3.7 0.6
v -3.6 3.7 0.5
v -3.6 3.8 0.6
v -3.6 3.8 0.5
v -3.6 3.9 0.6
v -3.6 3.9 0.5
v -3.6 3.9 0
v -3.6 3.9 -0.1
v -3.6 3.9 -0.3
v -3.6 3.9 -0.4
v -3.6 4 0.6
v -3.6 4 0.5
v -3.6 4 0
v -3.6 4 -0.1
v -3.6 4.1 0.7
v -3.6 4.1 0.6
v -3.6 4.1 0.5
v -3.6 4.2 0.6
v -3.6 4.4 0.6
v -3.6 4.4 0.3
v -3.6 4.4 0.2
v -3.6 4.4 -0.3
v -3.6 4.5 0.7
v -3.6 4.5 -0.4
v -3.5 3.4 0.3
v -3.5 3.4 -0.2
v -3.5 3.5 0.6
v -3.5 3.5 0.3
v -3.5 3.5 0.2
v -3.5 3.5 0
v -3.5 3.5 -0.2
v -3.5 3.5 -0.3
v -3.5 3.6 0.6
v -3.5 3.6 0.3
v -3.5 3.6 0.2
v -3.5 3.6 0.1
v -3.5 3.6 0
v -3.5 3.6 -0.2
v -3.5 3.7 0.6
v -3.5 3.7 0.4
v -3.5 3.7 0.3
v -3.5 3.7 0.2
v -3.5 3.7 0.1
v -3.5 3.7 0
v -3.5 3.7 -0.1
v -3.5 3.8 0.4
v -3.5 3.8 0.3
v -3.5 3.8 0.1
v -3.5 3.8 0
v -3.5 3.8 -0.1
v -3.5 3.9 0.4
v -3.5 3.9 0.3
v -3.5 3.9 0.2
v -3.5 3.9 0.1
v -3.5 3.9 0
v -3.5 3.9 -0.1
v -3.5 4 0.5
v -3.5 4 0.4
v -3.5 4 0.3
v -3.5 4 0.2
v -3.5 4 0.1
v -3.5 4 0
v -3.5 4 -0.1
v -3.5 4.1 0.6
v -3.5 4.1 0.5
v -3.5 4.1 0.2
v -3.5 4.1 0.1
v -3.5 4.1 0
v -3.5 4.1 -0.1
v -3.5 4.2 0.6
v -3.5 4.2 0.1
v -3.5 4.2 0
v -3.5 4.3 0.3
v -3.5 4.3 0.2
v -3.5 4.4 0.6
v -3.5 4.4 0.3
v -3.5 4.4 0.2
v -3.5 4.4 -0.3
v -3.4 3.5 0.3
v -3.4 3.5 0.2
v -3.4 3.7 0.2
v -3.4 3.7 0.1
v -3.4 3.8 0.3
v -3.4 3.8 0.1
v -3.4 4 0.2
v -3.4 4 0
v -3.4 4.1 0.2
v -3.4 4.1 0.1
v -3.4 4.2 0.1
v -3.4 4.2 0
v -4.1 4 0.9
v -4.1 4.1 0.9
v -3.9 4 0.9
v -3.9 4.1 0.9
v -4.1 4.1 0.8
v -4.1 4.2 0.8
v -3.9 4.1 0.8
v -3.9 4.2 0.8
v -4.4 3.6 0.7
v -4.4 3.7 0.7
v -4.4 4.1 0.7
v -4.4 4.5 0.7
v -4.3 4 0.7
v -4.3 4.1 0.7
v -4.3 4.2 0.7
v -4.3 4.4 0.7
v -4.3 4.5 0.7
v -4.2 3.9 0.7
v -4.2 4 0.7
v -4.1 3.9 0.7
v -4.1 4 0.7
v -4.1 4.1 0.7
v -4.1 4.2 0.7
v -4.1 4.4 0.7
v -3.9 3.9 0.7
v -3.9 4 0.7
v -3.9 4.1 0.7
v -3.9 4.2 0.7
v -3.9 4.4 0.7
v -3.8 3.9 0.7
v -3.8 4 0.7
v -3.7 4 0.7
v -3.7 4.1 0.7
v -3.7 4.2 0.7
v -3.7 4.4 0.7
v -3.7 4.5 0.7
v -3.6 3.6 0.7
v -3.6 3.7 0.7
v -3.6 4.1 0.7
v -3.6 4.5 0.7
v -4.5 3.5 0.6
v -4.5 3.6 0.6
v -4.5 3.7 0.6
v -4.5 4.1 0.6
v -4.5 4.2 0.6
v -4.5 4.3 0.6
v -4.5 4.4 0.6
v -4.4 3.5 0.6
v -4.4 3.6 0.6
v -4.4 3.7 0.6
v -4.4 3.8 0.6
v -4.4 3.9 0.6
v -4.4 4 0.6
v -4.4 4.1 0.6
v -4.4 4.2 0.6
v -4.4 4.3 0.6
v -4.4 4.4 0.6
v -4.3 3.7 0.6
v -4.3 3.8 0.6
v -4.3 3.9 0.6
v -4.3 4 0.6
v -4.3 4.1 0.6
v -4.3 4.2 0.6
v -4.3 4.4 0.6
v -4.2 3.7 0.6
v -4.2 3.8 0.6
v -4.2 4.5 0.6
v -4.2 4.6 0.6
v -4.1 3.4 0.6
v -4.1 3.5 0.6
v -4.1 3.7 0.6
v -4.1 3.8 0.6
v -4.1 4.2 0.6
v -4.1 4.4 0.6
v -3.9 3.4 0.6
v -3.9 3.5 0.6
v -3.9 3.7 0.6
v -3.9 3.8 0.6
v -3.9 4.2 0.6
v -3.9 4.4 0.6
v -3.8 3.7 0.6
v -3.8 3.8 0.6
v -3.8 4.5 0.6
v -3.8 4.6 0.6
v -3.7 3.7 0.6
v -3.7 3.8 0.6
v -3.7 3.9 0.6
v -3.7 4 0.6
v -3.7 4.1 0.6
v -3.7 4.2 0.6
v -3.7 4.4 0.6
v -3.6 3.5 0.6
v -3.6 3.6 0.6
v -3.6 3.7 0.6
v -3.6 3.8 0.6
v -3.6 3.9 0.6
v -3.6 4 0.6
v -3.6 4.1 0.6
v -3.6 4.2 0.6
v -3.6 4.4 0.6
v -3.5 3.5 0.6
v -3.5 3.6 0.6
v -3.5 3.7 0.6
v -3.5 4.1 0.6
v -3.5 4.2 0.6
v -3.5 4.4 0.6
v -4.5 4 0.5
v -4.5 4.1 0.5
v -4.4 3.4 0.5
v -4.4 3.5 0.5
v -4.4 4 0.5
v -4.4 4.1 0.5
v -4.3 3.3 0.5
v -4.3 3.4 0.5
v -4.3 3.5 0.5
v -4.3 4.5 0.5
v -4.3 4.6 0.5
v -4.2 4.5 0.5
v -4.2 4.6 0.5
v -4.1 3.4 0.5
v -4.1 3.5 0.5
v -3.9 3.4 0.5
v -3.9 3.5 0.5
v -3.8 4.5 0.5
v -3.8 4.6 0.5
v -3.7 3.3 0.5
v -3.7 3.4 0.5
v -3.7 3.5 0.5
v -3.7 4.5 0.5
v -3.7 4.6 0.5
v -3.6 3.4 0.5
v -3.6 3.5 0.5
v -3.6 4 0.5
v -3.6 4.1 0.5
v -3.5 4 0.5
v -3.5 4.1 0.5
v -4.5 3.7 0.4
v -4.5 3.8 0.4
v -4.5 3.9 0.4
v -4.5 4 0.4
v -4.4 3.3 0.4
v -4.4 3.4 0.4
v -4.4 3.7 0.4
v -4.4 3.8 0.4
v -4.4 3.9 0.4
v -4.4 4 0.4
v -4.3 3.3 0.4
v -4.3 3.4 0.4
v -3.7 3.3 0.4
v -3.7 3.4 0.4
v -3.6 3.3 0.4
v -3.6 3.4 0.4
v -3.6 3.7 0.4
v -3.6 3.8 0.4
v -3.6 3.9 0.4
v -3.6 4 0.4
v -3.5 3.7 0.4
v -3.5 3.8 0.4
v -3.5 3.9 0.4
v -3.5 4 0.4
v -4.5 3.4 0.3
v -4.5 3.5 0.3
v -4.4 3.4 0.3
v -4.4 3.5 0.3
v -4.4 4 0.3
v -4.4 4.1 0.3
v -3.9 3.7 0.3
v -3.9 3.8 0.3
v -3.7 3.7 0.3
v -3.7 3.8 0.3
v -3.7 3.9 0.3
v -3.6 3.4 0.3
v -3.6 3.5 0.3
v -3.6 3.7 0.3
v -3.6 3.8 0.3
v -3.6 3.9 0.3
v -3.6 4 0.3
v -3.6 4.1 0.3
v -3.5 3.4 0.3
v -3.5 3.5 0.3
v -3.5 3.6 0.3
v -3.5 3.7 0.3
v -3.5 3.8 0.3
v -3.5 3.9 0.3
v -3.4 3.5 0.3
v -3.4 3.8 0.3
v -4.6 4 0.2
v -4.6 4.1 0.2
v -4.5 3.7 0.2
v -4.5 3.8 0.2
v -4.5 3.9 0.2
v -4.5 4 0.2
v -4.5 4.1 0.2
v -4.4 3.7 0.2
v -4.4 3.8 0.2
v -4.4 3.9 0.2
v -4.4 4 0.2
v -4.3 3.7 0.2
v -4.3 3.8 0.2
v -4 3.6 0.2
v -4 3.8 0.2
v -3.9 3.7 0.2
v -3.9 3.8 0.2
v -3.8 3.6 0.2
v -3.8 3.7 0.2
v -3.8 3.8 0.2
v -3.8 3.9 0.2
v -3.7 3.8 0.2
v -3.7 3.9 0.2
v -3.6 3.9 0.2
v -3.6 4 0.2
v -3.5 3.9 0.2
v -3.5 4 0.2
v -3.5 4.1 0.2
v -3.4 4 0.2
v -3.4 4.1 0.2
v -4.6 4.1 0.1
v -4.6 4.2 0.1
v -4.5 4.1 0.1
v -4.5 4.2 0.1
v -4.4 3.8 0.1
v -4.4 3.9 0.1
v -4.3 3.6 0.1
v -4.3 3.8 0.1
v -4.3 3.9 0.1
v -4.3 4 0.1
v -4.1 3.6 0.1
v -4.1 3.8 0.1
v -4 3.8 0.1
v -3.8 3.6 0.1
v -3.8 3.7 0.1
v -3.8 3.8 0.1
v -3.8 3.9 0.1
v -3.7 3.6 0.1
v -3.7 3.7 0.1
v -3.7 3.9 0.1
v -3.7 4 0.1
v -3.5 4.1 0.1
v -3.5 4.2 0.1
v -3.4 4.1 0.1
v -3.4 4.2 0.1
v -4.5 3.8 0
v -4.5 3.9 0
v -4.4 3.8 0
v -4.4 3.9 0
v -4.4 4 0
v -4.3 3.9 0
v -4.3 4 0
v -4.1 3.6 0
v -4.1 3.8 0
v -4 3.6 0
v -4 3.7 0
v -3.9 3.7 0
v -3.9 3.8 0
v -3.7 3.9 0
v -3.7 4 0
v -3.6 3.9 0
v -3.6 4 0
v -4.5 3.9 -0.1
v -4.5 4 -0.1
v -4.4 3.9 -0.1
v -4.4 4 -0.1
v -3.6 3.9 -0.1
v -3.6 4 -0.1
v -3.5 3.9 -0.1
v -3.5 4 -0.1
v -4.2 3.9 0.6
v -4.2 4 0.6
v -4.1 3.9 0.6
v -4.1 4 0.6
v -3.9 3.9 0.6
v -3.9 4 0.6
v -3.8 3.9 0.6
v -3.8 4 0.6
v -4.4 3.7 0.5
v -4.4 3.8 0.5
v -4.4 3.9 0.5
v -4.4 4 0.5
v -4.4 4.1 0.5
v -4.3 3.6 0.5
v -4.3 3.7 0.5
v -4.3 3.8 0.5
v -4.3 3.9 0.5
v -4.3 4 0.5
v -4.3 4.1 0.5
v -4.2 3.7 0.5
v -4.2 3.8 0.5
v -4.1 3.7 0.5
v -4.1 3.8 0.5
v -3.9 3.7 0.5
v -3.9 3.8 0.5
v -3.8 3.7 0.5
v -3.8 3.8 0.5
v -3.7 3.6 0.5
v -3.7 3.7 0.5
v -3.7 3.8 0.5
v -3.7 3.9 0.5
v -3.7 4 0.5
v -3.7 4.1 0.5
v -3.6 3.7 0.5
v -3.6 3.8 0.5
v -3.6 3.9 0.5
v -3.6 4 0.5
v -3.6 4.1 0.5
v -4.5 3.7 0.3
v -4.5 3.8 0.3
v -4.5 3.9 0.3
v -4.5 4 0.3
v -4.4 3.7 0.3
v -4.4 3.8 0.3
v -4.4 3.9 0.3
v -4.4 4 0.3
v -3.6 3.9 0.3
v -3.6 4 0.3
v -3.5 3.9 0.3
v -3.5 4 0.3
v -3.5 3.5 0.2
v -3.5 3.6 0.2
v -3.5 3.7 0.2
v -3.4 3.5 0.2
v -3.4 3.7 0.2
v -4.5 3.9 0.1
v -4.5 4 0.1
v -4.4 3.9 0.1
v -4.4 4 0.1
v -4 3.7 0.1
v -4 3.8 0.1
v -3.9 3.7 0.1
v -3.9 3.8 0.1
v -3.6 3.9 0.1
v -3.6 4 0.1
v -3.5 3.7 0.1
v -3.5 3.8 0.1
v -3.5 3.9 0.1
v -3.5 4 0.1
v -3.4 3.7 0.1
v -3.4 3.8 0.1
v -4.6 4 0
v -4.6 4.2 0
v -4.5 4 0
v -4.5 4.1 0
v -4.5 4.2 0
v -3.5 4 0
v -3.5 4.1 0
v -3.5 4.2 0
v -3.4 4 0
v -3.4 4.2 0
v -4.3 4.5 -0.1
v -4.3 4.6 -0.1
v -4.2 4.5 -0.1
v -4.2 4.6 -0.1
v -3.8 4.5 -0.1
v -3.8 4.6 -0.1
v -3.7 4.5 -0.1
v -3.7 4.6 -0.1
v -4.5 3.4 -0.2
v -4.5 3.5 -0.2
v -4.4 3.3 -0.2
v -4.4 3.4 -0.2
v -4.4 3.5 -0.2
v -4.3 3.3 -0.2
v -4.3 3.4 -0.2
v -3.7 3.3 -0.2
v -3.7 3.4 -0.2
v -3.6 3.3 -0.2
v -3.6 3.4 -0.2
v -3.6 3.5 -0.2
v -3.5 3.4 -0.2
v -3.5 3.5 -0.2
v -4.5 3.5 -0.3
v -4.5 3.7 -0.3
v -4.5 4.1 -0.3
v -4.5 4.4 -0.3
v -4.4 3.4 -0.3
v -4.4 3.5 -0.3
v -4.4 3.9 -0.3
v -4.4 4.1 -0.3
v -4.4 4.4 -0.3
v -4.3 3.3 -0.3
v -4.3 3.4 -0.3
v -4.3 3.5 -0.3
v -4.3 3.7 -0.3
v -4.3 3.9 -0.3
v -4.2 4.5 -0.3
v -4.2 4.6 -0.3
v -3.8 4.5 -0.3
v -3.8 4.6 -0.3
v -3.7 3.3 -0.3
v -3.7 3.4 -0.3
v -3.7 3.5 -0.3
v -3.7 3.6 -0.3
v -3.7 3.7 -0.3
v -3.7 3.9 -0.3
v -3.6 3.4 -0.3
v -3.6 3.5 -0.3
v -3.6 3.6 -0.3
v -3.6 3.7 -0.3
v -3.6 3.9 -0.3
v -3.6 4.4 -0.3
v -3.5 3.5 -0.3
v -3.5 4.4 -0.3
v -4.4 3.9 -0.4
v -4.4 4.1 -0.4
v -4.4 4.5 -0.4
v -4.3 3.5 -0.4
v -4.3 3.7 -0.4
v -4.3 3.9 -0.4
v -4.3 4.1 -0.4
v -4.3 4.4 -0.4
v -4.2 3.7 -0.4
v -4.2 4.1 -0.4
v -4.2 4.4 -0.4
v -4.2 4.5 -0.4
v -3.8 3.6 -0.4
v -3.8 3.7 -0.4
v -3.8 4.1 -0.4
v -3.8 4.4 -0.4
v -3.8 4.5 -0.4
v -3.7 3.5 -0.4
v -3.7 3.6 -0.4
v -3.7 3.7 -0.4
v -3.7 3.9 -0.4
v -3.7 4.1 -0.4
v -3.7 4.4 -0.4
v -3.6 3.9 -0.4
v -3.6 4.5 -0.4
v -4.3 4.1 -0.5
v -4.3 4.4 -0.5
v -4.2 3.7 -0.5
v -4.2 4.1 -0.5
v -4.2 4.4 -0.5
v -4.2 4.5 -0.5
v -3.9 4.1 -0.5
v -3.9 4.4 -0.5
v -3.8 3.7 -0.5
v -3.8 4.1 -0.5
v -3.8 4.4 -0.5
v -3.8 4.5 -0.5
v -3.7 4.1 -0.5
v -3.7 4.4 -0.5
v -4.3 3.3 0.5
v -3.7 3.3 0.5
v -4.4 3.3 0.4
v -4.3 3.3 0.4
v -3.7 3.3 0.4
v -3.6 3.3 0.4
v -4.4 3.3 -0.2
v -4.3 3.3 -0.2
v -3.7 3.3 -0.2
v -3.6 3.3 -0.2
v -4.3 3.3 -0.3
v -3.7 3.3 -0.3
v -4.1 3.4 0.6
v -3.9 3.4 0.6
v -4.4 3.4 0.5
v -4.3 3.4 0.5
v -4.1 3.4 0.5
v -3.9 3.4 0.5
v -3.7 3.4 0.5
v -3.6 3.4 0.5
v -4.4 3.4 0.4
v -4.3 3.4 0.4
v -3.7 3.4 0.4
v -3.6 3.4 0.4
v -4.5 3.4 0.3
v -4.4 3.4 0.3
v -3.6 3.4 0.3
v -3.5 3.4 0.3
v -4.5 3.4 -0.2
v -4.4 3.4 -0.2
v -4.3 3.4 -0.2
v -3.7 3.4 -0.2
v -3.6 3.4 -0.2
v -3.5 3.4 -0.2
v -4.4 3.4 -0.3
v -4.3 3.4 -0.3
v -3.7 3.4 -0.3
v -3.6 3.4 -0.3
v -4.5 3.5 0.6
v -4.4 3.5 0.6
v -4.1 3.5 0.6
v -3.9 3.5 0.6
v -3.6 3.5 0.6
v -3.5 3.5 0.6
v -4.4 3.5 0.5
v -4.3 3.5 0.5
v -4.1 3.5 0.5
v -3.9 3.5 0.5
v -3.7 3.5 0.5
v -3.6 3.5 0.5
v -4.5 3.5 0.3
v -4.4 3.5 0.3
v -3.6 3.5 0.3
v -3.5 3.5 0.3
v -3.4 3.5 0.3
v -3.5 3.5 0.2
v -3.4 3.5 0.2
v -4.5 3.5 -0.2
v -4.4 3.5 -0.2
v -3.6 3.5 -0.2
v -3.5 3.5 -0.2
v -4.5 3.5 -0.3
v -4.4 3.5 -0.3
v -4.3 3.5 -0.3
v -3.7 3.5 -0.3
v -3.6 3.5 -0.3
v -3.5 3.5 -0.3
v -4.3 3.5 -0.4
v -3.7 3.5 -0.4
v -4.4 3.6 0.7
v -3.6 3.6 0.7
v -4.4 3.6 0.6
v -3.6 3.6 0.6
v -3.9 3.7 0.3
v -3.7 3.7 0.3
v -3.9 3.7 0.2
v -3.8 3.7 0.2
v -3.5 3.7 0.2
v -3.4 3.7 0.2
v -3.8 3.7 0.1
v -3.7 3.7 0.1
v -3.5 3.7 0.1
v -3.4 3.7 0.1
v -4.2 3.7 -0.4
v -3.8 3.7 -0.4
v -4.2 3.7 -0.5
v -3.8 3.7 -0.5
v -4.1 3.8 0.1
v -4 3.8 0.1
v -3.9 3.8 0.1
v -4.1 3.8 0
v -3.9 3.8 0
v -4.2 3.9 0.7
v -4.1 3.9 0.7
v -3.9 3.9 0.7
v -3.8 3.9 0.7
v -4.4 3.9 0.6
v -4.3 3.9 0.6
v -4.2 3.9 0.6
v -4.1 3.9 0.6
v -3.9 3.9 0.6
v -3.8 3.9 0.6
v -3.7 3.9 0.6
v -3.6 3.9 0.6
v -4.4 3.9 0.5
v -4.3 3.9 0.5
v -3.7 3.9 0.5
v -3.6 3.9 0.5
v -4.5 3.9 0.4
v -4.4 3.9 0.4
v -3.6 3.9 0.4
v -3.5 3.9 0.4
v -4.5 3.9 0.3
v -4.4 3.9 0.3
v -3.6 3.9 0.3
v -3.5 3.9 0.3
v -4.5 3.9 0.2
v -4.4 3.9 0.2
v -4.5 3.9 0.1
v -4.4 3.9 0.1
v -4.4 3.9 -0.3
v -4.3 3.9 -0.3
v -3.7 3.9 -0.3
v -3.6 3.9 -0.3
v -4.4 3.9 -0.4
v -4.3 3.9 -0.4
v -3.7 3.9 -0.4
v -3.6 3.9 -0.4
v -4.1 4 0.9
v -3.9 4 0.9
v -4.1 4 0.8
v -3.9 4 0.8
v -4.3 4 0.7
v -4.2 4 0.7
v -4.1 4 0.7
v -3.9 4 0.7
v -3.8 4 0.7
v -3.7 4 0.7
v -4.3 4 0.6
v -4.2 4 0.6
v -4.1 4 0.6
v -3.9 4 0.6
v -3.8 4 0.6
v -3.7 4 0.6
v -4.5 4 0.5
v -4.4 4 0.5
v -4.3 4 0.5
v -3.7 4 0.5
v -3.6 4 0.5
v -3.5 4 0.5
v -4.5 4 0.4
v -4.4 4 0.4
v -3.6 4 0.4
v -3.5 4 0.4
v -4.5 4 0.3
v -4.4 4 0.3
v -3.6 4 0.3
v -3.5 4 0.3
v -4.6 4 0.2
v -4.5 4 0.2
v -4.4 4 0.2
v -3.6 4 0.2
v -3.5 4 0.2
v -3.4 4 0.2
v -4.5 4 0.1
v -4.4 4 0.1
v -4.3 4 0.1
v -3.7 4 0.1
v -3.6 4 0.1
v -3.5 4 0.1
v -4.6 4 0
v -4.5 4 0
v -4.4 4 0
v -4.3 4 0
v -3.7 4 0
v -3.6 4 0
v -3.5 4 0
v -3.4 4 0
v -4.5 4 -0.1
v -4.4 4 -0.1
v -3.6 4 -0.1
v -3.5 4 -0.1
v -4.4 4.1 0.7
v -4.3 4.1 0.7
v -3.7 4.1 0.7
v -3.6 4.1 0.7
v -4.5 4.1 0.6
v -4.4 4.1 0.6
v -4.3 4.1 0.6
v -3.7 4.1 0.6
v -3.6 4.1 0.6
v -3.5 4.1 0.6
v -4.5 4.1 0.5
v -4.4 4.1 0.5
v -4.3 4.1 0.5
v -3.7 4.1 0.5
v -3.6 4.1 0.5
v -3.5 4.1 0.5
v -4.4 4.1 0.3
v -3.6 4.1 0.3
v -4.3 4.1 -0.4
v -4.2 4.1 -0.4
v -3.8 4.1 -0.4
v -3.7 4.1 -0.4
v -4.3 4.1 -0.5
v -4.2 4.1 -0.5
v -3.8 4.1 -0.5
v -3.7 4.1 -0.5
v -4.3 4.4 0.7
v -4.1 4.4 0.7
v -3.9 4.4 0.7
v -3.7 4.4 0.7
v -4.3 4.4 0.6
v -4.1 4.4 0.6
v -3.9 4.4 0.6
v -3.7 4.4 0.6
v -4.3 3.6 0.5
v -3.7 3.6 0.5
v -4 3.6 0.2
v -3.8 3.6 0.2
v -4.3 3.6 0.1
v -4.1 3.6 0.1
v -3.8 3.6 0.1
v -3.7 3.6 0.1
v -4.1 3.6 0
v -4 3.6 0
v -4.4 3.7 0.7
v -3.6 3.7 0.7
v -4.5 3.7 0.6
v -4.4 3.7 0.6
v -4.3 3.7 0.6
v -4.2 3.7 0.6
v -4.1 3.7 0.6
v -3.9 3.7 0.6
v -3.8 3.7 0.6
v -3.7 3.7 0.6
v -3.6 3.7 0.6
v -3.5 3.7 0.6
v -4.4 3.7 0.5
v -4.3 3.7 0.5
v -4.2 3.7 0.5
v -4.1 3.7 0.5
v -3.9 3.7 0.5
v -3.8 3.7 0.5
v -3.7 3.7 0.5
v -3.6 3.7 0.5
v -4.5 3.7 0.4
v -4.4 3.7 0.4
v -3.6 3.7 0.4
v -3.5 3.7 0.4
v -4.5 3.7 0.3
v -4.4 3.7 0.3
v -3.7 3.7 0.3
v -3.6 3.7 0.3
v -4.5 3.7 0.2
v -4.4 3.7 0.2
v -4.3 3.7 0.2
v -4 3.7 0.1
v -3.9 3.7 0.1
v -4 3.7 0
v -3.9 3.7 0
v -4.4 3.8 0.6
v -4.3 3.8 0.6
v -4.2 3.8 0.6
v -4.1 3.8 0.6
v -3.9 3.8 0.6
v -3.8 3.8 0.6
v -3.7 3.8 0.6
v -3.6 3.8 0.6
v -4.4 3.8 0.5
v -4.3 3.8 0.5
v -4.2 3.8 0.5
v -4.1 3.8 0.5
v -3.9 3.8 0.5
v -3.8 3.8 0.5
v -3.7 3.8 0.5
v -3.6 3.8 0.5
v -4.5 3.8 0.4
v -4.4 3.8 0.4
v -3.6 3.8 0.4
v -3.5 3.8 0.4
v -4.5 3.8 0.3
v -4.4 3.8 0.3
v -3.9 3.8 0.3
v -3.7 3.8 0.3
v -3.6 3.8 0.3
v -3.5 3.8 0.3
v -3.4 3.8 0.3
v -4.5 3.8 0.2
v -4.4 3.8 0.2
v -4.3 3.8 0.2
v -4 3.8 0.2
v -3.9 3.8 0.2
v -3.8 3.8 0.2
v -3.7 3.8 0.2
v -4.5 3.8 0.1
v -4.4 3.8 0.1
v -4.3 3.8 0.1
v -4 3.8 0.1
v -3.8 3.8 0.1
v -3.5 3.8 0.1
v -3.4 3.8 0.1
v -4.5 3.8 0
v -4.4 3.8 0
v -3.7 3.9 0.3
v -3.6 3.9 0.3
v -3.5 3.9 0.3
v -3.8 3.9 0.2
v -3.7 3.9 0.2
v -3.6 3.9 0.2
v -3.5 3.9 0.2
v -4.4 3.9 0.1
v -4.3 3.9 0.1
v -3.8 3.9 0.1
v -3.7 3.9 0.1
v -3.6 3.9 0.1
v -3.5 3.9 0.1
v -4.5 3.9 0
v -4.4 3.9 0
v -4.3 3.9 0
v -3.7 3.9 0
v -3.6 3.9 0
v -3.5 3.9 0
v -4.5 3.9 -0.1
v -4.4 3.9 -0.1
v -3.6 3.9 -0.1
v -3.5 3.9 -0.1
v -4.1 4.1 0.9
v -3.9 4.1 0.9
v -4.1 4.1 0.8
v -3.9 4.1 0.8
v -4.6 4.1 0.2
v -4.5 4.1 0.2
v -3.5 4.1 0.2
v -3.4 4.1 0.2
v -4.6 4.1 0.1
v -4.5 4.1 0.1
v -3.5 4.1 0.1
v -3.4 4.1 0.1
v -4.1 4.2 0.8
v -3.9 4.2 0.8
v -4.3 4.2 0.7
v -4.1 4.2 0.7
v -3.9 4.2 0.7
v -3.7 4.2 0.7
v -4.3 4.2 0.6
v -4.1 4.2 0.6
v -3.9 4.2 0.6
v -3.7 4.2 0.6
v -4.6 4.2 0.1
v -4.5 4.2 0.1
v -3.5 4.2 0.1
v -3.4 4.2 0.1
v -4.6 4.2 0
v -4.5 4.2 0
v -3.5 4.2 0
v -3.4 4.2 0
v -4.5 4.4 0.6
v -4.4 4.4 0.6
v -3.6 4.4 0.6
v -3.5 4.4 0.6
v -4.5 4.4 0.5
v -4.4 4.4 0.5
v -3.6 4.4 0.3
v -3.5 4.4 0.3
v -3.6 4.4 0.2
v -3.5 4.4 0.2
v -4.5 4.4 0.1
v -4.4 4.4 0.1
v -4.5 4.4 -0.1
v -4.4 4.4 -0.1
v -4.5 4.4 -0.3
v -4.4 4.4 -0.3
v -3.6 4.4 -0.3
v -3.5 4.4 -0.3
v -4.3 4.4 -0.4
v -4.2 4.4 -0.4
v -3.8 4.4 -0.4
v -3.7 4.4 -0.4
v -4.3 4.4 -0.5
v -4.2 4.4 -0.5
v -3.8 4.4 -0.5
v -3.7 4.4 -0.5
v -4.4 4.5 0.7
v -4.3 4.5 0.7
v -3.7 4.5 0.7
v -3.6 4.5 0.7
v -4.3 4.5 0.6
v -4.2 4.5 0.6
v -3.8 4.5 0.6
v -3.7 4.5 0.6
v -4.3 4.5 0.5
v -4.2 4.5 0.5
v -3.8 4.5 0.5
v -3.7 4.5 0.5
v -4.3 4.5 -0.1
v -4.2 4.5 -0.1
v -3.8 4.5 -0.1
v -3.7 4.5 -0.1
v -4.2 4.5 -0.3
v -3.8 4.5 -0.3
v -4.4 4.5 -0.4
v -4.2 4.5 -0.4
v -3.8 4.5 -0.4
v -3.6 4.5 -0.4
v -4.2 4.5 -0.5
v -3.8 4.5 -0.5
v -4.2 4.6 0.6
v -3.8 4.6 0.6
v -4.3 4.6 0.5
v -4.2 4.6 0.5
v -3.8 4.6 0.5
v -3.7 4.6 0.5
v -3.9 4.6 0.3
v -3.8 4.6 0.3
v -4 4.6 0.2
v -3.9 4.6 0.2
v -3.8 4.6 0.2
v -4 4.6 0.1
v -3.9 4.6 0.1
v -3.8 4.6 0.1
v -3.9 4.6 0
v -3.8 4.6 0
v -4.3 4.6 -0.1
v -4.2 4.6 -0.1
v -3.8 4.6 -0.1
v -3.7 4.6 -0.1
v -4.2 4.6 -0.3
v -3.8 4.6 -0.3

# faces
f 3/6/1 2/6/1 1/6/1
f 4/6/1 2/6/1 3/6/1
f 5/6/1 2/6/1 4/6/1
f 6/6/1 2/6/1 5/6/1
f 10/6/1 8/6/1 7/6/1
f 11/6/1 8/6/1 10/6/1
f 13/6/1 10/6/1 9/6/1
f 13/6/1 12/6/1 11/6/1
f 13/6/1 11/6/1 10/6/1
f 14/6/1 12/6/1 13/6/1
f 15/6/1 12/6/1 14/6/1
f 16/8/1 14/8/1 13/8/1
f 17/8/1 14/8/1 16/8/1
f 18/8/1 14/8/1 17/8/1
f 19/8/1 14/8/1 18/8/1
f 20/7/1 15/7/1 14/7/1
f 20/8/1 14/8/1 19/8/1
f 21/6/1 12/6/1 15/6/1
f 21/7/1 15/7/1 20/7/1
f 22/6/1 12/6/1 21/6/1
f 23/6/1 12/6/1 22/6/1
f 24/6/1 12/6/1 23/6/1
f 25/4/1 18/4/1 17/4/1
f 26/4/1 18/4/1 25/4/1
f 27/4/1 20/4/1 19/4/1
f 28/8/1 21/8/1 20/8/1
f 28/4/1 20/4/1 27/4/1
f 29/7/1 22/7/1 21/7/1
f 29/8/1 21/8/1 28/8/1
f 30/6/1 23/6/1 22/6/1
f 30/7/1 22/7/1 29/7/1
f 35/8/1 30/8/1 29/8/1
f 36/6/1 23/6/1 30/6/1
f 36/8/1 30/8/1 35/8/1
f 38/4/1 32/4/1 31/4/1
f 39/4/1 32/4/1 38/4/1
f 40/4/1 34/4/1 33/4/1
f 41/4/1 34/4/1 40/4/1
f 43/6/1 23/6/1 36/6/1
f 45/8/1 39/8/1 38/8/1
f 45/8/1 38/8/1 37/8/1
f 45/8/1 40/8/1 39/8/1
f 46/8/1 40/8/1 45/8/1
f 48/8/1 43/8/1 42/8/1
f 49/6/1 23/6/1 43/6/1
f 49/8/1 43/8/1 48/8/1
f 50/7/1 24/7/1 23/7/1
f 50/6/1 23/6/1 49/6/1
f 51/7/1 24/7/1 50/7/1
f 52/7/1 47/7/1 46/7/1
f 52/7/1 45/7/1 44/7/1
f 52/7/1 46/7/1 45/7/1
f 53/7/1 47/7/1 52/7/1
f 54/6/1 49/6/1 48/6/1
f 54/6/1 51/6/1 50/6/1
f 54/6/1 50/6/1 49/6/1
f 55/6/1 53/6/1 52/6/1
f 55/6/1 54/6/1 53/6/1
f 56/6/1 54/6/1 55/6/1
f 57/6/1 54/6/1 56/6/1
f 58/6/1 51/6/1 54/6/1
f 58/6/1 54/6/1 57/6/1
f 59/7/1 56/7/1 55/7/1
f 60/6/1 57/6/1 56/6/1
f 60/7/1 56/7/1 59/7/1
f 61/7/1 58/7/1 57/7/1
f 61/6/1 57/6/1 60/6/1
f 62/6/1 51/6/1 58/6/1
f 62/7/1 58/7/1 61/7/1
f 63/6/1 51/6/1 62/6/1
f 67/6/1 65/6/1 64/6/1
f 68/6/1 65/6/1 67/6/1
f 69/6/1 65/6/1 68/6/1
f 71/6/1 67/6/1 66/6/1
f 71/6/1 68/6/1 67/6/1
f 72/6/1 68/6/1 71/6/1
f 73/6/1 70/6/1 69/6/1
f 74/6/1 70/6/1 73/6/1
f 77/8/1 76/8/1 75/8/1
f 78/8/1 76/8/1 77/8/1
f 80/4/1 79/4/1 78/4/1
f 81/4/1 79/4/1 80/4/1
f 86/3/1 83/3/1 82/3/1
f 87/3/1 83/3/1 86/3/1
f 91/4/1 85/4/1 84/4/1
f 92/4/1 85/4/1 91/4/1
f 93/8/1 88/8/1 87/8/1
f 94/8/1 88/8/1 93/8/1
f 96/8/1 92/8/1 91/8/1
f 97/8/1 92/8/1 96/8/1
f 98/7/1 90/7/1 89/7/1
f 99/7/1 90/7/1 98/7/1
f 100/6/1 96/6/1 95/6/1
f 101/6/1 100/6/1 95/6/1
f 102/6/1 101/6/1 95/6/1
f 106/6/1 99/6/1 98/6/1
f 107/6/1 105/6/1 104/6/1
f 107/6/1 106/6/1 105/6/1
f 107/6/1 102/6/1 95/6/1
f 107/6/1 103/6/1 102/6/1
f 107/6/1 104/6/1 103/6/1
f 108/6/1 99/6/1 106/6/1
f 108/6/1 106/6/1 107/6/1
f 113/9/1 110/9/1 109/9/1
f 114/9/1 110/9/1 113/9/1
f 115/6/1 112/6/1 111/6/1
f 116/6/1 112/6/1 115/6/1
f 119/6/1 118/6/1 117/6/1
f 120/6/1 118/6/1 119/6/1
f 123/7/1 120/7/1 119/7/1
f 124/7/1 120/7/1 123/7/1
f 127/3/1 122/3/1 121/3/1
f 128/3/1 122/3/1 127/3/1
f 129/8/1 126/8/1 125/8/1
f 130/8/1 126/8/1 129/8/1
f 133/6/1 132/6/1 131/6/1
f 134/6/1 132/6/1 133/6/1
f 137/6/1 136/6/1 135/6/1
f 138/6/1 136/6/1 137/6/1
f 143/4/1 140/4/1 139/4/1
f 144/4/1 140/4/1 143/4/1
f 147/4/1 146/4/1 145/4/1
f 148/4/1 146/4/1 147/4/1
f 149/6/1 142/6/1 141/6/1
f 150/6/1 142/6/1 149/6/1
f 157/6/1 152/6/1 151/6/1
f 158/6/1 152/6/1 157/6/1
f 159/6/1 154/6/1 153/6/1
f 160/6/1 154/6/1 159/6/1
f 161/6/1 156/6/1 155/6/1
f 162/6/1 156/6/1 161/6/1
f 165/9/1 164/9/1 163/9/1
f 166/9/1 164/9/1 165/9/1
f 170/5/1 168/5/1 167/5/1
f 171/6/1 169/6/1 168/6/1
f 171/5/1 168/5/1 170/5/1
f 172/6/1 169/6/1 171/6/1
f 173/6/1 172/6/1 171/6/1
f 174/6/1 172/6/1 173/6/1
f 176/5/1 175/5/1 174/5/1
f 177/5/1 175/5/1 176/5/1
f 180/2/1 179/2/1 178/2/1
f 181/2/1 179/2/1 180/2/1
f 182/2/1 180/2/1 178/2/1
f 183/2/1 180/2/1 182/2/1
f 190/4/1 185/4/1 184/4/1
f 191/4/1 185/4/1 190/4/1
f 192/2/1 187/2/1 186/2/1
f 193/2/1 187/2/1 192/2/1
f 194/3/1 189/3/1 188/3/1
f 195/3/1 189/3/1 194/3/1
f 198/4/1 197/4/1 196/4/1
f 199/4/1 197/4/1 198/4/1
f 202/2/1 201/2/1 200/2/1
f 203/2/1 201/2/1 202/2/1
f 207/3/1 205/3/1 204/3/1
f 208/3/1 205/3/1 207/3/1
f 209/3/1 205/3/1 208/3/1
f 210/4/1 207/4/1 206/4/1
f 211/4/1 207/4/1 210/4/1
f 216/2/1 213/2/1 212/2/1
f 217/2/1 213/2/1 216/2/1
f 218/4/1 215/4/1 214/4/1
f 219/4/1 215/4/1 218/4/1
f 222/6/1 221/6/1 220/6/1
f 223/6/1 221/6/1 222/6/1
f 226/4/1 225/4/1 224/4/1
f 227/4/1 225/4/1 226/4/1
f 233/4/1 229/4/1 228/4/1
f 234/4/1 229/4/1 233/4/1
f 235/4/1 231/4/1 230/4/1
f 236/4/1 231/4/1 235/4/1
f 237/8/1 234/8/1 233/8/1
f 237/8/1 233/8/1 232/8/1
f 238/8/1 234/8/1 237/8/1
f 239/4/2 240/4/2 241/4/2
f 241/4/2 240/4/2 242/4/2
f 243/4/2 244/4/2 248/4/2
f 248/4/2 244/4/2 249/4/2
f 245/4/2 246/4/2 250/4/2
f 250/4/2 246/4/2 251/4/2
f 248/8/2 249/8/2 252/8/2
f 247/8/2 248/8/2 252/8/2
f 252/8/2 249/8/2 253/8/2
f 254/3/2 255/3/2 257/3/2
f 257/3/2 255/3/2 258/3/2
f 256/4/2 257/4/2 259/4/2
f 259/4/2 257/4/2 260/4/2
f 258/3/2 255/3/2 261/3/2
f 261/3/2 255/3/2 262/3/2
f 263/4/2 264/4/2 265/4/2
f 265/4/2 264/4/2 266/4/2
f 267/6/2 268/6/2 269/6/2
f 269/6/2 268/6/2 270/6/2
f 273/4/2 274/4/2 275/4/2
f 275/4/2 274/4/2 276/4/2
f 271/3/2 272/3/2 277/3/2
f 277/3/2 272/3/2 278/3/2
f 279/4/2 280/4/2 281/4/2
f 281/4/2 280/4/2 282/4/2
f 283/9/2 284/9/2 285/9/2
f 285/9/2 284/9/2 286/9/2
f 287/5/2 288/5/2 290/5/2
f 288/6/2 289/6/2 291/6/2
f 290/5/2 288/5/2 291/5/2
f 291/6/2 289/6/2 292/6/2
f 291/6/2 292/6/2 293/6/2
f 293/6/2 292/6/2 294/6/2
f 294/5/2 295/5/2 296/5/2
f 296/5/2 295/5/2 297/5/2
f 298/2/2 299/2/2 302/2/2
f 302/2/2 299/2/2 303/2/2
f 300/4/2 301/4/2 306/4/2
f 306/4/2 301/4/2 307/4/2
f 308/4/2 309/4/2 310/4/2
f 310/4/2 309/4/2 311/4/2
f 304/6/2 305/6/2 312/6/2
f 312/6/2 305/6/2 313/6/2
f 314/6/2 315/6/2 320/6/2
f 320/6/2 315/6/2 321/6/2
f 316/6/2 317/6/2 322/6/2
f 322/6/2 317/6/2 323/6/2
f 318/6/2 319/6/2 324/6/2
f 324/6/2 319/6/2 325/6/2
f 326/9/2 327/9/2 330/9/2
f 330/9/2 327/9/2 331/9/2
f 328/6/2 329/6/2 332/6/2
f 332/6/2 329/6/2 333/6/2
f 334/6/2 335/6/2 336/6/2
f 336/6/2 335/6/2 337/6/2
f 336/7/2 337/7/2 338/7/2
f 338/7/2 337/7/2 339/7/2
f 338/6/2 339/6/2 342/6/2
f 342/6/2 339/6/2 343/6/2
f 340/3/2 341/3/2 346/3/2
f 346/3/2 341/3/2 347/3/2
f 344/8/2 345/8/2 348/8/2
f 348/8/2 345/8/2 349/8/2
f 350/7/2 351/7/2 352/7/2
f 352/7/2 351/7/2 353/7/2
f 354/6/2 355/6/2 356/6/2
f 356/6/2 355/6/2 357/6/2
f 358/6/2 359/6/2 361/6/2
f 361/6/2 359/6/2 362/6/2
f 362/6/2 359/6/2 363/6/2
f 360/6/2 361/6/2 365/6/2
f 361/6/2 362/6/2 365/6/2
f 365/6/2 362/6/2 366/6/2
f 363/6/2 364/6/2 367/6/2
f 367/6/2 364/6/2 368/6/2
f 369/8/2 370/8/2 371/8/2
f 371/8/2 370/8/2 372/8/2
f 372/4/2 373/4/2 374/4/2
f 374/4/2 373/4/2 375/4/2
f 376/4/2 377/4/2 382/4/2
f 382/4/2 377/4/2 383/4/2
f 378/8/2 379/8/2 384/8/2
f 384/8/2 379/8/2 385/8/2
f 382/8/2 383/8/2 387/8/2
f 387/8/2 383/8/2 388/8/2
f 386/6/2 387/6/2 389/6/2
f 386/6/2 389/6/2 390/6/2
f 380/6/2 381/6/2 393/6/2
f 391/6/2 392/6/2 394/6/2
f 392/6/2 393/6/2 394/6/2
f 390/6/2 391/6/2 394/6/2
f 386/6/2 390/6/2 394/6/2
f 393/6/2 381/6/2 395/6/2
f 394/6/2 393/6/2 395/6/2
f 396/6/2 397/6/2 399/6/2
f 399/6/2 397/6/2 400/6/2
f 400/6/2 397/6/2 401/6/2
f 401/6/2 397/6/2 402/6/2
f 398/6/2 399/6/2 404/6/2
f 404/6/2 399/6/2 405/6/2
f 400/6/2 401/6/2 406/6/2
f 406/6/2 401/6/2 407/6/2
f 401/7/2 402/7/2 408/7/2
f 407/6/2 401/6/2 408/6/2
f 402/6/2 403/6/2 409/6/2
f 408/7/2 402/7/2 409/7/2
f 404/8/2 405/8/2 410/8/2
f 410/8/2 405/8/2 411/8/2
f 411/8/2 405/8/2 412/8/2
f 406/8/2 407/8/2 413/8/2
f 407/7/2 408/7/2 414/7/2
f 413/8/2 407/8/2 414/8/2
f 408/6/2 409/6/2 415/6/2
f 414/7/2 408/7/2 415/7/2
f 415/6/2 409/6/2 416/6/2
f 411/4/2 412/4/2 417/4/2
f 417/4/2 412/4/2 418/4/2
f 414/8/2 415/8/2 419/8/2
f 415/7/2 416/7/2 420/7/2
f 419/8/2 415/8/2 420/8/2
f 416/6/2 409/6/2 421/6/2
f 420/7/2 416/7/2 421/7/2
f 419/2/2 420/2/2 423/2/2
f 418/2/2 419/2/2 423/2/2
f 423/2/2 420/2/2 424/2/2
f 424/2/2 420/2/2 425/2/2
f 420/8/2 421/8/2 426/8/2
f 425/2/2 420/2/2 426/2/2
f 421/6/2 409/6/2 427/6/2
f 426/8/2 421/8/2 427/8/2
f 422/4/2 423/4/2 429/4/2
f 429/4/2 423/4/2 430/4/2
f 424/4/2 425/4/2 431/4/2
f 431/4/2 425/4/2 432/4/2
f 427/6/2 409/6/2 434/6/2
f 429/8/2 430/8/2 436/8/2
f 428/8/2 429/8/2 436/8/2
f 430/8/2 431/8/2 436/8/2
f 436/8/2 431/8/2 437/8/2
f 433/8/2 434/8/2 439/8/2
f 434/6/2 409/6/2 440/6/2
f 439/8/2 434/8/2 440/8/2
f 437/7/2 438/7/2 441/7/2
f 435/7/2 436/7/2 441/7/2
f 436/7/2 437/7/2 441/7/2
f 441/7/2 438/7/2 442/7/2
f 439/6/2 440/6/2 443/6/2
f 441/6/2 442/6/2 444/6/2
f 442/6/2 443/6/2 444/6/2
f 444/6/2 443/6/2 445/6/2
f 441/6/2 444/6/2 446/6/2
f 444/7/2 445/7/2 447/7/2
f 446/6/2 444/6/2 447/6/2
f 445/6/2 443/6/2 448/6/2
f 447/7/2 445/7/2 448/7/2
f 409/6/2 403/6/2 449/6/2
f 448/6/2 443/6/2 449/6/2
f 440/6/2 409/6/2 449/6/2
f 443/6/2 440/6/2 449/6/2
f 450/2/2 451/2/2 452/2/2
f 450/2/2 452/2/2 454/2/2
f 452/2/2 453/2/2 454/2/2
f 454/2/2 453/2/2 455/2/2
f 456/6/2 457/6/2 458/6/2
f 458/6/2 457/6/2 459/6/2
f 459/6/2 457/6/2 460/6/2
f 460/6/2 457/6/2 461/6/2
f 464/5/3 463/5/3 462/5/3
f 465/5/3 463/5/3 464/5/3
f 468/6/3 467/6/3 466/6/3
f 469/6/3 467/6/3 468/6/3
f 475/6/3 473/6/3 472/6/3
f 476/6/3 473/6/3 475/6/3
f 477/6/3 473/6/3 476/6/3
f 478/6/3 473/6/3 477/6/3
f 480/8/3 475/8/3 474/8/3
f 481/4/3 480/4/3 479/4/3
f 482/8/3 475/8/3 480/8/3
f 482/4/3 480/4/3 481/4/3
f 483/6/3 476/6/3 475/6/3
f 483/8/3 475/8/3 482/8/3
f 484/6/3 476/6/3 483/6/3
f 485/5/3 478/5/3 477/5/3
f 489/5/3 485/5/3 484/5/3
f 490/5/3 478/5/3 485/5/3
f 490/5/3 485/5/3 489/5/3
f 491/4/3 487/4/3 486/4/3
f 492/8/3 488/8/3 487/8/3
f 492/4/3 487/4/3 491/4/3
f 493/8/3 488/8/3 492/8/3
f 494/6/3 489/6/3 488/6/3
f 494/8/3 488/8/3 493/8/3
f 495/6/3 489/6/3 494/6/3
f 496/5/3 478/5/3 490/5/3
f 497/5/3 478/5/3 496/5/3
f 498/8/3 471/8/3 470/8/3
f 499/8/3 471/8/3 498/8/3
f 500/6/3 495/6/3 494/6/3
f 500/6/3 497/6/3 496/6/3
f 500/6/3 496/6/3 495/6/3
f 501/6/3 497/6/3 500/6/3
f 509/6/3 503/6/3 502/6/3
f 510/8/3 504/8/3 503/8/3
f 510/6/3 503/6/3 509/6/3
f 511/8/3 504/8/3 510/8/3
f 515/7/3 506/7/3 505/7/3
f 516/6/3 507/6/3 506/6/3
f 516/7/3 506/7/3 515/7/3
f 517/7/3 508/7/3 507/7/3
f 517/6/3 507/6/3 516/6/3
f 518/7/3 508/7/3 517/7/3
f 519/4/3 512/4/3 511/4/3
f 520/4/3 512/4/3 519/4/3
f 521/4/3 514/4/3 513/4/3
f 522/8/3 515/8/3 514/8/3
f 522/4/3 514/4/3 521/4/3
f 523/8/3 515/8/3 522/8/3
f 531/9/3 510/9/3 509/9/3
f 532/4/3 527/4/3 526/4/3
f 533/4/3 527/4/3 532/4/3
f 534/4/3 525/4/3 524/4/3
f 535/4/3 525/4/3 534/4/3
f 536/9/3 531/9/3 530/9/3
f 537/9/3 510/9/3 531/9/3
f 537/9/3 531/9/3 536/9/3
f 542/4/3 539/4/3 538/4/3
f 543/4/3 539/4/3 542/4/3
f 544/6/3 529/6/3 528/6/3
f 545/6/3 529/6/3 544/6/3
f 551/4/3 541/4/3 540/4/3
f 552/4/3 541/4/3 551/4/3
f 553/9/3 510/9/3 537/9/3
f 554/9/3 510/9/3 553/9/3
f 555/4/3 547/4/3 546/4/3
f 556/4/3 547/4/3 555/4/3
f 557/4/3 549/4/3 548/4/3
f 558/8/3 550/8/3 549/8/3
f 558/4/3 549/4/3 557/4/3
f 559/8/3 550/8/3 558/8/3
f 562/6/3 554/6/3 553/6/3
f 563/8/3 555/8/3 554/8/3
f 563/6/3 554/6/3 562/6/3
f 564/8/3 555/8/3 563/8/3
f 565/7/3 560/7/3 559/7/3
f 566/6/3 561/6/3 560/6/3
f 566/7/3 560/7/3 565/7/3
f 567/6/3 561/6/3 566/6/3
f 572/8/3 569/8/3 568/8/3
f 573/8/3 569/8/3 572/8/3
f 575/6/3 571/6/3 570/6/3
f 576/6/3 571/6/3 575/6/3
f 579/6/3 578/6/3 577/6/3
f 580/6/3 578/6/3 579/6/3
f 581/9/3 576/9/3 575/9/3
f 581/9/3 575/9/3 574/9/3
f 582/9/3 576/9/3 581/9/3
f 583/9/3 581/9/3 574/9/3
f 587/9/3 584/9/3 583/9/3
f 587/9/3 583/9/3 574/9/3
f 588/9/3 584/9/3 587/9/3
f 589/9/3 584/9/3 588/9/3
f 590/6/3 586/6/3 585/6/3
f 591/6/3 586/6/3 590/6/3
f 592/6/3 589/6/3 588/6/3
f 593/6/3 589/6/3 592/6/3
f 596/8/3 595/8/3 594/8/3
f 597/8/3 595/8/3 596/8/3
f 604/4/3 599/4/3 598/4/3
f 605/4/3 599/4/3 604/4/3
f 606/4/3 601/4/3 600/4/3
f 607/4/3 601/4/3 606/4/3
f 608/6/3 603/6/3 602/6/3
f 609/6/3 603/6/3 608/6/3
f 612/6/3 611/6/3 610/6/3
f 613/6/3 611/6/3 612/6/3
f 618/4/3 615/4/3 614/4/3
f 619/4/3 615/4/3 618/4/3
f 620/4/3 617/4/3 616/4/3
f 621/4/3 617/4/3 620/4/3
f 624/6/3 623/6/3 622/6/3
f 625/6/3 623/6/3 624/6/3
f 630/2/3 629/2/3 628/2/3
f 631/2/3 629/2/3 630/2/3
f 635/2/3 631/2/3 630/2/3
f 635/2/3 632/2/3 631/2/3
f 636/2/3 632/2/3 635/2/3
f 637/2/3 632/2/3 636/2/3
f 638/3/3 627/3/3 626/3/3
f 639/3/3 627/3/3 638/3/3
f 640/6/3 634/6/3 633/6/3
f 641/6/3 634/6/3 640/6/3
f 644/2/3 637/2/3 636/2/3
f 645/2/3 637/2/3 644/2/3
f 646/2/3 643/2/3 642/2/3
f 646/2/3 644/2/3 643/2/3
f 646/2/3 642/2/3 641/2/3
f 647/2/3 644/2/3 646/2/3
f 653/6/3 649/6/3 648/6/3
f 654/6/3 649/6/3 653/6/3
f 655/4/3 651/4/3 650/4/3
f 656/4/3 651/4/3 655/4/3
f 657/4/3 653/4/3 652/4/3
f 658/4/3 653/4/3 657/4/3
f 659/3/3 656/3/3 655/3/3
f 660/3/3 656/3/3 659/3/3
f 663/2/3 662/2/3 661/2/3
f 664/2/3 662/2/3 663/2/3
f 665/2/3 663/2/3 661/2/3
f 666/2/3 663/2/3 665/2/3
f 669/2/3 668/2/3 667/2/3
f 670/2/3 668/2/3 669/2/3
f 673/4/3 672/4/3 671/4/3
f 674/4/3 672/4/3 673/4/3
f 676/6/3 675/6/3 674/6/3
f 677/6/3 675/6/3 676/6/3
f 680/6/3 679/6/3 678/6/3
f 681/6/3 679/6/3 680/6/3
f 685/3/3 683/3/3 682/3/3
f 686/3/3 683/3/3 685/3/3
f 688/3/3 685/3/3 684/3/3
f 688/3/3 687/3/3 686/3/3
f 688/3/3 686/3/3 685/3/3
f 689/3/3 687/3/3 688/3/3
f 690/3/3 687/3/3 689/3/3
f 693/3/3 687/3/3 690/3/3
f 694/3/3 687/3/3 693/3/3
f 695/3/3 692/3/3 691/3/3
f 696/3/3 692/3/3 695/3/3
f 697/3/3 687/3/3 694/3/3
f 698/3/3 687/3/3 697/3/3
f 701/6/3 700/6/3 699/6/3
f 702/6/3 700/6/3 701/6/3
f 705/8/3 704/8/3 703/8/3
f 706/8/3 704/8/3 705/8/3
f 708/8/3 707/8/3 706/8/3
f 709/8/3 707/8/3 708/8/3
f 712/3/3 711/3/3 710/3/3
f 713/3/3 711/3/3 712/3/3
f 714/3/3 711/3/3 713/3/3
f 715/3/3 711/3/3 714/3/3
f 718/8/3 717/8/3 716/8/3
f 719/8/3 717/8/3 718/8/3
f 722/6/3 721/6/3 720/6/3
f 723/6/3 721/6/3 722/6/3
f 726/6/3 725/6/3 724/6/3
f 727/6/3 725/6/3 726/6/3
f 728/4/4 729/4/4 730/4/4
f 730/4/4 729/4/4 731/4/4
f 732/4/4 733/4/4 734/4/4
f 734/4/4 733/4/4 735/4/4
f 736/4/4 737/4/4 742/4/4
f 742/4/4 737/4/4 743/4/4
f 738/4/4 739/4/4 744/4/4
f 739/8/4 740/8/4 745/8/4
f 744/4/4 739/4/4 745/4/4
f 745/8/4 740/8/4 746/8/4
f 741/6/4 742/6/4 747/6/4
f 741/6/4 747/6/4 749/6/4
f 747/4/4 748/4/4 749/4/4
f 749/4/4 748/4/4 750/4/4
f 741/6/4 749/6/4 751/6/4
f 741/6/4 751/6/4 753/6/4
f 751/4/4 752/4/4 753/4/4
f 753/4/4 752/4/4 754/4/4
f 741/6/4 753/6/4 755/6/4
f 755/6/4 753/6/4 756/6/4
f 745/6/4 746/6/4 759/6/4
f 759/6/4 746/6/4 760/6/4
f 756/4/4 757/4/4 761/4/4
f 761/4/4 757/4/4 762/4/4
f 758/4/4 759/4/4 763/4/4
f 759/8/4 760/8/4 764/8/4
f 763/4/4 759/4/4 764/4/4
f 764/8/4 760/8/4 765/8/4
f 766/4/4 767/4/4 770/4/4
f 770/4/4 767/4/4 771/4/4
f 768/4/4 769/4/4 772/4/4
f 772/4/4 769/4/4 773/4/4
f 774/4/4 775/4/4 776/4/4
f 776/4/4 775/4/4 777/4/4
f 778/2/4 779/2/4 781/2/4
f 779/2/4 780/2/4 781/2/4
f 781/2/4 780/2/4 782/2/4
f 783/4/4 784/4/4 785/4/4
f 785/4/4 784/4/4 786/4/4
f 787/2/4 788/2/4 789/2/4
f 789/2/4 788/2/4 790/2/4
f 791/4/4 792/4/4 795/4/4
f 795/4/4 792/4/4 796/4/4
f 793/2/4 794/2/4 797/2/4
f 797/2/4 794/2/4 798/2/4
f 799/6/4 800/6/4 801/6/4
f 801/6/4 800/6/4 802/6/4
f 802/6/4 800/6/4 803/6/4
f 804/6/4 805/6/4 807/6/4
f 805/6/4 806/6/4 807/6/4
f 807/6/4 806/6/4 808/6/4
f 809/6/4 810/6/4 811/6/4
f 811/6/4 810/6/4 812/6/4
f 813/6/4 814/6/4 815/6/4
f 815/6/4 814/6/4 816/6/4
f 817/6/4 818/6/4 820/6/4
f 820/6/4 818/6/4 821/6/4
f 819/6/4 820/6/4 822/6/4
f 822/6/4 820/6/4 823/6/4
f 824/6/4 825/6/4 826/6/4
f 826/6/4 825/6/4 827/6/4
f 827/6/4 828/6/4 829/6/4
f 829/6/4 828/6/4 830/6/4
f 831/6/4 832/6/4 836/6/4
f 832/7/4 833/7/4 837/7/4
f 833/6/4 834/6/4 838/6/4
f 837/7/4 833/7/4 838/7/4
f 838/6/4 834/6/4 839/6/4
f 835/6/4 836/6/4 841/6/4
f 836/6/4 832/6/4 842/6/4
f 841/6/4 836/6/4 842/6/4
f 832/7/4 837/7/4 843/7/4
f 842/6/4 832/6/4 843/6/4
f 843/7/4 837/7/4 844/7/4
f 845/6/4 846/6/4 847/6/4
f 847/6/4 846/6/4 848/6/4
f 841/6/4 842/6/4 849/6/4
f 840/6/4 841/6/4 849/6/4
f 849/6/4 842/6/4 850/6/4
f 850/6/4 842/6/4 851/6/4
f 850/6/4 851/6/4 855/6/4
f 851/6/4 852/6/4 855/6/4
f 855/6/4 852/6/4 856/6/4
f 852/7/4 853/7/4 857/7/4
f 856/6/4 852/6/4 857/6/4
f 853/6/4 854/6/4 858/6/4
f 857/7/4 853/7/4 858/7/4
f 858/6/4 854/6/4 859/6/4
f 856/6/4 857/6/4 861/6/4
f 859/6/4 860/6/4 861/6/4
f 858/6/4 859/6/4 861/6/4
f 857/6/4 858/6/4 861/6/4
f 861/6/4 860/6/4 862/6/4
f 863/7/4 864/7/4 868/7/4
f 864/6/4 865/6/4 869/6/4
f 868/7/4 864/7/4 869/7/4
f 869/6/4 865/6/4 870/6/4
f 866/6/4 867/6/4 871/6/4
f 867/7/4 868/7/4 871/7/4
f 868/7/4 869/7/4 871/7/4
f 871/7/4 869/7/4 872/7/4
f 870/6/4 865/6/4 873/6/4
f 873/6/4 865/6/4 874/6/4
f 866/6/4 871/6/4 875/6/4
f 875/6/4 871/6/4 876/6/4
f 866/6/4 875/6/4 880/6/4
f 875/7/4 876/7/4 881/7/4
f 880/6/4 875/6/4 881/6/4
f 876/6/4 877/6/4 882/6/4
f 881/7/4 876/7/4 882/7/4
f 882/6/4 877/6/4 883/6/4
f 883/6/4 877/6/4 884/6/4
f 878/6/4 879/6/4 885/6/4
f 883/6/4 884/6/4 886/6/4
f 884/6/4 885/6/4 886/6/4
f 885/6/4 879/6/4 887/6/4
f 886/6/4 885/6/4 887/6/4
f 888/6/4 889/6/4 891/6/4
f 891/6/4 889/6/4 892/6/4
f 890/6/4 891/6/4 894/6/4
f 892/6/4 893/6/4 894/6/4
f 891/6/4 892/6/4 894/6/4
f 894/6/4 893/6/4 895/6/4
f 890/6/4 894/6/4 896/6/4
f 894/7/4 895/7/4 897/7/4
f 896/6/4 894/6/4 897/6/4
f 895/6/4 893/6/4 898/6/4
f 897/7/4 895/7/4 898/7/4
f 898/6/4 893/6/4 899/6/4
f 897/7/4 898/7/4 900/7/4
f 900/7/4 898/7/4 901/7/4
f 905/9/5 903/9/5 902/9/5
f 906/9/5 903/9/5 905/9/5
f 908/6/5 905/6/5 904/6/5
f 908/6/5 907/6/5 906/6/5
f 908/6/5 906/6/5 905/6/5
f 909/6/5 907/6/5 908/6/5
f 910/6/5 907/6/5 909/6/5
f 911/6/5 907/6/5 910/6/5
f 912/6/5 910/6/5 909/6/5
f 913/6/5 910/6/5 912/6/5
f 918/9/5 915/9/5 914/9/5
f 919/9/5 915/9/5 918/9/5
f 922/6/5 917/6/5 916/6/5
f 923/6/5 917/6/5 922/6/5
f 924/6/5 921/6/5 920/6/5
f 925/6/5 921/6/5 924/6/5
f 930/6/5 927/6/5 926/6/5
f 931/6/5 927/6/5 930/6/5
f 934/6/5 929/6/5 928/6/5
f 935/6/5 929/6/5 934/6/5
f 936/6/5 932/6/5 931/6/5
f 937/6/5 932/6/5 936/6/5
f 938/6/5 934/6/5 933/6/5
f 939/6/5 934/6/5 938/6/5
f 946/6/5 941/6/5 940/6/5
f 946/9/5 942/9/5 941/9/5
f 947/9/5 942/9/5 946/9/5
f 948/9/5 942/9/5 947/9/5
f 949/9/5 944/9/5 943/9/5
f 950/9/5 944/9/5 949/9/5
f 951/6/5 945/6/5 944/6/5
f 951/9/5 944/9/5 950/9/5
f 952/6/5 946/6/5 940/6/5
f 953/6/5 946/6/5 952/6/5
f 954/6/5 945/6/5 951/6/5
f 955/6/5 945/6/5 954/6/5
f 957/2/5 956/2/5 955/2/5
f 958/2/5 956/2/5 957/2/5
f 963/6/5 960/6/5 959/6/5
f 964/6/5 960/6/5 963/6/5
f 967/6/5 962/6/5 961/6/5
f 968/6/5 962/6/5 967/6/5
f 969/6/5 966/6/5 965/6/5
f 970/6/5 966/6/5 969/6/5
f 973/8/5 972/8/5 971/8/5
f 974/8/5 972/8/5 973/8/5
f 977/2/5 976/2/5 975/2/5
f 978/2/5 976/2/5 977/2/5
f 981/2/5 976/2/5 978/2/5
f 982/2/5 976/2/5 981/2/5
f 983/2/5 980/2/5 979/2/5
f 984/2/5 980/2/5 983/2/5
f 987/6/5 986/6/5 985/6/5
f 988/6/5 986/6/5 987/6/5
f 992/3/5 990/3/5 989/3/5
f 992/3/5 991/3/5 990/3/5
f 993/3/5 991/3/5 992/3/5
f 1000/4/5 995/4/5 994/4/5
f 1001/4/5 995/4/5 1000/4/5
f 1002/4/5 997/4/5 996/4/5
f 1003/4/5 997/4/5 1002/4/5
f 1006/4/5 999/4/5 998/4/5
f 1007/4/5 999/4/5 1006/4/5
f 1008/4/5 1005/4/5 1004/4/5
f 1009/4/5 1005/4/5 1008/4/5
f 1014/4/5 1011/4/5 1010/4/5
f 1015/4/5 1011/4/5 1014/4/5
f 1016/4/5 1013/4/5 1012/4/5
f 1017/4/5 1013/4/5 1016/4/5
f 1020/4/5 1019/4/5 1018/4/5
f 1021/4/5 1019/4/5 1020/4/5
f 1026/7/5 1023/7/5 1022/7/5
f 1027/7/5 1023/7/5 1026/7/5
f 1028/6/5 1025/6/5 1024/6/5
f 1029/6/5 1025/6/5 1028/6/5
f 1032/5/5 1031/5/5 1030/5/5
f 1033/5/5 1031/5/5 1032/5/5
f 1036/6/5 1033/6/5 1032/6/5
f 1037/6/5 1033/6/5 1036/6/5
f 1040/8/5 1035/8/5 1034/8/5
f 1041/8/5 1035/8/5 1040/8/5
f 1042/6/5 1037/6/5 1036/6/5
f 1043/6/5 1037/6/5 1042/6/5
f 1044/8/5 1039/8/5 1038/8/5
f 1045/8/5 1039/8/5 1044/8/5
f 1048/6/5 1043/6/5 1042/6/5
f 1048/6/5 1041/6/5 1040/6/5
f 1048/6/5 1042/6/5 1041/6/5
f 1048/6/5 1045/6/5 1044/6/5
f 1048/6/5 1044/6/5 1043/6/5
f 1049/6/5 1045/6/5 1048/6/5
f 1052/8/5 1047/8/5 1046/8/5
f 1053/8/5 1047/8/5 1052/8/5
f 1054/8/5 1051/8/5 1050/8/5
f 1055/8/5 1051/8/5 1054/8/5
f 1061/8/5 1057/8/5 1056/8/5
f 1062/3/5 1058/3/5 1057/3/5
f 1062/8/5 1057/8/5 1061/8/5
f 1063/8/5 1059/8/5 1058/8/5
f 1063/3/5 1058/3/5 1062/3/5
f 1064/8/5 1059/8/5 1063/8/5
f 1066/6/5 1061/6/5 1060/6/5
f 1067/3/5 1063/3/5 1062/3/5
f 1068/3/5 1063/3/5 1067/3/5
f 1069/3/5 1063/3/5 1068/3/5
f 1070/3/5 1063/3/5 1069/3/5
f 1071/6/5 1065/6/5 1064/6/5
f 1072/6/5 1066/6/5 1060/6/5
f 1073/3/5 1067/3/5 1066/3/5
f 1073/6/5 1066/6/5 1072/6/5
f 1073/3/5 1068/3/5 1067/3/5
f 1074/3/5 1068/3/5 1073/3/5
f 1075/3/5 1068/3/5 1074/3/5
f 1076/3/5 1070/3/5 1069/3/5
f 1076/3/5 1071/3/5 1070/3/5
f 1077/3/5 1071/3/5 1076/3/5
f 1078/6/5 1065/6/5 1071/6/5
f 1078/3/5 1071/3/5 1077/3/5
f 1079/6/5 1065/6/5 1078/6/5
f 1080/8/5 1074/8/5 1073/8/5
f 1081/8/5 1074/8/5 1080/8/5
f 1082/8/5 1078/8/5 1077/8/5
f 1083/8/5 1078/8/5 1082/8/5
f 1089/6/5 1085/6/5 1084/6/5
f 1090/6/5 1085/6/5 1089/6/5
f 1091/6/5 1087/6/5 1086/6/5
f 1092/6/5 1087/6/5 1091/6/5
f 1094/7/5 1089/7/5 1088/7/5
f 1095/7/5 1089/7/5 1094/7/5
f 1098/7/5 1093/7/5 1092/7/5
f 1099/7/5 1093/7/5 1098/7/5
f 1100/3/5 1097/3/5 1096/3/5
f 1100/3/5 1098/3/5 1097/3/5
f 1100/3/5 1096/3/5 1095/3/5
f 1101/3/5 1098/3/5 1100/3/5
f 1106/6/5 1103/6/5 1102/6/5
f 1107/6/5 1103/6/5 1106/6/5
f 1108/7/5 1105/7/5 1104/7/5
f 1109/7/5 1105/7/5 1108/7/5
f 1114/5/5 1111/5/5 1110/5/5
f 1115/5/5 1111/5/5 1114/5/5
f 1116/5/5 1113/5/5 1112/5/5
f 1117/5/5 1113/5/5 1116/5/5
f 1118/3/6 1119/3/6 1120/3/6
f 1120/3/6 1119/3/6 1121/3/6
f 1118/3/6 1120/3/6 1122/3/6
f 1122/3/6 1120/3/6 1123/3/6
f 1121/3/6 1119/3/6 1124/3/6
f 1124/3/6 1119/3/6 1125/3/6
f 1123/3/6 1120/3/6 1126/3/6
f 1126/3/6 1120/3/6 1127/3/6
f 1128/8/6 1129/8/6 1131/8/6
f 1131/8/6 1129/8/6 1132/8/6
f 1132/8/6 1129/8/6 1133/8/6
f 1133/8/6 1129/8/6 1134/8/6
f 1134/8/6 1129/8/6 1135/8/6
f 1135/8/6 1129/8/6 1136/8/6
f 1136/8/6 1129/8/6 1137/8/6
f 1137/8/6 1129/8/6 1138/8/6
f 1130/8/6 1131/8/6 1140/8/6
f 1132/6/6 1133/6/6 1141/6/6
f 1141/6/6 1133/6/6 1142/6/6
f 1134/6/6 1135/6/6 1143/6/6
f 1143/6/6 1135/6/6 1144/6/6
f 1136/6/6 1137/6/6 1145/6/6
f 1145/6/6 1137/6/6 1146/6/6
f 1138/8/6 1139/8/6 1147/8/6
f 1130/8/6 1140/8/6 1148/8/6
f 1140/3/6 1141/3/6 1149/3/6
f 1148/8/6 1140/8/6 1149/8/6
f 1146/3/6 1147/3/6 1150/3/6
f 1147/8/6 1139/8/6 1150/8/6
f 1150/8/6 1139/8/6 1151/8/6
f 1149/3/6 1141/3/6 1153/3/6
f 1146/3/6 1150/3/6 1154/3/6
f 1154/3/6 1150/3/6 1155/3/6
f 1152/8/6 1153/8/6 1156/8/6
f 1153/3/6 1141/3/6 1157/3/6
f 1156/8/6 1153/8/6 1157/8/6
f 1157/3/6 1141/3/6 1158/3/6
f 1159/2/6 1160/2/6 1161/2/6
f 1161/2/6 1160/2/6 1162/2/6
f 1163/4/6 1164/4/6 1171/4/6
f 1171/4/6 1164/4/6 1172/4/6
f 1165/4/6 1166/4/6 1173/4/6
f 1173/4/6 1166/4/6 1174/4/6
f 1167/4/6 1168/4/6 1175/4/6
f 1175/4/6 1168/4/6 1176/4/6
f 1169/4/6 1170/4/6 1177/4/6
f 1177/4/6 1170/4/6 1178/4/6
f 1179/4/6 1180/4/6 1183/4/6
f 1183/4/6 1180/4/6 1184/4/6
f 1181/4/6 1182/4/6 1187/4/6
f 1187/4/6 1182/4/6 1188/4/6
f 1185/2/6 1186/2/6 1194/2/6
f 1194/2/6 1186/2/6 1195/2/6
f 1195/2/6 1186/2/6 1196/2/6
f 1190/4/6 1191/4/6 1197/4/6
f 1191/3/6 1192/3/6 1198/3/6
f 1197/4/6 1191/4/6 1198/4/6
f 1198/3/6 1192/3/6 1199/3/6
f 1193/2/6 1194/2/6 1200/2/6
f 1194/2/6 1195/2/6 1200/2/6
f 1200/2/6 1195/2/6 1201/2/6
f 1188/2/6 1189/2/6 1202/2/6
f 1202/2/6 1189/2/6 1203/2/6
f 1197/8/6 1198/8/6 1204/8/6
f 1204/8/6 1198/8/6 1205/8/6
f 1206/2/6 1207/2/6 1210/2/6
f 1207/2/6 1208/2/6 1210/2/6
f 1210/2/6 1208/2/6 1211/2/6
f 1211/2/6 1208/2/6 1212/2/6
f 1209/2/6 1210/2/6 1215/2/6
f 1210/2/6 1211/2/6 1215/2/6
f 1215/2/6 1211/2/6 1216/2/6
f 1216/2/6 1211/2/6 1217/2/6
f 1213/3/6 1214/3/6 1220/3/6
f 1220/3/6 1214/3/6 1221/3/6
f 1216/3/6 1217/3/6 1222/3/6
f 1217/2/6 1218/2/6 1223/2/6
f 1222/3/6 1217/3/6 1223/3/6
f 1223/2/6 1218/2/6 1224/2/6
f 1219/8/6 1220/8/6 1225/8/6
f 1225/8/6 1220/8/6 1226/8/6
f 1223/8/6 1224/8/6 1227/8/6
f 1227/8/6 1224/8/6 1228/8/6
f 1229/5/6 1230/5/6 1231/5/6
f 1231/5/6 1230/5/6 1232/5/6
f 1233/6/6 1234/6/6 1237/6/6
f 1237/6/6 1234/6/6 1238/6/6
f 1235/6/6 1236/6/6 1239/6/6
f 1239/6/6 1236/6/6 1240/6/6
f 1241/6/6 1242/6/6 1244/6/6
f 1244/6/6 1242/6/6 1245/6/6
f 1243/6/6 1244/6/6 1247/6/6
f 1247/6/6 1244/6/6 1248/6/6
f 1245/6/6 1246/6/6 1249/6/6
f 1249/6/6 1246/6/6 1250/6/6
f 1251/6/6 1252/6/6 1255/6/6
f 1255/6/6 1252/6/6 1256/6/6
f 1253/6/6 1254/6/6 1257/6/6
f 1257/6/6 1254/6/6 1258/6/6
f 1259/7/6 1260/7/6 1263/7/6
f 1263/7/6 1260/7/6 1264/7/6
f 1261/6/6 1262/6/6 1265/6/6
f 1265/6/6 1262/6/6 1266/6/6
f 1265/7/6 1266/7/6 1267/7/6
f 1267/7/6 1266/7/6 1268/7/6
f 1263/6/6 1264/6/6 1269/6/6
f 1269/6/6 1264/6/6 1270/6/6
f 1269/7/6 1270/7/6 1271/7/6
f 1271/7/6 1270/7/6 1272/7/6
f 1271/6/6 1272/6/6 1273/6/6
f 1273/6/6 1272/6/6 1274/6/6
f 1267/6/6 1268/6/6 1275/6/6
f 1275/6/6 1268/6/6 1276/6/6
f 1277/6/6 1278/6/6 1281/6/6
f 1281/6/6 1278/6/6 1282/6/6
f 1279/7/6 1280/7/6 1283/7/6
f 1283/7/6 1280/7/6 1284/7/6
f 1285/6/6 1286/6/6 1289/6/6
f 1286/5/6 1287/5/6 1289/5/6
f 1289/5/6 1287/5/6 1290/5/6
f 1290/5/6 1287/5/6 1291/5/6
f 1287/6/6 1288/6/6 1292/6/6
f 1291/5/6 1287/5/6 1292/5/6
f 1285/6/6 1289/6/6 1293/6/6
f 1289/6/6 1290/6/6 1293/6/6
f 1293/6/6 1290/6/6 1294/6/6
f 1291/6/6 1292/6/6 1295/6/6
f 1292/6/6 1288/6/6 1296/6/6
f 1295/6/6 1292/6/6 1296/6/6
f 1285/6/6 1293/6/6 1297/6/6
f 1296/6/6 1288/6/6 1300/6/6
f 1297/6/6 1298/6/6 1301/6/6
f 1299/6/6 1300/6/6 1302/6/6
f 1297/6/6 1301/6/6 1303/6/6
f 1301/6/6 1302/6/6 1303/6/6
f 1285/6/6 1297/6/6 1303/6/6
f 1303/6/6 1302/6/6 1304/6/6
f 1302/6/6 1300/6/6 1305/6/6
f 1304/6/6 1302/6/6 1305/6/6
f 1300/6/6 1288/6/6 1306/6/6
f 1305/6/6 1300/6/6 1306/6/6
f 1304/6/6 1305/6/6 1307/6/6
f 1307/6/6 1305/6/6 1308/6/6
f 1309/6/6 1310/6/6 1312/6/6
f 1312/6/6 1310/6/6 1313/6/6
f 1311/6/6 1312/6/6 1315/6/6
f 1313/6/6 1314/6/6 1315/6/6
f 1312/6/6 1313/6/6 1315/6/6
f 1315/6/6 1314/6/6 1316/6/6
f 1311/6/6 1315/6/6 1317/6/6
f 1315/7/6 1316/7/6 1318/7/6
f 1317/6/6 1315/6/6 1318/6/6
f 1316/6/6 1314/6/6 1319/6/6
f 1318/7/6 1316/7/6 1319/7/6
f 1317/7/6 1318/7/6 1320/7/6
f 1311/6/6 1317/6/6 1320/6/6
f 1318/6/6 1319/6/6 1321/6/6
f 1320/7/6 1318/7/6 1321/7/6
f 1319/6/6 1314/6/6 1322/6/6
f 1321/6/6 1319/6/6 1322/6/6
f 1320/6/6 1321/6/6 1323/6/6
f 1321/7/6 1322/7/6 1323/7/6
f 1322/6/6 1314/6/6 1324/6/6
f 1323/7/6 1322/7/6 1324/7/6
f 1320/6/6 1323/6/6 1325/6/6
f 1311/6/6 1320/6/6 1325/6/6
f 1323/6/6 1324/6/6 1325/6/6
f 1325/6/6 1324/6/6 1326/6/6
f 1324/6/6 1314/6/6 1327/6/6
f 1326/6/6 1324/6/6 1327/6/6
f 1327/6/6 1314/6/6 1328/6/6
f 1326/6/6 1327/6/6 1329/6/6
f 1329/6/6 1327/6/6 1330/6/6
