# MagicaVoxel @ Ephtracy

# group
o 

# material
mtllib The Twitcher-15.mtl
usemtl palette

# normals
vn -1 0 0
vn 1 0 0
vn 0 0 1
vn 0 0 -1
vn 0 -1 0
vn 0 1 0

# texcoords
vt 0.533203 0.5
vt 0.537109 0.5
vt 0.560547 0.5
vt 0.701172 0.5
vt 0.888672 0.5
vt 0.974609 0.5
vt 0.978516 0.5

# verts
v -4.7 3.2 0.3
v -4.7 3.2 -0.5
v -4.7 3.3 0.3
v -4.7 3.3 -0.5
v -4.6 1.6 0.1
v -4.6 1.6 -0.6
v -4.6 1.7 0.2
v -4.6 1.7 0.1
v -4.6 1.9 0.3
v -4.6 1.9 0.2
v -4.6 2.1 -0.2
v -4.6 2.1 -0.3
v -4.6 2.1 -0.4
v -4.6 2.2 -0.1
v -4.6 2.2 -0.2
v -4.6 2.2 -0.3
v -4.6 2.2 -0.4
v -4.6 2.3 -0.1
v -4.6 2.3 -0.2
v -4.6 2.3 -0.3
v -4.6 2.4 -0.1
v -4.6 2.4 -0.2
v -4.6 2.6 0.3
v -4.6 2.6 0.1
v -4.6 2.7 0.3
v -4.6 2.7 0.1
v -4.6 2.8 0.4
v -4.6 2.8 0.3
v -4.6 3 -0.4
v -4.6 3 -0.5
v -4.6 3.1 -0.4
v -4.6 3.1 -0.5
v -4.6 3.2 0.4
v -4.6 3.2 0.3
v -4.6 3.2 -0.5
v -4.6 3.2 -0.6
v -4.5 1.8 0.3
v -4.5 1.8 0.2
v -4.5 1.9 0.3
v -4.5 1.9 0.2
v -4.5 2.3 -0.6
v -4.5 2.3 -0.7
v -4.5 2.6 0.3
v -4.5 2.6 0.2
v -4.5 2.6 0.1
v -4.5 2.7 0.3
v -4.5 2.7 0.2
v -4.5 2.7 0.1
v -4.5 3 -0.4
v -4.5 3 -0.5
v -4.5 3.1 -0.4
v -4.5 3.1 -0.5
v -4.5 3.2 0.4
v -4.5 3.2 0.3
v -4.5 3.2 -0.5
v -4.5 3.2 -0.6
v -4.5 3.2 -0.7
v -4.5 3.3 0.4
v -4.5 3.3 0.3
v -4.5 3.3 -0.5
v -4.5 3.3 -0.6
v -4.4 1.8 -0.3
v -4.4 1.8 -0.4
v -4.4 1.9 -0.3
v -4.4 1.9 -0.4
v -4.4 1.9 -0.5
v -4.4 2.2 0.3
v -4.4 2.2 0.1
v -4.4 2.2 -0.4
v -4.4 2.2 -0.5
v -4.4 2.2 -0.6
v -4.4 2.2 -0.7
v -4.4 2.3 0.2
v -4.4 2.3 0.1
v -4.4 2.3 -0.6
v -4.4 2.3 -0.7
v -4.4 2.3 -0.8
v -4.4 2.4 0.4
v -4.4 2.4 0.3
v -4.4 2.4 0.2
v -4.4 2.4 0.1
v -4.4 2.8 0.4
v -4.4 2.8 0.3
v -4.4 3 0.5
v -4.4 3 0.4
v -4.4 3.2 0.4
v -4.4 3.2 0.3
v -4.4 3.2 -0.4
v -4.4 3.2 -0.7
v -4.4 3.2 -0.8
v -4.4 3.3 0.5
v -4.4 3.3 0.4
v -4.4 3.3 0.3
v -4.4 3.3 -0.4
v -4.3 1.8 0.3
v -4.3 1.8 0.2
v -4.3 1.8 -0.4
v -4.3 1.8 -0.5
v -4.3 1.9 -0.4
v -4.3 1.9 -0.5
v -4.3 2 0.4
v -4.3 2 0.3
v -4.3 2 0.2
v -4.3 2.4 0.4
v -4.3 2.4 0.3
v -4.3 2.7 0.5
v -4.3 2.7 0.4
v -4.3 2.8 0.5
v -4.3 2.8 0.4
v -4.2 2.8 0.5
v -4.2 2.8 0.4
v -4.2 3 0.5
v -4.2 3 0.4
v -4.1 2 0
v -4.1 2 -0.1
v -4.1 2 -0.5
v -4.1 2.2 0
v -4.1 2.2 -0.1
v -4.1 2.2 -0.5
v -4.1 2.9 -0.7
v -4.1 2.9 -0.8
v -4.1 3 -0.7
v -4.1 3 -0.8
v -4 2.7 -0.7
v -4 2.7 -0.8
v -4 2.9 -0.7
v -4 2.9 -0.8
v -3.9 1.6 -0.5
v -3.9 1.6 -0.6
v -3.9 1.7 -0.5
v -3.9 1.7 -0.6
v -3.9 2.7 0.5
v -3.9 2.7 0.4
v -3.9 2.8 0.4
v -3.9 3 0.4
v -3.9 3.1 0.5
v -3.9 3.1 0.4
v -3.8 1.8 0.3
v -3.8 1.8 0.2
v -3.8 1.9 0.2
v -3.8 1.9 0.1
v -3.8 2 0.4
v -3.8 2 0.3
v -3.8 2 0.1
v -3.8 2 0
v -3.8 2 -0.5
v -3.8 2.2 0.1
v -3.8 2.2 0
v -3.8 2.2 -0.5
v -3.8 2.3 0.2
v -3.8 2.3 0.1
v -3.8 2.4 0.2
v -3.8 2.5 0.3
v -3.8 2.5 0.2
v -3.8 2.6 0.3
v -3.8 2.7 0.4
v -3.8 2.7 0.3
v -3.8 3.1 0.5
v -3.8 3.1 0.4
v -3.8 3.2 0.5
v -3.8 3.2 0.4
v -3.7 3.2 0.5
v -3.7 3.2 0.4
v -3.7 3.3 0.5
v -3.7 3.3 0.4
v -3.6 1.8 0.3
v -3.6 1.8 0.2
v -3.6 2 0.3
v -3.6 2 0.2
v -3.5 1.6 0.1
v -3.5 1.6 -0.5
v -3.5 1.7 0.2
v -3.5 1.7 0.1
v -3.5 1.8 0.2
v -3.5 1.8 -0.1
v -3.5 1.8 -0.3
v -3.5 1.9 -0.3
v -3.5 1.9 -0.4
v -3.5 2.2 0.3
v -3.5 2.2 0.2
v -3.5 2.2 -0.4
v -3.5 2.2 -0.5
v -3.5 2.4 0.2
v -3.5 2.5 0.3
v -3.5 2.5 0.2
v -3.5 3.2 0.3
v -3.5 3.2 -0.4
v -3.5 3.3 0.3
v -3.5 3.3 -0.4
v -4.5 1.6 0.1
v -4.5 1.6 -0.5
v -4.5 1.7 0.2
v -4.5 1.7 0.1
v -4.5 1.8 0.2
v -4.5 1.8 -0.1
v -4.5 1.8 -0.3
v -4.5 1.9 -0.3
v -4.5 1.9 -0.4
v -4.5 2.2 0.3
v -4.5 2.2 0.1
v -4.5 2.2 -0.4
v -4.5 2.2 -0.5
v -4.5 2.3 0.1
v -4.5 2.4 0.3
v -4.5 2.4 0.2
v -4.5 2.4 0.1
v -4.5 3.2 0.3
v -4.5 3.2 -0.4
v -4.5 3.3 0.3
v -4.5 3.3 -0.4
v -4.4 1.8 0.3
v -4.4 1.8 0.2
v -4.4 2 0.3
v -4.4 2 0.2
v -4.3 3.2 0.5
v -4.3 3.2 0.4
v -4.3 3.3 0.5
v -4.3 3.3 0.4
v -4.2 1.8 0.3
v -4.2 1.8 0.2
v -4.2 1.9 0.2
v -4.2 1.9 0.1
v -4.2 2 0.4
v -4.2 2 0.3
v -4.2 2 0.1
v -4.2 2 0
v -4.2 2 -0.5
v -4.2 2.2 0.1
v -4.2 2.2 0
v -4.2 2.2 -0.5
v -4.2 2.3 0.2
v -4.2 2.3 0.1
v -4.2 2.4 0.2
v -4.2 2.5 0.3
v -4.2 2.5 0.2
v -4.2 2.6 0.3
v -4.2 2.7 0.4
v -4.2 2.7 0.3
v -4.2 2.9 -0.7
v -4.2 2.9 -0.8
v -4.2 3 -0.7
v -4.2 3 -0.8
v -4.2 3.1 0.5
v -4.2 3.1 0.4
v -4.2 3.2 0.5
v -4.2 3.2 0.4
v -4.1 1.6 -0.5
v -4.1 1.6 -0.6
v -4.1 1.7 -0.5
v -4.1 1.7 -0.6
v -4.1 2.7 0.5
v -4.1 2.7 0.4
v -4.1 2.7 -0.7
v -4.1 2.7 -0.8
v -4.1 2.8 0.4
v -4.1 2.9 -0.7
v -4.1 2.9 -0.8
v -4.1 3 0.4
v -4.1 3.1 0.5
v -4.1 3.1 0.4
v -3.9 2 0
v -3.9 2 -0.1
v -3.9 2 -0.5
v -3.9 2.2 0
v -3.9 2.2 -0.1
v -3.9 2.2 -0.5
v -3.8 2.8 0.5
v -3.8 2.8 0.4
v -3.8 3 0.5
v -3.8 3 0.4
v -3.7 1.8 0.3
v -3.7 1.8 0.2
v -3.7 1.8 -0.4
v -3.7 1.8 -0.5
v -3.7 1.9 -0.4
v -3.7 1.9 -0.5
v -3.7 2 0.4
v -3.7 2 0.3
v -3.7 2 0.2
v -3.7 2.4 0.4
v -3.7 2.4 0.3
v -3.7 2.7 0.5
v -3.7 2.7 0.4
v -3.7 2.8 0.5
v -3.7 2.8 0.4
v -3.6 1.8 -0.3
v -3.6 1.8 -0.4
v -3.6 1.9 -0.3
v -3.6 1.9 -0.4
v -3.6 1.9 -0.5
v -3.6 2.2 0.3
v -3.6 2.2 0.2
v -3.6 2.2 -0.4
v -3.6 2.2 -0.5
v -3.6 2.2 -0.6
v -3.6 2.2 -0.7
v -3.6 2.3 -0.6
v -3.6 2.3 -0.7
v -3.6 2.3 -0.8
v -3.6 2.4 0.4
v -3.6 2.4 0.3
v -3.6 2.4 0.2
v -3.6 2.5 0.3
v -3.6 2.5 0.2
v -3.6 2.8 0.4
v -3.6 2.8 0.3
v -3.6 3 0.5
v -3.6 3 0.4
v -3.6 3.2 0.4
v -3.6 3.2 0.3
v -3.6 3.2 -0.4
v -3.6 3.2 -0.7
v -3.6 3.2 -0.8
v -3.6 3.3 0.5
v -3.6 3.3 0.4
v -3.6 3.3 0.3
v -3.6 3.3 -0.4
v -3.5 1.8 0.3
v -3.5 1.8 0.2
v -3.5 1.9 0.3
v -3.5 1.9 0.2
v -3.5 2.3 -0.6
v -3.5 2.3 -0.7
v -3.5 3 0.3
v -3.5 3 -0.2
v -3.5 3.1 0.3
v -3.5 3.1 -0.2
v -3.5 3.2 0.4
v -3.5 3.2 0.3
v -3.5 3.2 -0.5
v -3.5 3.2 -0.6
v -3.5 3.2 -0.7
v -3.5 3.3 0.4
v -3.5 3.3 0.3
v -3.5 3.3 -0.5
v -3.5 3.3 -0.6
v -3.4 1.6 0.1
v -3.4 1.6 -0.6
v -3.4 1.7 0.2
v -3.4 1.7 0.1
v -3.4 1.9 0.3
v -3.4 1.9 0.2
v -3.4 2.1 -0.2
v -3.4 2.1 -0.3
v -3.4 2.1 -0.4
v -3.4 2.2 -0.1
v -3.4 2.2 -0.2
v -3.4 2.2 -0.3
v -3.4 2.2 -0.4
v -3.4 2.3 -0.1
v -3.4 2.3 -0.2
v -3.4 2.3 -0.3
v -3.4 2.4 -0.1
v -3.4 2.4 -0.2
v -3.4 2.8 0.4
v -3.4 2.8 0.3
v -3.4 3 0.3
v -3.4 3 -0.2
v -3.4 3.1 0.3
v -3.4 3.1 -0.2
v -3.4 3.2 0.4
v -3.4 3.2 0.3
v -3.4 3.2 -0.5
v -3.4 3.2 -0.6
v -3.3 3.2 0.3
v -3.3 3.2 -0.5
v -3.3 3.3 0.3
v -3.3 3.3 -0.5
v -4.4 3 0.5
v -4.4 3.3 0.5
v -4.3 2.7 0.5
v -4.3 2.8 0.5
v -4.3 3.2 0.5
v -4.3 3.3 0.5
v -4.2 2.8 0.5
v -4.2 3 0.5
v -4.2 3.1 0.5
v -4.2 3.2 0.5
v -4.1 2.7 0.5
v -4.1 3.1 0.5
v -3.9 2.7 0.5
v -3.9 3.1 0.5
v -3.8 2.8 0.5
v -3.8 3 0.5
v -3.8 3.1 0.5
v -3.8 3.2 0.5
v -3.7 2.7 0.5
v -3.7 2.8 0.5
v -3.7 3.2 0.5
v -3.7 3.3 0.5
v -3.6 3 0.5
v -3.6 3.3 0.5
v -4.6 2.8 0.4
v -4.6 3.2 0.4
v -4.5 3.2 0.4
v -4.5 3.3 0.4
v -4.4 2.4 0.4
v -4.4 2.8 0.4
v -4.4 3 0.4
v -4.4 3.2 0.4
v -4.4 3.3 0.4
v -4.3 2 0.4
v -4.3 2.4 0.4
v -4.3 2.7 0.4
v -4.3 2.8 0.4
v -4.3 3.2 0.4
v -4.3 3.3 0.4
v -4.2 2 0.4
v -4.2 2.7 0.4
v -4.2 2.8 0.4
v -4.2 3 0.4
v -4.2 3.1 0.4
v -4.2 3.2 0.4
v -4.2 3.3 0.4
v -4.1 2.7 0.4
v -4.1 2.8 0.4
v -4.1 3 0.4
v -4.1 3.1 0.4
v -4.1 3.2 0.4
v -4.1 3.3 0.4
v -3.9 2.7 0.4
v -3.9 2.8 0.4
v -3.9 3 0.4
v -3.9 3.1 0.4
v -3.9 3.2 0.4
v -3.9 3.3 0.4
v -3.8 2 0.4
v -3.8 2.7 0.4
v -3.8 2.8 0.4
v -3.8 3 0.4
v -3.8 3.1 0.4
v -3.8 3.2 0.4
v -3.8 3.3 0.4
v -3.7 2 0.4
v -3.7 2.4 0.4
v -3.7 2.7 0.4
v -3.7 2.8 0.4
v -3.7 3.2 0.4
v -3.7 3.3 0.4
v -3.6 2.4 0.4
v -3.6 2.8 0.4
v -3.6 3 0.4
v -3.6 3.2 0.4
v -3.6 3.3 0.4
v -3.5 3.2 0.4
v -3.5 3.3 0.4
v -3.4 2.8 0.4
v -3.4 3.2 0.4
v -4.7 3.2 0.3
v -4.7 3.3 0.3
v -4.6 1.9 0.3
v -4.6 2.6 0.3
v -4.6 2.7 0.3
v -4.6 2.8 0.3
v -4.6 3.2 0.3
v -4.6 3.3 0.3
v -4.5 1.8 0.3
v -4.5 1.9 0.3
v -4.5 2.2 0.3
v -4.5 2.4 0.3
v -4.5 2.6 0.3
v -4.5 2.7 0.3
v -4.5 3.2 0.3
v -4.5 3.3 0.3
v -4.4 1.8 0.3
v -4.4 2 0.3
v -4.4 2.2 0.3
v -4.4 2.4 0.3
v -4.4 2.8 0.3
v -4.3 1.8 0.3
v -4.3 2 0.3
v -4.3 2.4 0.3
v -4.2 1.8 0.3
v -4.2 2 0.3
v -4.2 2.5 0.3
v -4.2 2.6 0.3
v -4.2 2.7 0.3
v -4.1 2.6 0.3
v -4.1 2.7 0.3
v -3.9 2.6 0.3
v -3.9 2.7 0.3
v -3.8 1.8 0.3
v -3.8 2 0.3
v -3.8 2.5 0.3
v -3.8 2.6 0.3
v -3.8 2.7 0.3
v -3.7 1.8 0.3
v -3.7 2 0.3
v -3.7 2.4 0.3
v -3.6 1.8 0.3
v -3.6 2 0.3
v -3.6 2.2 0.3
v -3.6 2.4 0.3
v -3.6 2.5 0.3
v -3.6 2.8 0.3
v -3.5 1.8 0.3
v -3.5 1.9 0.3
v -3.5 2.2 0.3
v -3.5 2.5 0.3
v -3.5 3.2 0.3
v -3.5 3.3 0.3
v -3.4 1.9 0.3
v -3.4 2.8 0.3
v -3.4 3.2 0.3
v -3.4 3.3 0.3
v -3.3 3.2 0.3
v -3.3 3.3 0.3
v -4.6 1.7 0.2
v -4.6 1.9 0.2
v -4.5 1.7 0.2
v -4.5 1.8 0.2
v -4.5 1.9 0.2
v -4.4 1.8 0.2
v -4.4 2 0.2
v -4.3 1.8 0.2
v -4.3 2 0.2
v -4.2 1.8 0.2
v -4.2 1.9 0.2
v -4.2 2.3 0.2
v -4.2 2.4 0.2
v -4.2 2.5 0.2
v -4.1 1.8 0.2
v -4.1 1.9 0.2
v -4.1 2.4 0.2
v -4.1 2.5 0.2
v -3.9 1.8 0.2
v -3.9 1.9 0.2
v -3.9 2.4 0.2
v -3.9 2.5 0.2
v -3.8 1.8 0.2
v -3.8 1.9 0.2
v -3.8 2.3 0.2
v -3.8 2.4 0.2
v -3.8 2.5 0.2
v -3.7 1.8 0.2
v -3.7 2 0.2
v -3.6 1.8 0.2
v -3.6 2 0.2
v -3.6 2.2 0.2
v -3.6 2.4 0.2
v -3.6 2.5 0.2
v -3.5 1.7 0.2
v -3.5 1.8 0.2
v -3.5 1.9 0.2
v -3.5 2.2 0.2
v -3.5 2.4 0.2
v -3.5 2.5 0.2
v -3.4 1.7 0.2
v -3.4 1.9 0.2
v -4.6 1.6 0.1
v -4.6 1.7 0.1
v -4.6 2.6 0.1
v -4.6 2.7 0.1
v -4.5 1.6 0.1
v -4.5 1.7 0.1
v -4.5 2.2 0.1
v -4.5 2.3 0.1
v -4.5 2.4 0.1
v -4.5 2.6 0.1
v -4.5 2.7 0.1
v -4.4 2.2 0.1
v -4.4 2.3 0.1
v -4.4 2.4 0.1
v -4.2 1.9 0.1
v -4.2 2 0.1
v -4.2 2.2 0.1
v -4.2 2.3 0.1
v -4.1 1.9 0.1
v -3.9 1.9 0.1
v -3.8 1.9 0.1
v -3.8 2 0.1
v -3.8 2.2 0.1
v -3.8 2.3 0.1
v -3.5 1.6 0.1
v -3.5 1.7 0.1
v -3.4 1.6 0.1
v -3.4 1.7 0.1
v -4.1 2 0
v -4.1 2.2 0
v -3.9 2 0
v -3.9 2.2 0
v -3.5 3 -0.2
v -3.5 3.1 -0.2
v -3.4 3 -0.2
v -3.4 3.1 -0.2
v -4.5 3.2 -0.4
v -4.5 3.3 -0.4
v -4.4 3.2 -0.4
v -4.4 3.3 -0.4
v -3.6 3.2 -0.4
v -3.6 3.3 -0.4
v -3.5 3.2 -0.4
v -3.5 3.3 -0.4
v -4.6 3 -0.5
v -4.6 3.1 -0.5
v -4.5 1.6 -0.5
v -4.5 2.2 -0.5
v -4.5 3 -0.5
v -4.5 3.1 -0.5
v -4.4 1.9 -0.5
v -4.4 2.2 -0.5
v -4.3 1.8 -0.5
v -4.3 1.9 -0.5
v -4.2 2 -0.5
v -4.2 2.2 -0.5
v -4.1 1.6 -0.5
v -4.1 1.7 -0.5
v -4.1 2 -0.5
v -4.1 2.2 -0.5
v -3.9 1.6 -0.5
v -3.9 1.7 -0.5
v -3.9 2 -0.5
v -3.9 2.2 -0.5
v -3.8 2 -0.5
v -3.8 2.2 -0.5
v -3.7 1.8 -0.5
v -3.7 1.9 -0.5
v -3.6 1.9 -0.5
v -3.6 2.2 -0.5
v -3.5 1.6 -0.5
v -3.5 2.2 -0.5
v -4.5 3.2 0.3
v -4.5 3.3 0.3
v -4.4 3.2 0.3
v -4.4 3.3 0.3
v -3.6 3.2 0.3
v -3.6 3.3 0.3
v -3.5 3 0.3
v -3.5 3.1 0.3
v -3.5 3.2 0.3
v -3.5 3.3 0.3
v -3.4 3 0.3
v -3.4 3.1 0.3
v -4.5 1.8 -0.3
v -4.5 1.9 -0.3
v -4.4 1.8 -0.3
v -4.4 1.9 -0.3
v -3.6 1.8 -0.3
v -3.6 1.9 -0.3
v -3.5 1.8 -0.3
v -3.5 1.9 -0.3
v -4.6 3 -0.4
v -4.6 3.1 -0.4
v -4.5 1.9 -0.4
v -4.5 2.2 -0.4
v -4.5 3 -0.4
v -4.5 3.1 -0.4
v -4.4 1.8 -0.4
v -4.4 1.9 -0.4
v -4.4 2.2 -0.4
v -4.3 1.8 -0.4
v -4.3 1.9 -0.4
v -3.7 1.8 -0.4
v -3.7 1.9 -0.4
v -3.6 1.8 -0.4
v -3.6 1.9 -0.4
v -3.6 2.2 -0.4
v -3.5 1.9 -0.4
v -3.5 2.2 -0.4
v -4.7 3.2 -0.5
v -4.7 3.3 -0.5
v -4.6 3.2 -0.5
v -4.5 3.2 -0.5
v -4.5 3.3 -0.5
v -3.5 3.2 -0.5
v -3.5 3.3 -0.5
v -3.4 3.2 -0.5
v -3.3 3.2 -0.5
v -3.3 3.3 -0.5
v -4.6 1.6 -0.6
v -4.6 3.2 -0.6
v -4.5 2.3 -0.6
v -4.5 3.2 -0.6
v -4.5 3.3 -0.6
v -4.4 2.2 -0.6
v -4.4 2.3 -0.6
v -4.3 3.2 -0.6
v -4.3 3.3 -0.6
v -4.1 1.6 -0.6
v -4.1 1.7 -0.6
v -3.9 1.6 -0.6
v -3.9 1.7 -0.6
v -3.7 3.2 -0.6
v -3.7 3.3 -0.6
v -3.6 2.2 -0.6
v -3.6 2.3 -0.6
v -3.5 2.3 -0.6
v -3.5 3.2 -0.6
v -3.5 3.3 -0.6
v -3.4 1.6 -0.6
v -3.4 3.2 -0.6
v -4.5 2.3 -0.7
v -4.5 3.2 -0.7
v -4.4 2.2 -0.7
v -4.4 2.3 -0.7
v -4.4 3.2 -0.7
v -4.2 2.9 -0.7
v -4.2 3 -0.7
v -4.1 2.7 -0.7
v -4.1 2.9 -0.7
v -4.1 3 -0.7
v -4 2.7 -0.7
v -4 2.9 -0.7
v -3.6 2.2 -0.7
v -3.6 2.3 -0.7
v -3.6 3.2 -0.7
v -3.5 2.3 -0.7
v -3.5 3.2 -0.7
v -4.4 2.3 -0.8
v -4.4 3.2 -0.8
v -4.2 2.9 -0.8
v -4.2 3 -0.8
v -4.1 2.7 -0.8
v -4.1 2.9 -0.8
v -4.1 3 -0.8
v -4 2.7 -0.8
v -4 2.9 -0.8
v -3.6 2.3 -0.8
v -3.6 3.2 -0.8
v -4.6 1.6 0.1
v -4.5 1.6 0.1
v -3.5 1.6 0.1
v -3.4 1.6 0.1
v -4.5 1.6 -0.5
v -4.1 1.6 -0.5
v -3.9 1.6 -0.5
v -3.5 1.6 -0.5
v -4.6 1.6 -0.6
v -4.1 1.6 -0.6
v -3.9 1.6 -0.6
v -3.4 1.6 -0.6
v -4.6 1.7 0.2
v -4.5 1.7 0.2
v -3.5 1.7 0.2
v -3.4 1.7 0.2
v -4.6 1.7 0.1
v -4.5 1.7 0.1
v -3.5 1.7 0.1
v -3.4 1.7 0.1
v -4.1 1.7 -0.5
v -3.9 1.7 -0.5
v -4.1 1.7 -0.6
v -3.9 1.7 -0.6
v -4.5 1.8 0.3
v -4.4 1.8 0.3
v -4.3 1.8 0.3
v -4.2 1.8 0.3
v -3.8 1.8 0.3
v -3.7 1.8 0.3
v -3.6 1.8 0.3
v -3.5 1.8 0.3
v -4.5 1.8 0.2
v -4.4 1.8 0.2
v -4.3 1.8 0.2
v -4.2 1.8 0.2
v -4.1 1.8 0.2
v -3.9 1.8 0.2
v -3.8 1.8 0.2
v -3.7 1.8 0.2
v -3.6 1.8 0.2
v -3.5 1.8 0.2
v -4.4 1.8 0.1
v -4.3 1.8 0.1
v -4.2 1.8 0.1
v -4.1 1.8 0.1
v -3.9 1.8 0.1
v -3.8 1.8 0.1
v -3.7 1.8 0.1
v -3.6 1.8 0.1
v -4.5 1.8 -0.1
v -4.4 1.8 -0.1
v -3.6 1.8 -0.1
v -3.5 1.8 -0.1
v -4.5 1.8 -0.3
v -4.4 1.8 -0.3
v -3.6 1.8 -0.3
v -3.5 1.8 -0.3
v -4.4 1.8 -0.4
v -4.3 1.8 -0.4
v -3.7 1.8 -0.4
v -3.6 1.8 -0.4
v -4.3 1.8 -0.5
v -3.7 1.8 -0.5
v -4.6 1.9 0.3
v -4.5 1.9 0.3
v -3.5 1.9 0.3
v -3.4 1.9 0.3
v -4.6 1.9 0.2
v -4.5 1.9 0.2
v -3.5 1.9 0.2
v -3.4 1.9 0.2
v -4.5 1.9 -0.3
v -4.4 1.9 -0.3
v -3.6 1.9 -0.3
v -3.5 1.9 -0.3
v -4.5 1.9 -0.4
v -4.4 1.9 -0.4
v -4.3 1.9 -0.4
v -3.7 1.9 -0.4
v -3.6 1.9 -0.4
v -3.5 1.9 -0.4
v -4.4 1.9 -0.5
v -4.3 1.9 -0.5
v -3.7 1.9 -0.5
v -3.6 1.9 -0.5
v -4.3 2 0.4
v -4.2 2 0.4
v -3.8 2 0.4
v -3.7 2 0.4
v -4.4 2 0.3
v -4.3 2 0.3
v -4.2 2 0.3
v -3.8 2 0.3
v -3.7 2 0.3
v -3.6 2 0.3
v -4.4 2 0.2
v -4.3 2 0.2
v -3.7 2 0.2
v -3.6 2 0.2
v -4.2 2.2 0.1
v -3.8 2.2 0.1
v -4.2 2.2 0
v -4.1 2.2 0
v -3.9 2.2 0
v -3.8 2.2 0
v -4.1 2.2 -0.1
v -3.9 2.2 -0.1
v -4.5 2.2 -0.4
v -4.4 2.2 -0.4
v -3.6 2.2 -0.4
v -3.5 2.2 -0.4
v -4.5 2.2 -0.5
v -4.4 2.2 -0.5
v -4.2 2.2 -0.5
v -4.1 2.2 -0.5
v -3.9 2.2 -0.5
v -3.8 2.2 -0.5
v -3.6 2.2 -0.5
v -3.5 2.2 -0.5
v -4.4 2.2 -0.6
v -3.6 2.2 -0.6
v -4.4 2.2 -0.7
v -3.6 2.2 -0.7
v -4.2 2.3 0.2
v -3.8 2.3 0.2
v -4.2 2.3 0.1
v -3.8 2.3 0.1
v -4.5 2.3 -0.6
v -4.4 2.3 -0.6
v -3.6 2.3 -0.6
v -3.5 2.3 -0.6
v -4.5 2.3 -0.7
v -4.4 2.3 -0.7
v -3.6 2.3 -0.7
v -3.5 2.3 -0.7
v -4.4 2.3 -0.8
v -3.6 2.3 -0.8
v -4.4 2.4 0.4
v -4.3 2.4 0.4
v -3.7 2.4 0.4
v -3.6 2.4 0.4
v -4.5 2.4 0.3
v -4.4 2.4 0.3
v -4.3 2.4 0.3
v -3.7 2.4 0.3
v -3.6 2.4 0.3
v -4.5 2.4 0.2
v -4.4 2.4 0.2
v -4.5 2.4 0.1
v -4.4 2.4 0.1
v -4.2 2.5 0.3
v -3.8 2.5 0.3
v -3.6 2.5 0.3
v -3.5 2.5 0.3
v -4.2 2.5 0.2
v -4.1 2.5 0.2
v -3.9 2.5 0.2
v -3.8 2.5 0.2
v -3.6 2.5 0.2
v -3.5 2.5 0.2
v -4.3 2.7 0.5
v -4.1 2.7 0.5
v -3.9 2.7 0.5
v -3.7 2.7 0.5
v -4.3 2.7 0.4
v -4.2 2.7 0.4
v -4.1 2.7 0.4
v -3.9 2.7 0.4
v -3.8 2.7 0.4
v -3.7 2.7 0.4
v -4.6 2.7 0.3
v -4.5 2.7 0.3
v -4.2 2.7 0.3
v -4.1 2.7 0.3
v -3.9 2.7 0.3
v -3.8 2.7 0.3
v -4.5 2.7 0.2
v -4.6 2.7 0.1
v -4.5 2.7 0.1
v -4.6 2.8 0.4
v -4.4 2.8 0.4
v -3.6 2.8 0.4
v -3.4 2.8 0.4
v -4.6 2.8 0.3
v -4.4 2.8 0.3
v -3.6 2.8 0.3
v -3.4 2.8 0.3
v -4.1 2.9 -0.7
v -4 2.9 -0.7
v -4.1 2.9 -0.8
v -4 2.9 -0.8
v -4.4 3 0.5
v -4.2 3 0.5
v -3.8 3 0.5
v -3.6 3 0.5
v -4.4 3 0.4
v -4.2 3 0.4
v -3.8 3 0.4
v -3.6 3 0.4
v -4.2 3 -0.7
v -4.1 3 -0.7
v -4.2 3 -0.8
v -4.1 3 -0.8
v -3.5 3.1 0.3
v -3.4 3.1 0.3
v -3.5 3.1 -0.2
v -3.4 3.1 -0.2
v -4.6 3.1 -0.4
v -4.5 3.1 -0.4
v -4.6 3.1 -0.5
v -4.5 3.1 -0.5
v -4.7 3.2 0.3
v -4.6 3.2 0.3
v -3.4 3.2 0.3
v -3.3 3.2 0.3
v -4.7 3.2 -0.5
v -4.6 3.2 -0.5
v -3.4 3.2 -0.5
v -3.3 3.2 -0.5
v -4.2 1.9 0.2
v -4.1 1.9 0.2
v -3.9 1.9 0.2
v -3.8 1.9 0.2
v -4.2 1.9 0.1
v -4.1 1.9 0.1
v -3.9 1.9 0.1
v -3.8 1.9 0.1
v -4.2 2 0.1
v -3.8 2 0.1
v -4.2 2 0
v -4.1 2 0
v -3.9 2 0
v -3.8 2 0
v -4.1 2 -0.1
v -3.9 2 -0.1
v -4.2 2 -0.5
v -4.1 2 -0.5
v -3.9 2 -0.5
v -3.8 2 -0.5
v -4.5 2.2 0.3
v -4.4 2.2 0.3
v -3.6 2.2 0.3
v -3.5 2.2 0.3
v -3.6 2.2 0.2
v -3.5 2.2 0.2
v -4.5 2.2 0.1
v -4.4 2.2 0.1
v -4.6 2.6 0.3
v -4.5 2.6 0.3
v -4.5 2.6 0.2
v -4.6 2.6 0.1
v -4.5 2.6 0.1
v -4.1 2.7 -0.7
v -4 2.7 -0.7
v -4.1 2.7 -0.8
v -4 2.7 -0.8
v -4.3 2.8 0.5
v -4.2 2.8 0.5
v -3.8 2.8 0.5
v -3.7 2.8 0.5
v -4.3 2.8 0.4
v -4.2 2.8 0.4
v -3.8 2.8 0.4
v -3.7 2.8 0.4
v -4.2 2.9 -0.7
v -4.1 2.9 -0.7
v -4.2 2.9 -0.8
v -4.1 2.9 -0.8
v -3.5 3 0.3
v -3.4 3 0.3
v -3.5 3 -0.2
v -3.4 3 -0.2
v -4.6 3 -0.4
v -4.5 3 -0.4
v -4.6 3 -0.5
v -4.5 3 -0.5
v -4.2 3.1 0.5
v -4.1 3.1 0.5
v -3.9 3.1 0.5
v -3.8 3.1 0.5
v -4.2 3.1 0.4
v -4.1 3.1 0.4
v -3.9 3.1 0.4
v -3.8 3.1 0.4
v -4.3 3.2 0.5
v -4.2 3.2 0.5
v -3.8 3.2 0.5
v -3.7 3.2 0.5
v -4.6 3.2 0.4
v -4.5 3.2 0.4
v -4.3 3.2 0.4
v -4.2 3.2 0.4
v -3.8 3.2 0.4
v -3.7 3.2 0.4
v -3.5 3.2 0.4
v -3.4 3.2 0.4
v -4.6 3.2 0.3
v -4.5 3.2 0.3
v -4.4 3.2 0.3
v -3.6 3.2 0.3
v -3.5 3.2 0.3
v -3.4 3.2 0.3
v -4.5 3.2 -0.4
v -4.4 3.2 -0.4
v -3.6 3.2 -0.4
v -3.5 3.2 -0.4
v -4.6 3.2 -0.5
v -4.5 3.2 -0.5
v -3.5 3.2 -0.5
v -3.4 3.2 -0.5
v -4.6 3.2 -0.6
v -4.5 3.2 -0.6
v -4.3 3.2 -0.6
v -3.7 3.2 -0.6
v -3.5 3.2 -0.6
v -3.4 3.2 -0.6
v -4.5 3.2 -0.7
v -4.4 3.2 -0.7
v -3.6 3.2 -0.7
v -3.5 3.2 -0.7
v -4.4 3.2 -0.8
v -3.6 3.2 -0.8
v -4.4 3.3 0.5
v -4.3 3.3 0.5
v -3.7 3.3 0.5
v -3.6 3.3 0.5
v -4.5 3.3 0.4
v -4.4 3.3 0.4
v -4.3 3.3 0.4
v -4.2 3.3 0.4
v -4.1 3.3 0.4
v -3.9 3.3 0.4
v -3.8 3.3 0.4
v -3.7 3.3 0.4
v -3.6 3.3 0.4
v -3.5 3.3 0.4
v -4.7 3.3 0.3
v -4.6 3.3 0.3
v -4.5 3.3 0.3
v -4.4 3.3 0.3
v -4.3 3.3 0.3
v -4.2 3.3 0.3
v -4.1 3.3 0.3
v -3.9 3.3 0.3
v -3.8 3.3 0.3
v -3.7 3.3 0.3
v -3.6 3.3 0.3
v -3.5 3.3 0.3
v -3.4 3.3 0.3
v -3.3 3.3 0.3
v -4.6 3.3 -0.4
v -4.5 3.3 -0.4
v -4.4 3.3 -0.4
v -4.3 3.3 -0.4
v -3.7 3.3 -0.4
v -3.6 3.3 -0.4
v -3.5 3.3 -0.4
v -3.4 3.3 -0.4
v -4.7 3.3 -0.5
v -4.5 3.3 -0.5
v -4.3 3.3 -0.5
v -3.7 3.3 -0.5
v -3.5 3.3 -0.5
v -3.3 3.3 -0.5
v -4.5 3.3 -0.6
v -4.3 3.3 -0.6
v -3.7 3.3 -0.6
v -3.5 3.3 -0.6

# faces
f 3/2/1 2/2/1 1/2/1
f 4/2/1 2/2/1 3/2/1
f 8/2/1 6/2/1 5/2/1
f 10/2/1 8/2/1 7/2/1
f 11/2/1 6/2/1 8/2/1
f 11/2/1 10/2/1 9/2/1
f 11/2/1 8/2/1 10/2/1
f 12/2/1 6/2/1 11/2/1
f 13/2/1 6/2/1 12/2/1
f 14/2/1 11/2/1 9/2/1
f 15/1/1 12/1/1 11/1/1
f 15/2/1 11/2/1 14/2/1
f 16/4/1 13/4/1 12/4/1
f 16/1/1 12/1/1 15/1/1
f 17/2/1 6/2/1 13/2/1
f 17/4/1 13/4/1 16/4/1
f 18/2/1 14/2/1 9/2/1
f 18/1/1 15/1/1 14/1/1
f 19/4/1 16/4/1 15/4/1
f 19/1/1 15/1/1 18/1/1
f 20/2/1 17/2/1 16/2/1
f 20/4/1 16/4/1 19/4/1
f 21/2/1 18/2/1 9/2/1
f 21/4/1 19/4/1 18/4/1
f 22/2/1 20/2/1 19/2/1
f 22/4/1 19/4/1 21/4/1
f 23/2/1 21/2/1 9/2/1
f 23/2/1 22/2/1 21/2/1
f 24/2/1 22/2/1 23/2/1
f 26/2/1 22/2/1 24/2/1
f 28/2/1 26/2/1 25/2/1
f 29/2/1 17/2/1 20/2/1
f 29/2/1 28/2/1 27/2/1
f 29/2/1 26/2/1 28/2/1
f 29/2/1 6/2/1 17/2/1
f 29/2/1 22/2/1 26/2/1
f 29/2/1 20/2/1 22/2/1
f 30/2/1 6/2/1 29/2/1
f 31/2/1 29/2/1 27/2/1
f 32/2/1 6/2/1 30/2/1
f 33/2/1 31/2/1 27/2/1
f 33/2/1 32/2/1 31/2/1
f 34/2/1 32/2/1 33/2/1
f 35/2/1 6/2/1 32/2/1
f 35/2/1 32/2/1 34/2/1
f 36/2/1 6/2/1 35/2/1
f 39/2/1 38/2/1 37/2/1
f 40/2/1 38/2/1 39/2/1
f 46/2/1 44/2/1 43/2/1
f 47/6/1 45/6/1 44/6/1
f 47/2/1 44/2/1 46/2/1
f 48/6/1 45/6/1 47/6/1
f 51/6/1 50/6/1 49/6/1
f 52/6/1 50/6/1 51/6/1
f 56/2/1 42/2/1 41/2/1
f 57/2/1 42/2/1 56/2/1
f 58/3/1 54/3/1 53/3/1
f 59/3/1 54/3/1 58/3/1
f 60/2/1 56/2/1 55/2/1
f 61/2/1 56/2/1 60/2/1
f 64/6/1 63/6/1 62/6/1
f 65/6/1 63/6/1 64/6/1
f 69/6/1 66/6/1 65/6/1
f 70/6/1 66/6/1 69/6/1
f 73/2/1 68/2/1 67/2/1
f 74/2/1 68/2/1 73/2/1
f 75/2/1 72/2/1 71/2/1
f 76/2/1 72/2/1 75/2/1
f 79/2/1 73/2/1 67/2/1
f 80/6/1 74/6/1 73/6/1
f 80/2/1 73/2/1 79/2/1
f 81/6/1 74/6/1 80/6/1
f 82/2/1 79/2/1 78/2/1
f 83/2/1 79/2/1 82/2/1
f 86/3/1 85/3/1 84/3/1
f 89/2/1 77/2/1 76/2/1
f 90/2/1 77/2/1 89/2/1
f 91/3/1 86/3/1 84/3/1
f 92/3/1 86/3/1 91/3/1
f 93/6/1 88/6/1 87/6/1
f 94/6/1 88/6/1 93/6/1
f 99/6/1 98/6/1 97/6/1
f 100/6/1 98/6/1 99/6/1
f 102/3/1 96/3/1 95/3/1
f 103/3/1 96/3/1 102/3/1
f 104/3/1 102/3/1 101/3/1
f 105/3/1 102/3/1 104/3/1
f 108/3/1 107/3/1 106/3/1
f 109/3/1 107/3/1 108/3/1
f 112/3/1 111/3/1 110/3/1
f 113/3/1 111/3/1 112/3/1
f 117/7/1 115/7/1 114/7/1
f 118/6/1 116/6/1 115/6/1
f 118/7/1 115/7/1 117/7/1
f 119/6/1 116/6/1 118/6/1
f 122/2/1 121/2/1 120/2/1
f 123/2/1 121/2/1 122/2/1
f 126/2/1 125/2/1 124/2/1
f 127/2/1 125/2/1 126/2/1
f 130/2/1 129/2/1 128/2/1
f 131/2/1 129/2/1 130/2/1
f 134/3/1 133/3/1 132/3/1
f 135/3/1 134/3/1 132/3/1
f 136/3/1 135/3/1 132/3/1
f 137/3/1 135/3/1 136/3/1
f 140/3/1 139/3/1 138/3/1
f 143/3/1 140/3/1 138/3/1
f 143/3/1 141/3/1 140/3/1
f 144/3/1 141/3/1 143/3/1
f 147/3/1 143/3/1 142/3/1
f 147/3/1 144/3/1 143/3/1
f 147/3/1 145/3/1 144/3/1
f 148/6/1 146/6/1 145/6/1
f 148/3/1 145/3/1 147/3/1
f 149/6/1 146/6/1 148/6/1
f 150/3/1 147/3/1 142/3/1
f 151/3/1 147/3/1 150/3/1
f 152/3/1 150/3/1 142/3/1
f 153/3/1 152/3/1 142/3/1
f 154/3/1 152/3/1 153/3/1
f 155/3/1 153/3/1 142/3/1
f 156/3/1 155/3/1 142/3/1
f 157/3/1 155/3/1 156/3/1
f 160/3/1 159/3/1 158/3/1
f 161/3/1 159/3/1 160/3/1
f 164/3/1 163/3/1 162/3/1
f 165/3/1 163/3/1 164/3/1
f 168/2/1 167/2/1 166/2/1
f 169/2/1 167/2/1 168/2/1
f 173/2/1 171/2/1 170/2/1
f 174/2/1 173/2/1 172/2/1
f 175/2/1 171/2/1 173/2/1
f 175/2/1 173/2/1 174/2/1
f 176/2/1 171/2/1 175/2/1
f 177/2/1 171/2/1 176/2/1
f 178/2/1 171/2/1 177/2/1
f 181/2/1 171/2/1 178/2/1
f 182/2/1 171/2/1 181/2/1
f 183/2/1 180/2/1 179/2/1
f 184/2/1 183/2/1 179/2/1
f 185/2/1 183/2/1 184/2/1
f 188/3/1 187/3/1 186/3/1
f 189/3/1 187/3/1 188/3/1
f 190/2/2 191/2/2 193/2/2
f 192/2/2 193/2/2 194/2/2
f 193/2/2 191/2/2 195/2/2
f 194/2/2 193/2/2 195/2/2
f 195/2/2 191/2/2 196/2/2
f 196/2/2 191/2/2 197/2/2
f 197/2/2 191/2/2 198/2/2
f 198/2/2 191/2/2 201/2/2
f 201/2/2 191/2/2 202/2/2
f 199/2/2 200/2/2 203/2/2
f 199/2/2 203/2/2 204/2/2
f 204/2/2 203/2/2 205/2/2
f 205/2/2 203/2/2 206/2/2
f 207/3/2 208/3/2 209/3/2
f 209/3/2 208/3/2 210/3/2
f 211/2/2 212/2/2 213/2/2
f 213/2/2 212/2/2 214/2/2
f 215/3/2 216/3/2 217/3/2
f 217/3/2 216/3/2 218/3/2
f 219/3/2 220/3/2 221/3/2
f 219/3/2 221/3/2 224/3/2
f 221/3/2 222/3/2 224/3/2
f 224/3/2 222/3/2 225/3/2
f 223/3/2 224/3/2 228/3/2
f 224/3/2 225/3/2 228/3/2
f 225/3/2 226/3/2 228/3/2
f 226/6/2 227/6/2 229/6/2
f 228/3/2 226/3/2 229/3/2
f 229/6/2 227/6/2 230/6/2
f 223/3/2 228/3/2 231/3/2
f 231/3/2 228/3/2 232/3/2
f 223/3/2 231/3/2 233/3/2
f 223/3/2 233/3/2 234/3/2
f 234/3/2 233/3/2 235/3/2
f 223/3/2 234/3/2 236/3/2
f 223/3/2 236/3/2 237/3/2
f 237/3/2 236/3/2 238/3/2
f 239/2/2 240/2/2 241/2/2
f 241/2/2 240/2/2 242/2/2
f 243/3/2 244/3/2 245/3/2
f 245/3/2 244/3/2 246/3/2
f 247/2/2 248/2/2 249/2/2
f 249/2/2 248/2/2 250/2/2
f 251/3/2 252/3/2 255/3/2
f 253/2/2 254/2/2 256/2/2
f 256/2/2 254/2/2 257/2/2
f 251/3/2 255/3/2 258/3/2
f 251/3/2 258/3/2 259/3/2
f 259/3/2 258/3/2 260/3/2
f 261/7/2 262/7/2 264/7/2
f 262/6/2 263/6/2 265/6/2
f 264/7/2 262/7/2 265/7/2
f 265/6/2 263/6/2 266/6/2
f 267/3/2 268/3/2 269/3/2
f 269/3/2 268/3/2 270/3/2
f 273/6/2 274/6/2 275/6/2
f 275/6/2 274/6/2 276/6/2
f 271/3/2 272/3/2 278/3/2
f 278/3/2 272/3/2 279/3/2
f 277/3/2 278/3/2 280/3/2
f 280/3/2 278/3/2 281/3/2
f 282/3/2 283/3/2 284/3/2
f 284/3/2 283/3/2 285/3/2
f 286/6/2 287/6/2 288/6/2
f 288/6/2 287/6/2 289/6/2
f 289/6/2 290/6/2 293/6/2
f 293/6/2 290/6/2 294/6/2
f 295/2/2 296/2/2 297/2/2
f 297/2/2 296/2/2 298/2/2
f 291/2/2 292/2/2 301/2/2
f 301/2/2 292/2/2 302/2/2
f 300/2/2 301/2/2 303/2/2
f 301/2/2 302/2/2 303/2/2
f 303/2/2 302/2/2 304/2/2
f 300/2/2 303/2/2 305/2/2
f 305/2/2 303/2/2 306/2/2
f 307/3/2 308/3/2 309/3/2
f 298/2/2 299/2/2 312/2/2
f 312/2/2 299/2/2 313/2/2
f 307/3/2 309/3/2 314/3/2
f 314/3/2 309/3/2 315/3/2
f 310/6/2 311/6/2 316/6/2
f 316/6/2 311/6/2 317/6/2
f 318/2/2 319/2/2 320/2/2
f 320/2/2 319/2/2 321/2/2
f 324/6/2 325/6/2 326/6/2
f 326/6/2 325/6/2 327/6/2
f 322/2/2 323/2/2 331/2/2
f 331/2/2 323/2/2 332/2/2
f 328/3/2 329/3/2 333/3/2
f 333/3/2 329/3/2 334/3/2
f 330/2/2 331/2/2 335/2/2
f 335/2/2 331/2/2 336/2/2
f 337/2/2 338/2/2 340/2/2
f 339/2/2 340/2/2 342/2/2
f 340/2/2 338/2/2 343/2/2
f 341/2/2 342/2/2 343/2/2
f 342/2/2 340/2/2 343/2/2
f 343/2/2 338/2/2 344/2/2
f 344/2/2 338/2/2 345/2/2
f 341/2/2 343/2/2 346/2/2
f 343/1/2 344/1/2 347/1/2
f 346/2/2 343/2/2 347/2/2
f 344/4/2 345/4/2 348/4/2
f 347/1/2 344/1/2 348/1/2
f 345/2/2 338/2/2 349/2/2
f 348/4/2 345/4/2 349/4/2
f 341/2/2 346/2/2 350/2/2
f 346/1/2 347/1/2 350/1/2
f 347/4/2 348/4/2 351/4/2
f 350/1/2 347/1/2 351/1/2
f 348/2/2 349/2/2 352/2/2
f 351/4/2 348/4/2 352/4/2
f 341/2/2 350/2/2 353/2/2
f 350/4/2 351/4/2 353/4/2
f 351/2/2 352/2/2 354/2/2
f 353/4/2 351/4/2 354/4/2
f 341/2/2 353/2/2 356/2/2
f 353/2/2 354/2/2 356/2/2
f 356/2/2 354/2/2 357/2/2
f 355/2/2 356/2/2 357/2/2
f 354/2/2 352/2/2 358/2/2
f 357/2/2 354/2/2 358/2/2
f 355/2/2 357/2/2 359/2/2
f 358/2/2 352/2/2 360/2/2
f 355/2/2 359/2/2 361/2/2
f 359/2/2 360/2/2 361/2/2
f 361/2/2 360/2/2 362/2/2
f 352/2/2 349/2/2 363/2/2
f 362/2/2 360/2/2 363/2/2
f 349/2/2 338/2/2 363/2/2
f 360/2/2 352/2/2 363/2/2
f 363/2/2 338/2/2 364/2/2
f 365/2/2 366/2/2 367/2/2
f 367/2/2 366/2/2 368/2/2
f 373/3/3 370/3/3 369/3/3
f 374/3/3 370/3/3 373/3/3
f 375/3/3 372/3/3 371/3/3
f 376/3/3 373/3/3 369/3/3
f 377/3/3 373/3/3 376/3/3
f 378/3/3 373/3/3 377/3/3
f 379/3/3 375/3/3 371/3/3
f 379/3/3 376/3/3 375/3/3
f 379/3/3 377/3/3 376/3/3
f 380/3/3 377/3/3 379/3/3
f 383/3/3 382/3/3 381/3/3
f 384/3/3 382/3/3 383/3/3
f 385/3/3 382/3/3 384/3/3
f 387/3/3 383/3/3 381/3/3
f 388/3/3 383/3/3 387/3/3
f 389/3/3 385/3/3 384/3/3
f 389/3/3 386/3/3 385/3/3
f 391/3/3 389/3/3 384/3/3
f 391/3/3 390/3/3 389/3/3
f 392/3/3 390/3/3 391/3/3
f 395/2/3 394/2/3 393/2/3
f 398/2/3 395/2/3 393/2/3
f 399/2/3 395/2/3 398/2/3
f 400/3/3 396/3/3 395/3/3
f 400/2/3 395/2/3 399/2/3
f 401/3/3 396/3/3 400/3/3
f 403/2/3 399/2/3 398/2/3
f 403/2/3 398/2/3 397/2/3
f 404/2/3 399/2/3 403/2/3
f 405/2/3 399/2/3 404/2/3
f 408/3/3 403/3/3 402/3/3
f 408/3/3 404/3/3 403/3/3
f 409/3/3 404/3/3 408/3/3
f 410/2/3 399/2/3 405/2/3
f 411/2/3 399/2/3 410/2/3
f 413/6/3 407/6/3 406/6/3
f 414/6/3 407/6/3 413/6/3
f 418/6/3 413/6/3 412/6/3
f 419/7/3 414/7/3 413/7/3
f 419/6/3 413/6/3 418/6/3
f 420/7/3 414/7/3 419/7/3
f 421/6/3 416/6/3 415/6/3
f 422/7/3 417/7/3 416/7/3
f 422/6/3 416/6/3 421/6/3
f 423/6/3 418/6/3 417/6/3
f 423/7/3 417/7/3 422/7/3
f 424/7/3 419/7/3 418/7/3
f 424/6/3 418/6/3 423/6/3
f 425/6/3 420/6/3 419/6/3
f 425/7/3 419/7/3 424/7/3
f 426/6/3 420/6/3 425/6/3
f 431/6/3 425/6/3 424/6/3
f 432/7/3 426/7/3 425/7/3
f 432/6/3 425/6/3 431/6/3
f 433/7/3 426/7/3 432/7/3
f 434/3/3 428/3/3 427/3/3
f 435/3/3 428/3/3 434/3/3
f 436/3/3 428/3/3 435/3/3
f 437/2/3 430/2/3 429/2/3
f 438/6/3 433/6/3 432/6/3
f 439/6/3 433/6/3 438/6/3
f 440/2/3 436/2/3 435/2/3
f 440/2/3 437/2/3 436/2/3
f 441/2/3 430/2/3 437/2/3
f 441/2/3 437/2/3 440/2/3
f 442/2/3 430/2/3 441/2/3
f 445/3/3 444/3/3 443/3/3
f 445/2/3 443/2/3 442/2/3
f 445/2/3 442/2/3 441/2/3
f 446/3/3 444/3/3 445/3/3
f 447/2/3 445/2/3 441/2/3
f 448/2/3 445/2/3 447/2/3
f 455/2/3 450/2/3 449/2/3
f 456/2/3 450/2/3 455/2/3
f 458/2/3 452/2/3 451/2/3
f 459/2/3 452/2/3 458/2/3
f 460/2/3 452/2/3 459/2/3
f 461/2/3 452/2/3 460/2/3
f 462/2/3 454/2/3 453/2/3
f 463/3/3 456/3/3 455/3/3
f 464/3/3 456/3/3 463/3/3
f 465/2/3 458/2/3 457/2/3
f 465/2/3 459/2/3 458/2/3
f 466/2/3 459/2/3 465/2/3
f 467/2/3 459/2/3 466/2/3
f 468/2/3 461/2/3 460/2/3
f 468/2/3 462/2/3 461/2/3
f 469/2/3 454/2/3 462/2/3
f 469/2/3 462/2/3 468/2/3
f 471/2/3 467/2/3 466/2/3
f 471/2/3 468/2/3 467/2/3
f 472/2/3 468/2/3 471/2/3
f 473/3/3 471/3/3 470/3/3
f 474/3/3 471/3/3 473/3/3
f 478/7/3 477/7/3 476/7/3
f 478/6/3 476/6/3 475/6/3
f 479/7/3 477/7/3 478/7/3
f 480/6/3 478/6/3 475/6/3
f 480/6/3 479/6/3 478/6/3
f 481/6/3 479/6/3 480/6/3
f 484/6/3 480/6/3 475/6/3
f 485/7/3 481/7/3 480/7/3
f 485/6/3 480/6/3 484/6/3
f 486/7/3 481/7/3 485/7/3
f 487/3/3 483/3/3 482/3/3
f 488/3/3 483/3/3 487/3/3
f 491/2/3 489/2/3 488/2/3
f 492/2/3 489/2/3 491/2/3
f 493/2/3 489/2/3 492/2/3
f 496/2/3 492/2/3 491/2/3
f 496/2/3 491/2/3 490/2/3
f 497/2/3 492/2/3 496/2/3
f 498/2/3 492/2/3 497/2/3
f 499/2/3 495/2/3 494/2/3
f 502/2/3 499/2/3 498/2/3
f 502/2/3 498/2/3 497/2/3
f 503/2/3 495/2/3 499/2/3
f 503/2/3 499/2/3 502/2/3
f 504/3/3 501/3/3 500/3/3
f 505/3/3 501/3/3 504/3/3
f 506/2/3 505/2/3 504/2/3
f 507/2/3 505/2/3 506/2/3
f 510/2/3 509/2/3 508/2/3
f 511/2/3 509/2/3 510/2/3
f 512/2/3 509/2/3 511/2/3
f 515/2/3 514/2/3 513/2/3
f 516/2/3 514/2/3 515/2/3
f 522/7/3 518/7/3 517/7/3
f 523/7/3 518/7/3 522/7/3
f 524/7/3 521/7/3 520/7/3
f 524/6/3 520/6/3 519/6/3
f 525/7/3 521/7/3 524/7/3
f 526/6/3 523/6/3 522/6/3
f 527/6/3 523/6/3 526/6/3
f 528/6/3 524/6/3 519/6/3
f 528/6/3 525/6/3 524/6/3
f 529/6/3 525/6/3 528/6/3
f 530/7/3 527/7/3 526/7/3
f 531/7/3 527/7/3 530/7/3
f 532/6/3 528/6/3 519/6/3
f 533/7/3 529/7/3 528/7/3
f 533/6/3 528/6/3 532/6/3
f 534/7/3 529/7/3 533/7/3
f 537/2/3 536/2/3 535/2/3
f 538/2/3 536/2/3 537/2/3
f 545/2/3 540/2/3 539/2/3
f 546/6/3 541/6/3 540/6/3
f 546/2/3 540/2/3 545/2/3
f 547/6/3 541/6/3 546/6/3
f 548/2/3 544/2/3 543/2/3
f 548/2/3 543/2/3 542/2/3
f 549/2/3 544/2/3 548/2/3
f 554/2/3 551/2/3 550/2/3
f 555/2/3 551/2/3 554/2/3
f 559/2/3 553/2/3 552/2/3
f 560/2/3 553/2/3 559/2/3
f 561/2/3 557/2/3 556/2/3
f 562/6/3 558/6/3 557/6/3
f 562/2/3 557/2/3 561/2/3
f 563/6/3 558/6/3 562/6/3
f 568/6/3 565/6/3 564/6/3
f 569/6/3 565/6/3 568/6/3
f 570/6/3 565/6/3 569/6/3
f 571/6/3 565/6/3 570/6/3
f 572/7/3 567/7/3 566/7/3
f 573/7/3 567/7/3 572/7/3
f 576/2/3 575/2/3 574/2/3
f 577/2/3 575/2/3 576/2/3
f 580/7/3 579/7/3 578/7/3
f 581/7/3 579/7/3 580/7/3
f 584/2/3 583/2/3 582/2/3
f 585/2/3 583/2/3 584/2/3
f 588/3/3 587/3/3 586/3/3
f 589/3/3 587/3/3 588/3/3
f 592/3/3 591/3/3 590/3/3
f 593/3/3 591/3/3 592/3/3
f 598/2/3 595/2/3 594/2/3
f 599/2/3 595/2/3 598/2/3
f 600/2/3 597/2/3 596/2/3
f 601/2/3 597/2/3 600/2/3
f 602/2/3 600/2/3 596/2/3
f 603/2/3 600/2/3 602/2/3
f 606/2/3 602/2/3 596/2/3
f 607/2/3 602/2/3 606/2/3
f 608/2/3 605/2/3 604/2/3
f 609/2/3 605/2/3 608/2/3
f 611/2/3 602/2/3 607/2/3
f 614/2/3 613/2/3 612/2/3
f 615/2/3 613/2/3 614/2/3
f 616/2/3 602/2/3 611/2/3
f 616/2/3 611/2/3 610/2/3
f 618/2/3 617/2/3 616/2/3
f 620/2/3 616/2/3 610/2/3
f 620/2/3 619/2/3 618/2/3
f 620/2/3 618/2/3 616/2/3
f 621/2/3 619/2/3 620/2/3
f 622/3/4 623/3/4 624/3/4
f 624/3/4 623/3/4 625/3/4
f 626/3/4 627/3/4 630/3/4
f 630/3/4 627/3/4 631/3/4
f 628/2/4 629/2/4 632/2/4
f 632/2/4 629/2/4 633/2/4
f 634/6/4 635/6/4 636/6/4
f 636/6/4 635/6/4 637/6/4
f 638/6/4 639/6/4 640/6/4
f 640/6/4 639/6/4 641/6/4
f 642/2/4 643/2/4 646/2/4
f 646/2/4 643/2/4 647/2/4
f 644/6/4 645/6/4 649/6/4
f 649/6/4 645/6/4 650/6/4
f 648/6/4 649/6/4 651/6/4
f 651/6/4 649/6/4 652/6/4
f 653/6/4 654/6/4 655/6/4
f 655/6/4 654/6/4 656/6/4
f 656/6/4 657/6/4 658/6/4
f 658/6/4 657/6/4 659/6/4
f 660/2/4 661/2/4 662/2/4
f 662/2/4 661/2/4 663/2/4
f 663/2/4 661/2/4 664/2/4
f 665/2/4 666/2/4 667/2/4
f 667/2/4 666/2/4 668/2/4
f 668/2/4 666/2/4 669/2/4
f 670/2/4 671/2/4 672/2/4
f 672/2/4 671/2/4 673/2/4
f 670/2/4 672/2/4 675/2/4
f 675/2/4 672/2/4 676/2/4
f 673/2/4 674/2/4 677/2/4
f 677/2/4 674/2/4 678/2/4
f 670/2/4 675/2/4 679/2/4
f 679/2/4 675/2/4 680/2/4
f 680/2/4 675/2/4 682/2/4
f 677/3/4 678/3/4 683/3/4
f 683/3/4 678/3/4 684/3/4
f 681/2/4 682/2/4 685/2/4
f 682/2/4 675/2/4 685/2/4
f 685/2/4 686/2/4 687/2/4
f 683/2/4 684/2/4 688/2/4
f 688/2/4 684/2/4 689/2/4
f 685/2/4 687/2/4 690/2/4
f 681/2/4 685/2/4 690/2/4
f 687/2/4 688/2/4 690/2/4
f 690/2/4 688/2/4 691/2/4
f 692/2/4 693/2/4 695/2/4
f 695/2/4 693/2/4 696/2/4
f 697/6/4 698/6/4 700/6/4
f 700/6/4 698/6/4 701/6/4
f 699/6/4 700/6/4 702/6/4
f 702/6/4 700/6/4 703/6/4
f 694/2/4 695/2/4 704/2/4
f 704/2/4 695/2/4 705/2/4
f 705/2/4 706/2/4 707/2/4
f 707/2/4 706/2/4 708/2/4
f 709/2/4 710/2/4 711/2/4
f 711/2/4 710/2/4 712/2/4
f 709/2/4 711/2/4 713/2/4
f 713/2/4 711/2/4 714/2/4
f 712/2/4 710/2/4 715/2/4
f 709/2/4 713/2/4 716/2/4
f 714/2/4 715/2/4 717/2/4
f 709/2/4 716/2/4 718/2/4
f 716/2/4 717/2/4 718/2/4
f 717/2/4 715/2/4 719/2/4
f 718/2/4 717/2/4 719/2/4
f 715/2/4 710/2/4 719/2/4
f 724/2/5 721/2/5 720/2/5
f 727/2/5 723/2/5 722/2/5
f 728/2/5 725/2/5 724/2/5
f 728/2/5 724/2/5 720/2/5
f 729/2/5 725/2/5 728/2/5
f 730/2/5 727/2/5 726/2/5
f 731/2/5 723/2/5 727/2/5
f 731/2/5 727/2/5 730/2/5
f 736/2/5 733/2/5 732/2/5
f 737/2/5 733/2/5 736/2/5
f 738/2/5 735/2/5 734/2/5
f 739/2/5 735/2/5 738/2/5
f 742/2/5 741/2/5 740/2/5
f 743/2/5 741/2/5 742/2/5
f 752/2/5 745/2/5 744/2/5
f 753/2/5 745/2/5 752/2/5
f 754/3/5 747/3/5 746/3/5
f 755/3/5 747/3/5 754/3/5
f 758/3/5 749/3/5 748/3/5
f 759/3/5 749/3/5 758/3/5
f 760/2/5 751/2/5 750/2/5
f 761/2/5 751/2/5 760/2/5
f 762/2/5 753/2/5 752/2/5
f 762/2/5 754/2/5 753/2/5
f 763/6/5 755/6/5 754/6/5
f 763/2/5 754/2/5 762/2/5
f 764/7/5 756/7/5 755/7/5
f 764/6/5 755/6/5 763/6/5
f 765/6/5 757/6/5 756/6/5
f 765/7/5 756/7/5 764/7/5
f 766/7/5 758/7/5 757/7/5
f 766/6/5 757/6/5 765/6/5
f 767/6/5 759/6/5 758/6/5
f 767/7/5 758/7/5 766/7/5
f 768/2/5 761/2/5 760/2/5
f 768/6/5 759/6/5 767/6/5
f 768/2/5 760/2/5 759/2/5
f 769/2/5 761/2/5 768/2/5
f 770/2/5 762/2/5 752/2/5
f 771/6/5 766/6/5 765/6/5
f 771/2/5 762/2/5 770/2/5
f 771/6/5 764/6/5 763/6/5
f 771/6/5 769/6/5 768/6/5
f 771/6/5 768/6/5 767/6/5
f 771/6/5 767/6/5 766/6/5
f 771/6/5 765/6/5 764/6/5
f 771/6/5 763/6/5 762/6/5
f 772/2/5 761/2/5 769/2/5
f 772/6/5 769/6/5 771/6/5
f 773/2/5 761/2/5 772/2/5
f 774/6/5 771/6/5 770/6/5
f 774/6/5 772/6/5 771/6/5
f 774/6/5 773/6/5 772/6/5
f 775/6/5 773/6/5 774/6/5
f 776/6/5 773/6/5 775/6/5
f 777/6/5 773/6/5 776/6/5
f 778/6/5 776/6/5 775/6/5
f 779/6/5 776/6/5 778/6/5
f 780/6/5 776/6/5 779/6/5
f 781/6/5 776/6/5 780/6/5
f 782/6/5 780/6/5 779/6/5
f 783/6/5 780/6/5 782/6/5
f 788/2/5 785/2/5 784/2/5
f 789/2/5 785/2/5 788/2/5
f 790/2/5 787/2/5 786/2/5
f 791/2/5 787/2/5 790/2/5
f 796/6/5 793/6/5 792/6/5
f 797/6/5 793/6/5 796/6/5
f 800/6/5 795/6/5 794/6/5
f 801/6/5 795/6/5 800/6/5
f 802/6/5 798/6/5 797/6/5
f 803/6/5 798/6/5 802/6/5
f 804/6/5 800/6/5 799/6/5
f 805/6/5 800/6/5 804/6/5
f 811/3/5 807/3/5 806/3/5
f 812/3/5 807/3/5 811/3/5
f 813/3/5 809/3/5 808/3/5
f 814/3/5 809/3/5 813/3/5
f 816/2/5 811/2/5 810/2/5
f 817/2/5 811/2/5 816/2/5
f 818/2/5 815/2/5 814/2/5
f 819/2/5 815/2/5 818/2/5
f 822/7/5 821/7/5 820/7/5
f 823/7/5 821/7/5 822/7/5
f 824/7/5 821/7/5 823/7/5
f 825/7/5 821/7/5 824/7/5
f 826/6/5 823/6/5 822/6/5
f 827/6/5 825/6/5 824/6/5
f 832/6/5 829/6/5 828/6/5
f 833/6/5 829/6/5 832/6/5
f 834/6/5 826/6/5 822/6/5
f 835/6/5 826/6/5 834/6/5
f 836/6/5 825/6/5 827/6/5
f 837/6/5 825/6/5 836/6/5
f 838/6/5 831/6/5 830/6/5
f 839/6/5 831/6/5 838/6/5
f 842/2/5 841/2/5 840/2/5
f 843/2/5 841/2/5 842/2/5
f 846/6/5 845/6/5 844/6/5
f 847/6/5 845/6/5 846/6/5
f 852/2/5 849/2/5 848/2/5
f 853/2/5 849/2/5 852/2/5
f 854/2/5 851/2/5 850/2/5
f 855/2/5 851/2/5 854/2/5
f 856/2/5 854/2/5 853/2/5
f 857/2/5 854/2/5 856/2/5
f 863/2/5 859/2/5 858/2/5
f 864/2/5 859/2/5 863/2/5
f 865/2/5 861/2/5 860/2/5
f 866/2/5 861/2/5 865/2/5
f 867/2/5 863/2/5 862/2/5
f 868/2/5 863/2/5 867/2/5
f 869/6/5 868/6/5 867/6/5
f 870/6/5 868/6/5 869/6/5
f 875/6/5 872/6/5 871/6/5
f 876/6/5 872/6/5 875/6/5
f 877/6/5 872/6/5 876/6/5
f 878/6/5 872/6/5 877/6/5
f 879/2/5 874/2/5 873/2/5
f 880/2/5 874/2/5 879/2/5
f 885/3/5 882/3/5 881/3/5
f 886/3/5 882/3/5 885/3/5
f 887/3/5 882/3/5 886/3/5
f 888/3/5 884/3/5 883/3/5
f 889/3/5 884/3/5 888/3/5
f 890/3/5 884/3/5 889/3/5
f 893/6/5 887/6/5 886/6/5
f 893/6/5 888/6/5 887/6/5
f 893/6/5 889/6/5 888/6/5
f 894/6/5 889/6/5 893/6/5
f 895/6/5 889/6/5 894/6/5
f 896/6/5 889/6/5 895/6/5
f 897/2/5 892/2/5 891/2/5
f 898/2/5 897/2/5 891/2/5
f 899/2/5 897/2/5 898/2/5
f 904/2/5 901/2/5 900/2/5
f 905/2/5 901/2/5 904/2/5
f 906/2/5 903/2/5 902/2/5
f 907/2/5 903/2/5 906/2/5
f 910/2/5 909/2/5 908/2/5
f 911/2/5 909/2/5 910/2/5
f 916/3/5 913/3/5 912/3/5
f 917/3/5 913/3/5 916/3/5
f 918/3/5 915/3/5 914/3/5
f 919/3/5 915/3/5 918/3/5
f 922/2/5 921/2/5 920/2/5
f 923/2/5 921/2/5 922/2/5
f 926/2/5 925/2/5 924/2/5
f 927/2/5 925/2/5 926/2/5
f 930/2/5 929/2/5 928/2/5
f 931/2/5 929/2/5 930/2/5
f 936/2/5 933/2/5 932/2/5
f 937/2/5 933/2/5 936/2/5
f 938/2/5 935/2/5 934/2/5
f 939/2/5 935/2/5 938/2/5
f 940/7/6 941/7/6 944/7/6
f 941/6/6 942/6/6 945/6/6
f 944/7/6 941/7/6 945/7/6
f 942/7/6 943/7/6 946/7/6
f 945/6/6 942/6/6 946/6/6
f 946/7/6 943/7/6 947/7/6
f 948/6/6 949/6/6 950/6/6
f 950/6/6 949/6/6 951/6/6
f 951/6/6 949/6/6 952/6/6
f 952/6/6 949/6/6 953/6/6
f 950/6/6 951/6/6 954/6/6
f 952/6/6 953/6/6 955/6/6
f 950/6/6 954/6/6 956/6/6
f 956/6/6 954/6/6 957/6/6
f 955/6/6 953/6/6 958/6/6
f 958/6/6 953/6/6 959/6/6
f 962/2/6 963/2/6 964/2/6
f 964/2/6 963/2/6 965/2/6
f 960/2/6 961/2/6 966/2/6
f 966/2/6 961/2/6 967/2/6
f 968/2/6 969/2/6 970/2/6
f 968/2/6 970/2/6 971/2/6
f 971/2/6 970/2/6 972/2/6
f 973/2/6 974/2/6 975/2/6
f 975/2/6 974/2/6 976/2/6
f 977/3/6 978/3/6 981/3/6
f 981/3/6 978/3/6 982/3/6
f 979/3/6 980/3/6 983/3/6
f 983/3/6 980/3/6 984/3/6
f 985/2/6 986/2/6 987/2/6
f 987/2/6 986/2/6 988/2/6
f 989/2/6 990/2/6 991/2/6
f 991/2/6 990/2/6 992/2/6
f 993/2/6 994/2/6 995/2/6
f 995/2/6 994/2/6 996/2/6
f 997/3/6 998/3/6 1001/3/6
f 1001/3/6 998/3/6 1002/3/6
f 999/3/6 1000/3/6 1003/3/6
f 1003/3/6 1000/3/6 1004/3/6
f 1005/3/6 1006/3/6 1011/3/6
f 1011/3/6 1006/3/6 1012/3/6
f 1007/3/6 1008/3/6 1013/3/6
f 1013/3/6 1008/3/6 1014/3/6
f 1009/2/6 1010/2/6 1017/2/6
f 1017/2/6 1010/2/6 1018/2/6
f 1015/2/6 1016/2/6 1021/2/6
f 1021/2/6 1016/2/6 1022/2/6
f 1018/6/6 1019/6/6 1023/6/6
f 1023/6/6 1019/6/6 1024/6/6
f 1020/6/6 1021/6/6 1025/6/6
f 1025/6/6 1021/6/6 1026/6/6
f 1027/2/6 1028/2/6 1031/2/6
f 1031/2/6 1028/2/6 1032/2/6
f 1029/2/6 1030/2/6 1035/2/6
f 1035/2/6 1030/2/6 1036/2/6
f 1033/2/6 1034/2/6 1037/2/6
f 1034/2/6 1035/2/6 1037/2/6
f 1032/2/6 1033/2/6 1037/2/6
f 1037/2/6 1035/2/6 1038/2/6
f 1038/2/6 1035/2/6 1039/2/6
f 1039/2/6 1035/2/6 1040/2/6
f 1038/2/6 1039/2/6 1041/2/6
f 1041/2/6 1039/2/6 1042/2/6
f 1043/3/6 1044/3/6 1048/3/6
f 1048/3/6 1044/3/6 1049/3/6
f 1045/3/6 1046/3/6 1054/3/6
f 1054/3/6 1046/3/6 1055/3/6
f 1047/3/6 1048/3/6 1059/3/6
f 1048/7/6 1049/7/6 1060/7/6
f 1059/3/6 1048/3/6 1060/3/6
f 1049/6/6 1050/6/6 1061/6/6
f 1060/7/6 1049/7/6 1061/7/6
f 1050/7/6 1051/7/6 1062/7/6
f 1061/6/6 1050/6/6 1062/6/6
f 1051/6/6 1052/6/6 1063/6/6
f 1062/7/6 1051/7/6 1063/7/6
f 1052/7/6 1053/7/6 1064/7/6
f 1063/6/6 1052/6/6 1064/6/6
f 1053/6/6 1054/6/6 1065/6/6
f 1064/7/6 1053/7/6 1065/7/6
f 1054/7/6 1055/7/6 1066/7/6
f 1065/6/6 1054/6/6 1066/6/6
f 1055/3/6 1056/3/6 1067/3/6
f 1066/7/6 1055/7/6 1067/7/6
f 1067/3/6 1056/3/6 1068/3/6
f 1057/2/6 1058/2/6 1071/2/6
f 1058/3/6 1059/3/6 1071/3/6
f 1071/3/6 1059/3/6 1072/3/6
f 1062/6/6 1063/6/6 1073/6/6
f 1066/6/6 1067/6/6 1073/6/6
f 1060/6/6 1061/6/6 1073/6/6
f 1061/6/6 1062/6/6 1073/6/6
f 1065/6/6 1066/6/6 1073/6/6
f 1064/6/6 1065/6/6 1073/6/6
f 1063/6/6 1064/6/6 1073/6/6
f 1073/6/6 1067/6/6 1074/6/6
f 1074/6/6 1067/6/6 1075/6/6
f 1075/6/6 1067/6/6 1076/6/6
f 1068/3/6 1069/3/6 1077/3/6
f 1069/2/6 1070/2/6 1078/2/6
f 1077/3/6 1069/3/6 1078/3/6
f 1071/2/6 1072/2/6 1079/2/6
f 1057/2/6 1071/2/6 1079/2/6
f 1072/3/6 1073/3/6 1080/3/6
f 1079/2/6 1072/2/6 1080/2/6
f 1073/3/6 1074/3/6 1080/3/6
f 1074/6/6 1075/6/6 1081/6/6
f 1080/3/6 1074/3/6 1081/3/6
f 1076/3/6 1077/3/6 1082/3/6
f 1081/6/6 1075/6/6 1082/6/6
f 1075/3/6 1076/3/6 1082/3/6
f 1077/2/6 1078/2/6 1083/2/6
f 1082/3/6 1077/3/6 1083/3/6
f 1078/2/6 1070/2/6 1084/2/6
f 1083/2/6 1078/2/6 1084/2/6
f 1080/2/6 1081/2/6 1085/2/6
f 1081/3/6 1082/3/6 1086/3/6
f 1085/2/6 1081/2/6 1086/2/6
f 1082/2/6 1083/2/6 1087/2/6
f 1086/3/6 1082/3/6 1087/3/6
f 1087/2/6 1083/2/6 1088/2/6
