# MagicaVoxel @ Ephtracy

# group
o 

# material
mtllib The Twitcher-1.mtl
usemtl palette

# normals
vn -1 0 0
vn 1 0 0
vn 0 0 1
vn 0 0 -1
vn 0 -1 0
vn 0 1 0

# texcoords
vt 0.841797 0.5
vt 0.974609 0.5
vt 0.978516 0.5
vt 0.986328 0.5
vt 0.990234 0.5

# verts
v 7.3 0 0.3
v 7.3 0 0.1
v 7.3 0.1 0.3
v 7.3 0.1 0.2
v 7.3 0.2 0.3
v 7.3 0.2 0.2
v 7.3 0.5 0.3
v 7.3 0.5 0.2
v 7.3 0.6 0.3
v 7.3 0.6 0.2
v 7.3 0.7 0.2
v 7.3 0.7 0.1
v 7.3 0.8 0.3
v 7.3 0.8 0.2
v 7.6 0 0.2
v 7.6 0 0.1
v 7.6 0.1 0.2
v 7.6 0.1 0.1
v 7.6 0.5 0.2
v 7.6 0.5 0.1
v 7.6 0.6 0.2
v 7.6 0.6 0.1
v 7.6 0.7 0.3
v 7.6 0.7 0.2
v 7.6 0.7 0.1
v 7.6 0.8 0.3
v 7.6 0.8 0.2
v 7.7 0 0.3
v 7.7 0 0.2
v 7.7 0.1 0.2
v 7.7 0.1 0.1
v 7.7 0.5 0.2
v 7.7 0.5 0.1
v 7.7 0.6 0.3
v 7.7 0.6 0.2
v 7.7 0.7 0.3
v 7.7 0.7 0.2
v 7.3 0 0.3
v 7.3 0.1 0.3
v 7.3 0.2 0.3
v 7.3 0.5 0.3
v 7.3 0.6 0.3
v 7.3 0.8 0.3
v 7.4 0.1 0.3
v 7.4 0.2 0.3
v 7.4 0.4 0.3
v 7.4 0.5 0.3
v 7.4 0.6 0.3
v 7.4 0.7 0.3
v 7.5 0.2 0.3
v 7.5 0.3 0.3
v 7.5 0.4 0.3
v 7.5 0.5 0.3
v 7.5 0.6 0.3
v 7.5 0.7 0.3
v 7.5 0.8 0.3
v 7.6 0.2 0.3
v 7.6 0.3 0.3
v 7.6 0.5 0.3
v 7.6 0.6 0.3
v 7.6 0.7 0.3
v 7.6 0.8 0.3
v 7.7 0 0.3
v 7.7 0.6 0.3
v 7.7 0.7 0.3
v 7.3 0.7 0.2
v 7.3 0.8 0.2
v 7.5 0.7 0.2
v 7.5 0.8 0.2
v 7.6 0 0.2
v 7.6 0.1 0.2
v 7.6 0.5 0.2
v 7.6 0.6 0.2
v 7.6 0.7 0.2
v 7.6 0.8 0.2
v 7.7 0 0.2
v 7.7 0.1 0.2
v 7.7 0.5 0.2
v 7.7 0.6 0.2
v 7.7 0.7 0.2
v 7.3 0 0.1
v 7.3 0.7 0.1
v 7.5 0.6 0.1
v 7.5 0.7 0.1
v 7.6 0 0.1
v 7.6 0.1 0.1
v 7.6 0.5 0.1
v 7.6 0.6 0.1
v 7.6 0.7 0.1
v 7.7 0.1 0.1
v 7.7 0.5 0.1
v 7.3 0 0.3
v 7.7 0 0.3
v 7.6 0 0.2
v 7.7 0 0.2
v 7.3 0 0.1
v 7.6 0 0.1
v 7.6 0.1 0.2
v 7.7 0.1 0.2
v 7.6 0.1 0.1
v 7.7 0.1 0.1
v 7.6 0.5 0.2
v 7.7 0.5 0.2
v 7.6 0.5 0.1
v 7.7 0.5 0.1
v 7.6 0.7 0.3
v 7.7 0.7 0.3
v 7.3 0.7 0.2
v 7.5 0.7 0.2
v 7.6 0.7 0.2
v 7.7 0.7 0.2
v 7.3 0.7 0.1
v 7.5 0.7 0.1
v 7.6 0.7 0.1
v 7.3 0.8 0.3
v 7.5 0.8 0.3
v 7.6 0.8 0.3
v 7.3 0.8 0.2
v 7.5 0.8 0.2
v 7.6 0.8 0.2

# faces
f 3/1/1 2/1/1 1/1/1
f 4/1/1 2/1/1 3/1/1
f 5/2/1 4/2/1 3/2/1
f 6/1/1 2/1/1 4/1/1
f 6/2/1 4/2/1 5/2/1
f 7/1/1 6/1/1 5/1/1
f 8/1/1 2/1/1 6/1/1
f 8/1/1 6/1/1 7/1/1
f 9/4/1 8/4/1 7/4/1
f 10/1/1 2/1/1 8/1/1
f 10/4/1 8/4/1 9/4/1
f 11/1/1 10/1/1 9/1/1
f 11/1/1 2/1/1 10/1/1
f 12/1/1 2/1/1 11/1/1
f 13/1/1 11/1/1 9/1/1
f 14/1/1 11/1/1 13/1/1
f 15/1/2 16/1/2 17/1/2
f 17/1/2 16/1/2 18/1/2
f 19/1/2 20/1/2 21/1/2
f 21/1/2 20/1/2 22/1/2
f 21/5/2 22/5/2 24/5/2
f 24/5/2 22/5/2 25/5/2
f 23/5/2 24/5/2 26/5/2
f 26/5/2 24/5/2 27/5/2
f 28/1/2 29/1/2 30/1/2
f 28/1/2 30/1/2 32/1/2
f 30/1/2 31/1/2 32/1/2
f 32/1/2 31/1/2 33/1/2
f 28/1/2 32/1/2 34/1/2
f 34/1/2 32/1/2 35/1/2
f 34/5/2 35/5/2 36/5/2
f 36/5/2 35/5/2 37/5/2
f 44/1/3 39/1/3 38/1/3
f 44/2/3 40/2/3 39/2/3
f 45/1/3 41/1/3 40/1/3
f 45/2/3 40/2/3 44/2/3
f 46/1/3 41/1/3 45/1/3
f 47/4/3 42/4/3 41/4/3
f 47/1/3 41/1/3 46/1/3
f 48/1/3 43/1/3 42/1/3
f 48/4/3 42/4/3 47/4/3
f 49/1/3 43/1/3 48/1/3
f 50/1/3 46/1/3 45/1/3
f 50/1/3 45/1/3 44/1/3
f 51/1/3 46/1/3 50/1/3
f 52/3/3 47/3/3 46/3/3
f 52/1/3 46/1/3 51/1/3
f 53/1/3 48/1/3 47/1/3
f 53/3/3 47/3/3 52/3/3
f 54/3/3 49/3/3 48/3/3
f 54/1/3 48/1/3 53/1/3
f 55/1/3 43/1/3 49/1/3
f 55/3/3 49/3/3 54/3/3
f 56/1/3 43/1/3 55/1/3
f 57/5/3 51/5/3 50/5/3
f 57/1/3 50/1/3 44/1/3
f 58/1/3 53/1/3 52/1/3
f 58/5/3 51/5/3 57/5/3
f 58/1/3 52/1/3 51/1/3
f 59/4/3 54/4/3 53/4/3
f 59/1/3 53/1/3 58/1/3
f 60/1/3 55/1/3 54/1/3
f 60/4/3 54/4/3 59/4/3
f 61/5/3 56/5/3 55/5/3
f 61/1/3 55/1/3 60/1/3
f 62/5/3 56/5/3 61/5/3
f 63/1/3 58/1/3 57/1/3
f 63/1/3 44/1/3 38/1/3
f 63/1/3 57/1/3 44/1/3
f 63/1/3 60/1/3 59/1/3
f 63/1/3 59/1/3 58/1/3
f 64/5/3 61/5/3 60/5/3
f 64/1/3 60/1/3 63/1/3
f 65/5/3 61/5/3 64/5/3
f 66/1/4 67/1/4 68/1/4
f 68/1/4 67/1/4 69/1/4
f 68/5/4 69/5/4 74/5/4
f 74/5/4 69/5/4 75/5/4
f 70/1/4 71/1/4 76/1/4
f 76/1/4 71/1/4 77/1/4
f 72/1/4 73/1/4 78/1/4
f 73/5/4 74/5/4 79/5/4
f 78/1/4 73/1/4 79/1/4
f 79/5/4 74/5/4 80/5/4
f 81/1/4 82/1/4 83/1/4
f 83/1/4 82/1/4 84/1/4
f 81/1/4 83/1/4 85/1/4
f 85/1/4 83/1/4 86/1/4
f 86/1/4 83/1/4 87/1/4
f 83/5/4 84/5/4 88/5/4
f 87/1/4 83/1/4 88/1/4
f 88/5/4 84/5/4 89/5/4
f 86/1/4 87/1/4 90/1/4
f 90/1/4 87/1/4 91/1/4
f 94/1/5 93/1/5 92/1/5
f 95/1/5 93/1/5 94/1/5
f 96/1/5 94/1/5 92/1/5
f 97/1/5 94/1/5 96/1/5
f 100/1/5 99/1/5 98/1/5
f 101/1/5 99/1/5 100/1/5
f 102/1/6 103/1/6 104/1/6
f 104/1/6 103/1/6 105/1/6
f 106/5/6 107/5/6 110/5/6
f 110/5/6 107/5/6 111/5/6
f 108/1/6 109/1/6 112/1/6
f 109/5/6 110/5/6 113/5/6
f 112/1/6 109/1/6 113/1/6
f 113/5/6 110/5/6 114/5/6
f 115/1/6 116/1/6 118/1/6
f 116/5/6 117/5/6 119/5/6
f 118/1/6 116/1/6 119/1/6
f 119/5/6 117/5/6 120/5/6
