# MagicaVoxel @ Ephtracy

# group
g The-Twitcher-23-2

# material
mtllib The-Twitcher-23-2.mtl
usemtl palette

# normals
vn -1 0 0
vn 1 0 0
vn 0 0 1
vn 0 0 -1
vn 0 -1 0
vn 0 1 0

# texcoords
vt 0.537109 0.5
vt 0.962891 0.5
vt 0.974609 0.5

# verts
v -31 0 10
v -31 0 8
v -31 0 -7
v -31 0 -9
v -31 14 8
v -31 14 7
v -31 15 10
v -31 15 9
v -31 15 7
v -31 15 6
v -31 15 -6
v -31 15 -7
v -31 16 9
v -31 16 8
v -31 16 6
v -31 16 -6
v -31 16 -8
v -31 16 -9
v -31 17 8
v -31 17 7
v -31 17 -7
v -31 17 -8
v -31 18 7
v -31 18 -7
v -30 13 8
v -30 13 -7
v -30 14 8
v -30 14 7
v -30 14 -7
v -29 14 7
v -29 14 4
v -29 14 3
v -29 14 -0
v -29 14 -1
v -29 14 -4
v -29 14 -5
v -29 14 -7
v -29 15 7
v -29 15 6
v -29 15 4
v -29 15 3
v -29 15 -0
v -29 15 -1
v -29 15 -4
v -29 15 -5
v -29 15 -6
v -29 15 -7
v -29 19 -8
v -29 19 -9
v -29 22 -8
v -29 22 -9
v -29 23 -8
v -29 23 -9
v -29 26 -8
v -29 26 -9
v -27 12 -7
v -27 12 -8
v -27 13 7
v -27 13 -4
v -27 13 -5
v -27 13 -7
v -27 13 -8
v -27 13 -9
v -27 14 7
v -27 14 4
v -27 14 3
v -27 14 -0
v -27 14 -1
v -27 14 -4
v -27 14 -5
v -27 14 -7
v -27 14 -8
v -27 14 -9
v -27 14 -10
v -27 15 -9
v -27 19 -9
v -27 22 -9
v -27 23 -9
v -27 26 -9
v -27 28 -9
v -27 28 -10
v -1 13 7
v -1 13 -4
v -1 13 -5
v -1 13 -7
v -1 14 7
v -1 14 4
v -1 14 3
v -1 14 -0
v -1 14 -1
v -1 14 -4
v -1 14 -5
v -1 14 -7
v 25 12 -7
v 25 12 -8
v 25 13 7
v 25 13 -4
v 25 13 -5
v 25 13 -7
v 25 13 -8
v 25 13 -9
v 25 14 7
v 25 14 4
v 25 14 3
v 25 14 -0
v 25 14 -1
v 25 14 -4
v 25 14 -5
v 25 14 -7
v 25 14 -8
v 25 14 -9
v 25 14 -10
v 25 15 -9
v 25 19 -9
v 25 20 -9
v 25 20 -10
v 25 21 -9
v 25 21 -10
v 25 22 -9
v 25 23 -9
v 25 24 -9
v 25 24 -10
v 25 25 -9
v 25 25 -10
v 25 26 -9
v 25 28 -9
v 25 28 -10
v 29 0 10
v 29 0 8
v 29 0 -7
v 29 0 -9
v 29 13 8
v 29 13 -4
v 29 13 -5
v 29 13 -7
v 29 13 -8
v 29 14 8
v 29 14 7
v 29 14 4
v 29 14 3
v 29 14 -0
v 29 14 -1
v 29 14 -4
v 29 14 -5
v 29 14 -7
v 29 14 -8
v 29 14 -9
v 29 15 10
v 29 15 9
v 29 15 7
v 29 15 6
v 29 15 -6
v 29 15 -8
v 29 15 -9
v 29 16 9
v 29 16 8
v 29 16 6
v 29 16 -6
v 29 16 -8
v 29 16 -9
v 29 17 8
v 29 17 7
v 29 17 -7
v 29 17 -8
v 29 18 7
v 29 18 -7
v -29 0 10
v -29 0 8
v -29 0 -7
v -29 0 -9
v -29 13 8
v -29 13 -4
v -29 13 -5
v -29 13 -7
v -29 13 -8
v -29 14 8
v -29 14 7
v -29 14 4
v -29 14 3
v -29 14 -0
v -29 14 -1
v -29 14 -4
v -29 14 -5
v -29 14 -7
v -29 14 -8
v -29 14 -9
v -29 15 10
v -29 15 9
v -29 15 7
v -29 15 6
v -29 15 -6
v -29 15 -8
v -29 15 -9
v -29 16 9
v -29 16 8
v -29 16 6
v -29 16 -6
v -29 16 -8
v -29 16 -9
v -29 17 8
v -29 17 7
v -29 17 -7
v -29 17 -8
v -29 18 7
v -29 18 -7
v -25 12 -7
v -25 12 -8
v -25 13 7
v -25 13 -4
v -25 13 -5
v -25 13 -7
v -25 13 -8
v -25 13 -9
v -25 14 7
v -25 14 4
v -25 14 3
v -25 14 -0
v -25 14 -1
v -25 14 -4
v -25 14 -5
v -25 14 -7
v -25 14 -8
v -25 14 -9
v -25 14 -10
v -25 15 -9
v -25 19 -9
v -25 20 -9
v -25 20 -10
v -25 21 -9
v -25 21 -10
v -25 22 -9
v -25 23 -9
v -25 24 -9
v -25 24 -10
v -25 25 -9
v -25 25 -10
v -25 26 -9
v -25 28 -9
v -25 28 -10
v 1 13 7
v 1 13 -4
v 1 13 -5
v 1 13 -7
v 1 14 7
v 1 14 4
v 1 14 3
v 1 14 -0
v 1 14 -1
v 1 14 -4
v 1 14 -5
v 1 14 -7
v 27 12 -7
v 27 12 -8
v 27 13 7
v 27 13 -4
v 27 13 -5
v 27 13 -7
v 27 13 -8
v 27 13 -9
v 27 14 7
v 27 14 4
v 27 14 3
v 27 14 -0
v 27 14 -1
v 27 14 -4
v 27 14 -5
v 27 14 -7
v 27 14 -8
v 27 14 -9
v 27 14 -10
v 27 15 -9
v 27 19 -9
v 27 22 -9
v 27 23 -9
v 27 26 -9
v 27 28 -9
v 27 28 -10
v 29 14 7
v 29 14 4
v 29 14 3
v 29 14 -0
v 29 14 -1
v 29 14 -4
v 29 14 -5
v 29 14 -7
v 29 15 7
v 29 15 6
v 29 15 4
v 29 15 3
v 29 15 -0
v 29 15 -1
v 29 15 -4
v 29 15 -5
v 29 15 -6
v 29 15 -7
v 29 19 -8
v 29 19 -9
v 29 22 -8
v 29 22 -9
v 29 23 -8
v 29 23 -9
v 29 26 -8
v 29 26 -9
v 30 13 8
v 30 13 -7
v 30 14 8
v 30 14 7
v 30 14 -7
v 31 0 10
v 31 0 8
v 31 0 -7
v 31 0 -9
v 31 14 8
v 31 14 7
v 31 15 10
v 31 15 9
v 31 15 7
v 31 15 6
v 31 15 -6
v 31 15 -7
v 31 16 9
v 31 16 8
v 31 16 6
v 31 16 -6
v 31 16 -8
v 31 16 -9
v 31 17 8
v 31 17 7
v 31 17 -7
v 31 17 -8
v 31 18 7
v 31 18 -7
v -31 0 10
v -31 15 10
v -29 0 10
v -29 15 10
v 29 0 10
v 29 15 10
v 31 0 10
v 31 15 10
v -31 15 9
v -31 16 9
v -29 15 9
v -29 16 9
v 29 15 9
v 29 16 9
v 31 15 9
v 31 16 9
v -31 16 8
v -31 17 8
v -29 16 8
v -29 17 8
v 29 16 8
v 29 17 8
v 31 16 8
v 31 17 8
v -31 17 7
v -31 18 7
v -29 14 7
v -29 15 7
v -29 17 7
v -29 18 7
v -27 13 7
v -27 14 7
v -25 13 7
v -25 14 7
v -1 13 7
v -1 14 7
v 1 13 7
v 1 14 7
v 25 13 7
v 25 14 7
v 27 13 7
v 27 14 7
v 29 14 7
v 29 15 7
v 29 17 7
v 29 18 7
v 31 17 7
v 31 18 7
v -29 14 3
v -29 15 3
v -27 14 3
v -25 14 3
v -1 14 3
v 1 14 3
v 25 14 3
v 27 14 3
v 29 14 3
v 29 15 3
v -29 14 -1
v -29 15 -1
v -27 14 -1
v -25 14 -1
v -1 14 -1
v 1 14 -1
v 25 14 -1
v 27 14 -1
v 29 14 -1
v 29 15 -1
v -29 13 -4
v -29 14 -4
v -27 13 -4
v -27 14 -4
v -25 13 -4
v -25 14 -4
v -1 13 -4
v -1 14 -4
v 1 13 -4
v 1 14 -4
v 25 13 -4
v 25 14 -4
v 27 13 -4
v 27 14 -4
v 29 13 -4
v 29 14 -4
v -29 14 -5
v -29 15 -5
v 29 14 -5
v 29 15 -5
v -31 15 -6
v -31 16 -6
v -29 15 -6
v -29 16 -6
v 29 15 -6
v 29 16 -6
v 31 15 -6
v 31 16 -6
v -31 0 -7
v -31 15 -7
v -30 13 -7
v -30 14 -7
v -29 0 -7
v -29 13 -7
v -29 14 -7
v -29 15 -7
v -27 12 -7
v -27 13 -7
v -27 14 -7
v -25 12 -7
v -25 13 -7
v -25 14 -7
v -1 13 -7
v -1 14 -7
v 1 13 -7
v 1 14 -7
v 25 12 -7
v 25 13 -7
v 25 14 -7
v 27 12 -7
v 27 13 -7
v 27 14 -7
v 29 0 -7
v 29 13 -7
v 29 14 -7
v 29 15 -7
v 30 13 -7
v 30 14 -7
v 31 0 -7
v 31 15 -7
v -29 19 -8
v -29 22 -8
v -29 23 -8
v -29 26 -8
v 29 19 -8
v 29 22 -8
v 29 23 -8
v 29 26 -8
v -27 15 -9
v -27 19 -9
v -27 22 -9
v -27 23 -9
v -27 26 -9
v -27 28 -9
v -25 15 -9
v -25 19 -9
v -25 22 -9
v -25 23 -9
v -25 26 -9
v -25 28 -9
v 25 15 -9
v 25 19 -9
v 25 22 -9
v 25 23 -9
v 25 26 -9
v 25 28 -9
v 27 15 -9
v 27 19 -9
v 27 22 -9
v 27 23 -9
v 27 26 -9
v 27 28 -9
v -31 0 8
v -31 14 8
v -30 13 8
v -30 14 8
v -29 0 8
v -29 13 8
v 29 0 8
v 29 13 8
v 30 13 8
v 30 14 8
v 31 0 8
v 31 14 8
v -31 14 7
v -31 15 7
v -30 14 7
v -29 14 7
v -29 15 7
v 29 14 7
v 29 15 7
v 30 14 7
v 31 14 7
v 31 15 7
v -31 15 6
v -31 16 6
v -29 15 6
v -29 16 6
v 29 15 6
v 29 16 6
v 31 15 6
v 31 16 6
v -29 14 4
v -29 15 4
v -27 14 4
v -25 14 4
v -1 14 4
v 1 14 4
v 25 14 4
v 27 14 4
v 29 14 4
v 29 15 4
v -29 14 -0
v -29 15 -0
v -27 14 -0
v -25 14 -0
v -1 14 -0
v 1 14 -0
v 25 14 -0
v 27 14 -0
v 29 14 -0
v 29 15 -0
v -29 14 -4
v -29 15 -4
v 29 14 -4
v 29 15 -4
v -29 13 -5
v -29 14 -5
v -27 13 -5
v -27 14 -5
v -25 13 -5
v -25 14 -5
v -1 13 -5
v -1 14 -5
v 1 13 -5
v 1 14 -5
v 25 13 -5
v 25 14 -5
v 27 13 -5
v 27 14 -5
v 29 13 -5
v 29 14 -5
v -31 17 -7
v -31 18 -7
v -29 17 -7
v -29 18 -7
v 29 17 -7
v 29 18 -7
v 31 17 -7
v 31 18 -7
v -31 16 -8
v -31 17 -8
v -29 13 -8
v -29 14 -8
v -29 16 -8
v -29 17 -8
v -27 12 -8
v -27 13 -8
v -27 14 -8
v -25 12 -8
v -25 13 -8
v -25 14 -8
v 25 12 -8
v 25 13 -8
v 25 14 -8
v 27 12 -8
v 27 13 -8
v 27 14 -8
v 29 13 -8
v 29 14 -8
v 29 16 -8
v 29 17 -8
v 31 16 -8
v 31 17 -8
v -31 0 -9
v -31 16 -9
v -29 0 -9
v -29 14 -9
v -29 15 -9
v -29 16 -9
v -29 19 -9
v -29 22 -9
v -29 23 -9
v -29 26 -9
v -27 13 -9
v -27 14 -9
v -27 15 -9
v -27 19 -9
v -27 22 -9
v -27 23 -9
v -27 26 -9
v -25 13 -9
v -25 14 -9
v -25 15 -9
v -25 19 -9
v -25 20 -9
v -25 21 -9
v -25 22 -9
v -25 23 -9
v -25 24 -9
v -25 25 -9
v -25 26 -9
v 25 13 -9
v 25 14 -9
v 25 15 -9
v 25 19 -9
v 25 20 -9
v 25 21 -9
v 25 22 -9
v 25 23 -9
v 25 24 -9
v 25 25 -9
v 25 26 -9
v 27 13 -9
v 27 14 -9
v 27 15 -9
v 27 19 -9
v 27 22 -9
v 27 23 -9
v 27 26 -9
v 29 0 -9
v 29 14 -9
v 29 15 -9
v 29 16 -9
v 29 19 -9
v 29 22 -9
v 29 23 -9
v 29 26 -9
v 31 0 -9
v 31 16 -9
v -27 14 -10
v -27 28 -10
v -25 14 -10
v -25 20 -10
v -25 21 -10
v -25 24 -10
v -25 25 -10
v -25 28 -10
v 25 14 -10
v 25 20 -10
v 25 21 -10
v 25 24 -10
v 25 25 -10
v 25 28 -10
v 27 14 -10
v 27 28 -10
v -31 0 10
v -29 0 10
v 29 0 10
v 31 0 10
v -31 0 8
v -29 0 8
v 29 0 8
v 31 0 8
v -31 0 -7
v -29 0 -7
v 29 0 -7
v 31 0 -7
v -31 0 -9
v -29 0 -9
v 29 0 -9
v 31 0 -9
v -27 12 -7
v -25 12 -7
v 25 12 -7
v 27 12 -7
v -27 12 -8
v -25 12 -8
v 25 12 -8
v 27 12 -8
v -30 13 8
v -29 13 8
v 29 13 8
v 30 13 8
v -27 13 7
v -25 13 7
v -1 13 7
v 1 13 7
v 25 13 7
v 27 13 7
v -29 13 -4
v -27 13 -4
v -25 13 -4
v -1 13 -4
v 1 13 -4
v 25 13 -4
v 27 13 -4
v 29 13 -4
v -29 13 -5
v -27 13 -5
v -25 13 -5
v -1 13 -5
v 1 13 -5
v 25 13 -5
v 27 13 -5
v 29 13 -5
v -30 13 -7
v -29 13 -7
v -27 13 -7
v -25 13 -7
v -1 13 -7
v 1 13 -7
v 25 13 -7
v 27 13 -7
v 29 13 -7
v 30 13 -7
v -29 13 -8
v -27 13 -8
v -25 13 -8
v 25 13 -8
v 27 13 -8
v 29 13 -8
v -27 13 -9
v -25 13 -9
v 25 13 -9
v 27 13 -9
v -31 14 8
v -30 14 8
v 30 14 8
v 31 14 8
v -31 14 7
v -30 14 7
v -29 14 7
v -27 14 7
v -25 14 7
v -1 14 7
v 1 14 7
v 25 14 7
v 27 14 7
v 29 14 7
v 30 14 7
v 31 14 7
v -29 14 4
v -27 14 4
v -25 14 4
v -1 14 4
v 1 14 4
v 25 14 4
v 27 14 4
v 29 14 4
v -29 14 3
v -27 14 3
v -25 14 3
v -1 14 3
v 1 14 3
v 25 14 3
v 27 14 3
v 29 14 3
v -29 14 -0
v -27 14 -0
v -25 14 -0
v -1 14 -0
v 1 14 -0
v 25 14 -0
v 27 14 -0
v 29 14 -0
v -29 14 -1
v -27 14 -1
v -25 14 -1
v -1 14 -1
v 1 14 -1
v 25 14 -1
v 27 14 -1
v 29 14 -1
v -29 14 -4
v -27 14 -4
v -25 14 -4
v -1 14 -4
v 1 14 -4
v 25 14 -4
v 27 14 -4
v 29 14 -4
v -29 14 -5
v -27 14 -5
v -25 14 -5
v -1 14 -5
v 1 14 -5
v 25 14 -5
v 27 14 -5
v 29 14 -5
v -29 14 -7
v -27 14 -7
v -25 14 -7
v -1 14 -7
v 1 14 -7
v 25 14 -7
v 27 14 -7
v 29 14 -7
v -29 14 -8
v -27 14 -8
v -25 14 -8
v 25 14 -8
v 27 14 -8
v 29 14 -8
v -29 14 -9
v -27 14 -9
v -25 14 -9
v 25 14 -9
v 27 14 -9
v 29 14 -9
v -27 14 -10
v -25 14 -10
v 25 14 -10
v 27 14 -10
v -31 15 7
v -29 15 7
v 29 15 7
v 31 15 7
v -31 15 6
v -29 15 6
v 29 15 6
v 31 15 6
v -31 15 -6
v -29 15 -6
v 29 15 -6
v 31 15 -6
v -31 15 -7
v -29 15 -7
v 29 15 -7
v 31 15 -7
v -31 16 6
v -29 16 6
v 29 16 6
v 31 16 6
v -31 16 -6
v -29 16 -6
v 29 16 -6
v 31 16 -6
v -29 19 -8
v 29 19 -8
v -29 19 -9
v -27 19 -9
v -25 19 -9
v 25 19 -9
v 27 19 -9
v 29 19 -9
v -25 20 -9
v 25 20 -9
v -25 20 -10
v 25 20 -10
v -29 23 -8
v 29 23 -8
v -29 23 -9
v -27 23 -9
v -25 23 -9
v 25 23 -9
v 27 23 -9
v 29 23 -9
v -25 24 -9
v 25 24 -9
v -25 24 -10
v 25 24 -10
v -30 14 7
v -29 14 7
v 29 14 7
v 30 14 7
v -29 14 4
v -27 14 4
v -25 14 4
v -1 14 4
v 1 14 4
v 25 14 4
v 27 14 4
v 29 14 4
v -29 14 3
v -27 14 3
v -25 14 3
v -1 14 3
v 1 14 3
v 25 14 3
v 27 14 3
v 29 14 3
v -29 14 -0
v -27 14 -0
v -25 14 -0
v -1 14 -0
v 1 14 -0
v 25 14 -0
v 27 14 -0
v 29 14 -0
v -29 14 -1
v -27 14 -1
v -25 14 -1
v -1 14 -1
v 1 14 -1
v 25 14 -1
v 27 14 -1
v 29 14 -1
v -29 14 -4
v 29 14 -4
v -29 14 -5
v 29 14 -5
v -30 14 -7
v -29 14 -7
v 29 14 -7
v 30 14 -7
v -31 15 10
v -29 15 10
v 29 15 10
v 31 15 10
v -31 15 9
v -29 15 9
v 29 15 9
v 31 15 9
v -29 15 7
v 29 15 7
v -29 15 6
v 29 15 6
v -29 15 4
v 29 15 4
v -29 15 3
v 29 15 3
v -29 15 -0
v 29 15 -0
v -29 15 -1
v 29 15 -1
v -29 15 -4
v 29 15 -4
v -29 15 -5
v 29 15 -5
v -29 15 -6
v 29 15 -6
v -29 15 -8
v 29 15 -8
v -29 15 -9
v -27 15 -9
v -25 15 -9
v 25 15 -9
v 27 15 -9
v 29 15 -9
v -31 16 9
v -29 16 9
v 29 16 9
v 31 16 9
v -31 16 8
v -29 16 8
v 29 16 8
v 31 16 8
v -31 16 -8
v -29 16 -8
v 29 16 -8
v 31 16 -8
v -31 16 -9
v -29 16 -9
v 29 16 -9
v 31 16 -9
v -31 17 8
v -29 17 8
v 29 17 8
v 31 17 8
v -31 17 7
v -29 17 7
v 29 17 7
v 31 17 7
v -31 17 -7
v -29 17 -7
v 29 17 -7
v 31 17 -7
v -31 17 -8
v -29 17 -8
v 29 17 -8
v 31 17 -8
v -31 18 7
v -29 18 7
v 29 18 7
v 31 18 7
v -31 18 -7
v -29 18 -7
v 29 18 -7
v 31 18 -7
v -25 21 -9
v 25 21 -9
v -25 21 -10
v 25 21 -10
v -29 22 -8
v 29 22 -8
v -29 22 -9
v -27 22 -9
v -25 22 -9
v 25 22 -9
v 27 22 -9
v 29 22 -9
v -25 25 -9
v 25 25 -9
v -25 25 -10
v 25 25 -10
v -29 26 -8
v 29 26 -8
v -29 26 -9
v -27 26 -9
v -25 26 -9
v 25 26 -9
v 27 26 -9
v 29 26 -9
v -27 28 -9
v -25 28 -9
v 25 28 -9
v 27 28 -9
v -27 28 -10
v -25 28 -10
v 25 28 -10
v 27 28 -10

# faces
f 5/3/1 2/3/1 1/3/1
f 7/3/1 5/3/1 1/3/1
f 7/3/1 6/3/1 5/3/1
f 8/3/1 6/3/1 7/3/1
f 9/3/1 6/3/1 8/3/1
f 12/3/1 4/3/1 3/3/1
f 13/3/1 10/3/1 9/3/1
f 13/3/1 9/3/1 8/3/1
f 14/3/1 10/3/1 13/3/1
f 15/3/1 10/3/1 14/3/1
f 16/3/1 12/3/1 11/3/1
f 17/3/1 4/3/1 12/3/1
f 17/3/1 12/3/1 16/3/1
f 18/3/1 4/3/1 17/3/1
f 19/3/1 15/3/1 14/3/1
f 19/3/1 16/3/1 15/3/1
f 19/3/1 17/3/1 16/3/1
f 20/3/1 17/3/1 19/3/1
f 21/3/1 17/3/1 20/3/1
f 22/3/1 17/3/1 21/3/1
f 23/3/1 21/3/1 20/3/1
f 24/3/1 21/3/1 23/3/1
f 27/2/1 26/2/1 25/2/1
f 28/2/1 26/2/1 27/2/1
f 29/2/1 26/2/1 28/2/1
f 38/1/1 31/1/1 30/1/1
f 39/1/1 31/1/1 38/1/1
f 40/1/1 31/1/1 39/1/1
f 41/1/1 33/1/1 32/1/1
f 42/1/1 33/1/1 41/1/1
f 43/1/1 35/1/1 34/1/1
f 44/1/1 35/1/1 43/1/1
f 45/1/1 37/1/1 36/1/1
f 46/1/1 37/1/1 45/1/1
f 47/1/1 37/1/1 46/1/1
f 50/1/1 49/1/1 48/1/1
f 51/1/1 49/1/1 50/1/1
f 54/1/1 53/1/1 52/1/1
f 55/1/1 53/1/1 54/1/1
f 61/2/1 57/2/1 56/2/1
f 62/2/1 57/2/1 61/2/1
f 64/2/1 59/2/1 58/2/1
f 65/2/1 59/2/1 64/2/1
f 66/2/1 59/2/1 65/2/1
f 67/2/1 59/2/1 66/2/1
f 68/2/1 59/2/1 67/2/1
f 69/2/1 59/2/1 68/2/1
f 70/2/1 61/2/1 60/2/1
f 71/2/1 61/2/1 70/2/1
f 72/2/1 63/2/1 62/2/1
f 73/2/1 63/2/1 72/2/1
f 75/2/1 74/2/1 73/2/1
f 76/2/1 74/2/1 75/2/1
f 77/2/1 74/2/1 76/2/1
f 78/2/1 74/2/1 77/2/1
f 79/2/1 74/2/1 78/2/1
f 80/2/1 74/2/1 79/2/1
f 81/2/1 74/2/1 80/2/1
f 86/2/1 83/2/1 82/2/1
f 87/2/1 83/2/1 86/2/1
f 88/2/1 83/2/1 87/2/1
f 89/2/1 83/2/1 88/2/1
f 90/2/1 83/2/1 89/2/1
f 91/2/1 83/2/1 90/2/1
f 92/2/1 85/2/1 84/2/1
f 93/2/1 85/2/1 92/2/1
f 99/2/1 95/2/1 94/2/1
f 100/2/1 95/2/1 99/2/1
f 102/2/1 97/2/1 96/2/1
f 103/2/1 97/2/1 102/2/1
f 104/2/1 97/2/1 103/2/1
f 105/2/1 97/2/1 104/2/1
f 106/2/1 97/2/1 105/2/1
f 107/2/1 97/2/1 106/2/1
f 108/2/1 99/2/1 98/2/1
f 109/2/1 99/2/1 108/2/1
f 110/2/1 101/2/1 100/2/1
f 111/2/1 101/2/1 110/2/1
f 113/2/1 112/2/1 111/2/1
f 114/2/1 112/2/1 113/2/1
f 115/2/1 112/2/1 114/2/1
f 116/2/1 112/2/1 115/2/1
f 119/2/1 118/2/1 117/2/1
f 120/2/1 118/2/1 119/2/1
f 121/2/1 118/2/1 120/2/1
f 122/2/1 118/2/1 121/2/1
f 125/2/1 124/2/1 123/2/1
f 126/2/1 124/2/1 125/2/1
f 127/2/1 124/2/1 126/2/1
f 132/3/1 129/3/1 128/3/1
f 135/3/1 131/3/1 130/3/1
f 136/3/1 131/3/1 135/3/1
f 137/2/1 133/2/1 132/2/1
f 137/3/1 132/3/1 128/3/1
f 138/2/1 133/2/1 137/2/1
f 139/2/1 133/2/1 138/2/1
f 140/2/1 133/2/1 139/2/1
f 141/2/1 133/2/1 140/2/1
f 142/2/1 133/2/1 141/2/1
f 143/2/1 133/2/1 142/2/1
f 144/2/1 135/2/1 134/2/1
f 145/2/1 135/2/1 144/2/1
f 146/3/1 131/3/1 136/3/1
f 147/3/1 131/3/1 146/3/1
f 148/3/1 137/3/1 128/3/1
f 148/3/1 138/3/1 137/3/1
f 149/3/1 138/3/1 148/3/1
f 150/3/1 138/3/1 149/3/1
f 155/3/1 150/3/1 149/3/1
f 155/3/1 151/3/1 150/3/1
f 156/3/1 151/3/1 155/3/1
f 157/3/1 151/3/1 156/3/1
f 158/3/1 154/3/1 153/3/1
f 158/3/1 153/3/1 152/3/1
f 159/3/1 154/3/1 158/3/1
f 160/3/1 154/3/1 159/3/1
f 161/3/1 157/3/1 156/3/1
f 161/3/1 159/3/1 158/3/1
f 161/3/1 158/3/1 157/3/1
f 162/3/1 159/3/1 161/3/1
f 163/3/1 159/3/1 162/3/1
f 164/3/1 159/3/1 163/3/1
f 165/3/1 163/3/1 162/3/1
f 166/3/1 163/3/1 165/3/1
f 167/3/2 168/3/2 171/3/2
f 169/3/2 170/3/2 174/3/2
f 174/3/2 170/3/2 175/3/2
f 171/2/2 172/2/2 176/2/2
f 167/3/2 171/3/2 176/3/2
f 176/2/2 172/2/2 177/2/2
f 177/2/2 172/2/2 178/2/2
f 178/2/2 172/2/2 179/2/2
f 179/2/2 172/2/2 180/2/2
f 180/2/2 172/2/2 181/2/2
f 181/2/2 172/2/2 182/2/2
f 173/2/2 174/2/2 183/2/2
f 183/2/2 174/2/2 184/2/2
f 175/3/2 170/3/2 185/3/2
f 185/3/2 170/3/2 186/3/2
f 167/3/2 176/3/2 187/3/2
f 176/3/2 177/3/2 187/3/2
f 187/3/2 177/3/2 188/3/2
f 188/3/2 177/3/2 189/3/2
f 188/3/2 189/3/2 194/3/2
f 189/3/2 190/3/2 194/3/2
f 194/3/2 190/3/2 195/3/2
f 195/3/2 190/3/2 196/3/2
f 192/3/2 193/3/2 197/3/2
f 191/3/2 192/3/2 197/3/2
f 197/3/2 193/3/2 198/3/2
f 198/3/2 193/3/2 199/3/2
f 195/3/2 196/3/2 200/3/2
f 197/3/2 198/3/2 200/3/2
f 196/3/2 197/3/2 200/3/2
f 200/3/2 198/3/2 201/3/2
f 201/3/2 198/3/2 202/3/2
f 202/3/2 198/3/2 203/3/2
f 201/3/2 202/3/2 204/3/2
f 204/3/2 202/3/2 205/3/2
f 206/2/2 207/2/2 211/2/2
f 211/2/2 207/2/2 212/2/2
f 208/2/2 209/2/2 214/2/2
f 214/2/2 209/2/2 215/2/2
f 215/2/2 209/2/2 216/2/2
f 216/2/2 209/2/2 217/2/2
f 217/2/2 209/2/2 218/2/2
f 218/2/2 209/2/2 219/2/2
f 210/2/2 211/2/2 220/2/2
f 220/2/2 211/2/2 221/2/2
f 212/2/2 213/2/2 222/2/2
f 222/2/2 213/2/2 223/2/2
f 223/2/2 224/2/2 225/2/2
f 225/2/2 224/2/2 226/2/2
f 226/2/2 224/2/2 227/2/2
f 227/2/2 224/2/2 228/2/2
f 229/2/2 230/2/2 231/2/2
f 231/2/2 230/2/2 232/2/2
f 232/2/2 230/2/2 233/2/2
f 233/2/2 230/2/2 234/2/2
f 235/2/2 236/2/2 237/2/2
f 237/2/2 236/2/2 238/2/2
f 238/2/2 236/2/2 239/2/2
f 240/2/2 241/2/2 244/2/2
f 244/2/2 241/2/2 245/2/2
f 245/2/2 241/2/2 246/2/2
f 246/2/2 241/2/2 247/2/2
f 247/2/2 241/2/2 248/2/2
f 248/2/2 241/2/2 249/2/2
f 242/2/2 243/2/2 250/2/2
f 250/2/2 243/2/2 251/2/2
f 252/2/2 253/2/2 257/2/2
f 257/2/2 253/2/2 258/2/2
f 254/2/2 255/2/2 260/2/2
f 260/2/2 255/2/2 261/2/2
f 261/2/2 255/2/2 262/2/2
f 262/2/2 255/2/2 263/2/2
f 263/2/2 255/2/2 264/2/2
f 264/2/2 255/2/2 265/2/2
f 256/2/2 257/2/2 266/2/2
f 266/2/2 257/2/2 267/2/2
f 258/2/2 259/2/2 268/2/2
f 268/2/2 259/2/2 269/2/2
f 269/2/2 270/2/2 271/2/2
f 271/2/2 270/2/2 272/2/2
f 272/2/2 270/2/2 273/2/2
f 273/2/2 270/2/2 274/2/2
f 274/2/2 270/2/2 275/2/2
f 275/2/2 270/2/2 276/2/2
f 276/2/2 270/2/2 277/2/2
f 278/1/2 279/1/2 286/1/2
f 286/1/2 279/1/2 287/1/2
f 287/1/2 279/1/2 288/1/2
f 280/1/2 281/1/2 289/1/2
f 289/1/2 281/1/2 290/1/2
f 282/1/2 283/1/2 291/1/2
f 291/1/2 283/1/2 292/1/2
f 284/1/2 285/1/2 293/1/2
f 293/1/2 285/1/2 294/1/2
f 294/1/2 285/1/2 295/1/2
f 296/1/2 297/1/2 298/1/2
f 298/1/2 297/1/2 299/1/2
f 300/1/2 301/1/2 302/1/2
f 302/1/2 301/1/2 303/1/2
f 304/2/2 305/2/2 306/2/2
f 306/2/2 305/2/2 307/2/2
f 307/2/2 305/2/2 308/2/2
f 309/3/2 310/3/2 313/3/2
f 309/3/2 313/3/2 315/3/2
f 313/3/2 314/3/2 315/3/2
f 315/3/2 314/3/2 316/3/2
f 316/3/2 314/3/2 317/3/2
f 311/3/2 312/3/2 320/3/2
f 317/3/2 318/3/2 321/3/2
f 316/3/2 317/3/2 321/3/2
f 321/3/2 318/3/2 322/3/2
f 322/3/2 318/3/2 323/3/2
f 319/3/2 320/3/2 324/3/2
f 320/3/2 312/3/2 325/3/2
f 324/3/2 320/3/2 325/3/2
f 325/3/2 312/3/2 326/3/2
f 322/3/2 323/3/2 327/3/2
f 323/3/2 324/3/2 327/3/2
f 324/3/2 325/3/2 327/3/2
f 327/3/2 325/3/2 328/3/2
f 328/3/2 325/3/2 329/3/2
f 329/3/2 325/3/2 330/3/2
f 328/3/2 329/3/2 331/3/2
f 331/3/2 329/3/2 332/3/2
f 335/3/3 334/3/3 333/3/3
f 336/3/3 334/3/3 335/3/3
f 339/3/3 338/3/3 337/3/3
f 340/3/3 338/3/3 339/3/3
f 343/3/3 342/3/3 341/3/3
f 344/3/3 342/3/3 343/3/3
f 347/3/3 346/3/3 345/3/3
f 348/3/3 346/3/3 347/3/3
f 351/3/3 350/3/3 349/3/3
f 352/3/3 350/3/3 351/3/3
f 355/3/3 354/3/3 353/3/3
f 356/3/3 354/3/3 355/3/3
f 361/3/3 358/3/3 357/3/3
f 362/3/3 358/3/3 361/3/3
f 364/1/3 360/1/3 359/1/3
f 365/2/3 364/2/3 363/2/3
f 366/1/3 360/1/3 364/1/3
f 366/2/3 364/2/3 365/2/3
f 368/1/3 360/1/3 366/1/3
f 369/2/3 368/2/3 367/2/3
f 370/1/3 360/1/3 368/1/3
f 370/2/3 368/2/3 369/2/3
f 372/1/3 360/1/3 370/1/3
f 373/2/3 372/2/3 371/2/3
f 374/1/3 360/1/3 372/1/3
f 374/2/3 372/2/3 373/2/3
f 375/1/3 360/1/3 374/1/3
f 376/1/3 360/1/3 375/1/3
f 379/3/3 378/3/3 377/3/3
f 380/3/3 378/3/3 379/3/3
f 383/1/3 382/1/3 381/1/3
f 384/1/3 382/1/3 383/1/3
f 385/1/3 382/1/3 384/1/3
f 386/1/3 382/1/3 385/1/3
f 387/1/3 382/1/3 386/1/3
f 388/1/3 382/1/3 387/1/3
f 389/1/3 382/1/3 388/1/3
f 390/1/3 382/1/3 389/1/3
f 393/1/3 392/1/3 391/1/3
f 394/1/3 392/1/3 393/1/3
f 395/1/3 392/1/3 394/1/3
f 396/1/3 392/1/3 395/1/3
f 397/1/3 392/1/3 396/1/3
f 398/1/3 392/1/3 397/1/3
f 399/1/3 392/1/3 398/1/3
f 400/1/3 392/1/3 399/1/3
f 403/2/3 402/2/3 401/2/3
f 404/2/3 402/2/3 403/2/3
f 407/2/3 406/2/3 405/2/3
f 408/2/3 406/2/3 407/2/3
f 411/2/3 410/2/3 409/2/3
f 412/2/3 410/2/3 411/2/3
f 415/2/3 414/2/3 413/2/3
f 416/2/3 414/2/3 415/2/3
f 419/1/3 418/1/3 417/1/3
f 420/1/3 418/1/3 419/1/3
f 423/3/3 422/3/3 421/3/3
f 424/3/3 422/3/3 423/3/3
f 427/3/3 426/3/3 425/3/3
f 428/3/3 426/3/3 427/3/3
f 431/3/3 430/3/3 429/3/3
f 432/3/3 430/3/3 431/3/3
f 433/3/3 431/3/3 429/3/3
f 434/3/3 431/3/3 433/3/3
f 435/3/3 430/3/3 432/3/3
f 436/3/3 430/3/3 435/3/3
f 438/3/3 435/3/3 434/3/3
f 439/3/3 435/3/3 438/3/3
f 440/2/3 438/2/3 437/2/3
f 441/2/3 438/2/3 440/2/3
f 443/3/3 442/3/3 441/3/3
f 444/3/3 442/3/3 443/3/3
f 448/3/3 446/3/3 445/3/3
f 449/3/3 446/3/3 448/3/3
f 450/2/3 448/2/3 447/2/3
f 451/2/3 448/2/3 450/2/3
f 454/3/3 452/3/3 451/3/3
f 455/3/3 452/3/3 454/3/3
f 457/3/3 454/3/3 453/3/3
f 458/3/3 456/3/3 455/3/3
f 459/3/3 457/3/3 453/3/3
f 459/3/3 458/3/3 457/3/3
f 460/3/3 456/3/3 458/3/3
f 460/3/3 458/3/3 459/3/3
f 465/1/3 462/1/3 461/1/3
f 466/1/3 462/1/3 465/1/3
f 467/1/3 464/1/3 463/1/3
f 468/1/3 464/1/3 467/1/3
f 475/2/3 470/2/3 469/2/3
f 476/2/3 470/2/3 475/2/3
f 477/2/3 472/2/3 471/2/3
f 478/2/3 472/2/3 477/2/3
f 479/2/3 474/2/3 473/2/3
f 480/2/3 474/2/3 479/2/3
f 487/2/3 482/2/3 481/2/3
f 488/2/3 482/2/3 487/2/3
f 489/2/3 484/2/3 483/2/3
f 490/2/3 484/2/3 489/2/3
f 491/2/3 486/2/3 485/2/3
f 492/2/3 486/2/3 491/2/3
f 493/3/4 494/3/4 495/3/4
f 495/3/4 494/3/4 496/3/4
f 493/3/4 495/3/4 497/3/4
f 497/3/4 495/3/4 498/3/4
f 499/3/4 500/3/4 501/3/4
f 499/3/4 501/3/4 503/3/4
f 501/3/4 502/3/4 503/3/4
f 503/3/4 502/3/4 504/3/4
f 505/3/4 506/3/4 507/3/4
f 507/3/4 506/3/4 508/3/4
f 508/3/4 506/3/4 509/3/4
f 510/3/4 511/3/4 512/3/4
f 512/3/4 511/3/4 513/3/4
f 513/3/4 511/3/4 514/3/4
f 515/3/4 516/3/4 517/3/4
f 517/3/4 516/3/4 518/3/4
f 519/3/4 520/3/4 521/3/4
f 521/3/4 520/3/4 522/3/4
f 523/1/4 524/1/4 525/1/4
f 525/1/4 524/1/4 526/1/4
f 526/1/4 524/1/4 527/1/4
f 527/1/4 524/1/4 528/1/4
f 528/1/4 524/1/4 529/1/4
f 529/1/4 524/1/4 530/1/4
f 530/1/4 524/1/4 531/1/4
f 531/1/4 524/1/4 532/1/4
f 533/1/4 534/1/4 535/1/4
f 535/1/4 534/1/4 536/1/4
f 536/1/4 534/1/4 537/1/4
f 537/1/4 534/1/4 538/1/4
f 538/1/4 534/1/4 539/1/4
f 539/1/4 534/1/4 540/1/4
f 540/1/4 534/1/4 541/1/4
f 541/1/4 534/1/4 542/1/4
f 543/1/4 544/1/4 545/1/4
f 545/1/4 544/1/4 546/1/4
f 547/2/4 548/2/4 549/2/4
f 549/2/4 548/2/4 550/2/4
f 551/2/4 552/2/4 553/2/4
f 553/2/4 552/2/4 554/2/4
f 555/2/4 556/2/4 557/2/4
f 557/2/4 556/2/4 558/2/4
f 559/2/4 560/2/4 561/2/4
f 561/2/4 560/2/4 562/2/4
f 563/3/4 564/3/4 565/3/4
f 565/3/4 564/3/4 566/3/4
f 567/3/4 568/3/4 569/3/4
f 569/3/4 568/3/4 570/3/4
f 571/3/4 572/3/4 575/3/4
f 575/3/4 572/3/4 576/3/4
f 573/3/4 574/3/4 578/3/4
f 578/3/4 574/3/4 579/3/4
f 577/2/4 578/2/4 580/2/4
f 580/2/4 578/2/4 581/2/4
f 581/3/4 582/3/4 584/3/4
f 584/3/4 582/3/4 585/3/4
f 583/2/4 584/2/4 586/2/4
f 586/2/4 584/2/4 587/2/4
f 587/3/4 588/3/4 589/3/4
f 589/3/4 588/3/4 590/3/4
f 591/3/4 592/3/4 593/3/4
f 593/3/4 592/3/4 594/3/4
f 595/3/4 596/3/4 597/3/4
f 597/3/4 596/3/4 598/3/4
f 598/3/4 596/3/4 599/3/4
f 599/3/4 596/3/4 600/3/4
f 598/3/4 599/3/4 606/3/4
f 606/3/4 599/3/4 607/3/4
f 601/1/4 602/1/4 608/1/4
f 608/1/4 602/1/4 609/1/4
f 603/1/4 604/1/4 610/1/4
f 610/1/4 604/1/4 611/1/4
f 605/2/4 606/2/4 612/2/4
f 612/2/4 606/2/4 613/2/4
f 613/3/4 614/3/4 624/3/4
f 624/3/4 614/3/4 625/3/4
f 615/1/4 616/1/4 626/1/4
f 626/1/4 616/1/4 627/1/4
f 617/1/4 618/1/4 628/1/4
f 628/1/4 618/1/4 629/1/4
f 619/1/4 620/1/4 630/1/4
f 630/1/4 620/1/4 631/1/4
f 621/1/4 622/1/4 632/1/4
f 632/1/4 622/1/4 633/1/4
f 623/2/4 624/2/4 634/2/4
f 634/2/4 624/2/4 635/2/4
f 635/3/4 636/3/4 642/3/4
f 642/3/4 636/3/4 643/3/4
f 637/1/4 638/1/4 645/1/4
f 645/1/4 638/1/4 646/1/4
f 639/1/4 640/1/4 647/1/4
f 647/1/4 640/1/4 648/1/4
f 643/3/4 644/3/4 649/3/4
f 641/3/4 642/3/4 649/3/4
f 642/3/4 643/3/4 649/3/4
f 649/3/4 644/3/4 650/3/4
f 651/2/4 652/2/4 653/2/4
f 653/2/4 652/2/4 654/2/4
f 654/2/4 652/2/4 655/2/4
f 655/2/4 652/2/4 656/2/4
f 656/2/4 652/2/4 657/2/4
f 657/2/4 652/2/4 658/2/4
f 654/2/4 655/2/4 660/2/4
f 660/2/4 655/2/4 661/2/4
f 656/2/4 657/2/4 662/2/4
f 662/2/4 657/2/4 663/2/4
f 660/2/4 661/2/4 665/2/4
f 663/2/4 664/2/4 665/2/4
f 662/2/4 663/2/4 665/2/4
f 661/2/4 662/2/4 665/2/4
f 659/2/4 660/2/4 665/2/4
f 665/2/4 664/2/4 666/2/4
f 671/3/5 668/3/5 667/3/5
f 672/3/5 668/3/5 671/3/5
f 673/3/5 670/3/5 669/3/5
f 674/3/5 670/3/5 673/3/5
f 679/3/5 676/3/5 675/3/5
f 680/3/5 676/3/5 679/3/5
f 681/3/5 678/3/5 677/3/5
f 682/3/5 678/3/5 681/3/5
f 687/2/5 684/2/5 683/2/5
f 688/2/5 684/2/5 687/2/5
f 689/2/5 686/2/5 685/2/5
f 690/2/5 686/2/5 689/2/5
f 701/2/5 692/2/5 691/2/5
f 702/2/5 696/2/5 695/2/5
f 703/2/5 696/2/5 702/2/5
f 704/2/5 698/2/5 697/2/5
f 705/2/5 698/2/5 704/2/5
f 706/2/5 700/2/5 699/2/5
f 707/2/5 700/2/5 706/2/5
f 708/2/5 694/2/5 693/2/5
f 709/2/5 705/2/5 704/2/5
f 709/2/5 708/2/5 707/2/5
f 709/2/5 707/2/5 706/2/5
f 709/2/5 701/2/5 691/2/5
f 709/2/5 706/2/5 705/2/5
f 709/2/5 703/2/5 702/2/5
f 709/2/5 704/2/5 703/2/5
f 709/2/5 702/2/5 701/2/5
f 710/2/5 708/2/5 709/2/5
f 711/2/5 708/2/5 710/2/5
f 712/2/5 708/2/5 711/2/5
f 713/2/5 708/2/5 712/2/5
f 714/2/5 708/2/5 713/2/5
f 715/2/5 708/2/5 714/2/5
f 716/2/5 694/2/5 708/2/5
f 716/2/5 708/2/5 715/2/5
f 717/2/5 709/2/5 691/2/5
f 718/2/5 709/2/5 717/2/5
f 719/2/5 711/2/5 710/2/5
f 720/2/5 711/2/5 719/2/5
f 721/2/5 713/2/5 712/2/5
f 722/2/5 713/2/5 721/2/5
f 723/2/5 715/2/5 714/2/5
f 724/2/5 715/2/5 723/2/5
f 725/2/5 694/2/5 716/2/5
f 726/2/5 694/2/5 725/2/5
f 727/3/5 719/3/5 718/3/5
f 728/3/5 719/3/5 727/3/5
f 729/3/5 722/3/5 721/3/5
f 729/3/5 723/3/5 722/3/5
f 729/3/5 721/3/5 720/3/5
f 730/3/5 723/3/5 729/3/5
f 731/3/5 725/3/5 724/3/5
f 732/3/5 725/3/5 731/3/5
f 733/2/5 729/2/5 728/2/5
f 734/2/5 729/2/5 733/2/5
f 735/2/5 731/2/5 730/2/5
f 736/2/5 731/2/5 735/2/5
f 741/3/5 738/3/5 737/3/5
f 742/3/5 738/3/5 741/3/5
f 751/3/5 740/3/5 739/3/5
f 752/3/5 740/3/5 751/3/5
f 753/1/5 744/1/5 743/1/5
f 754/1/5 744/1/5 753/1/5
f 755/1/5 746/1/5 745/1/5
f 756/1/5 746/1/5 755/1/5
f 757/1/5 748/1/5 747/1/5
f 758/1/5 748/1/5 757/1/5
f 759/1/5 750/1/5 749/1/5
f 760/1/5 750/1/5 759/1/5
f 769/1/5 762/1/5 761/1/5
f 770/1/5 762/1/5 769/1/5
f 771/1/5 764/1/5 763/1/5
f 772/1/5 764/1/5 771/1/5
f 773/1/5 766/1/5 765/1/5
f 774/1/5 766/1/5 773/1/5
f 775/1/5 768/1/5 767/1/5
f 776/1/5 768/1/5 775/1/5
f 785/1/5 778/1/5 777/1/5
f 786/1/5 778/1/5 785/1/5
f 787/1/5 780/1/5 779/1/5
f 788/1/5 780/1/5 787/1/5
f 789/1/5 782/1/5 781/1/5
f 790/1/5 782/1/5 789/1/5
f 791/1/5 784/1/5 783/1/5
f 792/1/5 784/1/5 791/1/5
f 801/1/5 794/1/5 793/1/5
f 802/1/5 794/1/5 801/1/5
f 803/1/5 796/1/5 795/1/5
f 804/1/5 796/1/5 803/1/5
f 805/1/5 798/1/5 797/1/5
f 806/1/5 798/1/5 805/1/5
f 807/1/5 800/1/5 799/1/5
f 808/1/5 800/1/5 807/1/5
f 815/3/5 810/3/5 809/3/5
f 816/3/5 810/3/5 815/3/5
f 817/3/5 812/3/5 811/3/5
f 818/3/5 812/3/5 817/3/5
f 819/3/5 814/3/5 813/3/5
f 820/3/5 814/3/5 819/3/5
f 821/2/5 817/2/5 816/2/5
f 822/2/5 817/2/5 821/2/5
f 823/2/5 819/2/5 818/2/5
f 824/2/5 819/2/5 823/2/5
f 829/3/5 826/3/5 825/3/5
f 830/3/5 826/3/5 829/3/5
f 831/3/5 828/3/5 827/3/5
f 832/3/5 828/3/5 831/3/5
f 837/3/5 834/3/5 833/3/5
f 838/3/5 834/3/5 837/3/5
f 839/3/5 836/3/5 835/3/5
f 840/3/5 836/3/5 839/3/5
f 845/3/5 842/3/5 841/3/5
f 846/3/5 842/3/5 845/3/5
f 847/3/5 844/3/5 843/3/5
f 848/3/5 844/3/5 847/3/5
f 851/1/5 850/1/5 849/1/5
f 852/1/5 850/1/5 851/1/5
f 853/1/5 850/1/5 852/1/5
f 854/1/5 850/1/5 853/1/5
f 855/1/5 850/1/5 854/1/5
f 856/1/5 850/1/5 855/1/5
f 859/2/5 858/2/5 857/2/5
f 860/2/5 858/2/5 859/2/5
f 863/1/5 862/1/5 861/1/5
f 864/1/5 862/1/5 863/1/5
f 865/1/5 862/1/5 864/1/5
f 866/1/5 862/1/5 865/1/5
f 867/1/5 862/1/5 866/1/5
f 868/1/5 862/1/5 867/1/5
f 871/2/5 870/2/5 869/2/5
f 872/2/5 870/2/5 871/2/5
f 873/2/6 874/2/6 877/2/6
f 875/2/6 876/2/6 884/2/6
f 873/2/6 877/2/6 885/2/6
f 878/2/6 879/2/6 886/2/6
f 886/2/6 879/2/6 887/2/6
f 880/2/6 881/2/6 888/2/6
f 888/2/6 881/2/6 889/2/6
f 882/2/6 883/2/6 890/2/6
f 890/2/6 883/2/6 891/2/6
f 884/2/6 876/2/6 892/2/6
f 873/2/6 885/2/6 893/2/6
f 892/2/6 876/2/6 900/2/6
f 873/2/6 893/2/6 901/2/6
f 894/2/6 895/2/6 902/2/6
f 902/2/6 895/2/6 903/2/6
f 896/2/6 897/2/6 904/2/6
f 904/2/6 897/2/6 905/2/6
f 898/2/6 899/2/6 906/2/6
f 906/2/6 899/2/6 907/2/6
f 900/2/6 876/2/6 908/2/6
f 873/2/6 901/2/6 909/2/6
f 908/2/6 876/2/6 910/2/6
f 873/2/6 909/2/6 911/2/6
f 909/2/6 910/2/6 911/2/6
f 910/2/6 876/2/6 912/2/6
f 911/2/6 910/2/6 912/2/6
f 873/2/6 911/2/6 913/2/6
f 913/2/6 911/2/6 914/2/6
f 912/2/6 876/2/6 915/2/6
f 915/2/6 876/2/6 916/2/6
f 917/3/6 918/3/6 921/3/6
f 921/3/6 918/3/6 922/3/6
f 919/3/6 920/3/6 923/3/6
f 923/3/6 920/3/6 924/3/6
f 925/1/6 926/1/6 927/1/6
f 927/1/6 926/1/6 928/1/6
f 927/1/6 928/1/6 929/1/6
f 929/1/6 928/1/6 930/1/6
f 931/1/6 932/1/6 933/1/6
f 933/1/6 932/1/6 934/1/6
f 935/1/6 936/1/6 937/1/6
f 937/1/6 936/1/6 938/1/6
f 939/1/6 940/1/6 941/1/6
f 941/1/6 940/1/6 942/1/6
f 941/1/6 942/1/6 943/1/6
f 943/1/6 942/1/6 944/1/6
f 943/3/6 944/3/6 945/3/6
f 945/3/6 944/3/6 946/3/6
f 946/3/6 944/3/6 947/3/6
f 947/3/6 944/3/6 948/3/6
f 948/3/6 944/3/6 949/3/6
f 949/3/6 944/3/6 950/3/6
f 951/3/6 952/3/6 955/3/6
f 955/3/6 952/3/6 956/3/6
f 953/3/6 954/3/6 957/3/6
f 957/3/6 954/3/6 958/3/6
f 959/3/6 960/3/6 963/3/6
f 963/3/6 960/3/6 964/3/6
f 961/3/6 962/3/6 965/3/6
f 965/3/6 962/3/6 966/3/6
f 967/3/6 968/3/6 971/3/6
f 971/3/6 968/3/6 972/3/6
f 969/3/6 970/3/6 973/3/6
f 973/3/6 970/3/6 974/3/6
f 975/3/6 976/3/6 979/3/6
f 979/3/6 976/3/6 980/3/6
f 977/3/6 978/3/6 981/3/6
f 981/3/6 978/3/6 982/3/6
f 983/3/6 984/3/6 987/3/6
f 987/3/6 984/3/6 988/3/6
f 985/3/6 986/3/6 989/3/6
f 989/3/6 986/3/6 990/3/6
f 991/2/6 992/2/6 993/2/6
f 993/2/6 992/2/6 994/2/6
f 995/1/6 996/1/6 997/1/6
f 997/1/6 996/1/6 998/1/6
f 998/1/6 996/1/6 999/1/6
f 999/1/6 996/1/6 1000/1/6
f 1000/1/6 996/1/6 1001/1/6
f 1001/1/6 996/1/6 1002/1/6
f 1003/2/6 1004/2/6 1005/2/6
f 1005/2/6 1004/2/6 1006/2/6
f 1007/1/6 1008/1/6 1009/1/6
f 1009/1/6 1008/1/6 1010/1/6
f 1010/1/6 1008/1/6 1011/1/6
f 1011/1/6 1008/1/6 1012/1/6
f 1012/1/6 1008/1/6 1013/1/6
f 1013/1/6 1008/1/6 1014/1/6
f 1015/2/6 1016/2/6 1019/2/6
f 1019/2/6 1016/2/6 1020/2/6
f 1017/2/6 1018/2/6 1021/2/6
f 1021/2/6 1018/2/6 1022/2/6
