# MagicaVoxel @ Ephtracy

# group
g untitled-1

# material
mtllib untitled-1.mtl
usemtl palette

# normals
vn -1 0 0
vn 1 0 0
vn 0 0 1
vn 0 0 -1
vn 0 -1 0
vn 0 1 0

# texcoords
vt 0.849609 0.5
vt 0.900391 0.5
vt 0.912109 0.5

# verts
v -10.5 2 3.5
v -10.5 2 -3.5
v -10.5 6 3.5
v -10.5 6 -3.5
v -9.5 2 5.5
v -9.5 2 3.5
v -9.5 2 -3.5
v -9.5 2 -5.5
v -9.5 3 5.5
v -9.5 3 4.5
v -9.5 4 5.5
v -9.5 4 4.5
v -9.5 6 5.5
v -9.5 6 3.5
v -9.5 6 -3.5
v -9.5 6 -5.5
v -9.5 8 -2.5
v -9.5 8 -3.5
v -9.5 9 3.5
v -9.5 9 -2.5
v -9.5 9 -3.5
v -8.5 2 6.5
v -8.5 2 5.5
v -8.5 2 -5.5
v -8.5 2 -6.5
v -8.5 3 5.5
v -8.5 4 5.5
v -8.5 6 6.5
v -8.5 6 5.5
v -8.5 6 3.5
v -8.5 6 -3.5
v -8.5 6 -5.5
v -8.5 6 -6.5
v -8.5 8 -3.5
v -8.5 9 5.5
v -8.5 9 3.5
v -8.5 9 2.5
v -8.5 9 -2.5
v -8.5 9 -3.5
v -8.5 9 -5.5
v -8.5 11 2.5
v -8.5 11 -2.5
v -7.5 2 7.5
v -7.5 2 6.5
v -7.5 2 -6.5
v -7.5 2 -7.5
v -7.5 5 -6.5
v -7.5 5 -7.5
v -7.5 6 7.5
v -7.5 6 6.5
v -7.5 6 5.5
v -7.5 6 -5.5
v -7.5 6 -6.5
v -7.5 6 -7.5
v -7.5 9 6.5
v -7.5 9 5.5
v -7.5 9 4.5
v -7.5 9 2.5
v -7.5 9 -2.5
v -7.5 9 -4.5
v -7.5 9 -5.5
v -7.5 9 -6.5
v -7.5 11 4.5
v -7.5 11 2.5
v -7.5 11 -2.5
v -7.5 11 -4.5
v -7.5 12 2.5
v -7.5 12 -2.5
v -6.5 2 8.5
v -6.5 2 7.5
v -6.5 2 -7.5
v -6.5 2 -8.5
v -6.5 5 -7.5
v -6.5 6 8.5
v -6.5 6 7.5
v -6.5 6 6.5
v -6.5 6 -6.5
v -6.5 6 -7.5
v -6.5 6 -8.5
v -6.5 9 7.5
v -6.5 9 6.5
v -6.5 9 4.5
v -6.5 9 -4.5
v -6.5 9 -6.5
v -6.5 9 -7.5
v -6.5 11 6.5
v -6.5 11 4.5
v -6.5 11 3.5
v -6.5 11 2.5
v -6.5 11 -2.5
v -6.5 11 -4.5
v -6.5 11 -6.5
v -6.5 12 4.5
v -6.5 12 3.5
v -6.5 12 2.5
v -6.5 12 -2.5
v -6.5 12 -4.5
v -6.5 13 2.5
v -6.5 13 -2.5
v -5.5 2 9.5
v -5.5 2 8.5
v -5.5 2 -8.5
v -5.5 2 -9.5
v -5.5 5 9.5
v -5.5 5 8.5
v -5.5 6 9.5
v -5.5 6 8.5
v -5.5 6 7.5
v -5.5 6 -7.5
v -5.5 6 -8.5
v -5.5 6 -9.5
v -5.5 9 8.5
v -5.5 9 7.5
v -5.5 9 -7.5
v -5.5 9 -8.5
v -5.5 11 5.5
v -5.5 11 4.5
v -5.5 11 -4.5
v -5.5 11 -5.5
v -5.5 12 5.5
v -5.5 12 4.5
v -5.5 12 3.5
v -5.5 12 2.5
v -5.5 12 -2.5
v -5.5 12 -4.5
v -5.5 12 -5.5
v -5.5 13 4.5
v -5.5 13 2.5
v -5.5 13 -2.5
v -5.5 13 -4.5
v -4.5 9 7.5
v -4.5 9 6.5
v -4.5 9 -6.5
v -4.5 9 -7.5
v -4.5 11 7.5
v -4.5 11 6.5
v -4.5 11 5.5
v -4.5 11 -5.5
v -4.5 11 -6.5
v -4.5 11 -7.5
v -4.5 12 6.5
v -4.5 12 5.5
v -4.5 12 4.5
v -4.5 12 -4.5
v -4.5 12 -5.5
v -4.5 12 -6.5
v -4.5 13 5.5
v -4.5 13 4.5
v -4.5 13 2.5
v -4.5 13 -2.5
v -4.5 13 -4.5
v -4.5 13 -5.5
v -4.5 14 2.5
v -4.5 14 -2.5
v -3.5 2 10.5
v -3.5 2 9.5
v -3.5 2 -9.5
v -3.5 2 -10.5
v -3.5 6 10.5
v -3.5 6 9.5
v -3.5 6 8.5
v -3.5 6 -8.5
v -3.5 6 -9.5
v -3.5 6 -10.5
v -3.5 9 9.5
v -3.5 9 8.5
v -3.5 9 -8.5
v -3.5 9 -9.5
v -3.5 13 3.5
v -3.5 13 2.5
v -3.5 13 -2.5
v -3.5 13 -3.5
v -3.5 14 3.5
v -3.5 14 2.5
v -3.5 14 -2.5
v -3.5 14 -3.5
v -2.5 9 8.5
v -2.5 9 7.5
v -2.5 9 -7.5
v -2.5 9 -8.5
v -2.5 10 -7.5
v -2.5 10 -8.5
v -2.5 11 8.5
v -2.5 11 7.5
v -2.5 11 6.5
v -2.5 11 -6.5
v -2.5 11 -7.5
v -2.5 11 -8.5
v -2.5 12 7.5
v -2.5 12 6.5
v -2.5 12 5.5
v -2.5 12 -5.5
v -2.5 12 -6.5
v -2.5 12 -7.5
v -2.5 13 6.5
v -2.5 13 5.5
v -2.5 13 4.5
v -2.5 13 3.5
v -2.5 13 -3.5
v -2.5 13 -4.5
v -2.5 13 -5.5
v -2.5 13 -6.5
v -2.5 14 4.5
v -2.5 14 3.5
v -2.5 14 1.5
v -2.5 14 -1.5
v -2.5 14 -3.5
v -2.5 14 -4.5
v -2.5 15 1.5
v -2.5 15 -1.5
v -1.5 0 0.5
v -1.5 0 -1.5
v -1.5 2 0.5
v -1.5 2 -1.5
v -1.5 14 2.5
v -1.5 14 1.5
v -1.5 14 -1.5
v -1.5 14 -2.5
v -1.5 15 2.5
v -1.5 15 1.5
v -1.5 15 -1.5
v -1.5 15 -2.5
v 0.5 0 0.5
v 0.5 0 -1.5
v 0.5 2 0.5
v 0.5 2 -1.5
v 1.5 14 2.5
v 1.5 14 1.5
v 1.5 14 -1.5
v 1.5 14 -2.5
v 1.5 15 2.5
v 1.5 15 1.5
v 1.5 15 -1.5
v 1.5 15 -2.5
v 2.5 9 8.5
v 2.5 9 7.5
v 2.5 9 -7.5
v 2.5 9 -8.5
v 2.5 11 8.5
v 2.5 11 7.5
v 2.5 11 6.5
v 2.5 11 -6.5
v 2.5 11 -7.5
v 2.5 11 -8.5
v 2.5 12 7.5
v 2.5 12 6.5
v 2.5 12 5.5
v 2.5 12 -5.5
v 2.5 12 -6.5
v 2.5 12 -7.5
v 2.5 13 6.5
v 2.5 13 5.5
v 2.5 13 4.5
v 2.5 13 3.5
v 2.5 13 -3.5
v 2.5 13 -4.5
v 2.5 13 -5.5
v 2.5 13 -6.5
v 2.5 14 4.5
v 2.5 14 3.5
v 2.5 14 1.5
v 2.5 14 -1.5
v 2.5 14 -3.5
v 2.5 14 -4.5
v 2.5 15 1.5
v 2.5 15 -1.5
v 3.5 2 10.5
v 3.5 2 9.5
v 3.5 2 -9.5
v 3.5 2 -10.5
v 3.5 6 10.5
v 3.5 6 9.5
v 3.5 6 8.5
v 3.5 6 -8.5
v 3.5 6 -9.5
v 3.5 6 -10.5
v 3.5 7 -8.5
v 3.5 9 9.5
v 3.5 9 8.5
v 3.5 9 -8.5
v 3.5 9 -9.5
v 3.5 13 3.5
v 3.5 13 2.5
v 3.5 13 -2.5
v 3.5 13 -3.5
v 3.5 14 3.5
v 3.5 14 2.5
v 3.5 14 -2.5
v 3.5 14 -3.5
v 4.5 9 7.5
v 4.5 9 6.5
v 4.5 9 -6.5
v 4.5 9 -7.5
v 4.5 11 7.5
v 4.5 11 6.5
v 4.5 11 5.5
v 4.5 11 -5.5
v 4.5 11 -6.5
v 4.5 11 -7.5
v 4.5 12 6.5
v 4.5 12 5.5
v 4.5 12 4.5
v 4.5 12 -4.5
v 4.5 12 -5.5
v 4.5 12 -6.5
v 4.5 13 5.5
v 4.5 13 4.5
v 4.5 13 2.5
v 4.5 13 -2.5
v 4.5 13 -4.5
v 4.5 13 -5.5
v 4.5 14 2.5
v 4.5 14 -2.5
v 5.5 2 9.5
v 5.5 2 8.5
v 5.5 2 -8.5
v 5.5 2 -9.5
v 5.5 5 9.5
v 5.5 5 8.5
v 5.5 6 9.5
v 5.5 6 8.5
v 5.5 6 7.5
v 5.5 6 -7.5
v 5.5 6 -8.5
v 5.5 6 -9.5
v 5.5 9 8.5
v 5.5 9 7.5
v 5.5 9 -7.5
v 5.5 9 -8.5
v 5.5 11 5.5
v 5.5 11 4.5
v 5.5 11 -4.5
v 5.5 11 -5.5
v 5.5 12 5.5
v 5.5 12 4.5
v 5.5 12 2.5
v 5.5 12 -2.5
v 5.5 12 -4.5
v 5.5 12 -5.5
v 5.5 13 4.5
v 5.5 13 2.5
v 5.5 13 -2.5
v 5.5 13 -4.5
v 6.5 2 8.5
v 6.5 2 7.5
v 6.5 2 -7.5
v 6.5 2 -8.5
v 6.5 6 8.5
v 6.5 6 7.5
v 6.5 6 6.5
v 6.5 6 -6.5
v 6.5 6 -7.5
v 6.5 6 -8.5
v 6.5 9 7.5
v 6.5 9 6.5
v 6.5 9 4.5
v 6.5 9 -4.5
v 6.5 9 -6.5
v 6.5 9 -7.5
v 6.5 10 5.5
v 6.5 10 4.5
v 6.5 10 -4.5
v 6.5 10 -5.5
v 6.5 11 6.5
v 6.5 11 5.5
v 6.5 11 4.5
v 6.5 11 2.5
v 6.5 11 -2.5
v 6.5 11 -4.5
v 6.5 11 -5.5
v 6.5 11 -6.5
v 6.5 12 4.5
v 6.5 12 2.5
v 6.5 12 -2.5
v 6.5 12 -4.5
v 6.5 13 2.5
v 6.5 13 -2.5
v 7.5 2 7.5
v 7.5 2 6.5
v 7.5 2 -6.5
v 7.5 2 -7.5
v 7.5 6 7.5
v 7.5 6 6.5
v 7.5 6 5.5
v 7.5 6 -5.5
v 7.5 6 -6.5
v 7.5 6 -7.5
v 7.5 9 6.5
v 7.5 9 5.5
v 7.5 9 4.5
v 7.5 9 2.5
v 7.5 9 -2.5
v 7.5 9 -3.5
v 7.5 9 -4.5
v 7.5 9 -5.5
v 7.5 9 -6.5
v 7.5 11 4.5
v 7.5 11 2.5
v 7.5 11 -2.5
v 7.5 11 -4.5
v 7.5 12 2.5
v 7.5 12 -2.5
v 8.5 2 6.5
v 8.5 2 5.5
v 8.5 2 -5.5
v 8.5 2 -6.5
v 8.5 6 6.5
v 8.5 6 5.5
v 8.5 6 3.5
v 8.5 6 -3.5
v 8.5 6 -5.5
v 8.5 6 -6.5
v 8.5 8 -3.5
v 8.5 8 -4.5
v 8.5 9 5.5
v 8.5 9 3.5
v 8.5 9 2.5
v 8.5 9 -2.5
v 8.5 9 -3.5
v 8.5 9 -4.5
v 8.5 9 -5.5
v 8.5 11 2.5
v 8.5 11 -2.5
v 9.5 2 5.5
v 9.5 2 3.5
v 9.5 2 -3.5
v 9.5 2 -5.5
v 9.5 6 5.5
v 9.5 6 3.5
v 9.5 6 -3.5
v 9.5 6 -5.5
v 9.5 9 3.5
v 9.5 9 -3.5
v 10.5 2 3.5
v 10.5 2 -3.5
v 10.5 6 3.5
v 10.5 6 -3.5
v -3.5 2 10.5
v -3.5 6 10.5
v 3.5 2 10.5
v 3.5 6 10.5
v -5.5 2 9.5
v -5.5 5 9.5
v -5.5 6 9.5
v -4.5 5 9.5
v -4.5 6 9.5
v -3.5 2 9.5
v -3.5 6 9.5
v -3.5 9 9.5
v -0.5 7 9.5
v -0.5 8 9.5
v 0.5 7 9.5
v 0.5 8 9.5
v 3.5 2 9.5
v 3.5 6 9.5
v 3.5 9 9.5
v 4.5 5 9.5
v 4.5 6 9.5
v 5.5 2 9.5
v 5.5 5 9.5
v 5.5 6 9.5
v -6.5 2 8.5
v -6.5 6 8.5
v -5.5 2 8.5
v -5.5 5 8.5
v -5.5 6 8.5
v -5.5 9 8.5
v -4.5 6 8.5
v -3.5 6 8.5
v -3.5 9 8.5
v -2.5 9 8.5
v -2.5 11 8.5
v 2.5 9 8.5
v 2.5 11 8.5
v 3.5 6 8.5
v 3.5 9 8.5
v 4.5 6 8.5
v 5.5 2 8.5
v 5.5 5 8.5
v 5.5 6 8.5
v 5.5 9 8.5
v 6.5 2 8.5
v 6.5 6 8.5
v -7.5 2 7.5
v -7.5 6 7.5
v -6.5 2 7.5
v -6.5 6 7.5
v -6.5 9 7.5
v -5.5 6 7.5
v -5.5 9 7.5
v -4.5 9 7.5
v -4.5 11 7.5
v -2.5 9 7.5
v -2.5 11 7.5
v -2.5 12 7.5
v 2.5 9 7.5
v 2.5 11 7.5
v 2.5 12 7.5
v 4.5 9 7.5
v 4.5 11 7.5
v 5.5 6 7.5
v 5.5 9 7.5
v 6.5 2 7.5
v 6.5 6 7.5
v 6.5 9 7.5
v 7.5 2 7.5
v 7.5 6 7.5
v -8.5 2 6.5
v -8.5 6 6.5
v -7.5 2 6.5
v -7.5 6 6.5
v -7.5 9 6.5
v -6.5 6 6.5
v -6.5 9 6.5
v -6.5 11 6.5
v -4.5 9 6.5
v -4.5 11 6.5
v -4.5 12 6.5
v -2.5 11 6.5
v -2.5 12 6.5
v -2.5 13 6.5
v 2.5 11 6.5
v 2.5 12 6.5
v 2.5 13 6.5
v 4.5 9 6.5
v 4.5 11 6.5
v 4.5 12 6.5
v 6.5 6 6.5
v 6.5 9 6.5
v 6.5 11 6.5
v 7.5 2 6.5
v 7.5 6 6.5
v 7.5 9 6.5
v 8.5 2 6.5
v 8.5 6 6.5
v -9.5 2 5.5
v -9.5 3 5.5
v -9.5 4 5.5
v -9.5 6 5.5
v -8.5 2 5.5
v -8.5 3 5.5
v -8.5 4 5.5
v -8.5 6 5.5
v -8.5 9 5.5
v -7.5 6 5.5
v -7.5 9 5.5
v -5.5 11 5.5
v -5.5 12 5.5
v -4.5 11 5.5
v -4.5 12 5.5
v -4.5 13 5.5
v -2.5 12 5.5
v -2.5 13 5.5
v 2.5 12 5.5
v 2.5 13 5.5
v 4.5 11 5.5
v 4.5 12 5.5
v 4.5 13 5.5
v 5.5 11 5.5
v 5.5 12 5.5
v 7.5 6 5.5
v 7.5 9 5.5
v 8.5 2 5.5
v 8.5 6 5.5
v 8.5 9 5.5
v 9.5 2 5.5
v 9.5 6 5.5
v -7.5 9 4.5
v -7.5 11 4.5
v -6.5 9 4.5
v -6.5 11 4.5
v -6.5 12 4.5
v -5.5 11 4.5
v -5.5 12 4.5
v -5.5 13 4.5
v -4.5 12 4.5
v -4.5 13 4.5
v -2.5 13 4.5
v -2.5 14 4.5
v 2.5 13 4.5
v 2.5 14 4.5
v 4.5 12 4.5
v 4.5 13 4.5
v 5.5 11 4.5
v 5.5 12 4.5
v 5.5 13 4.5
v 6.5 9 4.5
v 6.5 10 4.5
v 6.5 11 4.5
v 6.5 12 4.5
v 7.5 9 4.5
v 7.5 11 4.5
v -10.5 2 3.5
v -10.5 6 3.5
v -9.5 2 3.5
v -9.5 6 3.5
v -9.5 9 3.5
v -8.5 6 3.5
v -8.5 9 3.5
v -3.5 13 3.5
v -3.5 14 3.5
v -2.5 13 3.5
v -2.5 14 3.5
v 2.5 13 3.5
v 2.5 14 3.5
v 3.5 13 3.5
v 3.5 14 3.5
v 8.5 6 3.5
v 8.5 9 3.5
v 9.5 2 3.5
v 9.5 6 3.5
v 9.5 9 3.5
v 10.5 2 3.5
v 10.5 6 3.5
v -8.5 9 2.5
v -8.5 11 2.5
v -7.5 9 2.5
v -7.5 11 2.5
v -7.5 12 2.5
v -6.5 11 2.5
v -6.5 12 2.5
v -6.5 13 2.5
v -5.5 12 2.5
v -5.5 13 2.5
v -4.5 13 2.5
v -4.5 14 2.5
v -3.5 13 2.5
v -3.5 14 2.5
v -1.5 14 2.5
v -1.5 15 2.5
v 1.5 14 2.5
v 1.5 15 2.5
v 3.5 13 2.5
v 3.5 14 2.5
v 4.5 13 2.5
v 4.5 14 2.5
v 5.5 12 2.5
v 5.5 13 2.5
v 6.5 11 2.5
v 6.5 12 2.5
v 6.5 13 2.5
v 7.5 9 2.5
v 7.5 11 2.5
v 7.5 12 2.5
v 8.5 9 2.5
v 8.5 11 2.5
v -2.5 14 1.5
v -2.5 15 1.5
v -1.5 14 1.5
v -1.5 15 1.5
v 1.5 14 1.5
v 1.5 15 1.5
v 2.5 14 1.5
v 2.5 15 1.5
v -1.5 0 0.5
v -1.5 2 0.5
v 0.5 0 0.5
v 0.5 2 0.5
v -2.5 14 -1.5
v -2.5 15 -1.5
v -1.5 0 -1.5
v -1.5 2 -1.5
v -1.5 14 -1.5
v -1.5 15 -1.5
v 0.5 0 -1.5
v 0.5 2 -1.5
v 1.5 14 -1.5
v 1.5 15 -1.5
v 2.5 14 -1.5
v 2.5 15 -1.5
v -8.5 9 -2.5
v -8.5 11 -2.5
v -7.5 9 -2.5
v -7.5 11 -2.5
v -7.5 12 -2.5
v -6.5 11 -2.5
v -6.5 12 -2.5
v -6.5 13 -2.5
v -5.5 12 -2.5
v -5.5 13 -2.5
v -4.5 13 -2.5
v -4.5 14 -2.5
v -3.5 13 -2.5
v -3.5 14 -2.5
v -1.5 14 -2.5
v -1.5 15 -2.5
v 0.5 14 -2.5
v 0.5 15 -2.5
v 1.5 14 -2.5
v 1.5 15 -2.5
v 3.5 13 -2.5
v 3.5 14 -2.5
v 4.5 13 -2.5
v 4.5 14 -2.5
v 5.5 12 -2.5
v 5.5 13 -2.5
v 6.5 11 -2.5
v 6.5 12 -2.5
v 6.5 13 -2.5
v 7.5 9 -2.5
v 7.5 11 -2.5
v 7.5 12 -2.5
v 8.5 9 -2.5
v 8.5 11 -2.5
v -10.5 2 -3.5
v -10.5 6 -3.5
v -9.5 2 -3.5
v -9.5 6 -3.5
v -9.5 8 -3.5
v -9.5 9 -3.5
v -8.5 6 -3.5
v -8.5 8 -3.5
v -8.5 9 -3.5
v -3.5 13 -3.5
v -3.5 14 -3.5
v -2.5 13 -3.5
v -2.5 14 -3.5
v 2.5 13 -3.5
v 2.5 14 -3.5
v 3.5 13 -3.5
v 3.5 14 -3.5
v 8.5 6 -3.5
v 8.5 8 -3.5
v 8.5 9 -3.5
v 9.5 2 -3.5
v 9.5 6 -3.5
v 9.5 9 -3.5
v 10.5 2 -3.5
v 10.5 6 -3.5
v -7.5 9 -4.5
v -7.5 11 -4.5
v -6.5 9 -4.5
v -6.5 11 -4.5
v -6.5 12 -4.5
v -5.5 11 -4.5
v -5.5 12 -4.5
v -5.5 13 -4.5
v -4.5 12 -4.5
v -4.5 13 -4.5
v -2.5 13 -4.5
v -2.5 14 -4.5
v 2.5 13 -4.5
v 2.5 14 -4.5
v 4.5 12 -4.5
v 4.5 13 -4.5
v 5.5 11 -4.5
v 5.5 12 -4.5
v 5.5 13 -4.5
v 6.5 9 -4.5
v 6.5 10 -4.5
v 6.5 11 -4.5
v 6.5 12 -4.5
v 7.5 9 -4.5
v 7.5 11 -4.5
v -9.5 2 -5.5
v -9.5 6 -5.5
v -8.5 2 -5.5
v -8.5 6 -5.5
v -8.5 9 -5.5
v -7.5 6 -5.5
v -7.5 9 -5.5
v -5.5 11 -5.5
v -5.5 12 -5.5
v -4.5 11 -5.5
v -4.5 12 -5.5
v -4.5 13 -5.5
v -2.5 12 -5.5
v -2.5 13 -5.5
v 2.5 12 -5.5
v 2.5 13 -5.5
v 4.5 11 -5.5
v 4.5 12 -5.5
v 4.5 13 -5.5
v 5.5 11 -5.5
v 5.5 12 -5.5
v 7.5 6 -5.5
v 7.5 9 -5.5
v 8.5 2 -5.5
v 8.5 6 -5.5
v 8.5 9 -5.5
v 9.5 2 -5.5
v 9.5 6 -5.5
v -8.5 2 -6.5
v -8.5 6 -6.5
v -7.5 2 -6.5
v -7.5 5 -6.5
v -7.5 6 -6.5
v -7.5 9 -6.5
v -6.5 6 -6.5
v -6.5 9 -6.5
v -6.5 11 -6.5
v -4.5 9 -6.5
v -4.5 11 -6.5
v -4.5 12 -6.5
v -2.5 11 -6.5
v -2.5 12 -6.5
v -2.5 13 -6.5
v 2.5 11 -6.5
v 2.5 12 -6.5
v 2.5 13 -6.5
v 4.5 9 -6.5
v 4.5 11 -6.5
v 4.5 12 -6.5
v 6.5 6 -6.5
v 6.5 9 -6.5
v 6.5 11 -6.5
v 7.5 2 -6.5
v 7.5 6 -6.5
v 7.5 9 -6.5
v 8.5 2 -6.5
v 8.5 6 -6.5
v -7.5 2 -7.5
v -7.5 5 -7.5
v -7.5 6 -7.5
v -6.5 2 -7.5
v -6.5 5 -7.5
v -6.5 6 -7.5
v -6.5 9 -7.5
v -5.5 6 -7.5
v -5.5 9 -7.5
v -4.5 9 -7.5
v -4.5 11 -7.5
v -2.5 9 -7.5
v -2.5 10 -7.5
v -2.5 11 -7.5
v -2.5 12 -7.5
v -1.5 11 -7.5
v 2.5 9 -7.5
v 2.5 11 -7.5
v 2.5 12 -7.5
v 4.5 9 -7.5
v 4.5 11 -7.5
v 5.5 6 -7.5
v 5.5 9 -7.5
v 6.5 2 -7.5
v 6.5 6 -7.5
v 6.5 9 -7.5
v 7.5 2 -7.5
v 7.5 6 -7.5
v -6.5 2 -8.5
v -6.5 6 -8.5
v -5.5 2 -8.5
v -5.5 6 -8.5
v -5.5 9 -8.5
v -3.5 6 -8.5
v -3.5 9 -8.5
v -2.5 9 -8.5
v -2.5 10 -8.5
v -2.5 11 -8.5
v -1.5 10 -8.5
v -1.5 11 -8.5
v 2.5 9 -8.5
v 2.5 11 -8.5
v 3.5 6 -8.5
v 3.5 7 -8.5
v 3.5 9 -8.5
v 4.5 6 -8.5
v 4.5 7 -8.5
v 5.5 2 -8.5
v 5.5 6 -8.5
v 5.5 9 -8.5
v 6.5 2 -8.5
v 6.5 6 -8.5
v -5.5 2 -9.5
v -5.5 6 -9.5
v -3.5 2 -9.5
v -3.5 6 -9.5
v -3.5 9 -9.5
v 3.5 2 -9.5
v 3.5 6 -9.5
v 3.5 9 -9.5
v 5.5 2 -9.5
v 5.5 6 -9.5
v -3.5 2 -10.5
v -3.5 6 -10.5
v 3.5 2 -10.5
v 3.5 6 -10.5
v -1.5 0 0.5
v 0.5 0 0.5
v -1.5 0 -1.5
v 0.5 0 -1.5
v -3.5 2 10.5
v 3.5 2 10.5
v -5.5 2 9.5
v -3.5 2 9.5
v 3.5 2 9.5
v 5.5 2 9.5
v -6.5 2 8.5
v -5.5 2 8.5
v 5.5 2 8.5
v 6.5 2 8.5
v -7.5 2 7.5
v -6.5 2 7.5
v 6.5 2 7.5
v 7.5 2 7.5
v -8.5 2 6.5
v -7.5 2 6.5
v 7.5 2 6.5
v 8.5 2 6.5
v -9.5 2 5.5
v -8.5 2 5.5
v 8.5 2 5.5
v 9.5 2 5.5
v -10.5 2 3.5
v -9.5 2 3.5
v 9.5 2 3.5
v 10.5 2 3.5
v -1.5 2 0.5
v 0.5 2 0.5
v -1.5 2 -1.5
v 0.5 2 -1.5
v -10.5 2 -3.5
v -9.5 2 -3.5
v 9.5 2 -3.5
v 10.5 2 -3.5
v -9.5 2 -5.5
v -8.5 2 -5.5
v 8.5 2 -5.5
v 9.5 2 -5.5
v -8.5 2 -6.5
v -7.5 2 -6.5
v 7.5 2 -6.5
v 8.5 2 -6.5
v -7.5 2 -7.5
v -6.5 2 -7.5
v 6.5 2 -7.5
v 7.5 2 -7.5
v -6.5 2 -8.5
v -5.5 2 -8.5
v 5.5 2 -8.5
v 6.5 2 -8.5
v -5.5 2 -9.5
v -3.5 2 -9.5
v 3.5 2 -9.5
v 5.5 2 -9.5
v -3.5 2 -10.5
v 3.5 2 -10.5
v -3.5 6 10.5
v 3.5 6 10.5
v -5.5 6 9.5
v -4.5 6 9.5
v -3.5 6 9.5
v 3.5 6 9.5
v 4.5 6 9.5
v 5.5 6 9.5
v -6.5 6 8.5
v -5.5 6 8.5
v -4.5 6 8.5
v -3.5 6 8.5
v 3.5 6 8.5
v 4.5 6 8.5
v 5.5 6 8.5
v 6.5 6 8.5
v -7.5 6 7.5
v -6.5 6 7.5
v -5.5 6 7.5
v 5.5 6 7.5
v 6.5 6 7.5
v 7.5 6 7.5
v -8.5 6 6.5
v -7.5 6 6.5
v -6.5 6 6.5
v 6.5 6 6.5
v 7.5 6 6.5
v 8.5 6 6.5
v -9.5 6 5.5
v -8.5 6 5.5
v -7.5 6 5.5
v 7.5 6 5.5
v 8.5 6 5.5
v 9.5 6 5.5
v -10.5 6 3.5
v -9.5 6 3.5
v -8.5 6 3.5
v 8.5 6 3.5
v 9.5 6 3.5
v 10.5 6 3.5
v -10.5 6 -3.5
v -9.5 6 -3.5
v -8.5 6 -3.5
v 8.5 6 -3.5
v 9.5 6 -3.5
v 10.5 6 -3.5
v -9.5 6 -5.5
v -8.5 6 -5.5
v -7.5 6 -5.5
v 7.5 6 -5.5
v 8.5 6 -5.5
v 9.5 6 -5.5
v -8.5 6 -6.5
v -7.5 6 -6.5
v -6.5 6 -6.5
v 6.5 6 -6.5
v 7.5 6 -6.5
v 8.5 6 -6.5
v -7.5 6 -7.5
v -6.5 6 -7.5
v -5.5 6 -7.5
v 5.5 6 -7.5
v 6.5 6 -7.5
v 7.5 6 -7.5
v -6.5 6 -8.5
v -5.5 6 -8.5
v -3.5 6 -8.5
v 3.5 6 -8.5
v 4.5 6 -8.5
v 5.5 6 -8.5
v 6.5 6 -8.5
v -5.5 6 -9.5
v -3.5 6 -9.5
v 3.5 6 -9.5
v 5.5 6 -9.5
v -3.5 6 -10.5
v 3.5 6 -10.5
v -3.5 9 9.5
v 3.5 9 9.5
v -5.5 9 8.5
v -3.5 9 8.5
v -2.5 9 8.5
v 2.5 9 8.5
v 3.5 9 8.5
v 5.5 9 8.5
v -6.5 9 7.5
v -5.5 9 7.5
v -4.5 9 7.5
v -2.5 9 7.5
v 2.5 9 7.5
v 4.5 9 7.5
v 5.5 9 7.5
v 6.5 9 7.5
v -7.5 9 6.5
v -6.5 9 6.5
v -4.5 9 6.5
v 4.5 9 6.5
v 6.5 9 6.5
v 7.5 9 6.5
v -8.5 9 5.5
v -7.5 9 5.5
v 7.5 9 5.5
v 8.5 9 5.5
v -7.5 9 4.5
v -6.5 9 4.5
v 6.5 9 4.5
v 7.5 9 4.5
v -9.5 9 3.5
v -8.5 9 3.5
v 8.5 9 3.5
v 9.5 9 3.5
v -8.5 9 2.5
v -7.5 9 2.5
v 7.5 9 2.5
v 8.5 9 2.5
v -9.5 9 -2.5
v -8.5 9 -2.5
v -7.5 9 -2.5
v 7.5 9 -2.5
v 8.5 9 -2.5
v -9.5 9 -3.5
v -8.5 9 -3.5
v 7.5 9 -3.5
v 8.5 9 -3.5
v 9.5 9 -3.5
v -7.5 9 -4.5
v -6.5 9 -4.5
v 6.5 9 -4.5
v 7.5 9 -4.5
v 8.5 9 -4.5
v -8.5 9 -5.5
v -7.5 9 -5.5
v 7.5 9 -5.5
v 8.5 9 -5.5
v -7.5 9 -6.5
v -6.5 9 -6.5
v -4.5 9 -6.5
v 4.5 9 -6.5
v 6.5 9 -6.5
v 7.5 9 -6.5
v -6.5 9 -7.5
v -5.5 9 -7.5
v -4.5 9 -7.5
v -2.5 9 -7.5
v 2.5 9 -7.5
v 4.5 9 -7.5
v 5.5 9 -7.5
v 6.5 9 -7.5
v -5.5 9 -8.5
v -3.5 9 -8.5
v -2.5 9 -8.5
v 2.5 9 -8.5
v 3.5 9 -8.5
v 5.5 9 -8.5
v -3.5 9 -9.5
v 3.5 9 -9.5
v -2.5 11 8.5
v 2.5 11 8.5
v -4.5 11 7.5
v -2.5 11 7.5
v 2.5 11 7.5
v 4.5 11 7.5
v -6.5 11 6.5
v -4.5 11 6.5
v -2.5 11 6.5
v 2.5 11 6.5
v 4.5 11 6.5
v 6.5 11 6.5
v -5.5 11 5.5
v -4.5 11 5.5
v 4.5 11 5.5
v 5.5 11 5.5
v 6.5 11 5.5
v -7.5 11 4.5
v -6.5 11 4.5
v -5.5 11 4.5
v 5.5 11 4.5
v 6.5 11 4.5
v 7.5 11 4.5
v -6.5 11 3.5
v -8.5 11 2.5
v -7.5 11 2.5
v -6.5 11 2.5
v 6.5 11 2.5
v 7.5 11 2.5
v 8.5 11 2.5
v -8.5 11 -2.5
v -7.5 11 -2.5
v -6.5 11 -2.5
v 6.5 11 -2.5
v 7.5 11 -2.5
v 8.5 11 -2.5
v -7.5 11 -4.5
v -6.5 11 -4.5
v -5.5 11 -4.5
v 5.5 11 -4.5
v 6.5 11 -4.5
v 7.5 11 -4.5
v -5.5 11 -5.5
v -4.5 11 -5.5
v 4.5 11 -5.5
v 5.5 11 -5.5
v 6.5 11 -5.5
v -6.5 11 -6.5
v -4.5 11 -6.5
v -2.5 11 -6.5
v 2.5 11 -6.5
v 4.5 11 -6.5
v 6.5 11 -6.5
v -4.5 11 -7.5
v -2.5 11 -7.5
v -1.5 11 -7.5
v 2.5 11 -7.5
v 4.5 11 -7.5
v -2.5 11 -8.5
v -1.5 11 -8.5
v 2.5 11 -8.5
v -2.5 12 7.5
v 2.5 12 7.5
v -4.5 12 6.5
v -2.5 12 6.5
v 2.5 12 6.5
v 4.5 12 6.5
v -5.5 12 5.5
v -4.5 12 5.5
v -2.5 12 5.5
v 2.5 12 5.5
v 4.5 12 5.5
v 5.5 12 5.5
v -6.5 12 4.5
v -5.5 12 4.5
v -4.5 12 4.5
v 4.5 12 4.5
v 5.5 12 4.5
v 6.5 12 4.5
v -6.5 12 3.5
v -5.5 12 3.5
v -7.5 12 2.5
v -6.5 12 2.5
v -5.5 12 2.5
v 5.5 12 2.5
v 6.5 12 2.5
v 7.5 12 2.5
v -7.5 12 -2.5
v -6.5 12 -2.5
v -5.5 12 -2.5
v 5.5 12 -2.5
v 6.5 12 -2.5
v 7.5 12 -2.5
v -6.5 12 -4.5
v -5.5 12 -4.5
v -4.5 12 -4.5
v 4.5 12 -4.5
v 5.5 12 -4.5
v 6.5 12 -4.5
v -5.5 12 -5.5
v -4.5 12 -5.5
v -2.5 12 -5.5
v 2.5 12 -5.5
v 4.5 12 -5.5
v 5.5 12 -5.5
v -4.5 12 -6.5
v -2.5 12 -6.5
v 2.5 12 -6.5
v 4.5 12 -6.5
v -2.5 12 -7.5
v 2.5 12 -7.5
v -2.5 13 6.5
v 2.5 13 6.5
v -4.5 13 5.5
v -2.5 13 5.5
v 2.5 13 5.5
v 4.5 13 5.5
v -5.5 13 4.5
v -4.5 13 4.5
v -2.5 13 4.5
v 2.5 13 4.5
v 4.5 13 4.5
v 5.5 13 4.5
v -3.5 13 3.5
v -2.5 13 3.5
v 2.5 13 3.5
v 3.5 13 3.5
v -6.5 13 2.5
v -5.5 13 2.5
v -4.5 13 2.5
v -3.5 13 2.5
v 3.5 13 2.5
v 4.5 13 2.5
v 5.5 13 2.5
v 6.5 13 2.5
v -6.5 13 -2.5
v -5.5 13 -2.5
v -4.5 13 -2.5
v -3.5 13 -2.5
v 3.5 13 -2.5
v 4.5 13 -2.5
v 5.5 13 -2.5
v 6.5 13 -2.5
v -3.5 13 -3.5
v -2.5 13 -3.5
v 2.5 13 -3.5
v 3.5 13 -3.5
v -5.5 13 -4.5
v -4.5 13 -4.5
v -2.5 13 -4.5
v 2.5 13 -4.5
v 4.5 13 -4.5
v 5.5 13 -4.5
v -4.5 13 -5.5
v -2.5 13 -5.5
v 2.5 13 -5.5
v 4.5 13 -5.5
v -2.5 13 -6.5
v 2.5 13 -6.5
v -2.5 14 4.5
v 2.5 14 4.5
v -3.5 14 3.5
v -2.5 14 3.5
v 2.5 14 3.5
v 3.5 14 3.5
v -4.5 14 2.5
v -3.5 14 2.5
v -1.5 14 2.5
v 1.5 14 2.5
v 3.5 14 2.5
v 4.5 14 2.5
v -2.5 14 1.5
v -1.5 14 1.5
v 1.5 14 1.5
v 2.5 14 1.5
v -2.5 14 -1.5
v -1.5 14 -1.5
v 1.5 14 -1.5
v 2.5 14 -1.5
v -4.5 14 -2.5
v -3.5 14 -2.5
v -1.5 14 -2.5
v 0.5 14 -2.5
v 1.5 14 -2.5
v 3.5 14 -2.5
v 4.5 14 -2.5
v -3.5 14 -3.5
v -2.5 14 -3.5
v 2.5 14 -3.5
v 3.5 14 -3.5
v -2.5 14 -4.5
v 2.5 14 -4.5
v -1.5 15 2.5
v 1.5 15 2.5
v -2.5 15 1.5
v -1.5 15 1.5
v 1.5 15 1.5
v 2.5 15 1.5
v -2.5 15 -1.5
v -1.5 15 -1.5
v 0.5 15 -1.5
v 1.5 15 -1.5
v 2.5 15 -1.5
v -1.5 15 -2.5
v 0.5 15 -2.5
v 1.5 15 -2.5

# faces
f 3/2/1 2/2/1 1/2/1
f 4/2/1 2/2/1 3/2/1
f 9/2/1 6/2/1 5/2/1
f 10/2/1 6/2/1 9/2/1
f 11/1/1 10/1/1 9/1/1
f 12/2/1 6/2/1 10/2/1
f 12/1/1 10/1/1 11/1/1
f 13/2/1 12/2/1 11/2/1
f 14/2/1 6/2/1 12/2/1
f 14/2/1 12/2/1 13/2/1
f 15/2/1 8/2/1 7/2/1
f 16/2/1 8/2/1 15/2/1
f 17/2/1 15/2/1 14/2/1
f 18/2/1 15/2/1 17/2/1
f 19/2/1 17/2/1 14/2/1
f 20/1/1 18/1/1 17/1/1
f 20/2/1 17/2/1 19/2/1
f 21/1/1 18/1/1 20/1/1
f 26/2/1 23/2/1 22/2/1
f 27/2/1 26/2/1 22/2/1
f 28/2/1 27/2/1 22/2/1
f 29/2/1 27/2/1 28/2/1
f 32/2/1 25/2/1 24/2/1
f 33/2/1 25/2/1 32/2/1
f 34/2/1 32/2/1 31/2/1
f 35/2/1 30/2/1 29/2/1
f 36/2/1 30/2/1 35/2/1
f 39/2/1 32/2/1 34/2/1
f 40/2/1 32/2/1 39/2/1
f 41/2/1 38/2/1 37/2/1
f 42/2/1 38/2/1 41/2/1
f 47/2/1 46/2/1 45/2/1
f 48/2/1 46/2/1 47/2/1
f 49/2/1 44/2/1 43/2/1
f 50/2/1 44/2/1 49/2/1
f 53/1/1 48/1/1 47/1/1
f 54/1/1 48/1/1 53/1/1
f 55/2/1 51/2/1 50/2/1
f 56/2/1 51/2/1 55/2/1
f 61/2/1 53/2/1 52/2/1
f 62/2/1 53/2/1 61/2/1
f 63/2/1 58/2/1 57/2/1
f 64/2/1 58/2/1 63/2/1
f 65/2/1 60/2/1 59/2/1
f 66/2/1 60/2/1 65/2/1
f 67/2/1 65/2/1 64/2/1
f 68/2/1 65/2/1 67/2/1
f 73/2/1 72/2/1 71/2/1
f 74/2/1 70/2/1 69/2/1
f 75/2/1 70/2/1 74/2/1
f 78/2/1 72/2/1 73/2/1
f 79/2/1 72/2/1 78/2/1
f 80/2/1 76/2/1 75/2/1
f 81/2/1 76/2/1 80/2/1
f 84/2/1 78/2/1 77/2/1
f 85/2/1 78/2/1 84/2/1
f 86/2/1 82/2/1 81/2/1
f 87/2/1 82/2/1 86/2/1
f 91/2/1 84/2/1 83/2/1
f 92/2/1 84/2/1 91/2/1
f 93/1/1 88/1/1 87/1/1
f 94/2/1 89/2/1 88/2/1
f 94/1/1 88/1/1 93/1/1
f 95/2/1 89/2/1 94/2/1
f 96/2/1 91/2/1 90/2/1
f 97/2/1 91/2/1 96/2/1
f 98/2/1 96/2/1 95/2/1
f 99/2/1 96/2/1 98/2/1
f 104/2/1 101/2/1 100/2/1
f 105/2/1 101/2/1 104/2/1
f 106/1/1 105/1/1 104/1/1
f 107/1/1 105/1/1 106/1/1
f 110/2/1 103/2/1 102/2/1
f 111/2/1 103/2/1 110/2/1
f 112/2/1 108/2/1 107/2/1
f 113/2/1 108/2/1 112/2/1
f 114/2/1 110/2/1 109/2/1
f 115/2/1 110/2/1 114/2/1
f 120/2/1 117/2/1 116/2/1
f 121/2/1 117/2/1 120/2/1
f 125/2/1 119/2/1 118/2/1
f 126/2/1 119/2/1 125/2/1
f 127/2/1 123/2/1 122/2/1
f 127/2/1 122/2/1 121/2/1
f 128/2/1 123/2/1 127/2/1
f 129/2/1 125/2/1 124/2/1
f 130/2/1 125/2/1 129/2/1
f 135/2/1 132/2/1 131/2/1
f 136/2/1 132/2/1 135/2/1
f 139/2/1 134/2/1 133/2/1
f 140/2/1 134/2/1 139/2/1
f 141/2/1 137/2/1 136/2/1
f 142/2/1 137/2/1 141/2/1
f 145/2/1 139/2/1 138/2/1
f 146/2/1 139/2/1 145/2/1
f 147/2/1 143/2/1 142/2/1
f 148/2/1 143/2/1 147/2/1
f 151/2/1 145/2/1 144/2/1
f 152/2/1 145/2/1 151/2/1
f 153/2/1 150/2/1 149/2/1
f 154/2/1 150/2/1 153/2/1
f 159/2/1 156/2/1 155/2/1
f 160/2/1 156/2/1 159/2/1
f 163/2/1 158/2/1 157/2/1
f 164/2/1 158/2/1 163/2/1
f 165/2/1 161/2/1 160/2/1
f 166/2/1 161/2/1 165/2/1
f 167/2/1 163/2/1 162/2/1
f 168/2/1 163/2/1 167/2/1
f 173/2/1 170/2/1 169/2/1
f 174/2/1 170/2/1 173/2/1
f 175/2/1 172/2/1 171/2/1
f 176/2/1 172/2/1 175/2/1
f 181/2/1 180/2/1 179/2/1
f 182/2/1 180/2/1 181/2/1
f 183/2/1 178/2/1 177/2/1
f 184/2/1 178/2/1 183/2/1
f 187/1/1 182/1/1 181/1/1
f 188/1/1 182/1/1 187/1/1
f 189/2/1 185/2/1 184/2/1
f 190/2/1 185/2/1 189/2/1
f 193/2/1 187/2/1 186/2/1
f 194/2/1 187/2/1 193/2/1
f 195/2/1 191/2/1 190/2/1
f 196/2/1 191/2/1 195/2/1
f 201/2/1 193/2/1 192/2/1
f 202/2/1 193/2/1 201/2/1
f 203/2/1 198/2/1 197/2/1
f 204/2/1 198/2/1 203/2/1
f 207/2/1 200/2/1 199/2/1
f 208/2/1 200/2/1 207/2/1
f 209/2/1 206/2/1 205/2/1
f 210/2/1 206/2/1 209/2/1
f 213/2/1 212/2/1 211/2/1
f 214/2/1 212/2/1 213/2/1
f 219/2/1 216/2/1 215/2/1
f 220/2/1 216/2/1 219/2/1
f 221/2/1 218/2/1 217/2/1
f 222/2/1 218/2/1 221/2/1
f 223/2/2 224/2/2 225/2/2
f 225/2/2 224/2/2 226/2/2
f 227/2/2 228/2/2 231/2/2
f 231/2/2 228/2/2 232/2/2
f 229/1/2 230/1/2 233/1/2
f 233/1/2 230/1/2 234/1/2
f 235/2/2 236/2/2 239/2/2
f 239/2/2 236/2/2 240/2/2
f 237/2/2 238/2/2 243/2/2
f 243/2/2 238/2/2 244/2/2
f 240/2/2 241/2/2 245/2/2
f 245/2/2 241/2/2 246/2/2
f 242/2/2 243/2/2 249/2/2
f 249/2/2 243/2/2 250/2/2
f 246/2/2 247/2/2 251/2/2
f 251/2/2 247/2/2 252/2/2
f 248/2/2 249/2/2 257/2/2
f 257/2/2 249/2/2 258/2/2
f 253/2/2 254/2/2 259/2/2
f 259/2/2 254/2/2 260/2/2
f 255/2/2 256/2/2 263/2/2
f 263/2/2 256/2/2 264/2/2
f 261/2/2 262/2/2 265/2/2
f 265/2/2 262/2/2 266/2/2
f 267/2/2 268/2/2 271/2/2
f 271/2/2 268/2/2 272/2/2
f 269/2/2 270/2/2 275/2/2
f 275/2/2 270/2/2 276/2/2
f 274/2/2 275/2/2 277/2/2
f 272/2/2 273/2/2 278/2/2
f 278/2/2 273/2/2 279/2/2
f 277/2/2 275/2/2 280/2/2
f 280/2/2 275/2/2 281/2/2
f 282/2/2 283/2/2 286/2/2
f 286/2/2 283/2/2 287/2/2
f 284/2/2 285/2/2 288/2/2
f 288/2/2 285/2/2 289/2/2
f 290/2/2 291/2/2 294/2/2
f 294/2/2 291/2/2 295/2/2
f 292/2/2 293/2/2 298/2/2
f 298/2/2 293/2/2 299/2/2
f 295/2/2 296/2/2 300/2/2
f 300/2/2 296/2/2 301/2/2
f 297/2/2 298/2/2 304/2/2
f 304/2/2 298/2/2 305/2/2
f 301/2/2 302/2/2 306/2/2
f 306/2/2 302/2/2 307/2/2
f 303/2/2 304/2/2 310/2/2
f 310/2/2 304/2/2 311/2/2
f 308/2/2 309/2/2 312/2/2
f 312/2/2 309/2/2 313/2/2
f 314/2/2 315/2/2 318/2/2
f 318/2/2 315/2/2 319/2/2
f 318/1/2 319/1/2 320/1/2
f 320/1/2 319/1/2 321/1/2
f 316/2/2 317/2/2 324/2/2
f 324/2/2 317/2/2 325/2/2
f 321/2/2 322/2/2 326/2/2
f 326/2/2 322/2/2 327/2/2
f 323/2/2 324/2/2 328/2/2
f 328/2/2 324/2/2 329/2/2
f 330/2/2 331/2/2 334/2/2
f 334/2/2 331/2/2 335/2/2
f 332/2/2 333/2/2 338/2/2
f 338/2/2 333/2/2 339/2/2
f 335/2/2 336/2/2 340/2/2
f 340/2/2 336/2/2 341/2/2
f 337/2/2 338/2/2 342/2/2
f 342/2/2 338/2/2 343/2/2
f 344/2/2 345/2/2 348/2/2
f 348/2/2 345/2/2 349/2/2
f 346/2/2 347/2/2 352/2/2
f 352/2/2 347/2/2 353/2/2
f 349/2/2 350/2/2 354/2/2
f 354/2/2 350/2/2 355/2/2
f 351/2/2 352/2/2 358/2/2
f 358/2/2 352/2/2 359/2/2
f 355/2/2 356/2/2 360/2/2
f 360/2/2 356/2/2 361/2/2
f 357/2/2 358/2/2 362/2/2
f 362/2/2 358/2/2 363/2/2
f 355/2/2 360/2/2 364/2/2
f 360/1/2 361/1/2 365/1/2
f 364/2/2 360/2/2 365/2/2
f 365/1/2 361/1/2 366/1/2
f 362/1/2 363/1/2 369/1/2
f 363/2/2 358/2/2 370/2/2
f 369/1/2 363/1/2 370/1/2
f 370/2/2 358/2/2 371/2/2
f 366/2/2 367/2/2 372/2/2
f 372/2/2 367/2/2 373/2/2
f 368/2/2 369/2/2 374/2/2
f 374/2/2 369/2/2 375/2/2
f 373/2/2 374/2/2 376/2/2
f 376/2/2 374/2/2 377/2/2
f 378/2/2 379/2/2 382/2/2
f 382/2/2 379/2/2 383/2/2
f 380/2/2 381/2/2 386/2/2
f 386/2/2 381/2/2 387/2/2
f 383/2/2 384/2/2 388/2/2
f 388/2/2 384/2/2 389/2/2
f 385/2/2 386/2/2 395/2/2
f 395/2/2 386/2/2 396/2/2
f 390/2/2 391/2/2 397/2/2
f 397/2/2 391/2/2 398/2/2
f 393/2/2 394/2/2 399/2/2
f 392/2/2 393/2/2 399/2/2
f 399/2/2 394/2/2 400/2/2
f 398/2/2 399/2/2 401/2/2
f 401/2/2 399/2/2 402/2/2
f 403/2/2 404/2/2 407/2/2
f 407/2/2 404/2/2 408/2/2
f 405/2/2 406/2/2 411/2/2
f 411/2/2 406/2/2 412/2/2
f 410/2/2 411/2/2 413/2/2
f 413/2/2 411/2/2 414/2/2
f 408/2/2 409/2/2 415/2/2
f 415/2/2 409/2/2 416/2/2
f 413/1/2 414/1/2 419/1/2
f 414/2/2 411/2/2 420/2/2
f 419/1/2 414/1/2 420/1/2
f 420/2/2 411/2/2 421/2/2
f 417/2/2 418/2/2 422/2/2
f 422/2/2 418/2/2 423/2/2
f 424/2/2 425/2/2 428/2/2
f 428/2/2 425/2/2 429/2/2
f 426/2/2 427/2/2 430/2/2
f 430/2/2 427/2/2 431/2/2
f 429/2/2 430/2/2 432/2/2
f 432/2/2 430/2/2 433/2/2
f 434/2/2 435/2/2 436/2/2
f 436/2/2 435/2/2 437/2/2
f 440/2/3 439/2/3 438/2/3
f 441/2/3 439/2/3 440/2/3
f 445/2/3 443/2/3 442/2/3
f 445/1/3 444/1/3 443/1/3
f 446/1/3 444/1/3 445/1/3
f 447/2/3 445/2/3 442/2/3
f 447/2/3 446/2/3 445/2/3
f 448/2/3 446/2/3 447/2/3
f 450/2/3 449/2/3 448/2/3
f 451/2/3 449/2/3 450/2/3
f 452/2/3 450/2/3 448/2/3
f 452/1/3 451/1/3 450/1/3
f 453/2/3 449/2/3 451/2/3
f 453/1/3 451/1/3 452/1/3
f 455/2/3 452/2/3 448/2/3
f 455/2/3 453/2/3 452/2/3
f 456/2/3 449/2/3 453/2/3
f 456/2/3 453/2/3 455/2/3
f 457/2/3 455/2/3 454/2/3
f 458/2/3 455/2/3 457/2/3
f 459/2/3 457/2/3 454/2/3
f 460/1/3 458/1/3 457/1/3
f 460/2/3 457/2/3 459/2/3
f 461/1/3 458/1/3 460/1/3
f 464/2/3 463/2/3 462/2/3
f 465/2/3 463/2/3 464/2/3
f 466/2/3 463/2/3 465/2/3
f 468/2/3 467/2/3 466/2/3
f 469/2/3 467/2/3 468/2/3
f 470/2/3 467/2/3 469/2/3
f 473/2/3 472/2/3 471/2/3
f 474/2/3 472/2/3 473/2/3
f 477/2/3 476/2/3 475/2/3
f 480/2/3 476/2/3 477/2/3
f 481/2/3 476/2/3 480/2/3
f 482/2/3 479/2/3 478/2/3
f 482/2/3 480/2/3 479/2/3
f 483/2/3 480/2/3 482/2/3
f 486/2/3 485/2/3 484/2/3
f 487/2/3 485/2/3 486/2/3
f 489/2/3 488/2/3 487/2/3
f 490/2/3 488/2/3 489/2/3
f 493/2/3 492/2/3 491/2/3
f 494/2/3 492/2/3 493/2/3
f 497/2/3 495/2/3 494/2/3
f 498/2/3 495/2/3 497/2/3
f 499/2/3 497/2/3 496/2/3
f 500/2/3 497/2/3 499/2/3
f 504/2/3 502/2/3 501/2/3
f 505/2/3 502/2/3 504/2/3
f 506/2/3 504/2/3 503/2/3
f 507/2/3 504/2/3 506/2/3
f 510/2/3 509/2/3 508/2/3
f 511/2/3 509/2/3 510/2/3
f 513/2/3 512/2/3 511/2/3
f 514/2/3 512/2/3 513/2/3
f 516/2/3 515/2/3 514/2/3
f 517/2/3 515/2/3 516/2/3
f 519/2/3 518/2/3 517/2/3
f 520/2/3 518/2/3 519/2/3
f 523/2/3 521/2/3 520/2/3
f 524/2/3 521/2/3 523/2/3
f 526/2/3 523/2/3 522/2/3
f 527/2/3 523/2/3 526/2/3
f 529/2/3 526/2/3 525/2/3
f 530/2/3 526/2/3 529/2/3
f 532/2/3 529/2/3 528/2/3
f 533/2/3 529/2/3 532/2/3
f 534/2/3 532/2/3 531/2/3
f 535/2/3 532/2/3 534/2/3
f 540/2/3 537/2/3 536/2/3
f 541/1/3 538/1/3 537/1/3
f 541/2/3 537/2/3 540/2/3
f 542/2/3 539/2/3 538/2/3
f 542/1/3 538/1/3 541/1/3
f 543/2/3 539/2/3 542/2/3
f 545/2/3 544/2/3 543/2/3
f 546/2/3 544/2/3 545/2/3
f 549/2/3 548/2/3 547/2/3
f 550/2/3 548/2/3 549/2/3
f 552/2/3 551/2/3 550/2/3
f 553/2/3 551/2/3 552/2/3
f 557/2/3 555/2/3 554/2/3
f 558/2/3 555/2/3 557/2/3
f 559/2/3 557/2/3 556/2/3
f 560/2/3 557/2/3 559/2/3
f 564/2/3 562/2/3 561/2/3
f 565/2/3 562/2/3 564/2/3
f 566/2/3 564/2/3 563/2/3
f 567/2/3 564/2/3 566/2/3
f 570/2/3 569/2/3 568/2/3
f 571/2/3 569/2/3 570/2/3
f 573/1/3 572/1/3 571/1/3
f 574/1/3 572/1/3 573/1/3
f 576/2/3 575/2/3 574/2/3
f 577/2/3 575/2/3 576/2/3
f 580/2/3 579/2/3 578/2/3
f 581/2/3 579/2/3 580/2/3
f 585/2/3 583/2/3 582/2/3
f 586/2/3 583/2/3 585/2/3
f 589/2/3 585/2/3 584/2/3
f 590/2/3 585/2/3 589/2/3
f 591/2/3 588/2/3 587/2/3
f 591/2/3 589/2/3 588/2/3
f 592/2/3 589/2/3 591/2/3
f 595/2/3 594/2/3 593/2/3
f 596/2/3 594/2/3 595/2/3
f 598/2/3 597/2/3 596/2/3
f 599/2/3 597/2/3 598/2/3
f 602/2/3 601/2/3 600/2/3
f 603/2/3 601/2/3 602/2/3
f 606/2/3 605/2/3 604/2/3
f 607/2/3 605/2/3 606/2/3
f 611/2/3 609/2/3 608/2/3
f 612/2/3 609/2/3 611/2/3
f 613/2/3 611/2/3 610/2/3
f 614/2/3 611/2/3 613/2/3
f 617/2/3 616/2/3 615/2/3
f 618/2/3 616/2/3 617/2/3
f 620/2/3 619/2/3 618/2/3
f 621/2/3 619/2/3 620/2/3
f 623/2/3 622/2/3 621/2/3
f 624/2/3 622/2/3 623/2/3
f 627/2/3 626/2/3 625/2/3
f 628/2/3 626/2/3 627/2/3
f 631/2/3 630/2/3 629/2/3
f 632/2/3 630/2/3 631/2/3
f 635/2/3 634/2/3 633/2/3
f 636/2/3 634/2/3 635/2/3
f 640/2/3 638/2/3 637/2/3
f 641/2/3 638/2/3 640/2/3
f 643/2/3 640/2/3 639/2/3
f 644/2/3 640/2/3 643/2/3
f 645/2/3 643/2/3 642/2/3
f 646/2/3 643/2/3 645/2/3
f 649/2/3 648/2/3 647/2/3
f 650/2/3 648/2/3 649/2/3
f 653/2/3 652/2/3 651/2/3
f 654/2/3 652/2/3 653/2/3
f 657/2/3 656/2/3 655/2/3
f 658/2/3 656/2/3 657/2/3
f 659/2/4 660/2/4 663/2/4
f 663/2/4 660/2/4 664/2/4
f 661/2/4 662/2/4 665/2/4
f 665/2/4 662/2/4 666/2/4
f 667/2/4 668/2/4 669/2/4
f 669/2/4 668/2/4 670/2/4
f 671/2/4 672/2/4 673/2/4
f 673/2/4 672/2/4 674/2/4
f 674/2/4 675/2/4 676/2/4
f 676/2/4 675/2/4 677/2/4
f 677/2/4 678/2/4 679/2/4
f 679/2/4 678/2/4 680/2/4
f 681/2/4 682/2/4 683/2/4
f 683/2/4 682/2/4 684/2/4
f 685/2/4 686/2/4 687/2/4
f 687/2/4 686/2/4 688/2/4
f 687/1/4 688/1/4 689/1/4
f 689/1/4 688/1/4 690/1/4
f 691/2/4 692/2/4 693/2/4
f 693/2/4 692/2/4 694/2/4
f 695/2/4 696/2/4 698/2/4
f 698/2/4 696/2/4 699/2/4
f 697/2/4 698/2/4 701/2/4
f 701/2/4 698/2/4 702/2/4
f 700/2/4 701/2/4 703/2/4
f 703/2/4 701/2/4 704/2/4
f 705/2/4 706/2/4 707/2/4
f 707/2/4 706/2/4 708/2/4
f 708/2/4 709/2/4 711/2/4
f 709/1/4 710/1/4 712/1/4
f 711/2/4 709/2/4 712/2/4
f 712/1/4 710/1/4 713/1/4
f 714/2/4 715/2/4 716/2/4
f 716/2/4 715/2/4 717/2/4
f 718/2/4 719/2/4 720/2/4
f 720/2/4 719/2/4 721/2/4
f 722/2/4 723/2/4 726/2/4
f 723/2/4 724/2/4 726/2/4
f 726/2/4 724/2/4 727/2/4
f 725/2/4 726/2/4 728/2/4
f 728/2/4 726/2/4 729/2/4
f 730/2/4 731/2/4 732/2/4
f 732/2/4 731/2/4 733/2/4
f 733/2/4 734/2/4 735/2/4
f 735/2/4 734/2/4 736/2/4
f 736/2/4 737/2/4 738/2/4
f 738/2/4 737/2/4 739/2/4
f 740/2/4 741/2/4 742/2/4
f 742/2/4 741/2/4 743/2/4
f 744/2/4 745/2/4 747/2/4
f 747/2/4 745/2/4 748/2/4
f 746/2/4 747/2/4 751/2/4
f 751/2/4 747/2/4 752/2/4
f 749/2/4 750/2/4 753/2/4
f 750/2/4 751/2/4 753/2/4
f 753/2/4 751/2/4 754/2/4
f 755/2/4 756/2/4 757/2/4
f 757/2/4 756/2/4 758/2/4
f 758/2/4 759/2/4 760/2/4
f 760/2/4 759/2/4 761/2/4
f 762/2/4 763/2/4 764/2/4
f 764/2/4 763/2/4 765/2/4
f 765/2/4 766/2/4 767/2/4
f 767/2/4 766/2/4 768/2/4
f 769/2/4 770/2/4 772/2/4
f 772/2/4 770/2/4 773/2/4
f 771/2/4 772/2/4 774/2/4
f 774/2/4 772/2/4 775/2/4
f 776/2/4 777/2/4 779/2/4
f 779/2/4 777/2/4 780/2/4
f 778/2/4 779/2/4 781/2/4
f 781/2/4 779/2/4 782/2/4
f 783/2/4 784/2/4 785/2/4
f 785/2/4 784/2/4 786/2/4
f 786/2/4 784/2/4 787/2/4
f 787/2/4 788/2/4 789/2/4
f 789/2/4 788/2/4 790/2/4
f 790/2/4 791/2/4 792/2/4
f 792/2/4 791/2/4 793/2/4
f 793/2/4 794/2/4 795/2/4
f 795/2/4 794/2/4 796/2/4
f 796/2/4 797/2/4 799/2/4
f 799/2/4 797/2/4 800/2/4
f 798/2/4 799/2/4 802/2/4
f 802/2/4 799/2/4 803/2/4
f 801/2/4 802/2/4 805/2/4
f 805/2/4 802/2/4 806/2/4
f 804/2/4 805/2/4 808/2/4
f 808/2/4 805/2/4 809/2/4
f 807/2/4 808/2/4 810/2/4
f 810/2/4 808/2/4 811/2/4
f 812/2/4 813/2/4 815/2/4
f 813/1/4 814/1/4 816/1/4
f 815/2/4 813/2/4 816/2/4
f 816/1/4 814/1/4 817/1/4
f 817/2/4 818/2/4 819/2/4
f 819/2/4 818/2/4 820/2/4
f 821/2/4 822/2/4 823/2/4
f 823/2/4 822/2/4 824/2/4
f 824/2/4 822/2/4 825/2/4
f 825/2/4 826/2/4 827/2/4
f 827/2/4 826/2/4 829/2/4
f 829/2/4 826/2/4 830/2/4
f 828/2/4 829/2/4 831/2/4
f 831/2/4 829/2/4 832/2/4
f 833/2/4 834/2/4 836/2/4
f 836/2/4 834/2/4 837/2/4
f 835/2/4 836/2/4 838/2/4
f 838/2/4 836/2/4 839/2/4
f 840/2/4 841/2/4 842/2/4
f 842/2/4 841/2/4 843/2/4
f 843/2/4 844/2/4 845/2/4
f 845/2/4 844/2/4 846/2/4
f 847/2/4 848/2/4 850/2/4
f 848/1/4 849/1/4 850/1/4
f 850/1/4 849/1/4 851/1/4
f 847/2/4 850/2/4 852/2/4
f 850/2/4 851/2/4 852/2/4
f 852/2/4 851/2/4 853/2/4
f 854/1/4 855/1/4 857/1/4
f 855/2/4 856/2/4 858/2/4
f 857/1/4 855/1/4 858/1/4
f 857/2/4 858/2/4 860/2/4
f 858/2/4 856/2/4 861/2/4
f 860/2/4 858/2/4 861/2/4
f 859/2/4 860/2/4 862/2/4
f 862/2/4 860/2/4 863/2/4
f 864/2/4 865/2/4 866/2/4
f 866/2/4 865/2/4 867/2/4
f 867/2/4 868/2/4 870/2/4
f 870/2/4 868/2/4 871/2/4
f 869/2/4 870/2/4 872/2/4
f 872/2/4 870/2/4 873/2/4
f 874/2/4 875/2/4 876/2/4
f 876/2/4 875/2/4 877/2/4
f 880/2/5 879/2/5 878/2/5
f 881/2/5 879/2/5 880/2/5
f 885/2/5 883/2/5 882/2/5
f 886/2/5 883/2/5 885/2/5
f 889/2/5 885/2/5 884/2/5
f 889/2/5 887/2/5 886/2/5
f 889/2/5 886/2/5 885/2/5
f 890/2/5 887/2/5 889/2/5
f 893/2/5 889/2/5 888/2/5
f 893/2/5 891/2/5 890/2/5
f 893/2/5 890/2/5 889/2/5
f 894/2/5 891/2/5 893/2/5
f 897/2/5 893/2/5 892/2/5
f 897/2/5 895/2/5 894/2/5
f 897/2/5 894/2/5 893/2/5
f 898/2/5 895/2/5 897/2/5
f 901/2/5 897/2/5 896/2/5
f 901/2/5 899/2/5 898/2/5
f 901/2/5 898/2/5 897/2/5
f 902/2/5 899/2/5 901/2/5
f 905/2/5 901/2/5 900/2/5
f 905/2/5 903/2/5 902/2/5
f 905/2/5 902/2/5 901/2/5
f 906/2/5 903/2/5 905/2/5
f 908/2/5 905/2/5 904/2/5
f 908/2/5 907/2/5 906/2/5
f 908/2/5 906/2/5 905/2/5
f 909/2/5 907/2/5 908/2/5
f 910/2/5 908/2/5 904/2/5
f 911/2/5 907/2/5 909/2/5
f 912/2/5 910/2/5 904/2/5
f 912/2/5 911/2/5 910/2/5
f 913/2/5 911/2/5 912/2/5
f 914/2/5 907/2/5 911/2/5
f 914/2/5 911/2/5 913/2/5
f 915/2/5 907/2/5 914/2/5
f 916/2/5 914/2/5 913/2/5
f 917/2/5 914/2/5 916/2/5
f 918/2/5 914/2/5 917/2/5
f 919/2/5 914/2/5 918/2/5
f 920/2/5 918/2/5 917/2/5
f 921/2/5 918/2/5 920/2/5
f 922/2/5 918/2/5 921/2/5
f 923/2/5 918/2/5 922/2/5
f 924/2/5 922/2/5 921/2/5
f 925/2/5 922/2/5 924/2/5
f 926/2/5 922/2/5 925/2/5
f 927/2/5 922/2/5 926/2/5
f 928/2/5 926/2/5 925/2/5
f 929/2/5 926/2/5 928/2/5
f 930/2/5 926/2/5 929/2/5
f 931/2/5 926/2/5 930/2/5
f 932/2/5 930/2/5 929/2/5
f 933/2/5 930/2/5 932/2/5
f 934/2/5 930/2/5 933/2/5
f 935/2/5 930/2/5 934/2/5
f 936/2/5 934/2/5 933/2/5
f 937/2/5 934/2/5 936/2/5
f 938/2/6 939/2/6 942/2/6
f 942/2/6 939/2/6 943/2/6
f 940/1/6 941/1/6 947/1/6
f 941/2/6 942/2/6 948/2/6
f 947/1/6 941/1/6 948/1/6
f 948/2/6 942/2/6 949/2/6
f 943/2/6 944/2/6 950/2/6
f 944/1/6 945/1/6 951/1/6
f 950/2/6 944/2/6 951/2/6
f 951/1/6 945/1/6 952/1/6
f 946/2/6 947/2/6 955/2/6
f 955/2/6 947/2/6 956/2/6
f 952/2/6 953/2/6 957/2/6
f 957/2/6 953/2/6 958/2/6
f 954/2/6 955/2/6 961/2/6
f 961/2/6 955/2/6 962/2/6
f 958/2/6 959/2/6 963/2/6
f 963/2/6 959/2/6 964/2/6
f 960/2/6 961/2/6 967/2/6
f 967/2/6 961/2/6 968/2/6
f 964/2/6 965/2/6 969/2/6
f 969/2/6 965/2/6 970/2/6
f 966/2/6 967/2/6 973/2/6
f 973/2/6 967/2/6 974/2/6
f 970/2/6 971/2/6 975/2/6
f 975/2/6 971/2/6 976/2/6
f 972/2/6 973/2/6 978/2/6
f 978/2/6 973/2/6 979/2/6
f 976/2/6 977/2/6 982/2/6
f 982/2/6 977/2/6 983/2/6
f 979/2/6 980/2/6 984/2/6
f 984/2/6 980/2/6 985/2/6
f 981/2/6 982/2/6 988/2/6
f 988/2/6 982/2/6 989/2/6
f 985/2/6 986/2/6 990/2/6
f 990/2/6 986/2/6 991/2/6
f 987/2/6 988/2/6 994/2/6
f 994/2/6 988/2/6 995/2/6
f 991/1/6 992/1/6 996/1/6
f 996/1/6 992/1/6 997/1/6
f 993/2/6 994/2/6 1000/2/6
f 1000/2/6 994/2/6 1001/2/6
f 997/2/6 998/2/6 1002/2/6
f 1002/2/6 998/2/6 1003/2/6
f 999/2/6 1000/2/6 1007/2/6
f 1007/2/6 1000/2/6 1008/2/6
f 1003/2/6 1004/2/6 1009/2/6
f 1009/2/6 1004/2/6 1010/2/6
f 1005/2/6 1006/2/6 1011/2/6
f 1006/2/6 1007/2/6 1011/2/6
f 1011/2/6 1007/2/6 1012/2/6
f 1010/2/6 1011/2/6 1013/2/6
f 1013/2/6 1011/2/6 1014/2/6
f 1015/2/6 1016/2/6 1018/2/6
f 1018/2/6 1016/2/6 1019/2/6
f 1019/2/6 1016/2/6 1020/2/6
f 1020/2/6 1016/2/6 1021/2/6
f 1017/2/6 1018/2/6 1024/2/6
f 1018/2/6 1019/2/6 1024/2/6
f 1024/2/6 1019/2/6 1025/2/6
f 1025/2/6 1019/2/6 1026/2/6
f 1020/2/6 1021/2/6 1027/2/6
f 1021/2/6 1022/2/6 1027/2/6
f 1027/2/6 1022/2/6 1028/2/6
f 1028/2/6 1022/2/6 1029/2/6
f 1024/2/6 1025/2/6 1032/2/6
f 1023/2/6 1024/2/6 1032/2/6
f 1032/2/6 1025/2/6 1033/2/6
f 1029/2/6 1030/2/6 1034/2/6
f 1028/2/6 1029/2/6 1034/2/6
f 1034/2/6 1030/2/6 1035/2/6
f 1031/2/6 1032/2/6 1038/2/6
f 1035/2/6 1036/2/6 1039/2/6
f 1037/2/6 1038/2/6 1041/2/6
f 1038/2/6 1032/2/6 1041/2/6
f 1041/2/6 1032/2/6 1042/2/6
f 1039/2/6 1040/2/6 1043/2/6
f 1035/2/6 1039/2/6 1043/2/6
f 1043/2/6 1040/2/6 1044/2/6
f 1037/2/6 1041/2/6 1046/2/6
f 1044/2/6 1040/2/6 1047/2/6
f 1045/2/6 1046/2/6 1049/2/6
f 1046/2/6 1041/2/6 1049/2/6
f 1049/2/6 1041/2/6 1050/2/6
f 1047/2/6 1048/2/6 1051/2/6
f 1044/2/6 1047/2/6 1051/2/6
f 1051/2/6 1048/2/6 1052/2/6
f 1045/2/6 1049/2/6 1053/2/6
f 1053/2/6 1049/2/6 1054/2/6
f 1052/2/6 1048/2/6 1057/2/6
f 1053/1/6 1054/1/6 1058/1/6
f 1054/2/6 1055/2/6 1059/2/6
f 1058/1/6 1054/1/6 1059/1/6
f 1056/2/6 1057/2/6 1060/2/6
f 1057/2/6 1048/2/6 1061/2/6
f 1060/2/6 1057/2/6 1061/2/6
f 1061/2/6 1048/2/6 1062/2/6
f 1059/2/6 1055/2/6 1063/2/6
f 1060/1/6 1061/1/6 1066/1/6
f 1066/1/6 1061/1/6 1067/1/6
f 1063/2/6 1064/2/6 1068/2/6
f 1059/2/6 1063/2/6 1068/2/6
f 1068/2/6 1064/2/6 1069/2/6
f 1066/2/6 1067/2/6 1070/2/6
f 1065/2/6 1066/2/6 1070/2/6
f 1070/2/6 1067/2/6 1071/2/6
f 1069/2/6 1064/2/6 1072/2/6
f 1072/2/6 1064/2/6 1073/2/6
f 1065/2/6 1070/2/6 1076/2/6
f 1076/2/6 1070/2/6 1077/2/6
f 1073/2/6 1074/2/6 1078/2/6
f 1078/2/6 1074/2/6 1079/2/6
f 1079/2/6 1074/2/6 1080/2/6
f 1075/2/6 1076/2/6 1083/2/6
f 1083/2/6 1076/2/6 1084/2/6
f 1084/2/6 1076/2/6 1085/2/6
f 1080/2/6 1081/2/6 1086/2/6
f 1079/2/6 1080/2/6 1086/2/6
f 1086/2/6 1081/2/6 1087/2/6
f 1087/2/6 1081/2/6 1088/2/6
f 1083/2/6 1084/2/6 1089/2/6
f 1082/2/6 1083/2/6 1089/2/6
f 1089/2/6 1084/2/6 1090/2/6
f 1090/2/6 1084/2/6 1091/2/6
f 1087/2/6 1088/2/6 1092/2/6
f 1089/2/6 1090/2/6 1092/2/6
f 1088/2/6 1089/2/6 1092/2/6
f 1092/2/6 1090/2/6 1093/2/6
f 1094/2/6 1095/2/6 1097/2/6
f 1097/2/6 1095/2/6 1098/2/6
f 1096/2/6 1097/2/6 1101/2/6
f 1101/2/6 1097/2/6 1102/2/6
f 1098/2/6 1099/2/6 1103/2/6
f 1103/2/6 1099/2/6 1104/2/6
f 1100/2/6 1101/2/6 1106/2/6
f 1106/2/6 1101/2/6 1107/2/6
f 1104/2/6 1105/2/6 1108/2/6
f 1108/2/6 1105/2/6 1109/2/6
f 1109/2/6 1105/2/6 1110/2/6
f 1100/2/6 1106/2/6 1112/2/6
f 1112/2/6 1106/2/6 1113/2/6
f 1109/1/6 1110/1/6 1114/1/6
f 1114/1/6 1110/1/6 1115/1/6
f 1111/2/6 1112/2/6 1117/2/6
f 1111/2/6 1117/2/6 1119/2/6
f 1119/2/6 1117/2/6 1120/2/6
f 1115/2/6 1116/2/6 1121/2/6
f 1121/2/6 1116/2/6 1122/2/6
f 1118/2/6 1119/2/6 1124/2/6
f 1124/2/6 1119/2/6 1125/2/6
f 1122/2/6 1123/2/6 1128/2/6
f 1128/2/6 1123/2/6 1129/2/6
f 1125/2/6 1126/2/6 1130/2/6
f 1130/2/6 1126/2/6 1131/2/6
f 1127/2/6 1128/2/6 1134/2/6
f 1134/2/6 1128/2/6 1135/2/6
f 1131/2/6 1132/2/6 1136/2/6
f 1133/1/6 1134/1/6 1139/1/6
f 1139/1/6 1134/1/6 1140/1/6
f 1136/2/6 1137/2/6 1141/2/6
f 1131/2/6 1136/2/6 1141/2/6
f 1141/2/6 1137/2/6 1142/2/6
f 1139/2/6 1140/2/6 1145/2/6
f 1138/2/6 1139/2/6 1145/2/6
f 1145/2/6 1140/2/6 1146/2/6
f 1142/2/6 1143/2/6 1147/2/6
f 1147/2/6 1143/2/6 1148/2/6
f 1144/2/6 1145/2/6 1150/2/6
f 1150/2/6 1145/2/6 1151/2/6
f 1148/1/6 1149/1/6 1152/1/6
f 1149/2/6 1150/2/6 1153/2/6
f 1152/1/6 1149/1/6 1153/1/6
f 1153/2/6 1150/2/6 1154/2/6
f 1155/2/6 1156/2/6 1158/2/6
f 1158/2/6 1156/2/6 1159/2/6
f 1157/2/6 1158/2/6 1162/2/6
f 1162/2/6 1158/2/6 1163/2/6
f 1159/2/6 1160/2/6 1164/2/6
f 1164/2/6 1160/2/6 1165/2/6
f 1161/2/6 1162/2/6 1168/2/6
f 1168/2/6 1162/2/6 1169/2/6
f 1165/2/6 1166/2/6 1170/2/6
f 1170/2/6 1166/2/6 1171/2/6
f 1167/1/6 1168/1/6 1173/1/6
f 1173/1/6 1168/1/6 1174/1/6
f 1173/2/6 1174/2/6 1176/2/6
f 1176/2/6 1174/2/6 1177/2/6
f 1171/2/6 1172/2/6 1178/2/6
f 1178/2/6 1172/2/6 1179/2/6
f 1175/2/6 1176/2/6 1181/2/6
f 1181/2/6 1176/2/6 1182/2/6
f 1179/2/6 1180/2/6 1185/2/6
f 1185/2/6 1180/2/6 1186/2/6
f 1182/2/6 1183/2/6 1187/2/6
f 1187/2/6 1183/2/6 1188/2/6
f 1184/2/6 1185/2/6 1191/2/6
f 1191/2/6 1185/2/6 1192/2/6
f 1188/2/6 1189/2/6 1193/2/6
f 1193/2/6 1189/2/6 1194/2/6
f 1190/2/6 1191/2/6 1197/2/6
f 1197/2/6 1191/2/6 1198/2/6
f 1194/2/6 1195/2/6 1199/2/6
f 1199/2/6 1195/2/6 1200/2/6
f 1196/2/6 1197/2/6 1201/2/6
f 1201/2/6 1197/2/6 1202/2/6
f 1200/2/6 1201/2/6 1203/2/6
f 1203/2/6 1201/2/6 1204/2/6
f 1205/2/6 1206/2/6 1208/2/6
f 1208/2/6 1206/2/6 1209/2/6
f 1207/2/6 1208/2/6 1212/2/6
f 1209/2/6 1210/2/6 1212/2/6
f 1208/2/6 1209/2/6 1212/2/6
f 1212/2/6 1210/2/6 1213/2/6
f 1213/2/6 1210/2/6 1214/2/6
f 1214/2/6 1210/2/6 1215/2/6
f 1211/2/6 1212/2/6 1217/2/6
f 1212/2/6 1213/2/6 1217/2/6
f 1217/2/6 1213/2/6 1218/2/6
f 1215/2/6 1216/2/6 1219/2/6
f 1214/2/6 1215/2/6 1219/2/6
f 1219/2/6 1216/2/6 1220/2/6
f 1211/2/6 1217/2/6 1222/2/6
f 1222/2/6 1217/2/6 1223/2/6
f 1223/2/6 1217/2/6 1224/2/6
f 1220/2/6 1216/2/6 1225/2/6
f 1225/2/6 1216/2/6 1226/2/6
f 1226/2/6 1216/2/6 1227/2/6
f 1221/2/6 1222/2/6 1229/2/6
f 1222/2/6 1223/2/6 1229/2/6
f 1229/2/6 1223/2/6 1230/2/6
f 1230/2/6 1223/2/6 1231/2/6
f 1227/2/6 1228/2/6 1234/2/6
f 1226/2/6 1227/2/6 1234/2/6
f 1234/2/6 1228/2/6 1235/2/6
f 1235/2/6 1228/2/6 1236/2/6
f 1231/2/6 1232/2/6 1237/2/6
f 1230/2/6 1231/2/6 1237/2/6
f 1234/2/6 1235/2/6 1240/2/6
f 1233/2/6 1234/2/6 1240/2/6
f 1237/2/6 1238/2/6 1241/2/6
f 1230/2/6 1237/2/6 1241/2/6
f 1241/2/6 1238/2/6 1242/2/6
f 1242/2/6 1238/2/6 1243/2/6
f 1239/2/6 1240/2/6 1244/2/6
f 1240/2/6 1235/2/6 1245/2/6
f 1244/2/6 1240/2/6 1245/2/6
f 1245/2/6 1235/2/6 1246/2/6
f 1242/2/6 1243/2/6 1247/2/6
f 1243/2/6 1244/2/6 1247/2/6
f 1244/2/6 1245/2/6 1247/2/6
f 1247/2/6 1245/2/6 1248/2/6
f 1248/2/6 1245/2/6 1249/2/6
f 1249/2/6 1245/2/6 1250/2/6
f 1248/2/6 1249/2/6 1251/2/6
f 1251/2/6 1249/2/6 1252/2/6
f 1253/2/6 1254/2/6 1256/2/6
f 1256/2/6 1254/2/6 1257/2/6
f 1255/2/6 1256/2/6 1260/2/6
f 1257/2/6 1258/2/6 1260/2/6
f 1256/2/6 1257/2/6 1260/2/6
f 1260/2/6 1258/2/6 1261/2/6
f 1261/2/6 1258/2/6 1262/2/6
f 1262/2/6 1258/2/6 1263/2/6
f 1259/2/6 1260/2/6 1265/2/6
f 1260/2/6 1261/2/6 1265/2/6
f 1265/2/6 1261/2/6 1266/2/6
f 1263/2/6 1264/2/6 1267/2/6
f 1262/2/6 1263/2/6 1267/2/6
f 1267/2/6 1264/2/6 1268/2/6
f 1259/2/6 1265/2/6 1269/2/6
f 1268/2/6 1264/2/6 1272/2/6
f 1269/2/6 1270/2/6 1273/2/6
f 1259/2/6 1269/2/6 1273/2/6
f 1273/2/6 1270/2/6 1274/2/6
f 1274/2/6 1270/2/6 1275/2/6
f 1271/2/6 1272/2/6 1277/2/6
f 1272/2/6 1264/2/6 1278/2/6
f 1277/2/6 1272/2/6 1278/2/6
f 1278/2/6 1264/2/6 1279/2/6
f 1275/2/6 1276/2/6 1280/2/6
f 1276/2/6 1277/2/6 1280/2/6
f 1277/2/6 1278/2/6 1280/2/6
f 1274/2/6 1275/2/6 1280/2/6
f 1280/2/6 1278/2/6 1281/2/6
f 1281/2/6 1278/2/6 1282/2/6
f 1282/2/6 1278/2/6 1283/2/6
f 1281/2/6 1282/2/6 1284/2/6
f 1284/2/6 1282/2/6 1285/2/6
f 1286/2/6 1287/2/6 1289/2/6
f 1289/2/6 1287/2/6 1290/2/6
f 1288/2/6 1289/2/6 1292/2/6
f 1290/2/6 1291/2/6 1292/2/6
f 1289/2/6 1290/2/6 1292/2/6
f 1292/2/6 1291/2/6 1293/2/6
f 1293/2/6 1291/2/6 1294/2/6
f 1294/2/6 1291/2/6 1295/2/6
f 1295/2/6 1291/2/6 1296/2/6
f 1293/2/6 1294/2/6 1297/2/6
f 1294/1/6 1295/1/6 1298/1/6
f 1297/2/6 1294/2/6 1298/2/6
f 1298/1/6 1295/1/6 1299/1/6
